<?xml version="1.0" encoding="UTF-8" standalone="no"?>
<svg
   width="210mm"
   height="95mm"
   viewBox="0 0 210 95"
   version="1.1"
   id="svg67"
   sodipodi:docname="etl-prozess-kurven.svg"
   inkscape:version="1.4.2 (ebf0e940d0, 2025-05-08)"
   xmlns:inkscape="http://www.inkscape.org/namespaces/inkscape"
   xmlns:sodipodi="http://sodipodi.sourceforge.net/DTD/sodipodi-0.dtd"
   xmlns="http://www.w3.org/2000/svg"
   xmlns:svg="http://www.w3.org/2000/svg">
  <sodipodi:namedview
     id="namedview59"
     pagecolor="#ffffff"
     bordercolor="#666666"
     borderopacity="1.0"
     inkscape:pageshadow="2"
     inkscape:pageopacity="0.0"
     inkscape:pagecheckerboard="0"
     inkscape:document-units="mm"
     showgrid="false"
     inkscape:zoom="1.7550694"
     inkscape:cx="329.33171"
     inkscape:cy="179.76497"
     inkscape:window-width="2560"
     inkscape:window-height="1371"
     inkscape:window-x="0"
     inkscape:window-y="0"
     inkscape:window-maximized="1"
     inkscape:current-layer="g56"
     inkscape:showpageshadow="2"
     inkscape:deskcolor="#d1d1d1" />
  <defs
     id="defs2">
    <marker
       style="overflow:visible"
       id="TriangleOutM"
       refX="0.0"
       refY="0.0"
       orient="auto">
      <path
         transform="scale(0.4)"
         style="fill-rule:evenodd;fill:context-stroke;stroke:context-stroke;stroke-width:1.0pt"
         d="M 5.77,0.0 L -2.88,5.0 L -2.88,-5.0 L 5.77,0.0 z "
         id="path66138" />
    </marker>
    <marker
       style="overflow:visible"
       id="TriangleOutM-3"
       refX="0"
       refY="0"
       orient="auto">
      <path
         transform="scale(0.4)"
         style="fill:context-stroke;fill-rule:evenodd;stroke:context-stroke;stroke-width:1pt"
         d="M 5.77,0 -2.88,5 V -5 Z"
         id="path66138-7" />
    </marker>
    <marker
       style="overflow:visible"
       id="TriangleOutM-0"
       refX="0"
       refY="0"
       orient="auto">
      <path
         transform="scale(0.4)"
         style="fill:context-stroke;fill-rule:evenodd;stroke:context-stroke;stroke-width:1pt"
         d="M 5.77,0 -2.88,5 V -5 Z"
         id="path66138-3" />
    </marker>
    <marker
       style="overflow:visible"
       id="TriangleOutM-0-4"
       refX="0"
       refY="0"
       orient="auto">
      <path
         transform="scale(0.4)"
         style="fill:context-stroke;fill-rule:evenodd;stroke:context-stroke;stroke-width:1pt"
         d="M 5.77,0 -2.88,5 V -5 Z"
         id="path66138-3-3" />
    </marker>
  </defs>
  <g
     id="g56">
    <path
       style="font-size:7.05556px;line-height:1.25;font-family:'Source Sans 3';-inkscape-font-specification:'Source Sans 3, ';fill:#2780e3;stroke-width:0.264583"
       d="M 24.80962,10.47642 H 21.994452 V 5.4387505 H 24.80962 V 5.9961397 H 22.629452 V 7.5695296 H 24.68262 V 8.1198633 H 22.629452 V 9.9190312 H 24.80962 Z M 26.728731,8.5431969 25.423452,6.6946402 h 0.705556 l 0.973668,1.4252231 0.966611,-1.4252231 h 0.698501 L 27.462509,8.5431969 28.838343,10.47642 H 28.132787 L 27.102676,8.9665305 26.058453,10.47642 h -0.698501 z m 4.099276,1.4957791 q 0.141111,0 0.289278,-0.02117 0.148166,-0.028222 0.239889,-0.056444 v 0.4727225 q -0.09878,0.04939 -0.282223,0.07761 -0.183444,0.03528 -0.352778,0.03528 -0.296333,0 -0.550334,-0.09878 Q 29.924895,10.342365 29.769673,10.088365 29.61445,9.8343644 29.61445,9.375753 V 7.1744183 H 29.078228 V 6.8780847 L 29.621506,6.6311401 29.86845,5.8268063 h 0.36689 v 0.8678339 h 1.093611 V 7.1744183 H 30.23534 v 2.1872236 q 0,0.3457225 0.162277,0.5150559 0.169334,0.1622782 0.43039,0.1622782 z m 3.048001,-3.4148914 q 0.105834,0 0.225778,0.014111 0.127001,0.00706 0.218723,0.028222 l -0.07761,0.5715004 q -0.09172,-0.021167 -0.204612,-0.035278 -0.105833,-0.014111 -0.204611,-0.014111 -0.289278,0 -0.543278,0.1622779 -0.254,0.1552223 -0.409222,0.4445003 Q 32.733008,8.07753 32.733008,8.4585302 V 10.47642 h -0.62089 V 6.6946402 h 0.508001 l 0.07055,0.6914449 h 0.02822 q 0.183444,-0.3104447 0.472722,-0.5362226 0.289278,-0.2257779 0.684389,-0.2257779 z m 2.441222,0.00706 q 0.691445,0 1.023056,0.3033891 0.331612,0.3033891 0.331612,0.9666118 V 10.47642 H 37.220342 L 37.100397,9.9401978 h -0.02822 q -0.246945,0.3104442 -0.522111,0.4586112 -0.268112,0.148167 -0.74789,0.148167 -0.515056,0 -0.853723,-0.268111 -0.338667,-0.275167 -0.338667,-0.8537231 0,-0.5644448 0.444501,-0.8678338 0.4445,-0.3104447 1.368778,-0.3386669 l 0.642056,-0.021167 V 7.9716966 q 0,-0.4727226 -0.204611,-0.6561671 -0.204611,-0.1834446 -0.578556,-0.1834446 -0.296333,0 -0.564445,0.091722 -0.268111,0.084667 -0.500944,0.1975557 l -0.1905,-0.465667 q 0.246944,-0.1340556 0.585611,-0.2257779 0.338667,-0.098778 0.705556,-0.098778 z m 0.183445,2.0178902 q -0.705556,0.028222 -0.980723,0.225778 -0.268112,0.1975556 -0.268112,0.5573892 0,0.3175002 0.190501,0.465667 0.197555,0.1481665 0.500944,0.1481665 0.479778,0 0.797279,-0.2610555 0.3175,-0.2681113 0.3175,-0.818445 V 8.6278637 Z m 2.956286,-0.7337782 q 0,0.1128889 -0.01411,0.2963335 -0.0071,0.1834446 -0.01411,0.3175002 h 0.02822 q 0.04233,-0.056445 0.127,-0.1622779 0.08467,-0.1058334 0.169333,-0.2116668 0.09172,-0.1128889 0.155223,-0.1834445 l 1.2065,-1.2770564 H 41.84174 L 40.310684,8.3103634 41.947573,10.47642 H 41.199684 L 39.88735,8.7125304 39.456961,9.0864751 V 10.47642 H 38.843127 V 5.1141947 h 0.613834 z m 4.416783,2.1237239 q 0.141111,0 0.289278,-0.02117 0.148167,-0.028222 0.239889,-0.056444 v 0.4727225 q -0.09878,0.04939 -0.282223,0.07761 -0.183444,0.03528 -0.352778,0.03528 -0.296333,0 -0.550333,-0.09878 Q 42.970632,10.342365 42.81541,10.088365 42.660188,9.8343644 42.660188,9.375753 V 7.1744183 H 42.123965 V 6.8780847 l 0.543278,-0.2469446 0.246945,-0.8043338 h 0.366889 v 0.8678339 h 1.093612 v 0.4797781 h -1.093612 v 2.1872236 q 0,0.3457225 0.162278,0.5150559 0.169333,0.1622782 0.430389,0.1622782 z m 1.601613,-4.7625034 q 0.141111,0 0.246944,0.098778 0.112889,0.091722 0.112889,0.2963336 0,0.1975556 -0.112889,0.2963335 -0.105833,0.098778 -0.246944,0.098778 -0.155222,0 -0.261056,-0.098778 -0.105833,-0.098778 -0.105833,-0.2963335 0,-0.2046113 0.105833,-0.2963336 0.105834,-0.098778 0.261056,-0.098778 z m 0.303389,1.4181676 V 10.47642 H 45.157857 V 6.6946402 Z m 4.487331,1.8838345 q 0,0.9383895 -0.479778,1.4534453 -0.472722,0.515056 -1.284112,0.515056 -0.500944,0 -0.896056,-0.225778 Q 47.218075,10.088365 46.992297,9.6509199 46.76652,9.2064196 46.76652,8.5784747 q 0,-0.9383895 0.472722,-1.4463898 0.472723,-0.5080003 1.284112,-0.5080003 0.515056,0 0.903112,0.2328335 0.395111,0.2257779 0.613833,0.6632226 0.225778,0.4303892 0.225778,1.058334 z m -2.857501,0 q 0,0.6702782 0.261055,1.0653896 0.268112,0.3880557 0.846667,0.3880557 0.571501,0 0.839612,-0.3880557 0.268111,-0.3951114 0.268111,-1.0653896 0,-0.6702782 -0.268111,-1.0512784 -0.268111,-0.3810003 -0.846667,-0.3810003 -0.578556,0 -0.839612,0.3810003 -0.261055,0.3810002 -0.261055,1.0512784 z m 5.658555,-1.9543901 q 0.677334,0 1.023056,0.3316113 0.345723,0.3245558 0.345723,1.058334 V 10.47642 H 53.822076 V 8.0563633 q 0,-0.9101673 -0.846667,-0.9101673 -0.627945,0 -0.867834,0.352778 -0.239889,0.352778 -0.239889,1.0160007 V 10.47642 h -0.62089 V 6.6946402 h 0.500945 l 0.09172,0.5150559 h 0.03528 q 0.183445,-0.2963336 0.508001,-0.4374448 0.324555,-0.1481667 0.684389,-0.1481667 z"
       id="text3566"
       aria-label="Extraktion" />
    <path
       style="font-size:7.05556px;line-height:1.25;font-family:'Source Sans 3';-inkscape-font-specification:'Source Sans 3, ';fill:#2780e3;stroke-width:0.264583"
       d="M 81.492043,10.22432 H 80.857042 V 5.7440397 h -1.57339 V 5.1866505 h 3.774725 v 0.5573892 h -1.566334 z m 3.654783,-3.8523354 q 0.105834,0 0.225778,0.014111 0.127,0.00706 0.218723,0.028222 l -0.07761,0.5715003 q -0.09172,-0.021167 -0.204611,-0.035278 -0.105833,-0.014111 -0.204611,-0.014111 -0.289278,0 -0.543278,0.1622779 -0.254,0.1552223 -0.409223,0.4445003 Q 84.003826,7.82543 84.003826,8.2064302 V 10.22432 h -0.62089 V 6.4425402 h 0.508001 l 0.07056,0.6914449 h 0.02822 q 0.183445,-0.3104447 0.472723,-0.5362226 0.289278,-0.2257779 0.684389,-0.2257779 z m 2.441222,0.00706 q 0.691445,0 1.023056,0.303389 0.331611,0.3033891 0.331611,0.9666118 V 10.22432 H 88.491159 L 88.371215,9.6880978 h -0.02822 q -0.246945,0.3104447 -0.522112,0.4586112 -0.268111,0.148167 -0.747889,0.148167 -0.515056,0 -0.853723,-0.268111 -0.338667,-0.2751671 -0.338667,-0.853723 0,-0.5644449 0.444501,-0.8678339 0.4445,-0.3104447 1.368778,-0.3386669 l 0.642056,-0.021167 V 7.7195966 q 0,-0.4727226 -0.204611,-0.6561671 -0.204611,-0.1834446 -0.578556,-0.1834446 -0.296334,0 -0.564445,0.091722 -0.268111,0.084667 -0.500945,0.1975557 l -0.1905,-0.465667 q 0.246945,-0.1340556 0.585612,-0.2257779 0.338667,-0.098778 0.705556,-0.098778 z m 0.183444,2.0178901 q -0.705556,0.028222 -0.980722,0.225778 -0.268112,0.1975556 -0.268112,0.5573892 0,0.3175002 0.1905,0.465667 0.197556,0.1481667 0.500945,0.1481667 0.479778,0 0.797278,-0.2610557 0.317501,-0.2681113 0.317501,-0.818445 V 8.3757637 Z m 4.162786,-2.0249457 q 0.677334,0 1.023057,0.3316113 0.345722,0.3245558 0.345722,1.058334 V 10.22432 H 92.689223 V 7.8042633 q 0,-0.9101673 -0.846667,-0.9101673 -0.627945,0 -0.867834,0.352778 -0.239889,0.3527781 -0.239889,1.0160007 V 10.22432 H 90.113944 V 6.4425402 h 0.500945 l 0.09172,0.5150559 h 0.03528 q 0.183444,-0.2963335 0.508,-0.4374447 0.324556,-0.1481668 0.684389,-0.1481668 z m 5.002393,2.8081129 q 0,0.5503337 -0.409223,0.8325565 -0.409222,0.282222 -1.100667,0.282222 -0.395112,0 -0.68439,-0.0635 -0.282222,-0.0635 -0.500944,-0.176389 V 9.4905422 q 0.225778,0.1128889 0.543278,0.2116668 0.324556,0.091722 0.656167,0.091722 0.472722,0 0.684389,-0.1481667 0.211667,-0.1552223 0.211667,-0.4092225 0,-0.1411112 -0.07761,-0.2540002 Q 96.181726,8.8696529 95.977114,8.7567639 95.779559,8.6438749 95.405614,8.5027637 95.038725,8.3616525 94.777669,8.2205413 94.516613,8.0794301 94.375502,7.8818745 94.234391,7.6843188 94.234391,7.3738741 q 0,-0.4797781 0.388056,-0.7408338 0.395111,-0.2610557 1.030112,-0.2610557 0.345722,0 0.642056,0.070556 0.303389,0.0635 0.564444,0.1834446 L 96.647393,7.119874 q -0.239889,-0.098778 -0.500945,-0.1693335 -0.261056,-0.070556 -0.536223,-0.070556 -0.381,0 -0.585611,0.1270001 -0.197556,0.1199445 -0.197556,0.3316113 0,0.1552223 0.09172,0.2681113 0.09172,0.1058334 0.303389,0.2116668 0.218723,0.098778 0.578556,0.2398891 0.359834,0.1340556 0.613834,0.2751668 0.254,0.1411112 0.388056,0.3457224 0.134056,0.1975557 0.134056,0.5009448 z m 2.659946,-2.2577792 h -0.9525 V 10.22432 h -0.62089 V 6.9223183 H 97.360005 V 6.6330403 L 98.023227,6.4213735 V 6.2026511 q 0,-0.7337782 0.324556,-1.0512784 0.324556,-0.3245558 0.903112,-0.3245558 0.225778,0 0.409222,0.042333 0.1905,0.035278 0.324556,0.084667 l -0.162278,0.4868337 q -0.112889,-0.035278 -0.261055,-0.070556 -0.148167,-0.035278 -0.30339,-0.035278 -0.310444,0 -0.465667,0.2116668 -0.148166,0.2046112 -0.148166,0.6491115 v 0.2469446 h 0.9525 z m 3.972283,1.4040564 q 0,0.9383895 -0.47978,1.4534454 -0.47272,0.5150559 -1.28411,0.5150559 -0.50095,0 -0.89606,-0.225778 -0.38806,-0.2328334 -0.61383,-0.6702781 -0.22578,-0.4445003 -0.22578,-1.0724452 0,-0.9383895 0.47272,-1.4463898 0.47272,-0.5080003 1.28411,-0.5080003 0.51506,0 0.90311,0.2328335 0.39512,0.2257779 0.61384,0.6632226 0.22578,0.4303892 0.22578,1.058334 z m -2.85751,0 q 0,0.6702783 0.26106,1.0653896 0.26811,0.3880558 0.84667,0.3880558 0.5715,0 0.83961,-0.3880558 0.26811,-0.3951113 0.26811,-1.0653896 0,-0.6702782 -0.26811,-1.0512784 -0.26811,-0.3810003 -0.84667,-0.3810003 -0.57855,0 -0.83961,0.3810003 -0.26106,0.3810002 -0.26106,1.0512784 z m 5.60212,-1.9543901 q 0.10583,0 0.22577,0.014111 0.127,0.00706 0.21873,0.028222 l -0.0776,0.5715003 q -0.0917,-0.021167 -0.20462,-0.035278 -0.10583,-0.014111 -0.20461,-0.014111 -0.28927,0 -0.54327,0.1622779 -0.25401,0.1552223 -0.40923,0.4445003 -0.14816,0.2822224 -0.14816,0.6632226 V 10.22432 h -0.62089 V 6.4425402 h 0.508 l 0.0705,0.6914449 h 0.0282 q 0.18345,-0.3104447 0.47273,-0.5362226 0.28928,-0.2257779 0.68439,-0.2257779 z m 5.29872,0 q 0.64206,0 0.95956,0.3316113 0.3175,0.3245558 0.3175,1.058334 V 10.22432 h -0.61384 V 7.7901522 q 0,-0.8960562 -0.76905,-0.8960562 -0.55034,0 -0.79022,0.3175002 -0.23284,0.3175002 -0.23284,0.9242784 V 10.22432 h -0.61383 V 7.7901522 q 0,-0.8960562 -0.77611,-0.8960562 -0.5715,0 -0.79023,0.352778 -0.21872,0.3527781 -0.21872,1.0160007 V 10.22432 h -0.62089 V 6.4425402 h 0.50095 l 0.0917,0.5150559 h 0.0353 q 0.17639,-0.2963335 0.47272,-0.4374447 0.30339,-0.1481668 0.64206,-0.1481668 0.889,0 1.15711,0.6350004 h 0.0353 q 0.1905,-0.3245558 0.51505,-0.4797781 0.33161,-0.1552223 0.6985,-0.1552223 z m 3.88056,0.00706 q 0.69144,0 1.02305,0.303389 0.33161,0.3033891 0.33161,0.9666118 v 2.575279 h -0.45155 l -0.11995,-0.5362222 h -0.0282 q -0.24694,0.3104447 -0.52211,0.4586112 -0.26811,0.148167 -0.74789,0.148167 -0.51506,0 -0.85372,-0.268111 -0.33867,-0.2751671 -0.33867,-0.853723 0,-0.5644449 0.4445,-0.8678339 0.4445,-0.3104447 1.36878,-0.3386669 l 0.64206,-0.021167 V 7.7195966 q 0,-0.4727226 -0.20462,-0.6561671 -0.20461,-0.1834446 -0.57855,-0.1834446 -0.29634,0 -0.56445,0.091722 -0.26811,0.084667 -0.50094,0.1975557 l -0.1905,-0.465667 q 0.24694,-0.1340556 0.58561,-0.2257779 0.33867,-0.098778 0.70556,-0.098778 z m 0.18344,2.0178901 q -0.70556,0.028222 -0.98072,0.225778 -0.26811,0.1975556 -0.26811,0.5573892 0,0.3175002 0.1905,0.465667 0.19755,0.1481667 0.50094,0.1481667 0.47978,0 0.79728,-0.2610557 0.3175,-0.2681113 0.3175,-0.818445 V 8.3757637 Z m 3.6054,1.3899454 q 0.14111,0 0.28928,-0.021167 0.14816,-0.028222 0.23989,-0.056444 v 0.4727225 q -0.0988,0.04939 -0.28223,0.07761 -0.18344,0.03528 -0.35277,0.03528 -0.29634,0 -0.55034,-0.09878 -0.24694,-0.105833 -0.40217,-0.3598334 -0.15522,-0.2540002 -0.15522,-0.7126116 V 6.9223183 h -0.53622 V 6.6259848 l 0.54328,-0.2469446 0.24694,-0.8043339 h 0.36689 v 0.8678339 h 1.09361 v 0.4797781 h -1.09361 v 2.1872236 q 0,0.3457225 0.16228,0.5150559 0.16933,0.1622779 0.43039,0.1622779 z m 1.60161,-4.7625031 q 0.14111,0 0.24695,0.098778 0.11289,0.091722 0.11289,0.2963335 0,0.1975557 -0.11289,0.2963335 -0.10584,0.098778 -0.24695,0.098778 -0.15522,0 -0.26105,-0.098778 -0.10584,-0.098778 -0.10584,-0.2963335 0,-0.2046113 0.10584,-0.2963335 0.10583,-0.098778 0.26105,-0.098778 z m 0.30339,1.4181676 V 10.22432 h -0.62089 V 6.4425402 Z m 4.48733,1.8838345 q 0,0.9383895 -0.47978,1.4534454 -0.47272,0.5150559 -1.28411,0.5150559 -0.50094,0 -0.89606,-0.225778 -0.38805,-0.2328334 -0.61383,-0.6702781 -0.22578,-0.4445003 -0.22578,-1.0724452 0,-0.9383895 0.47272,-1.4463898 0.47273,-0.5080003 1.28412,-0.5080003 0.51505,0 0.90311,0.2328335 0.39511,0.2257779 0.61383,0.6632226 0.22578,0.4303892 0.22578,1.058334 z m -2.8575,0 q 0,0.6702783 0.26105,1.0653896 0.26812,0.3880558 0.84667,0.3880558 0.5715,0 0.83961,-0.3880558 0.26811,-0.3951113 0.26811,-1.0653896 0,-0.6702782 -0.26811,-1.0512784 -0.26811,-0.3810003 -0.84666,-0.3810003 -0.57856,0 -0.83962,0.3810003 -0.26105,0.3810002 -0.26105,1.0512784 z m 5.65856,-1.9543901 q 0.67733,0 1.02305,0.3316113 0.34572,0.3245558 0.34572,1.058334 V 10.22432 h -0.61383 V 7.8042633 q 0,-0.9101673 -0.84667,-0.9101673 -0.62794,0 -0.86783,0.352778 -0.23989,0.3527781 -0.23989,1.0160007 V 10.22432 h -0.62089 V 6.4425402 h 0.50095 l 0.0917,0.5150559 h 0.0353 q 0.18344,-0.2963335 0.508,-0.4374447 0.32455,-0.1481668 0.68439,-0.1481668 z"
       id="text3566-0"
       aria-label="Transformation" />
    <path
       style="font-size:7.05556px;line-height:1.25;font-family:'Source Sans 3';-inkscape-font-specification:'Source Sans 3, ';fill:#2780e3;stroke-width:0.264583"
       d="M 161.25807,10.619727 V 5.5820572 h 0.635 v 4.4732248 h 2.20134 v 0.564445 z m 5.04473,-3.8452801 q 0.69145,0 1.02306,0.3033891 0.33161,0.303389 0.33161,0.9666117 v 2.5752793 h -0.45156 l -0.11994,-0.536222 h -0.0282 q -0.24695,0.310444 -0.52212,0.458611 -0.26811,0.148167 -0.74789,0.148167 -0.51505,0 -0.85372,-0.268112 -0.33866,-0.275166 -0.33866,-0.8537223 0,-0.5644448 0.4445,-0.8678339 0.4445,-0.3104447 1.36877,-0.3386669 l 0.64206,-0.021167 V 8.1150033 q 0,-0.4727225 -0.20461,-0.6561671 -0.20461,-0.1834446 -0.57856,-0.1834446 -0.29633,0 -0.56444,0.091722 -0.26811,0.084667 -0.50095,0.1975557 l -0.1905,-0.465667 q 0.24695,-0.1340556 0.58561,-0.2257779 0.33867,-0.098778 0.70556,-0.098778 z m 0.18345,2.0178902 q -0.70556,0.028222 -0.98073,0.2257779 -0.26811,0.1975557 -0.26811,0.5573892 0,0.3175002 0.1905,0.4656668 0.19756,0.148167 0.50095,0.148167 0.47977,0 0.79727,-0.2610558 0.3175,-0.2681112 0.3175,-0.8184449 V 8.7711704 Z m 3.683,1.8979459 q -0.70555,0 -1.12889,-0.486834 -0.42333,-0.4938891 -0.42333,-1.4675564 0,-0.9736673 0.42333,-1.4675565 0.43039,-0.5009448 1.13595,-0.5009448 0.43744,0 0.71261,0.1622779 0.28222,0.1622779 0.45861,0.3951114 h 0.0423 q -0.007,-0.091722 -0.0282,-0.2681113 -0.0141,-0.1834446 -0.0141,-0.289278 V 5.2575014 h 0.62089 v 5.3622256 h -0.50094 l -0.0917,-0.508 h -0.0282 q -0.16933,0.239889 -0.45155,0.409222 -0.28223,0.169334 -0.72673,0.169334 z m 0.0988,-0.515056 q 0.59972,0 0.83961,-0.3245559 0.24695,-0.3316113 0.24695,-0.994834 v -0.112889 q 0,-0.705556 -0.23284,-1.0795007 -0.23283,-0.3810002 -0.86077,-0.3810002 -0.50095,0 -0.75495,0.4021669 -0.24694,0.3951114 -0.24694,1.0653896 0,0.6773338 0.24694,1.0512785 0.254,0.3739448 0.762,0.3739448 z m 4.36034,-3.4078357 q 0.48683,0 0.83255,0.2116668 0.35278,0.2116668 0.53622,0.5997226 0.1905,0.3810003 0.1905,0.8960562 v 0.3739446 h -2.58939 q 0.0141,0.642056 0.32456,0.9807229 0.3175,0.3316116 0.88194,0.3316116 0.35984,0 0.635,-0.0635 0.28223,-0.07056 0.57856,-0.197556 v 0.543278 q -0.28928,0.127 -0.5715,0.183445 -0.28222,0.0635 -0.67028,0.0635 -0.53622,0 -0.9525,-0.218723 -0.40922,-0.218722 -0.64205,-0.6491112 -0.22578,-0.4374447 -0.22578,-1.0653895 0,-0.6208893 0.20461,-1.0653896 0.21167,-0.4445003 0.58561,-0.6843893 0.381,-0.2398891 0.88195,-0.2398891 z m -0.007,0.5080003 q -0.4445,0 -0.70556,0.289278 -0.254,0.2822224 -0.30339,0.7902227 h 1.92617 q -0.007,-0.479778 -0.22578,-0.7761116 -0.21872,-0.3033891 -0.69144,-0.3033891 z m 4.34622,-0.5080003 q 0.67733,0 1.02306,0.3316113 0.34572,0.3245558 0.34572,1.0583341 v 2.4623903 h -0.61384 V 8.19967 q 0,-0.9101672 -0.84666,-0.9101672 -0.62795,0 -0.86784,0.352778 -0.23989,0.352778 -0.23989,1.0160006 v 1.9614456 h -0.62089 V 6.8379469 h 0.50095 l 0.0917,0.5150559 h 0.0353 q 0.18344,-0.2963335 0.508,-0.4374447 0.32456,-0.1481668 0.68439,-0.1481668 z"
       id="text3566-0-3"
       aria-label="Laden" />
    <rect
       style="fill:#ffffff;fill-opacity:1;stroke:#2780e3;stroke-width:0.75;stroke-opacity:1;stroke-miterlimit:4;stroke-dasharray:none"
       id="rect43384"
       width="58.102654"
       height="72.711769"
       x="6.597765"
       y="15.061055" />
    <path
       style="fill:none;stroke:#2780e3;stroke-width:1;stroke-linecap:butt;stroke-linejoin:miter;stroke-miterlimit:4;stroke-dasharray:none;stroke-opacity:1;marker-end:url(#TriangleOutM-3)"
       d="M 43.517671,42.687097 70.801708,42.515868"
       id="path65481-0" />
    <path
       style="fill:none;stroke:#2780e3;stroke-width:1;stroke-linecap:butt;stroke-linejoin:miter;stroke-miterlimit:4;stroke-dasharray:none;stroke-opacity:1;marker-end:url(#TriangleOutM-0)"
       d="M 55.674878,56.780346 70.73164,56.609117"
       id="path65481-4" />
    <rect
       style="fill:#ffffff;fill-opacity:1;stroke:#2780e3;stroke-width:0.75;stroke-opacity:1;stroke-miterlimit:4;stroke-dasharray:none"
       id="rect43384-4"
       width="58.102654"
       height="72.711769"
       x="74.092041"
       y="14.520188" />
    <rect
       style="fill:#fdfdfd;fill-opacity:1;stroke:#2780e3;stroke-width:0.75;stroke-opacity:1;stroke-miterlimit:4;stroke-dasharray:none"
       id="rect43384-1"
       width="58.102654"
       height="72.711769"
       x="142.43677"
       y="15.005075" />
    <path
       style="fill:none;stroke:#2780e3;stroke-width:1.00188;stroke-linecap:butt;stroke-linejoin:miter;stroke-miterlimit:4;stroke-dasharray:none;stroke-opacity:1;marker-end:url(#TriangleOutM-0-4)"
       d="m 132.274,48.627217 21.41896,-0.170282"
       id="path65481-4-8" />
    <g
       id="use44417"
       style="fill:none;stroke:#000000;stroke-width:0.59655866;stroke-miterlimit:4;stroke-dasharray:none"
       transform="matrix(1.3548152,0,0,1.1666381,144.58987,24.765511)">
      <title
         id="title44724">Magnetic Disk (Database)</title>
      <desc
         id="desc44726">A magnetic disk. (ISO)</desc>
      <path
         d="m 9.2604167,6.6145833 a 17.197917,17.197917 0 0 1 21.1666663,0 V 33.072917 a 17.197917,17.197917 0 0 1 -21.1666663,0 z"
         style="fill:none;stroke-width:0.59655866;stroke-miterlimit:4;stroke-dasharray:none"
         id="path44728" />
      <path
         d="m 30.427083,6.6145833 a 17.197917,17.197917 0 0 1 -21.1666663,0"
         style="fill:none;stroke-width:0.59655866;stroke-linecap:butt;stroke-miterlimit:4;stroke-dasharray:none"
         id="path44730" />
    </g>
    <path
       style="fill:none;stroke:#2780e3;stroke-width:1;stroke-linecap:butt;stroke-linejoin:miter;stroke-miterlimit:4;stroke-dasharray:none;stroke-opacity:1;marker-end:url(#TriangleOutM)"
       d="M 32.434001,30.540569 70.681545,30.36934"
       id="path65481" />
    <g
       id="use44417-9-5"
       style="fill:#ffffff;stroke:#000000;stroke-width:0.92581;stroke-miterlimit:4;stroke-dasharray:none;fill-opacity:1"
       transform="matrix(0.87299406,0,0,0.75173952,5.8713385,21.863956)">
      <title
         id="title44724-9-0"
         style="fill-opacity:1;fill:url(#linearGradient57179)">Magnetic Disk (Database)</title>
      <desc
         id="desc44726-0-8"
         style="fill-opacity:1;fill:url(#linearGradient57179)">A magnetic disk. (ISO)</desc>
      <path
         d="m 9.2604167,6.6145833 a 17.197917,17.197917 0 0 1 21.1666663,0 V 33.072917 a 17.197917,17.197917 0 0 1 -21.1666663,0 z"
         style="fill:#ffffff;stroke-width:0.92581;stroke-miterlimit:4;stroke-dasharray:none;fill-opacity:1"
         id="path44728-7-1" />
      <path
         d="m 30.427083,6.6145833 a 17.197917,17.197917 0 0 1 -21.1666663,0"
         style="fill:#ffffff;stroke-width:0.92581;stroke-linecap:butt;stroke-miterlimit:4;stroke-dasharray:none;fill-opacity:1"
         id="path44730-6-2" />
    </g>
    <g
       id="use44417-9-5-2"
       style="fill:#ffffff;fill-opacity:1;stroke:#000000;stroke-width:0.92581;stroke-miterlimit:4;stroke-dasharray:none"
       transform="matrix(0.87299406,0,0,0.75173952,16.955008,31.893816)">
      <title
         id="title44724-9-0-6">Magnetic Disk (Database)</title>
      <desc
         id="desc44726-0-8-9">A magnetic disk. (ISO)</desc>
      <path
         d="m 9.2604167,6.6145833 a 17.197917,17.197917 0 0 1 21.1666663,0 V 33.072917 a 17.197917,17.197917 0 0 1 -21.1666663,0 z"
         style="fill:#ffffff;fill-opacity:1;stroke-width:0.92581;stroke-miterlimit:4;stroke-dasharray:none"
         id="path44728-7-1-1" />
      <path
         d="m 30.427083,6.6145833 a 17.197917,17.197917 0 0 1 -21.1666663,0"
         style="fill:#ffffff;fill-opacity:1;stroke-width:0.92581;stroke-linecap:butt;stroke-miterlimit:4;stroke-dasharray:none"
         id="path44730-6-2-0" />
    </g>
    <g
       id="use44417-9-5-4"
       style="fill:#ffffff;fill-opacity:1;stroke:#000000;stroke-width:0.92581;stroke-miterlimit:4;stroke-dasharray:none"
       transform="matrix(0.87299406,0,0,0.75173952,29.112215,44.928733)">
      <title
         id="title44724-9-0-2">Magnetic Disk (Database)</title>
      <desc
         id="desc44726-0-8-7">A magnetic disk. (ISO)</desc>
      <path
         d="m 9.2604167,6.6145833 a 17.197917,17.197917 0 0 1 21.1666663,0 V 33.072917 a 17.197917,17.197917 0 0 1 -21.1666663,0 z"
         style="fill:#ffffff;fill-opacity:1;stroke-width:0.92581;stroke-miterlimit:4;stroke-dasharray:none"
         id="path44728-7-1-4" />
      <path
         d="m 30.427083,6.6145833 a 17.197917,17.197917 0 0 1 -21.1666663,0"
         style="fill:#ffffff;fill-opacity:1;stroke-width:0.92581;stroke-linecap:butt;stroke-miterlimit:4;stroke-dasharray:none"
         id="path44730-6-2-03" />
    </g>
    <path
       d="m 160.14893,82.009178 h -2.794 v -0.383822 l 2.12231,-3.194753 h -2.05458 v -0.451555 h 2.66982 v 0.383822 l -2.12231,3.194753 h 2.17876 z m 0.95391,-4.159952 q 0.11289,0 0.19756,0.07902 0.0903,0.07338 0.0903,0.237066 0,0.158045 -0.0903,0.237067 -0.0847,0.07902 -0.19756,0.07902 -0.12418,0 -0.20884,-0.07902 -0.0847,-0.07902 -0.0847,-0.237067 0,-0.163688 0.0847,-0.237066 0.0847,-0.07902 0.20884,-0.07902 z m 0.24271,1.134532 v 3.02542 h -0.49671 v -3.02542 z m 2.12795,-0.05644 q 0.38947,0 0.66605,0.169333 0.28222,0.169333 0.42897,0.479777 0.1524,0.3048 0.1524,0.716844 v 0.299156 h -2.0715 q 0.0113,0.513644 0.25964,0.784577 0.254,0.265289 0.70555,0.265289 0.28787,0 0.508,-0.0508 0.22578,-0.05644 0.46285,-0.158045 v 0.434622 q -0.23142,0.1016 -0.4572,0.146756 -0.22578,0.0508 -0.53622,0.0508 -0.42898,0 -0.762,-0.174978 -0.32738,-0.174978 -0.51365,-0.519289 -0.18062,-0.349955 -0.18062,-0.85231 0,-0.496711 0.16369,-0.852311 0.16933,-0.355599 0.46849,-0.54751 0.3048,-0.191911 0.70555,-0.191911 z m -0.006,0.4064 q -0.3556,0 -0.56445,0.231422 -0.20319,0.225777 -0.24271,0.632177 h 1.54094 q -0.006,-0.383822 -0.18063,-0.620889 -0.17497,-0.24271 -0.55315,-0.24271 z m 2.51741,2.675464 h -0.49671 v -4.289774 h 0.49671 z m 2.92947,-0.835377 q 0,0.440266 -0.32738,0.666044 -0.32738,0.225778 -0.88053,0.225778 -0.31609,0 -0.54752,-0.0508 -0.22577,-0.0508 -0.40075,-0.141111 v -0.451556 q 0.18062,0.09031 0.43462,0.169334 0.25965,0.07338 0.52493,0.07338 0.37818,0 0.54752,-0.118533 0.16933,-0.124178 0.16933,-0.327377 0,-0.112889 -0.0621,-0.2032 -0.0621,-0.09031 -0.22578,-0.180622 -0.15804,-0.09031 -0.4572,-0.2032 -0.29351,-0.112889 -0.50235,-0.225778 -0.20885,-0.112889 -0.32174,-0.270933 -0.11288,-0.158044 -0.11288,-0.4064 0,-0.383822 0.31044,-0.592666 0.31609,-0.208844 0.82409,-0.208844 0.27658,0 0.51364,0.05644 0.24271,0.0508 0.45156,0.146756 l -0.16934,0.39511 q -0.19191,-0.07902 -0.40075,-0.135466 -0.20885,-0.05644 -0.42898,-0.05644 -0.3048,0 -0.46849,0.101599 -0.15804,0.09596 -0.15804,0.265289 0,0.124178 0.0734,0.214489 0.0734,0.08467 0.24271,0.169333 0.17497,0.07902 0.46284,0.191911 0.28787,0.107244 0.49107,0.220133 0.2032,0.112889 0.31044,0.276578 0.10725,0.158044 0.10725,0.400755 z m 0.25964,-2.190043 h 0.53058 l 0.65475,1.721554 q 0.0847,0.225778 0.1524,0.434622 0.0677,0.2032 0.1016,0.389467 h 0.0226 q 0.0339,-0.141111 0.10725,-0.366889 0.0734,-0.231422 0.1524,-0.462844 l 0.61524,-1.71591 h 0.53622 l -1.30386,3.443109 q -0.15805,0.428977 -0.41205,0.682977 -0.24835,0.254 -0.68862,0.254 -0.13547,0 -0.23707,-0.01693 -0.1016,-0.01129 -0.17497,-0.02822 v -0.395111 q 0.0621,0.01129 0.14675,0.02258 0.0903,0.01129 0.18627,0.01129 0.25964,0 0.41769,-0.146755 0.16368,-0.146756 0.254,-0.389467 l 0.15804,-0.400755 z m 5.32271,2.190043 q 0,0.440266 -0.32738,0.666044 -0.32738,0.225778 -0.88053,0.225778 -0.31609,0 -0.54751,-0.0508 -0.22578,-0.0508 -0.40076,-0.141111 v -0.451556 q 0.18062,0.09031 0.43462,0.169334 0.25965,0.07338 0.52494,0.07338 0.37817,0 0.54751,-0.118533 0.16933,-0.124178 0.16933,-0.327377 0,-0.112889 -0.0621,-0.2032 -0.0621,-0.09031 -0.22578,-0.180622 -0.15804,-0.09031 -0.4572,-0.2032 -0.29351,-0.112889 -0.50235,-0.225778 -0.20884,-0.112889 -0.32173,-0.270933 -0.11289,-0.158044 -0.11289,-0.4064 0,-0.383822 0.31044,-0.592666 0.31609,-0.208844 0.82409,-0.208844 0.27658,0 0.51364,0.05644 0.24272,0.0508 0.45156,0.146756 l -0.16933,0.39511 q -0.19191,-0.07902 -0.40076,-0.135466 -0.20884,-0.05644 -0.42898,-0.05644 -0.3048,0 -0.46848,0.101599 -0.15805,0.09596 -0.15805,0.265289 0,0.124178 0.0734,0.214489 0.0734,0.08467 0.24271,0.169333 0.17498,0.07902 0.46284,0.191911 0.28787,0.107244 0.49107,0.220133 0.2032,0.112889 0.31044,0.276578 0.10725,0.158044 0.10725,0.400755 z m 1.74413,0.485422 q 0.11289,0 0.23142,-0.01693 0.11854,-0.02258 0.19191,-0.04516 v 0.378178 q -0.079,0.03951 -0.22577,0.06209 -0.14676,0.02822 -0.28223,0.02822 -0.23706,0 -0.44026,-0.07902 -0.19756,-0.08467 -0.32173,-0.287866 -0.12418,-0.2032 -0.12418,-0.570089 V 79.36758 h -0.42898 v -0.237066 l 0.43462,-0.197556 0.19756,-0.643466 h 0.29351 v 0.694266 h 0.87489 v 0.383822 h -0.87489 v 1.749777 q 0,0.276577 0.12982,0.412044 0.13547,0.129822 0.34431,0.129822 z m 2.19569,-2.731909 q 0.38947,0 0.66604,0.169333 0.28223,0.169333 0.42898,0.479777 0.1524,0.3048 0.1524,0.716844 v 0.299156 h -2.07151 q 0.0113,0.513644 0.25965,0.784577 0.25399,0.265289 0.70555,0.265289 0.28787,0 0.508,-0.0508 0.22578,-0.05644 0.46284,-0.158045 v 0.434622 q -0.23142,0.1016 -0.4572,0.146756 -0.22577,0.0508 -0.53622,0.0508 -0.42898,0 -0.762,-0.174978 -0.32737,-0.174978 -0.51364,-0.519289 -0.18062,-0.349955 -0.18062,-0.85231 0,-0.496711 0.16369,-0.852311 0.16933,-0.355599 0.46848,-0.54751 0.3048,-0.191911 0.70556,-0.191911 z m -0.006,0.4064 q -0.3556,0 -0.56444,0.231422 -0.2032,0.225777 -0.24271,0.632177 h 1.54093 q -0.006,-0.383822 -0.18062,-0.620889 -0.17498,-0.24271 -0.55316,-0.24271 z m 5.33964,-0.4064 q 0.51365,0 0.76764,0.265289 0.254,0.259644 0.254,0.846666 v 1.969909 h -0.49106 v -1.947332 q 0,-0.716844 -0.61525,-0.716844 -0.44026,0 -0.63217,0.254 -0.18627,0.254 -0.18627,0.739422 v 1.670754 h -0.49107 v -1.947332 q 0,-0.716844 -0.62088,-0.716844 -0.4572,0 -0.63218,0.282222 -0.17498,0.282222 -0.17498,0.8128 v 1.569154 h -0.49671 v -3.02542 h 0.40076 l 0.0734,0.412044 h 0.0282 q 0.14111,-0.237066 0.37817,-0.349955 0.24271,-0.118533 0.51365,-0.118533 0.7112,0 0.92569,0.507999 h 0.0282 q 0.1524,-0.259644 0.41204,-0.383821 0.26529,-0.124178 0.5588,-0.124178 z"
       id="text51199"
       style="font-size:5.64444px;line-height:1.25;font-family:'Source Sans 3';-inkscape-font-specification:'Source Sans 3, ';stroke-width:0.264583"
       aria-label="Zielsystem" />
    <path
       d="m 22.033693,79.506459 q 0,0.739421 -0.299155,1.25871 -0.293511,0.519288 -0.874889,0.716844 l 0.9652,1.00471 h -0.728133 l -0.778933,-0.908755 q -0.03387,0 -0.07338,0 -0.03387,0.0056 -0.06773,0.0056 -0.626533,0 -1.044221,-0.259645 -0.412044,-0.259644 -0.615244,-0.728132 -0.2032,-0.468489 -0.2032,-1.095022 0,-0.620888 0.2032,-1.083732 0.2032,-0.462844 0.615244,-0.722489 0.417688,-0.259644 1.049866,-0.259644 0.603955,0 1.015999,0.259644 0.412044,0.254 0.620888,0.722489 0.214489,0.462844 0.214489,1.089377 z m -3.183464,0 q 0,0.761999 0.321733,1.202265 0.321733,0.434622 1.00471,0.434622 0.688622,0 1.004711,-0.434622 0.316088,-0.440266 0.316088,-1.202265 0,-0.762 -0.316088,-1.190977 -0.316089,-0.434622 -0.999066,-0.434622 -0.682978,0 -1.010355,0.434622 -0.321733,0.428977 -0.321733,1.190977 z m 6.536262,-1.004711 v 3.02542 h -0.4064 l -0.07338,-0.400755 h -0.02258 q -0.146755,0.237067 -0.4064,0.349955 -0.259644,0.107245 -0.553155,0.107245 -0.547511,0 -0.824088,-0.259645 -0.276578,-0.265288 -0.276578,-0.841021 v -1.981199 h 0.502356 v 1.947332 q 0,0.722489 0.671688,0.722489 0.502355,0 0.694266,-0.282222 0.197555,-0.282222 0.197555,-0.8128 v -1.574799 z m 2.127954,-0.05644 q 0.389467,0 0.666044,0.169333 0.282222,0.169333 0.428978,0.479778 0.152399,0.304799 0.152399,0.716843 v 0.299156 h -2.071509 q 0.01129,0.513644 0.259644,0.784577 0.254,0.265289 0.705555,0.265289 0.287867,0 0.508,-0.0508 0.225777,-0.05645 0.462844,-0.158045 v 0.434622 q -0.231422,0.1016 -0.4572,0.146756 -0.225777,0.0508 -0.536222,0.0508 -0.428977,0 -0.761999,-0.174978 -0.327378,-0.174978 -0.513644,-0.519288 -0.180622,-0.349956 -0.180622,-0.852311 0,-0.496711 0.163689,-0.85231 0.169333,-0.3556 0.468488,-0.547511 0.3048,-0.191911 0.705555,-0.191911 z m -0.0056,0.4064 q -0.3556,0 -0.564444,0.231422 -0.2032,0.225777 -0.242711,0.632177 h 1.540932 q -0.0056,-0.383822 -0.180622,-0.620888 -0.174978,-0.242711 -0.553155,-0.242711 z m 2.517416,2.675464 h -0.496711 v -4.289774 h 0.496711 z m 1.456262,0 h -0.496711 v -4.289774 h 0.496711 z m 2.929461,-0.835377 q 0,0.440266 -0.327378,0.666044 -0.327377,0.225778 -0.880533,0.225778 -0.316088,0 -0.54751,-0.0508 -0.225778,-0.0508 -0.400755,-0.141111 v -0.451556 q 0.180622,0.09031 0.434621,0.169334 0.259645,0.07338 0.524933,0.07338 0.378178,0 0.547511,-0.118533 0.169333,-0.124178 0.169333,-0.327377 0,-0.112889 -0.06209,-0.2032 -0.06209,-0.09031 -0.225777,-0.180622 -0.158045,-0.09031 -0.4572,-0.2032 -0.293511,-0.112889 -0.502355,-0.225778 -0.208844,-0.112889 -0.321733,-0.270933 -0.112889,-0.158044 -0.112889,-0.4064 0,-0.383821 0.310444,-0.592666 0.316089,-0.208844 0.824089,-0.208844 0.276577,0 0.513644,0.05644 0.242711,0.0508 0.451555,0.146756 l -0.169333,0.395111 q -0.191911,-0.07902 -0.400756,-0.135467 -0.208844,-0.05644 -0.428977,-0.05644 -0.3048,0 -0.468489,0.1016 -0.158044,0.09596 -0.158044,0.265288 0,0.124178 0.07338,0.214489 0.07338,0.08467 0.242711,0.169333 0.174977,0.07902 0.462844,0.191911 0.287866,0.107245 0.491066,0.220133 0.2032,0.112889 0.310444,0.276578 0.107245,0.158044 0.107245,0.400755 z m 0.259644,-2.190043 h 0.530577 l 0.654755,1.721555 q 0.08467,0.225777 0.1524,0.434621 0.06773,0.2032 0.1016,0.389467 h 0.02258 q 0.03387,-0.141111 0.107244,-0.366889 0.07338,-0.231422 0.1524,-0.462844 l 0.615244,-1.71591 h 0.536222 l -1.303866,3.443109 q -0.158044,0.428977 -0.412044,0.682977 -0.248355,0.254 -0.688622,0.254 -0.135466,0 -0.237066,-0.01693 -0.1016,-0.01129 -0.174978,-0.02822 v -0.39511 q 0.06209,0.01129 0.146756,0.02258 0.09031,0.01129 0.186266,0.01129 0.259644,0 0.417689,-0.146755 0.163688,-0.146756 0.254,-0.389467 l 0.158044,-0.400755 z m 5.322708,2.190043 q 0,0.440266 -0.327377,0.666044 -0.327378,0.225778 -0.880533,0.225778 -0.316089,0 -0.547511,-0.0508 -0.225777,-0.0508 -0.400755,-0.141111 v -0.451556 q 0.180622,0.09031 0.434622,0.169334 0.259644,0.07338 0.524933,0.07338 0.378177,0 0.547511,-0.118533 0.169333,-0.124178 0.169333,-0.327377 0,-0.112889 -0.06209,-0.2032 -0.06209,-0.09031 -0.225778,-0.180622 -0.158044,-0.09031 -0.457199,-0.2032 -0.293511,-0.112889 -0.502355,-0.225778 -0.208845,-0.112889 -0.321733,-0.270933 -0.112889,-0.158044 -0.112889,-0.4064 0,-0.383821 0.310444,-0.592666 0.316089,-0.208844 0.824088,-0.208844 0.276578,0 0.513644,0.05644 0.242711,0.0508 0.451555,0.146756 l -0.169333,0.395111 q -0.191911,-0.07902 -0.400755,-0.135467 -0.208844,-0.05644 -0.428977,-0.05644 -0.3048,0 -0.468489,0.1016 -0.158044,0.09596 -0.158044,0.265288 0,0.124178 0.07338,0.214489 0.07338,0.08467 0.242711,0.169333 0.174978,0.07902 0.462844,0.191911 0.287867,0.107245 0.491067,0.220133 0.2032,0.112889 0.310444,0.276578 0.107244,0.158044 0.107244,0.400755 z m 1.744133,0.485422 q 0.112889,0 0.231422,-0.01693 0.118533,-0.02258 0.191911,-0.04516 v 0.378178 q -0.07902,0.03951 -0.225777,0.06209 -0.146756,0.02822 -0.282222,0.02822 -0.237067,0 -0.440267,-0.07902 -0.197555,-0.08467 -0.321733,-0.287867 -0.124178,-0.2032 -0.124178,-0.570088 V 78.88557 h -0.428977 v -0.237066 l 0.434622,-0.197556 0.197555,-0.643466 h 0.293511 v 0.694266 h 0.874888 v 0.383822 h -0.874888 v 1.749777 q 0,0.276577 0.129822,0.412044 0.135467,0.129822 0.344311,0.129822 z m 2.195688,-2.731909 q 0.389466,0 0.666044,0.169333 0.282222,0.169333 0.428977,0.479778 0.1524,0.304799 0.1524,0.716843 v 0.299156 h -2.071509 q 0.01129,0.513644 0.259644,0.784577 0.254,0.265289 0.705555,0.265289 0.287866,0 0.508,-0.0508 0.225777,-0.05645 0.462844,-0.158045 v 0.434622 q -0.231422,0.1016 -0.4572,0.146756 -0.225778,0.0508 -0.536222,0.0508 -0.428977,0 -0.761999,-0.174978 -0.327378,-0.174978 -0.513644,-0.519288 -0.180622,-0.349956 -0.180622,-0.852311 0,-0.496711 0.163688,-0.85231 0.169334,-0.3556 0.468489,-0.547511 0.3048,-0.191911 0.705555,-0.191911 z m -0.0056,0.4064 q -0.355599,0 -0.564444,0.231422 -0.203199,0.225777 -0.24271,0.632177 h 1.540932 q -0.0056,-0.383822 -0.180622,-0.620888 -0.174978,-0.242711 -0.553156,-0.242711 z m 5.339637,-0.4064 q 0.513644,0 0.767644,0.265289 0.253999,0.259644 0.253999,0.846666 v 1.969909 h -0.491066 v -1.947332 q 0,-0.716843 -0.615244,-0.716843 -0.440266,0 -0.632177,0.253999 -0.186267,0.254 -0.186267,0.739422 v 1.670754 h -0.491066 v -1.947332 q 0,-0.716843 -0.620888,-0.716843 -0.4572,0 -0.632178,0.282222 -0.174977,0.282222 -0.174977,0.812799 v 1.569154 h -0.496711 v -3.02542 h 0.400755 l 0.07338,0.412044 h 0.02822 q 0.141111,-0.237066 0.378178,-0.349955 0.242711,-0.118533 0.513644,-0.118533 0.711199,0 0.925688,0.508 h 0.02822 q 0.1524,-0.259645 0.412044,-0.383822 0.265289,-0.124178 0.5588,-0.124178 z m 3.127016,0 q 0.389466,0 0.666044,0.169333 0.282222,0.169333 0.428977,0.479778 0.1524,0.304799 0.1524,0.716843 v 0.299156 h -2.071509 q 0.01129,0.513644 0.259644,0.784577 0.254,0.265289 0.705555,0.265289 0.287866,0 0.508,-0.0508 0.225777,-0.05645 0.462844,-0.158045 v 0.434622 q -0.231422,0.1016 -0.4572,0.146756 -0.225778,0.0508 -0.536222,0.0508 -0.428977,0 -0.761999,-0.174978 -0.327378,-0.174978 -0.513644,-0.519288 -0.180622,-0.349956 -0.180622,-0.852311 0,-0.496711 0.163688,-0.85231 0.169334,-0.3556 0.468489,-0.547511 0.3048,-0.191911 0.705555,-0.191911 z m -0.0056,0.4064 q -0.3556,0 -0.564444,0.231422 -0.2032,0.225777 -0.242711,0.632177 h 1.540932 q -0.0056,-0.383822 -0.180622,-0.620888 -0.174978,-0.242711 -0.553155,-0.242711 z"
       id="text51199-3"
       style="font-size:5.64444px;line-height:1.25;font-family:'Source Sans 3';-inkscape-font-specification:'Source Sans 3, ';stroke-width:0.264583"
       aria-label="Quellsysteme" />
    <path
       style="font-size:5.64444px;line-height:1.25;font-family:'Source Sans 3';-inkscape-font-specification:'Source Sans 3, ';text-align:center;text-anchor:middle;stroke-width:0.264583"
       d="m 76.71696,71.94911 q 0.790222,0 1.151466,0.310444 0.361244,0.310445 0.361244,0.874889 0,0.333022 -0.152399,0.626532 -0.146756,0.287867 -0.502356,0.468489 -0.349955,0.180622 -0.95391,0.180622 h -0.462844 v 1.569154 h -0.508 v -4.03013 z m -0.04515,0.434622 h -0.513644 v 1.591732 h 0.4064 q 0.575732,0 0.857954,-0.186266 0.282223,-0.186267 0.282223,-0.632178 0,-0.389466 -0.248356,-0.581377 -0.248355,-0.191911 -0.784577,-0.191911 z m 3.736617,0.513644 q 0.08467,0 0.180622,0.01129 0.1016,0.0056 0.174977,0.02258 l -0.06209,0.457199 q -0.07338,-0.01693 -0.163689,-0.02822 -0.08467,-0.01129 -0.163689,-0.01129 -0.231422,0 -0.434622,0.129822 -0.2032,0.124178 -0.327377,0.3556 -0.118534,0.225778 -0.118534,0.530578 v 1.614309 h -0.49671 v -3.02542 h 0.406399 l 0.05644,0.553156 h 0.02258 q 0.146756,-0.248356 0.378178,-0.428978 0.231422,-0.180622 0.547511,-0.180622 z m 3.448753,0.05644 v 3.02542 h -0.4064 l -0.07338,-0.400755 h -0.02258 q -0.146755,0.237067 -0.4064,0.349955 -0.259644,0.107245 -0.553155,0.107245 -0.547511,0 -0.824088,-0.259644 -0.276578,-0.265289 -0.276578,-0.841022 V 72.95382 h 0.502355 v 1.947332 q 0,0.722489 0.671689,0.722489 0.502355,0 0.694266,-0.282222 0.197555,-0.282222 0.197555,-0.8128 V 72.95382 Z m -2.060221,-0.818443 q 0,-0.146756 0.07902,-0.208845 0.07902,-0.06773 0.186266,-0.06773 0.107245,0 0.186267,0.06773 0.07902,0.06209 0.07902,0.208845 0,0.141111 -0.07902,0.214488 -0.07902,0.06773 -0.186267,0.06773 -0.107244,0 -0.186266,-0.06773 -0.07902,-0.07338 -0.07902,-0.214488 z m 1.061155,0 q 0,-0.146756 0.07338,-0.208845 0.07902,-0.06773 0.186266,-0.06773 0.107245,0 0.186267,0.06773 0.07902,0.06209 0.07902,0.208845 0,0.141111 -0.07902,0.214488 -0.07902,0.06773 -0.186267,0.06773 -0.107244,0 -0.186266,-0.06773 -0.07338,-0.07338 -0.07338,-0.214488 z m 3.352798,1.202265 H 85.448908 V 75.97924 H 84.952197 V 73.337642 H 84.42162 V 73.10622 l 0.530577,-0.169333 V 72.76191 q 0,-0.587022 0.259644,-0.841022 0.259645,-0.259644 0.722489,-0.259644 0.180622,0 0.327377,0.03387 0.1524,0.02822 0.259644,0.06773 l -0.129822,0.389466 q -0.09031,-0.02822 -0.208844,-0.05644 -0.118533,-0.02822 -0.242711,-0.02822 -0.248355,0 -0.372533,0.169334 -0.118533,0.163688 -0.118533,0.519288 v 0.197555 h 0.761999 z m 3.076219,-0.383822 v 3.02542 h -0.406399 l -0.07338,-0.400755 h -0.02258 q -0.146755,0.237067 -0.4064,0.349955 -0.259644,0.107245 -0.553155,0.107245 -0.54751,0 -0.824088,-0.259644 -0.276577,-0.265289 -0.276577,-0.841022 V 72.95382 h 0.502355 v 1.947332 q 0,0.722489 0.671688,0.722489 0.502355,0 0.694266,-0.282222 0.197556,-0.282222 0.197556,-0.8128 V 72.95382 Z m 2.415821,-0.05644 q 0.541866,0 0.818444,0.265289 0.276577,0.259644 0.276577,0.846666 v 1.969909 h -0.491066 v -1.936043 q 0,-0.728132 -0.677333,-0.728132 -0.502355,0 -0.694266,0.282222 -0.191911,0.282222 -0.191911,0.812799 v 1.569154 h -0.496711 v -3.02542 h 0.400755 l 0.07338,0.412045 h 0.02822 q 0.146756,-0.237067 0.4064,-0.349956 0.259644,-0.118533 0.547511,-0.118533 z m 3.104442,0 q 0.299155,0 0.536222,0.112889 0.242711,0.112889 0.412044,0.344311 h 0.02822 l 0.06773,-0.400756 h 0.395111 v 3.07622 q 0,0.649111 -0.333022,0.976489 -0.327377,0.327377 -1.021643,0.327377 -0.666044,0 -1.089377,-0.191911 v -0.4572 q 0.44591,0.237067 1.117599,0.237067 0.389466,0 0.609599,-0.231422 0.225778,-0.225778 0.225778,-0.620889 v -0.118533 q 0,-0.06773 0.0056,-0.191911 0.0056,-0.129822 0.01129,-0.180622 h -0.02258 q -0.304799,0.4572 -0.936977,0.4572 -0.587021,0 -0.920043,-0.412044 -0.327378,-0.412044 -0.327378,-1.151466 0,-0.722488 0.327378,-1.145821 0.333022,-0.428978 0.914399,-0.428978 z m 0.06773,0.417689 q -0.378177,0 -0.587022,0.304799 -0.208844,0.299156 -0.208844,0.857955 0,0.5588 0.2032,0.857955 0.208844,0.293511 0.603955,0.293511 0.4572,0 0.666044,-0.242711 0.208844,-0.248355 0.208844,-0.795866 v -0.118533 q 0,-0.620889 -0.214488,-0.886177 -0.214489,-0.270933 -0.671689,-0.270933 z m 2.935107,2.071509 q -0.07338,0.299156 -0.214489,0.654755 -0.135466,0.361244 -0.270933,0.666044 h -0.366888 q 0.07902,-0.321733 0.158044,-0.705555 0.08467,-0.383822 0.124178,-0.677333 h 0.530577 z m 4.972751,0.592666 -0.48542,-1.247421 h -1.59738 l -0.47977,1.247421 h -0.513649 l 1.574799,-4.047063 h 0.4572 l 1.56915,4.047063 z m -1.08938,-2.918175 q -0.0169,-0.04516 -0.0564,-0.163689 -0.0395,-0.118533 -0.079,-0.242711 -0.0339,-0.129822 -0.0564,-0.197555 -0.0395,0.174977 -0.0903,0.344311 -0.0508,0.163688 -0.0847,0.259644 l -0.4572,1.219199 h 1.27564 z m 3.556,-0.163689 q 0.54187,0 0.81844,0.265289 0.27658,0.259644 0.27658,0.846666 v 1.969909 h -0.49106 v -1.936043 q 0,-0.728132 -0.67734,-0.728132 -0.50235,0 -0.69426,0.282222 -0.19191,0.282222 -0.19191,0.812799 v 1.569154 h -0.49672 v -3.02542 h 0.40076 l 0.0734,0.412045 h 0.0282 q 0.14676,-0.237067 0.4064,-0.349956 0.25964,-0.118533 0.54751,-0.118533 z m 3.47133,0 q 0.5588,0 0.89747,0.389466 0.34431,0.389467 0.34431,1.174044 0,0.773288 -0.34431,1.174044 -0.33867,0.400755 -0.90311,0.400755 -0.34996,0 -0.58138,-0.129822 -0.22578,-0.135467 -0.3556,-0.310445 h -0.0339 q 0.0113,0.09596 0.0226,0.242711 0.0113,0.146756 0.0113,0.254 v 1.241777 H 107.2816 V 72.95382 h 0.4064 l 0.0677,0.412045 h 0.0226 q 0.13547,-0.197556 0.3556,-0.333022 0.22013,-0.135467 0.58702,-0.135467 z m -0.0903,0.417689 q -0.46284,0 -0.65475,0.259644 -0.18627,0.259644 -0.19756,0.790222 v 0.09596 q 0,0.5588 0.18062,0.863599 0.18627,0.299156 0.68298,0.299156 0.27658,0 0.45155,-0.1524 0.18063,-0.1524 0.26529,-0.412044 0.0903,-0.265289 0.0903,-0.603955 0,-0.519289 -0.2032,-0.829733 -0.19755,-0.310444 -0.61524,-0.310444 z m 3.26813,-0.412044 q 0.55316,0 0.81844,0.24271 0.26529,0.242711 0.26529,0.773289 v 2.06022 h -0.36124 l -0.096,-0.428977 h -0.0226 q -0.19756,0.248355 -0.41769,0.366889 -0.21449,0.118533 -0.59831,0.118533 -0.41205,0 -0.68298,-0.214489 -0.27093,-0.220133 -0.27093,-0.682977 0,-0.451555 0.3556,-0.694266 0.3556,-0.248356 1.09502,-0.270933 l 0.51364,-0.01693 v -0.180622 q 0,-0.378177 -0.16369,-0.524933 -0.16369,-0.146755 -0.46284,-0.146755 -0.23707,0 -0.45156,0.07338 -0.21449,0.06773 -0.40075,0.158045 l -0.1524,-0.372533 q 0.19755,-0.107245 0.46849,-0.180622 0.27093,-0.07902 0.56444,-0.07902 z m 0.14676,1.614309 q -0.56445,0.02258 -0.78458,0.180622 -0.21449,0.158045 -0.21449,0.445911 0,0.254 0.1524,0.372533 0.15804,0.118534 0.40076,0.118534 0.38382,0 0.63782,-0.208845 0.254,-0.214488 0.254,-0.654755 v -0.270933 z m 3.84386,0.626533 q 0,0.440267 -0.32737,0.666044 -0.32738,0.225778 -0.88054,0.225778 -0.31609,0 -0.54751,-0.0508 -0.22577,-0.0508 -0.40075,-0.141111 v -0.451555 q 0.18062,0.09031 0.43462,0.169333 0.25964,0.07338 0.52493,0.07338 0.37818,0 0.54751,-0.118534 0.16934,-0.124177 0.16934,-0.327377 0,-0.112889 -0.0621,-0.2032 -0.0621,-0.09031 -0.22578,-0.180622 -0.15804,-0.09031 -0.4572,-0.2032 -0.29351,-0.112889 -0.50235,-0.225778 -0.20885,-0.112888 -0.32174,-0.270933 -0.11289,-0.158044 -0.11289,-0.406399 0,-0.383822 0.31045,-0.592667 0.31609,-0.208844 0.82409,-0.208844 0.27657,0 0.51364,0.05644 0.24271,0.0508 0.45155,0.146756 l -0.16933,0.395111 q -0.19191,-0.07902 -0.40075,-0.135467 -0.20885,-0.05644 -0.42898,-0.05644 -0.3048,0 -0.46849,0.1016 -0.15804,0.09595 -0.15804,0.265288 0,0.124178 0.0734,0.214489 0.0734,0.08467 0.24271,0.169333 0.17498,0.07902 0.46285,0.191911 0.28787,0.107245 0.49107,0.220133 0.2032,0.112889 0.31044,0.276578 0.10724,0.158044 0.10724,0.400755 z m 2.70369,0 q 0,0.440267 -0.32738,0.666044 -0.32738,0.225778 -0.88053,0.225778 -0.31609,0 -0.54751,-0.0508 -0.22578,-0.0508 -0.40076,-0.141111 v -0.451555 q 0.18063,0.09031 0.43463,0.169333 0.25964,0.07338 0.52493,0.07338 0.37818,0 0.54751,-0.118534 0.16933,-0.124177 0.16933,-0.327377 0,-0.112889 -0.0621,-0.2032 -0.0621,-0.09031 -0.22577,-0.180622 -0.15805,-0.09031 -0.4572,-0.2032 -0.29351,-0.112889 -0.50236,-0.225778 -0.20884,-0.112888 -0.32173,-0.270933 -0.11289,-0.158044 -0.11289,-0.406399 0,-0.383822 0.31044,-0.592667 0.31609,-0.208844 0.82409,-0.208844 0.27658,0 0.51365,0.05644 0.24271,0.0508 0.45155,0.146756 l -0.16933,0.395111 q -0.19191,-0.07902 -0.40076,-0.135467 -0.20884,-0.05644 -0.42898,-0.05644 -0.3048,0 -0.46848,0.1016 -0.15805,0.09595 -0.15805,0.265288 0,0.124178 0.0734,0.214489 0.0734,0.08467 0.24271,0.169333 0.17498,0.07902 0.46284,0.191911 0.28787,0.107245 0.49107,0.220133 0.2032,0.112889 0.31045,0.276578 0.10724,0.158044 0.10724,0.400755 z m 3.26249,-2.190043 v 3.02542 h -0.4064 l -0.0734,-0.400755 h -0.0226 q -0.14675,0.237067 -0.4064,0.349955 -0.25964,0.107245 -0.55315,0.107245 -0.54751,0 -0.82409,-0.259644 -0.27658,-0.265289 -0.27658,-0.841022 V 72.95382 h 0.50236 v 1.947332 q 0,0.722489 0.67169,0.722489 0.50235,0 0.69426,-0.282222 0.19756,-0.282222 0.19756,-0.8128 V 72.95382 Z m 2.41582,-0.05644 q 0.54186,0 0.81844,0.265289 0.27658,0.259644 0.27658,0.846666 v 1.969909 h -0.49107 v -1.936043 q 0,-0.728132 -0.67733,-0.728132 -0.50236,0 -0.69427,0.282222 -0.19191,0.282222 -0.19191,0.812799 v 1.569154 h -0.49671 v -3.02542 h 0.40076 l 0.0734,0.412045 h 0.0282 q 0.14675,-0.237067 0.4064,-0.349956 0.25964,-0.118533 0.54751,-0.118533 z m 3.10444,0 q 0.29916,0 0.53622,0.112889 0.24271,0.112889 0.41205,0.344311 h 0.0282 l 0.0677,-0.400756 h 0.39511 v 3.07622 q 0,0.649111 -0.33302,0.976489 -0.32738,0.327377 -1.02164,0.327377 -0.66605,0 -1.08938,-0.191911 v -0.4572 q 0.44591,0.237067 1.1176,0.237067 0.38947,0 0.6096,-0.231422 0.22578,-0.225778 0.22578,-0.620889 v -0.118533 q 0,-0.06773 0.006,-0.191911 0.006,-0.129822 0.0113,-0.180622 h -0.0226 q -0.3048,0.4572 -0.93697,0.4572 -0.58703,0 -0.92005,-0.412044 -0.32738,-0.412044 -0.32738,-1.151466 0,-0.722488 0.32738,-1.145821 0.33302,-0.428978 0.9144,-0.428978 z m 0.0677,0.417689 q -0.37817,0 -0.58702,0.304799 -0.20884,0.299156 -0.20884,0.857955 0,0.5588 0.2032,0.857955 0.20884,0.293511 0.60395,0.293511 0.4572,0 0.66605,-0.242711 0.20884,-0.248355 0.20884,-0.795866 v -0.118533 q 0,-0.620889 -0.21449,-0.886177 -0.21449,-0.270933 -0.67169,-0.270933 z m 2.93511,2.071509 q -0.0734,0.299156 -0.21449,0.654755 -0.13546,0.361244 -0.27093,0.666044 h -0.36689 q 0.079,-0.321733 0.15805,-0.705555 0.0847,-0.383822 0.12417,-0.677333 h 0.53058 z"
       id="text51199-3-2"
       aria-label="Prüfung, Anpassung," />
    <path
       d="m 99.044816,48.831623 4.615204,-2.66459 -1.16309,-3.10459 c 0.66559,-0.66395 1.21817,-1.40256 1.63554,-2.13309 l 3.27652,0.34603 1.42674,-5.15929 -2.98839,-1.42142 c -0.0265,-0.8937 -0.13578,-1.80966 -0.34982,-2.66499 l 2.50706,-2.0768 -2.66464,-4.61529 -3.1046,1.16309 c -0.66394,-0.66559 -1.37223,-1.16568 -2.13294,-1.6355 l 0.29347,-3.2463 -5.15926,-1.42673 -1.338574,3.01056 c -0.893804,0.0266 -1.809661,0.13579 -2.717495,0.38014 l -2.054688,-2.58983 -4.615205,2.66459 1.163081,3.1046 c -0.665578,0.66394 -1.165757,1.37229 -1.635535,2.13309 l -3.329032,-0.31571 -1.374312,5.12902 3.04088,1.3911 c 0.02653,0.8937 0.13578,1.80965 0.380137,2.71749 l -2.507053,2.0768 2.664585,4.6152 3.104588,-1.16308 c 0.63369,0.61316 1.372241,1.16567 2.133002,1.63559 l -0.315616,3.32897 5.128869,1.37428 1.391141,-3.04078 c 0.893784,-0.0266 1.757231,-0.10553 2.665015,-0.34997 z m -9.784464,-11.13358 c -1.544261,-2.67474 -0.635523,-6.06648 2.039219,-7.61074 2.674735,-1.54426 6.096754,-0.58302 7.610738,2.03931 1.513991,2.62231 0.635444,6.06652 -2.039301,7.61078 -2.674715,1.54426 -6.066397,0.63538 -7.610656,-2.03935 z"
       style="fill:none;stroke:#000000;stroke-width:0.75;stroke-miterlimit:4;stroke-dasharray:none;stroke-opacity:1"
       id="path52" />
    <path
       d="m 113.82342,67.653592 3.72179,-0.325616 0.18083,-2.317132 c 0.61959,-0.224658 1.18952,-0.530222 1.67114,-0.870724 l 1.97925,1.190614 2.43507,-2.855326 -1.47758,-1.788497 c 0.24788,-0.575701 0.44989,-1.190024 0.56733,-1.796872 l 2.20819,-0.576739 -0.32562,-3.721854 -2.31715,-0.180824 c -0.22463,-0.619607 -0.52649,-1.147191 -0.87063,-1.671075 l 1.14826,-1.975627 -2.85532,-2.435065 -1.74247,1.516206 c -0.57574,-0.247926 -1.18999,-0.449867 -1.83921,-0.563606 l -0.53817,-2.25423 -3.72178,0.325619 -0.18083,2.317136 c -0.61958,0.224652 -1.14726,0.526521 -1.67113,0.870727 l -2.02161,-1.186898 -2.39278,2.851613 1.5199,1.784776 c -0.24789,0.575709 -0.44988,1.190029 -0.56359,1.839225 l -2.20821,0.576738 0.3256,3.72178 2.31714,0.180843 c 0.22096,0.577322 0.52651,1.147185 0.87066,1.671145 l -1.18683,2.021598 2.85154,2.392722 1.7848,-1.519839 c 0.57577,0.247935 1.14775,0.45359 1.79694,0.567222 z m -2.91812,-9.972765 c -0.18871,-2.156959 1.39355,-4.042714 3.5505,-4.23142 2.15696,-0.188712 4.04643,1.435907 4.23142,3.550583 0.18501,2.114685 -1.39362,4.042711 -3.55057,4.231423 -2.15695,0.188704 -4.04265,-1.393639 -4.23135,-3.550586 z"
       style="fill:none;stroke:#000000;stroke-width:0.75;stroke-miterlimit:4;stroke-dasharray:none;stroke-opacity:1"
       id="path54" />
    <path
       d="m 85.920951,78.724585 -1.439333,4.03013 h -0.507999 l -1.439333,-4.03013 h 0.530578 l 0.908755,2.585153 q 0.09031,0.248356 0.1524,0.468489 0.06209,0.214489 0.1016,0.412044 0.03951,-0.197555 0.101599,-0.417689 0.06209,-0.220133 0.1524,-0.474133 l 0.903111,-2.573864 z m 1.535287,0.948266 q 0.389466,0 0.666044,0.169333 0.282222,0.169333 0.428977,0.479777 0.1524,0.3048 0.1524,0.716844 V 81.33796 H 86.63215 q 0.01129,0.513645 0.259644,0.784578 0.254,0.265288 0.705555,0.265288 0.287866,0 0.508,-0.0508 0.225777,-0.05644 0.462844,-0.158044 v 0.434622 q -0.231422,0.1016 -0.4572,0.146755 -0.225778,0.0508 -0.536222,0.0508 -0.428977,0 -0.761999,-0.174977 -0.327378,-0.174978 -0.513644,-0.519289 -0.180622,-0.349955 -0.180622,-0.85231 0,-0.496711 0.163688,-0.852311 0.169334,-0.355599 0.468489,-0.54751 0.3048,-0.191911 0.705555,-0.191911 z m -0.0056,0.406399 q -0.355599,0 -0.564444,0.231422 -0.203199,0.225778 -0.24271,0.632178 h 1.540932 q -0.0056,-0.383822 -0.180622,-0.620889 -0.174978,-0.242711 -0.553156,-0.242711 z m 3.431815,-0.406399 q 0.08467,0 0.180622,0.01129 0.1016,0.0056 0.174978,0.02258 l -0.06209,0.4572 q -0.07338,-0.01693 -0.163689,-0.02822 -0.08467,-0.01129 -0.163688,-0.01129 -0.231422,0 -0.434622,0.129822 -0.2032,0.124178 -0.327378,0.3556 -0.118533,0.225777 -0.118533,0.530577 v 1.61431 h -0.496711 v -3.02542 h 0.4064 l 0.05644,0.553155 h 0.02258 q 0.146756,-0.248355 0.378178,-0.428977 0.231422,-0.180622 0.54751,-0.180622 z m 1.975552,0 q 0.389466,0 0.666044,0.169333 0.282222,0.169333 0.428977,0.479777 0.1524,0.3048 0.1524,0.716844 v 0.299155 h -2.071509 q 0.01129,0.513645 0.259644,0.784578 0.254,0.265288 0.705555,0.265288 0.287867,0 0.508,-0.0508 0.225777,-0.05644 0.462844,-0.158044 v 0.434622 q -0.231422,0.1016 -0.4572,0.146755 -0.225777,0.0508 -0.536222,0.0508 -0.428977,0 -0.761999,-0.174977 -0.327378,-0.174978 -0.513644,-0.519289 -0.180622,-0.349955 -0.180622,-0.85231 0,-0.496711 0.163689,-0.852311 0.169333,-0.355599 0.468488,-0.54751 0.3048,-0.191911 0.705555,-0.191911 z m -0.0056,0.406399 q -0.3556,0 -0.564444,0.231422 -0.2032,0.225778 -0.242711,0.632178 h 1.540932 q -0.0056,-0.383822 -0.180622,-0.620889 -0.174978,-0.242711 -0.553155,-0.242711 z m 2.274705,-1.484487 q 0.112889,0 0.197555,0.07902 0.09031,0.07338 0.09031,0.237066 0,0.158045 -0.09031,0.237067 -0.08467,0.07902 -0.197555,0.07902 -0.124178,0 -0.208844,-0.07902 -0.08467,-0.07902 -0.08467,-0.237067 0,-0.163689 0.08467,-0.237066 0.08467,-0.07902 0.208844,-0.07902 z m 0.242711,1.134532 v 3.02542 h -0.496711 v -3.02542 z m 2.415816,-0.05644 q 0.541867,0 0.818444,0.265288 0.276578,0.259645 0.276578,0.846666 v 1.96991 h -0.491066 v -1.936043 q 0,-0.728133 -0.677333,-0.728133 -0.502355,0 -0.694266,0.282222 -0.191911,0.282222 -0.191911,0.8128 v 1.569154 h -0.496711 v -3.02542 h 0.400755 l 0.07338,0.412044 h 0.02822 q 0.146755,-0.237066 0.4064,-0.349955 0.259644,-0.118533 0.54751,-0.118533 z m 2.528712,0.0508 q 0,0.225777 -0.0282,0.423333 h 0.0339 q 0.14676,-0.231422 0.39511,-0.349956 0.254,-0.118533 0.54751,-0.118533 0.55316,0 0.82974,0.265289 0.27657,0.259644 0.27657,0.841021 v 1.96991 h -0.49106 v -1.936043 q 0,-0.728133 -0.67733,-0.728133 -0.508,0 -0.69991,0.287867 -0.18627,0.282222 -0.18627,0.812799 v 1.56351 H 99.817548 V 78.46494 h 0.496712 z m 4.15995,-0.0508 q 0.38947,0 0.66605,0.169333 0.28222,0.169333 0.42897,0.479777 0.1524,0.3048 0.1524,0.716844 v 0.299155 h -2.07151 q 0.0113,0.513645 0.25965,0.784578 0.254,0.265288 0.70555,0.265288 0.28787,0 0.508,-0.0508 0.22578,-0.05644 0.46285,-0.158044 v 0.434622 q -0.23143,0.1016 -0.4572,0.146755 -0.22578,0.0508 -0.53623,0.0508 -0.42897,0 -0.762,-0.174977 -0.32737,-0.174978 -0.51364,-0.519289 -0.18062,-0.349955 -0.18062,-0.85231 0,-0.496711 0.16369,-0.852311 0.16933,-0.355599 0.46849,-0.54751 0.3048,-0.191911 0.70555,-0.191911 z m -0.006,0.406399 q -0.3556,0 -0.56445,0.231422 -0.2032,0.225778 -0.24271,0.632178 h 1.54093 q -0.006,-0.383822 -0.18062,-0.620889 -0.17498,-0.242711 -0.55315,-0.242711 z m 2.2747,-1.484487 q 0.11289,0 0.19756,0.07902 0.0903,0.07338 0.0903,0.237066 0,0.158045 -0.0903,0.237067 -0.0847,0.07902 -0.19756,0.07902 -0.12418,0 -0.20884,-0.07902 -0.0847,-0.07902 -0.0847,-0.237067 0,-0.163689 0.0847,-0.237066 0.0847,-0.07902 0.20884,-0.07902 z m 0.24271,1.134532 v 3.02542 h -0.49671 v -3.02542 z m 1.96991,2.675465 q 0.11289,0 0.23142,-0.01693 0.11853,-0.02258 0.19191,-0.04516 v 0.378177 q -0.079,0.03951 -0.22578,0.06209 -0.14675,0.02822 -0.28222,0.02822 -0.23707,0 -0.44027,-0.07902 -0.19755,-0.08467 -0.32173,-0.287866 -0.12418,-0.2032 -0.12418,-0.570089 v -1.761065 h -0.42897 V 79.87605 l 0.43462,-0.197555 0.19755,-0.643466 h 0.29351 v 0.694266 h 0.87489 v 0.383822 h -0.87489 v 1.749776 q 0,0.276578 0.12983,0.412045 0.13546,0.129822 0.34431,0.129822 z m 1.524,0.349955 h -0.49671 V 78.46494 h 0.49671 z m 1.21355,-4.159952 q 0.11289,0 0.19755,0.07902 0.0903,0.07338 0.0903,0.237066 0,0.158045 -0.0903,0.237067 -0.0847,0.07902 -0.19755,0.07902 -0.12418,0 -0.20885,-0.07902 -0.0847,-0.07902 -0.0847,-0.237067 0,-0.163689 0.0847,-0.237066 0.0847,-0.07902 0.20885,-0.07902 z m 0.24271,1.134532 v 3.02542 h -0.49671 v -3.02542 z m 2.17311,3.081864 q -0.40076,0 -0.71685,-0.163688 -0.31044,-0.163689 -0.49106,-0.508 -0.17498,-0.344311 -0.17498,-0.880533 0,-0.558799 0.18626,-0.908755 0.18627,-0.349955 0.50236,-0.513644 0.32173,-0.163688 0.72813,-0.163688 0.23142,0 0.44591,0.0508 0.21449,0.04515 0.34996,0.112888 l -0.1524,0.412045 q -0.13547,-0.0508 -0.31609,-0.09596 -0.18062,-0.04516 -0.33867,-0.04516 -0.89182,0 -0.89182,1.145821 0,0.547511 0.21449,0.841021 0.22013,0.287867 0.64911,0.287867 0.24836,0 0.43462,-0.0508 0.19191,-0.0508 0.34996,-0.124178 v 0.440267 q -0.1524,0.07902 -0.33867,0.118533 -0.18062,0.04516 -0.44026,0.04516 z m 1.99248,-3.087508 q 0,0.225777 -0.0282,0.423333 h 0.0339 q 0.14676,-0.231422 0.39512,-0.349956 0.25399,-0.118533 0.54751,-0.118533 0.55315,0 0.82973,0.265289 0.27658,0.259644 0.27658,0.841021 v 1.96991 h -0.49107 v -1.936043 q 0,-0.728133 -0.67733,-0.728133 -0.508,0 -0.69991,0.287867 -0.18627,0.282222 -0.18627,0.812799 v 1.56351 h -0.49671 V 78.46494 h 0.49671 z m 5.52026,0.0056 v 3.02542 h -0.4064 l -0.0734,-0.400755 h -0.0226 q -0.14676,0.237066 -0.4064,0.349955 -0.25964,0.107244 -0.55316,0.107244 -0.54751,0 -0.82408,-0.259644 -0.27658,-0.265289 -0.27658,-0.841021 v -1.981199 h 0.50235 v 1.947332 q 0,0.722488 0.67169,0.722488 0.50236,0 0.69427,-0.282222 0.19755,-0.282222 0.19755,-0.812799 v -1.574799 z m 2.41582,-0.05644 q 0.54187,0 0.81845,0.265288 0.27657,0.259645 0.27657,0.846666 v 1.96991 h -0.49106 v -1.936043 q 0,-0.728133 -0.67733,-0.728133 -0.50236,0 -0.69427,0.282222 -0.19191,0.282222 -0.19191,0.8128 v 1.569154 h -0.49671 v -3.02542 h 0.40075 l 0.0734,0.412044 h 0.0282 q 0.14676,-0.237066 0.4064,-0.349955 0.25965,-0.118533 0.54751,-0.118533 z m 3.10445,0 q 0.29915,0 0.53622,0.112888 0.24271,0.112889 0.41204,0.344311 h 0.0282 l 0.0677,-0.400755 h 0.39511 v 3.07622 q 0,0.649111 -0.33302,0.976488 -0.32738,0.327378 -1.02165,0.327378 -0.66604,0 -1.08937,-0.191911 v -0.4572 q 0.44591,0.237066 1.1176,0.237066 0.38946,0 0.6096,-0.231422 0.22577,-0.225777 0.22577,-0.620888 v -0.118533 q 0,-0.06773 0.006,-0.191911 0.006,-0.129822 0.0113,-0.180622 h -0.0226 q -0.3048,0.457199 -0.93698,0.457199 -0.58702,0 -0.92004,-0.412044 -0.32738,-0.412044 -0.32738,-1.151466 0,-0.722488 0.32738,-1.145821 0.33302,-0.428977 0.9144,-0.428977 z m 0.0677,0.417688 q -0.37818,0 -0.58702,0.3048 -0.20885,0.299155 -0.20885,0.857955 0,0.558799 0.2032,0.857955 0.20885,0.293511 0.60396,0.293511 0.4572,0 0.66604,-0.242711 0.20885,-0.248356 0.20885,-0.795866 v -0.118534 q 0,-0.620888 -0.21449,-0.886177 -0.21449,-0.270933 -0.67169,-0.270933 z"
       id="text21770"
       style="font-size:5.64444px;line-height:1.25;font-family:'Source Sans 3';-inkscape-font-specification:'Source Sans 3, ';stroke-width:0.264583"
       aria-label="Vereinheitlichung" />
  </g>
</svg>
