<?xml version="1.0" encoding="UTF-8" standalone="no"?>
<svg
   width="210mm"
   height="95mm"
   viewBox="0 0 210 95"
   version="1.1"
   id="svg67"
   sodipodi:docname="etl-prozess.svg"
   inkscape:version="1.1.2 (0a00cf5339, 2022-02-04)"
   xmlns:inkscape="http://www.inkscape.org/namespaces/inkscape"
   xmlns:sodipodi="http://sodipodi.sourceforge.net/DTD/sodipodi-0.dtd"
   xmlns="http://www.w3.org/2000/svg"
   xmlns:svg="http://www.w3.org/2000/svg">
  <sodipodi:namedview
     id="namedview59"
     pagecolor="#ffffff"
     bordercolor="#666666"
     borderopacity="1.0"
     inkscape:pageshadow="2"
     inkscape:pageopacity="0.0"
     inkscape:pagecheckerboard="0"
     inkscape:document-units="mm"
     showgrid="false"
     inkscape:zoom="1.7550694"
     inkscape:cx="329.04681"
     inkscape:cy="179.76497"
     inkscape:window-width="1850"
     inkscape:window-height="1016"
     inkscape:window-x="70"
     inkscape:window-y="27"
     inkscape:window-maximized="1"
     inkscape:current-layer="g56" />
  <defs
     id="defs2">
    <marker
       style="overflow:visible"
       id="TriangleOutM"
       refX="0.0"
       refY="0.0"
       orient="auto">
      <path
         transform="scale(0.4)"
         style="fill-rule:evenodd;fill:context-stroke;stroke:context-stroke;stroke-width:1.0pt"
         d="M 5.77,0.0 L -2.88,5.0 L -2.88,-5.0 L 5.77,0.0 z "
         id="path66138" />
    </marker>
    <marker
       style="overflow:visible"
       id="TriangleOutM-3"
       refX="0"
       refY="0"
       orient="auto">
      <path
         transform="scale(0.4)"
         style="fill:context-stroke;fill-rule:evenodd;stroke:context-stroke;stroke-width:1pt"
         d="M 5.77,0 -2.88,5 V -5 Z"
         id="path66138-7" />
    </marker>
    <marker
       style="overflow:visible"
       id="TriangleOutM-0"
       refX="0"
       refY="0"
       orient="auto">
      <path
         transform="scale(0.4)"
         style="fill:context-stroke;fill-rule:evenodd;stroke:context-stroke;stroke-width:1pt"
         d="M 5.77,0 -2.88,5 V -5 Z"
         id="path66138-3" />
    </marker>
    <marker
       style="overflow:visible"
       id="TriangleOutM-0-4"
       refX="0"
       refY="0"
       orient="auto">
      <path
         transform="scale(0.4)"
         style="fill:context-stroke;fill-rule:evenodd;stroke:context-stroke;stroke-width:1pt"
         d="M 5.77,0 -2.88,5 V -5 Z"
         id="path66138-3-3" />
    </marker>
  </defs>
  <g
     id="g56">
    <text
       xml:space="preserve"
       style="font-style:normal;font-variant:normal;font-weight:normal;font-stretch:normal;font-size:7.05556px;line-height:1.25;font-family:sans-serif;-inkscape-font-specification:sans-serif;stroke-width:0.264583"
       x="21.310062"
       y="10.47642"
       id="text3566"><tspan
         id="tspan3564"
         style="font-style:normal;font-variant:normal;font-weight:normal;font-stretch:normal;font-family:'Source Sans 3';-inkscape-font-specification:'Source Sans 3, ';fill:#2780e3;fill-opacity:1;stroke-width:0.264583"
         x="21.310062"
         y="10.47642">Extraktion</tspan></text>
    <text
       xml:space="preserve"
       style="font-style:normal;font-variant:normal;font-weight:normal;font-stretch:normal;font-size:7.05556px;line-height:1.25;font-family:sans-serif;-inkscape-font-specification:sans-serif;stroke-width:0.264583"
       x="79.213097"
       y="10.22432"
       id="text3566-0"><tspan
         id="tspan3564-4"
         style="font-style:normal;font-variant:normal;font-weight:normal;font-stretch:normal;font-family:'Source Sans 3';-inkscape-font-specification:'Source Sans 3, ';fill:#2780e3;fill-opacity:1;stroke-width:0.264583"
         x="79.213097"
         y="10.22432">Transformation</tspan></text>
    <text
       xml:space="preserve"
       style="font-style:normal;font-variant:normal;font-weight:normal;font-stretch:normal;font-size:7.05556px;line-height:1.25;font-family:sans-serif;-inkscape-font-specification:sans-serif;stroke-width:0.264583"
       x="160.57368"
       y="10.619727"
       id="text3566-0-3"><tspan
         id="tspan3564-4-5"
         style="font-style:normal;font-variant:normal;font-weight:normal;font-stretch:normal;font-family:'Source Sans 3';-inkscape-font-specification:'Source Sans 3, ';fill:#2780e3;fill-opacity:1;stroke-width:0.264583"
         x="160.57368"
         y="10.619727">Laden</tspan></text>
    <rect
       style="fill:#ffffff;fill-opacity:1;stroke:#2780e3;stroke-width:0.75;stroke-opacity:1;stroke-miterlimit:4;stroke-dasharray:none"
       id="rect43384"
       width="58.102654"
       height="72.711769"
       x="6.597765"
       y="15.061055" />
    <path
       style="fill:none;stroke:#2780e3;stroke-width:1;stroke-linecap:butt;stroke-linejoin:miter;stroke-miterlimit:4;stroke-dasharray:none;stroke-opacity:1;marker-end:url(#TriangleOutM-3)"
       d="M 43.517671,42.687097 70.801708,42.515868"
       id="path65481-0" />
    <path
       style="fill:none;stroke:#2780e3;stroke-width:1;stroke-linecap:butt;stroke-linejoin:miter;stroke-miterlimit:4;stroke-dasharray:none;stroke-opacity:1;marker-end:url(#TriangleOutM-0)"
       d="M 55.674878,56.780346 70.73164,56.609117"
       id="path65481-4" />
    <rect
       style="fill:#ffffff;fill-opacity:1;stroke:#2780e3;stroke-width:0.75;stroke-opacity:1;stroke-miterlimit:4;stroke-dasharray:none"
       id="rect43384-4"
       width="58.102654"
       height="72.711769"
       x="74.092041"
       y="14.520188" />
    <rect
       style="fill:#fdfdfd;fill-opacity:1;stroke:#2780e3;stroke-width:0.75;stroke-opacity:1;stroke-miterlimit:4;stroke-dasharray:none"
       id="rect43384-1"
       width="58.102654"
       height="72.711769"
       x="142.43677"
       y="15.005075" />
    <path
       style="fill:none;stroke:#2780e3;stroke-width:1.00188;stroke-linecap:butt;stroke-linejoin:miter;stroke-miterlimit:4;stroke-dasharray:none;stroke-opacity:1;marker-end:url(#TriangleOutM-0-4)"
       d="m 132.274,48.627217 21.41896,-0.170282"
       id="path65481-4-8" />
    <g
       id="use44417"
       style="fill:none;stroke:#000000;stroke-width:0.59655866;stroke-miterlimit:4;stroke-dasharray:none"
       transform="matrix(1.3548152,0,0,1.1666381,144.58987,24.765511)">
      <title
         id="title44724">Magnetic Disk (Database)</title>
      <desc
         id="desc44726">A magnetic disk. (ISO)</desc>
      <path
         d="m 9.2604167,6.6145833 a 17.197917,17.197917 0 0 1 21.1666663,0 V 33.072917 a 17.197917,17.197917 0 0 1 -21.1666663,0 z"
         style="fill:none;stroke-width:0.59655866;stroke-miterlimit:4;stroke-dasharray:none"
         id="path44728" />
      <path
         d="m 30.427083,6.6145833 a 17.197917,17.197917 0 0 1 -21.1666663,0"
         style="fill:none;stroke-width:0.59655866;stroke-linecap:butt;stroke-miterlimit:4;stroke-dasharray:none"
         id="path44730" />
    </g>
    <path
       style="fill:none;stroke:#2780e3;stroke-width:1;stroke-linecap:butt;stroke-linejoin:miter;stroke-miterlimit:4;stroke-dasharray:none;stroke-opacity:1;marker-end:url(#TriangleOutM)"
       d="M 32.434001,30.540569 70.681545,30.36934"
       id="path65481" />
    <g
       id="use44417-9-5"
       style="fill:#ffffff;stroke:#000000;stroke-width:0.92581;stroke-miterlimit:4;stroke-dasharray:none;fill-opacity:1"
       transform="matrix(0.87299406,0,0,0.75173952,5.8713385,21.863956)">
      <title
         id="title44724-9-0"
         style="fill-opacity:1;fill:url(#linearGradient57179)">Magnetic Disk (Database)</title>
      <desc
         id="desc44726-0-8"
         style="fill-opacity:1;fill:url(#linearGradient57179)">A magnetic disk. (ISO)</desc>
      <path
         d="m 9.2604167,6.6145833 a 17.197917,17.197917 0 0 1 21.1666663,0 V 33.072917 a 17.197917,17.197917 0 0 1 -21.1666663,0 z"
         style="fill:#ffffff;stroke-width:0.92581;stroke-miterlimit:4;stroke-dasharray:none;fill-opacity:1"
         id="path44728-7-1" />
      <path
         d="m 30.427083,6.6145833 a 17.197917,17.197917 0 0 1 -21.1666663,0"
         style="fill:#ffffff;stroke-width:0.92581;stroke-linecap:butt;stroke-miterlimit:4;stroke-dasharray:none;fill-opacity:1"
         id="path44730-6-2" />
    </g>
    <g
       id="use44417-9-5-2"
       style="fill:#ffffff;fill-opacity:1;stroke:#000000;stroke-width:0.92581;stroke-miterlimit:4;stroke-dasharray:none"
       transform="matrix(0.87299406,0,0,0.75173952,16.955008,31.893816)">
      <title
         id="title44724-9-0-6">Magnetic Disk (Database)</title>
      <desc
         id="desc44726-0-8-9">A magnetic disk. (ISO)</desc>
      <path
         d="m 9.2604167,6.6145833 a 17.197917,17.197917 0 0 1 21.1666663,0 V 33.072917 a 17.197917,17.197917 0 0 1 -21.1666663,0 z"
         style="fill:#ffffff;fill-opacity:1;stroke-width:0.92581;stroke-miterlimit:4;stroke-dasharray:none"
         id="path44728-7-1-1" />
      <path
         d="m 30.427083,6.6145833 a 17.197917,17.197917 0 0 1 -21.1666663,0"
         style="fill:#ffffff;fill-opacity:1;stroke-width:0.92581;stroke-linecap:butt;stroke-miterlimit:4;stroke-dasharray:none"
         id="path44730-6-2-0" />
    </g>
    <g
       id="use44417-9-5-4"
       style="fill:#ffffff;fill-opacity:1;stroke:#000000;stroke-width:0.92581;stroke-miterlimit:4;stroke-dasharray:none"
       transform="matrix(0.87299406,0,0,0.75173952,29.112215,44.928733)">
      <title
         id="title44724-9-0-2">Magnetic Disk (Database)</title>
      <desc
         id="desc44726-0-8-7">A magnetic disk. (ISO)</desc>
      <path
         d="m 9.2604167,6.6145833 a 17.197917,17.197917 0 0 1 21.1666663,0 V 33.072917 a 17.197917,17.197917 0 0 1 -21.1666663,0 z"
         style="fill:#ffffff;fill-opacity:1;stroke-width:0.92581;stroke-miterlimit:4;stroke-dasharray:none"
         id="path44728-7-1-4" />
      <path
         d="m 30.427083,6.6145833 a 17.197917,17.197917 0 0 1 -21.1666663,0"
         style="fill:#ffffff;fill-opacity:1;stroke-width:0.92581;stroke-linecap:butt;stroke-miterlimit:4;stroke-dasharray:none"
         id="path44730-6-2-03" />
    </g>
    <text
       xml:space="preserve"
       style="font-size:5.64444px;line-height:1.25;font-family:'Source Sans 3';-inkscape-font-specification:'Source Sans 3, ';stroke-width:0.264583"
       x="157.14044"
       y="82.009178"
       id="text51199"><tspan
         id="tspan51197"
         style="font-size:5.64444px;stroke-width:0.264583"
         x="157.14044"
         y="82.009178">Zielsystem</tspan></text>
    <text
       xml:space="preserve"
       style="font-size:5.64444px;line-height:1.25;font-family:'Source Sans 3';-inkscape-font-specification:'Source Sans 3, ';stroke-width:0.264583"
       x="17.969696"
       y="81.527168"
       id="text51199-3"><tspan
         id="tspan51197-7"
         style="font-size:5.64444px;stroke-width:0.264583"
         x="17.969696"
         y="81.527168">Quellsysteme</tspan></text>
    <text
       xml:space="preserve"
       style="font-size:5.64444px;line-height:1.25;font-family:'Source Sans 3';-inkscape-font-specification:'Source Sans 3, ';stroke-width:0.264583"
       x="102.95514"
       y="75.97924"
       id="text51199-3-2"><tspan
         id="tspan51197-7-8"
         style="font-size:5.64444px;text-align:center;text-anchor:middle;stroke-width:0.264583"
         x="102.95514"
         y="75.97924">Prüfung, Anpassung,</tspan></text>
    <path
       d="m 99.044816,48.831623 4.615204,-2.66459 -1.16309,-3.10459 c 0.66559,-0.66395 1.21817,-1.40256 1.63554,-2.13309 l 3.27652,0.34603 1.42674,-5.15929 -2.98839,-1.42142 c -0.0265,-0.8937 -0.13578,-1.80966 -0.34982,-2.66499 l 2.50706,-2.0768 -2.66464,-4.61529 -3.1046,1.16309 c -0.66394,-0.66559 -1.37223,-1.16568 -2.13294,-1.6355 l 0.29347,-3.2463 -5.15926,-1.42673 -1.338574,3.01056 c -0.893804,0.0266 -1.809661,0.13579 -2.717495,0.38014 l -2.054688,-2.58983 -4.615205,2.66459 1.163081,3.1046 c -0.665578,0.66394 -1.165757,1.37229 -1.635535,2.13309 l -3.329032,-0.31571 -1.374312,5.12902 3.04088,1.3911 c 0.02653,0.8937 0.13578,1.80965 0.380137,2.71749 l -2.507053,2.0768 2.664585,4.6152 3.104588,-1.16308 c 0.63369,0.61316 1.372241,1.16567 2.133002,1.63559 l -0.315616,3.32897 5.128869,1.37428 1.391141,-3.04078 c 0.893784,-0.0266 1.757231,-0.10553 2.665015,-0.34997 z m -9.784464,-11.13358 c -1.544261,-2.67474 -0.635523,-6.06648 2.039219,-7.61074 2.674735,-1.54426 6.096754,-0.58302 7.610738,2.03931 1.513991,2.62231 0.635444,6.06652 -2.039301,7.61078 -2.674715,1.54426 -6.066397,0.63538 -7.610656,-2.03935 z"
       style="fill:none;stroke:#000000;stroke-width:0.75;stroke-miterlimit:4;stroke-dasharray:none;stroke-opacity:1"
       id="path52" />
    <path
       d="m 113.82342,67.653592 3.72179,-0.325616 0.18083,-2.317132 c 0.61959,-0.224658 1.18952,-0.530222 1.67114,-0.870724 l 1.97925,1.190614 2.43507,-2.855326 -1.47758,-1.788497 c 0.24788,-0.575701 0.44989,-1.190024 0.56733,-1.796872 l 2.20819,-0.576739 -0.32562,-3.721854 -2.31715,-0.180824 c -0.22463,-0.619607 -0.52649,-1.147191 -0.87063,-1.671075 l 1.14826,-1.975627 -2.85532,-2.435065 -1.74247,1.516206 c -0.57574,-0.247926 -1.18999,-0.449867 -1.83921,-0.563606 l -0.53817,-2.25423 -3.72178,0.325619 -0.18083,2.317136 c -0.61958,0.224652 -1.14726,0.526521 -1.67113,0.870727 l -2.02161,-1.186898 -2.39278,2.851613 1.5199,1.784776 c -0.24789,0.575709 -0.44988,1.190029 -0.56359,1.839225 l -2.20821,0.576738 0.3256,3.72178 2.31714,0.180843 c 0.22096,0.577322 0.52651,1.147185 0.87066,1.671145 l -1.18683,2.021598 2.85154,2.392722 1.7848,-1.519839 c 0.57577,0.247935 1.14775,0.45359 1.79694,0.567222 z m -2.91812,-9.972765 c -0.18871,-2.156959 1.39355,-4.042714 3.5505,-4.23142 2.15696,-0.188712 4.04643,1.435907 4.23142,3.550583 0.18501,2.114685 -1.39362,4.042711 -3.55057,4.231423 -2.15695,0.188704 -4.04265,-1.393639 -4.23135,-3.550586 z"
       style="fill:none;stroke:#000000;stroke-width:0.75;stroke-miterlimit:4;stroke-dasharray:none;stroke-opacity:1"
       id="path54" />
    <text
       xml:space="preserve"
       style="font-size:5.64444px;line-height:1.25;font-family:'Source Sans 3';-inkscape-font-specification:'Source Sans 3, ';stroke-width:0.264583"
       x="82.534286"
       y="82.754715"
       id="text21770"><tspan
         sodipodi:role="line"
         id="tspan21768"
         style="font-size:5.64444px;stroke-width:0.264583"
         x="82.534286"
         y="82.754715">Vereinheitlichung</tspan></text>
  </g>
</svg>
