<svg width="3163" height="2393" xmlns="http://www.w3.org/2000/svg" xmlns:xlink="http://www.w3.org/1999/xlink" xml:space="preserve" overflow="hidden"><g transform="translate(-650 -169)"><g><rect x="2245" y="1394" width="1133" height="949" fill="#F2F2F2" fill-opacity="1"/><path d="M2514 1462.12C2514 1447.7 2525.7 1436 2540.12 1436L3297.88 1436C3312.3 1436 3324 1447.7 3324 1462.12L3324 2168.88C3324 2183.3 3312.3 2195 3297.88 2195L2540.12 2195C2525.7 2195 2514 2183.3 2514 2168.88Z" fill="#5B9BD5" fill-rule="evenodd" fill-opacity="0.501961"/><text fill="#2E75B6" fill-opacity="1" font-family="Arial,Arial_MSFontService,sans-serif" font-style="normal" font-variant="normal" font-weight="700" font-stretch="normal" font-size="64" text-anchor="start" direction="ltr" writing-mode="lr-tb" unicode-bidi="normal" text-decoration="none" transform="matrix(1 0 0 1 3140.6 2155)">CMS</text><rect x="1040" y="1394" width="1133" height="949" fill="#F2F2F2" fill-opacity="1"/><rect x="1040" y="362" width="1133" height="949" fill="#F2F2F2" fill-opacity="1"/><path d="M1086 572.106C1086 552.165 1102.17 536 1122.11 536L2098.89 536C2118.83 536 2135 552.165 2135 572.106L2135 2158.89C2135 2178.83 2118.83 2195 2098.89 2195L1122.11 2195C1102.17 2195 1086 2178.83 1086 2158.89Z" fill="#5B9BD5" fill-rule="evenodd" fill-opacity="0.501961"/><text fill="#2E75B6" fill-opacity="1" font-family="Arial,Arial_MSFontService,sans-serif" font-style="normal" font-variant="normal" font-weight="700" font-stretch="normal" font-size="64" text-anchor="start" direction="ltr" writing-mode="lr-tb" unicode-bidi="normal" text-decoration="none" transform="matrix(1 0 0 1 1129.67 625)">Social</text><text fill="#2E75B6" fill-opacity="1" font-family="Arial,Arial_MSFontService,sans-serif" font-style="normal" font-variant="normal" font-weight="700" font-stretch="normal" font-size="64" text-anchor="start" direction="ltr" writing-mode="lr-tb" unicode-bidi="normal" text-decoration="none" transform="matrix(1 0 0 1 1335.92 625)">Intranet</text><rect x="2247" y="362" width="1133" height="949" fill="#F2F2F2" fill-opacity="1"/><path d="M34.3871-6.8599 2511.62-5.7854 2511.61 7.96424 34.3812 6.88973ZM41.24 20.6423 0 0 41.2579-20.6066ZM2504.75-19.538 2545.99 1.10433 2504.73 21.7109Z" fill="#2780E3" fill-rule="nonzero" fill-opacity="0.498039" transform="matrix(1 0 0 -1 945 1355.1)"/><path d="M2202.64 2367.29 2202.13 345.38 2215.88 345.376 2216.39 2367.29ZM2230.13 2360.41 2209.52 2401.66 2188.89 2360.42ZM2188.39 352.254 2209 311 2229.63 352.244Z" fill="#2780E3" fill-rule="nonzero" fill-opacity="0.498039"/><text fill="#000000" fill-opacity="1" font-family="Arial,Arial_MSFontService,sans-serif" font-style="normal" font-variant="normal" font-weight="400" font-stretch="normal" font-size="83" text-anchor="start" direction="ltr" writing-mode="lr-tb" unicode-bidi="normal" text-decoration="none" transform="matrix(1 0 0 1 1993.38 273)">Kollaborativ</text><text fill="#000000" fill-opacity="1" font-family="Arial,Arial_MSFontService,sans-serif" font-style="normal" font-variant="normal" font-weight="400" font-stretch="normal" font-size="83" text-anchor="start" direction="ltr" writing-mode="lr-tb" unicode-bidi="normal" text-decoration="none" transform="matrix(1 0 0 1 2092.51 2496)">Solitär</text><text fill="#000000" fill-opacity="1" font-family="Arial,Arial_MSFontService,sans-serif" font-style="normal" font-variant="normal" font-weight="400" font-stretch="normal" font-size="83" text-anchor="start" direction="ltr" writing-mode="lr-tb" unicode-bidi="normal" text-decoration="none" transform="matrix(1 0 0 1 700.919 1382)">Intern</text><text fill="#000000" fill-opacity="1" font-family="Arial,Arial_MSFontService,sans-serif" font-style="normal" font-variant="normal" font-weight="400" font-stretch="normal" font-size="83" text-anchor="start" direction="ltr" writing-mode="lr-tb" unicode-bidi="normal" text-decoration="none" transform="matrix(1 0 0 1 3524.13 1381)">Extern</text><text fill="#7F7F7F" fill-opacity="1" font-family="Arial,Arial_MSFontService,sans-serif" font-style="normal" font-variant="normal" font-weight="400" font-stretch="normal" font-size="83" text-anchor="start" direction="ltr" writing-mode="lr-tb" unicode-bidi="normal" text-decoration="none" transform="matrix(1 0 0 1 1072.74 477)">Teamarbeit</text><text fill="#7F7F7F" fill-opacity="1" font-family="Arial,Arial_MSFontService,sans-serif" font-style="normal" font-variant="normal" font-weight="400" font-stretch="normal" font-size="83" text-anchor="start" direction="ltr" writing-mode="lr-tb" unicode-bidi="normal" text-decoration="none" transform="matrix(1 0 0 1 3113.27 477)">Dialog</text><text fill="#7F7F7F" fill-opacity="1" font-family="Arial,Arial_MSFontService,sans-serif" font-style="normal" font-variant="normal" font-weight="400" font-stretch="normal" font-size="83" text-anchor="start" direction="ltr" writing-mode="lr-tb" unicode-bidi="normal" text-decoration="none" transform="matrix(1 0 0 1 3085.65 2288)">Portale</text><text fill="#7F7F7F" fill-opacity="1" font-family="Arial,Arial_MSFontService,sans-serif" font-style="normal" font-variant="normal" font-weight="400" font-stretch="normal" font-size="83" text-anchor="start" direction="ltr" writing-mode="lr-tb" unicode-bidi="normal" text-decoration="none" transform="matrix(1 0 0 1 1072.74 2288)">Wissensspeicher</text><path d="M1960 1543.67C1960 1531.7 1969.7 1522 1981.67 1522L3250.33 1522C3262.3 1522 3272 1531.7 3272 1543.67L3272 1630.33C3272 1642.3 3262.3 1652 3250.33 1652L1981.67 1652C1969.7 1652 1960 1642.3 1960 1630.33Z" fill="#2780E3" fill-rule="evenodd" fill-opacity="1"/><text fill="#FFFFFF" fill-opacity="1" font-family="Arial,Arial_MSFontService,sans-serif" font-style="normal" font-variant="normal" font-weight="700" font-stretch="normal" font-size="55" text-anchor="start" direction="ltr" writing-mode="lr-tb" unicode-bidi="normal" text-decoration="none" transform="matrix(1 0 0 1 2554.87 1607)">Blog</text><path d="M1647 1018.67C1647 1006.7 1656.7 997 1668.67 997L2439.33 997C2451.3 997 2461 1006.7 2461 1018.67L2461 1105.33C2461 1117.3 2451.3 1127 2439.33 1127L1668.67 1127C1656.7 1127 1647 1117.3 1647 1105.33Z" fill="#2780E3" fill-rule="evenodd" fill-opacity="1"/><text fill="#FFFFFF" fill-opacity="1" font-family="Arial,Arial_MSFontService,sans-serif" font-style="normal" font-variant="normal" font-weight="700" font-stretch="normal" font-size="55" text-anchor="start" direction="ltr" writing-mode="lr-tb" unicode-bidi="normal" text-decoration="none" transform="matrix(1 0 0 1 1968.88 1083)">Forum</text><path d="M2840 1952C2840 1940.4 2849.4 1931 2861 1931L3251 1931C3262.6 1931 3272 1940.4 3272 1952L3272 2036C3272 2047.6 3262.6 2057 3251 2057L2861 2057C2849.4 2057 2840 2047.6 2840 2036Z" fill="#2780E3" fill-rule="evenodd" fill-opacity="1"/><text fill="#FFFFFF" fill-opacity="1" font-family="Arial,Arial_MSFontService,sans-serif" font-style="normal" font-variant="normal" font-weight="700" font-stretch="normal" font-size="55" text-anchor="start" direction="ltr" writing-mode="lr-tb" unicode-bidi="normal" text-decoration="none" transform="matrix(1 0 0 1 2950.43 2014)">Website</text><path d="M1964 687.833C1964 675.775 1973.78 666 1985.83 666L2439.17 666C2451.22 666 2461 675.775 2461 687.833L2461 775.167C2461 787.225 2451.22 797 2439.17 797L1985.83 797C1973.78 797 1964 787.225 1964 775.167Z" fill="#2780E3" fill-rule="evenodd" fill-opacity="1"/><text fill="#FFFFFF" fill-opacity="1" font-family="Arial,Arial_MSFontService,sans-serif" font-style="normal" font-variant="normal" font-weight="700" font-stretch="normal" font-size="55" text-anchor="start" direction="ltr" writing-mode="lr-tb" unicode-bidi="normal" text-decoration="none" transform="matrix(1 0 0 1 2007.96 752)">Videokonferenz</text><path d="M1131 1457C1131 1445.4 1140.4 1436 1152 1436L1525 1436C1536.6 1436 1546 1445.4 1546 1457L1546 1541C1546 1552.6 1536.6 1562 1525 1562L1152 1562C1140.4 1562 1131 1552.6 1131 1541Z" fill="#2780E3" fill-rule="evenodd" fill-opacity="1"/><text fill="#FFFFFF" fill-opacity="1" font-family="Arial,Arial_MSFontService,sans-serif" font-style="normal" font-variant="normal" font-weight="700" font-stretch="normal" font-size="55" text-anchor="start" direction="ltr" writing-mode="lr-tb" unicode-bidi="normal" text-decoration="none" transform="matrix(1 0 0 1 1282.4 1520)">Wiki</text><path d="M1131 2050C1131 2038.4 1140.4 2029 1152 2029L1586 2029C1597.6 2029 1607 2038.4 1607 2050L1607 2134C1607 2145.6 1597.6 2155 1586 2155L1152 2155C1140.4 2155 1131 2145.6 1131 2134Z" fill="#2780E3" fill-rule="evenodd" fill-opacity="1"/><text fill="#FFFFFF" fill-opacity="1" font-family="Arial,Arial_MSFontService,sans-serif" font-style="normal" font-variant="normal" font-weight="700" font-stretch="normal" font-size="55" text-anchor="start" direction="ltr" writing-mode="lr-tb" unicode-bidi="normal" text-decoration="none" transform="matrix(1 0 0 1 1184.13 2112)">Netzlaufwerke</text><path d="M1136 1182.83C1136 1170.78 1145.78 1161 1157.83 1161L1906.17 1161C1918.23 1161 1928 1170.78 1928 1182.83L1928 1270.17C1928 1282.23 1918.22 1292 1906.17 1292L1157.83 1292C1145.78 1292 1136 1282.22 1136 1270.17Z" fill="#2780E3" fill-rule="evenodd" fill-opacity="1"/><text fill="#FFFFFF" fill-opacity="1" font-family="Arial,Arial_MSFontService,sans-serif" font-style="normal" font-variant="normal" font-weight="700" font-stretch="normal" font-size="55" text-anchor="start" direction="ltr" writing-mode="lr-tb" unicode-bidi="normal" text-decoration="none" transform="matrix(1 0 0 1 1403.79 1247)">Kanboard</text><path d="M2916 851.667C2916 839.701 2925.7 830 2937.67 830L3309.33 830C3321.3 830 3331 839.701 3331 851.667L3331 938.333C3331 950.3 3321.3 960 3309.33 960L2937.67 960C2925.7 960 2916 950.3 2916 938.333Z" fill="#2780E3" fill-rule="evenodd" fill-opacity="1"/><text fill="#FFFFFF" fill-opacity="1" font-family="Arial,Arial_MSFontService,sans-serif" font-style="normal" font-variant="normal" font-weight="700" font-stretch="normal" font-size="55" text-anchor="start" direction="ltr" writing-mode="lr-tb" unicode-bidi="normal" text-decoration="none" transform="matrix(1 0 0 1 2956.55 916)">Social Media</text><path d="M1647 1883C1647 1871.4 1656.4 1862 1668 1862L2752 1862C2763.6 1862 2773 1871.4 2773 1883L2773 1967C2773 1978.6 2763.6 1988 2752 1988L1668 1988C1656.4 1988 1647 1978.6 1647 1967Z" fill="#2780E3" fill-rule="evenodd" fill-opacity="1"/><text fill="#FFFFFF" fill-opacity="1" font-family="Arial,Arial_MSFontService,sans-serif" font-style="normal" font-variant="normal" font-weight="700" font-stretch="normal" font-size="55" text-anchor="start" direction="ltr" writing-mode="lr-tb" unicode-bidi="normal" text-decoration="none" transform="matrix(1 0 0 1 1902.9 1945)">Screencasts</text><text fill="#FFFFFF" fill-opacity="1" font-family="Arial,Arial_MSFontService,sans-serif" font-style="normal" font-variant="normal" font-weight="700" font-stretch="normal" font-size="55" text-anchor="start" direction="ltr" writing-mode="lr-tb" unicode-bidi="normal" text-decoration="none" transform="matrix(1 0 0 1 2242.34 1945)">/ Podcasts</text><path d="M1647 1716.5C1647 1704.63 1656.63 1695 1668.5 1695L2436.5 1695C2448.37 1695 2458 1704.63 2458 1716.5L2458 1802.5C2458 1814.37 2448.37 1824 2436.5 1824L1668.5 1824C1656.63 1824 1647 1814.37 1647 1802.5Z" fill="#2780E3" fill-rule="evenodd" fill-opacity="1"/><text fill="#FFFFFF" fill-opacity="1" font-family="Arial,Arial_MSFontService,sans-serif" font-style="normal" font-variant="normal" font-weight="700" font-stretch="normal" font-size="55" text-anchor="start" direction="ltr" writing-mode="lr-tb" unicode-bidi="normal" text-decoration="none" transform="matrix(1 0 0 1 1846.24 1780)">E</text><text fill="#FFFFFF" fill-opacity="1" font-family="Arial,Arial_MSFontService,sans-serif" font-style="normal" font-variant="normal" font-weight="700" font-stretch="normal" font-size="55" text-anchor="start" direction="ltr" writing-mode="lr-tb" unicode-bidi="normal" text-decoration="none" transform="matrix(1 0 0 1 1882.93 1780)">-</text><text fill="#FFFFFF" fill-opacity="1" font-family="Arial,Arial_MSFontService,sans-serif" font-style="normal" font-variant="normal" font-weight="700" font-stretch="normal" font-size="55" text-anchor="start" direction="ltr" writing-mode="lr-tb" unicode-bidi="normal" text-decoration="none" transform="matrix(1 0 0 1 1901.24 1780)">Mail</text><text fill="#FFFFFF" fill-opacity="1" font-family="Arial,Arial_MSFontService,sans-serif" font-style="normal" font-variant="normal" font-weight="700" font-stretch="normal" font-size="55" text-anchor="start" direction="ltr" writing-mode="lr-tb" unicode-bidi="normal" text-decoration="none" transform="matrix(1 0 0 1 2023.5 1780)">/ Kontakt</text><path d="M1136 851.667C1136 839.701 1145.7 830 1157.67 830L1906.33 830C1918.3 830 1928 839.701 1928 851.667L1928 938.333C1928 950.3 1918.3 960 1906.33 960L1157.67 960C1145.7 960 1136 950.3 1136 938.333Z" fill="#2780E3" fill-rule="evenodd" fill-opacity="1"/><text fill="#FFFFFF" fill-opacity="1" font-family="Arial,Arial_MSFontService,sans-serif" font-style="normal" font-variant="normal" font-weight="700" font-stretch="normal" font-size="55" text-anchor="start" direction="ltr" writing-mode="lr-tb" unicode-bidi="normal" text-decoration="none" transform="matrix(1 0 0 1 1313.62 916)">P</text><text fill="#FFFFFF" fill-opacity="1" font-family="Arial,Arial_MSFontService,sans-serif" font-style="normal" font-variant="normal" font-weight="700" font-stretch="normal" font-size="55" text-anchor="start" direction="ltr" writing-mode="lr-tb" unicode-bidi="normal" text-decoration="none" transform="matrix(1 0 0 1 1350.31 916)">ad</text><text fill="#FFFFFF" fill-opacity="1" font-family="Arial,Arial_MSFontService,sans-serif" font-style="normal" font-variant="normal" font-weight="700" font-stretch="normal" font-size="55" text-anchor="start" direction="ltr" writing-mode="lr-tb" unicode-bidi="normal" text-decoration="none" transform="matrix(1 0 0 1 1429.79 916)">/ Web</text><text fill="#FFFFFF" fill-opacity="1" font-family="Arial,Arial_MSFontService,sans-serif" font-style="normal" font-variant="normal" font-weight="700" font-stretch="normal" font-size="55" text-anchor="start" direction="ltr" writing-mode="lr-tb" unicode-bidi="normal" text-decoration="none" transform="matrix(1 0 0 1 1576.46 916)">-</text><text fill="#FFFFFF" fill-opacity="1" font-family="Arial,Arial_MSFontService,sans-serif" font-style="normal" font-variant="normal" font-weight="700" font-stretch="normal" font-size="55" text-anchor="start" direction="ltr" writing-mode="lr-tb" unicode-bidi="normal" text-decoration="none" transform="matrix(1 0 0 1 1594.77 916)">Office</text><path d="M1980 1178.83C1980 1166.78 1989.78 1157 2001.83 1157L2751.17 1157C2763.22 1157 2773 1166.78 2773 1178.83L2773 1266.17C2773 1278.22 2763.22 1288 2751.17 1288L2001.83 1288C1989.78 1288 1980 1278.22 1980 1266.17Z" fill="#2780E3" fill-rule="evenodd" fill-opacity="1"/><text fill="#FFFFFF" fill-opacity="1" font-family="Arial,Arial_MSFontService,sans-serif" font-style="normal" font-variant="normal" font-weight="700" font-stretch="normal" font-size="55" text-anchor="start" direction="ltr" writing-mode="lr-tb" unicode-bidi="normal" text-decoration="none" transform="matrix(1 0 0 1 2248.33 1243)">Umfragen</text><path d="M1964 851.667C1964 839.701 1973.7 830 1985.67 830L2442.33 830C2454.3 830 2464 839.701 2464 851.667L2464 938.333C2464 950.3 2454.3 960 2442.33 960L1985.67 960C1973.7 960 1964 950.3 1964 938.333Z" fill="#2780E3" fill-rule="evenodd" fill-opacity="1"/><text fill="#FFFFFF" fill-opacity="1" font-family="Arial,Arial_MSFontService,sans-serif" font-style="normal" font-variant="normal" font-weight="700" font-stretch="normal" font-size="55" text-anchor="start" direction="ltr" writing-mode="lr-tb" unicode-bidi="normal" text-decoration="none" transform="matrix(1 0 0 1 2152.73 916)">Chat</text></g></g></svg>