<?xml version="1.0" encoding="UTF-8" standalone="no"?>
<!DOCTYPE svg PUBLIC "-//W3C//DTD SVG 1.1//EN" "http://www.w3.org/Graphics/SVG/1.1/DTD/svg11.dtd">
<svg xmlns="http://www.w3.org/2000/svg" xmlns:xlink="http://www.w3.org/1999/xlink" width="680" height="160">
<marker id="arr" viewBox="0 0 8 8" refX="8" refY="4" markerUnits="strokeWidth" markerWidth="8" markerHeight="8" orient="auto" fill="black" stroke="black">
<path d="M 0,0 l 8,4 l -8,4" />
</marker>
<rect x="15" y="15" width="650" height="130" style="fill:white;stroke:black;stroke-width:1;" />
<text x="40" y="80" font-size="16px" font-family="Arial,sans-serif" text-anchor="middle" transform="rotate(270,40,80)">Bäckerei</text>
<line x1="55" y1="15" x2="55" y2="145" stroke="black" stroke-width="1" />
<circle cx="90" cy="78" r="20" style="fill:white;stroke:black;stroke-width:1;" />
<circle cx="90" cy="78" r="14" style="fill:white;stroke:black;stroke-width:1;" />
<path d="M90,64v28M97,66l-14,24M78,71l24,14M78,85l24,-14M76,78h28M83,66l14,24" style="fill:none;stroke:black;stroke-width:1;" />
<circle cx="90" cy="78" r="12" style="fill:white;stroke-width:0;" />
<path d="M93,66l-3,12h8" style="fill:none;stroke:black;stroke-width:1;" />
<text x="90" y="120" font-size="16px" font-family="Arial,sans-serif" text-anchor="middle">2 Uhr</text>
<line x1="110" y1="78" x2="135" y2="78" stroke="black" stroke-width="1" marker-end="url(#arr)" />
<rect x="135" y="40" width="110" height="76" rx="10" ry="10" style="fill:white;stroke:black;stroke-width:1;" />
<text x="190" y="70" font-size="16px" font-family="Arial,sans-serif" text-anchor="middle">Brötchen</text>
<text x="190" y="90" font-size="16px" font-family="Arial,sans-serif" text-anchor="middle">backen</text>
<line x1="245" y1="78" x2="295" y2="78" stroke="black" stroke-width="1" marker-end="url(#arr)" />
<rect x="295" y="40" width="110" height="76" rx="10" ry="10" style="fill:white;stroke:black;stroke-width:1;" />
<text x="350" y="70" font-size="16px" font-family="Arial,sans-serif" text-anchor="middle">Brötchen</text>
<text x="350" y="90" font-size="16px" font-family="Arial,sans-serif" text-anchor="middle">verkaufen</text>
<line x1="405" y1="78" x2="455" y2="78" stroke="black" stroke-width="1" marker-end="url(#arr)" />
<rect x="455" y="40" width="110" height="76" rx="10" ry="10" style="fill:white;stroke:black;stroke-width:1;" />
<text x="510" y="70" font-size="16px" font-family="Arial,sans-serif" text-anchor="middle">Kasse</text>
<text x="510" y="90" font-size="16px" font-family="Arial,sans-serif" text-anchor="middle">abrechnen</text>
<line x1="565" y1="78" x2="590" y2="78" stroke="black" stroke-width="1" marker-end="url(#arr)" />
<circle cx="608" cy="78" r="18" style="fill:white;stroke:black;stroke-width:4;" />
</svg>
