<?xml version="1.0" encoding="UTF-8" standalone="no"?>
<svg
   width="680"
   height="210"
   viewBox="0 0 680 210"
   version="1.1"
   xml:space="preserve"
   style="clip-rule:evenodd;fill-rule:evenodd;stroke-linecap:round;stroke-linejoin:round;stroke-miterlimit:10"
   id="svg1204"
   sodipodi:docname="BPMN-1.svg"
   inkscape:version="1.2.2 (b0a8486541, 2022-12-01)"
   xmlns:inkscape="http://www.inkscape.org/namespaces/inkscape"
   xmlns:sodipodi="http://sodipodi.sourceforge.net/DTD/sodipodi-0.dtd"
   xmlns="http://www.w3.org/2000/svg"
   xmlns:svg="http://www.w3.org/2000/svg"><defs
   id="defs1208" /><sodipodi:namedview
   id="namedview1206"
   pagecolor="#ffffff"
   bordercolor="#000000"
   borderopacity="0.25"
   inkscape:showpageshadow="true"
   inkscape:pageopacity="0.0"
   inkscape:pagecheckerboard="0"
   inkscape:deskcolor="#d1d1d1"
   showgrid="false"
   showborder="false"
   borderlayer="true"
   shape-rendering="auto"
   inkscape:zoom="1.5409432"
   inkscape:cx="474.38476"
   inkscape:cy="145.68999"
   inkscape:window-width="2560"
   inkscape:window-height="1371"
   inkscape:window-x="0"
   inkscape:window-y="0"
   inkscape:window-maximized="1"
   inkscape:current-layer="svg1204" />
    <g
   transform="translate(-479.30127,-19.09681)"
   id="g60">
            <path
   d="m 546,86 h 110 c 4.418,0 8,3.582 8,8 v 47 c 0,4.418 -3.582,8 -8,8 H 546 c -4.418,0 -8,-3.582 -8,-8 V 94 c 0,-4.418 3.582,-8 8,-8 z"
   style="fill:#ffffff;fill-rule:nonzero"
   id="path58" />
        </g><g
   transform="matrix(1,0,0,-1,-632.30127,659.89819)"
   id="g64">
            <path
   d="m 699,593 h 110 c 4.418,0 8,-3.582 8,-8 v -47 c 0,-4.418 -3.582,-8 -8,-8 H 699 c -4.418,0 -8,3.582 -8,8 v 47 c 0,4.418 3.582,8 8,8 z m 0,0 v 0"
   style="fill:none;fill-rule:nonzero;stroke:#000000;stroke-width:1.75px"
   id="path62" />
        </g><g
   transform="matrix(0.707105,0.707109,0.707109,-0.707105,-345.58127,-341.92371)"
   id="g68">
            <rect
   x="727.71802"
   y="105.005"
   width="24.990999"
   height="24.990999"
   style="fill:#ffffff"
   id="rect66" />
        </g><g
   transform="matrix(1,0,0,-1,-632.30127,659.89819)"
   id="g72">
            <path
   d="M 893.214,579.171 910.885,561.5 893.214,543.829 875.543,561.5 Z m 0,0 v 0"
   style="fill:none;fill-rule:nonzero;stroke:#000000;stroke-width:1.75px"
   id="path70" />
        </g><g
   transform="rotate(135.00028,672.73602,198.76097)"
   id="g76">
            <path
   d="M 885.593,561.263 H 900.36"
   style="fill:none;fill-rule:nonzero;stroke:#000000;stroke-width:1.75px;stroke-linecap:square"
   id="path74" />
        </g><g
   transform="rotate(44.999716,1136.3117,-433.54703)"
   id="g80">
            <path
   d="m 886.067,561.263 h 14.768"
   style="fill:none;fill-rule:nonzero;stroke:#000000;stroke-width:1.75px;stroke-linecap:square"
   id="path78" />
        </g><g
   transform="matrix(1,0,0,-1,-632.30127,723.25819)"
   id="g84">
            <path
   d="m 893.214,607.184 v -24.013 c 0,-2.209 1.791,-4 4,-4 h 71.984"
   style="fill:none;fill-rule:nonzero;stroke:#000000;stroke-width:1.75px;stroke-linejoin:miter"
   id="path82" />
        </g><g
   transform="translate(-479.30127,72.27019)"
   id="g88">
            <path
   d="m 825.398,71.816 -9.2,-3.45 v 6.9 z"
   style="fill-rule:nonzero;stroke:#000000;stroke-width:1.75px;stroke-linecap:butt;stroke-linejoin:miter"
   id="path86" />
        </g><g
   transform="matrix(1,0,0,-1,-632.30127,610.29819)"
   id="g92">
            <path
   d="m 893.214,529.566 v 13.186 c 0,0.355 0.288,0.643 0.643,0.643 h 0.611 c 0.021,0 0.043,0 0.064,10e-4 l 26.86,0.432 c 0.022,10e-4 0.043,10e-4 0.064,10e-4 h 9.718"
   style="fill:none;fill-rule:nonzero;stroke:#000000;stroke-width:1.75px;stroke-linejoin:miter"
   id="path90" />
        </g><g
   transform="translate(-479.30127,-82.96381)"
   id="g96">
            <path
   d="m 787.374,149.434 -9.2,-3.45 v 6.9 z"
   style="fill-rule:nonzero;stroke:#000000;stroke-width:1.75px;stroke-linecap:butt;stroke-linejoin:miter"
   id="path94" />
        </g><g
   transform="translate(-479.30127,-82.96381)"
   id="g100">
            <path
   d="m 798.324,117.934 h 110 c 4.418,0 8,3.581 8,8 v 47 c 0,4.418 -3.582,8 -8,8 h -110 c -4.418,0 -8,-3.582 -8,-8 v -47 c 0,-4.419 3.582,-8 8,-8 z"
   style="fill:#ffffff;fill-rule:nonzero"
   id="path98" />
        </g><g
   transform="matrix(1,0,0,-1,-632.30127,596.03619)"
   id="g104">
            <path
   d="m 951.324,561.066 h 109.996 c 4.42,0 8,-3.581 8,-8 v -47 c 0,-4.418 -3.58,-8 -8,-8 H 951.324 c -4.418,0 -8,3.582 -8,8 v 47 c 0,4.419 3.582,8 8,8 z m 0,0 v 0"
   style="fill:none;fill-rule:nonzero;stroke:#000000;stroke-width:1.75px"
   id="path102" />
        </g><g
   transform="translate(-479.30127,-82.96381)"
   id="g108">
            <path
   d="m 975.452,117.934 h 109.998 c 4.42,0 8,3.581 8,8 v 47 c 0,4.418 -3.58,8 -8,8 H 975.452 c -4.418,0 -8,-3.582 -8,-8 v -47 c 0,-4.419 3.582,-8 8,-8 z"
   style="fill:#ffffff;fill-rule:nonzero"
   id="path106" />
        </g><g
   transform="matrix(1,0,0,-1,-632.30127,596.03619)"
   id="g112">
            <path
   d="m 1128.45,561.066 h 110 c 4.42,0 8,-3.581 8,-8 v -47 c 0,-4.418 -3.58,-8 -8,-8 h -110 c -4.42,0 -8,3.582 -8,8 v 47 c 0,4.419 3.58,8 8,8 z m 0,0 v 0"
   style="fill:none;fill-rule:nonzero;stroke:#000000;stroke-width:1.75px"
   id="path110" />
        </g><g
   transform="matrix(1,0,0,-1,-632.30127,659.89819)"
   id="g188">
            <path
   d="m 817,561.5 h 46.393"
   style="fill:none;fill-rule:nonzero;stroke:#000000;stroke-width:1.75px;stroke-linejoin:miter"
   id="path186" />
        </g><g
   transform="translate(-479.30127,-19.09681)"
   id="g192">
            <path
   d="m 719.593,117.5 -9.2,-3.45 v 6.9 z"
   style="fill-rule:nonzero;stroke:#000000;stroke-width:1.75px;stroke-linecap:butt;stroke-linejoin:miter"
   id="path190" />
        </g><g
   transform="matrix(-0.707107,-0.707107,-0.707107,0.707107,1016.2887,691.76819)"
   id="g196">
            <path
   d="m 846.348,53.816 c -9.941,0 -18,8.059 -18,18 0,9.942 8.059,18 18,18 9.941,0 18,-8.058 18,-18 0,-9.941 -8.059,-18 -18,-18"
   style="fill:#ffffff;fill-rule:nonzero;stroke:#000000;stroke-width:3px"
   id="path194" />
        </g><g
   transform="translate(-479.30127,-218.09681)"
   id="g716">
            <g
   transform="matrix(11,0,0,11,567.972,312.5)"
   id="g670">
                <path
   d="m 0.09,0 h 0.209 c 0.147,0 0.249,-0.064 0.249,-0.195 0,-0.088 -0.052,-0.139 -0.134,-0.154 v -0.004 c 0.062,-0.02 0.096,-0.075 0.096,-0.143 0,-0.115 -0.092,-0.16 -0.225,-0.16 H 0.09 Z M 0.173,-0.377 V -0.59 h 0.101 c 0.102,0 0.154,0.029 0.154,0.105 0,0.067 -0.046,0.108 -0.158,0.108 z m 0,0.311 v -0.247 h 0.114 c 0.115,0 0.179,0.037 0.179,0.118 0,0.088 -0.066,0.129 -0.179,0.129 z"
   style="fill-rule:nonzero"
   id="path668" />
            </g>
            <g
   transform="matrix(11,0,0,11,574.44,312.5)"
   id="g674">
                <path
   d="m 0.224,0.012 c 0.067,0 0.115,-0.035 0.16,-0.088 H 0.387 L 0.394,0 H 0.462 V -0.486 H 0.38 v 0.345 c -0.046,0.057 -0.081,0.082 -0.131,0.082 -0.064,0 -0.091,-0.039 -0.091,-0.13 V -0.486 H 0.075 v 0.308 c 0,0.124 0.046,0.19 0.149,0.19 z"
   style="fill-rule:nonzero"
   id="path672" />
            </g>
            <g
   transform="matrix(11,0,0,11,580.424,312.5)"
   id="g678">
                <path
   d="m 0.275,0.012 c 0.062,0 0.116,-0.025 0.156,-0.064 l -0.036,-0.05 c -0.029,0.027 -0.069,0.046 -0.113,0.046 -0.09,0 -0.151,-0.075 -0.151,-0.186 0,-0.112 0.065,-0.188 0.152,-0.188 0.042,0 0.073,0.016 0.098,0.039 l 0.041,-0.05 C 0.389,-0.474 0.344,-0.498 0.28,-0.498 c -0.125,0 -0.234,0.093 -0.234,0.256 0,0.161 0.099,0.254 0.229,0.254 z"
   style="fill-rule:nonzero"
   id="path676" />
            </g>
            <g
   transform="matrix(11,0,0,11,585.44,312.5)"
   id="g682">
                <path
   d="m 0.082,0 h 0.082 v -0.352 c 0.049,-0.049 0.083,-0.075 0.133,-0.075 0.064,0 0.092,0.039 0.092,0.13 V 0 h 0.082 v -0.308 c 0,-0.124 -0.046,-0.19 -0.148,-0.19 -0.067,0 -0.116,0.036 -0.162,0.08 l 0.003,-0.1 V -0.712 H 0.082 Z"
   style="fill-rule:nonzero"
   id="path680" />
            </g>
            <g
   transform="matrix(11,0,0,11,591.424,312.5)"
   id="g686">
                <path
   d="m 0.082,0 h 0.082 v -0.312 c 0.033,-0.082 0.082,-0.112 0.123,-0.112 0.02,0 0.03,0.002 0.045,0.006 l 0.018,-0.07 c -0.016,-0.007 -0.031,-0.01 -0.052,-0.01 -0.056,0 -0.106,0.039 -0.138,0.1 H 0.157 L 0.15,-0.486 H 0.082 Z"
   style="fill-rule:nonzero"
   id="path684" />
            </g>
            <g
   transform="matrix(11,0,0,11,595.241,312.5)"
   id="g690">
                <path
   d="m 0.224,0.012 c 0.067,0 0.115,-0.035 0.16,-0.088 H 0.387 L 0.394,0 H 0.462 V -0.486 H 0.38 v 0.345 c -0.046,0.057 -0.081,0.082 -0.131,0.082 -0.064,0 -0.091,-0.039 -0.091,-0.13 V -0.486 H 0.075 v 0.308 c 0,0.124 0.046,0.19 0.149,0.19 z M 0.175,-0.587 c 0.028,0 0.049,-0.022 0.049,-0.05 0,-0.028 -0.021,-0.05 -0.049,-0.05 -0.029,0 -0.05,0.022 -0.05,0.05 0,0.028 0.021,0.05 0.05,0.05 z m 0.192,0 c 0.029,0 0.05,-0.022 0.05,-0.05 0,-0.028 -0.021,-0.05 -0.05,-0.05 -0.028,0 -0.049,0.022 -0.049,0.05 0,0.028 0.021,0.05 0.049,0.05 z"
   style="fill-rule:nonzero"
   id="path688" />
            </g>
            <g
   transform="matrix(11,0,0,11,601.226,312.5)"
   id="g694">
                <path
   d="m 0.275,0.012 c 0.062,0 0.116,-0.025 0.156,-0.064 l -0.036,-0.05 c -0.029,0.027 -0.069,0.046 -0.113,0.046 -0.09,0 -0.151,-0.075 -0.151,-0.186 0,-0.112 0.065,-0.188 0.152,-0.188 0.042,0 0.073,0.016 0.098,0.039 l 0.041,-0.05 C 0.389,-0.474 0.344,-0.498 0.28,-0.498 c -0.125,0 -0.234,0.093 -0.234,0.256 0,0.161 0.099,0.254 0.229,0.254 z"
   style="fill-rule:nonzero"
   id="path692" />
            </g>
            <g
   transform="matrix(11,0,0,11,606.241,312.5)"
   id="g698">
                <path
   d="M 0.082,0 H 0.164 V -0.128 L 0.254,-0.234 0.396,0 h 0.09 L 0.302,-0.29 0.464,-0.486 H 0.372 L 0.166,-0.231 H 0.164 V -0.712 H 0.082 Z"
   style="fill-rule:nonzero"
   id="path696" />
            </g>
            <g
   transform="matrix(11,0,0,11,611.577,312.5)"
   id="g702">
                <path
   d="m 0.246,0.224 c 0.151,0 0.246,-0.078 0.246,-0.168 0,-0.081 -0.057,-0.116 -0.17,-0.116 H 0.228 c -0.066,0 -0.086,-0.022 -0.086,-0.053 0,-0.027 0.014,-0.043 0.031,-0.058 0.022,0.011 0.049,0.017 0.073,0.017 0.099,0 0.178,-0.065 0.178,-0.168 0,-0.044 -0.018,-0.076 -0.041,-0.097 V -0.423 H 0.484 V -0.486 H 0.315 C 0.297,-0.493 0.273,-0.498 0.246,-0.498 c -0.099,0 -0.183,0.067 -0.183,0.173 0,0.058 0.031,0.105 0.063,0.131 v 0.004 c -0.025,0.017 -0.053,0.049 -0.053,0.09 0,0.038 0.019,0.064 0.043,0.079 v 0.004 c -0.044,0.03 -0.071,0.069 -0.071,0.11 0,0.084 0.082,0.131 0.201,0.131 z m 0,-0.433 c -0.056,0 -0.103,-0.045 -0.103,-0.116 0,-0.071 0.046,-0.113 0.103,-0.113 0.057,0 0.103,0.042 0.103,0.113 0,0.071 -0.047,0.116 -0.103,0.116 z M 0.258,0.167 C 0.17,0.167 0.117,0.134 0.117,0.082 0.117,0.054 0.132,0.025 0.167,0 0.188,0.006 0.211,0.008 0.23,0.008 h 0.084 c 0.063,0 0.098,0.015 0.098,0.06 0,0.051 -0.061,0.099 -0.154,0.099 z"
   style="fill-rule:nonzero"
   id="path700" />
            </g>
            <g
   transform="matrix(11,0,0,11,616.945,312.5)"
   id="g706">
                <path
   d="m 0.194,0.012 c 0.061,0 0.113,-0.031 0.161,-0.07 H 0.358 L 0.365,0 h 0.068 v -0.298 c 0,-0.121 -0.051,-0.2 -0.169,-0.2 -0.078,0 -0.146,0.033 -0.191,0.063 l 0.032,0.056 c 0.038,-0.024 0.089,-0.05 0.145,-0.05 0.079,0 0.1,0.059 0.101,0.12 -0.208,0.023 -0.3,0.074 -0.3,0.183 0,0.088 0.062,0.138 0.143,0.138 z m 0.023,-0.068 c -0.047,0 -0.085,-0.021 -0.085,-0.075 0,-0.063 0.055,-0.1 0.219,-0.119 v 0.131 c -0.047,0.042 -0.087,0.063 -0.134,0.063 z"
   style="fill-rule:nonzero"
   id="path704" />
            </g>
            <g
   transform="matrix(11,0,0,11,622.489,312.5)"
   id="g710">
                <path
   d="m 0.297,0.012 c 0.111,0 0.21,-0.097 0.21,-0.263 0,-0.15 -0.067,-0.247 -0.193,-0.247 -0.054,0 -0.108,0.029 -0.152,0.068 L 0.164,-0.518 V -0.712 H 0.082 V 0 h 0.066 l 0.007,-0.05 h 0.003 c 0.043,0.039 0.094,0.062 0.139,0.062 z M 0.283,-0.057 c -0.032,0 -0.076,-0.014 -0.119,-0.051 v -0.255 c 0.046,-0.043 0.089,-0.066 0.13,-0.066 0.092,0 0.128,0.072 0.128,0.179 0,0.12 -0.059,0.193 -0.139,0.193 z"
   style="fill-rule:nonzero"
   id="path708" />
            </g>
            <g
   transform="matrix(11,0,0,11,628.572,312.5)"
   id="g714">
                <path
   d="m 0.266,-0.431 c 0.075,0 0.118,0.051 0.118,0.145 H 0.131 C 0.144,-0.39 0.206,-0.431 0.266,-0.431 Z m 0.013,0.443 c 0.066,0 0.118,-0.021 0.161,-0.05 L 0.41,-0.092 c -0.034,0.023 -0.075,0.037 -0.121,0.037 -0.082,0 -0.152,-0.057 -0.16,-0.166 h 0.325 c 0.003,-0.016 0.004,-0.032 0.004,-0.049 0,-0.138 -0.068,-0.228 -0.193,-0.228 -0.112,0 -0.22,0.097 -0.22,0.255 0,0.161 0.103,0.255 0.234,0.255 z"
   style="fill-rule:nonzero"
   id="path712" />
            </g>
        </g><g
   transform="translate(-479.30127,-218.09681)"
   id="g766">
            <g
   transform="matrix(11,0,0,11,574.716,327.5)"
   id="g720">
                <path
   d="m 0.082,0 h 0.082 v -0.312 c 0.033,-0.082 0.082,-0.112 0.123,-0.112 0.02,0 0.03,0.002 0.045,0.006 l 0.018,-0.07 c -0.016,-0.007 -0.031,-0.01 -0.052,-0.01 -0.056,0 -0.106,0.039 -0.138,0.1 H 0.157 L 0.15,-0.486 H 0.082 Z"
   style="fill-rule:nonzero"
   id="path718" />
            </g>
            <g
   transform="matrix(11,0,0,11,578.423,327.5)"
   id="g724">
                <path
   d="m 0.266,-0.431 c 0.075,0 0.118,0.051 0.118,0.145 H 0.131 C 0.144,-0.39 0.206,-0.431 0.266,-0.431 Z m 0.013,0.443 c 0.066,0 0.118,-0.021 0.161,-0.05 L 0.41,-0.092 c -0.034,0.023 -0.075,0.037 -0.121,0.037 -0.082,0 -0.152,-0.057 -0.16,-0.166 h 0.325 c 0.003,-0.016 0.004,-0.032 0.004,-0.049 0,-0.138 -0.068,-0.228 -0.193,-0.228 -0.112,0 -0.22,0.097 -0.22,0.255 0,0.161 0.103,0.255 0.234,0.255 z"
   style="fill-rule:nonzero"
   id="path722" />
            </g>
            <g
   transform="matrix(11,0,0,11,583.769,327.5)"
   id="g728">
                <path
   d="m 0.246,0.224 c 0.151,0 0.246,-0.078 0.246,-0.168 0,-0.081 -0.057,-0.116 -0.17,-0.116 H 0.228 c -0.066,0 -0.086,-0.022 -0.086,-0.053 0,-0.027 0.014,-0.043 0.031,-0.058 0.022,0.011 0.049,0.017 0.073,0.017 0.099,0 0.178,-0.065 0.178,-0.168 0,-0.044 -0.018,-0.076 -0.041,-0.097 V -0.423 H 0.484 V -0.486 H 0.315 C 0.297,-0.493 0.273,-0.498 0.246,-0.498 c -0.099,0 -0.183,0.067 -0.183,0.173 0,0.058 0.031,0.105 0.063,0.131 v 0.004 c -0.025,0.017 -0.053,0.049 -0.053,0.09 0,0.038 0.019,0.064 0.043,0.079 v 0.004 c -0.044,0.03 -0.071,0.069 -0.071,0.11 0,0.084 0.082,0.131 0.201,0.131 z m 0,-0.433 c -0.056,0 -0.103,-0.045 -0.103,-0.116 0,-0.071 0.046,-0.113 0.103,-0.113 0.057,0 0.103,0.042 0.103,0.113 0,0.071 -0.047,0.116 -0.103,0.116 z M 0.258,0.167 C 0.17,0.167 0.117,0.134 0.117,0.082 0.117,0.054 0.132,0.025 0.167,0 0.188,0.006 0.211,0.008 0.23,0.008 h 0.084 c 0.063,0 0.098,0.015 0.098,0.06 0,0.051 -0.061,0.099 -0.154,0.099 z"
   style="fill-rule:nonzero"
   id="path726" />
            </g>
            <g
   transform="matrix(11,0,0,11,589.312,327.5)"
   id="g732">
                <path
   d="M 0.082,0 H 0.164 V -0.486 H 0.082 Z m 0.041,-0.586 c 0.032,0 0.055,-0.021 0.055,-0.054 0,-0.032 -0.023,-0.054 -0.055,-0.054 -0.032,0 -0.055,0.022 -0.055,0.054 0,0.033 0.023,0.054 0.055,0.054 z"
   style="fill-rule:nonzero"
   id="path730" />
            </g>
            <g
   transform="matrix(11,0,0,11,592.019,327.5)"
   id="g736">
                <path
   d="m 0.209,0.012 c 0.115,0 0.178,-0.066 0.178,-0.145 0,-0.088 -0.074,-0.121 -0.15,-0.148 -0.06,-0.021 -0.103,-0.039 -0.103,-0.083 0,-0.037 0.028,-0.07 0.089,-0.07 0.044,0 0.079,0.014 0.113,0.038 L 0.374,-0.443 C 0.336,-0.475 0.283,-0.498 0.223,-0.498 c -0.106,0 -0.168,0.06 -0.168,0.138 0,0.08 0.07,0.115 0.143,0.141 0.055,0.02 0.11,0.041 0.11,0.091 0,0.042 -0.032,0.076 -0.096,0.076 -0.06,0 -0.104,-0.019 -0.146,-0.054 l -0.038,0.048 c 0.045,0.044 0.11,0.07 0.181,0.07 z"
   style="fill-rule:nonzero"
   id="path734" />
            </g>
            <g
   transform="matrix(11,0,0,11,596.408,327.5)"
   id="g740">
                <path
   d="m 0.235,0.009 c 0.033,0 0.065,-0.008 0.091,-0.021 L 0.309,-0.07 c -0.019,0.009 -0.038,0.012 -0.055,0.012 -0.056,0 -0.075,-0.034 -0.075,-0.093 V -0.419 H 0.31 V -0.486 H 0.179 V -0.642 H 0.11 L 0.1,-0.486 0.024,-0.481 v 0.062 h 0.072 v 0.266 c 0,0.097 0.035,0.162 0.139,0.162 z"
   style="fill-rule:nonzero"
   id="path738" />
            </g>
            <g
   transform="matrix(11,0,0,11,600.125,327.5)"
   id="g744">
                <path
   d="m 0.082,0 h 0.082 v -0.312 c 0.033,-0.082 0.082,-0.112 0.123,-0.112 0.02,0 0.03,0.002 0.045,0.006 l 0.018,-0.07 c -0.016,-0.007 -0.031,-0.01 -0.052,-0.01 -0.056,0 -0.106,0.039 -0.138,0.1 H 0.157 L 0.15,-0.486 H 0.082 Z"
   style="fill-rule:nonzero"
   id="path742" />
            </g>
            <g
   transform="matrix(11,0,0,11,603.942,327.5)"
   id="g748">
                <path
   d="M 0.082,0 H 0.164 V -0.486 H 0.082 Z m 0.041,-0.586 c 0.032,0 0.055,-0.021 0.055,-0.054 0,-0.032 -0.023,-0.054 -0.055,-0.054 -0.032,0 -0.055,0.022 -0.055,0.054 0,0.033 0.023,0.054 0.055,0.054 z"
   style="fill-rule:nonzero"
   id="path746" />
            </g>
            <g
   transform="matrix(11,0,0,11,606.649,327.5)"
   id="g752">
                <path
   d="m 0.266,-0.431 c 0.075,0 0.118,0.051 0.118,0.145 H 0.131 C 0.144,-0.39 0.206,-0.431 0.266,-0.431 Z m 0.013,0.443 c 0.066,0 0.118,-0.021 0.161,-0.05 L 0.41,-0.092 c -0.034,0.023 -0.075,0.037 -0.121,0.037 -0.082,0 -0.152,-0.057 -0.16,-0.166 h 0.325 c 0.003,-0.016 0.004,-0.032 0.004,-0.049 0,-0.138 -0.068,-0.228 -0.193,-0.228 -0.112,0 -0.22,0.097 -0.22,0.255 0,0.161 0.103,0.255 0.234,0.255 z"
   style="fill-rule:nonzero"
   id="path750" />
            </g>
            <g
   transform="matrix(11,0,0,11,612.105,327.5)"
   id="g756">
                <path
   d="m 0.082,0 h 0.082 v -0.312 c 0.033,-0.082 0.082,-0.112 0.123,-0.112 0.02,0 0.03,0.002 0.045,0.006 l 0.018,-0.07 c -0.016,-0.007 -0.031,-0.01 -0.052,-0.01 -0.056,0 -0.106,0.039 -0.138,0.1 H 0.157 L 0.15,-0.486 H 0.082 Z"
   style="fill-rule:nonzero"
   id="path754" />
            </g>
            <g
   transform="matrix(11,0,0,11,615.812,327.5)"
   id="g760">
                <path
   d="m 0.266,-0.431 c 0.075,0 0.118,0.051 0.118,0.145 H 0.131 C 0.144,-0.39 0.206,-0.431 0.266,-0.431 Z m 0.013,0.443 c 0.066,0 0.118,-0.021 0.161,-0.05 L 0.41,-0.092 c -0.034,0.023 -0.075,0.037 -0.121,0.037 -0.082,0 -0.152,-0.057 -0.16,-0.166 h 0.325 c 0.003,-0.016 0.004,-0.032 0.004,-0.049 0,-0.138 -0.068,-0.228 -0.193,-0.228 -0.112,0 -0.22,0.097 -0.22,0.255 0,0.161 0.103,0.255 0.234,0.255 z"
   style="fill-rule:nonzero"
   id="path758" />
            </g>
            <g
   transform="matrix(11,0,0,11,621.268,327.5)"
   id="g764">
                <path
   d="m 0.082,0 h 0.082 v -0.352 c 0.049,-0.049 0.083,-0.075 0.133,-0.075 0.064,0 0.092,0.039 0.092,0.13 V 0 h 0.082 v -0.308 c 0,-0.124 -0.046,-0.19 -0.148,-0.19 -0.067,0 -0.117,0.036 -0.163,0.082 H 0.157 L 0.15,-0.486 H 0.082 Z"
   style="fill-rule:nonzero"
   id="path762" />
            </g>
        </g><g
   transform="translate(-479.30127,-218.09681)"
   id="g844">
            <g
   transform="matrix(11,0,0,11,798.5,288.066)"
   id="g770">
                <path
   d="m 0.09,0 h 0.076 v -0.361 c 0,-0.058 -0.006,-0.143 -0.012,-0.201 h 0.004 l 0.051,0.158 0.123,0.339 H 0.393 L 0.516,-0.404 0.567,-0.562 H 0.571 C 0.566,-0.504 0.559,-0.419 0.559,-0.361 V 0 H 0.637 V -0.656 H 0.533 L 0.409,-0.305 C 0.393,-0.26 0.381,-0.218 0.367,-0.169 H 0.363 C 0.348,-0.218 0.334,-0.26 0.319,-0.305 L 0.195,-0.656 H 0.09 Z"
   style="fill-rule:nonzero"
   id="path768" />
            </g>
            <g
   transform="matrix(11,0,0,11,806.497,288.066)"
   id="g774">
                <path
   d="m 0.194,0.012 c 0.061,0 0.113,-0.031 0.161,-0.07 H 0.358 L 0.365,0 h 0.068 v -0.298 c 0,-0.121 -0.051,-0.2 -0.169,-0.2 -0.078,0 -0.146,0.033 -0.191,0.063 l 0.032,0.056 c 0.038,-0.024 0.089,-0.05 0.145,-0.05 0.079,0 0.1,0.059 0.101,0.12 -0.208,0.023 -0.3,0.074 -0.3,0.183 0,0.088 0.062,0.138 0.143,0.138 z m 0.023,-0.068 c -0.047,0 -0.085,-0.021 -0.085,-0.075 0,-0.063 0.055,-0.1 0.219,-0.119 v 0.131 c -0.047,0.042 -0.087,0.063 -0.134,0.063 z"
   style="fill-rule:nonzero"
   id="path772" />
            </g>
            <g
   transform="matrix(11,0,0,11,812.041,288.066)"
   id="g778">
                <path
   d="m 0.082,0 h 0.082 v -0.352 c 0.049,-0.049 0.083,-0.075 0.133,-0.075 0.064,0 0.092,0.039 0.092,0.13 V 0 h 0.082 v -0.308 c 0,-0.124 -0.046,-0.19 -0.148,-0.19 -0.067,0 -0.116,0.036 -0.162,0.08 l 0.003,-0.1 V -0.712 H 0.082 Z"
   style="fill-rule:nonzero"
   id="path776" />
            </g>
            <g
   transform="matrix(11,0,0,11,818.025,288.066)"
   id="g782">
                <path
   d="m 0.082,0 h 0.082 v -0.352 c 0.049,-0.049 0.083,-0.075 0.133,-0.075 0.064,0 0.092,0.039 0.092,0.13 V 0 h 0.082 v -0.308 c 0,-0.124 -0.046,-0.19 -0.148,-0.19 -0.067,0 -0.117,0.036 -0.163,0.082 H 0.157 L 0.15,-0.486 H 0.082 Z"
   style="fill-rule:nonzero"
   id="path780" />
            </g>
            <g
   transform="matrix(11,0,0,11,824.042,288.066)"
   id="g786">
                <path
   d="m 0.246,0.224 c 0.151,0 0.246,-0.078 0.246,-0.168 0,-0.081 -0.057,-0.116 -0.17,-0.116 H 0.228 c -0.066,0 -0.086,-0.022 -0.086,-0.053 0,-0.027 0.014,-0.043 0.031,-0.058 0.022,0.011 0.049,0.017 0.073,0.017 0.099,0 0.178,-0.065 0.178,-0.168 0,-0.044 -0.018,-0.076 -0.041,-0.097 V -0.423 H 0.484 V -0.486 H 0.315 C 0.297,-0.493 0.273,-0.498 0.246,-0.498 c -0.099,0 -0.183,0.067 -0.183,0.173 0,0.058 0.031,0.105 0.063,0.131 v 0.004 c -0.025,0.017 -0.053,0.049 -0.053,0.09 0,0.038 0.019,0.064 0.043,0.079 v 0.004 c -0.044,0.03 -0.071,0.069 -0.071,0.11 0,0.084 0.082,0.131 0.201,0.131 z m 0,-0.433 c -0.056,0 -0.103,-0.045 -0.103,-0.116 0,-0.071 0.046,-0.113 0.103,-0.113 0.057,0 0.103,0.042 0.103,0.113 0,0.071 -0.047,0.116 -0.103,0.116 z M 0.258,0.167 C 0.17,0.167 0.117,0.134 0.117,0.082 0.117,0.054 0.132,0.025 0.167,0 0.188,0.006 0.211,0.008 0.23,0.008 h 0.084 c 0.063,0 0.098,0.015 0.098,0.06 0,0.051 -0.061,0.099 -0.154,0.099 z"
   style="fill-rule:nonzero"
   id="path784" />
            </g>
            <g
   transform="matrix(11,0,0,11,829.432,288.066)"
   id="g790">
                <path
   d="m 0.266,-0.431 c 0.075,0 0.118,0.051 0.118,0.145 H 0.131 C 0.144,-0.39 0.206,-0.431 0.266,-0.431 Z m 0.013,0.443 c 0.066,0 0.118,-0.021 0.161,-0.05 L 0.41,-0.092 c -0.034,0.023 -0.075,0.037 -0.121,0.037 -0.082,0 -0.152,-0.057 -0.16,-0.166 h 0.325 c 0.003,-0.016 0.004,-0.032 0.004,-0.049 0,-0.138 -0.068,-0.228 -0.193,-0.228 -0.112,0 -0.22,0.097 -0.22,0.255 0,0.161 0.103,0.255 0.234,0.255 z"
   style="fill-rule:nonzero"
   id="path788" />
            </g>
            <g
   transform="matrix(11,0,0,11,834.888,288.066)"
   id="g794">
                <path
   d="m 0.297,0.012 c 0.111,0 0.21,-0.097 0.21,-0.263 0,-0.15 -0.067,-0.247 -0.193,-0.247 -0.054,0 -0.108,0.029 -0.152,0.068 L 0.164,-0.518 V -0.712 H 0.082 V 0 h 0.066 l 0.007,-0.05 h 0.003 c 0.043,0.039 0.094,0.062 0.139,0.062 z M 0.283,-0.057 c -0.032,0 -0.076,-0.014 -0.119,-0.051 v -0.255 c 0.046,-0.043 0.089,-0.066 0.13,-0.066 0.092,0 0.128,0.072 0.128,0.179 0,0.12 -0.059,0.193 -0.139,0.193 z"
   style="fill-rule:nonzero"
   id="path792" />
            </g>
            <g
   transform="matrix(11,0,0,11,840.971,288.066)"
   id="g798">
                <path
   d="m 0.224,0.012 c 0.067,0 0.115,-0.035 0.16,-0.088 H 0.387 L 0.394,0 H 0.462 V -0.486 H 0.38 v 0.345 c -0.046,0.057 -0.081,0.082 -0.131,0.082 -0.064,0 -0.091,-0.039 -0.091,-0.13 V -0.486 H 0.075 v 0.308 c 0,0.124 0.046,0.19 0.149,0.19 z M 0.175,-0.587 c 0.028,0 0.049,-0.022 0.049,-0.05 0,-0.028 -0.021,-0.05 -0.049,-0.05 -0.029,0 -0.05,0.022 -0.05,0.05 0,0.028 0.021,0.05 0.05,0.05 z m 0.192,0 c 0.029,0 0.05,-0.022 0.05,-0.05 0,-0.028 -0.021,-0.05 -0.05,-0.05 -0.028,0 -0.049,0.022 -0.049,0.05 0,0.028 0.021,0.05 0.049,0.05 z"
   style="fill-rule:nonzero"
   id="path796" />
            </g>
            <g
   transform="matrix(11,0,0,11,846.955,288.066)"
   id="g802">
                <path
   d="m 0.082,0 h 0.082 v -0.352 c 0.049,-0.049 0.083,-0.075 0.133,-0.075 0.064,0 0.092,0.039 0.092,0.13 V 0 h 0.082 v -0.308 c 0,-0.124 -0.046,-0.19 -0.148,-0.19 -0.067,0 -0.116,0.036 -0.162,0.08 l 0.003,-0.1 V -0.712 H 0.082 Z"
   style="fill-rule:nonzero"
   id="path800" />
            </g>
            <g
   transform="matrix(11,0,0,11,852.939,288.066)"
   id="g806">
                <path
   d="m 0.082,0 h 0.082 v -0.312 c 0.033,-0.082 0.082,-0.112 0.123,-0.112 0.02,0 0.03,0.002 0.045,0.006 l 0.018,-0.07 c -0.016,-0.007 -0.031,-0.01 -0.052,-0.01 -0.056,0 -0.106,0.039 -0.138,0.1 H 0.157 L 0.15,-0.486 H 0.082 Z"
   style="fill-rule:nonzero"
   id="path804" />
            </g>
            <g
   transform="matrix(11,0,0,11,858.956,288.066)"
   id="g810">
                <path
   d="m 0.297,0.012 c 0.111,0 0.21,-0.097 0.21,-0.263 0,-0.15 -0.067,-0.247 -0.193,-0.247 -0.054,0 -0.108,0.029 -0.152,0.068 L 0.164,-0.518 V -0.712 H 0.082 V 0 h 0.066 l 0.007,-0.05 h 0.003 c 0.043,0.039 0.094,0.062 0.139,0.062 z M 0.283,-0.057 c -0.032,0 -0.076,-0.014 -0.119,-0.051 v -0.255 c 0.046,-0.043 0.089,-0.066 0.13,-0.066 0.092,0 0.128,0.072 0.128,0.179 0,0.12 -0.059,0.193 -0.139,0.193 z"
   style="fill-rule:nonzero"
   id="path808" />
            </g>
            <g
   transform="matrix(11,0,0,11,865.039,288.066)"
   id="g814">
                <path
   d="m 0.266,-0.431 c 0.075,0 0.118,0.051 0.118,0.145 H 0.131 C 0.144,-0.39 0.206,-0.431 0.266,-0.431 Z m 0.013,0.443 c 0.066,0 0.118,-0.021 0.161,-0.05 L 0.41,-0.092 c -0.034,0.023 -0.075,0.037 -0.121,0.037 -0.082,0 -0.152,-0.057 -0.16,-0.166 h 0.325 c 0.003,-0.016 0.004,-0.032 0.004,-0.049 0,-0.138 -0.068,-0.228 -0.193,-0.228 -0.112,0 -0.22,0.097 -0.22,0.255 0,0.161 0.103,0.255 0.234,0.255 z"
   style="fill-rule:nonzero"
   id="path812" />
            </g>
            <g
   transform="matrix(11,0,0,11,870.495,288.066)"
   id="g818">
                <path
   d="m 0.082,0 h 0.082 v -0.312 c 0.033,-0.082 0.082,-0.112 0.123,-0.112 0.02,0 0.03,0.002 0.045,0.006 l 0.018,-0.07 c -0.016,-0.007 -0.031,-0.01 -0.052,-0.01 -0.056,0 -0.106,0.039 -0.138,0.1 H 0.157 L 0.15,-0.486 H 0.082 Z"
   style="fill-rule:nonzero"
   id="path816" />
            </g>
            <g
   transform="matrix(11,0,0,11,874.202,288.066)"
   id="g822">
                <path
   d="m 0.266,-0.431 c 0.075,0 0.118,0.051 0.118,0.145 H 0.131 C 0.144,-0.39 0.206,-0.431 0.266,-0.431 Z m 0.013,0.443 c 0.066,0 0.118,-0.021 0.161,-0.05 L 0.41,-0.092 c -0.034,0.023 -0.075,0.037 -0.121,0.037 -0.082,0 -0.152,-0.057 -0.16,-0.166 h 0.325 c 0.003,-0.016 0.004,-0.032 0.004,-0.049 0,-0.138 -0.068,-0.228 -0.193,-0.228 -0.112,0 -0.22,0.097 -0.22,0.255 0,0.161 0.103,0.255 0.234,0.255 z"
   style="fill-rule:nonzero"
   id="path820" />
            </g>
            <g
   transform="matrix(11,0,0,11,879.658,288.066)"
   id="g826">
                <path
   d="m 0.275,0.012 c 0.062,0 0.116,-0.025 0.156,-0.064 l -0.036,-0.05 c -0.029,0.027 -0.069,0.046 -0.113,0.046 -0.09,0 -0.151,-0.075 -0.151,-0.186 0,-0.112 0.065,-0.188 0.152,-0.188 0.042,0 0.073,0.016 0.098,0.039 l 0.041,-0.05 C 0.389,-0.474 0.344,-0.498 0.28,-0.498 c -0.125,0 -0.234,0.093 -0.234,0.256 0,0.161 0.099,0.254 0.229,0.254 z"
   style="fill-rule:nonzero"
   id="path824" />
            </g>
            <g
   transform="matrix(11,0,0,11,884.674,288.066)"
   id="g830">
                <path
   d="m 0.082,0 h 0.082 v -0.352 c 0.049,-0.049 0.083,-0.075 0.133,-0.075 0.064,0 0.092,0.039 0.092,0.13 V 0 h 0.082 v -0.308 c 0,-0.124 -0.046,-0.19 -0.148,-0.19 -0.067,0 -0.116,0.036 -0.162,0.08 l 0.003,-0.1 V -0.712 H 0.082 Z"
   style="fill-rule:nonzero"
   id="path828" />
            </g>
            <g
   transform="matrix(11,0,0,11,890.658,288.066)"
   id="g834">
                <path
   d="m 0.082,0 h 0.082 v -0.352 c 0.049,-0.049 0.083,-0.075 0.133,-0.075 0.064,0 0.092,0.039 0.092,0.13 V 0 h 0.082 v -0.308 c 0,-0.124 -0.046,-0.19 -0.148,-0.19 -0.067,0 -0.117,0.036 -0.163,0.082 H 0.157 L 0.15,-0.486 H 0.082 Z"
   style="fill-rule:nonzero"
   id="path832" />
            </g>
            <g
   transform="matrix(11,0,0,11,896.675,288.066)"
   id="g838">
                <path
   d="m 0.266,-0.431 c 0.075,0 0.118,0.051 0.118,0.145 H 0.131 C 0.144,-0.39 0.206,-0.431 0.266,-0.431 Z m 0.013,0.443 c 0.066,0 0.118,-0.021 0.161,-0.05 L 0.41,-0.092 c -0.034,0.023 -0.075,0.037 -0.121,0.037 -0.082,0 -0.152,-0.057 -0.16,-0.166 h 0.325 c 0.003,-0.016 0.004,-0.032 0.004,-0.049 0,-0.138 -0.068,-0.228 -0.193,-0.228 -0.112,0 -0.22,0.097 -0.22,0.255 0,0.161 0.103,0.255 0.234,0.255 z"
   style="fill-rule:nonzero"
   id="path836" />
            </g>
            <g
   transform="matrix(11,0,0,11,902.131,288.066)"
   id="g842">
                <path
   d="m 0.082,0 h 0.082 v -0.352 c 0.049,-0.049 0.083,-0.075 0.133,-0.075 0.064,0 0.092,0.039 0.092,0.13 V 0 h 0.082 v -0.308 c 0,-0.124 -0.046,-0.19 -0.148,-0.19 -0.067,0 -0.117,0.036 -0.163,0.082 H 0.157 L 0.15,-0.486 H 0.082 Z"
   style="fill-rule:nonzero"
   id="path840" />
            </g>
        </g><g
   transform="translate(-479.30127,-218.09681)"
   id="g906">
            <g
   transform="matrix(11,0,0,11,990.198,288.066)"
   id="g848">
                <path
   d="M 0.045,0 H 0.497 V -0.071 H 0.148 L 0.494,-0.607 V -0.656 H 0.076 v 0.07 H 0.39 L 0.045,-0.05 Z"
   style="fill-rule:nonzero"
   id="path846" />
            </g>
            <g
   transform="matrix(11,0,0,11,995.951,288.066)"
   id="g852">
                <path
   d="m 0.194,0.012 c 0.061,0 0.113,-0.031 0.161,-0.07 H 0.358 L 0.365,0 h 0.068 v -0.298 c 0,-0.121 -0.051,-0.2 -0.169,-0.2 -0.078,0 -0.146,0.033 -0.191,0.063 l 0.032,0.056 c 0.038,-0.024 0.089,-0.05 0.145,-0.05 0.079,0 0.1,0.059 0.101,0.12 -0.208,0.023 -0.3,0.074 -0.3,0.183 0,0.088 0.062,0.138 0.143,0.138 z m 0.023,-0.068 c -0.047,0 -0.085,-0.021 -0.085,-0.075 0,-0.063 0.055,-0.1 0.219,-0.119 v 0.131 c -0.047,0.042 -0.087,0.063 -0.134,0.063 z"
   style="fill-rule:nonzero"
   id="path850" />
            </g>
            <g
   transform="matrix(11,0,0,11,1001.49,288.066)"
   id="g856">
                <path
   d="m 0.082,0 h 0.082 v -0.352 c 0.049,-0.049 0.083,-0.075 0.133,-0.075 0.064,0 0.092,0.039 0.092,0.13 V 0 h 0.082 v -0.308 c 0,-0.124 -0.046,-0.19 -0.148,-0.19 -0.067,0 -0.116,0.036 -0.162,0.08 l 0.003,-0.1 V -0.712 H 0.082 Z"
   style="fill-rule:nonzero"
   id="path854" />
            </g>
            <g
   transform="matrix(11,0,0,11,1007.48,288.066)"
   id="g860">
                <path
   d="m 0.169,0.009 c 0.02,0 0.036,-0.003 0.047,-0.008 L 0.205,-0.061 c -0.008,0.002 -0.012,0.002 -0.017,0.002 -0.013,0 -0.024,-0.009 -0.024,-0.035 V -0.712 H 0.082 V -0.1 c 0,0.07 0.025,0.109 0.087,0.109 z"
   style="fill-rule:nonzero"
   id="path858" />
            </g>
            <g
   transform="matrix(11,0,0,11,1010.28,288.066)"
   id="g864">
                <path
   d="m 0.224,0.012 c 0.067,0 0.115,-0.035 0.16,-0.088 H 0.387 L 0.394,0 H 0.462 V -0.486 H 0.38 v 0.345 c -0.046,0.057 -0.081,0.082 -0.131,0.082 -0.064,0 -0.091,-0.039 -0.091,-0.13 V -0.486 H 0.075 v 0.308 c 0,0.124 0.046,0.19 0.149,0.19 z"
   style="fill-rule:nonzero"
   id="path862" />
            </g>
            <g
   transform="matrix(11,0,0,11,1016.27,288.066)"
   id="g868">
                <path
   d="m 0.082,0 h 0.082 v -0.352 c 0.049,-0.049 0.083,-0.075 0.133,-0.075 0.064,0 0.092,0.039 0.092,0.13 V 0 h 0.082 v -0.308 c 0,-0.124 -0.046,-0.19 -0.148,-0.19 -0.067,0 -0.117,0.036 -0.163,0.082 H 0.157 L 0.15,-0.486 H 0.082 Z"
   style="fill-rule:nonzero"
   id="path866" />
            </g>
            <g
   transform="matrix(11,0,0,11,1022.28,288.066)"
   id="g872">
                <path
   d="m 0.246,0.224 c 0.151,0 0.246,-0.078 0.246,-0.168 0,-0.081 -0.057,-0.116 -0.17,-0.116 H 0.228 c -0.066,0 -0.086,-0.022 -0.086,-0.053 0,-0.027 0.014,-0.043 0.031,-0.058 0.022,0.011 0.049,0.017 0.073,0.017 0.099,0 0.178,-0.065 0.178,-0.168 0,-0.044 -0.018,-0.076 -0.041,-0.097 V -0.423 H 0.484 V -0.486 H 0.315 C 0.297,-0.493 0.273,-0.498 0.246,-0.498 c -0.099,0 -0.183,0.067 -0.183,0.173 0,0.058 0.031,0.105 0.063,0.131 v 0.004 c -0.025,0.017 -0.053,0.049 -0.053,0.09 0,0.038 0.019,0.064 0.043,0.079 v 0.004 c -0.044,0.03 -0.071,0.069 -0.071,0.11 0,0.084 0.082,0.131 0.201,0.131 z m 0,-0.433 c -0.056,0 -0.103,-0.045 -0.103,-0.116 0,-0.071 0.046,-0.113 0.103,-0.113 0.057,0 0.103,0.042 0.103,0.113 0,0.071 -0.047,0.116 -0.103,0.116 z M 0.258,0.167 C 0.17,0.167 0.117,0.134 0.117,0.082 0.117,0.054 0.132,0.025 0.167,0 0.188,0.006 0.211,0.008 0.23,0.008 h 0.084 c 0.063,0 0.098,0.015 0.098,0.06 0,0.051 -0.061,0.099 -0.154,0.099 z"
   style="fill-rule:nonzero"
   id="path870" />
            </g>
            <g
   transform="matrix(11,0,0,11,1027.83,288.066)"
   id="g876">
                <path
   d="m 0.209,0.012 c 0.115,0 0.178,-0.066 0.178,-0.145 0,-0.088 -0.074,-0.121 -0.15,-0.148 -0.06,-0.021 -0.103,-0.039 -0.103,-0.083 0,-0.037 0.028,-0.07 0.089,-0.07 0.044,0 0.079,0.014 0.113,0.038 L 0.374,-0.443 C 0.336,-0.475 0.283,-0.498 0.223,-0.498 c -0.106,0 -0.168,0.06 -0.168,0.138 0,0.08 0.07,0.115 0.143,0.141 0.055,0.02 0.11,0.041 0.11,0.091 0,0.042 -0.032,0.076 -0.096,0.076 -0.06,0 -0.104,-0.019 -0.146,-0.054 l -0.038,0.048 c 0.045,0.044 0.11,0.07 0.181,0.07 z"
   style="fill-rule:nonzero"
   id="path874" />
            </g>
            <g
   transform="matrix(11,0,0,11,1032.44,288.066)"
   id="g880">
                <path
   d="m 0.194,0.012 c 0.061,0 0.113,-0.031 0.161,-0.07 H 0.358 L 0.365,0 h 0.068 v -0.298 c 0,-0.121 -0.051,-0.2 -0.169,-0.2 -0.078,0 -0.146,0.033 -0.191,0.063 l 0.032,0.056 c 0.038,-0.024 0.089,-0.05 0.145,-0.05 0.079,0 0.1,0.059 0.101,0.12 -0.208,0.023 -0.3,0.074 -0.3,0.183 0,0.088 0.062,0.138 0.143,0.138 z m 0.023,-0.068 c -0.047,0 -0.085,-0.021 -0.085,-0.075 0,-0.063 0.055,-0.1 0.219,-0.119 v 0.131 c -0.047,0.042 -0.087,0.063 -0.134,0.063 z"
   style="fill-rule:nonzero"
   id="path878" />
            </g>
            <g
   transform="matrix(11,0,0,11,1037.98,288.066)"
   id="g884">
                <path
   d="m 0.224,0.012 c 0.067,0 0.115,-0.035 0.16,-0.088 H 0.387 L 0.394,0 H 0.462 V -0.486 H 0.38 v 0.345 c -0.046,0.057 -0.081,0.082 -0.131,0.082 -0.064,0 -0.091,-0.039 -0.091,-0.13 V -0.486 H 0.075 v 0.308 c 0,0.124 0.046,0.19 0.149,0.19 z"
   style="fill-rule:nonzero"
   id="path882" />
            </g>
            <g
   transform="matrix(11,0,0,11,1043.97,288.066)"
   id="g888">
                <path
   d="m 0.209,0.012 c 0.115,0 0.178,-0.066 0.178,-0.145 0,-0.088 -0.074,-0.121 -0.15,-0.148 -0.06,-0.021 -0.103,-0.039 -0.103,-0.083 0,-0.037 0.028,-0.07 0.089,-0.07 0.044,0 0.079,0.014 0.113,0.038 L 0.374,-0.443 C 0.336,-0.475 0.283,-0.498 0.223,-0.498 c -0.106,0 -0.168,0.06 -0.168,0.138 0,0.08 0.07,0.115 0.143,0.141 0.055,0.02 0.11,0.041 0.11,0.091 0,0.042 -0.032,0.076 -0.096,0.076 -0.06,0 -0.104,-0.019 -0.146,-0.054 l -0.038,0.048 c 0.045,0.044 0.11,0.07 0.181,0.07 z"
   style="fill-rule:nonzero"
   id="path886" />
            </g>
            <g
   transform="matrix(11,0,0,11,1048.57,288.066)"
   id="g892">
                <path
   d="m 0.159,0 h 0.102 l 0.065,-0.26 c 0.012,-0.044 0.022,-0.087 0.031,-0.144 h 0.004 c 0.011,0.057 0.019,0.099 0.031,0.144 L 0.457,0 h 0.107 l 0.131,-0.486 h -0.08 l -0.071,0.281 c -0.01,0.044 -0.019,0.086 -0.029,0.138 H 0.511 C 0.501,-0.119 0.491,-0.161 0.479,-0.205 L 0.406,-0.486 H 0.316 L 0.244,-0.205 C 0.233,-0.161 0.223,-0.119 0.213,-0.067 H 0.209 C 0.201,-0.119 0.191,-0.161 0.181,-0.205 L 0.11,-0.486 H 0.024 Z"
   style="fill-rule:nonzero"
   id="path890" />
            </g>
            <g
   transform="matrix(11,0,0,11,1056.37,288.066)"
   id="g896">
                <path
   d="m 0.194,0.012 c 0.061,0 0.113,-0.031 0.161,-0.07 H 0.358 L 0.365,0 h 0.068 v -0.298 c 0,-0.121 -0.051,-0.2 -0.169,-0.2 -0.078,0 -0.146,0.033 -0.191,0.063 l 0.032,0.056 c 0.038,-0.024 0.089,-0.05 0.145,-0.05 0.079,0 0.1,0.059 0.101,0.12 -0.208,0.023 -0.3,0.074 -0.3,0.183 0,0.088 0.062,0.138 0.143,0.138 z m 0.023,-0.068 c -0.047,0 -0.085,-0.021 -0.085,-0.075 0,-0.063 0.055,-0.1 0.219,-0.119 v 0.131 c -0.047,0.042 -0.087,0.063 -0.134,0.063 z"
   style="fill-rule:nonzero"
   id="path894" />
            </g>
            <g
   transform="matrix(11,0,0,11,1061.92,288.066)"
   id="g900">
                <path
   d="m 0.082,0 h 0.082 v -0.352 c 0.049,-0.049 0.083,-0.075 0.133,-0.075 0.064,0 0.092,0.039 0.092,0.13 V 0 h 0.082 v -0.308 c 0,-0.124 -0.046,-0.19 -0.148,-0.19 -0.067,0 -0.116,0.036 -0.162,0.08 l 0.003,-0.1 V -0.712 H 0.082 Z"
   style="fill-rule:nonzero"
   id="path898" />
            </g>
            <g
   transform="matrix(11,0,0,11,1067.9,288.066)"
   id="g904">
                <path
   d="m 0.169,0.009 c 0.02,0 0.036,-0.003 0.047,-0.008 L 0.205,-0.061 c -0.008,0.002 -0.012,0.002 -0.017,0.002 -0.013,0 -0.024,-0.009 -0.024,-0.035 V -0.712 H 0.082 V -0.1 c 0,0.07 0.025,0.109 0.087,0.109 z"
   style="fill-rule:nonzero"
   id="path902" />
            </g>
        </g><g
   transform="translate(-479.30127,-218.09681)"
   id="g1106">
            <g
   transform="matrix(11,0,0,11,816.505,396.184)"
   id="g1064">
                <rect
   x="0.090000004"
   y="-0.65600002"
   width="0.082999997"
   height="0.65600002"
   style="fill-rule:nonzero"
   id="rect1062" />
            </g>
            <g
   transform="matrix(11,0,0,11,819.398,396.184)"
   id="g1068">
                <path
   d="m 0.082,0 h 0.082 v -0.352 c 0.049,-0.049 0.083,-0.075 0.133,-0.075 0.064,0 0.092,0.039 0.092,0.13 V 0 h 0.082 v -0.308 c 0,-0.124 -0.046,-0.19 -0.148,-0.19 -0.067,0 -0.117,0.036 -0.163,0.082 H 0.157 L 0.15,-0.486 H 0.082 Z"
   style="fill-rule:nonzero"
   id="path1066" />
            </g>
            <g
   transform="matrix(11,0,0,11,827.615,396.184)"
   id="g1072">
                <path
   d="M 0.09,0 H 0.173 V -0.277 H 0.292 L 0.45,0 H 0.544 L 0.377,-0.286 c 0.09,-0.022 0.148,-0.084 0.148,-0.186 0,-0.136 -0.096,-0.184 -0.23,-0.184 H 0.09 Z m 0.083,-0.345 v -0.244 h 0.11 c 0.102,0 0.159,0.031 0.159,0.117 0,0.085 -0.057,0.127 -0.159,0.127 z"
   style="fill-rule:nonzero"
   id="path1070" />
            </g>
            <g
   transform="matrix(11,0,0,11,833.874,396.184)"
   id="g1076">
                <path
   d="m 0.224,0.012 c 0.067,0 0.115,-0.035 0.16,-0.088 H 0.387 L 0.394,0 H 0.462 V -0.486 H 0.38 v 0.345 c -0.046,0.057 -0.081,0.082 -0.131,0.082 -0.064,0 -0.091,-0.039 -0.091,-0.13 V -0.486 H 0.075 v 0.308 c 0,0.124 0.046,0.19 0.149,0.19 z M 0.175,-0.587 c 0.028,0 0.049,-0.022 0.049,-0.05 0,-0.028 -0.021,-0.05 -0.049,-0.05 -0.029,0 -0.05,0.022 -0.05,0.05 0,0.028 0.021,0.05 0.05,0.05 z m 0.192,0 c 0.029,0 0.05,-0.022 0.05,-0.05 0,-0.028 -0.021,-0.05 -0.05,-0.05 -0.028,0 -0.049,0.022 -0.049,0.05 0,0.028 0.021,0.05 0.049,0.05 z"
   style="fill-rule:nonzero"
   id="path1074" />
            </g>
            <g
   transform="matrix(11,0,0,11,839.858,396.184)"
   id="g1080">
                <path
   d="m 0.275,0.012 c 0.062,0 0.116,-0.025 0.156,-0.064 l -0.036,-0.05 c -0.029,0.027 -0.069,0.046 -0.113,0.046 -0.09,0 -0.151,-0.075 -0.151,-0.186 0,-0.112 0.065,-0.188 0.152,-0.188 0.042,0 0.073,0.016 0.098,0.039 l 0.041,-0.05 C 0.389,-0.474 0.344,-0.498 0.28,-0.498 c -0.125,0 -0.234,0.093 -0.234,0.256 0,0.161 0.099,0.254 0.229,0.254 z"
   style="fill-rule:nonzero"
   id="path1078" />
            </g>
            <g
   transform="matrix(11,0,0,11,844.874,396.184)"
   id="g1084">
                <path
   d="M 0.082,0 H 0.164 V -0.128 L 0.254,-0.234 0.396,0 h 0.09 L 0.302,-0.29 0.464,-0.486 H 0.372 L 0.166,-0.231 H 0.164 V -0.712 H 0.082 Z"
   style="fill-rule:nonzero"
   id="path1082" />
            </g>
            <g
   transform="matrix(11,0,0,11,850.209,396.184)"
   id="g1088">
                <path
   d="m 0.246,0.224 c 0.151,0 0.246,-0.078 0.246,-0.168 0,-0.081 -0.057,-0.116 -0.17,-0.116 H 0.228 c -0.066,0 -0.086,-0.022 -0.086,-0.053 0,-0.027 0.014,-0.043 0.031,-0.058 0.022,0.011 0.049,0.017 0.073,0.017 0.099,0 0.178,-0.065 0.178,-0.168 0,-0.044 -0.018,-0.076 -0.041,-0.097 V -0.423 H 0.484 V -0.486 H 0.315 C 0.297,-0.493 0.273,-0.498 0.246,-0.498 c -0.099,0 -0.183,0.067 -0.183,0.173 0,0.058 0.031,0.105 0.063,0.131 v 0.004 c -0.025,0.017 -0.053,0.049 -0.053,0.09 0,0.038 0.019,0.064 0.043,0.079 v 0.004 c -0.044,0.03 -0.071,0.069 -0.071,0.11 0,0.084 0.082,0.131 0.201,0.131 z m 0,-0.433 c -0.056,0 -0.103,-0.045 -0.103,-0.116 0,-0.071 0.046,-0.113 0.103,-0.113 0.057,0 0.103,0.042 0.103,0.113 0,0.071 -0.047,0.116 -0.103,0.116 z M 0.258,0.167 C 0.17,0.167 0.117,0.134 0.117,0.082 0.117,0.054 0.132,0.025 0.167,0 0.188,0.006 0.211,0.008 0.23,0.008 h 0.084 c 0.063,0 0.098,0.015 0.098,0.06 0,0.051 -0.061,0.099 -0.154,0.099 z"
   style="fill-rule:nonzero"
   id="path1086" />
            </g>
            <g
   transform="matrix(11,0,0,11,855.577,396.184)"
   id="g1092">
                <path
   d="m 0.194,0.012 c 0.061,0 0.113,-0.031 0.161,-0.07 H 0.358 L 0.365,0 h 0.068 v -0.298 c 0,-0.121 -0.051,-0.2 -0.169,-0.2 -0.078,0 -0.146,0.033 -0.191,0.063 l 0.032,0.056 c 0.038,-0.024 0.089,-0.05 0.145,-0.05 0.079,0 0.1,0.059 0.101,0.12 -0.208,0.023 -0.3,0.074 -0.3,0.183 0,0.088 0.062,0.138 0.143,0.138 z m 0.023,-0.068 c -0.047,0 -0.085,-0.021 -0.085,-0.075 0,-0.063 0.055,-0.1 0.219,-0.119 v 0.131 c -0.047,0.042 -0.087,0.063 -0.134,0.063 z"
   style="fill-rule:nonzero"
   id="path1090" />
            </g>
            <g
   transform="matrix(11,0,0,11,861.121,396.184)"
   id="g1096">
                <path
   d="m 0.297,0.012 c 0.111,0 0.21,-0.097 0.21,-0.263 0,-0.15 -0.067,-0.247 -0.193,-0.247 -0.054,0 -0.108,0.029 -0.152,0.068 L 0.164,-0.518 V -0.712 H 0.082 V 0 h 0.066 l 0.007,-0.05 h 0.003 c 0.043,0.039 0.094,0.062 0.139,0.062 z M 0.283,-0.057 c -0.032,0 -0.076,-0.014 -0.119,-0.051 v -0.255 c 0.046,-0.043 0.089,-0.066 0.13,-0.066 0.092,0 0.128,0.072 0.128,0.179 0,0.12 -0.059,0.193 -0.139,0.193 z"
   style="fill-rule:nonzero"
   id="path1094" />
            </g>
            <g
   transform="matrix(11,0,0,11,867.204,396.184)"
   id="g1100">
                <path
   d="m 0.266,-0.431 c 0.075,0 0.118,0.051 0.118,0.145 H 0.131 C 0.144,-0.39 0.206,-0.431 0.266,-0.431 Z m 0.013,0.443 c 0.066,0 0.118,-0.021 0.161,-0.05 L 0.41,-0.092 c -0.034,0.023 -0.075,0.037 -0.121,0.037 -0.082,0 -0.152,-0.057 -0.16,-0.166 h 0.325 c 0.003,-0.016 0.004,-0.032 0.004,-0.049 0,-0.138 -0.068,-0.228 -0.193,-0.228 -0.112,0 -0.22,0.097 -0.22,0.255 0,0.161 0.103,0.255 0.234,0.255 z"
   style="fill-rule:nonzero"
   id="path1098" />
            </g>
            
        </g><g
   transform="translate(-437.81005,-233.1986)"
   id="g1132">
            <g
   transform="matrix(11,0,0,11,831.19,411.184)"
   id="g1110">
                <path
   d="M 0.082,0 H 0.164 V -0.128 L 0.254,-0.234 0.396,0 h 0.09 L 0.302,-0.29 0.464,-0.486 H 0.372 L 0.166,-0.231 H 0.164 V -0.712 H 0.082 Z"
   style="fill-rule:nonzero"
   id="path1108" />
            </g>
            <g
   transform="matrix(11,0,0,11,836.481,411.184)"
   id="g1114">
                <path
   d="m 0.224,0.012 c 0.067,0 0.115,-0.035 0.16,-0.088 H 0.387 L 0.394,0 H 0.462 V -0.486 H 0.38 v 0.345 c -0.046,0.057 -0.081,0.082 -0.131,0.082 -0.064,0 -0.091,-0.039 -0.091,-0.13 V -0.486 H 0.075 v 0.308 c 0,0.124 0.046,0.19 0.149,0.19 z"
   style="fill-rule:nonzero"
   id="path1112" />
            </g>
            <g
   transform="matrix(11,0,0,11,842.465,411.184)"
   id="g1118">
                <path
   d="m 0.169,0.009 c 0.02,0 0.036,-0.003 0.047,-0.008 L 0.205,-0.061 c -0.008,0.002 -0.012,0.002 -0.017,0.002 -0.013,0 -0.024,-0.009 -0.024,-0.035 V -0.712 H 0.082 V -0.1 c 0,0.07 0.025,0.109 0.087,0.109 z"
   style="fill-rule:nonzero"
   id="path1116" />
            </g>
            <g
   transform="matrix(11,0,0,11,845.27,411.184)"
   id="g1122">
                <path
   d="m 0.194,0.012 c 0.061,0 0.113,-0.031 0.161,-0.07 H 0.358 L 0.365,0 h 0.068 v -0.298 c 0,-0.121 -0.051,-0.2 -0.169,-0.2 -0.078,0 -0.146,0.033 -0.191,0.063 l 0.032,0.056 c 0.038,-0.024 0.089,-0.05 0.145,-0.05 0.079,0 0.1,0.059 0.101,0.12 -0.208,0.023 -0.3,0.074 -0.3,0.183 0,0.088 0.062,0.138 0.143,0.138 z m 0.023,-0.068 c -0.047,0 -0.085,-0.021 -0.085,-0.075 0,-0.063 0.055,-0.1 0.219,-0.119 v 0.131 c -0.047,0.042 -0.087,0.063 -0.134,0.063 z"
   style="fill-rule:nonzero"
   id="path1120" />
            </g>
            <g
   transform="matrix(11,0,0,11,850.814,411.184)"
   id="g1126">
                <path
   d="m 0.082,0 h 0.082 v -0.352 c 0.049,-0.049 0.083,-0.075 0.133,-0.075 0.064,0 0.092,0.039 0.092,0.13 V 0 h 0.082 v -0.308 c 0,-0.124 -0.046,-0.19 -0.148,-0.19 -0.067,0 -0.117,0.036 -0.163,0.082 H 0.157 L 0.15,-0.486 H 0.082 Z"
   style="fill-rule:nonzero"
   id="path1124" />
            </g>
            <g
   transform="matrix(11,0,0,11,856.831,411.184)"
   id="g1130">
                <path
   d="M 0.031,0 H 0.399 V -0.067 H 0.135 L 0.391,-0.442 V -0.486 H 0.059 v 0.067 h 0.228 l -0.256,0.375 z"
   style="fill-rule:nonzero"
   id="path1128" />
            </g>
        </g><g
   transform="matrix(1,0,0,-1,-632.30127,595.03619)"
   id="g1152">
            <path
   d="m 1069.32,529.066 h 38.98"
   style="fill:none;fill-rule:nonzero;stroke:#000000;stroke-width:1.75px;stroke-linejoin:miter"
   id="path1150" />
        </g><g
   transform="translate(-479.30127,-83.96381)"
   id="g1156">
            <path
   d="m 964.502,149.934 -9.2,-3.45 v 6.9 z"
   style="fill-rule:nonzero;stroke:#000000;stroke-width:1.75px;stroke-linecap:butt;stroke-linejoin:miter"
   id="path1154" />
        </g>
</svg>
