<?xml version="1.0" encoding="UTF-8" standalone="no"?>
<!DOCTYPE svg PUBLIC "-//W3C//DTD SVG 1.1//EN" "http://www.w3.org/Graphics/SVG/1.1/DTD/svg11.dtd">
<svg width="100%" height="100%" viewBox="0 0 3048 805" version="1.1" xmlns="http://www.w3.org/2000/svg" xmlns:xlink="http://www.w3.org/1999/xlink" xml:space="preserve" xmlns:serif="http://www.serif.com/" style="fill-rule:evenodd;clip-rule:evenodd;stroke-linecap:round;stroke-linejoin:round;stroke-miterlimit:1.5;">
    <rect x="112" y="45.75" width="375" height="175" style="fill:white;stroke:rgb(39,128,227);stroke-width:8.33px;"/>
    <rect x="1227" y="45.75" width="472" height="175" style="fill:white;stroke:rgb(39,128,227);stroke-width:8.33px;"/>
    <path d="M488.375,134.606L488.375,135.5L487,134.125L488.375,132.75L488.375,133.644L643.813,133.644L643.813,132.75L645.188,134.125L643.813,135.5L643.813,134.606L488.375,134.606Z" style="fill:white;stroke:rgb(39,128,227);stroke-width:8.33px;"/>
    <path d="M273.561,280L278.226,279.665L273.939,219.997L269.274,220.333L273.561,280Z" style="fill:rgb(39,128,227);"/>
    <g transform="matrix(1,0,0,1,102.3,-2.781)">
        <path d="M403.56,432.781L408.102,431.339L341.242,220.731L336.7,222.173L403.56,432.781Z" style="fill:rgb(39,128,227);"/>
    </g>
    <path d="M1066.81,133.856L1066.81,134.75L1065.43,133.375L1066.81,132L1066.81,132.894L1222.25,132.894L1222.25,132L1223.62,133.375L1222.25,134.75L1222.25,133.856L1066.81,133.856L1066.81,133.856Z" style="fill:white;stroke:rgb(39,128,227);stroke-width:8.33px;"/>
    <path d="M840,25.75L1084.81,133.25L840,240.75L595.187,133.25L840,25.75Z" style="fill:white;stroke:rgb(39,128,227);stroke-width:8.33px;"/>
    <ellipse cx="238" cy="355" rx="201" ry="75" style="fill:white;stroke:rgb(39,128,227);stroke-width:4.17px;"/>
    <g transform="matrix(1,0,0,1,35.652,0)">
        <ellipse cx="474.75" cy="505" rx="201" ry="75" style="fill:white;stroke:rgb(39,128,227);stroke-width:4.17px;"/>
    </g>
    <g transform="matrix(1,0,0,1,164.267,373.783)">
        <g transform="matrix(58.333,0,0,58.333,0,0)">
            <path d="M0.09,-0L0.169,-0L0.169,-0.343C0.169,-0.413 0.164,-0.483 0.158,-0.549L0.162,-0.549C0.183,-0.501 0.208,-0.452 0.233,-0.408L0.466,-0L0.557,-0L0.557,-0.656L0.477,-0.656L0.477,-0.315C0.477,-0.247 0.483,-0.175 0.488,-0.107L0.484,-0.107C0.462,-0.155 0.439,-0.204 0.414,-0.248L0.181,-0.656L0.09,-0.656L0.09,-0Z" style="fill:rgb(35,31,32);fill-rule:nonzero;"/>
        </g>
        <g transform="matrix(58.333,0,0,58.333,37.7415,0)">
            <path d="M0.194,0.012C0.255,0.012 0.307,-0.019 0.355,-0.058L0.358,-0.058L0.365,-0L0.433,-0L0.433,-0.298C0.433,-0.419 0.382,-0.498 0.264,-0.498C0.186,-0.498 0.118,-0.465 0.073,-0.435L0.105,-0.379C0.143,-0.403 0.194,-0.429 0.25,-0.429C0.329,-0.429 0.35,-0.37 0.351,-0.309C0.143,-0.286 0.051,-0.235 0.051,-0.126C0.051,-0.038 0.113,0.012 0.194,0.012ZM0.217,-0.056C0.17,-0.056 0.132,-0.077 0.132,-0.131C0.132,-0.194 0.187,-0.231 0.351,-0.25L0.351,-0.119C0.304,-0.077 0.264,-0.056 0.217,-0.056Z" style="fill:rgb(35,31,32);fill-rule:nonzero;"/>
        </g>
        <g transform="matrix(58.333,0,0,58.333,67.1413,0)">
            <path d="M0.082,-0L0.164,-0L0.164,-0.352C0.209,-0.402 0.25,-0.427 0.286,-0.427C0.348,-0.427 0.377,-0.388 0.377,-0.297L0.377,-0L0.459,-0L0.459,-0.352C0.504,-0.402 0.543,-0.427 0.581,-0.427C0.642,-0.427 0.671,-0.388 0.671,-0.297L0.671,-0L0.753,-0L0.753,-0.308C0.753,-0.432 0.705,-0.498 0.605,-0.498C0.546,-0.498 0.496,-0.46 0.445,-0.405C0.425,-0.463 0.385,-0.498 0.311,-0.498C0.253,-0.498 0.202,-0.462 0.16,-0.416L0.157,-0.416L0.15,-0.486L0.082,-0.486L0.082,-0Z" style="fill:rgb(35,31,32);fill-rule:nonzero;"/>
        </g>
        <g transform="matrix(58.333,0,0,58.333,115.499,0)">
            <path d="M0.266,-0.431C0.341,-0.431 0.384,-0.38 0.384,-0.286L0.131,-0.286C0.144,-0.39 0.206,-0.431 0.266,-0.431ZM0.279,0.012C0.345,0.012 0.397,-0.009 0.44,-0.038L0.41,-0.092C0.376,-0.069 0.335,-0.055 0.289,-0.055C0.207,-0.055 0.137,-0.112 0.129,-0.221L0.454,-0.221C0.457,-0.237 0.458,-0.253 0.458,-0.27C0.458,-0.408 0.39,-0.498 0.265,-0.498C0.153,-0.498 0.045,-0.401 0.045,-0.243C0.045,-0.082 0.148,0.012 0.279,0.012Z" style="fill:rgb(35,31,32);fill-rule:nonzero;"/>
        </g>
    </g>
    <g transform="matrix(1,0,0,1,416.165,525.417)">
        <g transform="matrix(58.333,0,0,58.333,0,0)">
            <path d="M0.203,-0.367C0.227,-0.44 0.248,-0.512 0.268,-0.588L0.272,-0.588C0.293,-0.512 0.314,-0.44 0.338,-0.367L0.369,-0.267L0.172,-0.267L0.203,-0.367ZM0.003,-0L0.088,-0L0.151,-0.2L0.39,-0.2L0.452,-0L0.541,-0L0.319,-0.656L0.225,-0.656L0.003,-0Z" style="fill:rgb(35,31,32);fill-rule:nonzero;"/>
        </g>
        <g transform="matrix(58.333,0,0,58.333,31.7332,0)">
            <path d="M0.248,0.012C0.305,0.012 0.357,-0.02 0.395,-0.057L0.398,-0.057L0.405,-0L0.473,-0L0.473,-0.712L0.39,-0.712L0.39,-0.525L0.394,-0.442C0.351,-0.477 0.314,-0.498 0.258,-0.498C0.147,-0.498 0.047,-0.4 0.047,-0.242C0.047,-0.08 0.126,0.012 0.248,0.012ZM0.266,-0.057C0.181,-0.057 0.132,-0.127 0.132,-0.243C0.132,-0.354 0.194,-0.429 0.272,-0.429C0.312,-0.429 0.349,-0.415 0.39,-0.378L0.39,-0.124C0.35,-0.079 0.311,-0.057 0.266,-0.057Z" style="fill:rgb(35,31,32);fill-rule:nonzero;"/>
        </g>
        <g transform="matrix(58.333,0,0,58.333,64.108,0)">
            <path d="M0.082,-0L0.164,-0L0.164,-0.312C0.197,-0.394 0.246,-0.424 0.287,-0.424C0.307,-0.424 0.317,-0.422 0.332,-0.418L0.35,-0.488C0.334,-0.495 0.319,-0.498 0.298,-0.498C0.242,-0.498 0.192,-0.459 0.16,-0.398L0.157,-0.398L0.15,-0.486L0.082,-0.486L0.082,-0Z" style="fill:rgb(35,31,32);fill-rule:nonzero;"/>
        </g>
        <g transform="matrix(58.333,0,0,58.333,83.7662,0)">
            <path d="M0.266,-0.431C0.341,-0.431 0.384,-0.38 0.384,-0.286L0.131,-0.286C0.144,-0.39 0.206,-0.431 0.266,-0.431ZM0.279,0.012C0.345,0.012 0.397,-0.009 0.44,-0.038L0.41,-0.092C0.376,-0.069 0.335,-0.055 0.289,-0.055C0.207,-0.055 0.137,-0.112 0.129,-0.221L0.454,-0.221C0.457,-0.237 0.458,-0.253 0.458,-0.27C0.458,-0.408 0.39,-0.498 0.265,-0.498C0.153,-0.498 0.045,-0.401 0.045,-0.243C0.045,-0.082 0.148,0.012 0.279,0.012Z" style="fill:rgb(35,31,32);fill-rule:nonzero;"/>
        </g>
        <g transform="matrix(58.333,0,0,58.333,112.699,0)">
            <path d="M0.209,0.012C0.324,0.012 0.387,-0.054 0.387,-0.133C0.387,-0.221 0.313,-0.254 0.237,-0.281C0.177,-0.302 0.134,-0.32 0.134,-0.364C0.134,-0.401 0.162,-0.434 0.223,-0.434C0.267,-0.434 0.302,-0.42 0.336,-0.396L0.374,-0.443C0.336,-0.475 0.283,-0.498 0.223,-0.498C0.117,-0.498 0.055,-0.438 0.055,-0.36C0.055,-0.28 0.125,-0.245 0.198,-0.219C0.253,-0.199 0.308,-0.178 0.308,-0.128C0.308,-0.086 0.276,-0.052 0.212,-0.052C0.152,-0.052 0.108,-0.071 0.066,-0.106L0.028,-0.058C0.073,-0.014 0.138,0.012 0.209,0.012Z" style="fill:rgb(35,31,32);fill-rule:nonzero;"/>
        </g>
        <g transform="matrix(58.333,0,0,58.333,137.141,0)">
            <path d="M0.209,0.012C0.324,0.012 0.387,-0.054 0.387,-0.133C0.387,-0.221 0.313,-0.254 0.237,-0.281C0.177,-0.302 0.134,-0.32 0.134,-0.364C0.134,-0.401 0.162,-0.434 0.223,-0.434C0.267,-0.434 0.302,-0.42 0.336,-0.396L0.374,-0.443C0.336,-0.475 0.283,-0.498 0.223,-0.498C0.117,-0.498 0.055,-0.438 0.055,-0.36C0.055,-0.28 0.125,-0.245 0.198,-0.219C0.253,-0.199 0.308,-0.178 0.308,-0.128C0.308,-0.086 0.276,-0.052 0.212,-0.052C0.152,-0.052 0.108,-0.071 0.066,-0.106L0.028,-0.058C0.073,-0.014 0.138,0.012 0.209,0.012Z" style="fill:rgb(35,31,32);fill-rule:nonzero;"/>
        </g>
        <g transform="matrix(58.333,0,0,58.333,161.582,0)">
            <path d="M0.266,-0.431C0.341,-0.431 0.384,-0.38 0.384,-0.286L0.131,-0.286C0.144,-0.39 0.206,-0.431 0.266,-0.431ZM0.279,0.012C0.345,0.012 0.397,-0.009 0.44,-0.038L0.41,-0.092C0.376,-0.069 0.335,-0.055 0.289,-0.055C0.207,-0.055 0.137,-0.112 0.129,-0.221L0.454,-0.221C0.457,-0.237 0.458,-0.253 0.458,-0.27C0.458,-0.408 0.39,-0.498 0.265,-0.498C0.153,-0.498 0.045,-0.401 0.045,-0.243C0.045,-0.082 0.148,0.012 0.279,0.012Z" style="fill:rgb(35,31,32);fill-rule:nonzero;"/>
        </g>
    </g>
    <path d="M1400.56,281L1405.23,280.665L1400.94,220.997L1396.27,221.333L1400.56,281Z" style="fill:rgb(39,128,227);"/>
    <path d="M1683.14,317.202L1686.92,314.451L1618.05,219.731L1614.26,222.482L1683.14,317.202Z" style="fill:rgb(39,128,227);"/>
    <g transform="matrix(-1,0,0,1,4180.12,-18.0938)">
        <path d="M1683.14,317.202L1686.92,314.451L1618.05,219.731L1614.26,222.482L1683.14,317.202Z" style="fill:rgb(39,128,227);"/>
    </g>
    <path d="M1735.78,585.461L1739.95,583.148L1539.26,221.642L1535.1,223.955L1735.78,585.461Z" style="fill:rgb(39,128,227);"/>
    <ellipse cx="1365" cy="356" rx="201" ry="75" style="fill:white;stroke:rgb(39,128,227);stroke-width:4.17px;"/>
    <g transform="matrix(1,0,0,1,-97.1744,-70.539)">
        <ellipse cx="1802.75" cy="656" rx="201" ry="75" style="fill:white;stroke:rgb(39,128,227);stroke-width:4.17px;"/>
    </g>
    <ellipse cx="1843.89" cy="363.183" rx="201" ry="75" style="fill:white;stroke:rgb(39,128,227);stroke-width:4.17px;"/>
    <g transform="matrix(1,0,0,1,66.648,-5.781)">
        <path d="M2734.81,436.781L2739.35,435.339L2672.49,224.731L2667.95,226.173L2734.81,436.781Z" style="fill:rgb(39,128,227);"/>
    </g>
    <g transform="matrix(1,0,0,1,-130.35,-3)">
        <ellipse cx="2569.25" cy="359" rx="201" ry="75" style="fill:white;stroke:rgb(39,128,227);stroke-width:4.17px;"/>
    </g>
    <ellipse cx="2806" cy="509" rx="201" ry="75" style="fill:white;stroke:rgb(39,128,227);stroke-width:4.17px;"/>
    <g transform="matrix(1,0,0,1,-330.587,-426.568)">
        <g transform="matrix(64,0,0,64,1037.46,575.195)">
            <path d="M0.21,0.012C0.334,0.012 0.401,-0.056 0.401,-0.14C0.401,-0.226 0.334,-0.264 0.258,-0.29C0.196,-0.311 0.16,-0.326 0.16,-0.362C0.16,-0.392 0.183,-0.416 0.233,-0.416C0.272,-0.416 0.308,-0.404 0.343,-0.379L0.394,-0.444C0.354,-0.478 0.297,-0.503 0.23,-0.503C0.12,-0.503 0.052,-0.442 0.052,-0.356C0.052,-0.278 0.118,-0.238 0.189,-0.212C0.243,-0.192 0.292,-0.175 0.292,-0.134C0.292,-0.1 0.267,-0.075 0.214,-0.075C0.163,-0.075 0.118,-0.09 0.075,-0.126L0.024,-0.06C0.072,-0.014 0.142,0.012 0.21,0.012Z" style="fill-rule:nonzero;"/>
        </g>
        <g transform="matrix(64,0,0,64,1063.76,575.195)">
            <path d="M0.246,0.01C0.286,0.01 0.321,0.001 0.347,-0.01L0.326,-0.091C0.31,-0.084 0.292,-0.081 0.275,-0.081C0.228,-0.081 0.206,-0.11 0.206,-0.167L0.206,-0.4L0.331,-0.4L0.331,-0.491L0.206,-0.491L0.206,-0.645L0.11,-0.645L0.096,-0.491L0.02,-0.486L0.02,-0.4L0.09,-0.4L0.09,-0.167C0.09,-0.061 0.132,0.01 0.246,0.01Z" style="fill-rule:nonzero;"/>
        </g>
        <g transform="matrix(64,0,0,64,1085.84,575.195)">
            <path d="M0.27,-0.412C0.336,-0.412 0.368,-0.368 0.368,-0.298L0.158,-0.298C0.172,-0.385 0.222,-0.412 0.27,-0.412ZM0.284,0.012C0.346,0.012 0.406,-0.008 0.452,-0.04L0.412,-0.114C0.378,-0.092 0.34,-0.08 0.298,-0.08C0.23,-0.08 0.169,-0.12 0.156,-0.21L0.464,-0.21C0.468,-0.228 0.47,-0.248 0.47,-0.27C0.47,-0.406 0.402,-0.503 0.268,-0.503C0.152,-0.503 0.04,-0.406 0.04,-0.246C0.04,-0.082 0.146,0.012 0.284,0.012Z" style="fill-rule:nonzero;"/>
        </g>
        <g transform="matrix(64,0,0,64,1118.29,575.195)">
            <path d="M0.073,-0L0.188,-0L0.188,-0.343C0.229,-0.383 0.257,-0.404 0.3,-0.404C0.354,-0.404 0.377,-0.374 0.377,-0.293L0.377,-0L0.492,-0L0.492,-0.308C0.492,-0.432 0.446,-0.503 0.341,-0.503C0.274,-0.503 0.225,-0.468 0.184,-0.429L0.188,-0.524L0.188,-0.706L0.073,-0.706L0.073,-0Z" style="fill-rule:nonzero;"/>
        </g>
        <g transform="matrix(64,0,0,64,1154,575.195)">
            <path d="M0.246,0.01C0.286,0.01 0.321,0.001 0.347,-0.01L0.326,-0.091C0.31,-0.084 0.292,-0.081 0.275,-0.081C0.228,-0.081 0.206,-0.11 0.206,-0.167L0.206,-0.4L0.331,-0.4L0.331,-0.491L0.206,-0.491L0.206,-0.645L0.11,-0.645L0.096,-0.491L0.02,-0.486L0.02,-0.4L0.09,-0.4L0.09,-0.167C0.09,-0.061 0.132,0.01 0.246,0.01Z" style="fill-rule:nonzero;"/>
        </g>
        <g transform="matrix(64,0,0,64,1189.91,575.195)">
            <path d="M0.192,0.012C0.25,0.012 0.298,-0.016 0.344,-0.054L0.348,-0.054L0.356,-0L0.451,-0L0.451,-0.29C0.451,-0.428 0.39,-0.503 0.268,-0.503C0.19,-0.503 0.12,-0.474 0.066,-0.44L0.108,-0.362C0.152,-0.388 0.198,-0.408 0.246,-0.408C0.312,-0.408 0.334,-0.366 0.336,-0.316C0.134,-0.294 0.046,-0.242 0.046,-0.132C0.046,-0.046 0.106,0.012 0.192,0.012ZM0.228,-0.082C0.188,-0.082 0.158,-0.098 0.158,-0.14C0.158,-0.19 0.202,-0.22 0.336,-0.236L0.336,-0.132C0.3,-0.098 0.268,-0.082 0.228,-0.082Z" style="fill-rule:nonzero;"/>
        </g>
        <g transform="matrix(64,0,0,64,1222.93,575.195)">
            <path d="M0.073,-0L0.188,-0L0.188,-0.343C0.226,-0.384 0.261,-0.404 0.291,-0.404C0.343,-0.404 0.367,-0.374 0.367,-0.293L0.367,-0L0.482,-0L0.482,-0.343C0.52,-0.384 0.554,-0.404 0.585,-0.404C0.636,-0.404 0.66,-0.374 0.66,-0.293L0.66,-0L0.776,-0L0.776,-0.308C0.776,-0.432 0.728,-0.503 0.624,-0.503C0.562,-0.503 0.513,-0.465 0.466,-0.415C0.443,-0.47 0.402,-0.503 0.33,-0.503C0.269,-0.503 0.221,-0.468 0.18,-0.424L0.176,-0.424L0.168,-0.491L0.073,-0.491L0.073,-0Z" style="fill-rule:nonzero;"/>
        </g>
    </g>
    <g transform="matrix(1,0,0,1,1160.75,181.167)">
        <g transform="matrix(58.333,0,0,58.333,0,0)">
            <path d="M0.082,-0L0.164,-0L0.164,-0.352C0.209,-0.402 0.25,-0.427 0.286,-0.427C0.348,-0.427 0.377,-0.388 0.377,-0.297L0.377,-0L0.459,-0L0.459,-0.352C0.504,-0.402 0.543,-0.427 0.581,-0.427C0.642,-0.427 0.671,-0.388 0.671,-0.297L0.671,-0L0.753,-0L0.753,-0.308C0.753,-0.432 0.705,-0.498 0.605,-0.498C0.546,-0.498 0.496,-0.46 0.445,-0.405C0.425,-0.463 0.385,-0.498 0.311,-0.498C0.253,-0.498 0.202,-0.462 0.16,-0.416L0.157,-0.416L0.15,-0.486L0.082,-0.486L0.082,-0Z" style="fill:rgb(35,31,32);fill-rule:nonzero;"/>
        </g>
    </g>
    <g transform="matrix(1,0,0,1,498.619,181.167)">
        <g transform="matrix(58.333,0,0,58.333,0,0)">
            <path d="M0.082,-0L0.164,-0L0.164,-0.352C0.213,-0.401 0.247,-0.427 0.297,-0.427C0.361,-0.427 0.389,-0.388 0.389,-0.297L0.389,-0L0.471,-0L0.471,-0.308C0.471,-0.432 0.425,-0.498 0.323,-0.498C0.256,-0.498 0.206,-0.462 0.16,-0.416L0.157,-0.416L0.15,-0.486L0.082,-0.486L0.082,-0Z" style="fill:rgb(35,31,32);fill-rule:nonzero;"/>
        </g>
    </g>
    <path d="M1700.38,134.606L1700.38,135.5L1699.01,134.125L1700.38,132.75L1700.38,133.644L1855.82,133.644L1855.82,132.75L1857.19,134.125L1855.82,135.5L1855.82,134.606L1700.38,134.606Z" style="fill:white;stroke:rgb(39,128,227);stroke-width:8.33px;"/>
    <path d="M2278.81,133.856L2278.81,134.75L2277.43,133.375L2278.81,132L2278.81,132.894L2434.25,132.894L2434.25,132L2435.62,133.375L2434.25,134.75L2434.25,133.856L2278.81,133.856L2278.81,133.856Z" style="fill:white;stroke:rgb(39,128,227);stroke-width:8.33px;"/>
    <path d="M2052,25.75L2296.81,133.25L2052,240.75L1807.19,133.25L2052,25.75Z" style="fill:white;stroke:rgb(39,128,227);stroke-width:8.33px;"/>
    <g transform="matrix(1,0,0,1,2372.75,181.167)">
        <g transform="matrix(58.333,0,0,58.333,0,0)">
            <path d="M0.082,-0L0.164,-0L0.164,-0.352C0.209,-0.402 0.25,-0.427 0.286,-0.427C0.348,-0.427 0.377,-0.388 0.377,-0.297L0.377,-0L0.459,-0L0.459,-0.352C0.504,-0.402 0.543,-0.427 0.581,-0.427C0.642,-0.427 0.671,-0.388 0.671,-0.297L0.671,-0L0.753,-0L0.753,-0.308C0.753,-0.432 0.705,-0.498 0.605,-0.498C0.546,-0.498 0.496,-0.46 0.445,-0.405C0.425,-0.463 0.385,-0.498 0.311,-0.498C0.253,-0.498 0.202,-0.462 0.16,-0.416L0.157,-0.416L0.15,-0.486L0.082,-0.486L0.082,-0Z" style="fill:rgb(35,31,32);fill-rule:nonzero;"/>
        </g>
    </g>
    <g transform="matrix(1,0,0,1,1710.62,181.167)">
        <g transform="matrix(58.333,0,0,58.333,0,0)">
            <path d="M0.082,-0L0.164,-0L0.164,-0.352C0.213,-0.401 0.247,-0.427 0.297,-0.427C0.361,-0.427 0.389,-0.388 0.389,-0.297L0.389,-0L0.471,-0L0.471,-0.308C0.471,-0.432 0.425,-0.498 0.323,-0.498C0.256,-0.498 0.206,-0.462 0.16,-0.416L0.157,-0.416L0.15,-0.486L0.082,-0.486L0.082,-0Z" style="fill:rgb(35,31,32);fill-rule:nonzero;"/>
        </g>
    </g>
    <g>
        <g transform="matrix(1,0,0,1,-807.223,-419.466)">
            <g transform="matrix(96,0,0,96,1037.46,575.195)">
                <path d="M0.337,0.012C0.508,0.012 0.626,-0.118 0.626,-0.33C0.626,-0.541 0.508,-0.666 0.337,-0.666C0.167,-0.666 0.049,-0.541 0.049,-0.33C0.049,-0.118 0.167,0.012 0.337,0.012ZM0.337,-0.089C0.234,-0.089 0.168,-0.183 0.168,-0.33C0.168,-0.476 0.234,-0.565 0.337,-0.565C0.44,-0.565 0.506,-0.476 0.506,-0.33C0.506,-0.183 0.44,-0.089 0.337,-0.089Z" style="fill-rule:nonzero;"/>
            </g>
            <g transform="matrix(96,0,0,96,1102.16,575.195)">
                <path d="M0.073,-0L0.188,-0L0.188,-0.3C0.218,-0.374 0.265,-0.401 0.304,-0.401C0.325,-0.401 0.336,-0.399 0.352,-0.395L0.375,-0.493C0.36,-0.5 0.344,-0.503 0.319,-0.503C0.266,-0.503 0.214,-0.468 0.18,-0.404L0.176,-0.404L0.168,-0.491L0.073,-0.491L0.073,-0Z" style="fill-rule:nonzero;"/>
            </g>
            <g transform="matrix(96,0,0,96,1137.97,575.195)">
                <path d="M0.246,0.01C0.286,0.01 0.321,0.001 0.347,-0.01L0.326,-0.091C0.31,-0.084 0.292,-0.081 0.275,-0.081C0.228,-0.081 0.206,-0.11 0.206,-0.167L0.206,-0.4L0.331,-0.4L0.331,-0.491L0.206,-0.491L0.206,-0.645L0.11,-0.645L0.096,-0.491L0.02,-0.486L0.02,-0.4L0.09,-0.4L0.09,-0.167C0.09,-0.061 0.132,0.01 0.246,0.01Z" style="fill-rule:nonzero;"/>
            </g>
        </g>
        <g transform="matrix(1,0,0,1,243.621,-417.45)">
            <g transform="matrix(96,0,0,96,1037.46,575.195)">
                <path d="M0.274,0.012C0.422,0.012 0.509,-0.076 0.509,-0.182C0.509,-0.277 0.456,-0.326 0.377,-0.359L0.288,-0.396C0.234,-0.418 0.184,-0.437 0.184,-0.488C0.184,-0.536 0.225,-0.565 0.287,-0.565C0.337,-0.565 0.385,-0.544 0.427,-0.51L0.488,-0.586C0.438,-0.634 0.366,-0.666 0.287,-0.666C0.158,-0.666 0.067,-0.586 0.067,-0.482C0.067,-0.387 0.134,-0.335 0.199,-0.308L0.289,-0.269C0.348,-0.244 0.39,-0.227 0.39,-0.173C0.39,-0.122 0.35,-0.089 0.276,-0.089C0.213,-0.089 0.148,-0.115 0.101,-0.16L0.038,-0.084C0.1,-0.022 0.183,0.012 0.274,0.012Z" style="fill-rule:nonzero;"/>
            </g>
            <g transform="matrix(96,0,0,96,1089.78,575.195)">
                <path d="M0.073,-0L0.188,-0L0.188,-0.491L0.073,-0.491L0.073,-0ZM0.13,-0.577C0.171,-0.577 0.199,-0.603 0.199,-0.643C0.199,-0.682 0.171,-0.708 0.13,-0.708C0.089,-0.708 0.061,-0.682 0.061,-0.643C0.061,-0.603 0.089,-0.577 0.13,-0.577Z" style="fill-rule:nonzero;"/>
            </g>
            <g transform="matrix(96,0,0,96,1114.93,575.195)">
                <path d="M0.246,0.01C0.286,0.01 0.321,0.001 0.347,-0.01L0.326,-0.091C0.31,-0.084 0.292,-0.081 0.275,-0.081C0.228,-0.081 0.206,-0.11 0.206,-0.167L0.206,-0.4L0.331,-0.4L0.331,-0.491L0.206,-0.491L0.206,-0.645L0.11,-0.645L0.096,-0.491L0.02,-0.486L0.02,-0.4L0.09,-0.4L0.09,-0.167C0.09,-0.061 0.132,0.01 0.246,0.01Z" style="fill-rule:nonzero;"/>
            </g>
            <g transform="matrix(96,0,0,96,1149.59,575.195)">
                <path d="M0.034,-0L0.418,-0L0.418,-0.092L0.179,-0.092L0.41,-0.43L0.41,-0.491L0.06,-0.491L0.06,-0.4L0.266,-0.4L0.034,-0.062L0.034,-0Z" style="fill-rule:nonzero;"/>
            </g>
            <g transform="matrix(96,0,0,96,1192.11,575.195)">
                <path d="M0.311,0.012C0.42,0.012 0.521,-0.085 0.521,-0.254C0.521,-0.405 0.45,-0.503 0.327,-0.503C0.277,-0.503 0.226,-0.478 0.185,-0.442L0.188,-0.524L0.188,-0.706L0.073,-0.706L0.073,-0L0.164,-0L0.174,-0.052L0.177,-0.052C0.218,-0.011 0.266,0.012 0.311,0.012ZM0.287,-0.083C0.258,-0.083 0.223,-0.094 0.188,-0.124L0.188,-0.353C0.226,-0.39 0.26,-0.408 0.296,-0.408C0.37,-0.408 0.402,-0.35 0.402,-0.252C0.402,-0.141 0.352,-0.083 0.287,-0.083Z" style="fill-rule:nonzero;"/>
            </g>
            <g transform="matrix(96,0,0,96,1245.01,575.195)">
                <path d="M0.192,0.012C0.25,0.012 0.298,-0.016 0.344,-0.054L0.348,-0.054L0.356,-0L0.451,-0L0.451,-0.29C0.451,-0.428 0.39,-0.503 0.268,-0.503C0.19,-0.503 0.12,-0.474 0.066,-0.44L0.108,-0.362C0.152,-0.388 0.198,-0.408 0.246,-0.408C0.312,-0.408 0.334,-0.366 0.336,-0.316C0.134,-0.294 0.046,-0.242 0.046,-0.132C0.046,-0.046 0.106,0.012 0.192,0.012ZM0.228,-0.082C0.188,-0.082 0.158,-0.098 0.158,-0.14C0.158,-0.19 0.202,-0.22 0.336,-0.236L0.336,-0.132C0.3,-0.098 0.268,-0.082 0.228,-0.082Z" style="fill-rule:nonzero;"/>
            </g>
            <g transform="matrix(96,0,0,96,1294.55,575.195)">
                <path d="M0.073,-0L0.188,-0L0.188,-0.343C0.229,-0.383 0.257,-0.404 0.3,-0.404C0.354,-0.404 0.377,-0.374 0.377,-0.293L0.377,-0L0.492,-0L0.492,-0.308C0.492,-0.432 0.446,-0.503 0.341,-0.503C0.274,-0.503 0.224,-0.468 0.18,-0.425L0.176,-0.425L0.168,-0.491L0.073,-0.491L0.073,-0Z" style="fill-rule:nonzero;"/>
            </g>
            <g transform="matrix(96,0,0,96,1348.31,575.195)">
                <path d="M0.073,-0L0.187,-0L0.187,-0.126L0.263,-0.213L0.389,-0L0.514,-0L0.33,-0.29L0.497,-0.491L0.37,-0.491L0.19,-0.266L0.187,-0.266L0.187,-0.706L0.073,-0.706L0.073,-0Z" style="fill-rule:nonzero;"/>
            </g>
        </g>
    </g>
    <rect x="2436" y="47.25" width="472" height="175" style="fill:white;stroke:rgb(39,128,227);stroke-width:8.33px;"/>
    <g transform="matrix(1,0,0,1,1480.99,-417.45)">
        <g transform="matrix(96,0,0,96,1037.46,575.195)">
            <path d="M0.083,-0L0.188,-0L0.188,-0.298C0.188,-0.36 0.18,-0.458 0.172,-0.518L0.176,-0.518L0.226,-0.352L0.332,-0.06L0.41,-0.06L0.516,-0.352L0.568,-0.518L0.572,-0.518C0.564,-0.458 0.555,-0.36 0.555,-0.298L0.555,-0L0.662,-0L0.662,-0.654L0.524,-0.654L0.412,-0.334C0.398,-0.292 0.388,-0.254 0.376,-0.206L0.372,-0.206C0.36,-0.254 0.348,-0.292 0.334,-0.334L0.222,-0.654L0.083,-0.654L0.083,-0Z" style="fill-rule:nonzero;"/>
        </g>
        <g transform="matrix(96,0,0,96,1108.98,575.195)">
            <path d="M0.192,0.012C0.25,0.012 0.298,-0.016 0.344,-0.054L0.348,-0.054L0.356,-0L0.451,-0L0.451,-0.29C0.451,-0.428 0.39,-0.503 0.268,-0.503C0.19,-0.503 0.12,-0.474 0.066,-0.44L0.108,-0.362C0.152,-0.388 0.198,-0.408 0.246,-0.408C0.312,-0.408 0.334,-0.366 0.336,-0.316C0.134,-0.294 0.046,-0.242 0.046,-0.132C0.046,-0.046 0.106,0.012 0.192,0.012ZM0.228,-0.082C0.188,-0.082 0.158,-0.098 0.158,-0.14C0.158,-0.19 0.202,-0.22 0.336,-0.236L0.336,-0.132C0.3,-0.098 0.268,-0.082 0.228,-0.082Z" style="fill-rule:nonzero;"/>
        </g>
        <g transform="matrix(96,0,0,96,1156.98,575.195)">
            <path d="M0.246,0.01C0.286,0.01 0.321,0.001 0.347,-0.01L0.326,-0.091C0.31,-0.084 0.292,-0.081 0.275,-0.081C0.228,-0.081 0.206,-0.11 0.206,-0.167L0.206,-0.4L0.331,-0.4L0.331,-0.491L0.206,-0.491L0.206,-0.645L0.11,-0.645L0.096,-0.491L0.02,-0.486L0.02,-0.4L0.09,-0.4L0.09,-0.167C0.09,-0.061 0.132,0.01 0.246,0.01Z" style="fill-rule:nonzero;"/>
        </g>
        <g transform="matrix(96,0,0,96,1190.1,575.195)">
            <path d="M0.27,-0.412C0.336,-0.412 0.368,-0.368 0.368,-0.298L0.158,-0.298C0.172,-0.385 0.222,-0.412 0.27,-0.412ZM0.284,0.012C0.346,0.012 0.406,-0.008 0.452,-0.04L0.412,-0.114C0.378,-0.092 0.34,-0.08 0.298,-0.08C0.23,-0.08 0.169,-0.12 0.156,-0.21L0.464,-0.21C0.468,-0.228 0.47,-0.248 0.47,-0.27C0.47,-0.406 0.402,-0.503 0.268,-0.503C0.152,-0.503 0.04,-0.406 0.04,-0.246C0.04,-0.082 0.146,0.012 0.284,0.012Z" style="fill-rule:nonzero;"/>
        </g>
        <g transform="matrix(96,0,0,96,1238.77,575.195)">
            <path d="M0.073,-0L0.188,-0L0.188,-0.3C0.218,-0.374 0.265,-0.401 0.304,-0.401C0.325,-0.401 0.336,-0.399 0.352,-0.395L0.375,-0.493C0.36,-0.5 0.344,-0.503 0.319,-0.503C0.266,-0.503 0.214,-0.468 0.18,-0.404L0.176,-0.404L0.168,-0.491L0.073,-0.491L0.073,-0Z" style="fill-rule:nonzero;"/>
        </g>
        <g transform="matrix(96,0,0,96,1274.58,575.195)">
            <path d="M0.073,-0L0.188,-0L0.188,-0.491L0.073,-0.491L0.073,-0ZM0.13,-0.577C0.171,-0.577 0.199,-0.603 0.199,-0.643C0.199,-0.682 0.171,-0.708 0.13,-0.708C0.089,-0.708 0.061,-0.682 0.061,-0.643C0.061,-0.603 0.089,-0.577 0.13,-0.577Z" style="fill-rule:nonzero;"/>
        </g>
        <g transform="matrix(96,0,0,96,1299.73,575.195)">
            <path d="M0.192,0.012C0.25,0.012 0.298,-0.016 0.344,-0.054L0.348,-0.054L0.356,-0L0.451,-0L0.451,-0.29C0.451,-0.428 0.39,-0.503 0.268,-0.503C0.19,-0.503 0.12,-0.474 0.066,-0.44L0.108,-0.362C0.152,-0.388 0.198,-0.408 0.246,-0.408C0.312,-0.408 0.334,-0.366 0.336,-0.316C0.134,-0.294 0.046,-0.242 0.046,-0.132C0.046,-0.046 0.106,0.012 0.192,0.012ZM0.228,-0.082C0.188,-0.082 0.158,-0.098 0.158,-0.14C0.158,-0.19 0.202,-0.22 0.336,-0.236L0.336,-0.132C0.3,-0.098 0.268,-0.082 0.228,-0.082Z" style="fill-rule:nonzero;"/>
        </g>
        <g transform="matrix(96,0,0,96,1349.27,575.195)">
            <path d="M0.185,0.01C0.212,0.01 0.232,0.006 0.246,-0L0.231,-0.086C0.223,-0.084 0.219,-0.084 0.214,-0.084C0.201,-0.084 0.188,-0.093 0.188,-0.122L0.188,-0.706L0.073,-0.706L0.073,-0.128C0.073,-0.042 0.103,0.01 0.185,0.01Z" style="fill-rule:nonzero;"/>
        </g>
    </g>
    <g transform="matrix(1,0,0,1,854.605,-426.568)">
        <g transform="matrix(64,0,0,64,1037.46,575.195)">
            <path d="M0.311,0.012C0.42,0.012 0.521,-0.085 0.521,-0.254C0.521,-0.405 0.45,-0.503 0.327,-0.503C0.277,-0.503 0.226,-0.478 0.185,-0.442L0.188,-0.524L0.188,-0.706L0.073,-0.706L0.073,-0L0.164,-0L0.174,-0.052L0.177,-0.052C0.218,-0.011 0.266,0.012 0.311,0.012ZM0.287,-0.083C0.258,-0.083 0.223,-0.094 0.188,-0.124L0.188,-0.353C0.226,-0.39 0.26,-0.408 0.296,-0.408C0.37,-0.408 0.402,-0.35 0.402,-0.252C0.402,-0.141 0.352,-0.083 0.287,-0.083Z" style="fill-rule:nonzero;"/>
        </g>
        <g transform="matrix(64,0,0,64,1073.49,575.195)">
            <path d="M0.27,-0.412C0.336,-0.412 0.368,-0.368 0.368,-0.298L0.158,-0.298C0.172,-0.385 0.222,-0.412 0.27,-0.412ZM0.284,0.012C0.346,0.012 0.406,-0.008 0.452,-0.04L0.412,-0.114C0.378,-0.092 0.34,-0.08 0.298,-0.08C0.23,-0.08 0.169,-0.12 0.156,-0.21L0.464,-0.21C0.468,-0.228 0.47,-0.248 0.47,-0.27C0.47,-0.406 0.402,-0.503 0.268,-0.503C0.152,-0.503 0.04,-0.406 0.04,-0.246C0.04,-0.082 0.146,0.012 0.284,0.012Z" style="fill-rule:nonzero;"/>
        </g>
        <g transform="matrix(64,0,0,64,1105.94,575.195)">
            <path d="M0.21,0.012C0.334,0.012 0.401,-0.056 0.401,-0.14C0.401,-0.226 0.334,-0.264 0.258,-0.29C0.196,-0.311 0.16,-0.326 0.16,-0.362C0.16,-0.392 0.183,-0.416 0.233,-0.416C0.272,-0.416 0.308,-0.404 0.343,-0.379L0.394,-0.444C0.354,-0.478 0.297,-0.503 0.23,-0.503C0.12,-0.503 0.052,-0.442 0.052,-0.356C0.052,-0.278 0.118,-0.238 0.189,-0.212C0.243,-0.192 0.292,-0.175 0.292,-0.134C0.292,-0.1 0.267,-0.075 0.214,-0.075C0.163,-0.075 0.118,-0.09 0.075,-0.126L0.024,-0.06C0.072,-0.014 0.142,0.012 0.21,0.012Z" style="fill-rule:nonzero;"/>
        </g>
        <g transform="matrix(64,0,0,64,1132.24,575.195)">
            <path d="M0.246,0.01C0.286,0.01 0.321,0.001 0.347,-0.01L0.326,-0.091C0.31,-0.084 0.292,-0.081 0.275,-0.081C0.228,-0.081 0.206,-0.11 0.206,-0.167L0.206,-0.4L0.331,-0.4L0.331,-0.491L0.206,-0.491L0.206,-0.645L0.11,-0.645L0.096,-0.491L0.02,-0.486L0.02,-0.4L0.09,-0.4L0.09,-0.167C0.09,-0.061 0.132,0.01 0.246,0.01Z" style="fill-rule:nonzero;"/>
        </g>
        <g transform="matrix(64,0,0,64,1154.32,575.195)">
            <path d="M0.27,-0.412C0.336,-0.412 0.368,-0.368 0.368,-0.298L0.158,-0.298C0.172,-0.385 0.222,-0.412 0.27,-0.412ZM0.284,0.012C0.346,0.012 0.406,-0.008 0.452,-0.04L0.412,-0.114C0.378,-0.092 0.34,-0.08 0.298,-0.08C0.23,-0.08 0.169,-0.12 0.156,-0.21L0.464,-0.21C0.468,-0.228 0.47,-0.248 0.47,-0.27C0.47,-0.406 0.402,-0.503 0.268,-0.503C0.152,-0.503 0.04,-0.406 0.04,-0.246C0.04,-0.082 0.146,0.012 0.284,0.012Z" style="fill-rule:nonzero;"/>
        </g>
        <g transform="matrix(64,0,0,64,1186.77,575.195)">
            <path d="M0.073,-0L0.188,-0L0.188,-0.343C0.229,-0.383 0.257,-0.404 0.3,-0.404C0.354,-0.404 0.377,-0.374 0.377,-0.293L0.377,-0L0.492,-0L0.492,-0.308C0.492,-0.432 0.446,-0.503 0.341,-0.503C0.274,-0.503 0.225,-0.468 0.184,-0.429L0.188,-0.524L0.188,-0.706L0.073,-0.706L0.073,-0Z" style="fill-rule:nonzero;"/>
        </g>
        <g transform="matrix(64,0,0,64,1222.48,575.195)">
            <path d="M0.246,0.01C0.286,0.01 0.321,0.001 0.347,-0.01L0.326,-0.091C0.31,-0.084 0.292,-0.081 0.275,-0.081C0.228,-0.081 0.206,-0.11 0.206,-0.167L0.206,-0.4L0.331,-0.4L0.331,-0.491L0.206,-0.491L0.206,-0.645L0.11,-0.645L0.096,-0.491L0.02,-0.486L0.02,-0.4L0.09,-0.4L0.09,-0.167C0.09,-0.061 0.132,0.01 0.246,0.01Z" style="fill-rule:nonzero;"/>
        </g>
        <g transform="matrix(64,0,0,64,1258.39,575.195)">
            <path d="M0.192,0.012C0.25,0.012 0.298,-0.016 0.344,-0.054L0.348,-0.054L0.356,-0L0.451,-0L0.451,-0.29C0.451,-0.428 0.39,-0.503 0.268,-0.503C0.19,-0.503 0.12,-0.474 0.066,-0.44L0.108,-0.362C0.152,-0.388 0.198,-0.408 0.246,-0.408C0.312,-0.408 0.334,-0.366 0.336,-0.316C0.134,-0.294 0.046,-0.242 0.046,-0.132C0.046,-0.046 0.106,0.012 0.192,0.012ZM0.228,-0.082C0.188,-0.082 0.158,-0.098 0.158,-0.14C0.158,-0.19 0.202,-0.22 0.336,-0.236L0.336,-0.132C0.3,-0.098 0.268,-0.082 0.228,-0.082Z" style="fill-rule:nonzero;"/>
        </g>
        <g transform="matrix(64,0,0,64,1291.41,575.195)">
            <path d="M0.219,0.012C0.286,0.012 0.334,-0.021 0.377,-0.072L0.38,-0.072L0.389,-0L0.483,-0L0.483,-0.491L0.368,-0.491L0.368,-0.155C0.331,-0.107 0.302,-0.087 0.259,-0.087C0.206,-0.087 0.183,-0.117 0.183,-0.198L0.183,-0.491L0.068,-0.491L0.068,-0.183C0.068,-0.059 0.114,0.012 0.219,0.012Z" style="fill-rule:nonzero;"/>
        </g>
        <g transform="matrix(64,0,0,64,1326.99,575.195)">
            <path d="M0.21,0.012C0.334,0.012 0.401,-0.056 0.401,-0.14C0.401,-0.226 0.334,-0.264 0.258,-0.29C0.196,-0.311 0.16,-0.326 0.16,-0.362C0.16,-0.392 0.183,-0.416 0.233,-0.416C0.272,-0.416 0.308,-0.404 0.343,-0.379L0.394,-0.444C0.354,-0.478 0.297,-0.503 0.23,-0.503C0.12,-0.503 0.052,-0.442 0.052,-0.356C0.052,-0.278 0.118,-0.238 0.189,-0.212C0.243,-0.192 0.292,-0.175 0.292,-0.134C0.292,-0.1 0.267,-0.075 0.214,-0.075C0.163,-0.075 0.118,-0.09 0.075,-0.126L0.024,-0.06C0.072,-0.014 0.142,0.012 0.21,0.012Z" style="fill-rule:nonzero;"/>
        </g>
    </g>
    <g transform="matrix(1,0,0,1,1307.48,376.417)">
        <g transform="matrix(58.333,0,0,58.333,0,0)">
            <path d="M0.203,-0.367C0.227,-0.44 0.248,-0.512 0.268,-0.588L0.272,-0.588C0.293,-0.512 0.314,-0.44 0.338,-0.367L0.369,-0.267L0.172,-0.267L0.203,-0.367ZM0.003,-0L0.088,-0L0.151,-0.2L0.39,-0.2L0.452,-0L0.541,-0L0.319,-0.656L0.225,-0.656L0.003,-0Z" style="fill:rgb(35,31,32);fill-rule:nonzero;"/>
        </g>
        <g transform="matrix(58.333,0,0,58.333,31.7332,0)">
            <path d="M0.169,0.009C0.189,0.009 0.205,0.006 0.216,0.001L0.205,-0.061C0.197,-0.059 0.193,-0.059 0.188,-0.059C0.175,-0.059 0.164,-0.068 0.164,-0.094L0.164,-0.712L0.082,-0.712L0.082,-0.1C0.082,-0.03 0.107,0.009 0.169,0.009Z" style="fill:rgb(35,31,32);fill-rule:nonzero;"/>
        </g>
        <g transform="matrix(58.333,0,0,58.333,46.6081,0)">
            <path d="M0.235,0.009C0.268,0.009 0.3,0.001 0.326,-0.012L0.309,-0.07C0.29,-0.061 0.271,-0.058 0.254,-0.058C0.198,-0.058 0.179,-0.092 0.179,-0.151L0.179,-0.419L0.31,-0.419L0.31,-0.486L0.179,-0.486L0.179,-0.642L0.11,-0.642L0.1,-0.486L0.024,-0.481L0.024,-0.419L0.096,-0.419L0.096,-0.153C0.096,-0.056 0.131,0.009 0.235,0.009Z" style="fill:rgb(35,31,32);fill-rule:nonzero;"/>
        </g>
        <g transform="matrix(58.333,0,0,58.333,65.508,0)">
            <path d="M0.266,-0.431C0.341,-0.431 0.384,-0.38 0.384,-0.286L0.131,-0.286C0.144,-0.39 0.206,-0.431 0.266,-0.431ZM0.279,0.012C0.345,0.012 0.397,-0.009 0.44,-0.038L0.41,-0.092C0.376,-0.069 0.335,-0.055 0.289,-0.055C0.207,-0.055 0.137,-0.112 0.129,-0.221L0.454,-0.221C0.457,-0.237 0.458,-0.253 0.458,-0.27C0.458,-0.408 0.39,-0.498 0.265,-0.498C0.153,-0.498 0.045,-0.401 0.045,-0.243C0.045,-0.082 0.148,0.012 0.279,0.012Z" style="fill:rgb(35,31,32);fill-rule:nonzero;"/>
        </g>
        <g transform="matrix(58.333,0,0,58.333,94.4411,0)">
            <path d="M0.082,-0L0.164,-0L0.164,-0.312C0.197,-0.394 0.246,-0.424 0.287,-0.424C0.307,-0.424 0.317,-0.422 0.332,-0.418L0.35,-0.488C0.334,-0.495 0.319,-0.498 0.298,-0.498C0.242,-0.498 0.192,-0.459 0.16,-0.398L0.157,-0.398L0.15,-0.486L0.082,-0.486L0.082,-0Z" style="fill:rgb(35,31,32);fill-rule:nonzero;"/>
        </g>
    </g>
    <g transform="matrix(1,0,0,1,2729.35,523.583)">
        <g transform="matrix(58.333,0,0,58.333,0,0)">
            <path d="M0.09,-0L0.173,-0L0.173,-0.26L0.281,-0.26C0.425,-0.26 0.523,-0.325 0.523,-0.463C0.523,-0.607 0.424,-0.656 0.277,-0.656L0.09,-0.656L0.09,-0ZM0.173,-0.328L0.173,-0.589L0.267,-0.589C0.382,-0.589 0.44,-0.558 0.44,-0.463C0.44,-0.37 0.385,-0.328 0.271,-0.328L0.173,-0.328Z" style="fill:rgb(35,31,32);fill-rule:nonzero;"/>
        </g>
        <g transform="matrix(58.333,0,0,58.333,33.0165,0)">
            <path d="M0.096,-0L0.178,-0L0.178,-0.419L0.281,-0.419L0.281,-0.486L0.178,-0.486L0.178,-0.563C0.178,-0.625 0.2,-0.657 0.246,-0.657C0.264,-0.657 0.281,-0.654 0.301,-0.648L0.319,-0.708C0.298,-0.717 0.268,-0.724 0.238,-0.724C0.141,-0.724 0.096,-0.662 0.096,-0.563L0.096,-0.486L0.024,-0.481L0.024,-0.419L0.096,-0.419L0.096,-0Z" style="fill:rgb(35,31,32);fill-rule:nonzero;"/>
        </g>
        <g transform="matrix(58.333,0,0,58.333,50.0497,0)">
            <path d="M0.169,0.009C0.189,0.009 0.205,0.006 0.216,0.001L0.205,-0.061C0.197,-0.059 0.193,-0.059 0.188,-0.059C0.175,-0.059 0.164,-0.068 0.164,-0.094L0.164,-0.712L0.082,-0.712L0.082,-0.1C0.082,-0.03 0.107,0.009 0.169,0.009Z" style="fill:rgb(35,31,32);fill-rule:nonzero;"/>
        </g>
        <g transform="matrix(58.333,0,0,58.333,64.9246,0)">
            <path d="M0.266,-0.431C0.341,-0.431 0.384,-0.38 0.384,-0.286L0.131,-0.286C0.144,-0.39 0.206,-0.431 0.266,-0.431ZM0.279,0.012C0.345,0.012 0.397,-0.009 0.44,-0.038L0.41,-0.092C0.376,-0.069 0.335,-0.055 0.289,-0.055C0.207,-0.055 0.137,-0.112 0.129,-0.221L0.454,-0.221C0.457,-0.237 0.458,-0.253 0.458,-0.27C0.458,-0.408 0.39,-0.498 0.265,-0.498C0.153,-0.498 0.045,-0.401 0.045,-0.243C0.045,-0.082 0.148,0.012 0.279,0.012Z" style="fill:rgb(35,31,32);fill-rule:nonzero;"/>
        </g>
        <g transform="matrix(58.333,0,0,58.333,93.2745,0)">
            <path d="M0.246,0.224C0.397,0.224 0.492,0.146 0.492,0.056C0.492,-0.025 0.435,-0.06 0.322,-0.06L0.228,-0.06C0.162,-0.06 0.142,-0.082 0.142,-0.113C0.142,-0.14 0.156,-0.156 0.173,-0.171C0.195,-0.16 0.222,-0.154 0.246,-0.154C0.345,-0.154 0.424,-0.219 0.424,-0.322C0.424,-0.366 0.406,-0.398 0.383,-0.419L0.383,-0.423L0.484,-0.423L0.484,-0.486L0.315,-0.486C0.297,-0.493 0.273,-0.498 0.246,-0.498C0.147,-0.498 0.063,-0.431 0.063,-0.325C0.063,-0.267 0.094,-0.22 0.126,-0.194L0.126,-0.19C0.101,-0.173 0.073,-0.141 0.073,-0.1C0.073,-0.062 0.092,-0.036 0.116,-0.021L0.116,-0.017C0.072,0.013 0.045,0.052 0.045,0.093C0.045,0.177 0.127,0.224 0.246,0.224ZM0.246,-0.209C0.19,-0.209 0.143,-0.254 0.143,-0.325C0.143,-0.396 0.189,-0.438 0.246,-0.438C0.303,-0.438 0.349,-0.396 0.349,-0.325C0.349,-0.254 0.302,-0.209 0.246,-0.209ZM0.258,0.167C0.17,0.167 0.117,0.134 0.117,0.082C0.117,0.054 0.132,0.025 0.167,-0C0.188,0.006 0.211,0.008 0.23,0.008L0.314,0.008C0.377,0.008 0.412,0.023 0.412,0.068C0.412,0.119 0.351,0.167 0.258,0.167Z" style="fill:rgb(35,31,32);fill-rule:nonzero;"/>
        </g>
        <g transform="matrix(58.333,0,0,58.333,121.858,0)">
            <path d="M0.266,-0.431C0.341,-0.431 0.384,-0.38 0.384,-0.286L0.131,-0.286C0.144,-0.39 0.206,-0.431 0.266,-0.431ZM0.279,0.012C0.345,0.012 0.397,-0.009 0.44,-0.038L0.41,-0.092C0.376,-0.069 0.335,-0.055 0.289,-0.055C0.207,-0.055 0.137,-0.112 0.129,-0.221L0.454,-0.221C0.457,-0.237 0.458,-0.253 0.458,-0.27C0.458,-0.408 0.39,-0.498 0.265,-0.498C0.153,-0.498 0.045,-0.401 0.045,-0.243C0.045,-0.082 0.148,0.012 0.279,0.012Z" style="fill:rgb(35,31,32);fill-rule:nonzero;"/>
        </g>
    </g>
    <g transform="matrix(1,0,0,1,2403.32,374.871)">
        <g transform="matrix(58.333,0,0,58.333,0,0)">
            <path d="M0.203,-0.367C0.227,-0.44 0.248,-0.512 0.268,-0.588L0.272,-0.588C0.293,-0.512 0.314,-0.44 0.338,-0.367L0.369,-0.267L0.172,-0.267L0.203,-0.367ZM0.003,-0L0.088,-0L0.151,-0.2L0.39,-0.2L0.452,-0L0.541,-0L0.319,-0.656L0.225,-0.656L0.003,-0Z" style="fill:rgb(35,31,32);fill-rule:nonzero;"/>
        </g>
        <g transform="matrix(58.333,0,0,58.333,31.7332,0)">
            <path d="M0.082,-0L0.164,-0L0.164,-0.312C0.197,-0.394 0.246,-0.424 0.287,-0.424C0.307,-0.424 0.317,-0.422 0.332,-0.418L0.35,-0.488C0.334,-0.495 0.319,-0.498 0.298,-0.498C0.242,-0.498 0.192,-0.459 0.16,-0.398L0.157,-0.398L0.15,-0.486L0.082,-0.486L0.082,-0Z" style="fill:rgb(35,31,32);fill-rule:nonzero;"/>
        </g>
        <g transform="matrix(58.333,0,0,58.333,51.9747,0)">
            <path d="M0.235,0.009C0.268,0.009 0.3,0.001 0.326,-0.012L0.309,-0.07C0.29,-0.061 0.271,-0.058 0.254,-0.058C0.198,-0.058 0.179,-0.092 0.179,-0.151L0.179,-0.419L0.31,-0.419L0.31,-0.486L0.179,-0.486L0.179,-0.642L0.11,-0.642L0.1,-0.486L0.024,-0.481L0.024,-0.419L0.096,-0.419L0.096,-0.153C0.096,-0.056 0.131,0.009 0.235,0.009Z" style="fill:rgb(35,31,32);fill-rule:nonzero;"/>
        </g>
    </g>
    <g transform="matrix(1,0,0,1,1545.35,597.173)">
        <g transform="matrix(48,0,0,48,0,7.10543e-15)">
            <path d="M0.159,-0L0.266,-0L0.362,-0.394C0.373,-0.444 0.383,-0.491 0.391,-0.548L0.395,-0.548C0.405,-0.491 0.414,-0.444 0.425,-0.394L0.519,-0L0.626,-0L0.763,-0.656L0.678,-0.656L0.609,-0.299C0.596,-0.229 0.585,-0.159 0.574,-0.084L0.57,-0.084C0.555,-0.159 0.539,-0.23 0.523,-0.299L0.437,-0.656L0.353,-0.656L0.264,-0.299C0.248,-0.229 0.233,-0.159 0.219,-0.084L0.215,-0.084C0.204,-0.159 0.192,-0.228 0.179,-0.299L0.112,-0.656L0.023,-0.656L0.159,-0Z" style="fill:rgb(35,31,32);fill-rule:nonzero;"/>
        </g>
        <g transform="matrix(48,0,0,48,36.96,7.10543e-15)">
            <path d="M0.194,0.012C0.255,0.012 0.307,-0.019 0.355,-0.058L0.358,-0.058L0.365,-0L0.433,-0L0.433,-0.298C0.433,-0.419 0.382,-0.498 0.264,-0.498C0.186,-0.498 0.118,-0.465 0.073,-0.435L0.105,-0.379C0.143,-0.403 0.194,-0.429 0.25,-0.429C0.329,-0.429 0.35,-0.37 0.351,-0.309C0.143,-0.286 0.051,-0.235 0.051,-0.126C0.051,-0.038 0.113,0.012 0.194,0.012ZM0.217,-0.056C0.17,-0.056 0.132,-0.077 0.132,-0.131C0.132,-0.194 0.187,-0.231 0.351,-0.25L0.351,-0.119C0.304,-0.077 0.264,-0.056 0.217,-0.056Z" style="fill:rgb(35,31,32);fill-rule:nonzero;"/>
        </g>
        <g transform="matrix(48,0,0,48,61.152,7.10543e-15)">
            <path d="M0.082,-0L0.164,-0L0.164,-0.312C0.197,-0.394 0.246,-0.424 0.287,-0.424C0.307,-0.424 0.317,-0.422 0.332,-0.418L0.35,-0.488C0.334,-0.495 0.319,-0.498 0.298,-0.498C0.242,-0.498 0.192,-0.459 0.16,-0.398L0.157,-0.398L0.15,-0.486L0.082,-0.486L0.082,-0Z" style="fill:rgb(35,31,32);fill-rule:nonzero;"/>
        </g>
        <g transform="matrix(48,0,0,48,77.808,7.10543e-15)">
            <path d="M0.235,0.009C0.268,0.009 0.3,0.001 0.326,-0.012L0.309,-0.07C0.29,-0.061 0.271,-0.058 0.254,-0.058C0.198,-0.058 0.179,-0.092 0.179,-0.151L0.179,-0.419L0.31,-0.419L0.31,-0.486L0.179,-0.486L0.179,-0.642L0.11,-0.642L0.1,-0.486L0.024,-0.481L0.024,-0.419L0.096,-0.419L0.096,-0.153C0.096,-0.056 0.131,0.009 0.235,0.009Z" style="fill:rgb(35,31,32);fill-rule:nonzero;"/>
        </g>
        <g transform="matrix(48,0,0,48,94.032,7.10543e-15)">
            <path d="M0.224,0.012C0.291,0.012 0.339,-0.023 0.384,-0.076L0.387,-0.076L0.394,-0L0.462,-0L0.462,-0.486L0.38,-0.486L0.38,-0.141C0.334,-0.084 0.299,-0.059 0.249,-0.059C0.185,-0.059 0.158,-0.098 0.158,-0.189L0.158,-0.486L0.075,-0.486L0.075,-0.178C0.075,-0.054 0.121,0.012 0.224,0.012Z" style="fill:rgb(35,31,32);fill-rule:nonzero;"/>
        </g>
        <g transform="matrix(48,0,0,48,120.144,7.10543e-15)">
            <path d="M0.082,-0L0.164,-0L0.164,-0.352C0.213,-0.401 0.247,-0.427 0.297,-0.427C0.361,-0.427 0.389,-0.388 0.389,-0.297L0.389,-0L0.471,-0L0.471,-0.308C0.471,-0.432 0.425,-0.498 0.323,-0.498C0.256,-0.498 0.206,-0.462 0.16,-0.416L0.157,-0.416L0.15,-0.486L0.082,-0.486L0.082,-0Z" style="fill:rgb(35,31,32);fill-rule:nonzero;"/>
        </g>
        <g transform="matrix(48,0,0,48,146.4,7.10543e-15)">
            <path d="M0.246,0.224C0.397,0.224 0.492,0.146 0.492,0.056C0.492,-0.025 0.435,-0.06 0.322,-0.06L0.228,-0.06C0.162,-0.06 0.142,-0.082 0.142,-0.113C0.142,-0.14 0.156,-0.156 0.173,-0.171C0.195,-0.16 0.222,-0.154 0.246,-0.154C0.345,-0.154 0.424,-0.219 0.424,-0.322C0.424,-0.366 0.406,-0.398 0.383,-0.419L0.383,-0.423L0.484,-0.423L0.484,-0.486L0.315,-0.486C0.297,-0.493 0.273,-0.498 0.246,-0.498C0.147,-0.498 0.063,-0.431 0.063,-0.325C0.063,-0.267 0.094,-0.22 0.126,-0.194L0.126,-0.19C0.101,-0.173 0.073,-0.141 0.073,-0.1C0.073,-0.062 0.092,-0.036 0.116,-0.021L0.116,-0.017C0.072,0.013 0.045,0.052 0.045,0.093C0.045,0.177 0.127,0.224 0.246,0.224ZM0.246,-0.209C0.19,-0.209 0.143,-0.254 0.143,-0.325C0.143,-0.396 0.189,-0.438 0.246,-0.438C0.303,-0.438 0.349,-0.396 0.349,-0.325C0.349,-0.254 0.302,-0.209 0.246,-0.209ZM0.258,0.167C0.17,0.167 0.117,0.134 0.117,0.082C0.117,0.054 0.132,0.025 0.167,-0C0.188,0.006 0.211,0.008 0.23,0.008L0.314,0.008C0.377,0.008 0.412,0.023 0.412,0.068C0.412,0.119 0.351,0.167 0.258,0.167Z" style="fill:rgb(35,31,32);fill-rule:nonzero;"/>
        </g>
        <g transform="matrix(48,0,0,48,170.592,7.10543e-15)">
            <path d="M0.209,0.012C0.324,0.012 0.387,-0.054 0.387,-0.133C0.387,-0.221 0.313,-0.254 0.237,-0.281C0.177,-0.302 0.134,-0.32 0.134,-0.364C0.134,-0.401 0.162,-0.434 0.223,-0.434C0.267,-0.434 0.302,-0.42 0.336,-0.396L0.374,-0.443C0.336,-0.475 0.283,-0.498 0.223,-0.498C0.117,-0.498 0.055,-0.438 0.055,-0.36C0.055,-0.28 0.125,-0.245 0.198,-0.219C0.253,-0.199 0.308,-0.178 0.308,-0.128C0.308,-0.086 0.276,-0.052 0.212,-0.052C0.152,-0.052 0.108,-0.071 0.066,-0.106L0.028,-0.058C0.073,-0.014 0.138,0.012 0.209,0.012Z" style="fill:rgb(35,31,32);fill-rule:nonzero;"/>
        </g>
        <g transform="matrix(48,0,0,48,190.704,7.10543e-15)">
            <path d="M0.248,0.012C0.305,0.012 0.357,-0.02 0.395,-0.057L0.398,-0.057L0.405,-0L0.473,-0L0.473,-0.712L0.39,-0.712L0.39,-0.525L0.394,-0.442C0.351,-0.477 0.314,-0.498 0.258,-0.498C0.147,-0.498 0.047,-0.4 0.047,-0.242C0.047,-0.08 0.126,0.012 0.248,0.012ZM0.266,-0.057C0.181,-0.057 0.132,-0.127 0.132,-0.243C0.132,-0.354 0.194,-0.429 0.272,-0.429C0.312,-0.429 0.349,-0.415 0.39,-0.378L0.39,-0.124C0.35,-0.079 0.311,-0.057 0.266,-0.057Z" style="fill:rgb(35,31,32);fill-rule:nonzero;"/>
        </g>
        <g transform="matrix(48,0,0,48,217.344,7.10543e-15)">
            <path d="M0.194,0.012C0.255,0.012 0.307,-0.019 0.355,-0.058L0.358,-0.058L0.365,-0L0.433,-0L0.433,-0.298C0.433,-0.419 0.382,-0.498 0.264,-0.498C0.186,-0.498 0.118,-0.465 0.073,-0.435L0.105,-0.379C0.143,-0.403 0.194,-0.429 0.25,-0.429C0.329,-0.429 0.35,-0.37 0.351,-0.309C0.143,-0.286 0.051,-0.235 0.051,-0.126C0.051,-0.038 0.113,0.012 0.194,0.012ZM0.217,-0.056C0.17,-0.056 0.132,-0.077 0.132,-0.131C0.132,-0.194 0.187,-0.231 0.351,-0.25L0.351,-0.119C0.304,-0.077 0.264,-0.056 0.217,-0.056Z" style="fill:rgb(35,31,32);fill-rule:nonzero;"/>
        </g>
        <g transform="matrix(48,0,0,48,240.864,7.10543e-15)">
            <path d="M0.235,0.009C0.268,0.009 0.3,0.001 0.326,-0.012L0.309,-0.07C0.29,-0.061 0.271,-0.058 0.254,-0.058C0.198,-0.058 0.179,-0.092 0.179,-0.151L0.179,-0.419L0.31,-0.419L0.31,-0.486L0.179,-0.486L0.179,-0.642L0.11,-0.642L0.1,-0.486L0.024,-0.481L0.024,-0.419L0.096,-0.419L0.096,-0.153C0.096,-0.056 0.131,0.009 0.235,0.009Z" style="fill:rgb(35,31,32);fill-rule:nonzero;"/>
        </g>
        <g transform="matrix(48,0,0,48,257.088,7.10543e-15)">
            <path d="M0.224,0.012C0.291,0.012 0.339,-0.023 0.384,-0.076L0.387,-0.076L0.394,-0L0.462,-0L0.462,-0.486L0.38,-0.486L0.38,-0.141C0.334,-0.084 0.299,-0.059 0.249,-0.059C0.185,-0.059 0.158,-0.098 0.158,-0.189L0.158,-0.486L0.075,-0.486L0.075,-0.178C0.075,-0.054 0.121,0.012 0.224,0.012Z" style="fill:rgb(35,31,32);fill-rule:nonzero;"/>
        </g>
        <g transform="matrix(48,0,0,48,283.2,7.10543e-15)">
            <path d="M0.082,-0L0.164,-0L0.164,-0.352C0.209,-0.402 0.25,-0.427 0.286,-0.427C0.348,-0.427 0.377,-0.388 0.377,-0.297L0.377,-0L0.459,-0L0.459,-0.352C0.504,-0.402 0.543,-0.427 0.581,-0.427C0.642,-0.427 0.671,-0.388 0.671,-0.297L0.671,-0L0.753,-0L0.753,-0.308C0.753,-0.432 0.705,-0.498 0.605,-0.498C0.546,-0.498 0.496,-0.46 0.445,-0.405C0.425,-0.463 0.385,-0.498 0.311,-0.498C0.253,-0.498 0.202,-0.462 0.16,-0.416L0.157,-0.416L0.15,-0.486L0.082,-0.486L0.082,-0Z" style="fill:rgb(35,31,32);fill-rule:nonzero;"/>
        </g>
    </g>
    <g transform="matrix(1,0,0,1,1786.37,383.6)">
        <g transform="matrix(58.333,0,0,58.333,0,0)">
            <path d="M0.09,-0L0.173,-0L0.173,-0.26L0.281,-0.26C0.425,-0.26 0.523,-0.325 0.523,-0.463C0.523,-0.607 0.424,-0.656 0.277,-0.656L0.09,-0.656L0.09,-0ZM0.173,-0.328L0.173,-0.589L0.267,-0.589C0.382,-0.589 0.44,-0.558 0.44,-0.463C0.44,-0.37 0.385,-0.328 0.271,-0.328L0.173,-0.328Z" style="fill:rgb(35,31,32);fill-rule:nonzero;"/>
        </g>
        <g transform="matrix(58.333,0,0,58.333,30.5082,0)">
            <path d="M0.194,0.012C0.255,0.012 0.307,-0.019 0.355,-0.058L0.358,-0.058L0.365,-0L0.433,-0L0.433,-0.298C0.433,-0.419 0.382,-0.498 0.264,-0.498C0.186,-0.498 0.118,-0.465 0.073,-0.435L0.105,-0.379C0.143,-0.403 0.194,-0.429 0.25,-0.429C0.329,-0.429 0.35,-0.37 0.351,-0.309C0.143,-0.286 0.051,-0.235 0.051,-0.126C0.051,-0.038 0.113,0.012 0.194,0.012ZM0.217,-0.056C0.17,-0.056 0.132,-0.077 0.132,-0.131C0.132,-0.194 0.187,-0.231 0.351,-0.25L0.351,-0.119C0.304,-0.077 0.264,-0.056 0.217,-0.056Z" style="fill:rgb(35,31,32);fill-rule:nonzero;"/>
        </g>
        <g transform="matrix(58.333,0,0,58.333,59.0913,0)">
            <path d="M0.235,0.009C0.268,0.009 0.3,0.001 0.326,-0.012L0.309,-0.07C0.29,-0.061 0.271,-0.058 0.254,-0.058C0.198,-0.058 0.179,-0.092 0.179,-0.151L0.179,-0.419L0.31,-0.419L0.31,-0.486L0.179,-0.486L0.179,-0.642L0.11,-0.642L0.1,-0.486L0.024,-0.481L0.024,-0.419L0.096,-0.419L0.096,-0.153C0.096,-0.056 0.131,0.009 0.235,0.009Z" style="fill:rgb(35,31,32);fill-rule:nonzero;"/>
        </g>
        <g transform="matrix(58.333,0,0,58.333,78.8079,0)">
            <path d="M0.138,-0.42L0.209,-0.506L0.28,-0.42L0.319,-0.449L0.263,-0.543L0.36,-0.583L0.345,-0.629L0.242,-0.605L0.233,-0.712L0.184,-0.712L0.175,-0.604L0.073,-0.629L0.058,-0.583L0.155,-0.543L0.098,-0.449L0.138,-0.42Z" style="fill:rgb(35,31,32);fill-rule:nonzero;"/>
        </g>
        <g transform="matrix(58.333,0,0,58.333,103.191,0)">
            <path d="M0.082,-0L0.164,-0L0.164,-0.486L0.082,-0.486L0.082,-0ZM0.123,-0.586C0.155,-0.586 0.178,-0.607 0.178,-0.64C0.178,-0.672 0.155,-0.694 0.123,-0.694C0.091,-0.694 0.068,-0.672 0.068,-0.64C0.068,-0.607 0.091,-0.586 0.123,-0.586Z" style="fill:rgb(35,31,32);fill-rule:nonzero;"/>
        </g>
        <g transform="matrix(58.333,0,0,58.333,117.541,0)">
            <path d="M0.082,-0L0.164,-0L0.164,-0.352C0.213,-0.401 0.247,-0.427 0.297,-0.427C0.361,-0.427 0.389,-0.388 0.389,-0.297L0.389,-0L0.471,-0L0.471,-0.308C0.471,-0.432 0.425,-0.498 0.323,-0.498C0.256,-0.498 0.206,-0.462 0.16,-0.416L0.157,-0.416L0.15,-0.486L0.082,-0.486L0.082,-0Z" style="fill:rgb(35,31,32);fill-rule:nonzero;"/>
        </g>
    </g>
</svg>
