<?xml version="1.0" encoding="UTF-8" standalone="no"?><!DOCTYPE svg PUBLIC "-//W3C//DTD SVG 1.1//EN" "http://www.w3.org/Graphics/SVG/1.1/DTD/svg11.dtd"><svg width="100%" height="100%" viewBox="0 0 3048 805" version="1.1" xmlns="http://www.w3.org/2000/svg" xmlns:xlink="http://www.w3.org/1999/xlink" xml:space="preserve" xmlns:serif="http://www.serif.com/" style="fill-rule:evenodd;clip-rule:evenodd;stroke-linecap:round;stroke-linejoin:round;stroke-miterlimit:1.5;"><rect x="112" y="45.75" width="375" height="175" style="fill:#fff;stroke:#2780e3;stroke-width:8.33px;"/><rect x="1227" y="45.75" width="472" height="175" style="fill:#fff;stroke:#2780e3;stroke-width:8.33px;"/><path d="M488.375,134.606l0,0.894l-1.375,-1.375l1.375,-1.375l0,0.894l155.438,-0l-0,-0.894l1.375,1.375l-1.375,1.375l-0,-0.894l-155.438,0Z" style="fill:#fff;stroke:#2780e3;stroke-width:8.33px;"/><path d="M273.561,280l4.665,-0.335l-4.287,-59.668l-4.665,0.336l4.287,59.667Z" style="fill:#2780e3;"/><path d="M403.56,432.781l4.542,-1.442l-66.86,-210.608l-4.542,1.442l66.86,210.608Z" style="fill:#2780e3;"/><path d="M608.784,584.461l4.166,-2.313l-200.682,-361.506l-4.166,2.313l200.682,361.506Z" style="fill:#2780e3;"/><path d="M1066.81,133.856l-0.001,0.894l-1.375,-1.375l1.375,-1.375l0,0.894l155.438,-0l-0,-0.894l1.375,1.375l-1.375,1.375l-0,-0.894l-155.438,0Z" style="fill:#fff;stroke:#2780e3;stroke-width:8.33px;"/><path d="M840,25.75l244.813,107.5l-244.813,107.5l-244.813,-107.5l244.813,-107.5Z" style="fill:#fff;stroke:#2780e3;stroke-width:8.33px;"/><ellipse cx="238" cy="355" rx="201" ry="75" style="fill:#fff;stroke:#2780e3;stroke-width:4.17px;"/><ellipse cx="474.75" cy="505" rx="201" ry="75" style="fill:#fff;stroke:#2780e3;stroke-width:4.17px;"/><ellipse cx="675.75" cy="655" rx="201" ry="75" style="fill:#fff;stroke:#2780e3;stroke-width:4.17px;"/><text x="523.179px" y="675.417px" style="font-family:'SourceSansPro-Regular', 'Source Sans Pro', sans-serif;font-size:58.333px;fill:#231f20;">K<tspan x="556.312px " y="675.417px ">o</tspan>or<tspan x="639.204px " y="675.417px ">d</tspan>inat<tspan x="766.837px " y="675.417px ">e</tspan>n</text><text x="224.5px" y="165.967px" style="font-family:'SourceSansPro-Regular', 'Source Sans Pro', sans-serif;font-size:100px;fill:#231f20;">Ort</text><text x="164.267px" y="373.783px" style="font-family:'SourceSansPro-Regular', 'Source Sans Pro', sans-serif;font-size:58.333px;fill:#231f20;">Name</text><text x="380.775px" y="525.417px" style="font-family:'SourceSansPro-Regular', 'Source Sans Pro', sans-serif;font-size:58.333px;fill:#231f20;">Adr<tspan x="464.192px " y="525.417px ">e</tspan>sse</text><path d="M1400.56,281l4.665,-0.335l-4.287,-59.668l-4.665,0.336l4.287,59.667Z" style="fill:#2780e3;"/><path d="M1683.14,317.202l3.783,-2.751l-68.878,-94.72l-3.782,2.751l68.877,94.72Z" style="fill:#2780e3;"/><path d="M1530.56,433.781l4.542,-1.442l-66.86,-210.608l-4.542,1.442l66.86,210.608Z" style="fill:#2780e3;"/><path d="M1735.78,585.461l4.166,-2.313l-200.682,-361.506l-4.166,2.313l200.682,361.506Z" style="fill:#2780e3;"/><ellipse cx="1365" cy="356" rx="201" ry="75" style="fill:#fff;stroke:#2780e3;stroke-width:4.17px;"/><ellipse cx="1601.75" cy="506" rx="201" ry="75" style="fill:#fff;stroke:#2780e3;stroke-width:4.17px;"/><ellipse cx="1802.75" cy="656" rx="201" ry="75" style="fill:#fff;stroke:#2780e3;stroke-width:4.17px;"/><text x="1626.46px" y="670.05px" style="font-family:'SourceSansPro-Regular', 'Source Sans Pro', sans-serif;font-size:58.333px;fill:#231f20;">le<tspan x="1669.45px " y="670.05px ">t</tspan>zt<tspan x="1733.1px " y="670.05px ">e</tspan> W<tspan x="1818.44px " y="670.05px ">a</tspan>rt<tspan x="1887.91px " y="670.05px ">u</tspan>ng</text><ellipse cx="1843.89" cy="363.183" rx="201" ry="75" style="fill:#fff;stroke:#2780e3;stroke-width:4.17px;"/><text x="1787.1px" y="379.967px" style="font-family:'SourceSansPro-Regular', 'Source Sans Pro', sans-serif;font-size:58.333px;fill:#231f20;">P<tspan x="1817.9px 1847.77px 1866.9px " y="379.967px 379.967px 379.967px ">ate</tspan></text><text x="1278.87px" y="365.417px" style="font-family:'SourceSansPro-Regular', 'Source Sans Pro', sans-serif;font-size:58.333px;fill:#231f20;">g<tspan x="1307.45px 1336.39px 1367.95px " y="365.417px 365.417px 365.417px ">eba</tspan>ut</text><text x="1479.89px" y="520.233px" style="font-family:'SourceSansPro-Regular', 'Source Sans Pro', sans-serif;font-size:58.333px;fill:#231f20;">auf<tspan x="1557.71px 1586.29px " y="520.233px 520.233px ">ge</tspan>st<tspan x="1658.8px " y="520.233px ">e</tspan>llt</text><path d="M2604.81,284l4.665,-0.335l-4.287,-59.668l-4.665,0.336l4.287,59.667Z" style="fill:#2780e3;"/><path d="M2734.81,436.781l4.542,-1.442l-66.86,-210.608l-4.542,1.442l66.86,210.608Z" style="fill:#2780e3;"/><ellipse cx="2569.25" cy="359" rx="201" ry="75" style="fill:#fff;stroke:#2780e3;stroke-width:4.17px;"/><ellipse cx="2806" cy="509" rx="201" ry="75" style="fill:#fff;stroke:#2780e3;stroke-width:4.17px;"/><text x="2534.42px" y="377.783px" style="font-family:'SourceSansPro-Regular', 'Source Sans Pro', sans-serif;font-size:58.333px;fill:#231f20;">Art</text><text x="2734.28px" y="523.583px" style="font-family:'SourceSansPro-Regular', 'Source Sans Pro', sans-serif;font-size:58.333px;fill:#231f20;">Pfle<tspan x="2827.84px 2856.43px " y="523.583px 523.583px ">ge</tspan></text><text x="734.417px" y="153.667px" style="font-family:'SourceSansPro-Regular', 'Source Sans Pro', sans-serif;font-size:58.333px;fill:#231f20;">st<tspan x="777.992px " y="153.667px ">e</tspan>ht am</text><text x="1160.75px" y="181.167px" style="font-family:'SourceSansPro-Regular', 'Source Sans Pro', sans-serif;font-size:58.333px;fill:#231f20;">m</text><text x="498.619px" y="181.167px" style="font-family:'SourceSansPro-Regular', 'Source Sans Pro', sans-serif;font-size:58.333px;fill:#231f20;">n</text><path d="M1700.38,134.606l0,0.894l-1.375,-1.375l1.375,-1.375l0,0.894l155.438,-0l-0.001,-0.894l1.375,1.375l-1.375,1.375l0,-0.894l-155.437,0Z" style="fill:#fff;stroke:#2780e3;stroke-width:8.33px;"/><path d="M2278.81,133.856l-0.001,0.894l-1.374,-1.375l1.374,-1.375l0.001,0.894l155.437,-0l0,-0.894l1.375,1.375l-1.375,1.375l0,-0.894l-155.438,0Z" style="fill:#fff;stroke:#2780e3;stroke-width:8.33px;"/><path d="M2052,25.75l244.813,107.5l-244.813,107.5l-244.813,-107.5l244.813,-107.5Z" style="fill:#fff;stroke:#2780e3;stroke-width:8.33px;"/><text x="1909px" y="153.667px" style="font-family:'SourceSansPro-Regular', 'Source Sans Pro', sans-serif;font-size:58.333px;fill:#231f20;">best<tspan x="2013.88px " y="153.667px ">e</tspan>ht aus</text><text x="2372.75px" y="181.167px" style="font-family:'SourceSansPro-Regular', 'Source Sans Pro', sans-serif;font-size:58.333px;fill:#231f20;">m</text><text x="1710.62px" y="181.167px" style="font-family:'SourceSansPro-Regular', 'Source Sans Pro', sans-serif;font-size:58.333px;fill:#231f20;">n</text><text x="1277px" y="167.167px" style="font-family:'SourceSansPro-Regular', 'Source Sans Pro', sans-serif;font-size:100px;fill:#231f20;">Sitzb<tspan x="1484.9px " y="167.167px ">a</tspan>nk</text><rect x="2436" y="47.25" width="472" height="175" style="fill:#fff;stroke:#2780e3;stroke-width:8.33px;"/><text x="2498.7px" y="167.75px" style="font-family:'SourceSansPro-Regular', 'Source Sans Pro', sans-serif;font-size:100px;fill:#231f20;">Mat<tspan x="2654.9px " y="167.75px ">e</tspan>rial</text></svg>