<?xml version="1.0" encoding="UTF-8" standalone="no"?>
<svg
   sodipodi:docname="fd-lifecycle.svg"
   inkscape:version="1.3.2 (091e20e, 2023-11-25, custom)"
   id="svg8"
   version="1.1"
   viewBox="0 0 193.01759 192.7245"
   height="192.7245mm"
   width="193.01759mm"
   inkscape:export-filename="C:\$SYNC\FDM\Homepage FDM\FDMLZ-2.1_300dpi.png"
   inkscape:export-xdpi="300"
   inkscape:export-ydpi="300"
   xmlns:inkscape="http://www.inkscape.org/namespaces/inkscape"
   xmlns:sodipodi="http://sodipodi.sourceforge.net/DTD/sodipodi-0.dtd"
   xmlns="http://www.w3.org/2000/svg"
   xmlns:svg="http://www.w3.org/2000/svg"
   xmlns:rdf="http://www.w3.org/1999/02/22-rdf-syntax-ns#"
   xmlns:cc="http://creativecommons.org/ns#"
   xmlns:dc="http://purl.org/dc/elements/1.1/">
  <defs
     id="defs2" />
  <sodipodi:namedview
     inkscape:window-maximized="1"
     inkscape:window-y="-8"
     inkscape:window-x="-8"
     inkscape:window-height="1369"
     inkscape:window-width="2560"
     showgrid="false"
     inkscape:document-rotation="0"
     inkscape:current-layer="g1332"
     inkscape:document-units="mm"
     inkscape:cy="388.40365"
     inkscape:cx="277.28687"
     inkscape:zoom="0.98994949"
     inkscape:pageshadow="2"
     inkscape:pageopacity="0.0"
     borderopacity="1.0"
     bordercolor="#666666"
     pagecolor="#ffffff"
     id="base"
     inkscape:showpageshadow="2"
     inkscape:pagecheckerboard="0"
     inkscape:deskcolor="#d1d1d1" />
  <metadata
     id="metadata5">
    <rdf:RDF>
      <cc:Work
         rdf:about="">
        <dc:format>image/svg+xml</dc:format>
        <dc:type
           rdf:resource="http://purl.org/dc/dcmitype/StillImage" />
      </cc:Work>
    </rdf:RDF>
  </metadata>
  <g
     id="layer1"
     inkscape:groupmode="layer"
     inkscape:label="Layer 1"
     transform="translate(-8.7964662,-33.016906)">
    <g
       id="g1332">
      <path
         style="fill:#2780e3;fill-opacity:1;stroke:#2780e3;stroke-width:1;stroke-linecap:round;stroke-miterlimit:4;stroke-dasharray:none;stroke-opacity:1"
         d="M 9.4989601,126.5163 C 9.7915176,119.07454 10.606222,113.09976 12.239278,106.4197 17.635929,84.344554 30.7887,64.957023 49.597227,51.3531 l 2.638161,-1.908143 8.186253,7.982183 c 4.502438,4.390199 9.364604,9.111152 10.804813,10.491004 l 2.618563,2.508821 3.674652,14.961137 3.674655,14.961138 -2.41781,2.41714 c -6.73767,6.73583 -10.398572,15.03108 -11.039001,25.01335 l -0.198697,3.09706 -14.432555,-4.1085 -14.432555,-4.1085 -14.031649,4.06228 c -7.717408,2.23425 -14.321761,4.12034 -14.6763407,4.1913 L 9.321026,131.0424 Z"
         id="path1159" />
      <path
         id="path1171"
         d="M 81.294533,83.018542 77.677731,68.303142 66.822213,57.738829 55.966695,47.174517 l 0.975209,-0.60834 c 1.626706,-1.014749 8.563457,-4.474832 11.277965,-5.6255 21.806376,-9.243639 47.214061,-9.883145 69.686991,-1.75401 4.30234,1.55629 9.94645,4.085696 9.94645,4.457504 0,0.156099 -1.62367,6.695718 -3.60814,14.532488 -1.98448,7.836768 -3.60814,14.286537 -3.60814,14.332818 0,0.277058 -22.32488,21.425355 -22.56163,21.372576 -0.15945,-0.03555 -1.6129,-0.414258 -3.22988,-0.841576 -5.61285,-1.48331 -10.96162,-1.664687 -16.714833,-0.566807 -4.101854,0.782757 -8.819089,2.554518 -11.985927,4.50183 l -1.233426,0.758441 z"
         style="fill:#2780e3;fill-opacity:1;stroke:#2780e3;stroke-width:1;stroke-linecap:round;stroke-miterlimit:4;stroke-dasharray:none;stroke-opacity:1" />
      <path
         id="path1173"
         d="m 156.82681,127.2457 -14.41259,-4.20065 -0.34916,-1.72024 c -0.51752,-2.54969 -1.85167,-6.24077 -3.25777,-9.01301 -3.30758,-6.52117 -8.09925,-11.48698 -15.42882,-15.989585 l -0.82149,-0.504645 8.48953,-8.15172 c 4.66925,-4.483447 9.58379,-9.188606 10.92121,-10.45591 l 2.43167,-2.30419 3.62294,-14.400154 c 1.99262,-7.920088 3.72543,-14.507924 3.85069,-14.639639 0.24954,-0.262393 2.71661,1.122968 6.53743,3.671033 19.00299,12.672898 32.98501,31.828329 39.14512,53.62901 1.59362,5.63983 2.72795,11.89476 3.35394,18.49432 l 0.16964,1.78849 -1.02186,0.27577 c -0.56203,0.15168 -6.96508,1.96276 -14.229,4.02463 -7.26393,2.06186 -13.51803,3.73721 -13.89802,3.72298 -0.37998,-0.0142 -7.17654,-1.91614 -15.10346,-4.22649 z"
         style="fill:#2780e3;fill-opacity:1;stroke:#2780e3;stroke-width:1;stroke-linecap:round;stroke-miterlimit:4;stroke-dasharray:none;stroke-opacity:1" />
      <path
         id="path1175"
         d="m 148.77847,200.01228 c -5.28628,-5.06238 -10.186,-9.77496 -10.88827,-10.47239 l -1.27685,-1.26807 -3.74343,-14.79116 -3.74344,-14.79116 2.88423,-2.97176 c 1.58633,-1.63447 3.5005,-3.8738 4.25373,-4.97628 4.09273,-5.9905 6.43049,-13.2241 6.58416,-20.37303 l 0.0602,-2.80142 0.66818,0.21782 c 0.36749,0.1198 6.9344,2.03005 14.59312,4.24499 l 13.92496,4.02717 14.5386,-4.12873 c 7.99623,-2.27081 14.58294,-4.0844 14.63712,-4.03021 0.23646,0.23646 -0.55087,11.54817 -1.03189,14.82532 -2.89165,19.70076 -10.75457,36.38807 -24.18162,51.32019 -4.20466,4.67596 -11.10807,10.7187 -16.18102,14.16367 l -1.48638,1.00938 z"
         style="fill:#2780e3;fill-opacity:1;stroke:#2780e3;stroke-width:1;stroke-linecap:round;stroke-miterlimit:4;stroke-dasharray:none;stroke-opacity:1" />
      <path
         id="path1177"
         d="m 100.68024,225.12952 c -8.056908,-0.39723 -17.081369,-2.04328 -24.747385,-4.5139 -6.169348,-1.98827 -13.069589,-4.99742 -13.073857,-5.70142 -0.0013,-0.23593 1.578092,-6.84025 3.510048,-14.67627 l 3.512645,-14.2473 10.925656,-10.60876 c 6.60853,-6.41685 11.109227,-10.59276 11.390231,-10.56827 0.255516,0.0223 1.891601,0.4134 3.63575,0.86919 1.744144,0.45579 4.607462,0.96506 6.362922,1.13172 7.18682,0.68231 15.52832,-1.13275 21.6238,-4.70521 0.87044,-0.51015 1.5837,-0.90125 1.58503,-0.86912 0.001,0.0321 1.67705,6.66327 3.72384,14.73587 3.60781,14.22926 3.74851,14.70332 4.60799,15.52486 0.48761,0.46609 5.3766,5.15872 10.86444,10.42808 l 9.97789,9.58065 -0.62345,0.48866 c -1.24752,0.97778 -11.4081,5.82971 -14.96907,7.14809 -12.31447,4.5592 -25.47987,6.61552 -38.30648,5.98313 z"
         style="fill:#2780e3;fill-opacity:1;stroke:#2780e3;stroke-width:1;stroke-linecap:round;stroke-miterlimit:4;stroke-dasharray:none;stroke-opacity:1" />
      <path
         id="path1179"
         d="M 55.730068,211.40874 C 37.522348,200.33088 23.074055,183.01867 15.68376,163.42451 c -3.135472,-8.3132 -5.558867,-19.13153 -5.7997507,-25.8908 l -0.075411,-2.11605 14.0316497,-4.08116 c 7.717407,-2.24463 14.332329,-4.0864 14.699825,-4.09282 0.367496,-0.006 7.162488,1.83366 15.099985,4.08905 l 14.431809,4.10072 0.707885,2.77633 c 1.814086,7.11488 4.946422,12.66989 9.996252,17.72773 2.235051,2.2386 5.629986,4.85988 7.996771,6.17443 l 0.983166,0.54606 -8.772216,8.51749 c -4.824719,4.68461 -9.703495,9.43023 -10.841728,10.54582 l -2.069512,2.02833 -3.619691,14.68708 c -1.990825,8.07789 -3.645379,14.71034 -3.676779,14.73878 -0.0314,0.0284 -1.402078,-0.76661 -3.045947,-1.76676 z"
         style="fill:#2780e3;fill-opacity:1;stroke:#2780e3;stroke-width:1;stroke-linecap:round;stroke-miterlimit:4;stroke-dasharray:none;stroke-opacity:1" />
      <g
         style="font-style:normal;font-variant:normal;font-weight:normal;font-stretch:normal;font-size:8.46667px;line-height:1.25;font-family:StoneSansITCStd;-inkscape-font-specification:StoneSansITCStd;letter-spacing:0px;word-spacing:0px;fill:#ffffff;fill-opacity:1;stroke:none;stroke-width:0.264583"
         id="text1036"
         aria-label="Planung">
        <path
           id="path1381"
           style="font-style:normal;font-variant:normal;font-weight:600;font-stretch:normal;font-size:8.46667px;font-family:StoneSansITCStd;-inkscape-font-specification:'StoneSansITCStd Semi-Bold';fill:#ffffff;fill-opacity:1;stroke-width:0.264583"
           d="m 93.811117,61.171822 q 0,1.025261 -0.851628,1.587501 -0.644922,0.42168 -1.595769,0.429948 v -0.727604 q 1.248503,-0.09922 1.248503,-1.174089 0,-0.669727 -0.496094,-0.884701 -0.248047,-0.107487 -0.818555,-0.107487 h -0.330729 v 5.134572 h -1.174089 v -5.928323 h 1.562696 q 1.058334,0 1.455209,0.165365 0.124023,0.05788 0.264583,0.14056 0.735873,0.454753 0.735873,1.364258 z" />
        <path
           id="path1383"
           style="font-style:normal;font-variant:normal;font-weight:600;font-stretch:normal;font-size:8.46667px;font-family:StoneSansITCStd;-inkscape-font-specification:'StoneSansITCStd Semi-Bold';fill:#ffffff;fill-opacity:1;stroke-width:0.264583"
           d="m 95.886443,65.429962 h -1.116211 v -6.217711 h 1.116211 z" />
        <path
           id="path1385"
           style="font-style:normal;font-variant:normal;font-weight:600;font-stretch:normal;font-size:8.46667px;font-family:StoneSansITCStd;-inkscape-font-specification:'StoneSansITCStd Semi-Bold';fill:#ffffff;fill-opacity:1;stroke-width:0.264583"
           d="m 100.68202,65.429962 h -1.190628 q -0.09095,-0.264583 -0.09922,-0.570508 -0.553972,0.669727 -1.35599,0.669727 -0.628386,0 -0.98392,-0.487826 -0.231511,-0.322461 -0.231511,-0.735872 0,-0.768946 0.768946,-1.223699 0.454753,-0.256315 1.12448,-0.42168 l 0.702799,-0.157096 q -0.148828,-0.7028 -0.735872,-0.752409 -0.05788,-0.0083 -0.115756,-0.0083 -0.529166,0 -1.066602,0.454753 l -0.363802,-0.529167 q 0.727605,-0.570508 1.670183,-0.570508 1.008725,0 1.430403,0.570508 0.22325,0.314193 0.25632,0.818555 0.0165,0.19017 0.0165,0.463021 v 1.132748 q 0,0.818555 0.10748,1.157553 0.0248,0.08268 0.0661,0.190169 z m -1.256773,-1.885157 q 0,-0.0083 -0.0083,-0.413411 l -0.446484,0.115755 q -1.07487,0.256315 -1.07487,0.901237 0,0.396875 0.322461,0.56224 0.115755,0.06615 0.256315,0.06615 0.463021,0 0.744141,-0.405144 0.07441,-0.107487 0.107487,-0.223242 0.107487,-0.330729 0.09922,-0.603581 z" />
        <path
           id="path1387"
           style="font-style:normal;font-variant:normal;font-weight:600;font-stretch:normal;font-size:8.46667px;font-family:StoneSansITCStd;-inkscape-font-specification:'StoneSansITCStd Semi-Bold';fill:#ffffff;fill-opacity:1;stroke-width:0.264583"
           d="m 105.81659,65.429962 h -1.11621 V 63.00737 q 0,-0.56224 -0.13229,-0.79375 -0.19844,-0.355534 -0.68627,-0.355534 -0.65319,0 -0.87643,0.51263 -0.0992,0.256315 -0.0992,0.777214 v 2.282032 h -1.12448 v -4.233335 h 1.12448 v 0.570508 q 0.56224,-0.628385 1.32292,-0.669727 0.0662,0 0.12402,0 0.95085,0 1.30638,0.711068 0.0165,0.04134 0.0331,0.08268 0.12402,0.314192 0.12402,1.050065 0,0.04134 0,0.08268 z" />
        <path
           id="path1389"
           style="font-style:normal;font-variant:normal;font-weight:600;font-stretch:normal;font-size:8.46667px;font-family:StoneSansITCStd;-inkscape-font-specification:'StoneSansITCStd Semi-Bold';fill:#ffffff;fill-opacity:1;stroke-width:0.264583"
           d="m 111.08346,65.429962 h -1.11622 v -0.570508 q -0.56224,0.628386 -1.32291,0.669727 -0.0661,0 -0.12403,0 -1.02526,0 -1.33945,-0.785482 -0.12402,-0.355534 -0.12402,-1.141016 v -2.406056 h 1.11621 v 2.422592 q 0,0.56224 0.13229,0.793751 0.19844,0.355534 0.68626,0.355534 0.62839,0 0.86817,-0.520899 0.10748,-0.264584 0.10748,-0.777214 v -2.273764 h 1.11622 z" />
        <path
           id="path1391"
           style="font-style:normal;font-variant:normal;font-weight:600;font-stretch:normal;font-size:8.46667px;font-family:StoneSansITCStd;-inkscape-font-specification:'StoneSansITCStd Semi-Bold';fill:#ffffff;fill-opacity:1;stroke-width:0.264583"
           d="m 116.39993,65.429962 h -1.11621 V 63.00737 q 0,-0.56224 -0.1323,-0.79375 -0.19843,-0.355534 -0.68626,-0.355534 -0.65319,0 -0.87643,0.51263 -0.0992,0.256315 -0.0992,0.777214 v 2.282032 h -1.12448 v -4.233335 h 1.12448 v 0.570508 q 0.56224,-0.628385 1.32292,-0.669727 0.0661,0 0.12402,0 0.95085,0 1.30638,0.711068 0.0165,0.04134 0.0331,0.08268 0.12403,0.314192 0.12403,1.050065 0,0.04134 0,0.08268 z" />
        <path
           id="path1393"
           style="font-style:normal;font-variant:normal;font-weight:600;font-stretch:normal;font-size:8.46667px;font-family:StoneSansITCStd;-inkscape-font-specification:'StoneSansITCStd Semi-Bold';fill:#ffffff;fill-opacity:1;stroke-width:0.264583"
           d="m 121.78255,64.561798 q 0,0.93431 -0.0744,1.273308 0,0.01654 -0.008,0.03307 -0.39688,1.678452 -2.25723,1.678452 -0.97565,0 -1.78594,-0.405144 l 0.21497,-0.694531 q 0.71934,0.37207 1.3808,0.380338 0.95911,0 1.28158,-0.694531 0.14056,-0.322461 0.14056,-1.000456 v -0.33073 q -0.50437,0.61185 -1.06661,0.7028 -0.14882,0.02481 -0.32246,0.02481 -1.03353,0 -1.55443,-0.884701 -0.33072,-0.56224 -0.33072,-1.314649 0,-1.07487 0.68626,-1.719792 0.5457,-0.512631 1.29811,-0.512631 0.83509,0 1.28985,0.677995 V 61.19663 h 1.10794 z m -1.10794,-1.298113 q 0,-1.058334 -0.61185,-1.389063 -0.20671,-0.107487 -0.47129,-0.107487 -0.66973,0 -0.90951,0.744141 -0.0992,0.322461 -0.0992,0.744141 0,0.992188 0.50436,1.413868 0.23152,0.198437 0.52917,0.198437 0.58705,0 0.87643,-0.644922 0.18191,-0.405143 0.18191,-0.959115 z" />
      </g>
      <g
         style="font-style:normal;font-variant:normal;font-weight:normal;font-stretch:normal;font-size:8.46667px;line-height:1.25;font-family:StoneSansITCStd;-inkscape-font-specification:StoneSansITCStd;letter-spacing:0px;word-spacing:0px;fill:#ffffff;fill-opacity:1;stroke:none;stroke-width:0.264583"
         id="text1036-9"
         aria-label="Erfassung und Dokumentation"
         transform="translate(0.52916663)">
        <path
           id="path1396"
           style="font-style:normal;font-variant:normal;font-weight:600;font-stretch:normal;font-size:8.46667px;font-family:StoneSansITCStd;-inkscape-font-specification:'StoneSansITCStd Semi-Bold';fill:#ffffff;fill-opacity:1;stroke-width:0.264583"
           d="m 137.20929,94.236595 h -3.55534 v -5.928323 h 3.19981 v 0.793751 h -2.01745 v 1.620573 h 1.97611 v 0.810287 h -1.97611 v 1.909962 h 2.37298 z" />
        <path
           id="path1398"
           style="font-style:normal;font-variant:normal;font-weight:600;font-stretch:normal;font-size:8.46667px;font-family:StoneSansITCStd;-inkscape-font-specification:'StoneSansITCStd Semi-Bold';fill:#ffffff;fill-opacity:1;stroke-width:0.264583"
           d="m 140.9548,90.292648 -0.41341,0.802019 q -0.37207,-0.173633 -0.53743,-0.173633 -0.42168,0 -0.63666,0.438216 -0.008,0.03307 -0.0248,0.06615 -0.10749,0.322461 -0.10749,1.008724 v 1.802475 H 138.1188 V 90.00326 h 1.11621 v 0.744141 l 0.1571,-0.272852 q 0.34726,-0.570508 0.77721,-0.570508 0.3638,0 0.78548,0.388607 z" />
        <path
           id="path1400"
           style="font-style:normal;font-variant:normal;font-weight:600;font-stretch:normal;font-size:8.46667px;font-family:StoneSansITCStd;-inkscape-font-specification:'StoneSansITCStd Semi-Bold';fill:#ffffff;fill-opacity:1;stroke-width:0.264583"
           d="m 144.24556,88.209054 -0.19844,0.545703 q -0.22324,-0.07441 -0.43821,-0.07441 -0.35554,0 -0.51263,0.28112 -0.0744,0.148828 -0.0744,0.545703 v 0.496094 h 1.01699 v 0.578776 h -1.01699 v 3.654559 h -1.10794 V 90.58204 h -0.68626 v -0.57878 h 0.68626 v -0.405143 q 0,-0.661459 0.23978,-0.975652 0.0413,-0.06615 0.0992,-0.124023 0.43821,-0.479558 1.14101,-0.479558 0.41341,0 0.85163,0.19017 z" />
        <path
           id="path1402"
           style="font-style:normal;font-variant:normal;font-weight:600;font-stretch:normal;font-size:8.46667px;font-family:StoneSansITCStd;-inkscape-font-specification:'StoneSansITCStd Semi-Bold';fill:#ffffff;fill-opacity:1;stroke-width:0.264583"
           d="m 148.23085,94.236595 h -1.19063 q -0.0909,-0.264583 -0.0992,-0.570508 -0.55397,0.669727 -1.35599,0.669727 -0.62838,0 -0.98392,-0.487826 -0.23151,-0.322461 -0.23151,-0.735872 0,-0.768946 0.76895,-1.223699 0.45475,-0.256315 1.12448,-0.42168 l 0.7028,-0.157096 q -0.14883,-0.7028 -0.73587,-0.752409 -0.0579,-0.0083 -0.11576,-0.0083 -0.52917,0 -1.0666,0.454753 l -0.3638,-0.529167 q 0.7276,-0.570508 1.67018,-0.570508 1.00872,0 1.4304,0.570508 0.22325,0.314193 0.25632,0.818555 0.0165,0.19017 0.0165,0.463021 v 1.132748 q 0,0.818555 0.10748,1.157553 0.0248,0.08268 0.0661,0.190169 z m -1.25677,-1.885157 q 0,-0.0083 -0.008,-0.413411 l -0.44649,0.115755 q -1.07487,0.256315 -1.07487,0.901237 0,0.396875 0.32246,0.56224 0.11576,0.06615 0.25632,0.06615 0.46302,0 0.74414,-0.405144 0.0744,-0.107487 0.10749,-0.223242 0.10748,-0.330729 0.0992,-0.603581 z" />
        <path
           id="path1404"
           style="font-style:normal;font-variant:normal;font-weight:600;font-stretch:normal;font-size:8.46667px;font-family:StoneSansITCStd;-inkscape-font-specification:'StoneSansITCStd Semi-Bold';fill:#ffffff;fill-opacity:1;stroke-width:0.264583"
           d="m 151.95155,93.070774 q 0,0.677995 -0.62838,1.033529 -0.40515,0.231511 -0.95912,0.231511 -0.79375,0 -1.4056,-0.487826 l 0.36381,-0.595313 q 0.48782,0.42168 0.90123,0.42168 0.43822,0 0.57051,-0.322461 0.0331,-0.09095 0.0331,-0.190169 0,-0.256315 -0.25631,-0.479558 -0.13229,-0.132291 -0.46302,-0.363802 -0.52917,-0.388607 -0.69453,-0.603581 -0.22325,-0.297656 -0.22325,-0.644922 0,-0.644922 0.60358,-0.967383 0.36381,-0.198438 0.85163,-0.198438 0.66973,0 1.20716,0.347266 l -0.33073,0.529167 q -0.34726,-0.231511 -0.71106,-0.231511 -0.37207,0 -0.48783,0.264584 -0.0331,0.06615 -0.0331,0.148828 0,0.214974 0.31419,0.479558 0.0992,0.08268 0.26458,0.206705 0.77722,0.553972 0.95912,0.884701 0.12402,0.223243 0.12402,0.537435 z" />
        <path
           id="path1406"
           style="font-style:normal;font-variant:normal;font-weight:600;font-stretch:normal;font-size:8.46667px;font-family:StoneSansITCStd;-inkscape-font-specification:'StoneSansITCStd Semi-Bold';fill:#ffffff;fill-opacity:1;stroke-width:0.264583"
           d="m 155.58958,93.070774 q 0,0.677995 -0.62839,1.033529 -0.40514,0.231511 -0.95912,0.231511 -0.79375,0 -1.40559,-0.487826 l 0.3638,-0.595313 q 0.48782,0.42168 0.90123,0.42168 0.43822,0 0.57051,-0.322461 0.0331,-0.09095 0.0331,-0.190169 0,-0.256315 -0.25632,-0.479558 -0.13229,-0.132291 -0.46302,-0.363802 -0.52917,-0.388607 -0.69453,-0.603581 -0.22324,-0.297656 -0.22324,-0.644922 0,-0.644922 0.60358,-0.967383 0.3638,-0.198438 0.85162,-0.198438 0.66973,0 1.20717,0.347266 l -0.33073,0.529167 q -0.34727,-0.231511 -0.71107,-0.231511 -0.37207,0 -0.48783,0.264584 -0.0331,0.06615 -0.0331,0.148828 0,0.214974 0.31419,0.479558 0.0992,0.08268 0.26459,0.206705 0.77721,0.553972 0.95911,0.884701 0.12403,0.223243 0.12403,0.537435 z" />
        <path
           id="path1408"
           style="font-style:normal;font-variant:normal;font-weight:600;font-stretch:normal;font-size:8.46667px;font-family:StoneSansITCStd;-inkscape-font-specification:'StoneSansITCStd Semi-Bold';fill:#ffffff;fill-opacity:1;stroke-width:0.264583"
           d="m 160.58359,94.236595 h -1.11621 v -0.570508 q -0.56224,0.628386 -1.32292,0.669727 -0.0662,0 -0.12402,0 -1.02527,0 -1.33946,-0.785482 -0.12402,-0.355534 -0.12402,-1.141016 V 90.00326 h 1.11621 v 2.422592 q 0,0.56224 0.13229,0.793751 0.19844,0.355534 0.68626,0.355534 0.62839,0 0.86817,-0.520899 0.10749,-0.264584 0.10749,-0.777214 V 90.00326 h 1.11621 z" />
        <path
           id="path1410"
           style="font-style:normal;font-variant:normal;font-weight:600;font-stretch:normal;font-size:8.46667px;font-family:StoneSansITCStd;-inkscape-font-specification:'StoneSansITCStd Semi-Bold';fill:#ffffff;fill-opacity:1;stroke-width:0.264583"
           d="m 165.90006,94.236595 h -1.11621 v -2.422592 q 0,-0.56224 -0.13229,-0.79375 -0.19844,-0.355534 -0.68627,-0.355534 -0.65319,0 -0.87643,0.51263 -0.0992,0.256315 -0.0992,0.777214 v 2.282032 h -1.12448 V 90.00326 h 1.12448 v 0.570508 q 0.56224,-0.628385 1.32292,-0.669727 0.0662,0 0.12402,0 0.95085,0 1.30638,0.711068 0.0165,0.04134 0.0331,0.08268 0.12402,0.314192 0.12402,1.050065 0,0.04134 0,0.08268 z" />
        <path
           id="path1412"
           style="font-style:normal;font-variant:normal;font-weight:600;font-stretch:normal;font-size:8.46667px;font-family:StoneSansITCStd;-inkscape-font-specification:'StoneSansITCStd Semi-Bold';fill:#ffffff;fill-opacity:1;stroke-width:0.264583"
           d="m 171.28268,93.368431 q 0,0.93431 -0.0744,1.273308 0,0.01654 -0.008,0.03307 -0.39688,1.678452 -2.25723,1.678452 -0.97565,0 -1.78594,-0.405144 l 0.21498,-0.694531 q 0.71933,0.37207 1.38079,0.380338 0.95912,0 1.28158,-0.694531 0.14056,-0.322461 0.14056,-1.000456 v -0.33073 q -0.50437,0.61185 -1.06661,0.7028 -0.14882,0.02481 -0.32246,0.02481 -1.03353,0 -1.55442,-0.884701 -0.33073,-0.56224 -0.33073,-1.314649 0,-1.07487 0.68626,-1.719792 0.5457,-0.512631 1.29811,-0.512631 0.83509,0 1.28985,0.677995 V 90.00326 h 1.10794 z m -1.10794,-1.298113 q 0,-1.058334 -0.61185,-1.389063 -0.20671,-0.107487 -0.47129,-0.107487 -0.66973,0 -0.90951,0.744141 -0.0992,0.322461 -0.0992,0.744141 0,0.992188 0.50437,1.413868 0.23151,0.198437 0.52916,0.198437 0.58705,0 0.87644,-0.644922 0.1819,-0.405143 0.1819,-0.959115 z" />
        <path
           id="path1414"
           style="font-style:normal;font-variant:normal;font-weight:600;font-stretch:normal;font-size:8.46667px;font-family:StoneSansITCStd;-inkscape-font-specification:'StoneSansITCStd Semi-Bold';fill:#ffffff;fill-opacity:1;stroke-width:0.264583"
           d="m 178.74062,94.236595 h -1.11621 v -0.570508 q -0.56224,0.628386 -1.32291,0.669727 -0.0661,0 -0.12403,0 -1.02526,0 -1.33945,-0.785482 Q 174.714,93.194798 174.714,92.409316 V 90.00326 h 1.11621 v 2.422592 q 0,0.56224 0.13229,0.793751 0.19844,0.355534 0.68626,0.355534 0.62839,0 0.86817,-0.520899 0.10748,-0.264584 0.10748,-0.777214 V 90.00326 h 1.11621 z" />
        <path
           id="path1416"
           style="font-style:normal;font-variant:normal;font-weight:600;font-stretch:normal;font-size:8.46667px;font-family:StoneSansITCStd;-inkscape-font-specification:'StoneSansITCStd Semi-Bold';fill:#ffffff;fill-opacity:1;stroke-width:0.264583"
           d="m 184.0571,94.236595 h -1.11621 v -2.422592 q 0,-0.56224 -0.13229,-0.79375 -0.19844,-0.355534 -0.68627,-0.355534 -0.65319,0 -0.87643,0.51263 -0.0992,0.256315 -0.0992,0.777214 v 2.282032 h -1.1245 V 90.00326 h 1.12448 v 0.570508 q 0.56224,-0.628385 1.32292,-0.669727 0.0661,0 0.12402,0 0.95085,0 1.30638,0.711068 0.0165,0.04134 0.0331,0.08268 0.12402,0.314192 0.12402,1.050065 0,0.04134 0,0.08268 z" />
        <path
           id="path1418"
           style="font-style:normal;font-variant:normal;font-weight:600;font-stretch:normal;font-size:8.46667px;font-family:StoneSansITCStd;-inkscape-font-specification:'StoneSansITCStd Semi-Bold';fill:#ffffff;fill-opacity:1;stroke-width:0.264583"
           d="m 189.47279,94.236595 h -1.0914 v -0.628386 q -0.55398,0.644923 -1.20717,0.719337 -0.10748,0.0083 -0.22324,0.0083 -1.01699,0 -1.54616,-0.868164 -0.34726,-0.578777 -0.34726,-1.347722 0,-1.074871 0.69453,-1.711524 0.53743,-0.504363 1.30638,-0.504363 0.75241,0 1.2237,0.529167 0.0496,0.05788 0.0992,0.124024 v -2.538348 h 1.0914 z m -1.08314,-2.166277 q 0,-0.992188 -0.5705,-1.347722 -0.23151,-0.148828 -0.52917,-0.148828 -0.65319,0 -0.91777,0.686263 -0.1323,0.338998 -0.1323,0.802019 0,1.008724 0.5209,1.422136 0.23151,0.190169 0.53744,0.190169 0.62011,0 0.9095,-0.661458 0.1819,-0.396875 0.1819,-0.942579 z" />
        <path
           id="path1420"
           style="font-style:normal;font-variant:normal;font-weight:600;font-stretch:normal;font-size:8.46667px;font-family:StoneSansITCStd;-inkscape-font-specification:'StoneSansITCStd Semi-Bold';fill:#ffffff;fill-opacity:1;stroke-width:0.264583"
           d="m 138.95389,101.69454 q 0,1.57923 -1.0666,2.42259 -0.17363,0.14056 -0.38034,0.25632 -0.7276,0.41341 -1.9265,0.44648 -0.14056,0 -0.28939,0 h -1.63711 v -5.92832 h 1.63711 q 1.18236,0 1.82728,0.256315 0.1323,0.05788 0.3142,0.14056 1.52135,0.768945 1.52135,2.406055 z m -1.27331,0.0579 q 0,-1.35599 -0.90123,-1.827281 -0.43822,-0.223242 -1.25678,-0.239779 -0.0827,0 -0.16536,0 h -0.5209 v 4.34082 h 0.48783 q 0.99219,0 1.45521,-0.28112 0.11575,-0.0661 0.23151,-0.16536 0.66146,-0.56224 0.66972,-1.82728 z" />
        <path
           id="path1422"
           style="font-style:normal;font-variant:normal;font-weight:600;font-stretch:normal;font-size:8.46667px;font-family:StoneSansITCStd;-inkscape-font-specification:'StoneSansITCStd Semi-Bold';fill:#ffffff;fill-opacity:1;stroke-width:0.264583"
           d="m 144.13807,102.67019 q 0,1.09141 -0.74414,1.73633 -0.60358,0.51263 -1.46348,0.51263 -1.08313,0 -1.71152,-0.76068 -0.50436,-0.60358 -0.50436,-1.48001 0,-1.08314 0.76068,-1.70326 0.60358,-0.48782 1.47174,-0.48782 1.01699,0 1.65365,0.71934 0.53743,0.61184 0.53743,1.46347 z m -1.16582,0.008 q 0,-1.16582 -0.63665,-1.48001 -0.19017,-0.0992 -0.42168,-0.0992 -0.62839,0 -0.89297,0.69453 -0.14883,0.37207 -0.14883,0.8847 0,1.18236 0.62012,1.52136 0.19844,0.10748 0.43821,0.10748 0.678,0 0.92605,-0.78548 0.11575,-0.35553 0.11575,-0.84336 z" />
        <path
           id="path1424"
           style="font-style:normal;font-variant:normal;font-weight:600;font-stretch:normal;font-size:8.46667px;font-family:StoneSansITCStd;-inkscape-font-specification:'StoneSansITCStd Semi-Bold';fill:#ffffff;fill-opacity:1;stroke-width:0.264583"
           d="m 148.98326,104.53881 -1.0418,0.36381 -1.68672,-2.33165 v 2.24896 h -1.12448 v -6.217708 h 1.12448 v 3.654558 h 0.11576 l 1.50481,-1.73633 0.84336,0.3638 -1.43867,1.5379 z" />
        <path
           id="path1426"
           style="font-style:normal;font-variant:normal;font-weight:600;font-stretch:normal;font-size:8.46667px;font-family:StoneSansITCStd;-inkscape-font-specification:'StoneSansITCStd Semi-Bold';fill:#ffffff;fill-opacity:1;stroke-width:0.264583"
           d="m 153.58866,104.81993 h -1.11621 v -0.57051 q -0.56224,0.62839 -1.32292,0.66973 -0.0661,0 -0.12402,0 -1.02526,0 -1.33945,-0.78548 -0.12403,-0.35553 -0.12403,-1.14102 v -2.40605 h 1.11621 v 2.42259 q 0,0.56224 0.1323,0.79375 0.19843,0.35553 0.68626,0.35553 0.62839,0 0.86816,-0.52089 0.10749,-0.26459 0.10749,-0.77722 v -2.27376 h 1.11621 z" />
        <path
           id="path1428"
           style="font-style:normal;font-variant:normal;font-weight:600;font-stretch:normal;font-size:8.46667px;font-family:StoneSansITCStd;-inkscape-font-specification:'StoneSansITCStd Semi-Bold';fill:#ffffff;fill-opacity:1;stroke-width:0.264583"
           d="m 161.5179,104.81993 h -1.10795 V 102.356 q 0,-0.57051 -0.15709,-0.80202 -0.19844,-0.30592 -0.62012,-0.30592 -0.55397,0 -0.77721,0.44648 -0.0992,0.23151 -0.0992,0.75241 v 2.37298 h -1.11621 v -2.43086 q 0,-0.57877 -0.14056,-0.80202 -0.19017,-0.33899 -0.63666,-0.33899 -0.51263,0 -0.75241,0.39687 -0.008,0.0331 -0.0248,0.0579 -0.0909,0.21497 -0.0909,0.71107 v 2.40605 h -1.12448 v -4.23333 h 1.12448 v 0.57051 q 0.53743,-0.66973 1.39733,-0.66973 0.85163,0 1.23197,0.66973 0.63665,-0.63666 1.38906,-0.66973 0.0413,0 0.0909,0 0.8847,0 1.23197,0.66973 0.008,0.0165 0.0165,0.0331 0.14883,0.26458 0.16537,0.76068 0,0.14882 0,0.38033 z" />
        <path
           id="path1430"
           style="font-style:normal;font-variant:normal;font-weight:600;font-stretch:normal;font-size:8.46667px;font-family:StoneSansITCStd;-inkscape-font-specification:'StoneSansITCStd Semi-Bold';fill:#ffffff;fill-opacity:1;stroke-width:0.264583"
           d="m 166.4623,102.67019 q 0,0.008 -0.1571,0.0909 -0.0579,0.0248 -0.0579,0.0496 h -2.55489 q 0.0165,0.89297 0.65319,1.23197 0.28939,0.1571 0.65319,0.1571 0.54571,0 1.09968,-0.339 l 0.31419,0.58704 q -0.83509,0.47129 -1.65365,0.47129 -0.92604,0 -1.53789,-0.57051 -0.68626,-0.7028 -0.7028,-1.71152 0,-0.93431 0.59532,-1.54616 0.0165,-0.0165 0.0331,-0.0331 0.59531,-0.57051 1.50482,-0.57051 1.14928,0 1.57923,0.92604 0.22324,0.50436 0.23151,1.25677 z m -1.00046,-0.42168 -0.008,-0.19844 v -0.008 q -0.14056,-0.90951 -0.81029,-0.95912 -0.65319,0 -0.8599,0.69453 -0.0661,0.21498 -0.0744,0.47129 z" />
        <path
           id="path1432"
           style="font-style:normal;font-variant:normal;font-weight:600;font-stretch:normal;font-size:8.46667px;font-family:StoneSansITCStd;-inkscape-font-specification:'StoneSansITCStd Semi-Bold';fill:#ffffff;fill-opacity:1;stroke-width:0.264583"
           d="m 171.50592,104.81993 h -1.11621 v -2.42259 q 0,-0.56224 -0.13229,-0.79375 -0.19844,-0.35553 -0.68626,-0.35553 -0.65319,0 -0.87644,0.51263 -0.0992,0.25631 -0.0992,0.77721 v 2.28203 h -1.12447 v -4.23333 h 1.12447 v 0.57051 q 0.56224,-0.62839 1.32292,-0.66973 0.0661,0 0.12403,0 0.95084,0 1.30638,0.71107 0.0165,0.0413 0.0331,0.0827 0.12402,0.31419 0.12402,1.05006 0,0.0413 0,0.0827 z" />
        <path
           id="path1434"
           style="font-style:normal;font-variant:normal;font-weight:600;font-stretch:normal;font-size:8.46667px;font-family:StoneSansITCStd;-inkscape-font-specification:'StoneSansITCStd Semi-Bold';fill:#ffffff;fill-opacity:1;stroke-width:0.264583"
           d="m 175.36719,104.65457 q -0.57878,0.26458 -1.14102,0.26458 -0.75241,0 -1.08314,-0.48782 -0.1819,-0.26459 -0.2067,-0.7028 -0.008,-0.14883 -0.008,-0.38861 v -2.17455 h -0.58705 v -0.57877 h 0.58705 v -1.025263 l 1.11621,-0.248047 v 1.27331 h 1.11621 v 0.57877 h -1.11621 v 1.94304 q 0,0.8847 0.28939,1.05833 0.11575,0.0744 0.30592,0.0744 0.27285,0 0.53744,-0.1323 z" />
        <path
           id="path1436"
           style="font-style:normal;font-variant:normal;font-weight:600;font-stretch:normal;font-size:8.46667px;font-family:StoneSansITCStd;-inkscape-font-specification:'StoneSansITCStd Semi-Bold';fill:#ffffff;fill-opacity:1;stroke-width:0.264583"
           d="m 179.6336,104.81993 h -1.19063 q -0.0909,-0.26458 -0.0992,-0.57051 -0.55397,0.66973 -1.35599,0.66973 -0.62838,0 -0.98392,-0.48782 -0.23151,-0.32247 -0.23151,-0.73588 0,-0.76894 0.76895,-1.2237 0.45475,-0.25631 1.12448,-0.42168 l 0.7028,-0.15709 q -0.14883,-0.7028 -0.73588,-0.75241 -0.0579,-0.008 -0.11575,-0.008 -0.52917,0 -1.0666,0.45475 l -0.36381,-0.52916 q 0.72761,-0.57051 1.67019,-0.57051 1.00872,0 1.4304,0.57051 0.22324,0.31419 0.25632,0.81855 0.0165,0.19017 0.0165,0.46302 v 1.13275 q 0,0.81856 0.10749,1.15755 0.0248,0.0827 0.0661,0.19017 z m -1.25678,-1.88515 q 0,-0.008 -0.008,-0.41342 l -0.44649,0.11576 q -1.07487,0.25631 -1.07487,0.90124 0,0.39687 0.32246,0.56224 0.11576,0.0661 0.25632,0.0661 0.46302,0 0.74414,-0.40514 0.0744,-0.10749 0.10749,-0.22324 0.10748,-0.33073 0.0992,-0.60358 z" />
        <path
           id="path1438"
           style="font-style:normal;font-variant:normal;font-weight:600;font-stretch:normal;font-size:8.46667px;font-family:StoneSansITCStd;-inkscape-font-specification:'StoneSansITCStd Semi-Bold';fill:#ffffff;fill-opacity:1;stroke-width:0.264583"
           d="m 183.30469,104.65457 q -0.57878,0.26458 -1.14102,0.26458 -0.7524,0 -1.08313,-0.48782 -0.1819,-0.26459 -0.20671,-0.7028 -0.008,-0.14883 -0.008,-0.38861 v -2.17455 h -0.58704 v -0.57877 h 0.58704 v -1.025263 l 1.11621,-0.248047 v 1.27331 h 1.11622 v 0.57877 h -1.11622 v 1.94304 q 0,0.8847 0.28939,1.05833 0.11576,0.0744 0.30593,0.0744 0.27285,0 0.53743,-0.1323 z" />
        <path
           id="path1440"
           style="font-style:normal;font-variant:normal;font-weight:600;font-stretch:normal;font-size:8.46667px;font-family:StoneSansITCStd;-inkscape-font-specification:'StoneSansITCStd Semi-Bold';fill:#ffffff;fill-opacity:1;stroke-width:0.264583"
           d="m 185.24772,99.280217 q 0,0.380339 -0.32246,0.56224 -0.14056,0.08268 -0.30592,0.08268 -0.38034,0 -0.56224,-0.322461 -0.0827,-0.14056 -0.0827,-0.297656 0,-0.47129 0.39687,-0.61185 0.11576,-0.04134 0.25632,-0.04134 0.39687,0 0.55397,0.338998 0.0661,0.132292 0.0661,0.289388 z m -0.0744,5.539713 h -1.11621 v -4.23333 h 1.11621 z" />
        <path
           id="path1442"
           style="font-style:normal;font-variant:normal;font-weight:600;font-stretch:normal;font-size:8.46667px;font-family:StoneSansITCStd;-inkscape-font-specification:'StoneSansITCStd Semi-Bold';fill:#ffffff;fill-opacity:1;stroke-width:0.264583"
           d="m 190.67169,102.67019 q 0,1.09141 -0.74415,1.73633 -0.60358,0.51263 -1.46347,0.51263 -1.08314,0 -1.71153,-0.76068 -0.50436,-0.60358 -0.50436,-1.48001 0,-1.08314 0.76068,-1.70326 0.60358,-0.48782 1.47174,-0.48782 1.017,0 1.65365,0.71934 0.53744,0.61184 0.53744,1.46347 z m -1.16583,0.008 q 0,-1.16582 -0.63665,-1.48001 -0.19017,-0.0992 -0.42168,-0.0992 -0.62839,0 -0.89297,0.69453 -0.14883,0.37207 -0.14883,0.8847 0,1.18236 0.62012,1.52136 0.19844,0.10748 0.43822,0.10748 0.67799,0 0.92604,-0.78548 0.11575,-0.35553 0.11575,-0.84336 z" />
        <path
           id="path1444"
           style="font-style:normal;font-variant:normal;font-weight:600;font-stretch:normal;font-size:8.46667px;font-family:StoneSansITCStd;-inkscape-font-specification:'StoneSansITCStd Semi-Bold';fill:#ffffff;fill-opacity:1;stroke-width:0.264583"
           d="m 195.69877,104.81993 h -1.11621 v -2.42259 q 0,-0.56224 -0.13229,-0.79375 -0.19844,-0.35553 -0.68627,-0.35553 -0.65319,0 -0.87643,0.51263 -0.0992,0.25631 -0.0992,0.77721 v 2.28203 h -1.12448 v -4.23333 h 1.12448 v 0.57051 q 0.56224,-0.62839 1.32292,-0.66973 0.0662,0 0.12402,0 0.95085,0 1.30638,0.71107 0.0165,0.0413 0.0331,0.0827 0.12402,0.31419 0.12402,1.05006 0,0.0413 0,0.0827 z" />
      </g>
      <g
         style="font-style:normal;font-variant:normal;font-weight:normal;font-stretch:normal;font-size:8.46667px;line-height:1.25;font-family:StoneSansITCStd;-inkscape-font-specification:StoneSansITCStd;letter-spacing:0px;word-spacing:0px;fill:#ffffff;fill-opacity:1;stroke:none;stroke-width:0.264583"
         id="text1036-9-0"
         aria-label="Auswahl und Analyse">
        <path
           id="path1447"
           style="font-style:normal;font-variant:normal;font-weight:600;font-stretch:normal;font-size:8.46667px;font-family:StoneSansITCStd;-inkscape-font-specification:'StoneSansITCStd Semi-Bold';fill:#ffffff;fill-opacity:1;stroke-width:0.264583"
           d="m 146.04804,158.12929 h -1.28158 l -0.5457,-1.62058 h -2.13321 l -0.62011,1.62058 h -0.98392 l 2.42259,-5.92832 h 0.91777 z m -2.06706,-2.33991 -0.77722,-2.28203 -0.86816,2.28203 z" />
        <path
           id="path1449"
           style="font-style:normal;font-variant:normal;font-weight:600;font-stretch:normal;font-size:8.46667px;font-family:StoneSansITCStd;-inkscape-font-specification:'StoneSansITCStd Semi-Bold';fill:#ffffff;fill-opacity:1;stroke-width:0.264583"
           d="m 150.67825,158.12929 h -1.11621 v -0.57051 q -0.56224,0.62839 -1.32292,0.66973 -0.0662,0 -0.12403,0 -1.02526,0 -1.33945,-0.78549 -0.12402,-0.35553 -0.12402,-1.14101 v -2.40606 h 1.11621 v 2.42259 q 0,0.56224 0.13229,0.79376 0.19844,0.35553 0.68626,0.35553 0.62839,0 0.86817,-0.5209 0.10749,-0.26458 0.10749,-0.77721 v -2.27377 h 1.11621 z" />
        <path
           id="path1451"
           style="font-style:normal;font-variant:normal;font-weight:600;font-stretch:normal;font-size:8.46667px;font-family:StoneSansITCStd;-inkscape-font-specification:'StoneSansITCStd Semi-Bold';fill:#ffffff;fill-opacity:1;stroke-width:0.264583"
           d="m 154.58085,156.96347 q 0,0.67799 -0.62838,1.03353 -0.40515,0.23151 -0.95912,0.23151 -0.79375,0 -1.4056,-0.48783 l 0.36381,-0.59531 q 0.48782,0.42168 0.90123,0.42168 0.43822,0 0.57051,-0.32246 0.0331,-0.0909 0.0331,-0.19017 0,-0.25632 -0.25631,-0.47956 -0.13229,-0.13229 -0.46302,-0.3638 -0.52917,-0.38861 -0.69453,-0.60358 -0.22325,-0.29766 -0.22325,-0.64493 0,-0.64492 0.60358,-0.96738 0.36381,-0.19844 0.85163,-0.19844 0.66973,0 1.20716,0.34727 l -0.33072,0.52917 q -0.34727,-0.23151 -0.71107,-0.23151 -0.37207,0 -0.48783,0.26458 -0.0331,0.0661 -0.0331,0.14883 0,0.21497 0.31419,0.47956 0.0992,0.0827 0.26458,0.2067 0.77722,0.55397 0.95912,0.8847 0.12402,0.22324 0.12402,0.53744 z" />
        <path
           id="path1453"
           style="font-style:normal;font-variant:normal;font-weight:600;font-stretch:normal;font-size:8.46667px;font-family:StoneSansITCStd;-inkscape-font-specification:'StoneSansITCStd Semi-Bold';fill:#ffffff;fill-opacity:1;stroke-width:0.264583"
           d="m 161.8569,153.94556 -1.61231,4.18373 h -0.75241 l -1.09967,-2.89388 -1.10795,2.89388 h -0.76894 l -1.48001,-4.11758 1.0666,-0.19844 0.95084,2.9931 1.10795,-2.91042 h 0.7276 l 1.08314,2.91042 0.97565,-2.9931 z" />
        <path
           id="path1455"
           style="font-style:normal;font-variant:normal;font-weight:600;font-stretch:normal;font-size:8.46667px;font-family:StoneSansITCStd;-inkscape-font-specification:'StoneSansITCStd Semi-Bold';fill:#ffffff;fill-opacity:1;stroke-width:0.264583"
           d="m 165.99101,158.12929 h -1.19062 q -0.0909,-0.26459 -0.0992,-0.57051 -0.55397,0.66973 -1.35599,0.66973 -0.62839,0 -0.98392,-0.48783 -0.23151,-0.32246 -0.23151,-0.73587 0,-0.76895 0.76894,-1.2237 0.45476,-0.25632 1.12448,-0.42168 l 0.7028,-0.1571 q -0.14882,-0.7028 -0.73587,-0.75241 -0.0579,-0.008 -0.11575,-0.008 -0.52917,0 -1.06661,0.45475 l -0.3638,-0.52917 q 0.72761,-0.57051 1.67018,-0.57051 1.00873,0 1.43041,0.57051 0.22324,0.31419 0.25631,0.81856 0.0165,0.19017 0.0165,0.46302 v 1.13275 q 0,0.81855 0.10749,1.15755 0.0248,0.0827 0.0661,0.19017 z m -1.25677,-1.88516 q 0,-0.008 -0.008,-0.41341 l -0.44648,0.11575 q -1.07487,0.25632 -1.07487,0.90124 0,0.39688 0.32246,0.56224 0.11576,0.0661 0.25632,0.0661 0.46302,0 0.74414,-0.40515 0.0744,-0.10748 0.10748,-0.22324 0.10749,-0.33073 0.0992,-0.60358 z" />
        <path
           id="path1457"
           style="font-style:normal;font-variant:normal;font-weight:600;font-stretch:normal;font-size:8.46667px;font-family:StoneSansITCStd;-inkscape-font-specification:'StoneSansITCStd Semi-Bold';fill:#ffffff;fill-opacity:1;stroke-width:0.264583"
           d="m 171.12559,158.12929 h -1.11622 v -2.42259 q 0,-0.56224 -0.13229,-0.79375 -0.19843,-0.35554 -0.68626,-0.35554 -0.65319,0 -0.87643,0.51263 -0.0992,0.23978 -0.0992,0.77722 v 2.28203 h -1.12448 v -6.21771 h 1.12448 v 2.53834 q 0.56224,-0.60358 1.28984,-0.64492 0.0744,-0.008 0.14883,-0.008 0.97565,0 1.31465,0.71934 0.0165,0.0331 0.0331,0.0744 0.12403,0.3142 0.12403,1.05007 0,0.0413 0,0.0827 z" />
        <path
           id="path1459"
           style="font-style:normal;font-variant:normal;font-weight:600;font-stretch:normal;font-size:8.46667px;font-family:StoneSansITCStd;-inkscape-font-specification:'StoneSansITCStd Semi-Bold';fill:#ffffff;fill-opacity:1;stroke-width:0.264583"
           d="m 173.53164,158.12929 h -1.11621 v -6.21771 h 1.11621 z" />
        <path
           id="path1461"
           style="font-style:normal;font-variant:normal;font-weight:600;font-stretch:normal;font-size:8.46667px;font-family:StoneSansITCStd;-inkscape-font-specification:'StoneSansITCStd Semi-Bold';fill:#ffffff;fill-opacity:1;stroke-width:0.264583"
           d="m 145.08892,168.71263 h -1.11621 v -0.57051 q -0.56224,0.62838 -1.32292,0.66972 -0.0661,0 -0.12402,0 -1.02526,0 -1.33945,-0.78548 -0.12403,-0.35553 -0.12403,-1.14101 v -2.40606 h 1.11621 v 2.42259 q 0,0.56224 0.1323,0.79375 0.19843,0.35554 0.68626,0.35554 0.62838,0 0.86816,-0.5209 0.10749,-0.26459 0.10749,-0.77722 v -2.27376 h 1.11621 z" />
        <path
           id="path1463"
           style="font-style:normal;font-variant:normal;font-weight:600;font-stretch:normal;font-size:8.46667px;font-family:StoneSansITCStd;-inkscape-font-specification:'StoneSansITCStd Semi-Bold';fill:#ffffff;fill-opacity:1;stroke-width:0.264583"
           d="m 150.4054,168.71263 h -1.11622 v -2.4226 q 0,-0.56224 -0.13229,-0.79375 -0.19844,-0.35553 -0.68626,-0.35553 -0.65319,0 -0.87643,0.51263 -0.0992,0.25631 -0.0992,0.77721 v 2.28204 h -1.12448 v -4.23334 h 1.12448 v 0.57051 q 0.56224,-0.62839 1.32291,-0.66973 0.0661,0 0.12403,0 0.95085,0 1.30638,0.71107 0.0165,0.0413 0.0331,0.0827 0.12403,0.31419 0.12403,1.05007 0,0.0413 0,0.0827 z" />
        <path
           id="path1465"
           style="font-style:normal;font-variant:normal;font-weight:600;font-stretch:normal;font-size:8.46667px;font-family:StoneSansITCStd;-inkscape-font-specification:'StoneSansITCStd Semi-Bold';fill:#ffffff;fill-opacity:1;stroke-width:0.264583"
           d="m 155.82109,168.71263 h -1.09141 v -0.62839 q -0.55397,0.64492 -1.20716,0.71934 -0.10749,0.008 -0.22324,0.008 -1.017,0 -1.54616,-0.86816 -0.34727,-0.57878 -0.34727,-1.34772 0,-1.07487 0.69453,-1.71153 0.53744,-0.50436 1.30638,-0.50436 0.75241,0 1.2237,0.52917 0.0496,0.0579 0.0992,0.12402 v -2.53835 h 1.09141 z m -1.08314,-2.16628 q 0,-0.99219 -0.57051,-1.34772 -0.23151,-0.14883 -0.52917,-0.14883 -0.65319,0 -0.91777,0.68626 -0.13229,0.339 -0.13229,0.80202 0,1.00872 0.5209,1.42214 0.23151,0.19017 0.53743,0.19017 0.62012,0 0.90951,-0.66146 0.1819,-0.39688 0.1819,-0.94258 z" />
        <path
           id="path1467"
           style="font-style:normal;font-variant:normal;font-weight:600;font-stretch:normal;font-size:8.46667px;font-family:StoneSansITCStd;-inkscape-font-specification:'StoneSansITCStd Semi-Bold';fill:#ffffff;fill-opacity:1;stroke-width:0.264583"
           d="m 164.27122,168.71263 h -1.28157 l -0.54571,-1.62058 h -2.1332 l -0.62012,1.62058 h -0.98392 l 2.42259,-5.92833 h 0.91778 z m -2.06706,-2.33991 -0.77721,-2.28204 -0.86816,2.28204 z" />
        <path
           id="path1469"
           style="font-style:normal;font-variant:normal;font-weight:600;font-stretch:normal;font-size:8.46667px;font-family:StoneSansITCStd;-inkscape-font-specification:'StoneSansITCStd Semi-Bold';fill:#ffffff;fill-opacity:1;stroke-width:0.264583"
           d="m 168.95931,168.71263 h -1.11621 v -2.4226 q 0,-0.56224 -0.13229,-0.79375 -0.19844,-0.35553 -0.68627,-0.35553 -0.65319,0 -0.87643,0.51263 -0.0992,0.25631 -0.0992,0.77721 v 2.28204 h -1.12448 v -4.23334 h 1.12448 v 0.57051 q 0.56224,-0.62839 1.32292,-0.66973 0.0661,0 0.12402,0 0.95085,0 1.30638,0.71107 0.0165,0.0413 0.0331,0.0827 0.12402,0.31419 0.12402,1.05007 0,0.0413 0,0.0827 z" />
        <path
           id="path1471"
           style="font-style:normal;font-variant:normal;font-weight:600;font-stretch:normal;font-size:8.46667px;font-family:StoneSansITCStd;-inkscape-font-specification:'StoneSansITCStd Semi-Bold';fill:#ffffff;fill-opacity:1;stroke-width:0.264583"
           d="m 173.76315,168.71263 h -1.19062 q -0.0909,-0.26459 -0.0992,-0.57051 -0.55397,0.66972 -1.35599,0.66972 -0.62839,0 -0.98392,-0.48782 -0.23151,-0.32246 -0.23151,-0.73587 0,-0.76895 0.76894,-1.2237 0.45476,-0.25632 1.12448,-0.42168 l 0.7028,-0.1571 q -0.14883,-0.7028 -0.73587,-0.75241 -0.0579,-0.008 -0.11576,-0.008 -0.52916,0 -1.0666,0.45476 l -0.3638,-0.52917 q 0.7276,-0.57051 1.67018,-0.57051 1.00873,0 1.43041,0.57051 0.22324,0.31419 0.25631,0.81855 0.0165,0.19017 0.0165,0.46303 v 1.13274 q 0,0.81856 0.10749,1.15756 0.0248,0.0827 0.0661,0.19017 z m -1.25677,-1.88516 q 0,-0.008 -0.008,-0.41341 l -0.44648,0.11575 q -1.07487,0.25632 -1.07487,0.90124 0,0.39687 0.32246,0.56224 0.11575,0.0661 0.25631,0.0661 0.46302,0 0.74414,-0.40514 0.0744,-0.10749 0.10749,-0.22324 0.10749,-0.33073 0.0992,-0.60358 z" />
        <path
           id="path1473"
           style="font-style:normal;font-variant:normal;font-weight:600;font-stretch:normal;font-size:8.46667px;font-family:StoneSansITCStd;-inkscape-font-specification:'StoneSansITCStd Semi-Bold';fill:#ffffff;fill-opacity:1;stroke-width:0.264583"
           d="m 175.97904,168.71263 h -1.11621 v -6.21772 h 1.11621 z" />
        <path
           id="path1475"
           style="font-style:normal;font-variant:normal;font-weight:600;font-stretch:normal;font-size:8.46667px;font-family:StoneSansITCStd;-inkscape-font-specification:'StoneSansITCStd Semi-Bold';fill:#ffffff;fill-opacity:1;stroke-width:0.264583"
           d="m 180.93998,164.57851 -2.05052,4.67155 q -0.38034,0.84336 -0.68627,1.13275 -0.0331,0.0331 -0.0744,0.0661 -0.42168,0.36381 -1.21543,0.38034 -0.0496,0 -0.0992,0 h -0.26458 v -0.75241 h 0.22324 q 0.56224,0 0.82682,-0.27285 0.0909,-0.091 0.1819,-0.23151 0.1819,-0.26458 0.54571,-1.14101 l -1.64538,-3.81993 1.09967,-0.2067 1.08314,2.97656 1.19889,-2.97656 z" />
        <path
           id="path1477"
           style="font-style:normal;font-variant:normal;font-weight:600;font-stretch:normal;font-size:8.46667px;font-family:StoneSansITCStd;-inkscape-font-specification:'StoneSansITCStd Semi-Bold';fill:#ffffff;fill-opacity:1;stroke-width:0.264583"
           d="m 184.19766,167.5468 q 0,0.678 -0.62838,1.03353 -0.40515,0.23151 -0.95912,0.23151 -0.79375,0 -1.4056,-0.48782 l 0.3638,-0.59531 q 0.48783,0.42168 0.90124,0.42168 0.43822,0 0.57051,-0.32247 0.0331,-0.0909 0.0331,-0.19016 0,-0.25632 -0.25631,-0.47956 -0.1323,-0.13229 -0.46302,-0.3638 -0.52917,-0.38861 -0.69454,-0.60359 -0.22324,-0.29765 -0.22324,-0.64492 0,-0.64492 0.60358,-0.96738 0.3638,-0.19844 0.85163,-0.19844 0.66973,0 1.20716,0.34727 l -0.33073,0.52916 q -0.34726,-0.23151 -0.71106,-0.23151 -0.37208,0 -0.48783,0.26459 -0.0331,0.0661 -0.0331,0.14883 0,0.21497 0.31419,0.47955 0.0992,0.0827 0.26458,0.20671 0.77722,0.55397 0.95912,0.8847 0.12402,0.22324 0.12402,0.53743 z" />
        <path
           id="path1479"
           style="font-style:normal;font-variant:normal;font-weight:600;font-stretch:normal;font-size:8.46667px;font-family:StoneSansITCStd;-inkscape-font-specification:'StoneSansITCStd Semi-Bold';fill:#ffffff;fill-opacity:1;stroke-width:0.264583"
           d="m 188.86921,166.56288 q 0,0.008 -0.15709,0.091 -0.0579,0.0248 -0.0579,0.0496 h -2.55488 q 0.0165,0.89297 0.65319,1.23197 0.28938,0.1571 0.65319,0.1571 0.5457,0 1.09967,-0.339 l 0.31419,0.58704 q -0.83509,0.47129 -1.65364,0.47129 -0.92604,0 -1.53789,-0.5705 -0.68627,-0.7028 -0.7028,-1.71153 0,-0.93431 0.59531,-1.54616 0.0165,-0.0165 0.0331,-0.0331 0.59532,-0.57051 1.50482,-0.57051 1.14928,0 1.57923,0.92604 0.22325,0.50437 0.23151,1.25677 z m -1.00045,-0.42168 -0.008,-0.19843 v -0.008 q -0.14056,-0.90951 -0.81029,-0.95912 -0.65319,0 -0.85989,0.69454 -0.0662,0.21497 -0.0744,0.47128 z" />
      </g>
      <g
         style="font-style:normal;font-variant:normal;font-weight:normal;font-stretch:normal;font-size:8.46667px;line-height:1.25;font-family:StoneSansITCStd;-inkscape-font-specification:StoneSansITCStd;letter-spacing:0px;word-spacing:0px;fill:#ffffff;fill-opacity:1;stroke:none;stroke-width:0.264583"
         id="text1036-2"
         aria-label="Nachnutzung">
        <path
           id="path1482"
           style="font-style:normal;font-variant:normal;font-weight:600;font-stretch:normal;font-size:8.46667px;font-family:StoneSansITCStd;-inkscape-font-specification:'StoneSansITCStd Semi-Bold';fill:#ffffff;fill-opacity:1;stroke-width:0.264583"
           d="m 25.289893,98.519539 h -0.785482 l -3.199806,-4.125848 v 4.125848 h -0.950846 v -5.928323 h 0.79375 l 3.183269,4.125848 v -4.125848 h 0.959115 z" />
        <path
           id="path1484"
           style="font-style:normal;font-variant:normal;font-weight:600;font-stretch:normal;font-size:8.46667px;font-family:StoneSansITCStd;-inkscape-font-specification:'StoneSansITCStd Semi-Bold';fill:#ffffff;fill-opacity:1;stroke-width:0.264583"
           d="m 30.168151,98.519539 h -1.190626 q -0.09095,-0.264584 -0.09922,-0.570508 -0.553971,0.669727 -1.35599,0.669727 -0.628385,0 -0.983919,-0.487826 -0.231511,-0.322461 -0.231511,-0.735873 0,-0.768945 0.768946,-1.223698 0.454752,-0.256315 1.124479,-0.42168 l 0.7028,-0.157096 q -0.148828,-0.7028 -0.735873,-0.75241 -0.05788,-0.0083 -0.115755,-0.0083 -0.529167,0 -1.066602,0.454753 l -0.363802,-0.529167 q 0.727604,-0.570508 1.670183,-0.570508 1.008724,0 1.430404,0.570508 0.223242,0.314193 0.256315,0.818555 0.01654,0.190169 0.01654,0.463021 v 1.132748 q 0,0.818555 0.107487,1.157553 0.0248,0.08268 0.06615,0.190169 z m -1.256772,-1.885157 q 0,-0.0083 -0.0083,-0.413412 l -0.446485,0.115756 q -1.07487,0.256315 -1.07487,0.901237 0,0.396875 0.322461,0.56224 0.115756,0.06615 0.256316,0.06615 0.463021,0 0.74414,-0.405144 0.07442,-0.107487 0.107487,-0.223242 0.107487,-0.330729 0.09922,-0.603581 z" />
        <path
           id="path1486"
           style="font-style:normal;font-variant:normal;font-weight:600;font-stretch:normal;font-size:8.46667px;font-family:StoneSansITCStd;-inkscape-font-specification:'StoneSansITCStd Semi-Bold';fill:#ffffff;fill-opacity:1;stroke-width:0.264583"
           d="m 34.674338,98.213614 q -0.644922,0.405144 -1.463477,0.405144 -1.066602,0 -1.703256,-0.727605 -0.529167,-0.595313 -0.529167,-1.471745 0,-1.041797 0.760677,-1.68672 0.653191,-0.545703 1.595769,-0.545703 0.719336,0 1.281576,0.347266 l -0.330729,0.587044 q -0.405144,-0.190169 -0.810287,-0.190169 -0.785482,0 -1.12448,0.636654 -0.190169,0.338997 -0.190169,0.802018 0,0.876433 0.578776,1.281576 0.322461,0.223243 0.744141,0.223243 0.413412,0 0.892969,-0.264584 z" />
        <path
           id="path1488"
           style="font-style:normal;font-variant:normal;font-weight:600;font-stretch:normal;font-size:8.46667px;font-family:StoneSansITCStd;-inkscape-font-specification:'StoneSansITCStd Semi-Bold';fill:#ffffff;fill-opacity:1;stroke-width:0.264583"
           d="m 39.519522,98.519539 h -1.116211 v -2.422592 q 0,-0.56224 -0.132292,-0.793751 -0.198438,-0.355534 -0.686263,-0.355534 -0.653191,0 -0.876433,0.512631 -0.09922,0.239779 -0.09922,0.777214 v 2.282032 h -1.124479 v -6.217711 h 1.124479 v 2.538347 q 0.56224,-0.603581 1.289845,-0.644922 0.07441,-0.0083 0.148828,-0.0083 0.975651,0 1.314649,0.719336 0.01654,0.03307 0.03307,0.07441 0.124023,0.314193 0.124023,1.050066 0,0.04134 0,0.08268 z" />
        <path
           id="path1490"
           style="font-style:normal;font-variant:normal;font-weight:600;font-stretch:normal;font-size:8.46667px;font-family:StoneSansITCStd;-inkscape-font-specification:'StoneSansITCStd Semi-Bold';fill:#ffffff;fill-opacity:1;stroke-width:0.264583"
           d="m 44.844264,98.519539 h -1.116212 v -2.422592 q 0,-0.56224 -0.132292,-0.793751 -0.198437,-0.355534 -0.686263,-0.355534 -0.65319,0 -0.876432,0.512631 -0.09922,0.256315 -0.09922,0.777214 v 2.282032 h -1.12448 v -4.233335 h 1.12448 v 0.570508 q 0.56224,-0.628386 1.322917,-0.669727 0.06615,0 0.124023,0 0.950847,0 1.306381,0.711068 0.01654,0.04134 0.03307,0.08268 0.124024,0.314193 0.124024,1.050066 0,0.04134 0,0.08268 z" />
        <path
           id="path1492"
           style="font-style:normal;font-variant:normal;font-weight:600;font-stretch:normal;font-size:8.46667px;font-family:StoneSansITCStd;-inkscape-font-specification:'StoneSansITCStd Semi-Bold';fill:#ffffff;fill-opacity:1;stroke-width:0.264583"
           d="m 50.111127,98.519539 h -1.116211 v -0.570508 q -0.56224,0.628386 -1.322917,0.669727 -0.06615,0 -0.124024,0 -1.025261,0 -1.339453,-0.785482 -0.124024,-0.355534 -0.124024,-1.141016 v -2.406056 h 1.116211 v 2.422592 q 0,0.56224 0.132292,0.79375 0.198438,0.355534 0.686263,0.355534 0.628386,0 0.868165,-0.520898 0.107487,-0.264584 0.107487,-0.777214 v -2.273764 h 1.116211 z" />
        <path
           id="path1494"
           style="font-style:normal;font-variant:normal;font-weight:600;font-stretch:normal;font-size:8.46667px;font-family:StoneSansITCStd;-inkscape-font-specification:'StoneSansITCStd Semi-Bold';fill:#ffffff;fill-opacity:1;stroke-width:0.264583"
           d="m 53.964124,98.354174 q -0.578776,0.264584 -1.141016,0.264584 -0.752409,0 -1.083138,-0.487826 -0.181901,-0.264583 -0.206706,-0.7028 -0.0083,-0.148828 -0.0083,-0.388607 V 94.86498 h -0.587045 v -0.578776 h 0.587045 v -1.025261 l 1.116211,-0.248047 v 1.273308 h 1.116211 v 0.578776 h -1.116211 v 1.943035 q 0,0.884701 0.289388,1.058334 0.115755,0.07441 0.305925,0.07441 0.272851,0 0.537435,-0.132292 z" />
        <path
           id="path1496"
           style="font-style:normal;font-variant:normal;font-weight:600;font-stretch:normal;font-size:8.46667px;font-family:StoneSansITCStd;-inkscape-font-specification:'StoneSansITCStd Semi-Bold';fill:#ffffff;fill-opacity:1;stroke-width:0.264583"
           d="m 57.891534,98.519539 h -3.74551 v -0.322461 l 2.397788,-3.257684 h -1.926498 v -0.65319 h 3.232878 v 0.405143 l -2.240691,3.150197 h 2.282033 z" />
        <path
           id="path1498"
           style="font-style:normal;font-variant:normal;font-weight:600;font-stretch:normal;font-size:8.46667px;font-family:StoneSansITCStd;-inkscape-font-specification:'StoneSansITCStd Semi-Bold';fill:#ffffff;fill-opacity:1;stroke-width:0.264583"
           d="m 62.744987,98.519539 h -1.116211 v -0.570508 q -0.56224,0.628386 -1.322918,0.669727 -0.06615,0 -0.124023,0 -1.025261,0 -1.339454,-0.785482 -0.124023,-0.355534 -0.124023,-1.141016 v -2.406056 h 1.116211 v 2.422592 q 0,0.56224 0.132292,0.79375 0.198437,0.355534 0.686263,0.355534 0.628386,0 0.868165,-0.520898 0.107487,-0.264584 0.107487,-0.777214 v -2.273764 h 1.116211 z" />
        <path
           id="path1500"
           style="font-style:normal;font-variant:normal;font-weight:600;font-stretch:normal;font-size:8.46667px;font-family:StoneSansITCStd;-inkscape-font-specification:'StoneSansITCStd Semi-Bold';fill:#ffffff;fill-opacity:1;stroke-width:0.264583"
           d="m 68.061459,98.519539 h -1.116211 v -2.422592 q 0,-0.56224 -0.132292,-0.793751 -0.198438,-0.355534 -0.686263,-0.355534 -0.653191,0 -0.876433,0.512631 -0.09922,0.256315 -0.09922,0.777214 v 2.282032 h -1.124479 v -4.233335 h 1.124479 v 0.570508 q 0.56224,-0.628386 1.322917,-0.669727 0.06615,0 0.124024,0 0.950847,0 1.306381,0.711068 0.01654,0.04134 0.03307,0.08268 0.124023,0.314193 0.124023,1.050066 0,0.04134 0,0.08268 z" />
        <path
           id="path1502"
           style="font-style:normal;font-variant:normal;font-weight:600;font-stretch:normal;font-size:8.46667px;font-family:StoneSansITCStd;-inkscape-font-specification:'StoneSansITCStd Semi-Bold';fill:#ffffff;fill-opacity:1;stroke-width:0.264583"
           d="m 73.444078,97.651374 q 0,0.934311 -0.07441,1.273308 0,0.01654 -0.0083,0.03307 -0.396875,1.678458 -2.257228,1.678458 -0.975651,0 -1.785938,-0.40515 l 0.214974,-0.694532 q 0.719336,0.372071 1.380795,0.380339 0.959115,0 1.281576,-0.694531 0.14056,-0.322461 0.14056,-1.000456 v -0.33073 q -0.504362,0.611849 -1.066602,0.7028 -0.148828,0.02481 -0.322461,0.02481 -1.033529,0 -1.554428,-0.884701 -0.330729,-0.56224 -0.330729,-1.314649 0,-1.07487 0.686263,-1.719793 0.545703,-0.51263 1.298113,-0.51263 0.835091,0 1.289844,0.677995 v -0.578776 h 1.107943 z m -1.107943,-1.298112 q 0,-1.058334 -0.611849,-1.389063 -0.206706,-0.107487 -0.47129,-0.107487 -0.669726,0 -0.909505,0.744141 -0.09922,0.322461 -0.09922,0.744141 0,0.992188 0.504362,1.413867 0.231511,0.198438 0.529167,0.198438 0.587045,0 0.876433,-0.644922 0.181901,-0.405143 0.181902,-0.959115 z" />
      </g>
      <g
         style="font-style:normal;font-variant:normal;font-weight:normal;font-stretch:normal;font-size:8.46667px;line-height:1.25;font-family:StoneSansITCStd;-inkscape-font-specification:StoneSansITCStd;letter-spacing:0px;word-spacing:0px;fill:#ffffff;fill-opacity:1;stroke:none;stroke-width:0.264583"
         id="text1036-2-6"
         aria-label="Publikation">
        <path
           id="path1505"
           style="font-style:normal;font-variant:normal;font-weight:600;font-stretch:normal;font-size:8.46667px;font-family:StoneSansITCStd;-inkscape-font-specification:'StoneSansITCStd Semi-Bold';fill:#ffffff;fill-opacity:1;stroke-width:0.264583"
           d="m 28.576515,160.17155 q 0,1.02526 -0.851628,1.5875 -0.644922,0.42168 -1.595769,0.42995 v -0.72761 q 1.248503,-0.0992 1.248503,-1.17409 0,-0.66972 -0.496094,-0.8847 -0.248047,-0.10748 -0.818555,-0.10748 h -0.330729 v 5.13457 h -1.174089 v -5.92833 h 1.562696 q 1.058334,0 1.455209,0.16537 0.124023,0.0579 0.264583,0.14056 0.735873,0.45475 0.735873,1.36426 z" />
        <path
           id="path1507"
           style="font-style:normal;font-variant:normal;font-weight:600;font-stretch:normal;font-size:8.46667px;font-family:StoneSansITCStd;-inkscape-font-specification:'StoneSansITCStd Semi-Bold';fill:#ffffff;fill-opacity:1;stroke-width:0.264583"
           d="m 33.51265,164.42969 h -1.116211 v -0.57051 q -0.56224,0.62839 -1.322918,0.66973 -0.06615,0 -0.124023,0 -1.025261,0 -1.339454,-0.78549 -0.124023,-0.35553 -0.124023,-1.14101 v -2.40606 h 1.116211 v 2.42259 q 0,0.56224 0.132292,0.79375 0.198437,0.35554 0.686263,0.35554 0.628386,0 0.868165,-0.5209 0.107487,-0.26458 0.107487,-0.77721 v -2.27377 h 1.116211 z" />
        <path
           id="path1509"
           style="font-style:normal;font-variant:normal;font-weight:600;font-stretch:normal;font-size:8.46667px;font-family:StoneSansITCStd;-inkscape-font-specification:'StoneSansITCStd Semi-Bold';fill:#ffffff;fill-opacity:1;stroke-width:0.264583"
           d="m 39.201193,162.22207 q 0,1.09141 -0.686263,1.76113 -0.553971,0.54571 -1.331185,0.54571 -0.603581,0 -1.025261,-0.38861 -0.132292,-0.11576 -0.272852,-0.28112 v 0.57051 h -1.091406 v -6.21771 h 1.091406 v 2.60449 q 0.56224,-0.71934 1.446941,-0.71934 0.975651,0 1.488282,0.76895 0.380338,0.55397 0.380338,1.35599 z m -1.182357,0.0413 q 0,-1.02526 -0.570508,-1.37253 -0.206706,-0.12402 -0.471289,-0.12402 -0.661459,0 -0.942579,0.69453 -0.157096,0.37207 -0.157096,0.8847 0,1.05007 0.595313,1.38907 0.214974,0.13229 0.496094,0.13229 0.413411,0 0.677995,-0.3142 0.37207,-0.46302 0.37207,-1.28984 z" />
        <path
           id="path1511"
           style="font-style:normal;font-variant:normal;font-weight:600;font-stretch:normal;font-size:8.46667px;font-family:StoneSansITCStd;-inkscape-font-specification:'StoneSansITCStd Semi-Bold';fill:#ffffff;fill-opacity:1;stroke-width:0.264583"
           d="M 41.317862,164.42969 H 40.20165 v -6.21771 h 1.116212 z" />
        <path
           id="path1513"
           style="font-style:normal;font-variant:normal;font-weight:600;font-stretch:normal;font-size:8.46667px;font-family:StoneSansITCStd;-inkscape-font-specification:'StoneSansITCStd Semi-Bold';fill:#ffffff;fill-opacity:1;stroke-width:0.264583"
           d="m 43.872745,158.88997 q 0,0.38034 -0.322461,0.56224 -0.14056,0.0827 -0.305924,0.0827 -0.380339,0 -0.56224,-0.32246 -0.08268,-0.14056 -0.08268,-0.29765 0,-0.47129 0.396875,-0.61185 0.115755,-0.0413 0.256315,-0.0413 0.396875,0 0.553972,0.33899 0.06614,0.1323 0.06614,0.28939 z m -0.07441,5.53972 H 42.68212 v -4.23334 h 1.116211 z" />
        <path
           id="path1515"
           style="font-style:normal;font-variant:normal;font-weight:600;font-stretch:normal;font-size:8.46667px;font-family:StoneSansITCStd;-inkscape-font-specification:'StoneSansITCStd Semi-Bold';fill:#ffffff;fill-opacity:1;stroke-width:0.264583"
           d="m 49.015586,164.14857 -1.041797,0.3638 -1.686719,-2.33164 v 2.24896 h -1.12448 v -6.21771 h 1.12448 v 3.65456 h 0.115755 l 1.504818,-1.73633 0.84336,0.3638 -1.438673,1.53789 z" />
        <path
           id="path1517"
           style="font-style:normal;font-variant:normal;font-weight:600;font-stretch:normal;font-size:8.46667px;font-family:StoneSansITCStd;-inkscape-font-specification:'StoneSansITCStd Semi-Bold';fill:#ffffff;fill-opacity:1;stroke-width:0.264583"
           d="M 53.174506,164.42969 H 51.98388 q -0.09095,-0.26459 -0.09922,-0.57051 -0.553972,0.66973 -1.355991,0.66973 -0.628385,0 -0.983919,-0.48783 -0.231511,-0.32246 -0.231511,-0.73587 0,-0.76895 0.768946,-1.2237 0.454753,-0.25632 1.12448,-0.42168 l 0.702799,-0.1571 q -0.148828,-0.7028 -0.735872,-0.75241 -0.05788,-0.008 -0.115756,-0.008 -0.529167,0 -1.066602,0.45475 l -0.363802,-0.52917 q 0.727605,-0.57051 1.670183,-0.57051 1.008724,0 1.430404,0.57051 0.223243,0.31419 0.256316,0.81856 0.01654,0.19017 0.01654,0.46302 v 1.13275 q 0,0.81855 0.107487,1.15755 0.02481,0.0827 0.06615,0.19017 z m -1.256771,-1.88516 q 0,-0.008 -0.0083,-0.41341 l -0.446484,0.11575 q -1.07487,0.25632 -1.07487,0.90124 0,0.39688 0.322461,0.56224 0.115755,0.0661 0.256315,0.0661 0.463021,0 0.744141,-0.40515 0.07441,-0.10748 0.107487,-0.22324 0.107487,-0.33073 0.09922,-0.60358 z" />
        <path
           id="path1519"
           style="font-style:normal;font-variant:normal;font-weight:600;font-stretch:normal;font-size:8.46667px;font-family:StoneSansITCStd;-inkscape-font-specification:'StoneSansITCStd Semi-Bold';fill:#ffffff;fill-opacity:1;stroke-width:0.264583"
           d="m 56.845602,164.26432 q -0.578777,0.26459 -1.141017,0.26459 -0.752409,0 -1.083138,-0.48783 -0.181901,-0.26458 -0.206706,-0.7028 -0.0083,-0.14883 -0.0083,-0.38861 v -2.17454 h -0.587045 v -0.57878 h 0.587045 v -1.02526 l 1.116211,-0.24805 v 1.27331 h 1.116212 v 0.57878 h -1.116212 v 1.94303 q 0,0.8847 0.289388,1.05834 0.115756,0.0744 0.305925,0.0744 0.272852,0 0.537435,-0.13229 z" />
        <path
           id="path1521"
           style="font-style:normal;font-variant:normal;font-weight:600;font-stretch:normal;font-size:8.46667px;font-family:StoneSansITCStd;-inkscape-font-specification:'StoneSansITCStd Semi-Bold';fill:#ffffff;fill-opacity:1;stroke-width:0.264583"
           d="m 58.788635,158.88997 q 0,0.38034 -0.322461,0.56224 -0.14056,0.0827 -0.305925,0.0827 -0.380338,0 -0.562239,-0.32246 -0.08268,-0.14056 -0.08268,-0.29765 0,-0.47129 0.396875,-0.61185 0.115756,-0.0413 0.256316,-0.0413 0.396875,0 0.553971,0.33899 0.06615,0.1323 0.06615,0.28939 z m -0.07441,5.53972 H 57.59801 v -4.23334 h 1.116211 z" />
        <path
           id="path1523"
           style="font-style:normal;font-variant:normal;font-weight:600;font-stretch:normal;font-size:8.46667px;font-family:StoneSansITCStd;-inkscape-font-specification:'StoneSansITCStd Semi-Bold';fill:#ffffff;fill-opacity:1;stroke-width:0.264583"
           d="m 64.212596,162.27995 q 0,1.0914 -0.744141,1.73633 -0.603581,0.51263 -1.463477,0.51263 -1.083139,0 -1.711524,-0.76068 -0.504362,-0.60358 -0.504362,-1.48001 0,-1.08314 0.760677,-1.70326 0.603581,-0.48783 1.471745,-0.48783 1.016993,0 1.653647,0.71934 0.537435,0.61185 0.537435,1.46348 z m -1.165821,0.008 q 0,-1.16583 -0.636654,-1.48002 -0.190169,-0.0992 -0.42168,-0.0992 -0.628385,0 -0.892969,0.69453 -0.148828,0.37207 -0.148828,0.88471 0,1.18235 0.620117,1.52135 0.198438,0.10749 0.438217,0.10749 0.677995,0 0.926042,-0.78548 0.115755,-0.35554 0.115755,-0.84336 z" />
        <path
           id="path1525"
           style="font-style:normal;font-variant:normal;font-weight:600;font-stretch:normal;font-size:8.46667px;font-family:StoneSansITCStd;-inkscape-font-specification:'StoneSansITCStd Semi-Bold';fill:#ffffff;fill-opacity:1;stroke-width:0.264583"
           d="M 69.239682,164.42969 H 68.12347 v -2.42259 q 0,-0.56224 -0.132291,-0.79375 -0.198438,-0.35554 -0.686264,-0.35554 -0.65319,0 -0.876432,0.51263 -0.09922,0.25632 -0.09922,0.77722 v 2.28203 h -1.12448 v -4.23334 h 1.12448 v 0.57051 q 0.56224,-0.62839 1.322917,-0.66973 0.06615,0 0.124024,0 0.950846,0 1.30638,0.71107 0.01654,0.0413 0.03307,0.0827 0.124024,0.3142 0.124024,1.05007 0,0.0413 0,0.0827 z" />
      </g>
      <g
         style="font-style:normal;font-variant:normal;font-weight:normal;font-stretch:normal;font-size:8.46667px;line-height:1.25;font-family:StoneSansITCStd;-inkscape-font-specification:StoneSansITCStd;letter-spacing:0px;word-spacing:0px;fill:#ffffff;fill-opacity:1;stroke:none;stroke-width:0.264583"
         id="text1036-2-6-9"
         aria-label="Archivierung">
        <path
           id="path1528"
           style="font-style:normal;font-variant:normal;font-weight:600;font-stretch:normal;font-size:8.46667px;font-family:StoneSansITCStd;-inkscape-font-specification:'StoneSansITCStd Semi-Bold';fill:#ffffff;fill-opacity:1;stroke-width:0.264583"
           d="m 81.425303,192.55333 h -1.281576 l -0.545704,-1.62057 h -2.133204 l -0.620117,1.62057 h -0.98392 l 2.422592,-5.92832 h 0.917774 z m -2.067058,-2.33991 -0.777214,-2.28203 -0.868165,2.28203 z" />
        <path
           id="path1530"
           style="font-style:normal;font-variant:normal;font-weight:600;font-stretch:normal;font-size:8.46667px;font-family:StoneSansITCStd;-inkscape-font-specification:'StoneSansITCStd Semi-Bold';fill:#ffffff;fill-opacity:1;stroke-width:0.264583"
           d="m 84.914497,188.60938 -0.413412,0.80202 q -0.37207,-0.17363 -0.537435,-0.17363 -0.42168,0 -0.636654,0.43821 -0.0083,0.0331 -0.02481,0.0661 -0.107487,0.32246 -0.107487,1.00872 v 1.80248 h -1.116211 v -4.23334 h 1.116211 v 0.74415 l 0.157097,-0.27286 q 0.347266,-0.5705 0.777214,-0.5705 0.363802,0 0.785482,0.3886 z" />
        <path
           id="path1532"
           style="font-style:normal;font-variant:normal;font-weight:600;font-stretch:normal;font-size:8.46667px;font-family:StoneSansITCStd;-inkscape-font-specification:'StoneSansITCStd Semi-Bold';fill:#ffffff;fill-opacity:1;stroke-width:0.264583"
           d="m 88.775761,192.2474 q -0.644922,0.40515 -1.463477,0.40515 -1.066602,0 -1.703256,-0.72761 -0.529167,-0.59531 -0.529167,-1.47174 0,-1.0418 0.760677,-1.68672 0.653191,-0.5457 1.595769,-0.5457 0.719337,0 1.281576,0.34726 l -0.330729,0.58705 q -0.405143,-0.19017 -0.810287,-0.19017 -0.785482,0 -1.124479,0.63665 -0.19017,0.339 -0.19017,0.80202 0,0.87643 0.578777,1.28158 0.322461,0.22324 0.744141,0.22324 0.413411,0 0.892969,-0.26459 z" />
        <path
           id="path1534"
           style="font-style:normal;font-variant:normal;font-weight:600;font-stretch:normal;font-size:8.46667px;font-family:StoneSansITCStd;-inkscape-font-specification:'StoneSansITCStd Semi-Bold';fill:#ffffff;fill-opacity:1;stroke-width:0.264583"
           d="m 93.620945,192.55333 h -1.116211 v -2.42259 q 0,-0.56224 -0.132292,-0.79375 -0.198437,-0.35554 -0.686263,-0.35554 -0.65319,0 -0.876433,0.51263 -0.09922,0.23978 -0.09922,0.77722 v 2.28203 h -1.12448 v -6.21771 h 1.12448 v 2.53835 q 0.562239,-0.60358 1.289844,-0.64493 0.07441,-0.008 0.148828,-0.008 0.975651,0 1.314649,0.71933 0.01654,0.0331 0.03307,0.0744 0.124023,0.31419 0.124023,1.05006 0,0.0413 0,0.0827 z" />
        <path
           id="path1536"
           style="font-style:normal;font-variant:normal;font-weight:600;font-stretch:normal;font-size:8.46667px;font-family:StoneSansITCStd;-inkscape-font-specification:'StoneSansITCStd Semi-Bold';fill:#ffffff;fill-opacity:1;stroke-width:0.264583"
           d="m 96.184097,187.01361 q 0,0.38034 -0.322461,0.56224 -0.14056,0.0827 -0.305925,0.0827 -0.380338,0 -0.562239,-0.32247 -0.08268,-0.14056 -0.08268,-0.29765 0,-0.47129 0.396876,-0.61185 0.115755,-0.0413 0.256315,-0.0413 0.396875,0 0.553971,0.339 0.06615,0.13229 0.06615,0.28938 z m -0.07441,5.53972 h -1.116211 v -4.23334 h 1.116211 z" />
        <path
           id="path1538"
           style="font-style:normal;font-variant:normal;font-weight:600;font-stretch:normal;font-size:8.46667px;font-family:StoneSansITCStd;-inkscape-font-specification:'StoneSansITCStd Semi-Bold';fill:#ffffff;fill-opacity:1;stroke-width:0.264583"
           d="m 101.17811,188.41095 -1.819011,4.14238 h -0.768946 l -1.694988,-4.10931 1.107944,-0.19844 1.099674,2.96003 1.174087,-2.96003 z" />
        <path
           id="path1540"
           style="font-style:normal;font-variant:normal;font-weight:600;font-stretch:normal;font-size:8.46667px;font-family:StoneSansITCStd;-inkscape-font-specification:'StoneSansITCStd Semi-Bold';fill:#ffffff;fill-opacity:1;stroke-width:0.264583"
           d="m 103.16248,187.01361 q 0,0.38034 -0.32246,0.56224 -0.14056,0.0827 -0.30592,0.0827 -0.38034,0 -0.56224,-0.32247 -0.0827,-0.14056 -0.0827,-0.29765 0,-0.47129 0.39687,-0.61185 0.11576,-0.0413 0.25632,-0.0413 0.39687,0 0.55397,0.339 0.0661,0.13229 0.0661,0.28938 z m -0.0744,5.53972 h -1.11621 v -4.23334 h 1.11621 z" />
        <path
           id="path1542"
           style="font-style:normal;font-variant:normal;font-weight:600;font-stretch:normal;font-size:8.46667px;font-family:StoneSansITCStd;-inkscape-font-specification:'StoneSansITCStd Semi-Bold';fill:#ffffff;fill-opacity:1;stroke-width:0.264583"
           d="m 108.10689,190.40359 q 0,0.008 -0.1571,0.0909 -0.0579,0.0248 -0.0579,0.0496 h -2.55488 q 0.0165,0.89297 0.65319,1.23197 0.28939,0.15709 0.65319,0.15709 0.5457,0 1.09968,-0.339 l 0.31419,0.58705 q -0.83509,0.47129 -1.65365,0.47129 -0.92604,0 -1.53789,-0.57051 -0.68626,-0.7028 -0.7028,-1.71152 0,-0.93431 0.59531,-1.54616 0.0165,-0.0165 0.0331,-0.0331 0.59531,-0.5705 1.50482,-0.5705 1.14928,0 1.57923,0.92604 0.22324,0.50436 0.23151,1.25677 z m -1.00046,-0.42168 -0.008,-0.19844 v -0.008 q -0.14056,-0.9095 -0.81028,-0.95911 -0.65319,0 -0.8599,0.69453 -0.0661,0.21497 -0.0744,0.47129 z" />
        <path
           id="path1544"
           style="font-style:normal;font-variant:normal;font-weight:600;font-stretch:normal;font-size:8.46667px;font-family:StoneSansITCStd;-inkscape-font-specification:'StoneSansITCStd Semi-Bold';fill:#ffffff;fill-opacity:1;stroke-width:0.264583"
           d="m 111.95162,188.60938 -0.41341,0.80202 q -0.37207,-0.17363 -0.53744,-0.17363 -0.42168,0 -0.63665,0.43821 -0.008,0.0331 -0.0248,0.0661 -0.10748,0.32246 -0.10748,1.00872 v 1.80248 h -1.11622 v -4.23334 h 1.11622 v 0.74415 l 0.15709,-0.27286 q 0.34727,-0.5705 0.77722,-0.5705 0.3638,0 0.78548,0.3886 z" />
        <path
           id="path1546"
           style="font-style:normal;font-variant:normal;font-weight:600;font-stretch:normal;font-size:8.46667px;font-family:StoneSansITCStd;-inkscape-font-specification:'StoneSansITCStd Semi-Bold';fill:#ffffff;fill-opacity:1;stroke-width:0.264583"
           d="m 116.54875,192.55333 h -1.11621 v -0.57051 q -0.56224,0.62839 -1.32292,0.66973 -0.0661,0 -0.12402,0 -1.02526,0 -1.33945,-0.78548 -0.12403,-0.35554 -0.12403,-1.14102 v -2.40606 h 1.11622 v 2.4226 q 0,0.56224 0.13229,0.79375 0.19843,0.35553 0.68626,0.35553 0.62839,0 0.86816,-0.5209 0.10749,-0.26458 0.10749,-0.77721 v -2.27377 h 1.11621 z" />
        <path
           id="path1548"
           style="font-style:normal;font-variant:normal;font-weight:600;font-stretch:normal;font-size:8.46667px;font-family:StoneSansITCStd;-inkscape-font-specification:'StoneSansITCStd Semi-Bold';fill:#ffffff;fill-opacity:1;stroke-width:0.264583"
           d="m 121.86523,192.55333 h -1.11621 v -2.42259 q 0,-0.56224 -0.13229,-0.79375 -0.19844,-0.35554 -0.68627,-0.35554 -0.65319,0 -0.87643,0.51263 -0.0992,0.25632 -0.0992,0.77722 v 2.28203 h -1.12448 v -4.23334 h 1.12448 v 0.57051 q 0.56224,-0.62838 1.32292,-0.66972 0.0661,0 0.12402,0 0.95085,0 1.30638,0.71106 0.0165,0.0413 0.0331,0.0827 0.12402,0.31419 0.12402,1.05006 0,0.0413 0,0.0827 z" />
        <path
           id="path1550"
           style="font-style:normal;font-variant:normal;font-weight:600;font-stretch:normal;font-size:8.46667px;font-family:StoneSansITCStd;-inkscape-font-specification:'StoneSansITCStd Semi-Bold';fill:#ffffff;fill-opacity:1;stroke-width:0.264583"
           d="m 127.24785,191.68517 q 0,0.93431 -0.0744,1.2733 0,0.0165 -0.008,0.0331 -0.39688,1.67845 -2.25723,1.67845 -0.97565,0 -1.78594,-0.40515 l 0.21497,-0.69453 q 0.71934,0.37207 1.3808,0.38034 0.95911,0 1.28158,-0.69453 0.14055,-0.32246 0.14055,-1.00046 v -0.33073 q -0.50436,0.61185 -1.0666,0.7028 -0.14883,0.0248 -0.32246,0.0248 -1.03353,0 -1.55443,-0.8847 -0.33073,-0.56224 -0.33073,-1.31465 0,-1.07487 0.68627,-1.71979 0.5457,-0.51263 1.29811,-0.51263 0.83509,0 1.28984,0.67799 V 188.32 h 1.10795 z m -1.10795,-1.29812 q 0,-1.05833 -0.61184,-1.38906 -0.20671,-0.10749 -0.47129,-0.10749 -0.66973,0 -0.90951,0.74414 -0.0992,0.32246 -0.0992,0.74414 0,0.99219 0.50436,1.41387 0.23151,0.19844 0.52917,0.19844 0.58705,0 0.87643,-0.64492 0.1819,-0.40515 0.1819,-0.95912 z" />
      </g>
    </g>
  </g>
</svg>
