<?xml version="1.0" encoding="utf-8" standalone="yes"?><svg xmlns:xlink="http://www.w3.org/1999/xlink" xmlns="http://www.w3.org/2000/svg" focusable="false" preserveAspectRatio="xMinYMin" width="778" height="604" viewBox="-362.25 -298.8 777.96  603.73" style="background-color:white"><path d="M-178.9,-95.6  C-178.9,-93.5 ,-178.9,-78.7  -205.2,-78.7 " stroke-width="2" stroke="#345780" stroke-dasharray="" stroke-linecap="" stroke-opacity="1" fill="none" fill-opacity="0" visibility="visible" style="opacity: 1;"/><rect width="103" height="33" rx="0" ry="0" x="81" y="-160" stroke-width="1" stroke="#FF9933" stroke-dasharray="" stroke-linecap="" fill="#CC0033" stroke-opacity="0.4" fill-opacity="0.4" visibility="hidden" style="opacity: 0;"/><path d="M216.7,-143.7  C205.2,-138.8  193.8,-134.5  182.3,-130.1   193.8,-134.1  205.2,-138.1  216.7,-142.7  Z" stroke-width="1" stroke="#CC0033" stroke-dasharray="" stroke-linecap="" stroke-opacity="0.4" fill-opacity="0.4" visibility="hidden" style="opacity: 0;"/><path d="M-91.0,-65.7  C-60.7,-43.5  -30.3,-21.7  0.0,0.0   -30.3,-21.3  -60.7,-42.8  -91.0,-64.7  Z" stroke-width="1" stroke="#CC0033" stroke-dasharray="" stroke-linecap="" stroke-opacity="0.4" fill-opacity="0.4" visibility="hidden" style="opacity: 0;"/><path d="M-178.9,-95.6  C-178.9,-98.0 ,-178.9,-114.9  -205.2,-114.9 " stroke-width="2" stroke="#345780" stroke-dasharray="" stroke-linecap="" stroke-opacity="1" fill="none" fill-opacity="0" visibility="visible" style="opacity: 1;"/><path d="M-208.5,-5.0  C-208.5,-0.6 ,-208.5,30.0  -234.8,30.0 " stroke-width="2" stroke="#345780" stroke-dasharray="" stroke-linecap="" stroke-opacity="1" fill="none" fill-opacity="0" visibility="visible" style="opacity: 1;"/><path d="M-208.5,-5.0  C-208.5,-5.2 ,-208.5,-6.2  -234.8,-6.2 " stroke-width="2" stroke="#345780" stroke-dasharray="" stroke-linecap="" stroke-opacity="1" fill="none" fill-opacity="0" visibility="visible" style="opacity: 1;"/><path d="M-208.5,-5.0  C-208.5,-9.7 ,-208.5,-42.5  -234.8,-42.5 " stroke-width="2" stroke="#345780" stroke-dasharray="" stroke-linecap="" stroke-opacity="1" fill="none" fill-opacity="0" visibility="visible" style="opacity: 1;"/><path d="M-225.6,85.6  C-225.6,87.7 ,-225.6,102.4  -251.9,102.4 " stroke-width="2" stroke="#345780" stroke-dasharray="" stroke-linecap="" stroke-opacity="1" fill="none" fill-opacity="0" visibility="visible" style="opacity: 1;"/><path d="M-225.6,85.6  C-225.6,83.1 ,-225.6,66.2  -251.9,66.2 " stroke-width="2" stroke="#345780" stroke-dasharray="" stroke-linecap="" stroke-opacity="1" fill="none" fill-opacity="0" visibility="visible" style="opacity: 1;"/><path d="M-206.4,141.1  C-206.4,141.1 ,-206.4,141.1  -232.7,141.1 " stroke-width="2" stroke="#345780" stroke-dasharray="" stroke-linecap="" stroke-opacity="1" fill="none" fill-opacity="0" visibility="visible" style="opacity: 1;"/><path d="M234.6,250.4  C234.6,248.1 ,234.6,231.9  260.9,231.9 " stroke-width="2" stroke="#345780" stroke-dasharray="" stroke-linecap="" stroke-opacity="1" fill="none" fill-opacity="0" visibility="visible" style="opacity: 1;"/><path d="M234.6,250.4  C234.6,252.7 ,234.6,268.8  260.9,268.8 " stroke-width="2" stroke="#345780" stroke-dasharray="" stroke-linecap="" stroke-opacity="1" fill="none" fill-opacity="0" visibility="visible" style="opacity: 1;"/><path d="M231.6,176.6  C231.6,178.9 ,231.6,195.0  257.9,195.0 " stroke-width="2" stroke="#345780" stroke-dasharray="" stroke-linecap="" stroke-opacity="1" fill="none" fill-opacity="0" visibility="visible" style="opacity: 1;"/><path d="M231.6,176.6  C231.6,174.3 ,231.6,158.2  257.9,158.2 " stroke-width="2" stroke="#345780" stroke-dasharray="" stroke-linecap="" stroke-opacity="1" fill="none" fill-opacity="0" visibility="visible" style="opacity: 1;"/><path d="M155.7,214.2  C155.7,209.5 ,155.7,176.6  182.0,176.6 " stroke-width="2" stroke="#345780" stroke-dasharray="" stroke-linecap="" stroke-opacity="1" fill="none" fill-opacity="0" visibility="visible" style="opacity: 1;"/><path d="M155.7,214.2  C155.7,218.7 ,155.7,250.4  182.0,250.4 " stroke-width="2" stroke="#345780" stroke-dasharray="" stroke-linecap="" stroke-opacity="1" fill="none" fill-opacity="0" visibility="visible" style="opacity: 1;"/><path d="M169.7,14.3  C169.7,27.7 ,169.7,121.4  196.0,121.4 " stroke-width="2" stroke="#345780" stroke-dasharray="" stroke-linecap="" stroke-opacity="1" fill="none" fill-opacity="0" visibility="visible" style="opacity: 1;"/><path d="M169.7,14.3  C169.7,23.2 ,169.7,85.3  195.9,85.3 " stroke-width="2" stroke="#345780" stroke-dasharray="" stroke-linecap="" stroke-opacity="1" fill="none" fill-opacity="0" visibility="visible" style="opacity: 1;"/><path d="M169.7,14.3  C169.7,18.7 ,169.7,49.2  196.0,49.2 " stroke-width="2" stroke="#345780" stroke-dasharray="" stroke-linecap="" stroke-opacity="1" fill="none" fill-opacity="0" visibility="visible" style="opacity: 1;"/><path d="M169.7,14.3  C169.7,14.1 ,169.7,13.1  196.0,13.1 " stroke-width="2" stroke="#345780" stroke-dasharray="" stroke-linecap="" stroke-opacity="1" fill="none" fill-opacity="0" visibility="visible" style="opacity: 1;"/><path d="M169.7,14.3  C169.7,9.6 ,169.7,-23.0  196.0,-23.0 " stroke-width="2" stroke="#345780" stroke-dasharray="" stroke-linecap="" stroke-opacity="1" fill="none" fill-opacity="0" visibility="visible" style="opacity: 1;"/><path d="M169.7,14.3  C169.7,5.1 ,169.7,-59.1  196.0,-59.1 " stroke-width="2" stroke="#345780" stroke-dasharray="" stroke-linecap="" stroke-opacity="1" fill="none" fill-opacity="0" visibility="visible" style="opacity: 1;"/><path d="M169.7,14.3  C169.7,0.6 ,169.7,-95.2  196.0,-95.2 " stroke-width="2" stroke="#345780" stroke-dasharray="" stroke-linecap="" stroke-opacity="1" fill="none" fill-opacity="0" visibility="visible" style="opacity: 1;"/><path d="M326.7,-131.4  C326.7,-131.4 ,326.7,-131.4  353.0,-131.4 " stroke-width="2" stroke="#345780" stroke-dasharray="" stroke-linecap="" stroke-opacity="1" fill="none" fill-opacity="0" visibility="visible" style="opacity: 1;"/><path d="M269.4,-131.4  C269.4,-131.4 ,269.4,-131.4  295.7,-131.4 " stroke-width="2" stroke="#345780" stroke-dasharray="" stroke-linecap="" stroke-opacity="1" fill="none" fill-opacity="0" visibility="visible" style="opacity: 1;"/><path d="M185.3,-131.4  C185.3,-131.4 ,185.3,-131.4  211.6,-131.4 " stroke-width="2" stroke="#345780" stroke-dasharray="" stroke-linecap="" stroke-opacity="1" fill="none" fill-opacity="0" visibility="visible" style="opacity: 1;"/><path d="M-10.0,0.0  C-10.0,17.6 ,-10.0,141.1  -82.9,141.1 " stroke-width="2" stroke="#345780" stroke-dasharray="" stroke-linecap="" stroke-opacity="1" fill="none" fill-opacity="0" visibility="visible" style="opacity: 1;"/><path d="M-10.0,0.0  C-10.0,10.7 ,-10.0,85.6  -82.9,85.6 " stroke-width="2" stroke="#345780" stroke-dasharray="" stroke-linecap="" stroke-opacity="1" fill="none" fill-opacity="0" visibility="visible" style="opacity: 1;"/><path d="M10.0,0.0  C10.0,26.8 ,10.0,214.2  82.9,214.2 " stroke-width="2" stroke="#345780" stroke-dasharray="" stroke-linecap="" stroke-opacity="1" fill="none" fill-opacity="0" visibility="visible" style="opacity: 1;"/><path d="M-10.0,0.0  C-10.0,-0.6 ,-10.0,-5.0  -82.9,-5.0 " stroke-width="2" stroke="#345780" stroke-dasharray="" stroke-linecap="" stroke-opacity="1" fill="none" fill-opacity="0" visibility="visible" style="opacity: 1;"/><path d="M10.0,0.0  C10.0,1.8 ,10.0,14.3  82.9,14.3 " stroke-width="2" stroke="#345780" stroke-dasharray="" stroke-linecap="" stroke-opacity="1" fill="none" fill-opacity="0" visibility="visible" style="opacity: 1;"/><path d="M10.0,0.0  C10.0,-16.4 ,10.0,-131.4  82.9,-131.4 " stroke-width="2" stroke="#345780" stroke-dasharray="" stroke-linecap="" stroke-opacity="1" fill="none" fill-opacity="0" visibility="visible" style="opacity: 1;"/><path d="M-10.0,0.0  C-10.0,-11.9 ,-10.0,-95.6  -82.9,-95.6 " stroke-width="2" stroke="#345780" stroke-dasharray="" stroke-linecap="" stroke-opacity="1" fill="none" fill-opacity="0" visibility="visible" style="opacity: 1;"/><path d="M188.1,-205.1  C188.1,-200.7 ,188.1,-170.1  214.4,-170.1 " stroke-width="2" stroke="#345780" stroke-dasharray="" stroke-linecap="" stroke-opacity="1" fill="none" fill-opacity="0" visibility="visible" style="opacity: 1;"/><path d="M188.1,-205.1  C188.1,-205.3 ,188.1,-206.4  214.4,-206.4 " stroke-width="2" stroke="#345780" stroke-dasharray="" stroke-linecap="" stroke-opacity="1" fill="none" fill-opacity="0" visibility="visible" style="opacity: 1;"/><path d="M188.1,-205.1  C188.1,-209.8 ,188.1,-242.6  214.4,-242.6 " stroke-width="2" stroke="#345780" stroke-dasharray="" stroke-linecap="" stroke-opacity="1" fill="none" fill-opacity="0" visibility="visible" style="opacity: 1;"/><path d="M10.0,0.0  C10.0,-25.6 ,10.0,-205.1  82.9,-205.1 " stroke-width="2" stroke="#345780" stroke-dasharray="" stroke-linecap="" stroke-opacity="1" fill="none" fill-opacity="0" visibility="visible" style="opacity: 1;"/><g preserveAspectRatio="none" focusable="true" width="100" height="100" transform="translate(-52.61,-16.86) scale(1.00,1.00)" test-id="1" visibility="visible" style="opacity: 1;"><rect width="111" height="40" rx="12" ry="12" x="-3" y="-3" stroke-width="1" stroke="#7a9dc6" stroke-dasharray="" stroke-linecap="" fill="#96e3ff" stroke-opacity="1" fill-opacity="1" style="cursor: default;"/><rect width="105" height="34" rx="10" ry="10" x="0" y="0" stroke-width="2" stroke="#345780" stroke-dasharray="" stroke-linecap="" fill="#509DC0" visibility="visible" style="cursor: default; opacity: 1;"/><text font-family="Verdana" font-size="13.4" font-style="normal" font-weight="bold" fill="#ffffff" visibility="visible" style="cursor: default; opacity: 1;" y="8.43" x="8.77"><tspan dy="1em" x="8.77">Die Jobmap</tspan></text><g preserveAspectRatio="none" focusable="true" width="0" height="22"/></g><g preserveAspectRatio="none" focusable="true" width="100" height="100" transform="translate(82.61,-233.83) scale(1.00,1.00)" test-id="7" visibility="visible" style="opacity: 1;"><rect width="107" height="35" rx="10" ry="10" x="-3" y="-3" stroke-width="1" stroke="#F4B82D" stroke-dasharray="" stroke-linecap="" fill="#ffd64b" stroke-opacity="0" fill-opacity="0"/><line stroke-width="2" stroke="#345780" stroke-opacity="1" x1="0.00" y1="28.72" x2="101.50" y2="28.72" style="cursor: move;" stroke-dasharray="" stroke-linecap=""/><text font-family="Verdana" font-size="12.1" font-style="normal" font-weight="normal" fill="#525C61" visibility="visible" style="cursor: move; opacity: 1;" y="7.18" x="7.47"><tspan dy="1em" x="7.47">Prozesswissen</tspan></text><g preserveAspectRatio="none" focusable="true" width="0" height="19"/><ellipse width="6" height="6" rx="3" ry="3" cx="104" cy="29" stroke-width="2" stroke="#345780" stroke-dasharray="" stroke-linecap="" fill="#98bbe4" visibility="visible" style="cursor: default; opacity: 1;"/></g><g preserveAspectRatio="none" focusable="true" width="100" height="100" transform="translate(214.11,-268.80) scale(1.00,1.00)" test-id="13" visibility="visible" style="opacity: 1;"><rect width="71" height="32" rx="10" ry="10" x="-3" y="-3" stroke-width="1" stroke="#F4B82D" stroke-dasharray="" stroke-linecap="" fill="#ffd64b" stroke-opacity="0" fill-opacity="0"/><line stroke-width="2" stroke="#345780" stroke-opacity="1" x1="0.00" y1="26.22" x2="65.26" y2="26.22" style="cursor: move;" stroke-dasharray="" stroke-linecap=""/><text font-family="Verdana" font-size="10.8" font-style="normal" font-weight="normal" fill="#525C61" visibility="visible" style="cursor: move; opacity: 1;" y="6.56" x="6.82"><tspan dy="1em" x="6.82">Prozess 1</tspan></text><g preserveAspectRatio="none" focusable="true" width="0" height="17"/><ellipse width="6" height="6" rx="3" ry="3" cx="5" cy="5" stroke-width="2" stroke="#345780" stroke-dasharray="" stroke-linecap="" fill="#98bbe4" visibility="hidden" style="cursor: default; opacity: 0;"/></g><g preserveAspectRatio="none" focusable="true" width="100" height="100" transform="translate(214.11,-232.58) scale(1.00,1.00)" test-id="14" visibility="visible" style="opacity: 1;"><rect width="71" height="32" rx="10" ry="10" x="-3" y="-3" stroke-width="1" stroke="#F4B82D" stroke-dasharray="" stroke-linecap="" fill="#ffd64b" stroke-opacity="0" fill-opacity="0"/><line stroke-width="2" stroke="#345780" stroke-opacity="1" x1="0.00" y1="26.22" x2="65.26" y2="26.22" style="cursor: move;" stroke-dasharray="" stroke-linecap=""/><text font-family="Verdana" font-size="10.8" font-style="normal" font-weight="normal" fill="#525C61" visibility="visible" style="cursor: move; opacity: 1;" y="6.56" x="6.82"><tspan dy="1em" x="6.82">Prozess 2</tspan></text><g preserveAspectRatio="none" focusable="true" width="0" height="17"/><ellipse width="6" height="6" rx="3" ry="3" cx="5" cy="5" stroke-width="2" stroke="#345780" stroke-dasharray="" stroke-linecap="" fill="#98bbe4" visibility="hidden" style="cursor: default; opacity: 0;"/></g><g preserveAspectRatio="none" focusable="true" width="100" height="100" transform="translate(214.11,-196.35) scale(1.00,1.00)" test-id="15" visibility="visible" style="opacity: 1;"><rect width="86" height="32" rx="10" ry="10" x="-3" y="-3" stroke-width="1" stroke="#F4B82D" stroke-dasharray="" stroke-linecap="" fill="#ffd64b" stroke-opacity="0" fill-opacity="0"/><line stroke-width="2" stroke="#345780" stroke-opacity="1" x1="0.00" y1="26.22" x2="80.45" y2="26.22" style="cursor: move;" stroke-dasharray="" stroke-linecap=""/><text font-family="Verdana" font-size="10.8" font-style="normal" font-weight="normal" fill="#525C61" visibility="visible" style="cursor: move; opacity: 1;" y="6.56" x="6.82"><tspan dy="1em" x="6.82">Erfahrungen</tspan></text><g preserveAspectRatio="none" focusable="true" width="0" height="17"/><ellipse width="6" height="6" rx="3" ry="3" cx="5" cy="5" stroke-width="2" stroke="#345780" stroke-dasharray="" stroke-linecap="" fill="#98bbe4" visibility="hidden" style="cursor: default; opacity: 0;"/></g><g preserveAspectRatio="none" focusable="true" width="100" height="100" transform="translate(-174.86,-124.28) scale(1.00,1.00)" test-id="2" visibility="visible" style="opacity: 1;"><rect width="98" height="35" rx="10" ry="10" x="-3" y="-3" stroke-width="1" stroke="#F4B82D" stroke-dasharray="" stroke-linecap="" fill="#ffd64b" stroke-opacity="0" fill-opacity="0"/><line stroke-width="2" stroke="#345780" stroke-opacity="1" x1="0.00" y1="28.72" x2="92.25" y2="28.72" style="cursor: move;" stroke-dasharray="" stroke-linecap=""/><text font-family="Verdana" font-size="12.1" font-style="normal" font-weight="normal" fill="#525C61" visibility="visible" style="cursor: move; opacity: 1;" y="7.18" x="7.47"><tspan dy="1em" x="7.47">Kulturwissen</tspan></text><g preserveAspectRatio="none" focusable="true" width="0" height="19"/><ellipse width="6" height="6" rx="3" ry="3" cx="-3" cy="29" stroke-width="2" stroke="#345780" stroke-dasharray="" stroke-linecap="" fill="#98bbe4" visibility="visible" style="cursor: default; opacity: 1;"/></g><g preserveAspectRatio="none" focusable="true" width="100" height="100" transform="translate(82.61,-160.13) scale(1.00,1.00)" test-id="8" visibility="visible" style="opacity: 1;"><rect width="105" height="35" rx="10" ry="10" x="-3" y="-3" stroke-width="1" stroke="#F4B82D" stroke-dasharray="" stroke-linecap="" fill="#ffd64b" stroke-opacity="0" fill-opacity="0"/><line stroke-width="2" stroke="#345780" stroke-opacity="1" x1="0.00" y1="28.72" x2="98.70" y2="28.72" style="cursor: move;" stroke-dasharray="" stroke-linecap=""/><text font-family="Verdana" font-size="12.1" font-style="normal" font-weight="normal" fill="#525C61" visibility="visible" style="cursor: move; opacity: 1;" y="7.18" x="7.47"><tspan dy="1em" x="7.47">Projektwissen</tspan></text><g preserveAspectRatio="none" focusable="true" width="0" height="19"/><ellipse width="6" height="6" rx="3" ry="3" cx="102" cy="29" stroke-width="2" stroke="#345780" stroke-dasharray="" stroke-linecap="" fill="#98bbe4" visibility="visible" style="cursor: default; opacity: 1;"/></g><g preserveAspectRatio="none" focusable="true" width="100" height="100" transform="translate(82.61,-14.42) scale(1.00,1.00)" test-id="9" visibility="visible" style="opacity: 1;"><rect width="89" height="35" rx="10" ry="10" x="-3" y="-3" stroke-width="1" stroke="#F4B82D" stroke-dasharray="" stroke-linecap="" fill="#ffd64b" stroke-opacity="0" fill-opacity="0"/><line stroke-width="2" stroke="#345780" stroke-opacity="1" x1="0.00" y1="28.72" x2="83.09" y2="28.72" style="cursor: move;" stroke-dasharray="" stroke-linecap=""/><text font-family="Verdana" font-size="12.1" font-style="normal" font-weight="normal" fill="#525C61" visibility="visible" style="cursor: move; opacity: 1;" y="7.18" x="7.47"><tspan dy="1em" x="7.47">Tätigkeiten</tspan></text><g preserveAspectRatio="none" focusable="true" width="0" height="19"/><ellipse width="6" height="6" rx="3" ry="3" cx="86" cy="29" stroke-width="2" stroke="#345780" stroke-dasharray="" stroke-linecap="" fill="#98bbe4" visibility="visible" style="cursor: default; opacity: 1;"/></g><g preserveAspectRatio="none" focusable="true" width="100" height="100" transform="translate(-204.51,-33.72) scale(1.00,1.00)" test-id="4" visibility="visible" style="opacity: 1;"><rect width="128" height="35" rx="10" ry="10" x="-3" y="-3" stroke-width="1" stroke="#F4B82D" stroke-dasharray="" stroke-linecap="" fill="#ffd64b" stroke-opacity="0" fill-opacity="0"/><line stroke-width="2" stroke="#345780" stroke-opacity="1" x1="0.00" y1="28.72" x2="121.90" y2="28.72" style="cursor: move;" stroke-dasharray="" stroke-linecap=""/><text font-family="Verdana" font-size="12.1" font-style="normal" font-weight="normal" fill="#525C61" visibility="visible" style="cursor: move; opacity: 1;" y="7.18" x="7.47"><tspan dy="1em" x="7.47">Erfahrungswissen</tspan></text><g preserveAspectRatio="none" focusable="true" width="0" height="19"/><ellipse width="6" height="6" rx="3" ry="3" cx="-3" cy="29" stroke-width="2" stroke="#345780" stroke-dasharray="" stroke-linecap="" fill="#98bbe4" visibility="visible" style="cursor: default; opacity: 1;"/></g><g preserveAspectRatio="none" focusable="true" width="100" height="100" transform="translate(82.57,185.86) scale(1.00,1.00)" test-id="10" visibility="visible" style="opacity: 1;"><rect width="75" height="34" rx="10" ry="10" x="-3" y="-3" stroke-width="1" stroke="#F4B82D" stroke-dasharray="" stroke-linecap="" fill="#ffd64b" stroke-opacity="0" fill-opacity="0" style="cursor: move;"/><line stroke-width="2" stroke="#345780" stroke-opacity="1" x1="0.00" y1="28.37" x2="69.13" y2="28.37" style="cursor: move;" stroke-dasharray="" stroke-linecap=""/><text font-family="Verdana" font-size="12.1" font-style="normal" font-weight="normal" fill="#525C61" visibility="visible" style="cursor: move; opacity: 1;" y="7.09" x="7.38"><tspan dy="1em" x="7.38">Kontakte</tspan></text><g preserveAspectRatio="none" focusable="true" width="0" height="18"/><ellipse width="6" height="6" rx="3" ry="3" cx="72" cy="28" stroke-width="2" stroke="#345780" stroke-dasharray="" stroke-linecap="" fill="#98bbe4" visibility="visible" style="cursor: default; opacity: 1;"/></g><g preserveAspectRatio="none" focusable="true" width="100" height="100" transform="translate(-221.62,56.84) scale(1.00,1.00)" test-id="5" visibility="visible" style="opacity: 1;"><rect width="145" height="35" rx="10" ry="10" x="-3" y="-3" stroke-width="1" stroke="#F4B82D" stroke-dasharray="" stroke-linecap="" fill="#ffd64b" stroke-opacity="0" fill-opacity="0"/><line stroke-width="2" stroke="#345780" stroke-opacity="1" x1="0.00" y1="28.72" x2="139.01" y2="28.72" style="cursor: move;" stroke-dasharray="" stroke-linecap=""/><text font-family="Verdana" font-size="12.1" font-style="normal" font-weight="normal" fill="#525C61" visibility="visible" style="cursor: move; opacity: 1;" y="7.18" x="7.47"><tspan dy="1em" x="7.47">Organisationswissen</tspan></text><g preserveAspectRatio="none" focusable="true" width="0" height="19"/><ellipse width="6" height="6" rx="3" ry="3" cx="-3" cy="29" stroke-width="2" stroke="#345780" stroke-dasharray="" stroke-linecap="" fill="#98bbe4" visibility="visible" style="cursor: default; opacity: 1;"/></g><g preserveAspectRatio="none" focusable="true" width="100" height="100" transform="translate(-202.40,112.42) scale(1.00,1.00)" test-id="6" visibility="visible" style="opacity: 1;"><rect width="126" height="35" rx="10" ry="10" x="-3" y="-3" stroke-width="1" stroke="#F4B82D" stroke-dasharray="" stroke-linecap="" fill="#ffd64b" stroke-opacity="0" fill-opacity="0"/><line stroke-width="2" stroke="#345780" stroke-opacity="1" x1="0.00" y1="28.72" x2="119.79" y2="28.72" style="cursor: move;" stroke-dasharray="" stroke-linecap=""/><text font-family="Verdana" font-size="12.1" font-style="normal" font-weight="normal" fill="#525C61" visibility="visible" style="cursor: move; opacity: 1;" y="7.18" x="7.47"><tspan dy="1em" x="7.47">Team/Mitarbeiter</tspan></text><g preserveAspectRatio="none" focusable="true" width="0" height="19"/><ellipse width="6" height="6" rx="3" ry="3" cx="-3" cy="29" stroke-width="2" stroke="#345780" stroke-dasharray="" stroke-linecap="" fill="#98bbe4" visibility="visible" style="cursor: default; opacity: 1;"/></g><g preserveAspectRatio="none" focusable="true" width="100" height="100" transform="translate(211.31,-158.29) scale(1.00,1.00)" test-id="16" visibility="visible" style="opacity: 1;"><rect width="60" height="33" rx="10" ry="10" x="-3" y="-3" stroke-width="1" stroke="#F4B82D" stroke-dasharray="" stroke-linecap="" fill="#ffd64b" stroke-opacity="0" fill-opacity="0" style="cursor: move;"/><line stroke-width="2" stroke="#345780" stroke-opacity="1" x1="0.00" y1="26.88" x2="54.05" y2="26.88" style="cursor: move;" stroke-dasharray="" stroke-linecap=""/><text font-family="Verdana" font-size="10.8" font-style="normal" font-weight="normal" fill="#525C61" visibility="visible" style="cursor: move; opacity: 1;" y="6.72" x="6.99"><tspan dy="1em" x="6.99">laufend</tspan></text><g preserveAspectRatio="none" focusable="true" width="0" height="17"/><ellipse width="6" height="6" rx="3" ry="3" cx="57" cy="27" stroke-width="2" stroke="#345780" stroke-dasharray="" stroke-linecap="" fill="#98bbe4" visibility="visible" style="cursor: default; opacity: 1;"/></g><g preserveAspectRatio="none" focusable="true" width="100" height="100" transform="translate(295.36,-158.29) scale(1.00,1.00)" test-id="17" visibility="visible" style="opacity: 1;"><rect width="33" height="33" rx="10" ry="10" x="-3" y="-3" stroke-width="1" stroke="#F4B82D" stroke-dasharray="" stroke-linecap="" fill="#ffd64b" stroke-opacity="0" fill-opacity="0" style="cursor: move;"/><line stroke-width="2" stroke="#345780" stroke-opacity="1" x1="0.00" y1="26.88" x2="27.36" y2="26.88" style="cursor: move;" stroke-dasharray="" stroke-linecap=""/><text font-family="Verdana" font-size="10.8" font-style="normal" font-weight="normal" fill="#525C61" visibility="visible" style="cursor: move; opacity: 1;" y="6.72" x="6.99"><tspan dy="1em" x="6.99">P1</tspan></text><g preserveAspectRatio="none" focusable="true" width="0" height="17"/><ellipse width="6" height="6" rx="3" ry="3" cx="30" cy="27" stroke-width="2" stroke="#345780" stroke-dasharray="" stroke-linecap="" fill="#98bbe4" visibility="visible" style="cursor: default; opacity: 1;"/></g><g preserveAspectRatio="none" focusable="true" width="100" height="100" transform="translate(352.71,-158.29) scale(1.00,1.00)" test-id="18" visibility="visible" style="opacity: 1;"><rect width="33" height="33" rx="10" ry="10" x="-3" y="-3" stroke-width="1" stroke="#F4B82D" stroke-dasharray="" stroke-linecap="" fill="#ffd64b" stroke-opacity="0" fill-opacity="0" style="cursor: move;"/><line stroke-width="2" stroke="#345780" stroke-opacity="1" x1="0.00" y1="26.88" x2="27.36" y2="26.88" style="cursor: move;" stroke-dasharray="" stroke-linecap=""/><text font-family="Verdana" font-size="10.8" font-style="normal" font-weight="normal" fill="#525C61" visibility="visible" style="cursor: move; opacity: 1;" y="6.72" x="6.99"><tspan dy="1em" x="6.99">P2</tspan></text><g preserveAspectRatio="none" focusable="true" width="0" height="17"/><ellipse width="6" height="6" rx="3" ry="3" cx="5" cy="5" stroke-width="2" stroke="#345780" stroke-dasharray="" stroke-linecap="" fill="#98bbe4" visibility="hidden" style="cursor: default; opacity: 0;"/></g><g preserveAspectRatio="none" focusable="true" width="100" height="100" transform="translate(195.67,-121.47) scale(1.00,1.00)" test-id="19" visibility="visible" style="opacity: 1;"><rect width="55" height="32" rx="10" ry="10" x="-3" y="-3" stroke-width="1" stroke="#F4B82D" stroke-dasharray="" stroke-linecap="" fill="#ffd64b" stroke-opacity="0" fill-opacity="0" style="cursor: move;"/><line stroke-width="2" stroke="#345780" stroke-opacity="1" x1="0.00" y1="26.22" x2="49.49" y2="26.22" style="cursor: move;" stroke-dasharray="" stroke-linecap=""/><text font-family="Verdana" font-size="10.8" font-style="normal" font-weight="normal" fill="#525C61" visibility="visible" style="cursor: move; opacity: 1;" y="6.56" x="6.82"><tspan dy="1em" x="6.82">täglich</tspan></text><g preserveAspectRatio="none" focusable="true" width="0" height="17"/><ellipse width="6" height="6" rx="3" ry="3" cx="5" cy="5" stroke-width="2" stroke="#345780" stroke-dasharray="" stroke-linecap="" fill="#98bbe4" visibility="hidden" style="cursor: default; opacity: 0;"/></g><g preserveAspectRatio="none" focusable="true" width="100" height="100" transform="translate(195.68,-85.37) scale(1.00,1.00)" test-id="20" visibility="visible" style="opacity: 1;"><rect width="83" height="32" rx="10" ry="10" x="-3" y="-3" stroke-width="1" stroke="#F4B82D" stroke-dasharray="" stroke-linecap="" fill="#ffd64b" stroke-opacity="0" fill-opacity="0" style="cursor: move;"/><line stroke-width="2" stroke="#345780" stroke-opacity="1" x1="0.00" y1="26.22" x2="77.38" y2="26.22" style="cursor: move;" stroke-dasharray="" stroke-linecap=""/><text font-family="Verdana" font-size="10.8" font-style="normal" font-weight="normal" fill="#525C61" visibility="visible" style="cursor: move; opacity: 1;" y="6.56" x="6.82"><tspan dy="1em" x="6.82">wöchentlich</tspan></text><g preserveAspectRatio="none" focusable="true" width="0" height="17"/><ellipse width="6" height="6" rx="3" ry="3" cx="5" cy="5" stroke-width="2" stroke="#345780" stroke-dasharray="" stroke-linecap="" fill="#98bbe4" visibility="hidden" style="cursor: default; opacity: 0;"/></g><g preserveAspectRatio="none" focusable="true" width="100" height="100" transform="translate(195.68,-49.27) scale(1.00,1.00)" test-id="21" visibility="visible" style="opacity: 1;"><rect width="73" height="32" rx="10" ry="10" x="-3" y="-3" stroke-width="1" stroke="#F4B82D" stroke-dasharray="" stroke-linecap="" fill="#ffd64b" stroke-opacity="0" fill-opacity="0" style="cursor: move;"/><line stroke-width="2" stroke="#345780" stroke-opacity="1" x1="0.00" y1="26.22" x2="66.64" y2="26.22" style="cursor: move;" stroke-dasharray="" stroke-linecap=""/><text font-family="Verdana" font-size="10.8" font-style="normal" font-weight="normal" fill="#525C61" visibility="visible" style="cursor: move; opacity: 1;" y="6.56" x="6.82"><tspan dy="1em" x="6.82">monatlich</tspan></text><g preserveAspectRatio="none" focusable="true" width="0" height="17"/><ellipse width="6" height="6" rx="3" ry="3" cx="78" cy="29" stroke-width="2" stroke="#345780" stroke-dasharray="" stroke-linecap="" fill="#98bbe4" visibility="hidden" style="cursor: default; opacity: 0;"/></g><g preserveAspectRatio="none" focusable="true" width="100" height="100" transform="translate(195.72,-13.17) scale(1.00,1.00)" test-id="22" visibility="visible" style="opacity: 1;"><rect width="94" height="32" rx="10" ry="10" x="-3" y="-3" stroke-width="1" stroke="#F4B82D" stroke-dasharray="" stroke-linecap="" fill="#ffd64b" stroke-opacity="0" fill-opacity="0" style="cursor: move;"/><line stroke-width="2" stroke="#345780" stroke-opacity="1" x1="0.00" y1="26.22" x2="87.90" y2="26.22" style="cursor: move;" stroke-dasharray="" stroke-linecap=""/><text font-family="Verdana" font-size="10.8" font-style="normal" font-weight="normal" fill="#525C61" visibility="visible" style="cursor: move; opacity: 1;" y="6.56" x="6.82"><tspan dy="1em" x="6.82">quartalsweise</tspan></text><g preserveAspectRatio="none" focusable="true" width="0" height="17"/><ellipse width="6" height="6" rx="3" ry="3" cx="5" cy="5" stroke-width="2" stroke="#345780" stroke-dasharray="" stroke-linecap="" fill="#98bbe4" visibility="hidden" style="cursor: default; opacity: 0;"/></g><g preserveAspectRatio="none" focusable="true" width="100" height="100" transform="translate(195.68,22.93) scale(1.00,1.00)" test-id="23" visibility="visible" style="opacity: 1;"><rect width="83" height="32" rx="10" ry="10" x="-3" y="-3" stroke-width="1" stroke="#F4B82D" stroke-dasharray="" stroke-linecap="" fill="#ffd64b" stroke-opacity="0" fill-opacity="0" style="cursor: move;"/><line stroke-width="2" stroke="#345780" stroke-opacity="1" x1="0.00" y1="26.22" x2="76.66" y2="26.22" style="cursor: move;" stroke-dasharray="" stroke-linecap=""/><text font-family="Verdana" font-size="10.8" font-style="normal" font-weight="normal" fill="#525C61" visibility="visible" style="cursor: move; opacity: 1;" y="6.56" x="6.82"><tspan dy="1em" x="6.82">halbjährlich</tspan></text><g preserveAspectRatio="none" focusable="true" width="0" height="17"/><ellipse width="6" height="6" rx="3" ry="3" cx="5" cy="5" stroke-width="2" stroke="#345780" stroke-dasharray="" stroke-linecap="" fill="#98bbe4" visibility="hidden" style="cursor: default; opacity: 0;"/></g><g preserveAspectRatio="none" focusable="true" width="100" height="100" transform="translate(195.63,59.03) scale(1.00,1.00)" test-id="24" visibility="visible" style="opacity: 1;"><rect width="60" height="32" rx="10" ry="10" x="-3" y="-3" stroke-width="1" stroke="#F4B82D" stroke-dasharray="" stroke-linecap="" fill="#ffd64b" stroke-opacity="0" fill-opacity="0" style="cursor: move;"/><line stroke-width="2" stroke="#345780" stroke-opacity="1" x1="0.00" y1="26.22" x2="54.29" y2="26.22" style="cursor: move;" stroke-dasharray="" stroke-linecap=""/><text font-family="Verdana" font-size="10.8" font-style="normal" font-weight="normal" fill="#525C61" visibility="visible" style="cursor: move; opacity: 1;" y="6.56" x="6.82"><tspan dy="1em" x="6.82">jährlich</tspan></text><g preserveAspectRatio="none" focusable="true" width="0" height="17"/><ellipse width="6" height="6" rx="3" ry="3" cx="5" cy="5" stroke-width="2" stroke="#345780" stroke-dasharray="" stroke-linecap="" fill="#98bbe4" visibility="hidden" style="cursor: default; opacity: 0;"/></g><g preserveAspectRatio="none" focusable="true" width="100" height="100" transform="translate(195.68,95.13) scale(1.00,1.00)" test-id="25" visibility="visible" style="opacity: 1;"><rect width="94" height="32" rx="10" ry="10" x="-3" y="-3" stroke-width="1" stroke="#F4B82D" stroke-dasharray="" stroke-linecap="" fill="#ffd64b" stroke-opacity="0" fill-opacity="0" style="cursor: move;"/><line stroke-width="2" stroke="#345780" stroke-opacity="1" x1="0.00" y1="26.22" x2="87.83" y2="26.22" style="cursor: move;" stroke-dasharray="" stroke-linecap=""/><text font-family="Verdana" font-size="10.8" font-style="normal" font-weight="normal" fill="#525C61" visibility="visible" style="cursor: move; opacity: 1;" y="6.56" x="6.82"><tspan dy="1em" x="6.82">unregelmäßig</tspan></text><g preserveAspectRatio="none" focusable="true" width="0" height="17"/><ellipse width="6" height="6" rx="3" ry="3" cx="5" cy="5" stroke-width="2" stroke="#345780" stroke-dasharray="" stroke-linecap="" fill="#98bbe4" visibility="hidden" style="cursor: default; opacity: 0;"/></g><g preserveAspectRatio="none" focusable="true" width="100" height="100" transform="translate(181.67,149.73) scale(1.00,1.00)" test-id="26" visibility="visible" style="opacity: 1;"><rect width="52" height="33" rx="10" ry="10" x="-3" y="-3" stroke-width="1" stroke="#F4B82D" stroke-dasharray="" stroke-linecap="" fill="#ffd64b" stroke-opacity="0" fill-opacity="0" style="cursor: move;"/><line stroke-width="2" stroke="#345780" stroke-opacity="1" x1="0.00" y1="26.88" x2="45.90" y2="26.88" style="cursor: move;" stroke-dasharray="" stroke-linecap=""/><text font-family="Verdana" font-size="10.8" font-style="normal" font-weight="normal" fill="#525C61" visibility="visible" style="cursor: move; opacity: 1;" y="6.72" x="6.99"><tspan dy="1em" x="6.99">intern</tspan></text><g preserveAspectRatio="none" focusable="true" width="0" height="17"/><ellipse width="6" height="6" rx="3" ry="3" cx="49" cy="27" stroke-width="2" stroke="#345780" stroke-dasharray="" stroke-linecap="" fill="#98bbe4" visibility="visible" style="cursor: default; opacity: 1;"/></g><g preserveAspectRatio="none" focusable="true" width="100" height="100" transform="translate(181.67,223.49) scale(1.00,1.00)" test-id="27" visibility="visible" style="opacity: 1;"><rect width="55" height="33" rx="10" ry="10" x="-3" y="-3" stroke-width="1" stroke="#F4B82D" stroke-dasharray="" stroke-linecap="" fill="#ffd64b" stroke-opacity="0" fill-opacity="0" style="cursor: move;"/><line stroke-width="2" stroke="#345780" stroke-opacity="1" x1="0.00" y1="26.88" x2="48.93" y2="26.88" style="cursor: move;" stroke-dasharray="" stroke-linecap=""/><text font-family="Verdana" font-size="10.8" font-style="normal" font-weight="normal" fill="#525C61" visibility="visible" style="cursor: move; opacity: 1;" y="6.72" x="6.99"><tspan dy="1em" x="6.99">extern</tspan></text><g preserveAspectRatio="none" focusable="true" width="0" height="17"/><ellipse width="6" height="6" rx="3" ry="3" cx="52" cy="27" stroke-width="2" stroke="#345780" stroke-dasharray="" stroke-linecap="" fill="#98bbe4" visibility="visible" style="cursor: default; opacity: 1;"/></g><g preserveAspectRatio="none" focusable="true" width="100" height="100" transform="translate(257.57,131.29) scale(1.00,1.00)" test-id="28" visibility="visible" style="opacity: 1;"><rect width="54" height="33" rx="10" ry="10" x="-3" y="-3" stroke-width="1" stroke="#F4B82D" stroke-dasharray="" stroke-linecap="" fill="#ffd64b" stroke-opacity="0" fill-opacity="0" style="cursor: move;"/><line stroke-width="2" stroke="#345780" stroke-opacity="1" x1="0.00" y1="26.88" x2="47.68" y2="26.88" style="cursor: move;" stroke-dasharray="" stroke-linecap=""/><text font-family="Verdana" font-size="10.8" font-style="normal" font-weight="normal" fill="#525C61" visibility="visible" style="cursor: move; opacity: 1;" y="6.72" x="6.99"><tspan dy="1em" x="6.99">Abt. 1</tspan></text><g preserveAspectRatio="none" focusable="true" width="0" height="17"/><ellipse width="6" height="6" rx="3" ry="3" cx="5" cy="5" stroke-width="2" stroke="#345780" stroke-dasharray="" stroke-linecap="" fill="#98bbe4" visibility="hidden" style="cursor: default; opacity: 0;"/></g><g preserveAspectRatio="none" focusable="true" width="100" height="100" transform="translate(257.57,168.17) scale(1.00,1.00)" test-id="29" visibility="visible" style="opacity: 1;"><rect width="54" height="33" rx="10" ry="10" x="-3" y="-3" stroke-width="1" stroke="#F4B82D" stroke-dasharray="" stroke-linecap="" fill="#ffd64b" stroke-opacity="0" fill-opacity="0" style="cursor: move;"/><line stroke-width="2" stroke="#345780" stroke-opacity="1" x1="0.00" y1="26.88" x2="47.68" y2="26.88" style="cursor: move;" stroke-dasharray="" stroke-linecap=""/><text font-family="Verdana" font-size="10.8" font-style="normal" font-weight="normal" fill="#525C61" visibility="visible" style="cursor: move; opacity: 1;" y="6.72" x="6.99"><tspan dy="1em" x="6.99">Abt. 2</tspan></text><g preserveAspectRatio="none" focusable="true" width="0" height="17"/><ellipse width="6" height="6" rx="3" ry="3" cx="5" cy="5" stroke-width="2" stroke="#345780" stroke-dasharray="" stroke-linecap="" fill="#98bbe4" visibility="hidden" style="cursor: default; opacity: 0;"/></g><g preserveAspectRatio="none" focusable="true" width="100" height="100" transform="translate(260.60,241.93) scale(1.00,1.00)" test-id="30" visibility="visible" style="opacity: 1;"><rect width="81" height="33" rx="10" ry="10" x="-3" y="-3" stroke-width="1" stroke="#F4B82D" stroke-dasharray="" stroke-linecap="" fill="#ffd64b" stroke-opacity="0" fill-opacity="0" style="cursor: move;"/><line stroke-width="2" stroke="#345780" stroke-opacity="1" x1="0.00" y1="26.88" x2="74.86" y2="26.88" style="cursor: move;" stroke-dasharray="" stroke-linecap=""/><text font-family="Verdana" font-size="10.8" font-style="normal" font-weight="normal" fill="#525C61" visibility="visible" style="cursor: move; opacity: 1;" y="6.72" x="6.99"><tspan dy="1em" x="6.99">Lieferanten</tspan></text><g preserveAspectRatio="none" focusable="true" width="0" height="17"/><ellipse width="6" height="6" rx="3" ry="3" cx="5" cy="5" stroke-width="2" stroke="#345780" stroke-dasharray="" stroke-linecap="" fill="#98bbe4" visibility="hidden" style="cursor: default; opacity: 0;"/></g><g preserveAspectRatio="none" focusable="true" width="100" height="100" transform="translate(260.60,205.05) scale(1.00,1.00)" test-id="31" visibility="visible" style="opacity: 1;"><rect width="99" height="33" rx="10" ry="10" x="-3" y="-3" stroke-width="1" stroke="#F4B82D" stroke-dasharray="" stroke-linecap="" fill="#ffd64b" stroke-opacity="0" fill-opacity="0" style="cursor: move;"/><line stroke-width="2" stroke="#345780" stroke-opacity="1" x1="0.00" y1="26.88" x2="92.99" y2="26.88" style="cursor: move;" stroke-dasharray="" stroke-linecap=""/><text font-family="Verdana" font-size="10.8" font-style="normal" font-weight="normal" fill="#525C61" visibility="visible" style="cursor: move; opacity: 1;" y="6.72" x="6.99"><tspan dy="1em" x="6.99">Projektpartner</tspan></text><g preserveAspectRatio="none" focusable="true" width="0" height="17"/><ellipse width="6" height="6" rx="3" ry="3" cx="5" cy="5" stroke-width="2" stroke="#345780" stroke-dasharray="" stroke-linecap="" fill="#98bbe4" visibility="hidden" style="cursor: default; opacity: 0;"/></g><g preserveAspectRatio="none" focusable="true" width="100" height="100" transform="translate(-332.25,114.92) scale(1.00,1.00)" test-id="32" visibility="visible" style="opacity: 1;"><rect width="106" height="32" rx="10" ry="10" x="-3" y="-3" stroke-width="1" stroke="#F4B82D" stroke-dasharray="" stroke-linecap="" fill="#ffd64b" stroke-opacity="0" fill-opacity="0" style="cursor: move;"/><line stroke-width="2" stroke="#345780" stroke-opacity="1" x1="0.00" y1="26.22" x2="99.85" y2="26.22" style="cursor: move;" stroke-dasharray="" stroke-linecap=""/><text font-family="Verdana" font-size="10.8" font-style="normal" font-weight="normal" fill="#525C61" visibility="visible" style="cursor: move; opacity: 1;" y="6.56" x="6.82"><tspan dy="1em" x="6.82">Vereinbarungen</tspan></text><g preserveAspectRatio="none" focusable="true" width="0" height="17"/><ellipse width="6" height="6" rx="3" ry="3" cx="5" cy="5" stroke-width="2" stroke="#345780" stroke-dasharray="" stroke-linecap="" fill="#98bbe4" visibility="hidden" style="cursor: default; opacity: 0;"/></g><g preserveAspectRatio="none" focusable="true" width="100" height="100" transform="translate(-303.88,39.98) scale(1.00,1.00)" test-id="33" visibility="visible" style="opacity: 1;"><rect width="58" height="32" rx="10" ry="10" x="-3" y="-3" stroke-width="1" stroke="#F4B82D" stroke-dasharray="" stroke-linecap="" fill="#ffd64b" stroke-opacity="0" fill-opacity="0" style="cursor: move;"/><line stroke-width="2" stroke="#345780" stroke-opacity="1" x1="0.00" y1="26.22" x2="52.26" y2="26.22" style="cursor: move;" stroke-dasharray="" stroke-linecap=""/><text font-family="Verdana" font-size="10.8" font-style="normal" font-weight="normal" fill="#525C61" visibility="visible" style="cursor: move; opacity: 1;" y="6.56" x="6.82"><tspan dy="1em" x="6.82">Aufbau</tspan></text><g preserveAspectRatio="none" focusable="true" width="0" height="17"/><ellipse width="6" height="6" rx="3" ry="3" cx="5" cy="5" stroke-width="2" stroke="#345780" stroke-dasharray="" stroke-linecap="" fill="#98bbe4" visibility="hidden" style="cursor: default; opacity: 0;"/></g><g preserveAspectRatio="none" focusable="true" width="100" height="100" transform="translate(-310.80,76.20) scale(1.00,1.00)" test-id="34" visibility="visible" style="opacity: 1;"><rect width="65" height="32" rx="10" ry="10" x="-3" y="-3" stroke-width="1" stroke="#F4B82D" stroke-dasharray="" stroke-linecap="" fill="#ffd64b" stroke-opacity="0" fill-opacity="0" style="cursor: move;"/><line stroke-width="2" stroke="#345780" stroke-opacity="1" x1="0.00" y1="26.22" x2="59.18" y2="26.22" style="cursor: move;" stroke-dasharray="" stroke-linecap=""/><text font-family="Verdana" font-size="10.8" font-style="normal" font-weight="normal" fill="#525C61" visibility="visible" style="cursor: move; opacity: 1;" y="6.56" x="6.82"><tspan dy="1em" x="6.82">Struktur</tspan></text><g preserveAspectRatio="none" focusable="true" width="0" height="17"/><ellipse width="6" height="6" rx="3" ry="3" cx="5" cy="5" stroke-width="2" stroke="#345780" stroke-dasharray="" stroke-linecap="" fill="#98bbe4" visibility="hidden" style="cursor: default; opacity: 0;"/></g><g preserveAspectRatio="none" focusable="true" width="100" height="100" transform="translate(-286.05,-68.70) scale(1.00,1.00)" test-id="35" visibility="visible" style="opacity: 1;"><rect width="58" height="32" rx="10" ry="10" x="-3" y="-3" stroke-width="1" stroke="#F4B82D" stroke-dasharray="" stroke-linecap="" fill="#ffd64b" stroke-opacity="0" fill-opacity="0" style="cursor: move;"/><line stroke-width="2" stroke="#345780" stroke-opacity="1" x1="0.00" y1="26.22" x2="51.54" y2="26.22" style="cursor: move;" stroke-dasharray="" stroke-linecap=""/><text font-family="Verdana" font-size="10.8" font-style="normal" font-weight="normal" fill="#525C61" visibility="visible" style="cursor: move; opacity: 1;" y="6.56" x="6.82"><tspan dy="1em" x="6.82">Erfolge</tspan></text><g preserveAspectRatio="none" focusable="true" width="0" height="17"/><ellipse width="6" height="6" rx="3" ry="3" cx="5" cy="5" stroke-width="2" stroke="#345780" stroke-dasharray="" stroke-linecap="" fill="#98bbe4" visibility="hidden" style="cursor: default; opacity: 0;"/></g><g preserveAspectRatio="none" focusable="true" width="100" height="100" transform="translate(-287.80,-32.47) scale(1.00,1.00)" test-id="36" visibility="visible" style="opacity: 1;"><rect width="59" height="32" rx="10" ry="10" x="-3" y="-3" stroke-width="1" stroke="#F4B82D" stroke-dasharray="" stroke-linecap="" fill="#ffd64b" stroke-opacity="0" fill-opacity="0" style="cursor: move;"/><line stroke-width="2" stroke="#345780" stroke-opacity="1" x1="0.00" y1="26.22" x2="53.29" y2="26.22" style="cursor: move;" stroke-dasharray="" stroke-linecap=""/><text font-family="Verdana" font-size="10.8" font-style="normal" font-weight="normal" fill="#525C61" visibility="visible" style="cursor: move; opacity: 1;" y="6.56" x="6.82"><tspan dy="1em" x="6.82">Pannen</tspan></text><g preserveAspectRatio="none" focusable="true" width="0" height="17"/><ellipse width="6" height="6" rx="3" ry="3" cx="5" cy="5" stroke-width="2" stroke="#345780" stroke-dasharray="" stroke-linecap="" fill="#98bbe4" visibility="hidden" style="cursor: default; opacity: 0;"/></g><g preserveAspectRatio="none" focusable="true" width="100" height="100" transform="translate(-296.29,3.75) scale(1.00,1.00)" test-id="37" visibility="visible" style="opacity: 1;"><rect width="68" height="32" rx="10" ry="10" x="-3" y="-3" stroke-width="1" stroke="#F4B82D" stroke-dasharray="" stroke-linecap="" fill="#ffd64b" stroke-opacity="0" fill-opacity="0" style="cursor: move;"/><line stroke-width="2" stroke="#345780" stroke-opacity="1" x1="0.00" y1="26.22" x2="61.78" y2="26.22" style="cursor: move;" stroke-dasharray="" stroke-linecap=""/><text font-family="Verdana" font-size="10.8" font-style="normal" font-weight="normal" fill="#525C61" visibility="visible" style="cursor: move; opacity: 1;" y="6.56" x="6.82"><tspan dy="1em" x="6.82">Hinweise</tspan></text><g preserveAspectRatio="none" focusable="true" width="0" height="17"/><ellipse width="6" height="6" rx="3" ry="3" cx="5" cy="5" stroke-width="2" stroke="#345780" stroke-dasharray="" stroke-linecap="" fill="#98bbe4" visibility="hidden" style="cursor: default; opacity: 0;"/></g><g preserveAspectRatio="none" focusable="true" width="100" height="100" transform="translate(-303.02,-141.14) scale(1.00,1.00)" test-id="38" visibility="visible" style="opacity: 1;"><rect width="104" height="32" rx="10" ry="10" x="-3" y="-3" stroke-width="1" stroke="#F4B82D" stroke-dasharray="" stroke-linecap="" fill="#ffd64b" stroke-opacity="0" fill-opacity="0" style="cursor: move;"/><line stroke-width="2" stroke="#345780" stroke-opacity="1" x1="0.00" y1="26.22" x2="98.16" y2="26.22" style="cursor: move;" stroke-dasharray="" stroke-linecap=""/><text font-family="Verdana" font-size="10.8" font-style="normal" font-weight="normal" fill="#525C61" visibility="visible" style="cursor: move; opacity: 1;" y="6.56" x="6.82"><tspan dy="1em" x="6.82">Normen/Regeln</tspan></text><g preserveAspectRatio="none" focusable="true" width="0" height="17"/><ellipse width="6" height="6" rx="3" ry="3" cx="5" cy="5" stroke-width="2" stroke="#345780" stroke-dasharray="" stroke-linecap="" fill="#98bbe4" visibility="hidden" style="cursor: default; opacity: 0;"/></g><g preserveAspectRatio="none" focusable="true" width="100" height="100" transform="translate(-278.73,-104.92) scale(1.00,1.00)" test-id="39" visibility="visible" style="opacity: 1;"><rect width="80" height="32" rx="10" ry="10" x="-3" y="-3" stroke-width="1" stroke="#F4B82D" stroke-dasharray="" stroke-linecap="" fill="#ffd64b" stroke-opacity="0" fill-opacity="0" style="cursor: move;"/><line stroke-width="2" stroke="#345780" stroke-opacity="1" x1="0.00" y1="26.22" x2="73.87" y2="26.22" style="cursor: move;" stroke-dasharray="" stroke-linecap=""/><text font-family="Verdana" font-size="10.8" font-style="normal" font-weight="normal" fill="#525C61" visibility="visible" style="cursor: move; opacity: 1;" y="6.56" x="6.82"><tspan dy="1em" x="6.82">does/donts</tspan></text><g preserveAspectRatio="none" focusable="true" width="0" height="17"/><ellipse width="6" height="6" rx="3" ry="3" cx="5" cy="5" stroke-width="2" stroke="#345780" stroke-dasharray="" stroke-linecap="" fill="#98bbe4" visibility="hidden" style="cursor: default; opacity: 0;"/></g><rect width="50" height="6" rx="0" ry="0" x="215" y="-146" stroke-width="1" stroke="#FF9933" stroke-dasharray="" stroke-linecap="" fill="#CC0033" stroke-opacity="0.4" fill-opacity="0.4" visibility="hidden" style="opacity: 0;"/></svg>