<?xml version="1.0" encoding="UTF-8" standalone="no"?>
<svg
   xmlns:svg="http://www.w3.org/2000/svg"
   xmlns="http://www.w3.org/2000/svg"
   width="156mm"
   height="40mm"
   viewBox="0 0 156 40"
   version="1.1"
   >
  <g
     transform="translate(0,-257)">
    <path
       style="fill:#373a3c;fill-opacity:1;fill-rule:nonzero;stroke:none;stroke-width:0.35277778"
       d="m 89.246027,289.44388 c -0.05512,-0.2384 -0.143317,-0.44786 -0.264584,-0.62976 -0.119888,-0.18191 -0.270097,-0.3266 -0.449241,-0.43271 -0.180523,-0.10749 -0.399629,-0.16123 -0.655945,-0.16123 -0.248049,0 -0.464399,0.0537 -0.649057,0.16123 -0.184655,0.10611 -0.33624,0.2508 -0.456131,0.43271 -0.121269,0.1819 -0.209463,0.39136 -0.264583,0.62976 -0.0565,0.23702 -0.08406,0.48644 -0.08406,0.74689 0,0.25356 0.02755,0.49886 0.08406,0.73588 0.05512,0.2384 0.143314,0.44786 0.264583,0.62976 0.119891,0.1819 0.271476,0.3266 0.456131,0.43271 0.184658,0.10748 0.401008,0.16122 0.649057,0.16122 0.256316,0 0.475422,-0.0537 0.655945,-0.16122 0.179144,-0.10611 0.329353,-0.25081 0.449241,-0.43271 0.121267,-0.1819 0.209463,-0.39136 0.264584,-0.62976 0.0565,-0.23702 0.08544,-0.48232 0.08544,-0.73588 0,-0.26045 -0.02893,-0.50987 -0.08544,-0.74689 m -2.764346,-4.66604 v 3.08681 h 0.02479 c 0.208086,-0.31695 0.490585,-0.54846 0.847497,-0.69454 0.355531,-0.14607 0.726223,-0.22048 1.1107,-0.22048 0.312811,0 0.62149,0.0648 0.926041,0.19017 0.304546,0.12678 0.578774,0.32108 0.824064,0.58291 0.243914,0.26045 0.442351,0.59531 0.595312,1.00183 0.151585,0.4079 0.227375,0.89297 0.227375,1.45521 0,0.56086 -0.07579,1.04593 -0.227375,1.45383 -0.152961,0.4079 -0.351398,0.74139 -0.595312,1.00321 -0.24529,0.26045 -0.519518,0.45475 -0.824064,0.58154 -0.304551,0.12678 -0.61323,0.19016 -0.926041,0.19016 -0.456131,0 -0.86541,-0.0717 -1.225079,-0.21359 -0.361046,-0.14332 -0.6339,-0.38447 -0.817177,-0.72485 h -0.02479 v 0.7841 h -1.621951 v -8.47631 z m 5.677517,0 h 1.707393 v 1.38906 h -1.707393 z m 1.707393,8.47631 h -1.707393 v -6.13778 h 1.707393 z m 5.818075,-3.81027 c -0.0551,-0.2384 -0.14332,-0.44786 -0.2632,-0.62976 -0.12127,-0.18191 -0.27148,-0.3266 -0.452,-0.43271 -0.17915,-0.10749 -0.39826,-0.16123 -0.65457,-0.16123 -0.24942,0 -0.4644,0.0537 -0.64906,0.16123 -0.18465,0.10611 -0.33624,0.2508 -0.45751,0.43271 -0.11988,0.1819 -0.20808,0.39136 -0.26458,0.62976 -0.0551,0.23702 -0.0841,0.48644 -0.0841,0.74689 0,0.25356 0.0289,0.49886 0.0841,0.73588 0.0565,0.2384 0.1447,0.44786 0.26458,0.62976 0.12127,0.1819 0.27286,0.3266 0.45751,0.43271 0.18466,0.10748 0.39964,0.16122 0.64906,0.16122 0.25631,0 0.47542,-0.0537 0.65457,-0.16122 0.18052,-0.10611 0.33073,-0.25081 0.452,-0.43271 0.11988,-0.1819 0.20808,-0.39136 0.2632,-0.62976 0.0565,-0.23702 0.0841,-0.48232 0.0841,-0.73588 0,-0.26045 -0.0276,-0.50987 -0.0841,-0.74689 m -2.76434,-4.66604 v 3.08681 h 0.0234 c 0.20946,-0.31695 0.49195,-0.54846 0.84887,-0.69454 0.35553,-0.14607 0.72622,-0.22048 1.1107,-0.22048 0.31281,0 0.62149,0.0648 0.92604,0.19017 0.304544,0.12678 0.578774,0.32108 0.822694,0.58291 0.24529,0.26045 0.44373,0.59531 0.59531,1.00183 0.15296,0.4079 0.22875,0.89297 0.22875,1.45521 0,0.56086 -0.0758,1.04593 -0.22875,1.45383 -0.15158,0.4079 -0.35002,0.74139 -0.59531,1.00321 -0.24392,0.26045 -0.51815,0.45475 -0.822694,0.58154 -0.30455,0.12678 -0.61323,0.19016 -0.92604,0.19016 -0.45613,0 -0.86541,-0.0717 -1.22508,-0.21359 -0.36104,-0.14332 -0.6339,-0.38447 -0.81855,-0.72485 h -0.0234 v 0.7841 h -1.623334 v -8.47631 z m 7.384904,8.47631 h -1.70739 v -8.47631 h 1.70739 z m 1.36702,-8.47631 h 1.70738 v 1.38906 h -1.70738 z m 1.70738,8.47631 h -1.70738 v -6.13778 h 1.70738 z m 2.887,-2.34404 c 0.0482,0.23289 0.12953,0.44235 0.24667,0.62839 0.11575,0.18603 0.27009,0.33486 0.46302,0.4451 0.19154,0.11162 0.4327,0.16674 0.72071,0.16674 0.28801,0 0.53054,-0.0551 0.7276,-0.16674 0.19568,-0.11024 0.3514,-0.25907 0.46853,-0.4451 0.11576,-0.18604 0.19844,-0.3955 0.24668,-0.62839 0.0482,-0.23427 0.0716,-0.47404 0.0716,-0.71934 0,-0.24529 -0.0234,-0.48644 -0.0716,-0.72347 -0.0482,-0.2384 -0.13092,-0.44786 -0.24668,-0.62976 -0.11713,-0.1819 -0.27285,-0.33073 -0.46853,-0.4451 -0.19706,-0.11438 -0.43959,-0.17226 -0.7276,-0.17226 -0.28801,0 -0.52917,0.0579 -0.72071,0.17226 -0.19293,0.11437 -0.34727,0.2632 -0.46302,0.4451 -0.11714,0.1819 -0.19844,0.39136 -0.24667,0.62976 -0.0482,0.23703 -0.0717,0.47818 -0.0717,0.72347 0,0.2453 0.0234,0.48507 0.0717,0.71934 m -1.5503,-2.05465 c 0.15159,-0.39963 0.36794,-0.74001 0.64906,-1.02113 0.27974,-0.28112 0.61598,-0.49885 1.00872,-0.65181 0.39274,-0.15572 0.83372,-0.23289 1.32292,-0.23289 0.4892,0 0.93155,0.0772 1.32843,0.23289 0.39687,0.15296 0.73449,0.37069 1.01561,0.65181 0.27974,0.28112 0.4961,0.6215 0.64906,1.02113 0.15158,0.39963 0.22875,0.84473 0.22875,1.33531 0,0.49059 -0.0772,0.93431 -0.22875,1.32981 -0.15296,0.3955 -0.36932,0.7345 -0.64906,1.01561 -0.28112,0.28113 -0.61874,0.4961 -1.01561,0.64631 -0.39688,0.1502 -0.83923,0.22599 -1.32843,0.22599 -0.4892,0 -0.93018,-0.0758 -1.32292,-0.22599 -0.39274,-0.15021 -0.72898,-0.36518 -1.00872,-0.64631 -0.28112,-0.28111 -0.49747,-0.62011 -0.64906,-1.01561 -0.15296,-0.3955 -0.22875,-0.83922 -0.22875,-1.32981 0,-0.49058 0.0758,-0.93568 0.22875,-1.33531 m 10.61503,-1.73909 v 1.12724 h -1.24988 v 3.03995 c 0,0.28388 0.0469,0.47405 0.14332,0.56913 0.0965,0.0951 0.28938,0.14332 0.57739,0.14332 0.0965,0 0.1888,-0.004 0.27699,-0.0124 0.0882,-0.008 0.17226,-0.0193 0.25218,-0.0358 v 1.30638 c -0.14469,0.0234 -0.30454,0.04 -0.48093,0.0469 -0.17639,0.008 -0.34865,0.0124 -0.51677,0.0124 -0.26458,0 -0.51538,-0.0179 -0.75103,-0.0537 -0.23702,-0.0358 -0.44511,-0.10473 -0.62563,-0.20808 -0.18052,-0.10198 -0.32246,-0.24943 -0.42719,-0.43822 -0.10335,-0.19017 -0.15572,-0.43959 -0.15572,-0.74827 v -3.62149 h -1.03353 v -1.12723 h 1.03353 v -1.83968 h 1.70739 v 1.83968 z m 2.60312,-2.33853 v 3.19292 h 0.0358 c 0.21636,-0.35554 0.49334,-0.61461 0.82958,-0.77722 0.33625,-0.16123 0.6656,-0.24391 0.9853,-0.24391 0.45751,0 0.83233,0.062 1.12448,0.18466 0.29214,0.12264 0.52228,0.29352 0.69178,0.50987 0.16811,0.21773 0.28525,0.48369 0.35415,0.79651 0.0675,0.31281 0.10198,0.6587 0.10198,1.03766 v 3.77582 h -1.70739 v -3.46714 c 0,-0.50574 -0.0799,-0.88332 -0.23978,-1.13274 -0.16123,-0.24943 -0.44511,-0.37483 -0.85301,-0.37483 -0.46578,0 -0.80202,0.13642 -1.0101,0.41065 -0.20809,0.27285 -0.31281,0.72209 -0.31281,1.34634 v 3.21772 h -1.7074 v -8.47631 z m 9.186,3.77445 c -0.20395,-0.22049 -0.51539,-0.33211 -0.93156,-0.33211 -0.27285,0 -0.49885,0.0455 -0.67937,0.13643 -0.18052,0.091 -0.32384,0.20394 -0.4327,0.33899 -0.10749,0.13505 -0.18466,0.27699 -0.22876,0.42719 -0.0441,0.15021 -0.0703,0.28526 -0.0772,0.40377 h 2.77675 c -0.0799,-0.42719 -0.22324,-0.75241 -0.42719,-0.97427 m -1.92925,3.23012 c 0.25631,0.24529 0.62425,0.36793 1.10518,0.36793 0.34589,0 0.64217,-0.0854 0.89021,-0.25493 0.24805,-0.17088 0.40101,-0.3514 0.45751,-0.54019 h 1.50207 c -0.24116,0.73587 -0.6091,1.26228 -1.10657,1.57785 -0.49609,0.31695 -1.09692,0.47542 -1.80247,0.47542 -0.48921,0 -0.93018,-0.0772 -1.32292,-0.23151 -0.39274,-0.15434 -0.72485,-0.37482 -0.9977,-0.6587 -0.27147,-0.28525 -0.48231,-0.62563 -0.63114,-1.02113 -0.14745,-0.39549 -0.22187,-0.83095 -0.22187,-1.30638 0,-0.45888 0.0758,-0.88607 0.22876,-1.28157 0.15158,-0.3955 0.36793,-0.73863 0.64905,-1.02664 0.27975,-0.28939 0.61461,-0.51676 1.00321,-0.6835 0.38861,-0.16537 0.81994,-0.24943 1.29261,-0.24943 0.52916,0 0.98943,0.10198 1.38217,0.30317 0.39274,0.20257 0.7152,0.47266 0.96738,0.81304 0.25218,0.34038 0.43546,0.72898 0.54708,1.16306 0.113,0.43546 0.15296,0.8916 0.11989,1.36564 h -4.48276 c 0.0234,0.5457 0.16399,0.94258 0.42031,1.18787 m 6.86951,-7.00457 v 4.54615 l 2.15112,-2.20762 h 2.02021 l -2.34405,2.25585 2.60863,3.88193 h -2.06844 l -1.70601,-2.74229 -0.66146,0.62838 v 2.11391 h -1.70738 v -8.47631 z m 8.48321,3.77445 c -0.20533,-0.22049 -0.51539,-0.33211 -0.93156,-0.33211 -0.27285,0 -0.49884,0.0455 -0.67937,0.13643 -0.18052,0.091 -0.32522,0.20394 -0.4327,0.33899 -0.10887,0.13505 -0.18466,0.27699 -0.22876,0.42719 -0.0441,0.15021 -0.0703,0.28526 -0.0785,0.40377 h 2.77674 c -0.0799,-0.42719 -0.22186,-0.75241 -0.42581,-0.97427 m -1.92926,3.23012 c 0.25632,0.24529 0.62426,0.36793 1.10519,0.36793 0.34451,0 0.64079,-0.0854 0.89021,-0.25493 0.24805,-0.17088 0.39963,-0.3514 0.45614,-0.54019 h 1.50206 c -0.23978,0.73587 -0.60772,1.26228 -1.10519,1.57785 -0.49747,0.31695 -1.0983,0.47542 -1.80385,0.47542 -0.48783,0 -0.9288,-0.0772 -1.32154,-0.23151 -0.39274,-0.15434 -0.72485,-0.37482 -0.9977,-0.6587 -0.27285,-0.28525 -0.48231,-0.62563 -0.63114,-1.02113 -0.14883,-0.39549 -0.22186,-0.83095 -0.22186,-1.30638 0,-0.45888 0.0758,-0.88607 0.22737,-1.28157 0.15296,-0.3955 0.36932,-0.73863 0.64905,-1.02664 0.28113,-0.28939 0.61599,-0.51676 1.0046,-0.6835 0.3886,-0.16537 0.81855,-0.24943 1.29122,-0.24943 0.52917,0 0.99081,0.10198 1.38355,0.30317 0.39274,0.20257 0.7152,0.47266 0.96738,0.81304 0.25218,0.34038 0.43408,0.72898 0.54708,1.16306 0.11162,0.43546 0.15159,0.8916 0.11989,1.36564 h -4.48413 c 0.0248,0.5457 0.16536,0.94258 0.42167,1.18787 m 6.70967,-4.66604 v 0.85439 h 0.0358 c 0.21635,-0.35554 0.49609,-0.61461 0.84061,-0.77722 0.34451,-0.16123 0.69728,-0.24391 1.05833,-0.24391 0.45613,0 0.83096,0.062 1.12448,0.18466 0.29214,0.12264 0.52227,0.29352 0.6904,0.50987 0.16812,0.21773 0.28663,0.48369 0.35553,0.79651 0.0675,0.31281 0.10197,0.6587 0.10197,1.03766 v 3.77582 h -1.70738 v -3.46714 c 0,-0.50574 -0.0799,-0.88332 -0.24116,-1.13274 -0.15985,-0.24943 -0.44373,-0.37483 -0.853,-0.37483 -0.46441,0 -0.80065,0.13642 -1.00873,0.41065 -0.20946,0.27285 -0.31282,0.72209 -0.31282,1.34634 v 3.21772 h -1.70739 v -6.13778 z m 0,0"
       id="path246" />
    <path
       style="fill:#373a3c;fill-opacity:1;fill-rule:nonzero;stroke:none;stroke-width:0.35277778"
       d="m 86.842729,281.38235 h -1.887913 v -8.47631 h 1.887913 z m 0.877808,-6.9081 v -1.56821 h 7.033509 v 1.56821 h -2.572798 v 6.9081 h -1.887913 v -6.9081 z m 11.228259,-1.56821 h 1.706014 v 1.38906 h -1.706014 z m 1.706014,8.47631 h -1.706014 v -6.1364 h 1.706014 z m 2.97105,-6.1364 v 0.85438 h 0.0358 c 0.21635,-0.35691 0.49609,-0.61598 0.8406,-0.77859 0.34451,-0.16123 0.69729,-0.24253 1.05833,-0.24253 0.45751,0 0.83096,0.0606 1.12448,0.18328 0.29215,0.12402 0.52228,0.29352 0.6904,0.51125 0.16812,0.21773 0.28663,0.48231 0.35554,0.79513 0.0675,0.31281 0.10197,0.6587 0.10197,1.03904 v 3.77444 h -1.70739 v -3.46576 c 0,-0.50712 -0.0799,-0.8847 -0.23978,-1.13413 -0.16123,-0.24942 -0.4451,-0.37344 -0.85438,-0.37344 -0.4644,0 -0.80064,0.13642 -1.0101,0.40927 -0.20809,0.27285 -0.31144,0.72209 -0.31144,1.34772 v 3.21634 h -1.70739 v -6.1364 z m 0,0"
        />
    <path
       style="fill:#373a3c;fill-opacity:1;fill-rule:nonzero;stroke:none;stroke-width:0.35277778"
       d="m 86.481681,261.03562 v 3.19291 h 0.03583 c 0.217731,-0.35553 0.49334,-0.6146 0.829583,-0.77721 0.33624,-0.16261 0.665594,-0.24391 0.985298,-0.24391 0.457506,0 0.832334,0.062 1.124479,0.18465 0.292142,0.12265 0.522274,0.29215 0.691771,0.50988 0.168125,0.21773 0.285258,0.48369 0.354158,0.79513 0.06753,0.31281 0.101973,0.66008 0.101973,1.03904 v 3.77582 h -1.706012 v -3.46714 c 0,-0.50574 -0.0813,-0.88332 -0.241154,-1.13275 -0.159851,-0.24942 -0.445106,-0.37483 -0.853006,-0.37483 -0.465775,0 -0.802018,0.13643 -1.010103,0.40928 -0.208081,0.27423 -0.312814,0.7221 -0.312814,1.34772 v 3.21772 h -1.706015 v -8.47631 z m 7.065203,4.22644 c 0.03306,-0.33348 0.144693,-0.57051 0.337619,-0.71244 0.191548,-0.14332 0.456131,-0.2136 0.792372,-0.2136 0.152961,0 0.294902,0.01 0.427193,0.0289 0.132292,0.0207 0.248045,0.0592 0.348642,0.11989 0.1006,0.0593 0.180525,0.14194 0.239781,0.24805 0.06063,0.10748 0.09095,0.25218 0.09095,0.43408 0.0083,0.17363 -0.0441,0.30592 -0.155718,0.39687 -0.112998,0.091 -0.264583,0.16123 -0.457507,0.20809 -0.192929,0.0469 -0.413414,0.0827 -0.661458,0.10611 -0.24805,0.0248 -0.500229,0.0565 -0.756545,0.0965 -0.256317,0.0386 -0.511251,0.0923 -0.763434,0.15985 -0.252179,0.0675 -0.4768,0.16812 -0.673859,0.30179 -0.195683,0.13505 -0.355534,0.31557 -0.47956,0.54019 -0.125402,0.226 -0.187412,0.51263 -0.187412,0.86127 0,0.31695 0.05512,0.58981 0.16261,0.81856 0.107487,0.23013 0.259072,0.4203 0.450617,0.57051 0.192927,0.1502 0.416169,0.26045 0.672481,0.33211 0.257694,0.0716 0.533302,0.10748 0.829583,0.10748 0.385849,0 0.762053,-0.0565 1.12999,-0.16674 0.369316,-0.11024 0.690396,-0.30455 0.961869,-0.58153 0.0083,0.10335 0.02204,0.20395 0.04272,0.30317 0.01929,0.0992 0.04547,0.19568 0.07717,0.29076 h 1.732188 c -0.0813,-0.12678 -0.13642,-0.31695 -0.16812,-0.57051 -0.0331,-0.25217 -0.0496,-0.51814 -0.0496,-0.79512 v -3.19292 c 0,-0.37207 -0.0827,-0.6711 -0.25218,-0.8971 -0.16812,-0.22462 -0.38447,-0.40101 -0.649055,-0.52779 -0.264583,-0.12678 -0.556728,-0.21222 -0.877811,-0.25494 -0.319704,-0.0441 -0.636653,-0.0661 -0.948089,-0.0661 -0.345887,0 -0.687642,0.0345 -1.028015,0.10197 -0.341754,0.0661 -0.647679,0.17915 -0.920533,0.33762 -0.271473,0.15848 -0.496094,0.36794 -0.672481,0.62976 -0.17639,0.26045 -0.276987,0.58981 -0.300413,0.9853 z m 2.236555,1.87551 c 0,0.0951 -0.0096,0.22187 -0.0303,0.37896 -0.01929,0.15848 -0.07441,0.31558 -0.16261,0.46992 -0.08819,0.15434 -0.224615,0.28663 -0.407898,0.39687 -0.184655,0.11162 -0.445103,0.16674 -0.781346,0.16674 -0.136427,0 -0.268719,-0.0124 -0.396875,-0.0358 -0.128159,-0.0234 -0.241157,-0.0648 -0.33624,-0.12402 -0.09646,-0.0606 -0.172257,-0.14056 -0.228757,-0.24391 -0.0565,-0.10336 -0.08406,-0.23014 -0.08406,-0.38034 0,-0.15848 0.02755,-0.28801 0.08406,-0.39137 0.0565,-0.10335 0.129538,-0.18741 0.221864,-0.25493 0.09233,-0.0675 0.201195,-0.12127 0.325218,-0.15985 0.124024,-0.04 0.250804,-0.0717 0.37896,-0.0951 0.135049,-0.0248 0.271473,-0.0441 0.4079,-0.0606 0.136427,-0.0152 0.267338,-0.0345 0.391361,-0.0593 0.124026,-0.0234 0.239779,-0.0524 0.348645,-0.0882 0.107486,-0.0358 0.197061,-0.0854 0.270097,-0.14883 z m 4.671551,-3.76342 v 0.85438 h 0.0372 c 0.21635,-0.35553 0.4961,-0.6146 0.84061,-0.77721 0.3445,-0.16261 0.69728,-0.24391 1.05833,-0.24391 0.45613,0 0.83096,0.062 1.1231,0.18465 0.29352,0.12265 0.52365,0.29215 0.69177,0.50988 0.16812,0.21773 0.28663,0.48369 0.35416,0.79513 0.0689,0.31281 0.10197,0.66008 0.10197,1.03904 v 3.77582 h -1.70601 v -3.46714 c 0,-0.50574 -0.0799,-0.88332 -0.24115,-1.13275 -0.15986,-0.24942 -0.44373,-0.37483 -0.85301,-0.37483 -0.4644,0 -0.80202,0.13643 -1.0101,0.40928 -0.20809,0.27423 -0.31281,0.7221 -0.31281,1.34772 v 3.21772 h -1.706014 v -6.13778 z m 9.85435,2.32062 c -0.0482,-0.23289 -0.12953,-0.4396 -0.24529,-0.61737 -0.11713,-0.17776 -0.26734,-0.32246 -0.45199,-0.4327 -0.18328,-0.11162 -0.41617,-0.16674 -0.69591,-0.16674 -0.28112,0 -0.51814,0.0551 -0.70969,0.16674 -0.19293,0.11024 -0.34727,0.25632 -0.46302,0.43822 -0.11576,0.18328 -0.2012,0.38998 -0.25218,0.62425 -0.0524,0.23289 -0.0786,0.4768 -0.0786,0.72898 0,0.2384 0.0276,0.47542 0.0841,0.71245 0.0565,0.2384 0.14607,0.44924 0.27147,0.63527 0.12265,0.18604 0.27974,0.33624 0.46716,0.452 0.18879,0.11438 0.41616,0.17225 0.68075,0.17225 0.27974,0 0.51401,-0.0565 0.7028,-0.16674 0.18741,-0.11024 0.33762,-0.25907 0.45061,-0.4451 0.11163,-0.18604 0.19155,-0.39826 0.23978,-0.63528 0.0482,-0.23702 0.073,-0.48231 0.073,-0.73587 0,-0.25356 -0.0248,-0.4961 -0.073,-0.73036 m 0.073,3.03306 c -0.20119,0.33211 -0.46302,0.57188 -0.78824,0.71796 -0.32384,0.14607 -0.69039,0.22048 -1.09967,0.22048 -0.4644,0 -0.87368,-0.0896 -1.22508,-0.26734 -0.35278,-0.17776 -0.64354,-0.4203 -0.8723,-0.72484 -0.22875,-0.30455 -0.401,-0.65457 -0.51676,-1.05007 -0.11714,-0.3955 -0.17501,-0.80753 -0.17501,-1.23472 0,-0.41203 0.0579,-0.80891 0.17501,-1.19338 0.11576,-0.3831 0.28801,-0.72209 0.51676,-1.01424 0.22876,-0.29352 0.51401,-0.52917 0.8599,-0.70693 0.34451,-0.17777 0.74414,-0.26734 1.20165,-0.26734 0.36794,0 0.71934,0.0772 1.05144,0.23151 0.33349,0.15434 0.59532,0.38309 0.78824,0.6835 h 0.0234 v -3.0868 h 1.70738 v 8.47631 h -1.62332 v -0.7841 z m 7.4359,-3.02755 c -0.0551,-0.23702 -0.14332,-0.44649 -0.26459,-0.62839 -0.11989,-0.1819 -0.2701,-0.32659 -0.45062,-0.43408 -0.18052,-0.10611 -0.39825,-0.15985 -0.65457,-0.15985 -0.24804,0 -0.46439,0.0537 -0.64905,0.15985 -0.18466,0.10749 -0.33624,0.25218 -0.45613,0.43408 -0.12127,0.1819 -0.20946,0.39137 -0.26459,0.62839 -0.0565,0.2384 -0.0854,0.48645 -0.0854,0.74827 0,0.25356 0.0289,0.49886 0.0854,0.73588 0.0551,0.23702 0.14332,0.44786 0.26459,0.62976 0.11989,0.1819 0.27147,0.3266 0.45613,0.4327 0.18466,0.10749 0.40101,0.16123 0.64905,0.16123 0.25632,0 0.47405,-0.0537 0.65457,-0.16123 0.18052,-0.1061 0.33073,-0.2508 0.45062,-0.4327 0.12127,-0.1819 0.20946,-0.39274 0.26459,-0.62976 0.0565,-0.23702 0.0841,-0.48232 0.0841,-0.73588 0,-0.26182 -0.0276,-0.50987 -0.0841,-0.74827 m -2.7643,-4.66466 v 3.0868 h 0.0248 c 0.20809,-0.31694 0.49058,-0.54845 0.8475,-0.69453 0.35553,-0.14607 0.72622,-0.22048 1.11069,-0.22048 0.31282,0 0.6215,0.0634 0.92604,0.19017 0.30455,0.12678 0.57878,0.32108 0.82407,0.58153 0.24391,0.26183 0.44235,0.59669 0.59393,1.00321 0.15297,0.4079 0.22876,0.89297 0.22876,1.45383 0,0.56224 -0.0758,1.04731 -0.22876,1.45521 -0.15158,0.4079 -0.35002,0.74138 -0.59393,1.00321 -0.24529,0.26045 -0.51952,0.45475 -0.82407,0.58153 -0.30454,0.12678 -0.61322,0.19017 -0.92604,0.19017 -0.45613,0 -0.8654,-0.0717 -1.22507,-0.21359 -0.36105,-0.14332 -0.6339,-0.38448 -0.81856,-0.72485 h -0.0234 v 0.7841 h -1.62333 v -8.47631 z m 9.83093,8.47631 v -0.85576 h -0.0358 c -0.21635,0.35691 -0.49747,0.61461 -0.84197,0.7717 -0.34452,0.15848 -0.69729,0.2384 -1.05834,0.2384 -0.45613,0 -0.83096,-0.0593 -1.1231,-0.17914 -0.29352,-0.11851 -0.52365,-0.28664 -0.69178,-0.50436 -0.16812,-0.21773 -0.28663,-0.48232 -0.35415,-0.79513 -0.0689,-0.31282 -0.10197,-0.6587 -0.10197,-1.03904 v -3.77445 h 1.706 v 3.46577 c 0,0.50712 0.0799,0.8847 0.24116,1.13412 0.15985,0.24943 0.44511,0.37345 0.85301,0.37345 0.4644,0 0.80202,-0.13642 1.0101,-0.40928 0.20808,-0.27285 0.31282,-0.72209 0.31282,-1.34634 v -3.21772 h 1.70601 v 6.13778 z m 5.86217,-5.03397 c -0.27285,0 -0.50161,0.062 -0.68626,0.18466 -0.18328,0.12264 -0.33487,0.28112 -0.45062,0.47404 -0.11576,0.1943 -0.19844,0.4079 -0.24529,0.64079 -0.0482,0.23427 -0.073,0.46578 -0.073,0.69453 0,0.22187 0.0248,0.44786 0.073,0.67662 0.0468,0.23013 0.1254,0.43822 0.23426,0.62425 0.10749,0.18603 0.25356,0.33762 0.43822,0.45613 0.18465,0.11851 0.40928,0.17914 0.67248,0.17914 0.40928,0 0.72347,-0.11299 0.94396,-0.33899 0.22048,-0.226 0.35829,-0.52779 0.41479,-0.90813 h 1.64676 c -0.11163,0.8158 -0.43271,1.43592 -0.96188,1.86449 -0.52917,0.42719 -1.20578,0.64078 -2.03123,0.64078 -0.46439,0 -0.89159,-0.0772 -1.28019,-0.23151 -0.38861,-0.15434 -0.71934,-0.37069 -0.99081,-0.64767 -0.27286,-0.27699 -0.48507,-0.60772 -0.63803,-0.99081 -0.15159,-0.38448 -0.22738,-0.80478 -0.22738,-1.26504 0,-0.47405 0.0703,-0.91502 0.20946,-1.32292 0.14056,-0.4079 0.34727,-0.7593 0.61874,-1.05696 0.27285,-0.29627 0.60496,-0.52778 0.9977,-0.69453 0.39274,-0.16536 0.84198,-0.24942 1.34634,-0.24942 0.36932,0 0.72348,0.0482 1.06385,0.14331 0.34037,0.0951 0.64492,0.23978 0.91364,0.43271 0.26872,0.1943 0.48783,0.43546 0.65595,0.72484 0.16812,0.28802 0.26458,0.63115 0.288,1.02664 h -1.67018 c -0.11299,-0.70417 -0.5333,-1.05695 -1.26228,-1.05695 m 5.66374,-3.44234 v 3.19291 h 0.0358 c 0.21635,-0.35553 0.49333,-0.6146 0.82958,-0.77721 0.33624,-0.16261 0.66421,-0.24391 0.98529,-0.24391 0.45751,0 0.83096,0.062 1.12448,0.18465 0.29214,0.12265 0.52228,0.29215 0.6904,0.50988 0.16812,0.21773 0.28663,0.48369 0.35553,0.79513 0.0675,0.31281 0.10198,0.66008 0.10198,1.03904 v 3.77582 h -1.70739 v -3.46714 c 0,-0.50574 -0.0799,-0.88332 -0.23978,-1.13275 -0.16123,-0.24942 -0.44511,-0.37483 -0.85438,-0.37483 -0.4644,0 -0.80065,0.13643 -1.00873,0.40928 -0.20946,0.27423 -0.31281,0.7221 -0.31281,1.34772 v 3.21772 h -1.70739 v -8.47631 z m 0,0"
       id="path250" />
    <path
       style="fill:#373a3c;fill-opacity:1;fill-rule:nonzero;stroke:none;stroke-width:0.35277778"
       d="M 6.3900967,273.61711 H 3.622996 v -12.58149 h 2.7671007 z m 1.372528,-10.25536 v -2.32613 H 18.071727 v 2.32613 h -3.771688 v 10.25536 H 11.532938 V 263.36175 Z M 39.073031,293.40849 V 283.04565 H 18.501675 v -5.54523 H 44.61688 v 15.90807 z m 15.201141,-25.44685 c -0.08268,-0.35278 -0.210842,-0.66422 -0.387229,-0.93431 -0.17639,-0.2701 -0.396875,-0.48507 -0.66008,-0.64354 -0.264583,-0.15848 -0.585668,-0.2384 -0.961874,-0.2384 -0.363802,0 -0.680746,0.0799 -0.950844,0.2384 -0.270094,0.15847 -0.493339,0.37344 -0.669729,0.64354 -0.176387,0.27009 -0.305922,0.58153 -0.387225,0.93431 -0.08268,0.3514 -0.124024,0.72209 -0.124024,1.10932 0,0.3762 0.04134,0.74001 0.124024,1.09278 0.0813,0.35278 0.210838,0.66422 0.387225,0.93431 0.17639,0.2701 0.399635,0.48369 0.669729,0.64217 0.270098,0.15847 0.587042,0.2384 0.950844,0.2384 0.376206,0 0.697291,-0.0799 0.961874,-0.2384 0.263205,-0.15848 0.48369,-0.37207 0.66008,-0.64217 0.176387,-0.27009 0.304546,-0.58153 0.387229,-0.93431 0.08268,-0.35277 0.124023,-0.71658 0.124023,-1.09278 0,-0.38723 -0.04134,-0.75792 -0.124023,-1.10932 m -4.052809,-6.92602 v 4.58198 h 0.03583 c 0.304546,-0.46992 0.719336,-0.81304 1.241612,-1.03078 0.523653,-0.21773 1.066602,-0.32659 1.630217,-0.32659 0.458886,0 0.910884,0.0937 1.357369,0.2825 0.446484,0.18741 0.848873,0.47542 1.207161,0.86265 0.358291,0.3886 0.649057,0.8847 0.872299,1.48966 0.22324,0.60496 0.334862,1.32429 0.334862,2.15801 0,0.83509 -0.111622,1.55443 -0.334862,2.15938 -0.223242,0.60496 -0.514008,1.10105 -0.872299,1.48828 -0.358288,0.38861 -0.760677,0.67662 -1.207161,0.86403 -0.446485,0.18742 -0.898483,0.2825 -1.357369,0.2825 -0.669723,0 -1.269171,-0.10611 -1.796962,-0.31832 -0.529167,-0.21085 -0.928796,-0.56914 -1.198891,-1.07488 h -0.03446 v 1.16307 h -2.379878 v -12.58149 z m 8.411544,0 h 2.502519 v 2.06154 h -2.502519 z m 2.502519,12.58149 h -2.502519 v -9.11021 h 2.502519 z m 8.618249,-5.65547 c -0.08268,-0.35278 -0.212217,-0.66422 -0.387228,-0.93431 -0.176387,-0.2701 -0.396875,-0.48507 -0.661459,-0.64354 -0.264583,-0.15848 -0.584287,-0.2384 -0.960493,-0.2384 -0.363802,0 -0.680751,0.0799 -0.952225,0.2384 -0.270094,0.15847 -0.493339,0.37344 -0.668348,0.64354 -0.176389,0.27009 -0.305924,0.58153 -0.388606,0.93431 -0.0813,0.3514 -0.122645,0.72209 -0.122645,1.10932 0,0.3762 0.04134,0.74001 0.122645,1.09278 0.08268,0.35278 0.212217,0.66422 0.388606,0.93431 0.175009,0.2701 0.398254,0.48369 0.668348,0.64217 0.271474,0.15847 0.588423,0.2384 0.952225,0.2384 0.376206,0 0.69591,-0.0799 0.960493,-0.2384 0.264584,-0.15848 0.485072,-0.37207 0.661459,-0.64217 0.175011,-0.27009 0.304546,-0.58153 0.387228,-0.93431 0.0813,-0.35277 0.122645,-0.71658 0.122645,-1.09278 0,-0.38723 -0.04134,-0.75792 -0.122645,-1.10932 m -4.052811,-6.92602 v 4.58198 h 0.03447 c 0.305925,-0.46992 0.719334,-0.81304 1.242992,-1.03078 0.522271,-0.21773 1.066599,-0.32659 1.630217,-0.32659 0.457507,0 0.909502,0.0937 1.355989,0.2825 0.446482,0.18741 0.848871,0.47542 1.207159,0.86265 0.358294,0.3886 0.64906,0.8847 0.8723,1.48966 0.223242,0.60496 0.334864,1.32429 0.334864,2.15801 0,0.83509 -0.111622,1.55443 -0.334864,2.15938 -0.22324,0.60496 -0.514006,1.10105 -0.8723,1.48828 -0.358288,0.38861 -0.760677,0.67662 -1.207159,0.86403 -0.446487,0.18742 -0.898482,0.2825 -1.355989,0.2825 -0.669727,0 -1.269175,-0.10611 -1.798341,-0.31832 -0.527789,-0.21085 -0.927418,-0.56914 -1.197515,-1.07488 h -0.03583 v 1.16307 h -2.378496 v -12.58149 z m 0,0"
        />
  </g>
</svg>
