<?xml version="1.0" encoding="UTF-8" standalone="no"?><!DOCTYPE svg PUBLIC "-//W3C//DTD SVG 1.1//EN" "http://www.w3.org/Graphics/SVG/1.1/DTD/svg11.dtd"><svg width="100%" height="100%" viewBox="0 0 1900 752" version="1.1" xmlns="http://www.w3.org/2000/svg" xmlns:xlink="http://www.w3.org/1999/xlink" xml:space="preserve" xmlns:serif="http://www.serif.com/" style="fill-rule:evenodd;clip-rule:evenodd;stroke-linecap:round;stroke-linejoin:round;stroke-miterlimit:1.5;"><g transform="matrix(1,0,0,1,-524.367,-495.5)"><text x="592.592px" y="682.494px" style="font-family:'SourceSansPro-Regular', 'Source Sans Pro', sans-serif;font-size:41.667px;fill:#2780e3;">LEADER</text><text x="742.592px" y="682.494px" style="font-family:'SourceSansPro-Regular', 'Source Sans Pro', sans-serif;font-size:41.667px;fill:#231f20;"><tspan x="742.592px " y="682.494px ">0</tspan>0000c<tspan x="864.717px " y="682.494px ">a</tspan>m a2200000   4500</text><text x="592.592px" y="724.161px" style="font-family:'SourceSansPro-Regular', 'Source Sans Pro', sans-serif;font-size:41.667px;fill:#2780e3;">001</text><text x="742.592px" y="724.161px" style="font-family:'SourceSansPro-Regular', 'Source Sans Pro', sans-serif;font-size:41.667px;fill:#231f20;"><tspan x="742.592px " y="724.161px ">1</tspan>805728520</text><text x="592.592px" y="765.828px" style="font-family:'SourceSansPro-Regular', 'Source Sans Pro', sans-serif;font-size:41.667px;fill:#2780e3;">245 1 0 	<tspan x="742.592px " y="765.828px ">$</tspan>a</text><text x="793.05px" y="765.828px" style="font-family:'SourceSansPro-Regular', 'Source Sans Pro', sans-serif;font-size:41.667px;fill:#231f20;">Handbuch IT in Bibliothek<tspan x="1244.3px " y="765.828px ">e</tspan>n : die wichtigst<tspan x="1535.72px " y="765.828px ">e</tspan>n Themen z<tspan x="1756.76px " y="765.828px ">u</tspan>m Einsatz v<tspan x="1975.47px " y="765.828px ">o</tspan>n IT in Bibliothek<tspan x="2290.43px " y="765.828px ">e</tspan>n:</text><g transform="matrix(41.6667,0,0,41.6667,1670.3,807.494)"><path d="M0.565,-0.068c-0.016,0.006 -0.038,0.013 -0.055,0.013c-0.056,0 -0.076,-0.034 -0.076,-0.094l0,-0.27l0.132,0l0,-0.067l-0.132,0l-0,-0.136l-0.068,0l-0.01,0.136l-0.178,0l-0,-0.077c-0,-0.062 0.022,-0.094 0.068,-0.094c0.018,0 0.037,0.004 0.055,0.012l0.018,-0.063c-0.022,-0.009 -0.051,-0.016 -0.081,-0.016c-0.097,0 -0.142,0.062 -0.142,0.161l-0,0.077l-0.066,0.005l-0,0.062l0.066,-0l-0,0.419l0.082,-0l-0,-0.419l0.174,-0l-0,0.269c-0,0.096 0.035,0.162 0.139,0.162c0.03,-0 0.063,-0.009 0.09,-0.018l-0.016,-0.062Z" style="fill:#231f20;fill-rule:nonzero;"/></g><text x="742.592px" y="807.494px" style="font-family:'SourceSansPro-Regular', 'Source Sans Pro', sans-serif;font-size:41.667px;fill:#231f20;"><tspan x="742.592px 753.342px 772.134px " y="807.494px 807.494px 807.494px ">IT-</tspan>Manag<tspan x="901.05px " y="807.494px ">e</tspan>ment<tspan x="1014.38px " y="807.494px ">,</tspan> Bibliotheksmanag<tspan x="1350.22px " y="807.494px ">e</tspan>mentsyst<tspan x="1531.01px " y="807.494px ">e</tspan>me, So<tspan x="1695.05px 1724.55px 1745.88px 1759.92px " y="807.494px 807.494px 807.494px 807.494px ">ware</tspan>entwicklung, Me<tspan x="2063.97px 2077.3px " y="807.494px 807.494px ">ta</tspan>dat<tspan x="2156.76px " y="807.494px ">e</tspan>n ...</text><text x="592.592px" y="849.161px" style="font-family:'SourceSansPro-Regular', 'Source Sans Pro', sans-serif;font-size:41.667px;fill:#2780e3;">264 1 	<tspan x="742.592px " y="849.161px ">$</tspan>a</text><text x="793.05px" y="849.161px" style="font-family:'SourceSansPro-Regular', 'Source Sans Pro', sans-serif;font-size:41.667px;fill:#231f20;">Götting<tspan x="922.759px " y="849.161px ">e</tspan>n</text><text x="742.592px" y="890.828px" style="font-family:'SourceSansPro-Regular', 'Source Sans Pro', sans-serif;font-size:41.667px;fill:#2780e3;">$b</text><text x="794.842px" y="890.828px" style="font-family:'SourceSansPro-Regular', 'Source Sans Pro', sans-serif;font-size:41.667px;fill:#231f20;">V<tspan x="815.467px " y="890.828px ">e</tspan>rbundz<tspan x="959.592px " y="890.828px ">e</tspan>ntr<tspan x="1030.55px " y="890.828px ">a</tspan>le des GB<tspan x="1210.8px " y="890.828px ">V</tspan> (V<tspan x="1273.55px 1294.97px " y="890.828px 890.828px ">ZG</tspan>)</text><text x="1349.92px" y="890.828px" style="font-family:'SourceSansPro-Regular', 'Source Sans Pro', sans-serif;font-size:41.667px;fill:#2780e3;">$c</text><text x="1398.05px" y="890.828px" style="font-family:'SourceSansPro-Regular', 'Source Sans Pro', sans-serif;font-size:41.667px;fill:#231f20;">1. Juni 2022</text><text x="592.592px" y="932.494px" style="font-family:'SourceSansPro-Regular', 'Source Sans Pro', sans-serif;font-size:41.667px;fill:#2780e3;">300 	<tspan x="742.592px " y="932.494px ">$</tspan>a</text><text x="793.05px" y="932.494px" style="font-family:'SourceSansPro-Regular', 'Source Sans Pro', sans-serif;font-size:41.667px;fill:#231f20;">Online<tspan x="907.884px 920.842px 944.425px " y="932.494px 932.494px 932.494px ">-Re</tspan>ssour<tspan x="1059.3px 1077.42px " y="932.494px 932.494px ">ce</tspan></text><text x="592.592px" y="974.161px" style="font-family:'SourceSansPro-Regular', 'Source Sans Pro', sans-serif;font-size:41.667px;fill:#2780e3;">540 	<tspan x="742.592px " y="974.161px ">$</tspan>a</text><text x="793.05px" y="974.161px" style="font-family:'SourceSansPro-Regular', 'Source Sans Pro', sans-serif;font-size:41.667px;fill:#231f20;">Namensnennung 3.0 Deutschland</text><text x="742.592px" y="1015.83px" style="font-family:'SourceSansPro-Regular', 'Source Sans Pro', sans-serif;font-size:41.667px;fill:#2780e3;">$f</text><text x="783.884px" y="1015.83px" style="font-family:'SourceSansPro-Regular', 'Source Sans Pro', sans-serif;font-size:41.667px;fill:#231f20;">C<tspan x="806.259px 828.759px 841.717px 865.425px " y="1015.83px 1015.83px 1015.83px 1015.83px ">C-BY</tspan> 3.0 DE</text><text x="742.592px" y="1057.49px" style="font-family:'SourceSansPro-Regular', 'Source Sans Pro', sans-serif;font-size:41.667px;fill:#2780e3;">$u</text><text x="794.384px" y="1057.49px" style="font-family:'SourceSansPro-Regular', 'Source Sans Pro', sans-serif;font-size:41.667px;fill:#231f20;">https://<tspan x="924.05px 943.05px 957.092px 977.175px " y="1057.49px 1057.49px 1057.49px 1057.49px ">crea</tspan>tiv<tspan x="1042.13px 1062.8px 1080.92px " y="1057.49px 1057.49px 1057.49px ">eco</tspan>mmons.<tspan x="1245.47px 1268.05px 1282.09px 1305.09px " y="1057.49px 1057.49px 1057.49px 1057.49px ">org/</tspan>lic<tspan x="1358.67px " y="1057.49px ">e</tspan>nses/b<tspan x="1495.26px 1514.13px " y="1057.49px 1057.49px ">y/</tspan>3.0/<tspan x="1593.8px " y="1057.49px ">d</tspan>e/</text><text x="592.592px" y="1099.16px" style="font-family:'SourceSansPro-Regular', 'Source Sans Pro', sans-serif;font-size:41.667px;fill:#2780e3;">856 4 0 	<tspan x="742.592px " y="1099.16px ">$</tspan>a</text><text x="793.05px" y="1099.16px" style="font-family:'SourceSansPro-Regular', 'Source Sans Pro', sans-serif;font-size:41.667px;fill:#231f20;">https://it<tspan x="947.259px " y="1099.16px ">-</tspan>in-bibliothek<tspan x="1183.47px " y="1099.16px ">e</tspan>n.<tspan x="1236.97px " y="1099.16px ">d</tspan>e/</text><text x="742.592px" y="1140.83px" style="font-family:'SourceSansPro-Regular', 'Source Sans Pro', sans-serif;font-size:41.667px;fill:#2780e3;">$x</text><text x="790.3px" y="1140.83px" style="font-family:'SourceSansPro-Regular', 'Source Sans Pro', sans-serif;font-size:41.667px;fill:#231f20;">V<tspan x="810.925px " y="1140.83px ">e</tspan>rlag</text><text x="742.592px" y="1182.49px" style="font-family:'SourceSansPro-Regular', 'Source Sans Pro', sans-serif;font-size:41.667px;fill:#2780e3;">$z</text><text x="789.425px" y="1182.49px" style="font-family:'SourceSansPro-Regular', 'Source Sans Pro', sans-serif;font-size:41.667px;fill:#231f20;">k<tspan x="809.3px " y="1182.49px ">o</tspan>st<tspan x="863.009px " y="1182.49px ">e</tspan>nfr<tspan x="932.675px " y="1182.49px ">e</tspan>i</text></g><text x="26.3px" y="97.1px" style="font-family:'SourceSansPro-Regular', 'Source Sans Pro', sans-serif;font-size:100px;fill:#2780e3;">Mar<tspan x="183.4px " y="97.1px ">c</tspan>21</text><rect x="35" y="131.7" width="1830" height="588.8" style="fill:none;stroke:#2780e3;stroke-width:8.33px;"/></svg>