<?xml version="1.0" encoding="UTF-8" standalone="no"?><!DOCTYPE svg PUBLIC "-//W3C//DTD SVG 1.1//EN" "http://www.w3.org/Graphics/SVG/1.1/DTD/svg11.dtd"><svg width="100%" height="100%" viewBox="0 0 1777 1395" version="1.1" xmlns="http://www.w3.org/2000/svg" xmlns:xlink="http://www.w3.org/1999/xlink" xml:space="preserve" xmlns:serif="http://www.serif.com/" style="fill-rule:evenodd;clip-rule:evenodd;stroke-linecap:round;stroke-linejoin:round;stroke-miterlimit:1.5;"><g transform="matrix(1,0,0,1,-451.574,-674.08)"><text x="512.423px" y="875.913px" style="font-family:'SourceSansPro-Regular', 'Source Sans Pro', sans-serif;font-size:41.667px;fill:#427bc0;">&lt;?xml v<tspan x="642.298px 662.965px 677.007px " y="875.913px 875.913px 875.913px ">ers</tspan>ion=&quot;1.0&quot; enc<tspan x="928.09px " y="875.913px ">o</tspan>ding=&quot;UTF-8&quot;?&gt;</text><text x="512.423px" y="917.58px" style="font-family:'SourceSansPro-Regular', 'Source Sans Pro', sans-serif;font-size:41.667px;fill:#427bc0;">&lt;r<tspan x="547.173px 567.84px 585.965px 608.548px 622.59px " y="917.58px 917.58px 917.58px 917.58px 917.58px ">ecord</tspan>&gt;</text><text x="546.09px" y="959.247px" style="font-family:'SourceSansPro-Regular', 'Source Sans Pro', sans-serif;font-size:41.667px;fill:#427bc0;">&lt;le<tspan x="597.507px " y="959.247px ">a</tspan>der&gt;</text><text x="697.798px" y="959.247px" style="font-family:'SourceSansPro-Regular', 'Source Sans Pro', sans-serif;font-size:41.667px;">01000c<tspan x="819.923px " y="959.247px ">a</tspan>m a2200265   4500</text><text x="1158.59px" y="959.247px" style="font-family:'SourceSansPro-Regular', 'Source Sans Pro', sans-serif;font-size:41.667px;fill:#427bc0;">&lt;/le<tspan x="1224.59px " y="959.247px ">a</tspan>der&gt;</text><text x="546.09px" y="1000.91px" style="font-family:'SourceSansPro-Regular', 'Source Sans Pro', sans-serif;font-size:41.667px;fill:#427bc0;">&lt;c<tspan x="584.923px " y="1000.91px ">o</tspan>ntr<tspan x="658.423px " y="1000.91px ">o</tspan>lfield t<tspan x="790.215px " y="1000.91px ">a</tspan>g=&quot;001&quot;&gt;</text><text x="971.59px" y="1000.91px" style="font-family:'SourceSansPro-Regular', 'Source Sans Pro', sans-serif;font-size:41.667px;">1805728520</text><text x="1178.67px" y="1000.91px" style="font-family:'SourceSansPro-Regular', 'Source Sans Pro', sans-serif;font-size:41.667px;fill:#427bc0;">&lt;/<tspan x="1212.67px 1230.8px " y="1000.91px 1000.91px ">co</tspan>ntr<tspan x="1304.3px " y="1000.91px ">o</tspan>lfield&gt;</text><text x="546.09px" y="1042.58px" style="font-family:'SourceSansPro-Regular', 'Source Sans Pro', sans-serif;font-size:41.667px;fill:#427bc0;">&lt;dat<tspan x="624.59px " y="1042.58px ">a</tspan>field t<tspan x="744.507px " y="1042.58px ">a</tspan>g=&quot;245&quot; ind1=&quot;1&quot; ind2=&quot;0&quot;&gt;</text><text x="579.757px" y="1084.25px" style="font-family:'SourceSansPro-Regular', 'Source Sans Pro', sans-serif;font-size:41.667px;fill:#427bc0;">&lt;subfield c<tspan x="767.09px " y="1084.25px ">o</tspan>de=&quot;a&quot;&gt;</text><text x="931.715px" y="1084.25px" style="font-family:'SourceSansPro-Regular', 'Source Sans Pro', sans-serif;font-size:41.667px;">Handbuch IT in Bibliothek<tspan x="1382.96px " y="1084.25px ">e</tspan>n : die wichtigst<tspan x="1674.38px " y="1084.25px ">e</tspan>n Themen</text><text x="613.423px" y="1125.91px" style="font-family:'SourceSansPro-Regular', 'Source Sans Pro', sans-serif;font-size:41.667px;">z<tspan x="630.715px " y="1125.91px ">u</tspan>m Einsatz v<tspan x="849.423px " y="1125.91px ">o</tspan>n IT in Bibliothek<tspan x="1164.38px " y="1125.91px ">e</tspan>n: IT<tspan x="1256.17px " y="1125.91px ">-</tspan>Manag<tspan x="1385.09px " y="1125.91px ">e</tspan>ment<tspan x="1498.42px " y="1125.91px ">,</tspan> Bibliotheksmanag<tspan x="1834.26px " y="1125.91px ">e</tspan>mentsyst<tspan x="2015.05px " y="1125.91px ">e</tspan>me,</text><g transform="matrix(41.6667,0,0,41.6667,658.048,1167.58)"><path d="M0.565,-0.068c-0.016,0.006 -0.038,0.013 -0.055,0.013c-0.056,0 -0.076,-0.034 -0.076,-0.094l0,-0.27l0.132,0l0,-0.067l-0.132,0l-0,-0.136l-0.068,0l-0.01,0.136l-0.178,0l-0,-0.077c-0,-0.062 0.022,-0.094 0.068,-0.094c0.018,0 0.037,0.004 0.055,0.012l0.018,-0.063c-0.022,-0.009 -0.051,-0.016 -0.081,-0.016c-0.097,0 -0.142,0.062 -0.142,0.161l-0,0.077l-0.066,0.005l-0,0.062l0.066,-0l-0,0.419l0.082,-0l-0,-0.419l0.174,-0l-0,0.269c-0,0.096 0.035,0.162 0.139,0.162c0.03,-0 0.063,-0.009 0.09,-0.018l-0.016,-0.062Z" style="fill-rule:nonzero;"/></g><text x="613.423px" y="1167.58px" style="font-family:'SourceSansPro-Regular', 'Source Sans Pro', sans-serif;font-size:41.667px;">So<tspan x="682.798px 712.298px 733.632px 747.673px " y="1167.58px 1167.58px 1167.58px 1167.58px ">ware</tspan>entwicklung, Me<tspan x="1051.71px 1065.05px " y="1167.58px 1167.58px ">ta</tspan>dat<tspan x="1144.51px " y="1167.58px ">e</tspan>n ...</text><text x="1235.92px" y="1167.58px" style="font-family:'SourceSansPro-Regular', 'Source Sans Pro', sans-serif;font-size:41.667px;fill:#427bc0;">&lt;/subfield&gt;</text><text x="546.09px" y="1209.25px" style="font-family:'SourceSansPro-Regular', 'Source Sans Pro', sans-serif;font-size:41.667px;fill:#427bc0;">&lt;/<tspan x="580.09px " y="1209.25px ">d</tspan>at<tspan x="637.882px " y="1209.25px ">a</tspan>field&gt;</text><text x="546.09px" y="1250.91px" style="font-family:'SourceSansPro-Regular', 'Source Sans Pro', sans-serif;font-size:41.667px;fill:#427bc0;">&lt;dat<tspan x="624.59px " y="1250.91px ">a</tspan>field t<tspan x="744.507px " y="1250.91px ">a</tspan>g=&quot;264&quot; ind1=&quot; &quot; ind2=&quot;1&quot;&gt;</text><text x="579.757px" y="1292.58px" style="font-family:'SourceSansPro-Regular', 'Source Sans Pro', sans-serif;font-size:41.667px;fill:#427bc0;">&lt;subfield c<tspan x="767.09px " y="1292.58px ">o</tspan>de=&quot;a&quot;&gt;</text><text x="931.715px" y="1292.58px" style="font-family:'SourceSansPro-Regular', 'Source Sans Pro', sans-serif;font-size:41.667px;">Götting<tspan x="1061.42px " y="1292.58px ">e</tspan>n</text><text x="1104.88px" y="1292.58px" style="font-family:'SourceSansPro-Regular', 'Source Sans Pro', sans-serif;font-size:41.667px;fill:#427bc0;">&lt;/subfield&gt;</text><text x="579.757px" y="1334.25px" style="font-family:'SourceSansPro-Regular', 'Source Sans Pro', sans-serif;font-size:41.667px;fill:#427bc0;">&lt;subfield c<tspan x="767.09px " y="1334.25px ">o</tspan>de=&quot;b&quot;&gt;</text><text x="933.507px" y="1334.25px" style="font-family:'SourceSansPro-Regular', 'Source Sans Pro', sans-serif;font-size:41.667px;">V<tspan x="954.132px " y="1334.25px ">e</tspan>rbundz<tspan x="1098.26px " y="1334.25px ">e</tspan>ntr<tspan x="1169.21px " y="1334.25px ">a</tspan>le des GB<tspan x="1349.46px " y="1334.25px ">V</tspan> (V<tspan x="1412.21px 1433.63px " y="1334.25px 1334.25px ">ZG</tspan>)</text><text x="1471.76px" y="1334.25px" style="font-family:'SourceSansPro-Regular', 'Source Sans Pro', sans-serif;font-size:41.667px;fill:#427bc0;">&lt;/subfield&gt;</text><text x="579.757px" y="1375.91px" style="font-family:'SourceSansPro-Regular', 'Source Sans Pro', sans-serif;font-size:41.667px;fill:#427bc0;">&lt;subfield c<tspan x="767.09px " y="1375.91px ">o</tspan>de=&quot;c&quot;&gt;</text><text x="929.382px" y="1375.91px" style="font-family:'SourceSansPro-Regular', 'Source Sans Pro', sans-serif;font-size:41.667px;">1. Juni 2022</text><text x="1135.59px" y="1375.91px" style="font-family:'SourceSansPro-Regular', 'Source Sans Pro', sans-serif;font-size:41.667px;fill:#427bc0;">&lt;/subfield&gt;</text><text x="546.09px" y="1417.58px" style="font-family:'SourceSansPro-Regular', 'Source Sans Pro', sans-serif;font-size:41.667px;fill:#427bc0;">&lt;/<tspan x="580.09px " y="1417.58px ">d</tspan>at<tspan x="637.882px " y="1417.58px ">a</tspan>field&gt;</text><text x="546.09px" y="1459.25px" style="font-family:'SourceSansPro-Regular', 'Source Sans Pro', sans-serif;font-size:41.667px;fill:#427bc0;">&lt;dat<tspan x="624.59px " y="1459.25px ">a</tspan>field t<tspan x="744.507px " y="1459.25px ">a</tspan>g=&quot;300&quot; ind1=&quot; &quot; ind2=&quot; &quot;&gt;</text><text x="579.757px" y="1500.91px" style="font-family:'SourceSansPro-Regular', 'Source Sans Pro', sans-serif;font-size:41.667px;fill:#427bc0;">&lt;subfield c<tspan x="767.09px " y="1500.91px ">o</tspan>de=&quot;a&quot;&gt;</text><text x="931.715px" y="1500.91px" style="font-family:'SourceSansPro-Regular', 'Source Sans Pro', sans-serif;font-size:41.667px;">Online<tspan x="1046.55px 1059.51px 1083.09px " y="1500.91px 1500.91px 1500.91px ">-Re</tspan>ssour<tspan x="1197.96px 1216.09px " y="1500.91px 1500.91px ">ce</tspan></text><text x="1236.76px" y="1500.91px" style="font-family:'SourceSansPro-Regular', 'Source Sans Pro', sans-serif;font-size:41.667px;fill:#427bc0;">&lt;/subfield&gt;</text><text x="546.09px" y="1542.58px" style="font-family:'SourceSansPro-Regular', 'Source Sans Pro', sans-serif;font-size:41.667px;fill:#427bc0;">&lt;/<tspan x="580.09px " y="1542.58px ">d</tspan>at<tspan x="637.882px " y="1542.58px ">a</tspan>field&gt;</text><text x="546.09px" y="1584.25px" style="font-family:'SourceSansPro-Regular', 'Source Sans Pro', sans-serif;font-size:41.667px;fill:#427bc0;">&lt;dat<tspan x="624.59px " y="1584.25px ">a</tspan>field t<tspan x="744.507px " y="1584.25px ">a</tspan>g=&quot;540&quot; ind1=&quot; &quot; ind2=&quot; &quot;&gt;</text><text x="579.757px" y="1625.91px" style="font-family:'SourceSansPro-Regular', 'Source Sans Pro', sans-serif;font-size:41.667px;fill:#427bc0;">&lt;subfield c<tspan x="767.09px " y="1625.91px ">o</tspan>de=&quot;a&quot;&gt;</text><text x="931.715px" y="1625.91px" style="font-family:'SourceSansPro-Regular', 'Source Sans Pro', sans-serif;font-size:41.667px;">Namensnennung 3.0 Deutschland</text><text x="1519.3px" y="1625.91px" style="font-family:'SourceSansPro-Regular', 'Source Sans Pro', sans-serif;font-size:41.667px;fill:#427bc0;">&lt;/subfield&gt;</text><text x="579.757px" y="1667.58px" style="font-family:'SourceSansPro-Regular', 'Source Sans Pro', sans-serif;font-size:41.667px;fill:#427bc0;">&lt;subfield c<tspan x="767.09px " y="1667.58px ">o</tspan>de=&quot;f<tspan x="885.757px " y="1667.58px ">&quot;</tspan>&gt;</text><text x="924.215px" y="1667.58px" style="font-family:'SourceSansPro-Regular', 'Source Sans Pro', sans-serif;font-size:41.667px;">C<tspan x="946.59px 969.09px 982.048px 1005.76px " y="1667.58px 1667.58px 1667.58px 1667.58px ">C-BY</tspan> 3.0 DE</text><text x="1141.26px" y="1667.58px" style="font-family:'SourceSansPro-Regular', 'Source Sans Pro', sans-serif;font-size:41.667px;fill:#427bc0;">&lt;/subfield&gt;</text><text x="579.757px" y="1709.25px" style="font-family:'SourceSansPro-Regular', 'Source Sans Pro', sans-serif;font-size:41.667px;fill:#427bc0;">&lt;subfield c<tspan x="767.09px " y="1709.25px ">o</tspan>de=&quot;u&quot;&gt;</text><text x="933.048px" y="1709.25px" style="font-family:'SourceSansPro-Regular', 'Source Sans Pro', sans-serif;font-size:41.667px;">https://<tspan x="1062.71px 1081.71px 1095.76px 1115.84px " y="1709.25px 1709.25px 1709.25px 1709.25px ">crea</tspan>tiv<tspan x="1180.8px 1201.46px 1219.59px " y="1709.25px 1709.25px 1709.25px ">eco</tspan>mmons.<tspan x="1384.13px 1406.71px 1420.76px 1443.76px " y="1709.25px 1709.25px 1709.25px 1709.25px ">org/</tspan>lic<tspan x="1497.34px " y="1709.25px ">e</tspan>nses/b<tspan x="1633.92px 1652.8px " y="1709.25px 1709.25px ">y/</tspan>3.0/<tspan x="1732.47px " y="1709.25px ">d</tspan>e/</text><text x="1790.84px" y="1709.25px" style="font-family:'SourceSansPro-Regular', 'Source Sans Pro', sans-serif;font-size:41.667px;fill:#427bc0;">&lt;/subfield&gt;</text><text x="546.09px" y="1750.91px" style="font-family:'SourceSansPro-Regular', 'Source Sans Pro', sans-serif;font-size:41.667px;fill:#427bc0;">&lt;/<tspan x="580.09px " y="1750.91px ">d</tspan>at<tspan x="637.882px " y="1750.91px ">a</tspan>field&gt;</text><text x="546.09px" y="1792.58px" style="font-family:'SourceSansPro-Regular', 'Source Sans Pro', sans-serif;font-size:41.667px;fill:#427bc0;">&lt;dat<tspan x="624.59px " y="1792.58px ">a</tspan>field t<tspan x="744.507px " y="1792.58px ">a</tspan>g=&quot;856&quot; ind1=&quot;4&quot; ind2=&quot;0&quot;&gt;</text><text x="579.757px" y="1834.25px" style="font-family:'SourceSansPro-Regular', 'Source Sans Pro', sans-serif;font-size:41.667px;fill:#427bc0;">&lt;subfield c<tspan x="767.09px " y="1834.25px ">o</tspan>de=&quot;u&quot;&gt;</text><text x="933.048px" y="1834.25px" style="font-family:'SourceSansPro-Regular', 'Source Sans Pro', sans-serif;font-size:41.667px;">https://it<tspan x="1087.26px " y="1834.25px ">-</tspan>in-bibliothek<tspan x="1323.46px " y="1834.25px ">e</tspan>n.<tspan x="1376.96px " y="1834.25px ">d</tspan>e/</text><text x="1435.34px" y="1834.25px" style="font-family:'SourceSansPro-Regular', 'Source Sans Pro', sans-serif;font-size:41.667px;fill:#427bc0;">&lt;/subfield&gt;</text><text x="579.757px" y="1875.91px" style="font-family:'SourceSansPro-Regular', 'Source Sans Pro', sans-serif;font-size:41.667px;fill:#427bc0;">&lt;subfield c<tspan x="767.09px " y="1875.91px ">o</tspan>de=&quot;x&quot;&gt;</text><text x="928.965px" y="1875.91px" style="font-family:'SourceSansPro-Regular', 'Source Sans Pro', sans-serif;font-size:41.667px;">V<tspan x="949.59px " y="1875.91px ">e</tspan>rlag</text><text x="1037.67px" y="1875.91px" style="font-family:'SourceSansPro-Regular', 'Source Sans Pro', sans-serif;font-size:41.667px;fill:#427bc0;">&lt;/subfield&gt;</text><text x="579.757px" y="1917.58px" style="font-family:'SourceSansPro-Regular', 'Source Sans Pro', sans-serif;font-size:41.667px;fill:#427bc0;">&lt;subfield c<tspan x="767.09px " y="1917.58px ">o</tspan>de=&quot;z&quot;&gt;</text><text x="928.09px" y="1917.58px" style="font-family:'SourceSansPro-Regular', 'Source Sans Pro', sans-serif;font-size:41.667px;">k<tspan x="947.965px " y="1917.58px ">o</tspan>st<tspan x="1001.67px " y="1917.58px ">e</tspan>nfr<tspan x="1071.34px " y="1917.58px ">e</tspan>i</text><text x="1102.26px" y="1917.58px" style="font-family:'SourceSansPro-Regular', 'Source Sans Pro', sans-serif;font-size:41.667px;fill:#427bc0;">&lt;/subfield&gt;</text><text x="546.09px" y="1959.25px" style="font-family:'SourceSansPro-Regular', 'Source Sans Pro', sans-serif;font-size:41.667px;fill:#427bc0;">&lt;/<tspan x="580.09px " y="1959.25px ">d</tspan>at<tspan x="637.882px " y="1959.25px ">a</tspan>field&gt;</text><text x="512.423px" y="2000.91px" style="font-family:'SourceSansPro-Regular', 'Source Sans Pro', sans-serif;font-size:41.667px;fill:#427bc0;">&lt;/r<tspan x="561.757px 582.423px 600.548px 623.132px 637.173px " y="2000.91px 2000.91px 2000.91px 2000.91px 2000.91px ">ecord</tspan>&gt;</text></g><text x="19.3px" y="97.1px" style="font-family:'SourceSansPro-Regular', 'Source Sans Pro', sans-serif;font-size:100px;fill:#2780e3;">Mar<tspan x="176.4px " y="97.1px ">c</tspan>XML</text><rect x="28" y="138.7" width="1721" height="1225.8" style="fill:none;stroke:#417abf;stroke-width:8.33px;"/></svg>