<?xml version="1.0" encoding="UTF-8" standalone="no"?>
<!DOCTYPE svg PUBLIC "-//W3C//DTD SVG 1.1//EN" "http://www.w3.org/Graphics/SVG/1.1/DTD/svg11.dtd">
<svg width="100%" height="100%" viewBox="0 0 3508 2481" version="1.1" xmlns="http://www.w3.org/2000/svg" xmlns:xlink="http://www.w3.org/1999/xlink" xml:space="preserve" xmlns:serif="http://www.serif.com/" style="fill-rule:evenodd;clip-rule:evenodd;stroke-linejoin:round;stroke-miterlimit:2;">
    <g transform="matrix(1,0,0,1,2.58536,0)">
        <g transform="matrix(1,0,0,3.29093,-7.92475,-1833.74)">
            <rect x="626.108" y="811.181" width="1371.1" height="38.597" style="fill:rgb(235,235,235);"/>
        </g>
        <g transform="matrix(1,0,0,1,-135.057,-0.0144185)">
            <g transform="matrix(75,0,0,75,948.89,925.985)">
                <path d="M0.274,0.012C0.422,0.012 0.509,-0.076 0.509,-0.182C0.509,-0.277 0.456,-0.326 0.377,-0.359L0.288,-0.396C0.234,-0.418 0.184,-0.437 0.184,-0.488C0.184,-0.536 0.225,-0.565 0.287,-0.565C0.337,-0.565 0.385,-0.544 0.427,-0.51L0.488,-0.586C0.438,-0.634 0.366,-0.666 0.287,-0.666C0.158,-0.666 0.067,-0.586 0.067,-0.482C0.067,-0.387 0.134,-0.335 0.199,-0.308L0.289,-0.269C0.348,-0.244 0.39,-0.227 0.39,-0.173C0.39,-0.122 0.35,-0.089 0.276,-0.089C0.213,-0.089 0.148,-0.115 0.101,-0.16L0.038,-0.084C0.1,-0.022 0.183,0.012 0.274,0.012Z" style="fill-rule:nonzero;"/>
            </g>
            <g transform="matrix(75,0,0,75,989.765,925.985)">
                <path d="M0.073,0.194L0.188,0.194L0.188,0.04L0.185,-0.042C0.225,-0.008 0.268,0.012 0.311,0.012C0.42,0.012 0.521,-0.085 0.521,-0.253C0.521,-0.405 0.45,-0.503 0.328,-0.503C0.274,-0.503 0.221,-0.474 0.18,-0.439L0.176,-0.439L0.168,-0.491L0.073,-0.491L0.073,0.194ZM0.287,-0.083C0.258,-0.083 0.224,-0.094 0.188,-0.124L0.188,-0.353C0.226,-0.39 0.26,-0.408 0.296,-0.408C0.37,-0.408 0.402,-0.35 0.402,-0.252C0.402,-0.141 0.352,-0.083 0.287,-0.083Z" style="fill-rule:nonzero;"/>
            </g>
            <g transform="matrix(75,0,0,75,1032.07,925.985)">
                <path d="M0.27,-0.412C0.336,-0.412 0.368,-0.368 0.368,-0.298L0.158,-0.298C0.172,-0.385 0.222,-0.412 0.27,-0.412ZM0.284,0.012C0.346,0.012 0.406,-0.008 0.452,-0.04L0.412,-0.114C0.378,-0.092 0.34,-0.08 0.298,-0.08C0.23,-0.08 0.169,-0.12 0.156,-0.21L0.464,-0.21C0.468,-0.228 0.47,-0.248 0.47,-0.27C0.47,-0.406 0.402,-0.503 0.268,-0.503C0.152,-0.503 0.04,-0.406 0.04,-0.246C0.04,-0.082 0.146,0.012 0.284,0.012Z" style="fill-rule:nonzero;"/>
            </g>
            <g transform="matrix(75,0,0,75,1069.79,925.985)">
                <path d="M0.034,-0L0.418,-0L0.418,-0.092L0.179,-0.092L0.41,-0.43L0.41,-0.491L0.06,-0.491L0.06,-0.4L0.266,-0.4L0.034,-0.062L0.034,-0Z" style="fill-rule:nonzero;"/>
            </g>
            <g transform="matrix(75,0,0,75,1103.02,925.985)">
                <path d="M0.073,-0L0.188,-0L0.188,-0.491L0.073,-0.491L0.073,-0ZM0.13,-0.577C0.171,-0.577 0.199,-0.603 0.199,-0.643C0.199,-0.682 0.171,-0.708 0.13,-0.708C0.089,-0.708 0.061,-0.682 0.061,-0.643C0.061,-0.603 0.089,-0.577 0.13,-0.577Z" style="fill-rule:nonzero;"/>
            </g>
            <g transform="matrix(75,0,0,75,1122.67,925.985)">
                <path d="M0.093,-0L0.208,-0L0.208,-0.4L0.304,-0.4L0.304,-0.491L0.208,-0.491L0.208,-0.544C0.208,-0.6 0.23,-0.627 0.27,-0.627C0.287,-0.627 0.304,-0.624 0.322,-0.618L0.346,-0.701C0.324,-0.71 0.291,-0.718 0.256,-0.718C0.14,-0.718 0.093,-0.644 0.093,-0.542L0.093,-0.491L0.02,-0.486L0.02,-0.4L0.093,-0.4L0.093,-0Z" style="fill-rule:nonzero;"/>
            </g>
            <g transform="matrix(75,0,0,75,1146.44,925.985)">
                <path d="M0.073,-0L0.188,-0L0.188,-0.491L0.073,-0.491L0.073,-0ZM0.13,-0.577C0.171,-0.577 0.199,-0.603 0.199,-0.643C0.199,-0.682 0.171,-0.708 0.13,-0.708C0.089,-0.708 0.061,-0.682 0.061,-0.643C0.061,-0.603 0.089,-0.577 0.13,-0.577Z" style="fill-rule:nonzero;"/>
            </g>
            <g transform="matrix(75,0,0,75,1166.09,925.985)">
                <path d="M0.21,0.012C0.334,0.012 0.401,-0.056 0.401,-0.14C0.401,-0.226 0.334,-0.264 0.258,-0.29C0.196,-0.311 0.16,-0.326 0.16,-0.362C0.16,-0.392 0.183,-0.416 0.233,-0.416C0.272,-0.416 0.308,-0.404 0.343,-0.379L0.394,-0.444C0.354,-0.478 0.297,-0.503 0.23,-0.503C0.12,-0.503 0.052,-0.442 0.052,-0.356C0.052,-0.278 0.118,-0.238 0.189,-0.212C0.243,-0.192 0.292,-0.175 0.292,-0.134C0.292,-0.1 0.267,-0.075 0.214,-0.075C0.163,-0.075 0.118,-0.09 0.075,-0.126L0.024,-0.06C0.072,-0.014 0.142,0.012 0.21,0.012Z" style="fill-rule:nonzero;"/>
            </g>
            <g transform="matrix(75,0,0,75,1198.42,925.985)">
                <path d="M0.28,0.012C0.341,0.012 0.397,-0.012 0.438,-0.05L0.391,-0.121C0.364,-0.097 0.329,-0.082 0.291,-0.082C0.213,-0.082 0.159,-0.147 0.159,-0.245C0.159,-0.344 0.215,-0.409 0.293,-0.409C0.328,-0.409 0.354,-0.396 0.376,-0.377L0.431,-0.448C0.396,-0.481 0.35,-0.503 0.287,-0.503C0.156,-0.503 0.041,-0.409 0.041,-0.245C0.041,-0.082 0.144,0.012 0.28,0.012Z" style="fill-rule:nonzero;"/>
            </g>
            <g transform="matrix(75,0,0,75,1233.07,925.985)">
                <path d="M0.073,-0L0.188,-0L0.188,-0.343C0.229,-0.383 0.257,-0.404 0.3,-0.404C0.354,-0.404 0.377,-0.374 0.377,-0.293L0.377,-0L0.492,-0L0.492,-0.308C0.492,-0.432 0.446,-0.503 0.341,-0.503C0.274,-0.503 0.225,-0.468 0.184,-0.429L0.188,-0.524L0.188,-0.706L0.073,-0.706L0.073,-0Z" style="fill-rule:nonzero;"/>
            </g>
            <g transform="matrix(75,0,0,75,1274.92,925.985)">
                <path d="M0.27,-0.412C0.336,-0.412 0.368,-0.368 0.368,-0.298L0.158,-0.298C0.172,-0.385 0.222,-0.412 0.27,-0.412ZM0.284,0.012C0.346,0.012 0.406,-0.008 0.452,-0.04L0.412,-0.114C0.378,-0.092 0.34,-0.08 0.298,-0.08C0.23,-0.08 0.169,-0.12 0.156,-0.21L0.464,-0.21C0.468,-0.228 0.47,-0.248 0.47,-0.27C0.47,-0.406 0.402,-0.503 0.268,-0.503C0.152,-0.503 0.04,-0.406 0.04,-0.246C0.04,-0.082 0.146,0.012 0.284,0.012Z" style="fill-rule:nonzero;"/>
            </g>
            <g transform="matrix(75,0,0,75,1312.94,925.985)">
                <path d="M0.21,0.012C0.334,0.012 0.401,-0.056 0.401,-0.14C0.401,-0.226 0.334,-0.264 0.258,-0.29C0.196,-0.311 0.16,-0.326 0.16,-0.362C0.16,-0.392 0.183,-0.416 0.233,-0.416C0.272,-0.416 0.308,-0.404 0.343,-0.379L0.394,-0.444C0.354,-0.478 0.297,-0.503 0.23,-0.503C0.12,-0.503 0.052,-0.442 0.052,-0.356C0.052,-0.278 0.118,-0.238 0.189,-0.212C0.243,-0.192 0.292,-0.175 0.292,-0.134C0.292,-0.1 0.267,-0.075 0.214,-0.075C0.163,-0.075 0.118,-0.09 0.075,-0.126L0.024,-0.06C0.072,-0.014 0.142,0.012 0.21,0.012Z" style="fill-rule:nonzero;"/>
            </g>
            <g transform="matrix(75,0,0,75,1360.27,925.985)">
                <path d="M0.274,0.012C0.422,0.012 0.509,-0.076 0.509,-0.182C0.509,-0.277 0.456,-0.326 0.377,-0.359L0.288,-0.396C0.234,-0.418 0.184,-0.437 0.184,-0.488C0.184,-0.536 0.225,-0.565 0.287,-0.565C0.337,-0.565 0.385,-0.544 0.427,-0.51L0.488,-0.586C0.438,-0.634 0.366,-0.666 0.287,-0.666C0.158,-0.666 0.067,-0.586 0.067,-0.482C0.067,-0.387 0.134,-0.335 0.199,-0.308L0.289,-0.269C0.348,-0.244 0.39,-0.227 0.39,-0.173C0.39,-0.122 0.35,-0.089 0.276,-0.089C0.213,-0.089 0.148,-0.115 0.101,-0.16L0.038,-0.084C0.1,-0.022 0.183,0.012 0.274,0.012Z" style="fill-rule:nonzero;"/>
            </g>
            <g transform="matrix(75,0,0,75,1401.14,925.985)">
                <path d="M0.274,0.012C0.397,0.012 0.508,-0.082 0.508,-0.245C0.508,-0.409 0.397,-0.503 0.274,-0.503C0.152,-0.503 0.041,-0.409 0.041,-0.245C0.041,-0.082 0.152,0.012 0.274,0.012ZM0.274,-0.082C0.202,-0.082 0.159,-0.147 0.159,-0.245C0.159,-0.344 0.202,-0.409 0.274,-0.409C0.346,-0.409 0.39,-0.344 0.39,-0.245C0.39,-0.147 0.346,-0.082 0.274,-0.082Z" style="fill-rule:nonzero;"/>
            </g>
            <g transform="matrix(75,0,0,75,1442.02,925.985)">
                <path d="M0.093,-0L0.208,-0L0.208,-0.4L0.371,-0.4L0.371,-0.166C0.371,-0.06 0.413,0.012 0.526,0.012C0.566,0.012 0.6,0.003 0.627,-0.006L0.607,-0.091C0.593,-0.085 0.573,-0.08 0.556,-0.08C0.509,-0.08 0.486,-0.108 0.486,-0.166L0.486,-0.4L0.612,-0.4L0.612,-0.491L0.486,-0.491L0.486,-0.625L0.391,-0.625L0.377,-0.491L0.208,-0.491L0.208,-0.544C0.208,-0.601 0.23,-0.627 0.27,-0.627C0.287,-0.627 0.306,-0.623 0.324,-0.615L0.346,-0.701C0.324,-0.71 0.291,-0.718 0.256,-0.718C0.14,-0.718 0.093,-0.644 0.093,-0.542L0.093,-0.491L0.02,-0.486L0.02,-0.4L0.093,-0.4L0.093,-0Z" style="fill-rule:nonzero;"/>
            </g>
            <g transform="matrix(75,0,0,75,1490.17,925.985)">
                <path d="M0.154,-0L0.296,-0L0.346,-0.228C0.356,-0.272 0.364,-0.312 0.372,-0.376L0.376,-0.376C0.384,-0.312 0.392,-0.272 0.402,-0.228L0.452,-0L0.599,-0L0.724,-0.491L0.614,-0.491L0.556,-0.236C0.546,-0.192 0.54,-0.148 0.531,-0.09L0.527,-0.09C0.518,-0.148 0.509,-0.192 0.498,-0.236L0.436,-0.491L0.316,-0.491L0.256,-0.236C0.246,-0.192 0.238,-0.148 0.229,-0.09L0.225,-0.09C0.218,-0.148 0.21,-0.192 0.2,-0.236L0.142,-0.491L0.024,-0.491L0.154,-0Z" style="fill-rule:nonzero;"/>
            </g>
            <g transform="matrix(75,0,0,75,1545.52,925.985)">
                <path d="M0.192,0.012C0.25,0.012 0.298,-0.016 0.344,-0.054L0.348,-0.054L0.356,-0L0.451,-0L0.451,-0.29C0.451,-0.428 0.39,-0.503 0.268,-0.503C0.19,-0.503 0.12,-0.474 0.066,-0.44L0.108,-0.362C0.152,-0.388 0.198,-0.408 0.246,-0.408C0.312,-0.408 0.334,-0.366 0.336,-0.316C0.134,-0.294 0.046,-0.242 0.046,-0.132C0.046,-0.046 0.106,0.012 0.192,0.012ZM0.228,-0.082C0.188,-0.082 0.158,-0.098 0.158,-0.14C0.158,-0.19 0.202,-0.22 0.336,-0.236L0.336,-0.132C0.3,-0.098 0.268,-0.082 0.228,-0.082Z" style="fill-rule:nonzero;"/>
            </g>
            <g transform="matrix(75,0,0,75,1584.22,925.985)">
                <path d="M0.073,-0L0.188,-0L0.188,-0.3C0.218,-0.374 0.265,-0.401 0.304,-0.401C0.325,-0.401 0.336,-0.399 0.352,-0.395L0.375,-0.493C0.36,-0.5 0.344,-0.503 0.319,-0.503C0.266,-0.503 0.214,-0.468 0.18,-0.404L0.176,-0.404L0.168,-0.491L0.073,-0.491L0.073,-0Z" style="fill-rule:nonzero;"/>
            </g>
            <g transform="matrix(75,0,0,75,1611.44,925.985)">
                <path d="M0.27,-0.412C0.336,-0.412 0.368,-0.368 0.368,-0.298L0.158,-0.298C0.172,-0.385 0.222,-0.412 0.27,-0.412ZM0.284,0.012C0.346,0.012 0.406,-0.008 0.452,-0.04L0.412,-0.114C0.378,-0.092 0.34,-0.08 0.298,-0.08C0.23,-0.08 0.169,-0.12 0.156,-0.21L0.464,-0.21C0.468,-0.228 0.47,-0.248 0.47,-0.27C0.47,-0.406 0.402,-0.503 0.268,-0.503C0.152,-0.503 0.04,-0.406 0.04,-0.246C0.04,-0.082 0.146,0.012 0.284,0.012Z" style="fill-rule:nonzero;"/>
            </g>
            <g transform="matrix(75,0,0,75,1649.47,925.985)">
                <path d="M0.21,0.012C0.334,0.012 0.401,-0.056 0.401,-0.14C0.401,-0.226 0.334,-0.264 0.258,-0.29C0.196,-0.311 0.16,-0.326 0.16,-0.362C0.16,-0.392 0.183,-0.416 0.233,-0.416C0.272,-0.416 0.308,-0.404 0.343,-0.379L0.394,-0.444C0.354,-0.478 0.297,-0.503 0.23,-0.503C0.12,-0.503 0.052,-0.442 0.052,-0.356C0.052,-0.278 0.118,-0.238 0.189,-0.212C0.243,-0.192 0.292,-0.175 0.292,-0.134C0.292,-0.1 0.267,-0.075 0.214,-0.075C0.163,-0.075 0.118,-0.09 0.075,-0.126L0.024,-0.06C0.072,-0.014 0.142,0.012 0.21,0.012Z" style="fill-rule:nonzero;"/>
            </g>
            <g transform="matrix(75,0,0,75,1681.79,925.985)">
                <path d="M0.106,0.202C0.213,0.202 0.264,0.133 0.305,0.022L0.483,-0.491L0.372,-0.491L0.298,-0.25C0.286,-0.206 0.273,-0.157 0.261,-0.112L0.257,-0.112C0.242,-0.158 0.228,-0.207 0.214,-0.25L0.129,-0.491L0.012,-0.491L0.205,-0.006L0.196,0.025C0.18,0.074 0.15,0.109 0.098,0.109C0.087,0.109 0.077,0.108 0.064,0.104L0.042,0.19C0.06,0.198 0.079,0.202 0.106,0.202Z" style="fill-rule:nonzero;"/>
            </g>
            <g transform="matrix(75,0,0,75,1718.92,925.985)">
                <path d="M0.21,0.012C0.334,0.012 0.401,-0.056 0.401,-0.14C0.401,-0.226 0.334,-0.264 0.258,-0.29C0.196,-0.311 0.16,-0.326 0.16,-0.362C0.16,-0.392 0.183,-0.416 0.233,-0.416C0.272,-0.416 0.308,-0.404 0.343,-0.379L0.394,-0.444C0.354,-0.478 0.297,-0.503 0.23,-0.503C0.12,-0.503 0.052,-0.442 0.052,-0.356C0.052,-0.278 0.118,-0.238 0.189,-0.212C0.243,-0.192 0.292,-0.175 0.292,-0.134C0.292,-0.1 0.267,-0.075 0.214,-0.075C0.163,-0.075 0.118,-0.09 0.075,-0.126L0.024,-0.06C0.072,-0.014 0.142,0.012 0.21,0.012Z" style="fill-rule:nonzero;"/>
            </g>
            <g transform="matrix(75,0,0,75,1749.74,925.985)">
                <path d="M0.246,0.01C0.286,0.01 0.321,0.001 0.347,-0.01L0.326,-0.091C0.31,-0.084 0.292,-0.081 0.275,-0.081C0.228,-0.081 0.206,-0.11 0.206,-0.167L0.206,-0.4L0.331,-0.4L0.331,-0.491L0.206,-0.491L0.206,-0.645L0.11,-0.645L0.096,-0.491L0.02,-0.486L0.02,-0.4L0.09,-0.4L0.09,-0.167C0.09,-0.061 0.132,0.01 0.246,0.01Z" style="fill-rule:nonzero;"/>
            </g>
            <g transform="matrix(75,0,0,75,1775.62,925.985)">
                <path d="M0.27,-0.412C0.336,-0.412 0.368,-0.368 0.368,-0.298L0.158,-0.298C0.172,-0.385 0.222,-0.412 0.27,-0.412ZM0.284,0.012C0.346,0.012 0.406,-0.008 0.452,-0.04L0.412,-0.114C0.378,-0.092 0.34,-0.08 0.298,-0.08C0.23,-0.08 0.169,-0.12 0.156,-0.21L0.464,-0.21C0.468,-0.228 0.47,-0.248 0.47,-0.27C0.47,-0.406 0.402,-0.503 0.268,-0.503C0.152,-0.503 0.04,-0.406 0.04,-0.246C0.04,-0.082 0.146,0.012 0.284,0.012Z" style="fill-rule:nonzero;"/>
            </g>
            <g transform="matrix(75,0,0,75,1813.64,925.985)">
                <path d="M0.073,-0L0.188,-0L0.188,-0.343C0.226,-0.384 0.261,-0.404 0.291,-0.404C0.343,-0.404 0.367,-0.374 0.367,-0.293L0.367,-0L0.482,-0L0.482,-0.343C0.52,-0.384 0.554,-0.404 0.585,-0.404C0.636,-0.404 0.66,-0.374 0.66,-0.293L0.66,-0L0.776,-0L0.776,-0.308C0.776,-0.432 0.728,-0.503 0.624,-0.503C0.562,-0.503 0.513,-0.465 0.466,-0.415C0.443,-0.47 0.402,-0.503 0.33,-0.503C0.269,-0.503 0.221,-0.468 0.18,-0.424L0.176,-0.424L0.168,-0.491L0.073,-0.491L0.073,-0Z" style="fill-rule:nonzero;"/>
            </g>
        </g>
    </g>
    <g transform="matrix(1,0,0,1,2.58536,316.446)">
        <g transform="matrix(1,0,0,3.29093,-7.92475,-1833.74)">
            <rect x="626.108" y="811.181" width="1371.1" height="38.597" style="fill:rgb(235,235,235);"/>
        </g>
        <g transform="matrix(1,0,0,1,94.5557,-0.0144185)">
            <g transform="matrix(75,0,0,75,948.89,925.985)">
                <path d="M0.083,-0L0.309,-0C0.453,-0 0.56,-0.062 0.56,-0.197C0.56,-0.283 0.512,-0.331 0.435,-0.347L0.435,-0.351C0.493,-0.371 0.526,-0.426 0.526,-0.493C0.526,-0.613 0.427,-0.654 0.292,-0.654L0.083,-0.654L0.083,-0ZM0.199,-0.384L0.199,-0.564L0.284,-0.564C0.369,-0.564 0.412,-0.54 0.412,-0.476C0.412,-0.42 0.373,-0.384 0.282,-0.384L0.199,-0.384ZM0.199,-0.09L0.199,-0.297L0.297,-0.297C0.395,-0.297 0.447,-0.267 0.447,-0.198C0.447,-0.125 0.393,-0.09 0.297,-0.09L0.199,-0.09Z" style="fill-rule:nonzero;"/>
            </g>
            <g transform="matrix(75,0,0,75,993.665,925.985)">
                <path d="M0.27,-0.412C0.336,-0.412 0.368,-0.368 0.368,-0.298L0.158,-0.298C0.172,-0.385 0.222,-0.412 0.27,-0.412ZM0.284,0.012C0.346,0.012 0.406,-0.008 0.452,-0.04L0.412,-0.114C0.378,-0.092 0.34,-0.08 0.298,-0.08C0.23,-0.08 0.169,-0.12 0.156,-0.21L0.464,-0.21C0.468,-0.228 0.47,-0.248 0.47,-0.27C0.47,-0.406 0.402,-0.503 0.268,-0.503C0.152,-0.503 0.04,-0.406 0.04,-0.246C0.04,-0.082 0.146,0.012 0.284,0.012Z" style="fill-rule:nonzero;"/>
            </g>
            <g transform="matrix(75,0,0,75,1030.94,925.985)">
                <path d="M0.246,0.01C0.286,0.01 0.321,0.001 0.347,-0.01L0.326,-0.091C0.31,-0.084 0.292,-0.081 0.275,-0.081C0.228,-0.081 0.206,-0.11 0.206,-0.167L0.206,-0.4L0.331,-0.4L0.331,-0.491L0.206,-0.491L0.206,-0.645L0.11,-0.645L0.096,-0.491L0.02,-0.486L0.02,-0.4L0.09,-0.4L0.09,-0.167C0.09,-0.061 0.132,0.01 0.246,0.01Z" style="fill-rule:nonzero;"/>
            </g>
            <g transform="matrix(75,0,0,75,1058.02,925.985)">
                <path d="M0.073,-0L0.188,-0L0.188,-0.3C0.218,-0.374 0.265,-0.401 0.304,-0.401C0.325,-0.401 0.336,-0.399 0.352,-0.395L0.375,-0.493C0.36,-0.5 0.344,-0.503 0.319,-0.503C0.266,-0.503 0.214,-0.468 0.18,-0.404L0.176,-0.404L0.168,-0.491L0.073,-0.491L0.073,-0Z" style="fill-rule:nonzero;"/>
            </g>
            <g transform="matrix(75,0,0,75,1085.99,925.985)">
                <path d="M0.073,-0L0.188,-0L0.188,-0.491L0.073,-0.491L0.073,-0ZM0.13,-0.577C0.171,-0.577 0.199,-0.603 0.199,-0.643C0.199,-0.682 0.171,-0.708 0.13,-0.708C0.089,-0.708 0.061,-0.682 0.061,-0.643C0.061,-0.603 0.089,-0.577 0.13,-0.577Z" style="fill-rule:nonzero;"/>
            </g>
            <g transform="matrix(75,0,0,75,1105.64,925.985)">
                <path d="M0.27,-0.412C0.336,-0.412 0.368,-0.368 0.368,-0.298L0.158,-0.298C0.172,-0.385 0.222,-0.412 0.27,-0.412ZM0.284,0.012C0.346,0.012 0.406,-0.008 0.452,-0.04L0.412,-0.114C0.378,-0.092 0.34,-0.08 0.298,-0.08C0.23,-0.08 0.169,-0.12 0.156,-0.21L0.464,-0.21C0.468,-0.228 0.47,-0.248 0.47,-0.27C0.47,-0.406 0.402,-0.503 0.268,-0.503C0.152,-0.503 0.04,-0.406 0.04,-0.246C0.04,-0.082 0.146,0.012 0.284,0.012Z" style="fill-rule:nonzero;"/>
            </g>
            <g transform="matrix(75,0,0,75,1143.67,925.985)">
                <path d="M0.311,0.012C0.42,0.012 0.521,-0.085 0.521,-0.254C0.521,-0.405 0.45,-0.503 0.327,-0.503C0.277,-0.503 0.226,-0.478 0.185,-0.442L0.188,-0.524L0.188,-0.706L0.073,-0.706L0.073,-0L0.164,-0L0.174,-0.052L0.177,-0.052C0.218,-0.011 0.266,0.012 0.311,0.012ZM0.287,-0.083C0.258,-0.083 0.223,-0.094 0.188,-0.124L0.188,-0.353C0.226,-0.39 0.26,-0.408 0.296,-0.408C0.37,-0.408 0.402,-0.35 0.402,-0.252C0.402,-0.141 0.352,-0.083 0.287,-0.083Z" style="fill-rule:nonzero;"/>
            </g>
            <g transform="matrix(75,0,0,75,1185.59,925.985)">
                <path d="M0.21,0.012C0.334,0.012 0.401,-0.056 0.401,-0.14C0.401,-0.226 0.334,-0.264 0.258,-0.29C0.196,-0.311 0.16,-0.326 0.16,-0.362C0.16,-0.392 0.183,-0.416 0.233,-0.416C0.272,-0.416 0.308,-0.404 0.343,-0.379L0.394,-0.444C0.354,-0.478 0.297,-0.503 0.23,-0.503C0.12,-0.503 0.052,-0.442 0.052,-0.356C0.052,-0.278 0.118,-0.238 0.189,-0.212C0.243,-0.192 0.292,-0.175 0.292,-0.134C0.292,-0.1 0.267,-0.075 0.214,-0.075C0.163,-0.075 0.118,-0.09 0.075,-0.126L0.024,-0.06C0.072,-0.014 0.142,0.012 0.21,0.012Z" style="fill-rule:nonzero;"/>
            </g>
            <g transform="matrix(75,0,0,75,1217.92,925.985)">
                <path d="M0.21,0.012C0.334,0.012 0.401,-0.056 0.401,-0.14C0.401,-0.226 0.334,-0.264 0.258,-0.29C0.196,-0.311 0.16,-0.326 0.16,-0.362C0.16,-0.392 0.183,-0.416 0.233,-0.416C0.272,-0.416 0.308,-0.404 0.343,-0.379L0.394,-0.444C0.354,-0.478 0.297,-0.503 0.23,-0.503C0.12,-0.503 0.052,-0.442 0.052,-0.356C0.052,-0.278 0.118,-0.238 0.189,-0.212C0.243,-0.192 0.292,-0.175 0.292,-0.134C0.292,-0.1 0.267,-0.075 0.214,-0.075C0.163,-0.075 0.118,-0.09 0.075,-0.126L0.024,-0.06C0.072,-0.014 0.142,0.012 0.21,0.012Z" style="fill-rule:nonzero;"/>
            </g>
            <g transform="matrix(75,0,0,75,1250.24,925.985)">
                <path d="M0.106,0.202C0.213,0.202 0.264,0.133 0.305,0.022L0.483,-0.491L0.372,-0.491L0.298,-0.25C0.286,-0.206 0.273,-0.157 0.261,-0.112L0.257,-0.112C0.242,-0.158 0.228,-0.207 0.214,-0.25L0.129,-0.491L0.012,-0.491L0.205,-0.006L0.196,0.025C0.18,0.074 0.15,0.109 0.098,0.109C0.087,0.109 0.077,0.108 0.064,0.104L0.042,0.19C0.06,0.198 0.079,0.202 0.106,0.202Z" style="fill-rule:nonzero;"/>
            </g>
            <g transform="matrix(75,0,0,75,1287.37,925.985)">
                <path d="M0.21,0.012C0.334,0.012 0.401,-0.056 0.401,-0.14C0.401,-0.226 0.334,-0.264 0.258,-0.29C0.196,-0.311 0.16,-0.326 0.16,-0.362C0.16,-0.392 0.183,-0.416 0.233,-0.416C0.272,-0.416 0.308,-0.404 0.343,-0.379L0.394,-0.444C0.354,-0.478 0.297,-0.503 0.23,-0.503C0.12,-0.503 0.052,-0.442 0.052,-0.356C0.052,-0.278 0.118,-0.238 0.189,-0.212C0.243,-0.192 0.292,-0.175 0.292,-0.134C0.292,-0.1 0.267,-0.075 0.214,-0.075C0.163,-0.075 0.118,-0.09 0.075,-0.126L0.024,-0.06C0.072,-0.014 0.142,0.012 0.21,0.012Z" style="fill-rule:nonzero;"/>
            </g>
            <g transform="matrix(75,0,0,75,1318.19,925.985)">
                <path d="M0.246,0.01C0.286,0.01 0.321,0.001 0.347,-0.01L0.326,-0.091C0.31,-0.084 0.292,-0.081 0.275,-0.081C0.228,-0.081 0.206,-0.11 0.206,-0.167L0.206,-0.4L0.331,-0.4L0.331,-0.491L0.206,-0.491L0.206,-0.645L0.11,-0.645L0.096,-0.491L0.02,-0.486L0.02,-0.4L0.09,-0.4L0.09,-0.167C0.09,-0.061 0.132,0.01 0.246,0.01Z" style="fill-rule:nonzero;"/>
            </g>
            <g transform="matrix(75,0,0,75,1344.07,925.985)">
                <path d="M0.27,-0.412C0.336,-0.412 0.368,-0.368 0.368,-0.298L0.158,-0.298C0.172,-0.385 0.222,-0.412 0.27,-0.412ZM0.284,0.012C0.346,0.012 0.406,-0.008 0.452,-0.04L0.412,-0.114C0.378,-0.092 0.34,-0.08 0.298,-0.08C0.23,-0.08 0.169,-0.12 0.156,-0.21L0.464,-0.21C0.468,-0.228 0.47,-0.248 0.47,-0.27C0.47,-0.406 0.402,-0.503 0.268,-0.503C0.152,-0.503 0.04,-0.406 0.04,-0.246C0.04,-0.082 0.146,0.012 0.284,0.012Z" style="fill-rule:nonzero;"/>
            </g>
            <g transform="matrix(75,0,0,75,1382.09,925.985)">
                <path d="M0.073,-0L0.188,-0L0.188,-0.343C0.226,-0.384 0.261,-0.404 0.291,-0.404C0.343,-0.404 0.367,-0.374 0.367,-0.293L0.367,-0L0.482,-0L0.482,-0.343C0.52,-0.384 0.554,-0.404 0.585,-0.404C0.636,-0.404 0.66,-0.374 0.66,-0.293L0.66,-0L0.776,-0L0.776,-0.308C0.776,-0.432 0.728,-0.503 0.624,-0.503C0.562,-0.503 0.513,-0.465 0.466,-0.415C0.443,-0.47 0.402,-0.503 0.33,-0.503C0.269,-0.503 0.221,-0.468 0.18,-0.424L0.176,-0.424L0.168,-0.491L0.073,-0.491L0.073,-0Z" style="fill-rule:nonzero;"/>
            </g>
        </g>
    </g>
    <g transform="matrix(1,0,0,1,-82.2146,474.669)">
        <g transform="matrix(1,0,0,3.29093,76.8752,-1833.74)">
            <rect x="626.108" y="811.181" width="1371.1" height="38.597" style="fill:rgb(235,235,235);"/>
        </g>
        <g transform="matrix(1,0,0,1,-235.807,-0.0144185)">
            <g transform="matrix(75,0,0,75,948.89,925.985)">
                <path d="M0.083,-0L0.199,-0L0.199,-0.29L0.464,-0.29L0.464,-0L0.58,-0L0.58,-0.654L0.464,-0.654L0.464,-0.391L0.199,-0.391L0.199,-0.654L0.083,-0.654L0.083,-0Z" style="fill-rule:nonzero;"/>
            </g>
            <g transform="matrix(75,0,0,75,998.615,925.985)">
                <path d="M0.192,0.012C0.25,0.012 0.298,-0.016 0.344,-0.054L0.348,-0.054L0.356,-0L0.451,-0L0.451,-0.29C0.451,-0.428 0.39,-0.503 0.268,-0.503C0.19,-0.503 0.12,-0.474 0.066,-0.44L0.108,-0.362C0.152,-0.388 0.198,-0.408 0.246,-0.408C0.312,-0.408 0.334,-0.366 0.336,-0.316C0.134,-0.294 0.046,-0.242 0.046,-0.132C0.046,-0.046 0.106,0.012 0.192,0.012ZM0.228,-0.082C0.188,-0.082 0.158,-0.098 0.158,-0.14C0.158,-0.19 0.202,-0.22 0.336,-0.236L0.336,-0.132C0.3,-0.098 0.268,-0.082 0.228,-0.082Z" style="fill-rule:nonzero;"/>
            </g>
            <g transform="matrix(75,0,0,75,1037.32,925.985)">
                <path d="M0.073,-0L0.188,-0L0.188,-0.3C0.218,-0.374 0.265,-0.401 0.304,-0.401C0.325,-0.401 0.336,-0.399 0.352,-0.395L0.375,-0.493C0.36,-0.5 0.344,-0.503 0.319,-0.503C0.266,-0.503 0.214,-0.468 0.18,-0.404L0.176,-0.404L0.168,-0.491L0.073,-0.491L0.073,-0Z" style="fill-rule:nonzero;"/>
            </g>
            <g transform="matrix(75,0,0,75,1064.54,925.985)">
                <path d="M0.245,0.012C0.298,0.012 0.348,-0.017 0.384,-0.053L0.388,-0.053L0.396,-0L0.491,-0L0.491,-0.706L0.376,-0.706L0.376,-0.528L0.38,-0.449C0.342,-0.482 0.307,-0.503 0.251,-0.503C0.144,-0.503 0.043,-0.405 0.043,-0.245C0.043,-0.083 0.122,0.012 0.245,0.012ZM0.273,-0.083C0.202,-0.083 0.162,-0.14 0.162,-0.246C0.162,-0.349 0.213,-0.408 0.276,-0.408C0.309,-0.408 0.342,-0.397 0.376,-0.367L0.376,-0.138C0.343,-0.1 0.311,-0.083 0.273,-0.083Z" style="fill-rule:nonzero;"/>
            </g>
            <g transform="matrix(75,0,0,75,1106.84,925.985)">
                <path d="M0.154,-0L0.296,-0L0.346,-0.228C0.356,-0.272 0.364,-0.312 0.372,-0.376L0.376,-0.376C0.384,-0.312 0.392,-0.272 0.402,-0.228L0.452,-0L0.599,-0L0.724,-0.491L0.614,-0.491L0.556,-0.236C0.546,-0.192 0.54,-0.148 0.531,-0.09L0.527,-0.09C0.518,-0.148 0.509,-0.192 0.498,-0.236L0.436,-0.491L0.316,-0.491L0.256,-0.236C0.246,-0.192 0.238,-0.148 0.229,-0.09L0.225,-0.09C0.218,-0.148 0.21,-0.192 0.2,-0.236L0.142,-0.491L0.024,-0.491L0.154,-0Z" style="fill-rule:nonzero;"/>
            </g>
            <g transform="matrix(75,0,0,75,1162.19,925.985)">
                <path d="M0.192,0.012C0.25,0.012 0.298,-0.016 0.344,-0.054L0.348,-0.054L0.356,-0L0.451,-0L0.451,-0.29C0.451,-0.428 0.39,-0.503 0.268,-0.503C0.19,-0.503 0.12,-0.474 0.066,-0.44L0.108,-0.362C0.152,-0.388 0.198,-0.408 0.246,-0.408C0.312,-0.408 0.334,-0.366 0.336,-0.316C0.134,-0.294 0.046,-0.242 0.046,-0.132C0.046,-0.046 0.106,0.012 0.192,0.012ZM0.228,-0.082C0.188,-0.082 0.158,-0.098 0.158,-0.14C0.158,-0.19 0.202,-0.22 0.336,-0.236L0.336,-0.132C0.3,-0.098 0.268,-0.082 0.228,-0.082Z" style="fill-rule:nonzero;"/>
            </g>
            <g transform="matrix(75,0,0,75,1200.89,925.985)">
                <path d="M0.073,-0L0.188,-0L0.188,-0.3C0.218,-0.374 0.265,-0.401 0.304,-0.401C0.325,-0.401 0.336,-0.399 0.352,-0.395L0.375,-0.493C0.36,-0.5 0.344,-0.503 0.319,-0.503C0.266,-0.503 0.214,-0.468 0.18,-0.404L0.176,-0.404L0.168,-0.491L0.073,-0.491L0.073,-0Z" style="fill-rule:nonzero;"/>
            </g>
            <g transform="matrix(75,0,0,75,1228.12,925.985)">
                <path d="M0.27,-0.412C0.336,-0.412 0.368,-0.368 0.368,-0.298L0.158,-0.298C0.172,-0.385 0.222,-0.412 0.27,-0.412ZM0.284,0.012C0.346,0.012 0.406,-0.008 0.452,-0.04L0.412,-0.114C0.378,-0.092 0.34,-0.08 0.298,-0.08C0.23,-0.08 0.169,-0.12 0.156,-0.21L0.464,-0.21C0.468,-0.228 0.47,-0.248 0.47,-0.27C0.47,-0.406 0.402,-0.503 0.268,-0.503C0.152,-0.503 0.04,-0.406 0.04,-0.246C0.04,-0.082 0.146,0.012 0.284,0.012Z" style="fill-rule:nonzero;"/>
            </g>
            <g transform="matrix(75,0,0,75,1281.14,925.985)">
                <path d="M0.209,0.178L0.281,0.146C0.206,0.018 0.171,-0.131 0.171,-0.278C0.171,-0.425 0.206,-0.574 0.281,-0.702L0.209,-0.734C0.126,-0.598 0.077,-0.454 0.077,-0.278C0.077,-0.102 0.126,0.042 0.209,0.178Z" style="fill-rule:nonzero;"/>
            </g>
            <g transform="matrix(75,0,0,75,1305.44,925.985)">
                <path d="M0.073,0.194L0.188,0.194L0.188,0.04L0.185,-0.042C0.225,-0.008 0.268,0.012 0.311,0.012C0.42,0.012 0.521,-0.085 0.521,-0.253C0.521,-0.405 0.45,-0.503 0.328,-0.503C0.274,-0.503 0.221,-0.474 0.18,-0.439L0.176,-0.439L0.168,-0.491L0.073,-0.491L0.073,0.194ZM0.287,-0.083C0.258,-0.083 0.224,-0.094 0.188,-0.124L0.188,-0.353C0.226,-0.39 0.26,-0.408 0.296,-0.408C0.37,-0.408 0.402,-0.35 0.402,-0.252C0.402,-0.141 0.352,-0.083 0.287,-0.083Z" style="fill-rule:nonzero;"/>
            </g>
            <g transform="matrix(75,0,0,75,1347.74,925.985)">
                <path d="M0.073,-0L0.188,-0L0.188,-0.343C0.229,-0.383 0.257,-0.404 0.3,-0.404C0.354,-0.404 0.377,-0.374 0.377,-0.293L0.377,-0L0.492,-0L0.492,-0.308C0.492,-0.432 0.446,-0.503 0.341,-0.503C0.274,-0.503 0.225,-0.468 0.184,-0.429L0.188,-0.524L0.188,-0.706L0.073,-0.706L0.073,-0Z" style="fill-rule:nonzero;"/>
            </g>
            <g transform="matrix(75,0,0,75,1389.59,925.985)">
                <path d="M0.106,0.202C0.213,0.202 0.264,0.133 0.305,0.022L0.483,-0.491L0.372,-0.491L0.298,-0.25C0.286,-0.206 0.273,-0.157 0.261,-0.112L0.257,-0.112C0.242,-0.158 0.228,-0.207 0.214,-0.25L0.129,-0.491L0.012,-0.491L0.205,-0.006L0.196,0.025C0.18,0.074 0.15,0.109 0.098,0.109C0.087,0.109 0.077,0.108 0.064,0.104L0.042,0.19C0.06,0.198 0.079,0.202 0.106,0.202Z" style="fill-rule:nonzero;"/>
            </g>
            <g transform="matrix(75,0,0,75,1426.72,925.985)">
                <path d="M0.21,0.012C0.334,0.012 0.401,-0.056 0.401,-0.14C0.401,-0.226 0.334,-0.264 0.258,-0.29C0.196,-0.311 0.16,-0.326 0.16,-0.362C0.16,-0.392 0.183,-0.416 0.233,-0.416C0.272,-0.416 0.308,-0.404 0.343,-0.379L0.394,-0.444C0.354,-0.478 0.297,-0.503 0.23,-0.503C0.12,-0.503 0.052,-0.442 0.052,-0.356C0.052,-0.278 0.118,-0.238 0.189,-0.212C0.243,-0.192 0.292,-0.175 0.292,-0.134C0.292,-0.1 0.267,-0.075 0.214,-0.075C0.163,-0.075 0.118,-0.09 0.075,-0.126L0.024,-0.06C0.072,-0.014 0.142,0.012 0.21,0.012Z" style="fill-rule:nonzero;"/>
            </g>
            <g transform="matrix(75,0,0,75,1459.04,925.985)">
                <path d="M0.073,-0L0.188,-0L0.188,-0.491L0.073,-0.491L0.073,-0ZM0.13,-0.577C0.171,-0.577 0.199,-0.603 0.199,-0.643C0.199,-0.682 0.171,-0.708 0.13,-0.708C0.089,-0.708 0.061,-0.682 0.061,-0.643C0.061,-0.603 0.089,-0.577 0.13,-0.577Z" style="fill-rule:nonzero;"/>
            </g>
            <g transform="matrix(75,0,0,75,1478.69,925.985)">
                <path d="M0.073,-0L0.187,-0L0.187,-0.126L0.263,-0.213L0.389,-0L0.514,-0L0.33,-0.29L0.497,-0.491L0.37,-0.491L0.19,-0.266L0.187,-0.266L0.187,-0.706L0.073,-0.706L0.073,-0Z" style="fill-rule:nonzero;"/>
            </g>
            <g transform="matrix(75,0,0,75,1517.09,925.985)">
                <path d="M0.192,0.012C0.25,0.012 0.298,-0.016 0.344,-0.054L0.348,-0.054L0.356,-0L0.451,-0L0.451,-0.29C0.451,-0.428 0.39,-0.503 0.268,-0.503C0.19,-0.503 0.12,-0.474 0.066,-0.44L0.108,-0.362C0.152,-0.388 0.198,-0.408 0.246,-0.408C0.312,-0.408 0.334,-0.366 0.336,-0.316C0.134,-0.294 0.046,-0.242 0.046,-0.132C0.046,-0.046 0.106,0.012 0.192,0.012ZM0.228,-0.082C0.188,-0.082 0.158,-0.098 0.158,-0.14C0.158,-0.19 0.202,-0.22 0.336,-0.236L0.336,-0.132C0.3,-0.098 0.268,-0.082 0.228,-0.082Z" style="fill-rule:nonzero;"/>
            </g>
            <g transform="matrix(75,0,0,75,1555.79,925.985)">
                <path d="M0.185,0.01C0.212,0.01 0.232,0.006 0.246,-0L0.231,-0.086C0.223,-0.084 0.219,-0.084 0.214,-0.084C0.201,-0.084 0.188,-0.093 0.188,-0.122L0.188,-0.706L0.073,-0.706L0.073,-0.128C0.073,-0.042 0.103,0.01 0.185,0.01Z" style="fill-rule:nonzero;"/>
            </g>
            <g transform="matrix(75,0,0,75,1576.12,925.985)">
                <path d="M0.073,-0L0.188,-0L0.188,-0.491L0.073,-0.491L0.073,-0ZM0.13,-0.577C0.171,-0.577 0.199,-0.603 0.199,-0.643C0.199,-0.682 0.171,-0.708 0.13,-0.708C0.089,-0.708 0.061,-0.682 0.061,-0.643C0.061,-0.603 0.089,-0.577 0.13,-0.577Z" style="fill-rule:nonzero;"/>
            </g>
            <g transform="matrix(75,0,0,75,1595.77,925.985)">
                <path d="M0.21,0.012C0.334,0.012 0.401,-0.056 0.401,-0.14C0.401,-0.226 0.334,-0.264 0.258,-0.29C0.196,-0.311 0.16,-0.326 0.16,-0.362C0.16,-0.392 0.183,-0.416 0.233,-0.416C0.272,-0.416 0.308,-0.404 0.343,-0.379L0.394,-0.444C0.354,-0.478 0.297,-0.503 0.23,-0.503C0.12,-0.503 0.052,-0.442 0.052,-0.356C0.052,-0.278 0.118,-0.238 0.189,-0.212C0.243,-0.192 0.292,-0.175 0.292,-0.134C0.292,-0.1 0.267,-0.075 0.214,-0.075C0.163,-0.075 0.118,-0.09 0.075,-0.126L0.024,-0.06C0.072,-0.014 0.142,0.012 0.21,0.012Z" style="fill-rule:nonzero;"/>
            </g>
            <g transform="matrix(75,0,0,75,1628.09,925.985)">
                <path d="M0.28,0.012C0.341,0.012 0.397,-0.012 0.438,-0.05L0.391,-0.121C0.364,-0.097 0.329,-0.082 0.291,-0.082C0.213,-0.082 0.159,-0.147 0.159,-0.245C0.159,-0.344 0.215,-0.409 0.293,-0.409C0.328,-0.409 0.354,-0.396 0.376,-0.377L0.431,-0.448C0.396,-0.481 0.35,-0.503 0.287,-0.503C0.156,-0.503 0.041,-0.409 0.041,-0.245C0.041,-0.082 0.144,0.012 0.28,0.012Z" style="fill-rule:nonzero;"/>
            </g>
            <g transform="matrix(75,0,0,75,1662.74,925.985)">
                <path d="M0.073,-0L0.188,-0L0.188,-0.343C0.229,-0.383 0.257,-0.404 0.3,-0.404C0.354,-0.404 0.377,-0.374 0.377,-0.293L0.377,-0L0.492,-0L0.492,-0.308C0.492,-0.432 0.446,-0.503 0.341,-0.503C0.274,-0.503 0.225,-0.468 0.184,-0.429L0.188,-0.524L0.188,-0.706L0.073,-0.706L0.073,-0Z" style="fill-rule:nonzero;"/>
            </g>
            <g transform="matrix(75,0,0,75,1719.59,925.985)">
                <path d="M0.274,0.012C0.397,0.012 0.508,-0.082 0.508,-0.245C0.508,-0.409 0.397,-0.503 0.274,-0.503C0.152,-0.503 0.041,-0.409 0.041,-0.245C0.041,-0.082 0.152,0.012 0.274,0.012ZM0.274,-0.082C0.202,-0.082 0.159,-0.147 0.159,-0.245C0.159,-0.344 0.202,-0.409 0.274,-0.409C0.346,-0.409 0.39,-0.344 0.39,-0.245C0.39,-0.147 0.346,-0.082 0.274,-0.082Z" style="fill-rule:nonzero;"/>
            </g>
            <g transform="matrix(75,0,0,75,1760.77,925.985)">
                <path d="M0.245,0.012C0.298,0.012 0.348,-0.017 0.384,-0.053L0.388,-0.053L0.396,-0L0.491,-0L0.491,-0.706L0.376,-0.706L0.376,-0.528L0.38,-0.449C0.342,-0.482 0.307,-0.503 0.251,-0.503C0.144,-0.503 0.043,-0.405 0.043,-0.245C0.043,-0.083 0.122,0.012 0.245,0.012ZM0.273,-0.083C0.202,-0.083 0.162,-0.14 0.162,-0.246C0.162,-0.349 0.213,-0.408 0.276,-0.408C0.309,-0.408 0.342,-0.397 0.376,-0.367L0.376,-0.138C0.343,-0.1 0.311,-0.083 0.273,-0.083Z" style="fill-rule:nonzero;"/>
            </g>
            <g transform="matrix(75,0,0,75,1803.07,925.985)">
                <path d="M0.27,-0.412C0.336,-0.412 0.368,-0.368 0.368,-0.298L0.158,-0.298C0.172,-0.385 0.222,-0.412 0.27,-0.412ZM0.284,0.012C0.346,0.012 0.406,-0.008 0.452,-0.04L0.412,-0.114C0.378,-0.092 0.34,-0.08 0.298,-0.08C0.23,-0.08 0.169,-0.12 0.156,-0.21L0.464,-0.21C0.468,-0.228 0.47,-0.248 0.47,-0.27C0.47,-0.406 0.402,-0.503 0.268,-0.503C0.152,-0.503 0.04,-0.406 0.04,-0.246C0.04,-0.082 0.146,0.012 0.284,0.012Z" style="fill-rule:nonzero;"/>
            </g>
            <g transform="matrix(75,0,0,75,1841.09,925.985)">
                <path d="M0.073,-0L0.188,-0L0.188,-0.3C0.218,-0.374 0.265,-0.401 0.304,-0.401C0.325,-0.401 0.336,-0.399 0.352,-0.395L0.375,-0.493C0.36,-0.5 0.344,-0.503 0.319,-0.503C0.266,-0.503 0.214,-0.468 0.18,-0.404L0.176,-0.404L0.168,-0.491L0.073,-0.491L0.073,-0Z" style="fill-rule:nonzero;"/>
            </g>
            <g transform="matrix(75,0,0,75,1884.07,925.985)">
                <path d="M0.183,-0L0.316,-0L0.483,-0.491L0.372,-0.491L0.294,-0.236C0.28,-0.188 0.266,-0.138 0.252,-0.088L0.248,-0.088C0.235,-0.138 0.22,-0.188 0.207,-0.236L0.129,-0.491L0.012,-0.491L0.183,-0Z" style="fill-rule:nonzero;"/>
            </g>
            <g transform="matrix(75,0,0,75,1921.19,925.985)">
                <path d="M0.073,-0L0.188,-0L0.188,-0.491L0.073,-0.491L0.073,-0ZM0.13,-0.577C0.171,-0.577 0.199,-0.603 0.199,-0.643C0.199,-0.682 0.171,-0.708 0.13,-0.708C0.089,-0.708 0.061,-0.682 0.061,-0.643C0.061,-0.603 0.089,-0.577 0.13,-0.577Z" style="fill-rule:nonzero;"/>
            </g>
            <g transform="matrix(75,0,0,75,1940.84,925.985)">
                <path d="M0.073,-0L0.188,-0L0.188,-0.3C0.218,-0.374 0.265,-0.401 0.304,-0.401C0.325,-0.401 0.336,-0.399 0.352,-0.395L0.375,-0.493C0.36,-0.5 0.344,-0.503 0.319,-0.503C0.266,-0.503 0.214,-0.468 0.18,-0.404L0.176,-0.404L0.168,-0.491L0.073,-0.491L0.073,-0Z" style="fill-rule:nonzero;"/>
            </g>
            <g transform="matrix(75,0,0,75,1968.82,925.985)">
                <path d="M0.246,0.01C0.286,0.01 0.321,0.001 0.347,-0.01L0.326,-0.091C0.31,-0.084 0.292,-0.081 0.275,-0.081C0.228,-0.081 0.206,-0.11 0.206,-0.167L0.206,-0.4L0.331,-0.4L0.331,-0.491L0.206,-0.491L0.206,-0.645L0.11,-0.645L0.096,-0.491L0.02,-0.486L0.02,-0.4L0.09,-0.4L0.09,-0.167C0.09,-0.061 0.132,0.01 0.246,0.01Z" style="fill-rule:nonzero;"/>
            </g>
            <g transform="matrix(75,0,0,75,1995.89,925.985)">
                <path d="M0.219,0.012C0.286,0.012 0.334,-0.021 0.377,-0.072L0.38,-0.072L0.389,-0L0.483,-0L0.483,-0.491L0.368,-0.491L0.368,-0.155C0.331,-0.107 0.302,-0.087 0.259,-0.087C0.206,-0.087 0.183,-0.117 0.183,-0.198L0.183,-0.491L0.068,-0.491L0.068,-0.183C0.068,-0.059 0.114,0.012 0.219,0.012Z" style="fill-rule:nonzero;"/>
            </g>
            <g transform="matrix(75,0,0,75,2037.59,925.985)">
                <path d="M0.192,0.012C0.25,0.012 0.298,-0.016 0.344,-0.054L0.348,-0.054L0.356,-0L0.451,-0L0.451,-0.29C0.451,-0.428 0.39,-0.503 0.268,-0.503C0.19,-0.503 0.12,-0.474 0.066,-0.44L0.108,-0.362C0.152,-0.388 0.198,-0.408 0.246,-0.408C0.312,-0.408 0.334,-0.366 0.336,-0.316C0.134,-0.294 0.046,-0.242 0.046,-0.132C0.046,-0.046 0.106,0.012 0.192,0.012ZM0.228,-0.082C0.188,-0.082 0.158,-0.098 0.158,-0.14C0.158,-0.19 0.202,-0.22 0.336,-0.236L0.336,-0.132C0.3,-0.098 0.268,-0.082 0.228,-0.082Z" style="fill-rule:nonzero;"/>
            </g>
            <g transform="matrix(75,0,0,75,2076.29,925.985)">
                <path d="M0.185,0.01C0.212,0.01 0.232,0.006 0.246,-0L0.231,-0.086C0.223,-0.084 0.219,-0.084 0.214,-0.084C0.201,-0.084 0.188,-0.093 0.188,-0.122L0.188,-0.706L0.073,-0.706L0.073,-0.128C0.073,-0.042 0.103,0.01 0.185,0.01Z" style="fill-rule:nonzero;"/>
            </g>
            <g transform="matrix(75,0,0,75,2096.62,925.985)">
                <path d="M0.073,-0L0.188,-0L0.188,-0.491L0.073,-0.491L0.073,-0ZM0.13,-0.577C0.171,-0.577 0.199,-0.603 0.199,-0.643C0.199,-0.682 0.171,-0.708 0.13,-0.708C0.089,-0.708 0.061,-0.682 0.061,-0.643C0.061,-0.603 0.089,-0.577 0.13,-0.577Z" style="fill-rule:nonzero;"/>
            </g>
            <g transform="matrix(75,0,0,75,2116.27,925.985)">
                <path d="M0.21,0.012C0.334,0.012 0.401,-0.056 0.401,-0.14C0.401,-0.226 0.334,-0.264 0.258,-0.29C0.196,-0.311 0.16,-0.326 0.16,-0.362C0.16,-0.392 0.183,-0.416 0.233,-0.416C0.272,-0.416 0.308,-0.404 0.343,-0.379L0.394,-0.444C0.354,-0.478 0.297,-0.503 0.23,-0.503C0.12,-0.503 0.052,-0.442 0.052,-0.356C0.052,-0.278 0.118,-0.238 0.189,-0.212C0.243,-0.192 0.292,-0.175 0.292,-0.134C0.292,-0.1 0.267,-0.075 0.214,-0.075C0.163,-0.075 0.118,-0.09 0.075,-0.126L0.024,-0.06C0.072,-0.014 0.142,0.012 0.21,0.012Z" style="fill-rule:nonzero;"/>
            </g>
            <g transform="matrix(75,0,0,75,2148.59,925.985)">
                <path d="M0.073,-0L0.188,-0L0.188,-0.491L0.073,-0.491L0.073,-0ZM0.13,-0.577C0.171,-0.577 0.199,-0.603 0.199,-0.643C0.199,-0.682 0.171,-0.708 0.13,-0.708C0.089,-0.708 0.061,-0.682 0.061,-0.643C0.061,-0.603 0.089,-0.577 0.13,-0.577Z" style="fill-rule:nonzero;"/>
            </g>
            <g transform="matrix(75,0,0,75,2168.24,925.985)">
                <path d="M0.27,-0.412C0.336,-0.412 0.368,-0.368 0.368,-0.298L0.158,-0.298C0.172,-0.385 0.222,-0.412 0.27,-0.412ZM0.284,0.012C0.346,0.012 0.406,-0.008 0.452,-0.04L0.412,-0.114C0.378,-0.092 0.34,-0.08 0.298,-0.08C0.23,-0.08 0.169,-0.12 0.156,-0.21L0.464,-0.21C0.468,-0.228 0.47,-0.248 0.47,-0.27C0.47,-0.406 0.402,-0.503 0.268,-0.503C0.152,-0.503 0.04,-0.406 0.04,-0.246C0.04,-0.082 0.146,0.012 0.284,0.012Z" style="fill-rule:nonzero;"/>
            </g>
            <g transform="matrix(75,0,0,75,2206.27,925.985)">
                <path d="M0.073,-0L0.188,-0L0.188,-0.3C0.218,-0.374 0.265,-0.401 0.304,-0.401C0.325,-0.401 0.336,-0.399 0.352,-0.395L0.375,-0.493C0.36,-0.5 0.344,-0.503 0.319,-0.503C0.266,-0.503 0.214,-0.468 0.18,-0.404L0.176,-0.404L0.168,-0.491L0.073,-0.491L0.073,-0Z" style="fill-rule:nonzero;"/>
            </g>
            <g transform="matrix(75,0,0,75,2234.24,925.985)">
                <path d="M0.246,0.01C0.286,0.01 0.321,0.001 0.347,-0.01L0.326,-0.091C0.31,-0.084 0.292,-0.081 0.275,-0.081C0.228,-0.081 0.206,-0.11 0.206,-0.167L0.206,-0.4L0.331,-0.4L0.331,-0.491L0.206,-0.491L0.206,-0.645L0.11,-0.645L0.096,-0.491L0.02,-0.486L0.02,-0.4L0.09,-0.4L0.09,-0.167C0.09,-0.061 0.132,0.01 0.246,0.01Z" style="fill-rule:nonzero;"/>
            </g>
            <g transform="matrix(75,0,0,75,2261.32,925.985)">
                <path d="M0.115,0.178C0.198,0.042 0.247,-0.102 0.247,-0.278C0.247,-0.454 0.198,-0.598 0.115,-0.734L0.043,-0.702C0.118,-0.574 0.153,-0.425 0.153,-0.278C0.153,-0.131 0.118,0.018 0.043,0.146L0.115,0.178Z" style="fill-rule:nonzero;"/>
            </g>
        </g>
    </g>
    <g transform="matrix(1,0,0,1,-107.896,158.223)">
        <g transform="matrix(1,0,0,3.29093,102.557,-1833.74)">
            <rect x="626.108" y="811.181" width="1371.1" height="38.597" style="fill:rgb(235,235,235);"/>
        </g>
        <g transform="matrix(1,0,0,1,-143.75,-0.0144185)">
            <g transform="matrix(75,0,0,75,948.89,925.985)">
                <path d="M0.083,-0L0.188,-0L0.188,-0.298C0.188,-0.36 0.18,-0.458 0.172,-0.518L0.176,-0.518L0.226,-0.352L0.332,-0.06L0.41,-0.06L0.516,-0.352L0.568,-0.518L0.572,-0.518C0.564,-0.458 0.555,-0.36 0.555,-0.298L0.555,-0L0.662,-0L0.662,-0.654L0.524,-0.654L0.412,-0.334C0.398,-0.292 0.388,-0.254 0.376,-0.206L0.372,-0.206C0.36,-0.254 0.348,-0.292 0.334,-0.334L0.222,-0.654L0.083,-0.654L0.083,-0Z" style="fill-rule:nonzero;"/>
            </g>
            <g transform="matrix(75,0,0,75,1004.77,925.985)">
                <path d="M0.073,-0L0.188,-0L0.188,-0.491L0.073,-0.491L0.073,-0ZM0.13,-0.577C0.171,-0.577 0.199,-0.603 0.199,-0.643C0.199,-0.682 0.171,-0.708 0.13,-0.708C0.089,-0.708 0.061,-0.682 0.061,-0.643C0.061,-0.603 0.089,-0.577 0.13,-0.577Z" style="fill-rule:nonzero;"/>
            </g>
            <g transform="matrix(75,0,0,75,1024.42,925.985)">
                <path d="M0.245,0.012C0.298,0.012 0.348,-0.017 0.384,-0.053L0.388,-0.053L0.396,-0L0.491,-0L0.491,-0.706L0.376,-0.706L0.376,-0.528L0.38,-0.449C0.342,-0.482 0.307,-0.503 0.251,-0.503C0.144,-0.503 0.043,-0.405 0.043,-0.245C0.043,-0.083 0.122,0.012 0.245,0.012ZM0.273,-0.083C0.202,-0.083 0.162,-0.14 0.162,-0.246C0.162,-0.349 0.213,-0.408 0.276,-0.408C0.309,-0.408 0.342,-0.397 0.376,-0.367L0.376,-0.138C0.343,-0.1 0.311,-0.083 0.273,-0.083Z" style="fill-rule:nonzero;"/>
            </g>
            <g transform="matrix(75,0,0,75,1066.72,925.985)">
                <path d="M0.245,0.012C0.298,0.012 0.348,-0.017 0.384,-0.053L0.388,-0.053L0.396,-0L0.491,-0L0.491,-0.706L0.376,-0.706L0.376,-0.528L0.38,-0.449C0.342,-0.482 0.307,-0.503 0.251,-0.503C0.144,-0.503 0.043,-0.405 0.043,-0.245C0.043,-0.083 0.122,0.012 0.245,0.012ZM0.273,-0.083C0.202,-0.083 0.162,-0.14 0.162,-0.246C0.162,-0.349 0.213,-0.408 0.276,-0.408C0.309,-0.408 0.342,-0.397 0.376,-0.367L0.376,-0.138C0.343,-0.1 0.311,-0.083 0.273,-0.083Z" style="fill-rule:nonzero;"/>
            </g>
            <g transform="matrix(75,0,0,75,1109.02,925.985)">
                <path d="M0.185,0.01C0.212,0.01 0.232,0.006 0.246,-0L0.231,-0.086C0.223,-0.084 0.219,-0.084 0.214,-0.084C0.201,-0.084 0.188,-0.093 0.188,-0.122L0.188,-0.706L0.073,-0.706L0.073,-0.128C0.073,-0.042 0.103,0.01 0.185,0.01Z" style="fill-rule:nonzero;"/>
            </g>
            <g transform="matrix(75,0,0,75,1129.34,925.985)">
                <path d="M0.27,-0.412C0.336,-0.412 0.368,-0.368 0.368,-0.298L0.158,-0.298C0.172,-0.385 0.222,-0.412 0.27,-0.412ZM0.284,0.012C0.346,0.012 0.406,-0.008 0.452,-0.04L0.412,-0.114C0.378,-0.092 0.34,-0.08 0.298,-0.08C0.23,-0.08 0.169,-0.12 0.156,-0.21L0.464,-0.21C0.468,-0.228 0.47,-0.248 0.47,-0.27C0.47,-0.406 0.402,-0.503 0.268,-0.503C0.152,-0.503 0.04,-0.406 0.04,-0.246C0.04,-0.082 0.146,0.012 0.284,0.012Z" style="fill-rule:nonzero;"/>
            </g>
            <g transform="matrix(75,0,0,75,1167.37,925.985)">
                <path d="M0.154,-0L0.296,-0L0.346,-0.228C0.356,-0.272 0.364,-0.312 0.372,-0.376L0.376,-0.376C0.384,-0.312 0.392,-0.272 0.402,-0.228L0.452,-0L0.599,-0L0.724,-0.491L0.614,-0.491L0.556,-0.236C0.546,-0.192 0.54,-0.148 0.531,-0.09L0.527,-0.09C0.518,-0.148 0.509,-0.192 0.498,-0.236L0.436,-0.491L0.316,-0.491L0.256,-0.236C0.246,-0.192 0.238,-0.148 0.229,-0.09L0.225,-0.09C0.218,-0.148 0.21,-0.192 0.2,-0.236L0.142,-0.491L0.024,-0.491L0.154,-0Z" style="fill-rule:nonzero;"/>
            </g>
            <g transform="matrix(75,0,0,75,1222.72,925.985)">
                <path d="M0.192,0.012C0.25,0.012 0.298,-0.016 0.344,-0.054L0.348,-0.054L0.356,-0L0.451,-0L0.451,-0.29C0.451,-0.428 0.39,-0.503 0.268,-0.503C0.19,-0.503 0.12,-0.474 0.066,-0.44L0.108,-0.362C0.152,-0.388 0.198,-0.408 0.246,-0.408C0.312,-0.408 0.334,-0.366 0.336,-0.316C0.134,-0.294 0.046,-0.242 0.046,-0.132C0.046,-0.046 0.106,0.012 0.192,0.012ZM0.228,-0.082C0.188,-0.082 0.158,-0.098 0.158,-0.14C0.158,-0.19 0.202,-0.22 0.336,-0.236L0.336,-0.132C0.3,-0.098 0.268,-0.082 0.228,-0.082Z" style="fill-rule:nonzero;"/>
            </g>
            <g transform="matrix(75,0,0,75,1261.42,925.985)">
                <path d="M0.073,-0L0.188,-0L0.188,-0.3C0.218,-0.374 0.265,-0.401 0.304,-0.401C0.325,-0.401 0.336,-0.399 0.352,-0.395L0.375,-0.493C0.36,-0.5 0.344,-0.503 0.319,-0.503C0.266,-0.503 0.214,-0.468 0.18,-0.404L0.176,-0.404L0.168,-0.491L0.073,-0.491L0.073,-0Z" style="fill-rule:nonzero;"/>
            </g>
            <g transform="matrix(75,0,0,75,1288.64,925.985)">
                <path d="M0.27,-0.412C0.336,-0.412 0.368,-0.368 0.368,-0.298L0.158,-0.298C0.172,-0.385 0.222,-0.412 0.27,-0.412ZM0.284,0.012C0.346,0.012 0.406,-0.008 0.452,-0.04L0.412,-0.114C0.378,-0.092 0.34,-0.08 0.298,-0.08C0.23,-0.08 0.169,-0.12 0.156,-0.21L0.464,-0.21C0.468,-0.228 0.47,-0.248 0.47,-0.27C0.47,-0.406 0.402,-0.503 0.268,-0.503C0.152,-0.503 0.04,-0.406 0.04,-0.246C0.04,-0.082 0.146,0.012 0.284,0.012Z" style="fill-rule:nonzero;"/>
            </g>
            <g transform="matrix(75,0,0,75,1327.42,925.985)">
                <rect x="0.042" y="-0.294" width="0.238" height="0.084" style="fill-rule:nonzero;"/>
            </g>
            <g transform="matrix(75,0,0,75,1366.57,925.985)">
                <path d="M0.274,0.012C0.397,0.012 0.508,-0.082 0.508,-0.245C0.508,-0.409 0.397,-0.503 0.274,-0.503C0.152,-0.503 0.041,-0.409 0.041,-0.245C0.041,-0.082 0.152,0.012 0.274,0.012ZM0.274,-0.082C0.202,-0.082 0.159,-0.147 0.159,-0.245C0.159,-0.344 0.202,-0.409 0.274,-0.409C0.346,-0.409 0.39,-0.344 0.39,-0.245C0.39,-0.147 0.346,-0.082 0.274,-0.082Z" style="fill-rule:nonzero;"/>
            </g>
            <g transform="matrix(75,0,0,75,1407.74,925.985)">
                <path d="M0.245,0.012C0.298,0.012 0.348,-0.017 0.384,-0.053L0.388,-0.053L0.396,-0L0.491,-0L0.491,-0.706L0.376,-0.706L0.376,-0.528L0.38,-0.449C0.342,-0.482 0.307,-0.503 0.251,-0.503C0.144,-0.503 0.043,-0.405 0.043,-0.245C0.043,-0.083 0.122,0.012 0.245,0.012ZM0.273,-0.083C0.202,-0.083 0.162,-0.14 0.162,-0.246C0.162,-0.349 0.213,-0.408 0.276,-0.408C0.309,-0.408 0.342,-0.397 0.376,-0.367L0.376,-0.138C0.343,-0.1 0.311,-0.083 0.273,-0.083Z" style="fill-rule:nonzero;"/>
            </g>
            <g transform="matrix(75,0,0,75,1450.04,925.985)">
                <path d="M0.27,-0.412C0.336,-0.412 0.368,-0.368 0.368,-0.298L0.158,-0.298C0.172,-0.385 0.222,-0.412 0.27,-0.412ZM0.284,0.012C0.346,0.012 0.406,-0.008 0.452,-0.04L0.412,-0.114C0.378,-0.092 0.34,-0.08 0.298,-0.08C0.23,-0.08 0.169,-0.12 0.156,-0.21L0.464,-0.21C0.468,-0.228 0.47,-0.248 0.47,-0.27C0.47,-0.406 0.402,-0.503 0.268,-0.503C0.152,-0.503 0.04,-0.406 0.04,-0.246C0.04,-0.082 0.146,0.012 0.284,0.012Z" style="fill-rule:nonzero;"/>
            </g>
            <g transform="matrix(75,0,0,75,1488.07,925.985)">
                <path d="M0.073,-0L0.188,-0L0.188,-0.3C0.218,-0.374 0.265,-0.401 0.304,-0.401C0.325,-0.401 0.336,-0.399 0.352,-0.395L0.375,-0.493C0.36,-0.5 0.344,-0.503 0.319,-0.503C0.266,-0.503 0.214,-0.468 0.18,-0.404L0.176,-0.404L0.168,-0.491L0.073,-0.491L0.073,-0Z" style="fill-rule:nonzero;"/>
            </g>
            <g transform="matrix(75,0,0,75,1531.04,925.985)">
                <path d="M0.083,-0L0.264,-0C0.458,-0 0.576,-0.113 0.576,-0.33C0.576,-0.546 0.458,-0.654 0.258,-0.654L0.083,-0.654L0.083,-0ZM0.199,-0.094L0.199,-0.56L0.25,-0.56C0.382,-0.56 0.457,-0.49 0.457,-0.33C0.457,-0.169 0.382,-0.094 0.25,-0.094L0.199,-0.094Z" style="fill-rule:nonzero;"/>
            </g>
            <g transform="matrix(75,0,0,75,1577.92,925.985)">
                <path d="M0.192,0.012C0.25,0.012 0.298,-0.016 0.344,-0.054L0.348,-0.054L0.356,-0L0.451,-0L0.451,-0.29C0.451,-0.428 0.39,-0.503 0.268,-0.503C0.19,-0.503 0.12,-0.474 0.066,-0.44L0.108,-0.362C0.152,-0.388 0.198,-0.408 0.246,-0.408C0.312,-0.408 0.334,-0.366 0.336,-0.316C0.134,-0.294 0.046,-0.242 0.046,-0.132C0.046,-0.046 0.106,0.012 0.192,0.012ZM0.228,-0.082C0.188,-0.082 0.158,-0.098 0.158,-0.14C0.158,-0.19 0.202,-0.22 0.336,-0.236L0.336,-0.132C0.3,-0.098 0.268,-0.082 0.228,-0.082Z" style="fill-rule:nonzero;"/>
            </g>
            <g transform="matrix(75,0,0,75,1615.42,925.985)">
                <path d="M0.246,0.01C0.286,0.01 0.321,0.001 0.347,-0.01L0.326,-0.091C0.31,-0.084 0.292,-0.081 0.275,-0.081C0.228,-0.081 0.206,-0.11 0.206,-0.167L0.206,-0.4L0.331,-0.4L0.331,-0.491L0.206,-0.491L0.206,-0.645L0.11,-0.645L0.096,-0.491L0.02,-0.486L0.02,-0.4L0.09,-0.4L0.09,-0.167C0.09,-0.061 0.132,0.01 0.246,0.01Z" style="fill-rule:nonzero;"/>
            </g>
            <g transform="matrix(75,0,0,75,1641.29,925.985)">
                <path d="M0.27,-0.412C0.336,-0.412 0.368,-0.368 0.368,-0.298L0.158,-0.298C0.172,-0.385 0.222,-0.412 0.27,-0.412ZM0.284,0.012C0.346,0.012 0.406,-0.008 0.452,-0.04L0.412,-0.114C0.378,-0.092 0.34,-0.08 0.298,-0.08C0.23,-0.08 0.169,-0.12 0.156,-0.21L0.464,-0.21C0.468,-0.228 0.47,-0.248 0.47,-0.27C0.47,-0.406 0.402,-0.503 0.268,-0.503C0.152,-0.503 0.04,-0.406 0.04,-0.246C0.04,-0.082 0.146,0.012 0.284,0.012Z" style="fill-rule:nonzero;"/>
            </g>
            <g transform="matrix(75,0,0,75,1679.32,925.985)">
                <path d="M0.073,-0L0.188,-0L0.188,-0.343C0.229,-0.383 0.257,-0.404 0.3,-0.404C0.354,-0.404 0.377,-0.374 0.377,-0.293L0.377,-0L0.492,-0L0.492,-0.308C0.492,-0.432 0.446,-0.503 0.341,-0.503C0.274,-0.503 0.224,-0.468 0.18,-0.425L0.176,-0.425L0.168,-0.491L0.073,-0.491L0.073,-0Z" style="fill-rule:nonzero;"/>
            </g>
            <g transform="matrix(75,0,0,75,1721.32,925.985)">
                <path d="M0.311,0.012C0.42,0.012 0.521,-0.085 0.521,-0.254C0.521,-0.405 0.45,-0.503 0.327,-0.503C0.277,-0.503 0.226,-0.478 0.185,-0.442L0.188,-0.524L0.188,-0.706L0.073,-0.706L0.073,-0L0.164,-0L0.174,-0.052L0.177,-0.052C0.218,-0.011 0.266,0.012 0.311,0.012ZM0.287,-0.083C0.258,-0.083 0.223,-0.094 0.188,-0.124L0.188,-0.353C0.226,-0.39 0.26,-0.408 0.296,-0.408C0.37,-0.408 0.402,-0.35 0.402,-0.252C0.402,-0.141 0.352,-0.083 0.287,-0.083Z" style="fill-rule:nonzero;"/>
            </g>
            <g transform="matrix(75,0,0,75,1762.64,925.985)">
                <path d="M0.192,0.012C0.25,0.012 0.298,-0.016 0.344,-0.054L0.348,-0.054L0.356,-0L0.451,-0L0.451,-0.29C0.451,-0.428 0.39,-0.503 0.268,-0.503C0.19,-0.503 0.12,-0.474 0.066,-0.44L0.108,-0.362C0.152,-0.388 0.198,-0.408 0.246,-0.408C0.312,-0.408 0.334,-0.366 0.336,-0.316C0.134,-0.294 0.046,-0.242 0.046,-0.132C0.046,-0.046 0.106,0.012 0.192,0.012ZM0.228,-0.082C0.188,-0.082 0.158,-0.098 0.158,-0.14C0.158,-0.19 0.202,-0.22 0.336,-0.236L0.336,-0.132C0.3,-0.098 0.268,-0.082 0.228,-0.082Z" style="fill-rule:nonzero;"/>
            </g>
            <g transform="matrix(75,0,0,75,1801.34,925.985)">
                <path d="M0.073,-0L0.188,-0L0.188,-0.343C0.229,-0.383 0.257,-0.404 0.3,-0.404C0.354,-0.404 0.377,-0.374 0.377,-0.293L0.377,-0L0.492,-0L0.492,-0.308C0.492,-0.432 0.446,-0.503 0.341,-0.503C0.274,-0.503 0.224,-0.468 0.18,-0.425L0.176,-0.425L0.168,-0.491L0.073,-0.491L0.073,-0Z" style="fill-rule:nonzero;"/>
            </g>
            <g transform="matrix(75,0,0,75,1843.34,925.985)">
                <path d="M0.073,-0L0.187,-0L0.187,-0.126L0.263,-0.213L0.389,-0L0.514,-0L0.33,-0.29L0.497,-0.491L0.37,-0.491L0.19,-0.266L0.187,-0.266L0.187,-0.706L0.073,-0.706L0.073,-0Z" style="fill-rule:nonzero;"/>
            </g>
            <g transform="matrix(75,0,0,75,1882.49,925.985)">
                <path d="M0.21,0.012C0.334,0.012 0.401,-0.056 0.401,-0.14C0.401,-0.226 0.334,-0.264 0.258,-0.29C0.196,-0.311 0.16,-0.326 0.16,-0.362C0.16,-0.392 0.183,-0.416 0.233,-0.416C0.272,-0.416 0.308,-0.404 0.343,-0.379L0.394,-0.444C0.354,-0.478 0.297,-0.503 0.23,-0.503C0.12,-0.503 0.052,-0.442 0.052,-0.356C0.052,-0.278 0.118,-0.238 0.189,-0.212C0.243,-0.192 0.292,-0.175 0.292,-0.134C0.292,-0.1 0.267,-0.075 0.214,-0.075C0.163,-0.075 0.118,-0.09 0.075,-0.126L0.024,-0.06C0.072,-0.014 0.142,0.012 0.21,0.012Z" style="fill-rule:nonzero;"/>
            </g>
            <g transform="matrix(75,0,0,75,1914.82,925.985)">
                <path d="M0.106,0.202C0.213,0.202 0.264,0.133 0.305,0.022L0.483,-0.491L0.372,-0.491L0.298,-0.25C0.286,-0.206 0.273,-0.157 0.261,-0.112L0.257,-0.112C0.242,-0.158 0.228,-0.207 0.214,-0.25L0.129,-0.491L0.012,-0.491L0.205,-0.006L0.196,0.025C0.18,0.074 0.15,0.109 0.098,0.109C0.087,0.109 0.077,0.108 0.064,0.104L0.042,0.19C0.06,0.198 0.079,0.202 0.106,0.202Z" style="fill-rule:nonzero;"/>
            </g>
            <g transform="matrix(75,0,0,75,1951.94,925.985)">
                <path d="M0.21,0.012C0.334,0.012 0.401,-0.056 0.401,-0.14C0.401,-0.226 0.334,-0.264 0.258,-0.29C0.196,-0.311 0.16,-0.326 0.16,-0.362C0.16,-0.392 0.183,-0.416 0.233,-0.416C0.272,-0.416 0.308,-0.404 0.343,-0.379L0.394,-0.444C0.354,-0.478 0.297,-0.503 0.23,-0.503C0.12,-0.503 0.052,-0.442 0.052,-0.356C0.052,-0.278 0.118,-0.238 0.189,-0.212C0.243,-0.192 0.292,-0.175 0.292,-0.134C0.292,-0.1 0.267,-0.075 0.214,-0.075C0.163,-0.075 0.118,-0.09 0.075,-0.126L0.024,-0.06C0.072,-0.014 0.142,0.012 0.21,0.012Z" style="fill-rule:nonzero;"/>
            </g>
            <g transform="matrix(75,0,0,75,1982.77,925.985)">
                <path d="M0.246,0.01C0.286,0.01 0.321,0.001 0.347,-0.01L0.326,-0.091C0.31,-0.084 0.292,-0.081 0.275,-0.081C0.228,-0.081 0.206,-0.11 0.206,-0.167L0.206,-0.4L0.331,-0.4L0.331,-0.491L0.206,-0.491L0.206,-0.645L0.11,-0.645L0.096,-0.491L0.02,-0.486L0.02,-0.4L0.09,-0.4L0.09,-0.167C0.09,-0.061 0.132,0.01 0.246,0.01Z" style="fill-rule:nonzero;"/>
            </g>
            <g transform="matrix(75,0,0,75,2008.64,925.985)">
                <path d="M0.27,-0.412C0.336,-0.412 0.368,-0.368 0.368,-0.298L0.158,-0.298C0.172,-0.385 0.222,-0.412 0.27,-0.412ZM0.284,0.012C0.346,0.012 0.406,-0.008 0.452,-0.04L0.412,-0.114C0.378,-0.092 0.34,-0.08 0.298,-0.08C0.23,-0.08 0.169,-0.12 0.156,-0.21L0.464,-0.21C0.468,-0.228 0.47,-0.248 0.47,-0.27C0.47,-0.406 0.402,-0.503 0.268,-0.503C0.152,-0.503 0.04,-0.406 0.04,-0.246C0.04,-0.082 0.146,0.012 0.284,0.012Z" style="fill-rule:nonzero;"/>
            </g>
            <g transform="matrix(75,0,0,75,2046.67,925.985)">
                <path d="M0.073,-0L0.188,-0L0.188,-0.343C0.226,-0.384 0.261,-0.404 0.291,-0.404C0.343,-0.404 0.367,-0.374 0.367,-0.293L0.367,-0L0.482,-0L0.482,-0.343C0.52,-0.384 0.554,-0.404 0.585,-0.404C0.636,-0.404 0.66,-0.374 0.66,-0.293L0.66,-0L0.776,-0L0.776,-0.308C0.776,-0.432 0.728,-0.503 0.624,-0.503C0.562,-0.503 0.513,-0.465 0.466,-0.415C0.443,-0.47 0.402,-0.503 0.33,-0.503C0.269,-0.503 0.221,-0.468 0.18,-0.424L0.176,-0.424L0.168,-0.491L0.073,-0.491L0.073,-0Z" style="fill-rule:nonzero;"/>
            </g>
        </g>
    </g>
</svg>
