<?xml version="1.0" encoding="UTF-8" standalone="no"?>
<!DOCTYPE svg PUBLIC "-//W3C//DTD SVG 1.1//EN" "http://www.w3.org/Graphics/SVG/1.1/DTD/svg11.dtd">
<svg width="100%" height="100%" viewBox="0 0 1352 1093" version="1.1" xmlns="http://www.w3.org/2000/svg" xmlns:xlink="http://www.w3.org/1999/xlink" xml:space="preserve" xmlns:serif="http://www.serif.com/" style="fill-rule:evenodd;clip-rule:evenodd;stroke-miterlimit:8;">
    <g transform="matrix(1,0,0,1,-21.309,-82.347)">
        <g transform="matrix(1,0,0,1,-1100.42,-459.47)">
            <g transform="matrix(2.57019,2.26838,-2.37216,2.68778,1812.25,-1095.7)">
                <path d="M360.534,318.335C375.802,314.791 391.536,313.694 407.148,315.087L409.125,304.293L419.163,325.043L402.185,342.198L404.16,331.409C390.787,330.372 377.335,331.388 364.269,334.421L360.534,318.335Z" style="fill:rgb(68,114,196);stroke:white;stroke-width:1px;"/>
            </g>
            <g transform="matrix(2.74009,-2.05995,2.15419,2.86545,-321.349,528.469)">
                <path d="M360.534,318.335C375.802,314.791 391.536,313.694 407.148,315.087L409.125,304.293L419.163,325.043L402.185,342.198L404.16,331.409C390.787,330.372 377.335,331.388 364.269,334.421L360.534,318.335Z" style="fill:rgb(68,114,196);stroke:white;stroke-width:1px;"/>
            </g>
            <g transform="matrix(-0.37618,3.40734,-3.56323,-0.393391,3564.17,-141.085)">
                <path d="M360.534,318.335C375.802,314.791 391.536,313.694 407.148,315.087L409.125,304.293L419.163,325.043L402.185,342.198L404.16,331.409C390.787,330.372 377.335,331.388 364.269,334.421L360.534,318.335Z" style="fill:rgb(68,114,196);stroke:white;stroke-width:1px;"/>
            </g>
            <g transform="matrix(-2.2022,2.62712,-2.74732,-2.30295,3874.39,1160.89)">
                <path d="M360.534,318.335C375.802,314.791 391.536,313.694 407.148,315.087L409.125,304.293L419.163,325.043L402.185,342.198L404.16,331.409C390.787,330.372 377.335,331.388 364.269,334.421L360.534,318.335Z" style="fill:rgb(68,114,196);stroke:white;stroke-width:1px;"/>
            </g>
            <g transform="matrix(-2.45991,-2.38753,2.49676,-2.57246,1485.25,3214.63)">
                <path d="M360.534,318.335C375.802,314.791 391.536,313.694 407.148,315.087L409.125,304.293L419.163,325.043L402.185,342.198L404.16,331.409C390.787,330.372 377.335,331.388 364.269,334.421L360.534,318.335Z" style="fill:rgb(68,114,196);stroke:white;stroke-width:1px;"/>
            </g>
            <g transform="matrix(0.0859473,-3.42696,3.58375,0.0898795,10.1945,2355.32)">
                <path d="M360.534,318.335C375.802,314.791 391.536,313.694 407.148,315.087L409.125,304.293L419.163,325.043L402.185,342.198L404.16,331.409C390.787,330.372 377.335,331.388 364.269,334.421L360.534,318.335Z" style="fill:rgb(68,114,196);stroke:white;stroke-width:1px;"/>
            </g>
            <g transform="matrix(1,0,0,1,1122.94,217.471)">
                <g transform="matrix(72,0,0,72,468.106,375.179)">
                    <path d="M0.083,-0L0.199,-0L0.199,-0.24L0.293,-0.24C0.434,-0.24 0.542,-0.307 0.542,-0.452C0.542,-0.604 0.434,-0.654 0.289,-0.654L0.083,-0.654L0.083,-0ZM0.199,-0.333L0.199,-0.561L0.28,-0.561C0.377,-0.561 0.428,-0.534 0.428,-0.452C0.428,-0.372 0.381,-0.333 0.284,-0.333L0.199,-0.333Z" style="fill-rule:nonzero;"/>
                </g>
                <g transform="matrix(72,0,0,72,510.01,375.179)">
                    <path d="M0.185,0.01C0.212,0.01 0.232,0.006 0.246,-0L0.231,-0.086C0.223,-0.084 0.219,-0.084 0.214,-0.084C0.201,-0.084 0.188,-0.093 0.188,-0.122L0.188,-0.706L0.073,-0.706L0.073,-0.128C0.073,-0.042 0.103,0.01 0.185,0.01Z" style="fill-rule:nonzero;"/>
                </g>
                <g transform="matrix(72,0,0,72,529.522,375.179)">
                    <path d="M0.192,0.012C0.25,0.012 0.298,-0.016 0.344,-0.054L0.348,-0.054L0.356,-0L0.451,-0L0.451,-0.29C0.451,-0.428 0.39,-0.503 0.268,-0.503C0.19,-0.503 0.12,-0.474 0.066,-0.44L0.108,-0.362C0.152,-0.388 0.198,-0.408 0.246,-0.408C0.312,-0.408 0.334,-0.366 0.336,-0.316C0.134,-0.294 0.046,-0.242 0.046,-0.132C0.046,-0.046 0.106,0.012 0.192,0.012ZM0.228,-0.082C0.188,-0.082 0.158,-0.098 0.158,-0.14C0.158,-0.19 0.202,-0.22 0.336,-0.236L0.336,-0.132C0.3,-0.098 0.268,-0.082 0.228,-0.082Z" style="fill-rule:nonzero;"/>
                </g>
                <g transform="matrix(72,0,0,72,566.674,375.179)">
                    <path d="M0.073,-0L0.188,-0L0.188,-0.343C0.229,-0.383 0.257,-0.404 0.3,-0.404C0.354,-0.404 0.377,-0.374 0.377,-0.293L0.377,-0L0.492,-0L0.492,-0.308C0.492,-0.432 0.446,-0.503 0.341,-0.503C0.274,-0.503 0.224,-0.468 0.18,-0.425L0.176,-0.425L0.168,-0.491L0.073,-0.491L0.073,-0Z" style="fill-rule:nonzero;"/>
                </g>
                <g transform="matrix(72,0,0,72,606.994,375.179)">
                    <path d="M0.219,0.012C0.286,0.012 0.334,-0.021 0.377,-0.072L0.38,-0.072L0.389,-0L0.483,-0L0.483,-0.491L0.368,-0.491L0.368,-0.155C0.331,-0.107 0.302,-0.087 0.259,-0.087C0.206,-0.087 0.183,-0.117 0.183,-0.198L0.183,-0.491L0.068,-0.491L0.068,-0.183C0.068,-0.059 0.114,0.012 0.219,0.012Z" style="fill-rule:nonzero;"/>
                </g>
                <g transform="matrix(72,0,0,72,647.026,375.179)">
                    <path d="M0.073,-0L0.188,-0L0.188,-0.343C0.229,-0.383 0.257,-0.404 0.3,-0.404C0.354,-0.404 0.377,-0.374 0.377,-0.293L0.377,-0L0.492,-0L0.492,-0.308C0.492,-0.432 0.446,-0.503 0.341,-0.503C0.274,-0.503 0.224,-0.468 0.18,-0.425L0.176,-0.425L0.168,-0.491L0.073,-0.491L0.073,-0Z" style="fill-rule:nonzero;"/>
                </g>
                <g transform="matrix(72,0,0,72,687.346,375.179)">
                    <path d="M0.244,0.217C0.404,0.217 0.506,0.141 0.506,0.044C0.506,-0.041 0.444,-0.077 0.326,-0.077L0.239,-0.077C0.179,-0.077 0.159,-0.094 0.159,-0.122C0.159,-0.144 0.168,-0.156 0.183,-0.169C0.205,-0.16 0.229,-0.156 0.25,-0.156C0.354,-0.156 0.436,-0.214 0.436,-0.322C0.436,-0.356 0.424,-0.382 0.406,-0.402L0.406,-0.406L0.498,-0.406L0.498,-0.491L0.322,-0.491C0.302,-0.498 0.277,-0.503 0.25,-0.503C0.147,-0.503 0.056,-0.44 0.056,-0.327C0.056,-0.269 0.087,-0.222 0.12,-0.197L0.12,-0.193C0.092,-0.173 0.066,-0.14 0.066,-0.102C0.066,-0.062 0.085,-0.036 0.11,-0.02L0.11,-0.016C0.065,0.012 0.04,0.048 0.04,0.089C0.04,0.175 0.127,0.217 0.244,0.217ZM0.25,-0.228C0.202,-0.228 0.164,-0.264 0.164,-0.327C0.164,-0.389 0.202,-0.424 0.25,-0.424C0.298,-0.424 0.335,-0.389 0.335,-0.327C0.335,-0.264 0.297,-0.228 0.25,-0.228ZM0.262,0.142C0.184,0.142 0.136,0.116 0.136,0.072C0.136,0.049 0.148,0.027 0.174,0.007C0.193,0.012 0.214,0.014 0.241,0.014L0.308,0.014C0.364,0.014 0.395,0.025 0.395,0.063C0.395,0.105 0.341,0.142 0.262,0.142Z" style="fill-rule:nonzero;"/>
                </g>
                <g transform="matrix(72,0,0,72,739.186,375.179)">
                    <path d="M0.208,-0.504C0.208,-0.554 0.237,-0.588 0.277,-0.588C0.315,-0.588 0.33,-0.561 0.33,-0.526C0.33,-0.475 0.287,-0.442 0.234,-0.408C0.217,-0.441 0.208,-0.474 0.208,-0.504ZM0.243,0.012C0.324,0.012 0.385,-0.015 0.435,-0.058C0.489,-0.023 0.543,-0 0.593,0.012L0.622,-0.082C0.592,-0.09 0.548,-0.107 0.504,-0.133C0.555,-0.202 0.593,-0.279 0.616,-0.361L0.51,-0.361C0.492,-0.293 0.463,-0.235 0.427,-0.188C0.372,-0.231 0.318,-0.283 0.278,-0.337C0.349,-0.387 0.42,-0.441 0.42,-0.527C0.42,-0.61 0.365,-0.666 0.276,-0.666C0.176,-0.666 0.111,-0.593 0.111,-0.503C0.111,-0.458 0.126,-0.409 0.153,-0.359C0.087,-0.315 0.028,-0.262 0.028,-0.172C0.028,-0.061 0.114,0.012 0.243,0.012ZM0.138,-0.179C0.138,-0.219 0.164,-0.251 0.201,-0.281C0.243,-0.222 0.298,-0.165 0.356,-0.116C0.323,-0.092 0.287,-0.077 0.251,-0.077C0.189,-0.077 0.138,-0.113 0.138,-0.179Z" style="fill-rule:nonzero;"/>
                </g>
                <g transform="matrix(72,0,0,72,506.482,447.179)">
                    <path d="M0.217,-0.348C0.238,-0.417 0.257,-0.491 0.275,-0.564L0.279,-0.564C0.298,-0.492 0.317,-0.417 0.338,-0.348L0.361,-0.268L0.194,-0.268L0.217,-0.348ZM-0.002,-0L0.116,-0L0.167,-0.177L0.387,-0.177L0.438,-0L0.56,-0L0.347,-0.654L0.211,-0.654L-0.002,-0Z" style="fill-rule:nonzero;"/>
                </g>
                <g transform="matrix(72,0,0,72,546.658,447.179)">
                    <path d="M0.073,-0L0.188,-0L0.188,-0.343C0.229,-0.383 0.257,-0.404 0.3,-0.404C0.354,-0.404 0.377,-0.374 0.377,-0.293L0.377,-0L0.492,-0L0.492,-0.308C0.492,-0.432 0.446,-0.503 0.341,-0.503C0.274,-0.503 0.224,-0.468 0.18,-0.425L0.176,-0.425L0.168,-0.491L0.073,-0.491L0.073,-0Z" style="fill-rule:nonzero;"/>
                </g>
                <g transform="matrix(72,0,0,72,586.978,447.179)">
                    <path d="M0.192,0.012C0.25,0.012 0.298,-0.016 0.344,-0.054L0.348,-0.054L0.356,-0L0.451,-0L0.451,-0.29C0.451,-0.428 0.39,-0.503 0.268,-0.503C0.19,-0.503 0.12,-0.474 0.066,-0.44L0.108,-0.362C0.152,-0.388 0.198,-0.408 0.246,-0.408C0.312,-0.408 0.334,-0.366 0.336,-0.316C0.134,-0.294 0.046,-0.242 0.046,-0.132C0.046,-0.046 0.106,0.012 0.192,0.012ZM0.228,-0.082C0.188,-0.082 0.158,-0.098 0.158,-0.14C0.158,-0.19 0.202,-0.22 0.336,-0.236L0.336,-0.132C0.3,-0.098 0.268,-0.082 0.228,-0.082Z" style="fill-rule:nonzero;"/>
                </g>
                <g transform="matrix(72,0,0,72,624.13,447.179)">
                    <path d="M0.185,0.01C0.212,0.01 0.232,0.006 0.246,-0L0.231,-0.086C0.223,-0.084 0.219,-0.084 0.214,-0.084C0.201,-0.084 0.188,-0.093 0.188,-0.122L0.188,-0.706L0.073,-0.706L0.073,-0.128C0.073,-0.042 0.103,0.01 0.185,0.01Z" style="fill-rule:nonzero;"/>
                </g>
                <g transform="matrix(72,0,0,72,643.642,447.179)">
                    <path d="M0.106,0.202C0.213,0.202 0.264,0.133 0.305,0.022L0.483,-0.491L0.372,-0.491L0.298,-0.25C0.286,-0.206 0.273,-0.157 0.261,-0.112L0.257,-0.112C0.242,-0.158 0.228,-0.207 0.214,-0.25L0.129,-0.491L0.012,-0.491L0.205,-0.006L0.196,0.025C0.18,0.074 0.15,0.109 0.098,0.109C0.087,0.109 0.077,0.108 0.064,0.104L0.042,0.19C0.06,0.198 0.079,0.202 0.106,0.202Z" style="fill-rule:nonzero;"/>
                </g>
                <g transform="matrix(72,0,0,72,679.282,447.179)">
                    <path d="M0.21,0.012C0.334,0.012 0.401,-0.056 0.401,-0.14C0.401,-0.226 0.334,-0.264 0.258,-0.29C0.196,-0.311 0.16,-0.326 0.16,-0.362C0.16,-0.392 0.183,-0.416 0.233,-0.416C0.272,-0.416 0.308,-0.404 0.343,-0.379L0.394,-0.444C0.354,-0.478 0.297,-0.503 0.23,-0.503C0.12,-0.503 0.052,-0.442 0.052,-0.356C0.052,-0.278 0.118,-0.238 0.189,-0.212C0.243,-0.192 0.292,-0.175 0.292,-0.134C0.292,-0.1 0.267,-0.075 0.214,-0.075C0.163,-0.075 0.118,-0.09 0.075,-0.126L0.024,-0.06C0.072,-0.014 0.142,0.012 0.21,0.012Z" style="fill-rule:nonzero;"/>
                </g>
                <g transform="matrix(72,0,0,72,710.314,447.179)">
                    <path d="M0.27,-0.412C0.336,-0.412 0.368,-0.368 0.368,-0.298L0.158,-0.298C0.172,-0.385 0.222,-0.412 0.27,-0.412ZM0.284,0.012C0.346,0.012 0.406,-0.008 0.452,-0.04L0.412,-0.114C0.378,-0.092 0.34,-0.08 0.298,-0.08C0.23,-0.08 0.169,-0.12 0.156,-0.21L0.464,-0.21C0.468,-0.228 0.47,-0.248 0.47,-0.27C0.47,-0.406 0.402,-0.503 0.268,-0.503C0.152,-0.503 0.04,-0.406 0.04,-0.246C0.04,-0.082 0.146,0.012 0.284,0.012Z" style="fill-rule:nonzero;"/>
                </g>
            </g>
            <g transform="matrix(1,0,0,1,1643.96,435.762)">
                <g transform="matrix(72,0,0,72,502.486,375.179)">
                    <path d="M0.083,-0L0.264,-0C0.458,-0 0.576,-0.113 0.576,-0.33C0.576,-0.546 0.458,-0.654 0.258,-0.654L0.083,-0.654L0.083,-0ZM0.199,-0.094L0.199,-0.56L0.25,-0.56C0.382,-0.56 0.457,-0.49 0.457,-0.33C0.457,-0.169 0.382,-0.094 0.25,-0.094L0.199,-0.094Z" style="fill-rule:nonzero;"/>
                </g>
                <g transform="matrix(72,0,0,72,547.486,375.179)">
                    <path d="M0.27,-0.412C0.336,-0.412 0.368,-0.368 0.368,-0.298L0.158,-0.298C0.172,-0.385 0.222,-0.412 0.27,-0.412ZM0.284,0.012C0.346,0.012 0.406,-0.008 0.452,-0.04L0.412,-0.114C0.378,-0.092 0.34,-0.08 0.298,-0.08C0.23,-0.08 0.169,-0.12 0.156,-0.21L0.464,-0.21C0.468,-0.228 0.47,-0.248 0.47,-0.27C0.47,-0.406 0.402,-0.503 0.268,-0.503C0.152,-0.503 0.04,-0.406 0.04,-0.246C0.04,-0.082 0.146,0.012 0.284,0.012Z" style="fill-rule:nonzero;"/>
                </g>
                <g transform="matrix(72,0,0,72,583.99,375.179)">
                    <path d="M0.21,0.012C0.334,0.012 0.401,-0.056 0.401,-0.14C0.401,-0.226 0.334,-0.264 0.258,-0.29C0.196,-0.311 0.16,-0.326 0.16,-0.362C0.16,-0.392 0.183,-0.416 0.233,-0.416C0.272,-0.416 0.308,-0.404 0.343,-0.379L0.394,-0.444C0.354,-0.478 0.297,-0.503 0.23,-0.503C0.12,-0.503 0.052,-0.442 0.052,-0.356C0.052,-0.278 0.118,-0.238 0.189,-0.212C0.243,-0.192 0.292,-0.175 0.292,-0.134C0.292,-0.1 0.267,-0.075 0.214,-0.075C0.163,-0.075 0.118,-0.09 0.075,-0.126L0.024,-0.06C0.072,-0.014 0.142,0.012 0.21,0.012Z" style="fill-rule:nonzero;"/>
                </g>
                <g transform="matrix(72,0,0,72,615.022,375.179)">
                    <path d="M0.073,-0L0.188,-0L0.188,-0.491L0.073,-0.491L0.073,-0ZM0.13,-0.577C0.171,-0.577 0.199,-0.603 0.199,-0.643C0.199,-0.682 0.171,-0.708 0.13,-0.708C0.089,-0.708 0.061,-0.682 0.061,-0.643C0.061,-0.603 0.089,-0.577 0.13,-0.577Z" style="fill-rule:nonzero;"/>
                </g>
                <g transform="matrix(72,0,0,72,633.886,375.179)">
                    <path d="M0.244,0.217C0.404,0.217 0.506,0.141 0.506,0.044C0.506,-0.041 0.444,-0.077 0.326,-0.077L0.239,-0.077C0.179,-0.077 0.159,-0.094 0.159,-0.122C0.159,-0.144 0.168,-0.156 0.183,-0.169C0.205,-0.16 0.229,-0.156 0.25,-0.156C0.354,-0.156 0.436,-0.214 0.436,-0.322C0.436,-0.356 0.424,-0.382 0.406,-0.402L0.406,-0.406L0.498,-0.406L0.498,-0.491L0.322,-0.491C0.302,-0.498 0.277,-0.503 0.25,-0.503C0.147,-0.503 0.056,-0.44 0.056,-0.327C0.056,-0.269 0.087,-0.222 0.12,-0.197L0.12,-0.193C0.092,-0.173 0.066,-0.14 0.066,-0.102C0.066,-0.062 0.085,-0.036 0.11,-0.02L0.11,-0.016C0.065,0.012 0.04,0.048 0.04,0.089C0.04,0.175 0.127,0.217 0.244,0.217ZM0.25,-0.228C0.202,-0.228 0.164,-0.264 0.164,-0.327C0.164,-0.389 0.202,-0.424 0.25,-0.424C0.298,-0.424 0.335,-0.389 0.335,-0.327C0.335,-0.264 0.297,-0.228 0.25,-0.228ZM0.262,0.142C0.184,0.142 0.136,0.116 0.136,0.072C0.136,0.049 0.148,0.027 0.174,0.007C0.193,0.012 0.214,0.014 0.241,0.014L0.308,0.014C0.364,0.014 0.395,0.025 0.395,0.063C0.395,0.105 0.341,0.142 0.262,0.142Z" style="fill-rule:nonzero;"/>
                </g>
                <g transform="matrix(72,0,0,72,671.326,375.179)">
                    <path d="M0.073,-0L0.188,-0L0.188,-0.343C0.229,-0.383 0.257,-0.404 0.3,-0.404C0.354,-0.404 0.377,-0.374 0.377,-0.293L0.377,-0L0.492,-0L0.492,-0.308C0.492,-0.432 0.446,-0.503 0.341,-0.503C0.274,-0.503 0.224,-0.468 0.18,-0.425L0.176,-0.425L0.168,-0.491L0.073,-0.491L0.073,-0Z" style="fill-rule:nonzero;"/>
                </g>
                <g transform="matrix(72,0,0,72,726.046,375.179)">
                    <path d="M0.012,0.16L0.09,0.16L0.323,-0.71L0.245,-0.71L0.012,0.16Z" style="fill-rule:nonzero;"/>
                </g>
                <g transform="matrix(72,0,0,72,442.834,447.179)">
                    <path d="M0.083,-0L0.199,-0L0.199,-0.24L0.293,-0.24C0.434,-0.24 0.542,-0.307 0.542,-0.452C0.542,-0.604 0.434,-0.654 0.289,-0.654L0.083,-0.654L0.083,-0ZM0.199,-0.333L0.199,-0.561L0.28,-0.561C0.377,-0.561 0.428,-0.534 0.428,-0.452C0.428,-0.372 0.381,-0.333 0.284,-0.333L0.199,-0.333Z" style="fill-rule:nonzero;"/>
                </g>
                <g transform="matrix(72,0,0,72,484.738,447.179)">
                    <path d="M0.073,-0L0.188,-0L0.188,-0.3C0.218,-0.374 0.265,-0.401 0.304,-0.401C0.325,-0.401 0.336,-0.399 0.352,-0.395L0.375,-0.493C0.36,-0.5 0.344,-0.503 0.319,-0.503C0.266,-0.503 0.214,-0.468 0.18,-0.404L0.176,-0.404L0.168,-0.491L0.073,-0.491L0.073,-0Z" style="fill-rule:nonzero;"/>
                </g>
                <g transform="matrix(72,0,0,72,510.874,447.179)">
                    <path d="M0.274,0.012C0.397,0.012 0.508,-0.082 0.508,-0.245C0.508,-0.409 0.397,-0.503 0.274,-0.503C0.152,-0.503 0.041,-0.409 0.041,-0.245C0.041,-0.082 0.152,0.012 0.274,0.012ZM0.274,-0.082C0.202,-0.082 0.159,-0.147 0.159,-0.245C0.159,-0.344 0.202,-0.409 0.274,-0.409C0.346,-0.409 0.39,-0.344 0.39,-0.245C0.39,-0.147 0.346,-0.082 0.274,-0.082Z" style="fill-rule:nonzero;"/>
                </g>
                <g transform="matrix(72,0,0,72,548.818,447.179)">
                    <path d="M0.246,0.01C0.286,0.01 0.321,0.001 0.347,-0.01L0.326,-0.091C0.31,-0.084 0.292,-0.081 0.275,-0.081C0.228,-0.081 0.206,-0.11 0.206,-0.167L0.206,-0.4L0.331,-0.4L0.331,-0.491L0.206,-0.491L0.206,-0.645L0.11,-0.645L0.096,-0.491L0.02,-0.486L0.02,-0.4L0.09,-0.4L0.09,-0.167C0.09,-0.061 0.132,0.01 0.246,0.01Z" style="fill-rule:nonzero;"/>
                </g>
                <g transform="matrix(72,0,0,72,573.658,447.179)">
                    <path d="M0.274,0.012C0.397,0.012 0.508,-0.082 0.508,-0.245C0.508,-0.409 0.397,-0.503 0.274,-0.503C0.152,-0.503 0.041,-0.409 0.041,-0.245C0.041,-0.082 0.152,0.012 0.274,0.012ZM0.274,-0.082C0.202,-0.082 0.159,-0.147 0.159,-0.245C0.159,-0.344 0.202,-0.409 0.274,-0.409C0.346,-0.409 0.39,-0.344 0.39,-0.245C0.39,-0.147 0.346,-0.082 0.274,-0.082Z" style="fill-rule:nonzero;"/>
                </g>
                <g transform="matrix(72,0,0,72,611.602,447.179)">
                    <path d="M0.246,0.01C0.286,0.01 0.321,0.001 0.347,-0.01L0.326,-0.091C0.31,-0.084 0.292,-0.081 0.275,-0.081C0.228,-0.081 0.206,-0.11 0.206,-0.167L0.206,-0.4L0.331,-0.4L0.331,-0.491L0.206,-0.491L0.206,-0.645L0.11,-0.645L0.096,-0.491L0.02,-0.486L0.02,-0.4L0.09,-0.4L0.09,-0.167C0.09,-0.061 0.132,0.01 0.246,0.01Z" style="fill-rule:nonzero;"/>
                </g>
                <g transform="matrix(72,0,0,72,637.594,447.179)">
                    <path d="M0.106,0.202C0.213,0.202 0.264,0.133 0.305,0.022L0.483,-0.491L0.372,-0.491L0.298,-0.25C0.286,-0.206 0.273,-0.157 0.261,-0.112L0.257,-0.112C0.242,-0.158 0.228,-0.207 0.214,-0.25L0.129,-0.491L0.012,-0.491L0.205,-0.006L0.196,0.025C0.18,0.074 0.15,0.109 0.098,0.109C0.087,0.109 0.077,0.108 0.064,0.104L0.042,0.19C0.06,0.198 0.079,0.202 0.106,0.202Z" style="fill-rule:nonzero;"/>
                </g>
                <g transform="matrix(72,0,0,72,673.234,447.179)">
                    <path d="M0.073,0.194L0.188,0.194L0.188,0.04L0.185,-0.042C0.225,-0.008 0.268,0.012 0.311,0.012C0.42,0.012 0.521,-0.085 0.521,-0.253C0.521,-0.405 0.45,-0.503 0.328,-0.503C0.274,-0.503 0.221,-0.474 0.18,-0.439L0.176,-0.439L0.168,-0.491L0.073,-0.491L0.073,0.194ZM0.287,-0.083C0.258,-0.083 0.224,-0.094 0.188,-0.124L0.188,-0.353C0.226,-0.39 0.26,-0.408 0.296,-0.408C0.37,-0.408 0.402,-0.35 0.402,-0.252C0.402,-0.141 0.352,-0.083 0.287,-0.083Z" style="fill-rule:nonzero;"/>
                </g>
                <g transform="matrix(72,0,0,72,713.842,447.179)">
                    <path d="M0.073,-0L0.188,-0L0.188,-0.491L0.073,-0.491L0.073,-0ZM0.13,-0.577C0.171,-0.577 0.199,-0.603 0.199,-0.643C0.199,-0.682 0.171,-0.708 0.13,-0.708C0.089,-0.708 0.061,-0.682 0.061,-0.643C0.061,-0.603 0.089,-0.577 0.13,-0.577Z" style="fill-rule:nonzero;"/>
                </g>
                <g transform="matrix(72,0,0,72,732.706,447.179)">
                    <path d="M0.073,-0L0.188,-0L0.188,-0.343C0.229,-0.383 0.257,-0.404 0.3,-0.404C0.354,-0.404 0.377,-0.374 0.377,-0.293L0.377,-0L0.492,-0L0.492,-0.308C0.492,-0.432 0.446,-0.503 0.341,-0.503C0.274,-0.503 0.224,-0.468 0.18,-0.425L0.176,-0.425L0.168,-0.491L0.073,-0.491L0.073,-0Z" style="fill-rule:nonzero;"/>
                </g>
                <g transform="matrix(72,0,0,72,773.026,447.179)">
                    <path d="M0.244,0.217C0.404,0.217 0.506,0.141 0.506,0.044C0.506,-0.041 0.444,-0.077 0.326,-0.077L0.239,-0.077C0.179,-0.077 0.159,-0.094 0.159,-0.122C0.159,-0.144 0.168,-0.156 0.183,-0.169C0.205,-0.16 0.229,-0.156 0.25,-0.156C0.354,-0.156 0.436,-0.214 0.436,-0.322C0.436,-0.356 0.424,-0.382 0.406,-0.402L0.406,-0.406L0.498,-0.406L0.498,-0.491L0.322,-0.491C0.302,-0.498 0.277,-0.503 0.25,-0.503C0.147,-0.503 0.056,-0.44 0.056,-0.327C0.056,-0.269 0.087,-0.222 0.12,-0.197L0.12,-0.193C0.092,-0.173 0.066,-0.14 0.066,-0.102C0.066,-0.062 0.085,-0.036 0.11,-0.02L0.11,-0.016C0.065,0.012 0.04,0.048 0.04,0.089C0.04,0.175 0.127,0.217 0.244,0.217ZM0.25,-0.228C0.202,-0.228 0.164,-0.264 0.164,-0.327C0.164,-0.389 0.202,-0.424 0.25,-0.424C0.298,-0.424 0.335,-0.389 0.335,-0.327C0.335,-0.264 0.297,-0.228 0.25,-0.228ZM0.262,0.142C0.184,0.142 0.136,0.116 0.136,0.072C0.136,0.049 0.148,0.027 0.174,0.007C0.193,0.012 0.214,0.014 0.241,0.014L0.308,0.014C0.364,0.014 0.395,0.025 0.395,0.063C0.395,0.105 0.341,0.142 0.262,0.142Z" style="fill-rule:nonzero;"/>
                </g>
            </g>
            <g transform="matrix(1,0,0,1,1576.72,893.406)">
                <g transform="matrix(72,0,0,72,356.074,375.179)">
                    <rect x="0.083" y="-0.654" width="0.116" height="0.654" style="fill-rule:nonzero;"/>
                </g>
                <g transform="matrix(72,0,0,72,376.378,375.179)">
                    <path d="M0.073,-0L0.188,-0L0.188,-0.343C0.226,-0.384 0.261,-0.404 0.291,-0.404C0.343,-0.404 0.367,-0.374 0.367,-0.293L0.367,-0L0.482,-0L0.482,-0.343C0.52,-0.384 0.554,-0.404 0.585,-0.404C0.636,-0.404 0.66,-0.374 0.66,-0.293L0.66,-0L0.776,-0L0.776,-0.308C0.776,-0.432 0.728,-0.503 0.624,-0.503C0.562,-0.503 0.513,-0.465 0.466,-0.415C0.443,-0.47 0.402,-0.503 0.33,-0.503C0.269,-0.503 0.221,-0.468 0.18,-0.424L0.176,-0.424L0.168,-0.491L0.073,-0.491L0.073,-0Z" style="fill-rule:nonzero;"/>
                </g>
                <g transform="matrix(72,0,0,72,437.074,375.179)">
                    <path d="M0.073,0.194L0.188,0.194L0.188,0.04L0.185,-0.042C0.225,-0.008 0.268,0.012 0.311,0.012C0.42,0.012 0.521,-0.085 0.521,-0.253C0.521,-0.405 0.45,-0.503 0.328,-0.503C0.274,-0.503 0.221,-0.474 0.18,-0.439L0.176,-0.439L0.168,-0.491L0.073,-0.491L0.073,0.194ZM0.287,-0.083C0.258,-0.083 0.224,-0.094 0.188,-0.124L0.188,-0.353C0.226,-0.39 0.26,-0.408 0.296,-0.408C0.37,-0.408 0.402,-0.35 0.402,-0.252C0.402,-0.141 0.352,-0.083 0.287,-0.083Z" style="fill-rule:nonzero;"/>
                </g>
                <g transform="matrix(72,0,0,72,477.682,375.179)">
                    <path d="M0.185,0.01C0.212,0.01 0.232,0.006 0.246,-0L0.231,-0.086C0.223,-0.084 0.219,-0.084 0.214,-0.084C0.201,-0.084 0.188,-0.093 0.188,-0.122L0.188,-0.706L0.073,-0.706L0.073,-0.128C0.073,-0.042 0.103,0.01 0.185,0.01Z" style="fill-rule:nonzero;"/>
                </g>
                <g transform="matrix(72,0,0,72,497.194,375.179)">
                    <path d="M0.27,-0.412C0.336,-0.412 0.368,-0.368 0.368,-0.298L0.158,-0.298C0.172,-0.385 0.222,-0.412 0.27,-0.412ZM0.284,0.012C0.346,0.012 0.406,-0.008 0.452,-0.04L0.412,-0.114C0.378,-0.092 0.34,-0.08 0.298,-0.08C0.23,-0.08 0.169,-0.12 0.156,-0.21L0.464,-0.21C0.468,-0.228 0.47,-0.248 0.47,-0.27C0.47,-0.406 0.402,-0.503 0.268,-0.503C0.152,-0.503 0.04,-0.406 0.04,-0.246C0.04,-0.082 0.146,0.012 0.284,0.012Z" style="fill-rule:nonzero;"/>
                </g>
                <g transform="matrix(72,0,0,72,533.698,375.179)">
                    <path d="M0.073,-0L0.188,-0L0.188,-0.343C0.226,-0.384 0.261,-0.404 0.291,-0.404C0.343,-0.404 0.367,-0.374 0.367,-0.293L0.367,-0L0.482,-0L0.482,-0.343C0.52,-0.384 0.554,-0.404 0.585,-0.404C0.636,-0.404 0.66,-0.374 0.66,-0.293L0.66,-0L0.776,-0L0.776,-0.308C0.776,-0.432 0.728,-0.503 0.624,-0.503C0.562,-0.503 0.513,-0.465 0.466,-0.415C0.443,-0.47 0.402,-0.503 0.33,-0.503C0.269,-0.503 0.221,-0.468 0.18,-0.424L0.176,-0.424L0.168,-0.491L0.073,-0.491L0.073,-0Z" style="fill-rule:nonzero;"/>
                </g>
                <g transform="matrix(72,0,0,72,594.394,375.179)">
                    <path d="M0.27,-0.412C0.336,-0.412 0.368,-0.368 0.368,-0.298L0.158,-0.298C0.172,-0.385 0.222,-0.412 0.27,-0.412ZM0.284,0.012C0.346,0.012 0.406,-0.008 0.452,-0.04L0.412,-0.114C0.378,-0.092 0.34,-0.08 0.298,-0.08C0.23,-0.08 0.169,-0.12 0.156,-0.21L0.464,-0.21C0.468,-0.228 0.47,-0.248 0.47,-0.27C0.47,-0.406 0.402,-0.503 0.268,-0.503C0.152,-0.503 0.04,-0.406 0.04,-0.246C0.04,-0.082 0.146,0.012 0.284,0.012Z" style="fill-rule:nonzero;"/>
                </g>
                <g transform="matrix(72,0,0,72,630.898,375.179)">
                    <path d="M0.073,-0L0.188,-0L0.188,-0.343C0.229,-0.383 0.257,-0.404 0.3,-0.404C0.354,-0.404 0.377,-0.374 0.377,-0.293L0.377,-0L0.492,-0L0.492,-0.308C0.492,-0.432 0.446,-0.503 0.341,-0.503C0.274,-0.503 0.224,-0.468 0.18,-0.425L0.176,-0.425L0.168,-0.491L0.073,-0.491L0.073,-0Z" style="fill-rule:nonzero;"/>
                </g>
                <g transform="matrix(72,0,0,72,671.218,375.179)">
                    <path d="M0.246,0.01C0.286,0.01 0.321,0.001 0.347,-0.01L0.326,-0.091C0.31,-0.084 0.292,-0.081 0.275,-0.081C0.228,-0.081 0.206,-0.11 0.206,-0.167L0.206,-0.4L0.331,-0.4L0.331,-0.491L0.206,-0.491L0.206,-0.645L0.11,-0.645L0.096,-0.491L0.02,-0.486L0.02,-0.4L0.09,-0.4L0.09,-0.167C0.09,-0.061 0.132,0.01 0.246,0.01Z" style="fill-rule:nonzero;"/>
                </g>
                <g transform="matrix(72,0,0,72,697.21,375.179)">
                    <path d="M0.073,-0L0.188,-0L0.188,-0.491L0.073,-0.491L0.073,-0ZM0.13,-0.577C0.171,-0.577 0.199,-0.603 0.199,-0.643C0.199,-0.682 0.171,-0.708 0.13,-0.708C0.089,-0.708 0.061,-0.682 0.061,-0.643C0.061,-0.603 0.089,-0.577 0.13,-0.577Z" style="fill-rule:nonzero;"/>
                </g>
                <g transform="matrix(72,0,0,72,716.074,375.179)">
                    <path d="M0.27,-0.412C0.336,-0.412 0.368,-0.368 0.368,-0.298L0.158,-0.298C0.172,-0.385 0.222,-0.412 0.27,-0.412ZM0.284,0.012C0.346,0.012 0.406,-0.008 0.452,-0.04L0.412,-0.114C0.378,-0.092 0.34,-0.08 0.298,-0.08C0.23,-0.08 0.169,-0.12 0.156,-0.21L0.464,-0.21C0.468,-0.228 0.47,-0.248 0.47,-0.27C0.47,-0.406 0.402,-0.503 0.268,-0.503C0.152,-0.503 0.04,-0.406 0.04,-0.246C0.04,-0.082 0.146,0.012 0.284,0.012Z" style="fill-rule:nonzero;"/>
                </g>
                <g transform="matrix(72,0,0,72,752.578,375.179)">
                    <path d="M0.073,-0L0.188,-0L0.188,-0.3C0.218,-0.374 0.265,-0.401 0.304,-0.401C0.325,-0.401 0.336,-0.399 0.352,-0.395L0.375,-0.493C0.36,-0.5 0.344,-0.503 0.319,-0.503C0.266,-0.503 0.214,-0.468 0.18,-0.404L0.176,-0.404L0.168,-0.491L0.073,-0.491L0.073,-0Z" style="fill-rule:nonzero;"/>
                </g>
                <g transform="matrix(72,0,0,72,779.434,375.179)">
                    <path d="M0.219,0.012C0.286,0.012 0.334,-0.021 0.377,-0.072L0.38,-0.072L0.389,-0L0.483,-0L0.483,-0.491L0.368,-0.491L0.368,-0.155C0.331,-0.107 0.302,-0.087 0.259,-0.087C0.206,-0.087 0.183,-0.117 0.183,-0.198L0.183,-0.491L0.068,-0.491L0.068,-0.183C0.068,-0.059 0.114,0.012 0.219,0.012Z" style="fill-rule:nonzero;"/>
                </g>
                <g transform="matrix(72,0,0,72,819.466,375.179)">
                    <path d="M0.073,-0L0.188,-0L0.188,-0.343C0.229,-0.383 0.257,-0.404 0.3,-0.404C0.354,-0.404 0.377,-0.374 0.377,-0.293L0.377,-0L0.492,-0L0.492,-0.308C0.492,-0.432 0.446,-0.503 0.341,-0.503C0.274,-0.503 0.224,-0.468 0.18,-0.425L0.176,-0.425L0.168,-0.491L0.073,-0.491L0.073,-0Z" style="fill-rule:nonzero;"/>
                </g>
                <g transform="matrix(72,0,0,72,859.786,375.179)">
                    <path d="M0.244,0.217C0.404,0.217 0.506,0.141 0.506,0.044C0.506,-0.041 0.444,-0.077 0.326,-0.077L0.239,-0.077C0.179,-0.077 0.159,-0.094 0.159,-0.122C0.159,-0.144 0.168,-0.156 0.183,-0.169C0.205,-0.16 0.229,-0.156 0.25,-0.156C0.354,-0.156 0.436,-0.214 0.436,-0.322C0.436,-0.356 0.424,-0.382 0.406,-0.402L0.406,-0.406L0.498,-0.406L0.498,-0.491L0.322,-0.491C0.302,-0.498 0.277,-0.503 0.25,-0.503C0.147,-0.503 0.056,-0.44 0.056,-0.327C0.056,-0.269 0.087,-0.222 0.12,-0.197L0.12,-0.193C0.092,-0.173 0.066,-0.14 0.066,-0.102C0.066,-0.062 0.085,-0.036 0.11,-0.02L0.11,-0.016C0.065,0.012 0.04,0.048 0.04,0.089C0.04,0.175 0.127,0.217 0.244,0.217ZM0.25,-0.228C0.202,-0.228 0.164,-0.264 0.164,-0.327C0.164,-0.389 0.202,-0.424 0.25,-0.424C0.298,-0.424 0.335,-0.389 0.335,-0.327C0.335,-0.264 0.297,-0.228 0.25,-0.228ZM0.262,0.142C0.184,0.142 0.136,0.116 0.136,0.072C0.136,0.049 0.148,0.027 0.174,0.007C0.193,0.012 0.214,0.014 0.241,0.014L0.308,0.014C0.364,0.014 0.395,0.025 0.395,0.063C0.395,0.105 0.341,0.142 0.262,0.142Z" style="fill-rule:nonzero;"/>
                </g>
            </g>
            <g transform="matrix(1,0,0,1,1124.78,1171.2)">
                <g transform="matrix(72,0,0,72,533.302,375.179)">
                    <path d="M0.215,-0L0.331,-0L0.331,-0.556L0.52,-0.556L0.52,-0.654L0.026,-0.654L0.026,-0.556L0.215,-0.556L0.215,-0Z" style="fill-rule:nonzero;"/>
                </g>
                <g transform="matrix(72,0,0,72,567.502,375.179)">
                    <path d="M0.27,-0.412C0.336,-0.412 0.368,-0.368 0.368,-0.298L0.158,-0.298C0.172,-0.385 0.222,-0.412 0.27,-0.412ZM0.284,0.012C0.346,0.012 0.406,-0.008 0.452,-0.04L0.412,-0.114C0.378,-0.092 0.34,-0.08 0.298,-0.08C0.23,-0.08 0.169,-0.12 0.156,-0.21L0.464,-0.21C0.468,-0.228 0.47,-0.248 0.47,-0.27C0.47,-0.406 0.402,-0.503 0.268,-0.503C0.152,-0.503 0.04,-0.406 0.04,-0.246C0.04,-0.082 0.146,0.012 0.284,0.012Z" style="fill-rule:nonzero;"/>
                </g>
                <g transform="matrix(72,0,0,72,604.006,375.179)">
                    <path d="M0.21,0.012C0.334,0.012 0.401,-0.056 0.401,-0.14C0.401,-0.226 0.334,-0.264 0.258,-0.29C0.196,-0.311 0.16,-0.326 0.16,-0.362C0.16,-0.392 0.183,-0.416 0.233,-0.416C0.272,-0.416 0.308,-0.404 0.343,-0.379L0.394,-0.444C0.354,-0.478 0.297,-0.503 0.23,-0.503C0.12,-0.503 0.052,-0.442 0.052,-0.356C0.052,-0.278 0.118,-0.238 0.189,-0.212C0.243,-0.192 0.292,-0.175 0.292,-0.134C0.292,-0.1 0.267,-0.075 0.214,-0.075C0.163,-0.075 0.118,-0.09 0.075,-0.126L0.024,-0.06C0.072,-0.014 0.142,0.012 0.21,0.012Z" style="fill-rule:nonzero;"/>
                </g>
                <g transform="matrix(72,0,0,72,633.598,375.179)">
                    <path d="M0.246,0.01C0.286,0.01 0.321,0.001 0.347,-0.01L0.326,-0.091C0.31,-0.084 0.292,-0.081 0.275,-0.081C0.228,-0.081 0.206,-0.11 0.206,-0.167L0.206,-0.4L0.331,-0.4L0.331,-0.491L0.206,-0.491L0.206,-0.645L0.11,-0.645L0.096,-0.491L0.02,-0.486L0.02,-0.4L0.09,-0.4L0.09,-0.167C0.09,-0.061 0.132,0.01 0.246,0.01Z" style="fill-rule:nonzero;"/>
                </g>
                <g transform="matrix(72,0,0,72,673.99,375.179)">
                    <path d="M0.208,-0.504C0.208,-0.554 0.237,-0.588 0.277,-0.588C0.315,-0.588 0.33,-0.561 0.33,-0.526C0.33,-0.475 0.287,-0.442 0.234,-0.408C0.217,-0.441 0.208,-0.474 0.208,-0.504ZM0.243,0.012C0.324,0.012 0.385,-0.015 0.435,-0.058C0.489,-0.023 0.543,-0 0.593,0.012L0.622,-0.082C0.592,-0.09 0.548,-0.107 0.504,-0.133C0.555,-0.202 0.593,-0.279 0.616,-0.361L0.51,-0.361C0.492,-0.293 0.463,-0.235 0.427,-0.188C0.372,-0.231 0.318,-0.283 0.278,-0.337C0.349,-0.387 0.42,-0.441 0.42,-0.527C0.42,-0.61 0.365,-0.666 0.276,-0.666C0.176,-0.666 0.111,-0.593 0.111,-0.503C0.111,-0.458 0.126,-0.409 0.153,-0.359C0.087,-0.315 0.028,-0.262 0.028,-0.172C0.028,-0.061 0.114,0.012 0.243,0.012ZM0.138,-0.179C0.138,-0.219 0.164,-0.251 0.201,-0.281C0.243,-0.222 0.298,-0.165 0.356,-0.116C0.323,-0.092 0.287,-0.077 0.251,-0.077C0.189,-0.077 0.138,-0.113 0.138,-0.179Z" style="fill-rule:nonzero;"/>
                </g>
                <g transform="matrix(72,0,0,72,454.462,447.179)">
                    <rect x="0.083" y="-0.654" width="0.116" height="0.654" style="fill-rule:nonzero;"/>
                </g>
                <g transform="matrix(72,0,0,72,474.766,447.179)">
                    <path d="M0.073,-0L0.188,-0L0.188,-0.343C0.229,-0.383 0.257,-0.404 0.3,-0.404C0.354,-0.404 0.377,-0.374 0.377,-0.293L0.377,-0L0.492,-0L0.492,-0.308C0.492,-0.432 0.446,-0.503 0.341,-0.503C0.274,-0.503 0.224,-0.468 0.18,-0.425L0.176,-0.425L0.168,-0.491L0.073,-0.491L0.073,-0Z" style="fill-rule:nonzero;"/>
                </g>
                <g transform="matrix(72,0,0,72,515.086,447.179)">
                    <path d="M0.246,0.01C0.286,0.01 0.321,0.001 0.347,-0.01L0.326,-0.091C0.31,-0.084 0.292,-0.081 0.275,-0.081C0.228,-0.081 0.206,-0.11 0.206,-0.167L0.206,-0.4L0.331,-0.4L0.331,-0.491L0.206,-0.491L0.206,-0.645L0.11,-0.645L0.096,-0.491L0.02,-0.486L0.02,-0.4L0.09,-0.4L0.09,-0.167C0.09,-0.061 0.132,0.01 0.246,0.01Z" style="fill-rule:nonzero;"/>
                </g>
                <g transform="matrix(72,0,0,72,539.926,447.179)">
                    <path d="M0.27,-0.412C0.336,-0.412 0.368,-0.368 0.368,-0.298L0.158,-0.298C0.172,-0.385 0.222,-0.412 0.27,-0.412ZM0.284,0.012C0.346,0.012 0.406,-0.008 0.452,-0.04L0.412,-0.114C0.378,-0.092 0.34,-0.08 0.298,-0.08C0.23,-0.08 0.169,-0.12 0.156,-0.21L0.464,-0.21C0.468,-0.228 0.47,-0.248 0.47,-0.27C0.47,-0.406 0.402,-0.503 0.268,-0.503C0.152,-0.503 0.04,-0.406 0.04,-0.246C0.04,-0.082 0.146,0.012 0.284,0.012Z" style="fill-rule:nonzero;"/>
                </g>
                <g transform="matrix(72,0,0,72,575.71,447.179)">
                    <path d="M0.244,0.217C0.404,0.217 0.506,0.141 0.506,0.044C0.506,-0.041 0.444,-0.077 0.326,-0.077L0.239,-0.077C0.179,-0.077 0.159,-0.094 0.159,-0.122C0.159,-0.144 0.168,-0.156 0.183,-0.169C0.205,-0.16 0.229,-0.156 0.25,-0.156C0.354,-0.156 0.436,-0.214 0.436,-0.322C0.436,-0.356 0.424,-0.382 0.406,-0.402L0.406,-0.406L0.498,-0.406L0.498,-0.491L0.322,-0.491C0.302,-0.498 0.277,-0.503 0.25,-0.503C0.147,-0.503 0.056,-0.44 0.056,-0.327C0.056,-0.269 0.087,-0.222 0.12,-0.197L0.12,-0.193C0.092,-0.173 0.066,-0.14 0.066,-0.102C0.066,-0.062 0.085,-0.036 0.11,-0.02L0.11,-0.016C0.065,0.012 0.04,0.048 0.04,0.089C0.04,0.175 0.127,0.217 0.244,0.217ZM0.25,-0.228C0.202,-0.228 0.164,-0.264 0.164,-0.327C0.164,-0.389 0.202,-0.424 0.25,-0.424C0.298,-0.424 0.335,-0.389 0.335,-0.327C0.335,-0.264 0.297,-0.228 0.25,-0.228ZM0.262,0.142C0.184,0.142 0.136,0.116 0.136,0.072C0.136,0.049 0.148,0.027 0.174,0.007C0.193,0.012 0.214,0.014 0.241,0.014L0.308,0.014C0.364,0.014 0.395,0.025 0.395,0.063C0.395,0.105 0.341,0.142 0.262,0.142Z" style="fill-rule:nonzero;"/>
                </g>
                <g transform="matrix(72,0,0,72,613.15,447.179)">
                    <path d="M0.073,-0L0.188,-0L0.188,-0.3C0.218,-0.374 0.265,-0.401 0.304,-0.401C0.325,-0.401 0.336,-0.399 0.352,-0.395L0.375,-0.493C0.36,-0.5 0.344,-0.503 0.319,-0.503C0.266,-0.503 0.214,-0.468 0.18,-0.404L0.176,-0.404L0.168,-0.491L0.073,-0.491L0.073,-0Z" style="fill-rule:nonzero;"/>
                </g>
                <g transform="matrix(72,0,0,72,638.134,447.179)">
                    <path d="M0.192,0.012C0.25,0.012 0.298,-0.016 0.344,-0.054L0.348,-0.054L0.356,-0L0.451,-0L0.451,-0.29C0.451,-0.428 0.39,-0.503 0.268,-0.503C0.19,-0.503 0.12,-0.474 0.066,-0.44L0.108,-0.362C0.152,-0.388 0.198,-0.408 0.246,-0.408C0.312,-0.408 0.334,-0.366 0.336,-0.316C0.134,-0.294 0.046,-0.242 0.046,-0.132C0.046,-0.046 0.106,0.012 0.192,0.012ZM0.228,-0.082C0.188,-0.082 0.158,-0.098 0.158,-0.14C0.158,-0.19 0.202,-0.22 0.336,-0.236L0.336,-0.132C0.3,-0.098 0.268,-0.082 0.228,-0.082Z" style="fill-rule:nonzero;"/>
                </g>
                <g transform="matrix(72,0,0,72,674.134,447.179)">
                    <path d="M0.246,0.01C0.286,0.01 0.321,0.001 0.347,-0.01L0.326,-0.091C0.31,-0.084 0.292,-0.081 0.275,-0.081C0.228,-0.081 0.206,-0.11 0.206,-0.167L0.206,-0.4L0.331,-0.4L0.331,-0.491L0.206,-0.491L0.206,-0.645L0.11,-0.645L0.096,-0.491L0.02,-0.486L0.02,-0.4L0.09,-0.4L0.09,-0.167C0.09,-0.061 0.132,0.01 0.246,0.01Z" style="fill-rule:nonzero;"/>
                </g>
                <g transform="matrix(72,0,0,72,700.126,447.179)">
                    <path d="M0.073,-0L0.188,-0L0.188,-0.491L0.073,-0.491L0.073,-0ZM0.13,-0.577C0.171,-0.577 0.199,-0.603 0.199,-0.643C0.199,-0.682 0.171,-0.708 0.13,-0.708C0.089,-0.708 0.061,-0.682 0.061,-0.643C0.061,-0.603 0.089,-0.577 0.13,-0.577Z" style="fill-rule:nonzero;"/>
                </g>
                <g transform="matrix(72,0,0,72,718.99,447.179)">
                    <path d="M0.274,0.012C0.397,0.012 0.508,-0.082 0.508,-0.245C0.508,-0.409 0.397,-0.503 0.274,-0.503C0.152,-0.503 0.041,-0.409 0.041,-0.245C0.041,-0.082 0.152,0.012 0.274,0.012ZM0.274,-0.082C0.202,-0.082 0.159,-0.147 0.159,-0.245C0.159,-0.344 0.202,-0.409 0.274,-0.409C0.346,-0.409 0.39,-0.344 0.39,-0.245C0.39,-0.147 0.346,-0.082 0.274,-0.082Z" style="fill-rule:nonzero;"/>
                </g>
                <g transform="matrix(72,0,0,72,758.518,447.179)">
                    <path d="M0.073,-0L0.188,-0L0.188,-0.343C0.229,-0.383 0.257,-0.404 0.3,-0.404C0.354,-0.404 0.377,-0.374 0.377,-0.293L0.377,-0L0.492,-0L0.492,-0.308C0.492,-0.432 0.446,-0.503 0.341,-0.503C0.274,-0.503 0.224,-0.468 0.18,-0.425L0.176,-0.425L0.168,-0.491L0.073,-0.491L0.073,-0Z" style="fill-rule:nonzero;"/>
                </g>
            </g>
            <g transform="matrix(1,0,0,1,669.318,893.406)">
                <g transform="matrix(72,0,0,72,494.458,375.179)">
                    <path d="M0.144,-0L0.298,-0L0.374,-0.344C0.385,-0.392 0.392,-0.442 0.398,-0.502L0.402,-0.502C0.41,-0.442 0.418,-0.392 0.428,-0.344L0.502,-0L0.656,-0L0.782,-0.654L0.664,-0.654L0.608,-0.324C0.598,-0.255 0.588,-0.186 0.58,-0.11L0.576,-0.11C0.564,-0.186 0.549,-0.256 0.534,-0.324L0.46,-0.654L0.346,-0.654L0.27,-0.324C0.255,-0.255 0.242,-0.186 0.23,-0.11L0.226,-0.11C0.218,-0.186 0.209,-0.254 0.198,-0.324L0.142,-0.654L0.018,-0.654L0.144,-0Z" style="fill-rule:nonzero;"/>
                </g>
                <g transform="matrix(72,0,0,72,551.05,375.179)">
                    <path d="M0.192,0.012C0.25,0.012 0.298,-0.016 0.344,-0.054L0.348,-0.054L0.356,-0L0.451,-0L0.451,-0.29C0.451,-0.428 0.39,-0.503 0.268,-0.503C0.19,-0.503 0.12,-0.474 0.066,-0.44L0.108,-0.362C0.152,-0.388 0.198,-0.408 0.246,-0.408C0.312,-0.408 0.334,-0.366 0.336,-0.316C0.134,-0.294 0.046,-0.242 0.046,-0.132C0.046,-0.046 0.106,0.012 0.192,0.012ZM0.228,-0.082C0.188,-0.082 0.158,-0.098 0.158,-0.14C0.158,-0.19 0.202,-0.22 0.336,-0.236L0.336,-0.132C0.3,-0.098 0.268,-0.082 0.228,-0.082Z" style="fill-rule:nonzero;"/>
                </g>
                <g transform="matrix(72,0,0,72,588.202,375.179)">
                    <path d="M0.073,-0L0.188,-0L0.188,-0.3C0.218,-0.374 0.265,-0.401 0.304,-0.401C0.325,-0.401 0.336,-0.399 0.352,-0.395L0.375,-0.493C0.36,-0.5 0.344,-0.503 0.319,-0.503C0.266,-0.503 0.214,-0.468 0.18,-0.404L0.176,-0.404L0.168,-0.491L0.073,-0.491L0.073,-0Z" style="fill-rule:nonzero;"/>
                </g>
                <g transform="matrix(72,0,0,72,615.058,375.179)">
                    <path d="M0.246,0.01C0.286,0.01 0.321,0.001 0.347,-0.01L0.326,-0.091C0.31,-0.084 0.292,-0.081 0.275,-0.081C0.228,-0.081 0.206,-0.11 0.206,-0.167L0.206,-0.4L0.331,-0.4L0.331,-0.491L0.206,-0.491L0.206,-0.645L0.11,-0.645L0.096,-0.491L0.02,-0.486L0.02,-0.4L0.09,-0.4L0.09,-0.167C0.09,-0.061 0.132,0.01 0.246,0.01Z" style="fill-rule:nonzero;"/>
                </g>
                <g transform="matrix(72,0,0,72,641.05,375.179)">
                    <path d="M0.219,0.012C0.286,0.012 0.334,-0.021 0.377,-0.072L0.38,-0.072L0.389,-0L0.483,-0L0.483,-0.491L0.368,-0.491L0.368,-0.155C0.331,-0.107 0.302,-0.087 0.259,-0.087C0.206,-0.087 0.183,-0.117 0.183,-0.198L0.183,-0.491L0.068,-0.491L0.068,-0.183C0.068,-0.059 0.114,0.012 0.219,0.012Z" style="fill-rule:nonzero;"/>
                </g>
                <g transform="matrix(72,0,0,72,681.082,375.179)">
                    <path d="M0.073,-0L0.188,-0L0.188,-0.343C0.229,-0.383 0.257,-0.404 0.3,-0.404C0.354,-0.404 0.377,-0.374 0.377,-0.293L0.377,-0L0.492,-0L0.492,-0.308C0.492,-0.432 0.446,-0.503 0.341,-0.503C0.274,-0.503 0.224,-0.468 0.18,-0.425L0.176,-0.425L0.168,-0.491L0.073,-0.491L0.073,-0Z" style="fill-rule:nonzero;"/>
                </g>
                <g transform="matrix(72,0,0,72,721.402,375.179)">
                    <path d="M0.244,0.217C0.404,0.217 0.506,0.141 0.506,0.044C0.506,-0.041 0.444,-0.077 0.326,-0.077L0.239,-0.077C0.179,-0.077 0.159,-0.094 0.159,-0.122C0.159,-0.144 0.168,-0.156 0.183,-0.169C0.205,-0.16 0.229,-0.156 0.25,-0.156C0.354,-0.156 0.436,-0.214 0.436,-0.322C0.436,-0.356 0.424,-0.382 0.406,-0.402L0.406,-0.406L0.498,-0.406L0.498,-0.491L0.322,-0.491C0.302,-0.498 0.277,-0.503 0.25,-0.503C0.147,-0.503 0.056,-0.44 0.056,-0.327C0.056,-0.269 0.087,-0.222 0.12,-0.197L0.12,-0.193C0.092,-0.173 0.066,-0.14 0.066,-0.102C0.066,-0.062 0.085,-0.036 0.11,-0.02L0.11,-0.016C0.065,0.012 0.04,0.048 0.04,0.089C0.04,0.175 0.127,0.217 0.244,0.217ZM0.25,-0.228C0.202,-0.228 0.164,-0.264 0.164,-0.327C0.164,-0.389 0.202,-0.424 0.25,-0.424C0.298,-0.424 0.335,-0.389 0.335,-0.327C0.335,-0.264 0.297,-0.228 0.25,-0.228ZM0.262,0.142C0.184,0.142 0.136,0.116 0.136,0.072C0.136,0.049 0.148,0.027 0.174,0.007C0.193,0.012 0.214,0.014 0.241,0.014L0.308,0.014C0.364,0.014 0.395,0.025 0.395,0.063C0.395,0.105 0.341,0.142 0.262,0.142Z" style="fill-rule:nonzero;"/>
                </g>
            </g>
            <g transform="matrix(1,0,0,1,721.515,438.39)">
                <g transform="matrix(72,0,0,72,482.506,375.179)">
                    <path d="M0.217,-0.348C0.238,-0.417 0.257,-0.491 0.275,-0.564L0.279,-0.564C0.298,-0.492 0.317,-0.417 0.338,-0.348L0.361,-0.268L0.194,-0.268L0.217,-0.348ZM-0.002,-0L0.116,-0L0.167,-0.177L0.387,-0.177L0.438,-0L0.56,-0L0.347,-0.654L0.211,-0.654L-0.002,-0Z" style="fill-rule:nonzero;"/>
                </g>
                <g transform="matrix(72,0,0,72,522.682,375.179)">
                    <path d="M0.311,0.012C0.42,0.012 0.521,-0.085 0.521,-0.254C0.521,-0.405 0.45,-0.503 0.327,-0.503C0.277,-0.503 0.226,-0.478 0.185,-0.442L0.188,-0.524L0.188,-0.706L0.073,-0.706L0.073,-0L0.164,-0L0.174,-0.052L0.177,-0.052C0.218,-0.011 0.266,0.012 0.311,0.012ZM0.287,-0.083C0.258,-0.083 0.223,-0.094 0.188,-0.124L0.188,-0.353C0.226,-0.39 0.26,-0.408 0.296,-0.408C0.37,-0.408 0.402,-0.35 0.402,-0.252C0.402,-0.141 0.352,-0.083 0.287,-0.083Z" style="fill-rule:nonzero;"/>
                </g>
                <g transform="matrix(72,0,0,72,563.218,375.179)">
                    <path d="M0.185,0.01C0.212,0.01 0.232,0.006 0.246,-0L0.231,-0.086C0.223,-0.084 0.219,-0.084 0.214,-0.084C0.201,-0.084 0.188,-0.093 0.188,-0.122L0.188,-0.706L0.073,-0.706L0.073,-0.128C0.073,-0.042 0.103,0.01 0.185,0.01Z" style="fill-rule:nonzero;"/>
                </g>
                <g transform="matrix(72,0,0,72,582.73,375.179)">
                    <path d="M0.274,0.012C0.397,0.012 0.508,-0.082 0.508,-0.245C0.508,-0.409 0.397,-0.503 0.274,-0.503C0.152,-0.503 0.041,-0.409 0.041,-0.245C0.041,-0.082 0.152,0.012 0.274,0.012ZM0.274,-0.082C0.202,-0.082 0.159,-0.147 0.159,-0.245C0.159,-0.344 0.202,-0.409 0.274,-0.409C0.346,-0.409 0.39,-0.344 0.39,-0.245C0.39,-0.147 0.346,-0.082 0.274,-0.082ZM0.171,-0.578C0.207,-0.578 0.232,-0.605 0.232,-0.639C0.232,-0.673 0.207,-0.7 0.171,-0.7C0.136,-0.7 0.11,-0.673 0.11,-0.639C0.11,-0.605 0.136,-0.578 0.171,-0.578ZM0.377,-0.578C0.412,-0.578 0.438,-0.605 0.438,-0.639C0.438,-0.673 0.412,-0.7 0.377,-0.7C0.341,-0.7 0.316,-0.673 0.316,-0.639C0.316,-0.605 0.341,-0.578 0.377,-0.578Z" style="fill-rule:nonzero;"/>
                </g>
                <g transform="matrix(72,0,0,72,621.97,375.179)">
                    <path d="M0.21,0.012C0.334,0.012 0.401,-0.056 0.401,-0.14C0.401,-0.226 0.334,-0.264 0.258,-0.29C0.196,-0.311 0.16,-0.326 0.16,-0.362C0.16,-0.392 0.183,-0.416 0.233,-0.416C0.272,-0.416 0.308,-0.404 0.343,-0.379L0.394,-0.444C0.354,-0.478 0.297,-0.503 0.23,-0.503C0.12,-0.503 0.052,-0.442 0.052,-0.356C0.052,-0.278 0.118,-0.238 0.189,-0.212C0.243,-0.192 0.292,-0.175 0.292,-0.134C0.292,-0.1 0.267,-0.075 0.214,-0.075C0.163,-0.075 0.118,-0.09 0.075,-0.126L0.024,-0.06C0.072,-0.014 0.142,0.012 0.21,0.012Z" style="fill-rule:nonzero;"/>
                </g>
                <g transform="matrix(72,0,0,72,653.002,375.179)">
                    <path d="M0.219,0.012C0.286,0.012 0.334,-0.021 0.377,-0.072L0.38,-0.072L0.389,-0L0.483,-0L0.483,-0.491L0.368,-0.491L0.368,-0.155C0.331,-0.107 0.302,-0.087 0.259,-0.087C0.206,-0.087 0.183,-0.117 0.183,-0.198L0.183,-0.491L0.068,-0.491L0.068,-0.183C0.068,-0.059 0.114,0.012 0.219,0.012Z" style="fill-rule:nonzero;"/>
                </g>
                <g transform="matrix(72,0,0,72,693.034,375.179)">
                    <path d="M0.073,-0L0.188,-0L0.188,-0.343C0.229,-0.383 0.257,-0.404 0.3,-0.404C0.354,-0.404 0.377,-0.374 0.377,-0.293L0.377,-0L0.492,-0L0.492,-0.308C0.492,-0.432 0.446,-0.503 0.341,-0.503C0.274,-0.503 0.224,-0.468 0.18,-0.425L0.176,-0.425L0.168,-0.491L0.073,-0.491L0.073,-0Z" style="fill-rule:nonzero;"/>
                </g>
                <g transform="matrix(72,0,0,72,733.354,375.179)">
                    <path d="M0.244,0.217C0.404,0.217 0.506,0.141 0.506,0.044C0.506,-0.041 0.444,-0.077 0.326,-0.077L0.239,-0.077C0.179,-0.077 0.159,-0.094 0.159,-0.122C0.159,-0.144 0.168,-0.156 0.183,-0.169C0.205,-0.16 0.229,-0.156 0.25,-0.156C0.354,-0.156 0.436,-0.214 0.436,-0.322C0.436,-0.356 0.424,-0.382 0.406,-0.402L0.406,-0.406L0.498,-0.406L0.498,-0.491L0.322,-0.491C0.302,-0.498 0.277,-0.503 0.25,-0.503C0.147,-0.503 0.056,-0.44 0.056,-0.327C0.056,-0.269 0.087,-0.222 0.12,-0.197L0.12,-0.193C0.092,-0.173 0.066,-0.14 0.066,-0.102C0.066,-0.062 0.085,-0.036 0.11,-0.02L0.11,-0.016C0.065,0.012 0.04,0.048 0.04,0.089C0.04,0.175 0.127,0.217 0.244,0.217ZM0.25,-0.228C0.202,-0.228 0.164,-0.264 0.164,-0.327C0.164,-0.389 0.202,-0.424 0.25,-0.424C0.298,-0.424 0.335,-0.389 0.335,-0.327C0.335,-0.264 0.297,-0.228 0.25,-0.228ZM0.262,0.142C0.184,0.142 0.136,0.116 0.136,0.072C0.136,0.049 0.148,0.027 0.174,0.007C0.193,0.012 0.214,0.014 0.241,0.014L0.308,0.014C0.364,0.014 0.395,0.025 0.395,0.063C0.395,0.105 0.341,0.142 0.262,0.142Z" style="fill-rule:nonzero;"/>
                </g>
            </g>
        </g>
    </g>
</svg>
