<?xml version="1.0" encoding="UTF-8"?>
<svg id="Ebene_1" data-name="Ebene 1" xmlns="http://www.w3.org/2000/svg" version="1.1" viewBox="0 0 716.84 246.11">
  <defs>
    <style>
      .cls-1 {
        stroke: #5a9ed6;
      }

      .cls-1, .cls-2 {
        fill: none;
      }

      .cls-1, .cls-2, .cls-3 {
        stroke-miterlimit: 8;
      }

      .cls-4, .cls-5, .cls-6, .cls-7, .cls-8, .cls-9 {
        stroke-width: 0px;
      }

      .cls-4, .cls-6, .cls-3 {
        fill-rule: evenodd;
      }

      .cls-4, .cls-7 {
        fill: #5a9ed6;
      }

      .cls-5 {
        fill: #000;
      }

      .cls-6, .cls-8, .cls-3 {
        fill: #3c78bd;
      }

      .cls-2, .cls-3 {
        stroke: #3c78bd;
      }

      .cls-9 {
        fill: #fff;
      }
    </style>
  </defs>
  <polygon class="cls-6" points="82 157.68 82 165.65 8.48 165.65 8.48 207.18 .5 207.18 .5 157.68 82 157.68"/>
  <polygon class="cls-2" points="82 157.68 82 165.65 8.48 165.65 8.48 207.18 .5 207.18 .5 157.68 82 157.68"/>
  <g>
    <path class="cls-5" d="M12.27,170.12h1.87c1.47,0,2.47.49,2.47,1.93s-.99,2.03-2.43,2.03h-1.07v2.6h-.84v-6.56ZM14.08,173.4c1.14,0,1.69-.42,1.69-1.35s-.58-1.25-1.73-1.25h-.93v2.6h.97Z"/>
    <path class="cls-5" d="M17.51,174.25c0-1.58,1.07-2.55,2.18-2.55,1.24,0,1.95.88,1.95,2.28,0,.18,0,.33-.04.49h-3.27c.07,1,.68,1.66,1.6,1.66.47,0,.88-.13,1.22-.36l.29.53c-.42.3-.94.5-1.61.5-1.3,0-2.32-.94-2.32-2.55ZM20.89,173.83c0-.96-.45-1.47-1.19-1.47-.68,0-1.28.54-1.38,1.47h2.57Z"/>
    <path class="cls-5" d="M22.82,171.82h.68l.07.88h.03c.34-.61.84-1,1.38-1,.22,0,.37.03.52.1l-.18.71c-.14-.04-.25-.06-.44-.06-.41,0-.9.29-1.23,1.11v3.12h-.83v-4.86Z"/>
    <path class="cls-5" d="M25.76,176.1l.38-.48c.42.35.86.53,1.46.53.64,0,.95-.33.95-.75,0-.5-.54-.71-1.09-.91-.73-.26-1.43-.61-1.43-1.41s.62-1.38,1.68-1.38c.61,0,1.13.23,1.51.55l-.38.48c-.34-.25-.69-.39-1.12-.39-.62,0-.89.34-.89.7,0,.44.42.62,1.03.83.76.27,1.49.6,1.49,1.48,0,.79-.63,1.45-1.78,1.45-.71,0-1.36-.26-1.81-.7Z"/>
    <path class="cls-5" d="M30.14,174.26c0-1.63,1.06-2.56,2.25-2.56s2.26.93,2.26,2.56-1.07,2.54-2.26,2.54-2.25-.93-2.25-2.54ZM30.92,170.31c0-.28.21-.5.5-.5s.49.22.49.5-.21.5-.49.5-.5-.22-.5-.5ZM33.78,174.26c0-1.12-.56-1.87-1.4-1.87s-1.39.75-1.39,1.87.56,1.85,1.39,1.85,1.4-.74,1.4-1.85ZM32.85,170.31c0-.28.21-.5.49-.5s.5.22.5.5-.21.5-.5.5-.49-.22-.49-.5Z"/>
    <path class="cls-5" d="M35.91,171.82h.68l.07.7h.03c.46-.46.96-.82,1.63-.82,1.03,0,1.49.66,1.49,1.9v3.08h-.83v-2.97c0-.91-.28-1.29-.92-1.29-.49,0-.84.25-1.32.74v3.52h-.83v-4.86Z"/>
    <path class="cls-5" d="M41.38,175.7v-6.14h.83v6.2c0,.26.11.35.24.35.05,0,.09,0,.17-.02l.11.62c-.12.06-.27.09-.48.09-.62,0-.87-.4-.87-1.1Z"/>
    <path class="cls-5" d="M43.8,170.28c0-.32.23-.54.55-.54s.55.22.55.54-.23.54-.55.54-.55-.21-.55-.54ZM43.93,171.82h.83v4.86h-.83v-4.86Z"/>
    <path class="cls-5" d="M46.04,174.26c0-1.63,1.09-2.56,2.34-2.56.64,0,1.08.25,1.42.57l-.41.52c-.27-.25-.58-.4-.97-.4-.88,0-1.52.75-1.52,1.87s.6,1.85,1.49,1.85c.45,0,.85-.2,1.14-.46l.36.53c-.44.4-.99.62-1.57.62-1.29,0-2.28-.93-2.28-2.54Z"/>
    <path class="cls-5" d="M50.96,169.56h.83v1.94l-.03,1c.45-.44.94-.8,1.61-.8,1.03,0,1.49.66,1.49,1.9v3.08h-.83v-2.97c0-.91-.28-1.29-.92-1.29-.49,0-.84.25-1.32.74v3.52h-.83v-7.12Z"/>
    <path class="cls-5" d="M56.04,174.25c0-1.58,1.07-2.55,2.18-2.55,1.24,0,1.95.88,1.95,2.28,0,.18,0,.33-.04.49h-3.27c.07,1,.68,1.66,1.6,1.66.47,0,.88-.13,1.22-.36l.29.53c-.42.3-.94.5-1.61.5-1.3,0-2.32-.94-2.32-2.55ZM59.43,173.83c0-.96-.45-1.47-1.19-1.47-.68,0-1.28.54-1.38,1.47h2.57Z"/>
    <path class="cls-5" d="M60.82,176.1l.38-.48c.42.35.86.53,1.46.53.64,0,.95-.33.95-.75,0-.5-.54-.71-1.09-.91-.73-.26-1.43-.61-1.43-1.41s.62-1.38,1.68-1.38c.61,0,1.13.23,1.51.55l-.38.48c-.34-.25-.69-.39-1.12-.39-.62,0-.89.34-.89.7,0,.44.42.62,1.03.83.76.27,1.49.6,1.49,1.48,0,.79-.63,1.45-1.78,1.45-.71,0-1.36-.26-1.81-.7Z"/>
  </g>
  <g>
    <path class="cls-5" d="M11.61,181.12h.87l.68,3.57c.13.71.24,1.41.36,2.15h.04c.13-.74.28-1.44.44-2.15l.91-3.57h.83l.89,3.57c.16.7.33,1.41.47,2.15h.04c.11-.74.23-1.44.35-2.15l.7-3.57h.81l-1.37,6.56h-1.04l-.97-3.96c-.12-.52-.2-.97-.29-1.54h-.04c-.1.57-.2,1.02-.31,1.54l-.95,3.96h-1.03l-1.39-6.56Z"/>
    <path class="cls-5" d="M19.92,181.28c0-.32.23-.54.55-.54s.55.22.55.54-.23.54-.55.54-.55-.21-.55-.54ZM20.05,182.82h.83v4.86h-.83v-4.86Z"/>
    <path class="cls-5" d="M21.99,187.1l.38-.48c.42.35.86.53,1.46.53.64,0,.95-.33.95-.75,0-.5-.54-.71-1.09-.91-.73-.26-1.43-.61-1.43-1.41s.62-1.38,1.68-1.38c.61,0,1.13.23,1.51.55l-.38.48c-.34-.25-.69-.39-1.12-.39-.62,0-.89.34-.89.7,0,.44.42.62,1.03.83.76.27,1.49.6,1.49,1.48,0,.79-.63,1.45-1.78,1.45-.71,0-1.36-.26-1.81-.7Z"/>
    <path class="cls-5" d="M26.18,187.1l.38-.48c.42.35.86.53,1.46.53.64,0,.95-.33.95-.75,0-.5-.54-.71-1.09-.91-.73-.26-1.43-.61-1.43-1.41s.62-1.38,1.68-1.38c.61,0,1.13.23,1.51.55l-.38.48c-.34-.25-.69-.39-1.12-.39-.62,0-.89.34-.89.7,0,.44.42.62,1.03.83.76.27,1.49.6,1.49,1.48,0,.79-.63,1.45-1.78,1.45-.71,0-1.36-.26-1.81-.7Z"/>
    <path class="cls-5" d="M30.55,185.25c0-1.58,1.07-2.55,2.18-2.55,1.24,0,1.95.88,1.95,2.28,0,.18,0,.33-.04.49h-3.27c.07,1,.68,1.66,1.6,1.66.47,0,.88-.13,1.22-.36l.29.53c-.42.3-.94.5-1.61.5-1.3,0-2.32-.94-2.32-2.55ZM33.93,184.83c0-.96-.45-1.47-1.19-1.47-.68,0-1.28.54-1.38,1.47h2.57Z"/>
    <path class="cls-5" d="M35.86,182.82h.68l.07.7h.03c.46-.46.96-.82,1.63-.82,1.03,0,1.49.66,1.49,1.9v3.08h-.83v-2.97c0-.91-.28-1.29-.92-1.29-.49,0-.84.25-1.32.74v3.52h-.83v-4.86Z"/>
    <path class="cls-5" d="M40.79,187.1l.38-.48c.42.35.86.53,1.46.53.64,0,.95-.33.95-.75,0-.5-.54-.71-1.09-.91-.73-.26-1.43-.61-1.43-1.41s.62-1.38,1.68-1.38c.61,0,1.13.23,1.51.55l-.38.48c-.34-.25-.69-.39-1.12-.39-.62,0-.89.34-.89.7,0,.44.42.62,1.03.83.76.27,1.49.6,1.49,1.48,0,.79-.63,1.45-1.78,1.45-.71,0-1.36-.26-1.81-.7Z"/>
    <path class="cls-5" d="M45.11,184.85h2.3v.64h-2.3v-.64Z"/>
  </g>
  <g>
    <path class="cls-5" d="M12.19,193.82h.68l.07.7h.03c.43-.46.93-.82,1.51-.82.75,0,1.15.35,1.35.92.5-.54,1.01-.92,1.6-.92,1,0,1.48.66,1.48,1.9v3.08h-.83v-2.97c0-.91-.29-1.29-.9-1.29-.38,0-.77.24-1.22.74v3.52h-.83v-2.97c0-.91-.28-1.29-.9-1.29-.36,0-.76.24-1.21.74v3.52h-.83v-4.86Z"/>
    <path class="cls-5" d="M20.18,197.42c0-1.08.9-1.6,2.98-1.83,0-.61-.21-1.2-1-1.2-.56,0-1.07.25-1.45.5l-.32-.56c.45-.3,1.13-.63,1.91-.63,1.18,0,1.69.79,1.69,1.99v2.99h-.68l-.08-.58h-.03c-.46.39-.99.7-1.6.7-.81,0-1.42-.5-1.42-1.38ZM23.16,197.5v-1.32c-1.64.19-2.17.56-2.17,1.19,0,.54.37.75.84.75s.86-.21,1.33-.62Z"/>
    <path class="cls-5" d="M25.52,193.82h.68l.07.7h.03c.46-.46.96-.82,1.63-.82,1.03,0,1.49.66,1.49,1.9v3.08h-.83v-2.97c0-.91-.28-1.29-.92-1.29-.49,0-.84.25-1.32.74v3.52h-.83v-4.86Z"/>
    <path class="cls-5" d="M30.69,197.42c0-1.08.9-1.6,2.98-1.83,0-.61-.21-1.2-1-1.2-.56,0-1.07.25-1.45.5l-.32-.56c.45-.3,1.13-.63,1.91-.63,1.18,0,1.69.79,1.69,1.99v2.99h-.68l-.08-.58h-.03c-.46.39-.99.7-1.6.7-.81,0-1.42-.5-1.42-1.38ZM33.67,197.5v-1.32c-1.64.19-2.17.56-2.17,1.19,0,.54.37.75.84.75s.86-.21,1.33-.62Z"/>
    <path class="cls-5" d="M35.66,199.61c0-.41.27-.8.71-1.1v-.04c-.24-.15-.43-.41-.43-.79,0-.41.28-.73.53-.9v-.04c-.32-.26-.63-.73-.63-1.31,0-1.06.84-1.73,1.83-1.73.27,0,.51.05.69.12h1.69v.64h-.99c.23.22.39.58.39.99,0,1.04-.79,1.69-1.78,1.69-.24,0-.5-.06-.72-.17-.18.15-.31.31-.31.58,0,.3.2.52.85.52h.94c1.13,0,1.7.36,1.7,1.16,0,.91-.95,1.69-2.46,1.69-1.19,0-2.01-.47-2.01-1.31ZM39.32,199.36c0-.45-.34-.6-.98-.6h-.83c-.19,0-.42-.02-.63-.08-.35.25-.5.54-.5.82,0,.52.53.84,1.41.84s1.53-.48,1.53-.98ZM38.7,195.43c0-.7-.46-1.13-1.03-1.13s-1.03.42-1.03,1.13.47,1.15,1.03,1.15,1.03-.44,1.03-1.15Z"/>
    <path class="cls-5" d="M40.72,196.25c0-1.58,1.07-2.55,2.18-2.55,1.24,0,1.95.88,1.95,2.28,0,.18,0,.33-.04.49h-3.27c.07,1,.68,1.66,1.6,1.66.47,0,.88-.13,1.22-.36l.29.53c-.42.3-.94.5-1.61.5-1.3,0-2.32-.94-2.32-2.55ZM44.11,195.83c0-.96-.45-1.47-1.19-1.47-.68,0-1.28.54-1.38,1.47h2.57Z"/>
    <path class="cls-5" d="M46.04,193.82h.68l.07.7h.03c.43-.46.93-.82,1.51-.82.75,0,1.15.35,1.35.92.5-.54,1.01-.92,1.6-.92,1,0,1.48.66,1.48,1.9v3.08h-.83v-2.97c0-.91-.29-1.29-.9-1.29-.38,0-.77.24-1.22.74v3.52h-.83v-2.97c0-.91-.28-1.29-.9-1.29-.36,0-.76.24-1.21.74v3.52h-.83v-4.86Z"/>
    <path class="cls-5" d="M53.97,196.25c0-1.58,1.07-2.55,2.18-2.55,1.24,0,1.95.88,1.95,2.28,0,.18,0,.33-.04.49h-3.27c.07,1,.68,1.66,1.6,1.66.47,0,.88-.13,1.22-.36l.29.53c-.42.3-.94.5-1.61.5-1.3,0-2.32-.94-2.32-2.55ZM57.36,195.83c0-.96-.45-1.47-1.19-1.47-.68,0-1.28.54-1.38,1.47h2.57Z"/>
    <path class="cls-5" d="M59.29,193.82h.68l.07.7h.03c.46-.46.96-.82,1.63-.82,1.03,0,1.49.66,1.49,1.9v3.08h-.83v-2.97c0-.91-.28-1.29-.92-1.29-.49,0-.84.25-1.32.74v3.52h-.83v-4.86Z"/>
    <path class="cls-5" d="M64.9,197.17v-2.68h-.72v-.62l.76-.05.1-1.56h.69v1.56h1.32v.67h-1.32v2.7c0,.59.2.93.75.93.18,0,.36-.03.56-.12l.17.59c-.26.12-.59.21-.92.21-1.04,0-1.39-.66-1.39-1.63Z"/>
  </g>
  <polygon class="cls-6" points="68.5 149.18 82.5 135.18 82.5 149.18 68.5 149.18"/>
  <polygon class="cls-2" points="68.5 149.18 82.5 135.18 82.5 149.18 68.5 149.18"/>
  <polygon class="cls-6" points="172.5 135.18 172.5 143.15 98.98 143.15 98.98 184.68 91 184.68 91 135.18 172.5 135.18"/>
  <polygon class="cls-2" points="172.5 135.18 172.5 143.15 98.98 143.15 98.98 184.68 91 184.68 91 135.18 172.5 135.18"/>
  <g>
    <path class="cls-5" d="M102.79,148.12h.84v6.56h-.84v-6.56Z"/>
    <path class="cls-5" d="M105.34,149.82h.68l.07.7h.03c.46-.46.96-.82,1.63-.82,1.03,0,1.49.66,1.49,1.9v3.08h-.83v-2.97c0-.91-.28-1.29-.92-1.29-.49,0-.84.25-1.32.74v3.52h-.83v-4.86Z"/>
    <path class="cls-5" d="M110.95,150.49h-.66v-.62l.66-.05v-.76c0-.99.45-1.62,1.42-1.62.3,0,.61.07.81.16l-.18.61c-.19-.06-.37-.1-.54-.1-.46,0-.68.33-.68.95v.76h1.02v.67h-1.02v4.19h-.83v-4.19Z"/>
    <path class="cls-5" d="M113.37,152.26c0-1.63,1.06-2.56,2.25-2.56s2.26.93,2.26,2.56-1.07,2.54-2.26,2.54-2.25-.93-2.25-2.54ZM117.02,152.26c0-1.12-.56-1.87-1.4-1.87s-1.39.75-1.39,1.87.56,1.85,1.39,1.85,1.4-.74,1.4-1.85Z"/>
    <path class="cls-5" d="M119.15,149.82h.68l.07.88h.03c.34-.61.84-1,1.38-1,.22,0,.37.03.52.1l-.18.71c-.14-.04-.25-.06-.44-.06-.41,0-.9.29-1.23,1.11v3.12h-.83v-4.86Z"/>
    <path class="cls-5" d="M122.63,149.82h.68l.07.7h.03c.43-.46.93-.82,1.51-.82.75,0,1.15.35,1.35.92.5-.54,1.01-.92,1.6-.92,1,0,1.48.66,1.48,1.9v3.08h-.83v-2.97c0-.91-.29-1.29-.9-1.29-.38,0-.77.24-1.22.74v3.52h-.83v-2.97c0-.91-.28-1.29-.9-1.29-.36,0-.76.24-1.21.74v3.52h-.83v-4.86Z"/>
    <path class="cls-5" d="M130.56,152.25c0-1.58,1.07-2.55,2.18-2.55,1.24,0,1.95.88,1.95,2.28,0,.18,0,.33-.04.49h-3.27c.07,1,.68,1.66,1.6,1.66.47,0,.88-.13,1.22-.36l.29.53c-.42.3-.94.5-1.61.5-1.3,0-2.32-.94-2.32-2.55ZM133.95,151.83c0-.96-.45-1.47-1.19-1.47-.68,0-1.28.54-1.38,1.47h2.57Z"/>
    <path class="cls-5" d="M135.88,153.7v-6.14h.83v6.2c0,.26.11.35.24.35.05,0,.09,0,.17-.02l.11.62c-.12.06-.27.09-.48.09-.62,0-.87-.4-.87-1.1Z"/>
    <path class="cls-5" d="M138.43,153.7v-6.14h.83v6.2c0,.26.11.35.24.35.05,0,.09,0,.17-.02l.11.62c-.12.06-.27.09-.48.09-.62,0-.87-.4-.87-1.1Z"/>
    <path class="cls-5" d="M140.62,152.25c0-1.58,1.07-2.55,2.18-2.55,1.24,0,1.95.88,1.95,2.28,0,.18,0,.33-.04.49h-3.27c.07,1,.68,1.66,1.6,1.66.47,0,.88-.13,1.22-.36l.29.53c-.42.3-.94.5-1.61.5-1.3,0-2.32-.94-2.32-2.55ZM144.01,151.83c0-.96-.45-1.47-1.19-1.47-.68,0-1.28.54-1.38,1.47h2.57Z"/>
    <path class="cls-5" d="M145.94,149.82h.68l.07.88h.03c.34-.61.84-1,1.38-1,.22,0,.37.03.52.1l-.18.71c-.14-.04-.25-.06-.44-.06-.41,0-.9.29-1.23,1.11v3.12h-.83v-4.86Z"/>
  </g>
  <g>
    <path class="cls-5" d="M104.13,159.12h.96l2.21,6.56h-.89l-.62-1.99h-2.39l-.63,1.99h-.85l2.21-6.56ZM103.62,163.01h1.96l-.31-.99c-.24-.73-.45-1.45-.66-2.21h-.04c-.2.76-.41,1.48-.64,2.21l-.31.99Z"/>
    <path class="cls-5" d="M108.08,163.9v-3.08h.83v2.97c0,.9.28,1.29.92,1.29.49,0,.84-.25,1.29-.82v-3.44h.83v4.86h-.68l-.07-.76h-.03c-.45.53-.93.88-1.6.88-1.03,0-1.49-.66-1.49-1.9Z"/>
    <path class="cls-5" d="M113.05,165.1l.38-.48c.42.35.86.53,1.46.53.64,0,.95-.33.95-.75,0-.5-.54-.71-1.09-.91-.73-.26-1.43-.61-1.43-1.41s.62-1.38,1.68-1.38c.61,0,1.13.23,1.51.55l-.38.48c-.34-.25-.69-.39-1.12-.39-.62,0-.89.34-.89.7,0,.44.42.62,1.03.83.76.27,1.49.6,1.49,1.48,0,.79-.63,1.45-1.78,1.45-.71,0-1.36-.26-1.81-.7Z"/>
    <path class="cls-5" d="M117.92,164.17v-2.68h-.72v-.62l.76-.05.1-1.56h.69v1.56h1.32v.67h-1.32v2.7c0,.59.2.93.75.93.18,0,.36-.03.56-.12l.17.59c-.26.12-.59.21-.92.21-1.04,0-1.39-.66-1.39-1.63Z"/>
    <path class="cls-5" d="M120.87,164.42c0-1.08.9-1.6,2.98-1.83,0-.61-.21-1.2-1-1.2-.56,0-1.07.25-1.45.5l-.32-.56c.45-.3,1.13-.63,1.91-.63,1.18,0,1.69.79,1.69,1.99v2.99h-.68l-.08-.58h-.03c-.46.39-.99.7-1.6.7-.81,0-1.42-.5-1.42-1.38ZM123.85,164.5v-1.32c-1.64.19-2.17.56-2.17,1.19,0,.54.37.75.84.75s.86-.21,1.33-.62Z"/>
    <path class="cls-5" d="M126.14,163.9v-3.08h.83v2.97c0,.9.28,1.29.92,1.29.49,0,.84-.25,1.29-.82v-3.44h.83v4.86h-.68l-.07-.76h-.03c-.45.53-.93.88-1.6.88-1.03,0-1.49-.66-1.49-1.9Z"/>
    <path class="cls-5" d="M131.11,165.1l.38-.48c.42.35.86.53,1.46.53.64,0,.95-.33.95-.75,0-.5-.54-.71-1.09-.91-.73-.26-1.43-.61-1.43-1.41s.62-1.38,1.68-1.38c.61,0,1.13.23,1.51.55l-.38.48c-.34-.25-.69-.39-1.12-.39-.62,0-.89.34-.89.7,0,.44.42.62,1.03.83.76.27,1.49.6,1.49,1.48,0,.79-.63,1.45-1.78,1.45-.71,0-1.36-.26-1.81-.7Z"/>
    <path class="cls-5" d="M135.48,163.26c0-1.63,1.09-2.56,2.34-2.56.64,0,1.08.25,1.42.57l-.41.52c-.27-.25-.58-.4-.97-.4-.88,0-1.52.75-1.52,1.87s.6,1.85,1.49,1.85c.45,0,.85-.2,1.14-.46l.36.53c-.44.4-.99.62-1.57.62-1.29,0-2.28-.93-2.28-2.54Z"/>
    <path class="cls-5" d="M140.4,158.56h.83v1.94l-.03,1c.45-.44.94-.8,1.61-.8,1.03,0,1.49.66,1.49,1.9v3.08h-.83v-2.97c0-.91-.28-1.29-.92-1.29-.49,0-.84.25-1.32.74v3.52h-.83v-7.12Z"/>
  </g>
  <polygon class="cls-6" points="159 127.18 173 113.18 173 127.18 159 127.18"/>
  <polygon class="cls-2" points="159 127.18 173 113.18 173 127.18 159 127.18"/>
  <polygon class="cls-6" points="263 113.18 263 121.07 189.4 121.07 189.4 162.18 181.5 162.18 181.5 113.18 263 113.18"/>
  <polygon class="cls-2" points="263 113.18 263 121.07 189.4 121.07 189.4 162.18 181.5 162.18 181.5 113.18 263 113.18"/>
  <g>
    <path class="cls-5" d="M194.64,125.62h.96l2.21,6.56h-.89l-.62-1.99h-2.39l-.63,1.99h-.85l2.21-6.56ZM194.13,129.51h1.96l-.31-.99c-.24-.73-.45-1.45-.66-2.21h-.04c-.2.76-.41,1.48-.64,2.21l-.31.99Z"/>
    <path class="cls-5" d="M198.66,127.32h.68l.07.88h.03c.34-.61.84-1,1.38-1,.22,0,.37.03.52.1l-.18.71c-.14-.04-.25-.06-.44-.06-.41,0-.9.29-1.23,1.11v3.12h-.83v-4.86Z"/>
    <path class="cls-5" d="M202.91,131.68h-.03l-.08.5h-.66v-7.12h.83v1.94l-.03.87c.45-.38.99-.67,1.53-.67,1.25,0,1.93.97,1.93,2.47,0,1.66-1,2.63-2.11,2.63-.45,0-.95-.23-1.38-.62ZM205.54,129.68c0-1.07-.37-1.78-1.28-1.78-.41,0-.83.22-1.29.66v2.54c.42.37.86.5,1.18.5.8,0,1.39-.72,1.39-1.92Z"/>
    <path class="cls-5" d="M207.33,129.75c0-1.58,1.07-2.55,2.18-2.55,1.24,0,1.95.88,1.95,2.28,0,.18,0,.33-.04.49h-3.27c.07,1,.68,1.66,1.6,1.66.47,0,.88-.13,1.22-.36l.29.53c-.42.3-.94.5-1.61.5-1.3,0-2.32-.94-2.32-2.55ZM210.71,129.33c0-.96-.45-1.47-1.19-1.47-.68,0-1.28.54-1.38,1.47h2.57Z"/>
    <path class="cls-5" d="M212.51,125.78c0-.32.23-.54.55-.54s.55.22.55.54-.23.54-.55.54-.55-.21-.55-.54ZM212.64,127.32h.83v4.86h-.83v-4.86Z"/>
    <path class="cls-5" d="M215.25,130.67v-2.68h-.72v-.62l.76-.05.1-1.56h.69v1.56h1.32v.67h-1.32v2.7c0,.59.2.93.75.93.18,0,.36-.03.56-.12l.17.59c-.26.12-.59.21-.92.21-1.04,0-1.39-.66-1.39-1.63Z"/>
    <path class="cls-5" d="M217.96,131.6l.38-.48c.42.35.86.53,1.46.53.64,0,.95-.33.95-.75,0-.5-.54-.71-1.09-.91-.73-.26-1.43-.61-1.43-1.41s.62-1.38,1.68-1.38c.61,0,1.13.23,1.51.55l-.38.48c-.34-.25-.69-.39-1.12-.39-.62,0-.89.34-.89.7,0,.44.42.62,1.03.83.76.27,1.49.6,1.49,1.48,0,.79-.63,1.45-1.78,1.45-.71,0-1.36-.26-1.81-.7Z"/>
    <path class="cls-5" d="M222.32,133.11c0-.41.27-.8.71-1.1v-.04c-.24-.15-.43-.41-.43-.79,0-.41.28-.73.53-.9v-.04c-.32-.26-.63-.73-.63-1.31,0-1.06.84-1.73,1.83-1.73.27,0,.51.05.69.12h1.69v.64h-.99c.23.22.39.58.39.99,0,1.04-.79,1.69-1.78,1.69-.24,0-.5-.06-.72-.17-.18.15-.31.31-.31.58,0,.3.2.52.85.52h.94c1.13,0,1.7.36,1.7,1.16,0,.91-.95,1.69-2.46,1.69-1.19,0-2.01-.47-2.01-1.31ZM225.98,132.86c0-.45-.34-.6-.98-.6h-.83c-.19,0-.42-.02-.63-.08-.35.25-.5.54-.5.82,0,.52.53.84,1.41.84s1.53-.48,1.53-.98ZM225.36,128.93c0-.7-.46-1.13-1.03-1.13s-1.03.42-1.03,1.13.47,1.15,1.03,1.15,1.03-.44,1.03-1.15Z"/>
    <path class="cls-5" d="M227.74,127.32h.68l.07.88h.03c.34-.61.84-1,1.38-1,.22,0,.37.03.52.1l-.18.71c-.14-.04-.25-.06-.44-.06-.41,0-.9.29-1.23,1.11v3.12h-.83v-4.86Z"/>
    <path class="cls-5" d="M231.15,130.4v-3.08h.83v2.97c0,.9.28,1.29.92,1.29.49,0,.84-.25,1.29-.82v-3.44h.83v4.86h-.68l-.07-.76h-.03c-.45.53-.93.88-1.6.88-1.03,0-1.49-.66-1.49-1.9Z"/>
    <path class="cls-5" d="M236.66,127.32h.68l.07.56h.03c.44-.37.99-.68,1.55-.68,1.25,0,1.93.97,1.93,2.48,0,1.65-1,2.62-2.11,2.62-.44,0-.9-.21-1.34-.56l.02.85v1.64h-.83v-6.91ZM240.06,129.68c0-1.07-.37-1.78-1.28-1.78-.41,0-.82.22-1.29.66v2.54c.44.37.86.5,1.18.5.8,0,1.39-.72,1.39-1.92Z"/>
    <path class="cls-5" d="M242.21,127.32h.68l.07.56h.03c.44-.37.99-.68,1.55-.68,1.25,0,1.93.97,1.93,2.48,0,1.65-1,2.62-2.11,2.62-.44,0-.9-.21-1.34-.56l.02.85v1.64h-.83v-6.91ZM245.61,129.68c0-1.07-.37-1.78-1.28-1.78-.41,0-.82.22-1.29.66v2.54c.44.37.86.5,1.18.5.8,0,1.39-.72,1.39-1.92Z"/>
    <path class="cls-5" d="M247.4,129.75c0-1.58,1.07-2.55,2.18-2.55,1.24,0,1.95.88,1.95,2.28,0,.18,0,.33-.04.49h-3.27c.07,1,.68,1.66,1.6,1.66.47,0,.88-.13,1.22-.36l.29.53c-.42.3-.94.5-1.61.5-1.3,0-2.32-.94-2.32-2.55ZM250.79,129.33c0-.96-.45-1.47-1.19-1.47-.68,0-1.28.54-1.38,1.47h2.57Z"/>
    <path class="cls-5" d="M252.72,127.32h.68l.07.7h.03c.46-.46.96-.82,1.63-.82,1.03,0,1.49.66,1.49,1.9v3.08h-.83v-2.97c0-.91-.28-1.29-.92-1.29-.49,0-.84.25-1.32.74v3.52h-.83v-4.86Z"/>
  </g>
  <polygon class="cls-6" points="249.5 104.68 263.5 90.68 263.5 104.68 249.5 104.68"/>
  <polygon class="cls-2" points="249.5 104.68 263.5 90.68 263.5 104.68 249.5 104.68"/>
  <polygon class="cls-6" points="353.5 90.68 353.5 98.57 279.9 98.57 279.9 139.68 272 139.68 272 90.68 353.5 90.68"/>
  <polygon class="cls-2" points="353.5 90.68 353.5 98.57 279.9 98.57 279.9 139.68 272 139.68 272 90.68 353.5 90.68"/>
  <g>
    <path class="cls-5" d="M283.82,103.12h.84v6.56h-.84v-6.56Z"/>
    <path class="cls-5" d="M286.37,104.82h.68l.07.7h.03c.46-.46.96-.82,1.63-.82,1.03,0,1.49.66,1.49,1.9v3.08h-.83v-2.97c0-.91-.28-1.29-.92-1.29-.49,0-.84.25-1.32.74v3.52h-.83v-4.86Z"/>
    <path class="cls-5" d="M291.98,108.17v-2.68h-.72v-.62l.76-.05.1-1.56h.69v1.56h1.32v.67h-1.32v2.7c0,.59.2.93.75.93.18,0,.36-.03.56-.12l.17.59c-.26.12-.59.21-.92.21-1.04,0-1.39-.66-1.39-1.63Z"/>
    <path class="cls-5" d="M295.23,104.82h.68l.07.88h.03c.34-.61.84-1,1.38-1,.22,0,.37.03.52.1l-.18.71c-.14-.04-.25-.06-.44-.06-.41,0-.9.29-1.23,1.11v3.12h-.83v-4.86Z"/>
    <path class="cls-5" d="M298.41,108.42c0-1.08.9-1.6,2.98-1.83,0-.61-.21-1.2-1-1.2-.56,0-1.07.25-1.45.5l-.32-.56c.45-.3,1.13-.63,1.91-.63,1.18,0,1.69.79,1.69,1.99v2.99h-.68l-.08-.58h-.03c-.46.39-.99.7-1.6.7-.81,0-1.42-.5-1.42-1.38ZM301.39,108.5v-1.32c-1.64.19-2.17.56-2.17,1.19,0,.54.37.75.84.75s.86-.21,1.33-.62Z"/>
    <path class="cls-5" d="M303.75,104.82h.68l.07.7h.03c.46-.46.96-.82,1.63-.82,1.03,0,1.49.66,1.49,1.9v3.08h-.83v-2.97c0-.91-.28-1.29-.92-1.29-.49,0-.84.25-1.32.74v3.52h-.83v-4.86Z"/>
    <path class="cls-5" d="M308.86,107.25c0-1.58,1.07-2.55,2.18-2.55,1.24,0,1.95.88,1.95,2.28,0,.18,0,.33-.04.49h-3.27c.07,1,.68,1.66,1.6,1.66.47,0,.88-.13,1.22-.36l.29.53c-.42.3-.94.5-1.61.5-1.3,0-2.32-.94-2.32-2.55ZM312.25,106.83c0-.96-.45-1.47-1.19-1.47-.68,0-1.28.54-1.38,1.47h2.57Z"/>
    <path class="cls-5" d="M314.32,108.17v-2.68h-.72v-.62l.76-.05.1-1.56h.69v1.56h1.32v.67h-1.32v2.7c0,.59.2.93.75.93.18,0,.36-.03.56-.12l.17.59c-.26.12-.59.21-.92.21-1.04,0-1.39-.66-1.39-1.63Z"/>
    <path class="cls-5" d="M319.22,107.26c0-1.58,1-2.56,2.11-2.56.56,0,.93.21,1.36.56l-.04-.83v-1.87h.83v7.12h-.68l-.07-.57h-.03c-.38.37-.9.69-1.47.69-1.22,0-2.01-.92-2.01-2.54ZM322.65,108.44v-2.54c-.41-.37-.78-.5-1.18-.5-.77,0-1.39.74-1.39,1.85s.48,1.85,1.33,1.85c.45,0,.84-.22,1.24-.66Z"/>
    <path class="cls-5" d="M324.76,107.25c0-1.58,1.07-2.55,2.18-2.55,1.24,0,1.95.88,1.95,2.28,0,.18,0,.33-.04.49h-3.27c.07,1,.68,1.66,1.6,1.66.47,0,.88-.13,1.22-.36l.29.53c-.42.3-.94.5-1.61.5-1.3,0-2.32-.94-2.32-2.55ZM328.15,106.83c0-.96-.45-1.47-1.19-1.47-.68,0-1.28.54-1.38,1.47h2.57Z"/>
    <path class="cls-5" d="M330.08,104.82h.68l.07.88h.03c.34-.61.84-1,1.38-1,.22,0,.37.03.52.1l-.18.71c-.14-.04-.25-.06-.44-.06-.41,0-.9.29-1.23,1.11v3.12h-.83v-4.86Z"/>
  </g>
  <g>
    <path class="cls-5" d="M283.82,114.12h3.78v.71h-2.94v2.05h2.48v.71h-2.48v2.38h3.04v.71h-3.88v-6.56Z"/>
    <path class="cls-5" d="M288.88,114.28c0-.32.23-.54.55-.54s.55.22.55.54-.23.54-.55.54-.55-.21-.55-.54ZM289.01,115.82h.83v4.86h-.83v-4.86Z"/>
    <path class="cls-5" d="M291.48,115.82h.68l.07.7h.03c.46-.46.96-.82,1.63-.82,1.03,0,1.49.66,1.49,1.9v3.08h-.83v-2.97c0-.91-.28-1.29-.92-1.29-.49,0-.84.25-1.32.74v3.52h-.83v-4.86Z"/>
    <path class="cls-5" d="M296.95,115.82h.68l.07.88h.03c.34-.61.84-1,1.38-1,.22,0,.37.03.52.1l-.18.71c-.14-.04-.25-.06-.44-.06-.41,0-.9.29-1.23,1.11v3.12h-.83v-4.86Z"/>
    <path class="cls-5" d="M300.3,114.28c0-.32.23-.54.55-.54s.55.22.55.54-.23.54-.55.54-.55-.21-.55-.54ZM300.43,115.82h.83v4.86h-.83v-4.86Z"/>
    <path class="cls-5" d="M302.54,118.26c0-1.63,1.09-2.56,2.34-2.56.64,0,1.08.25,1.42.57l-.41.52c-.27-.25-.58-.4-.97-.4-.88,0-1.52.75-1.52,1.87s.6,1.85,1.49,1.85c.45,0,.85-.2,1.14-.46l.36.53c-.44.4-.99.62-1.57.62-1.29,0-2.28-.93-2.28-2.54Z"/>
    <path class="cls-5" d="M307.46,113.56h.83v1.94l-.03,1c.45-.44.94-.8,1.61-.8,1.03,0,1.49.66,1.49,1.9v3.08h-.83v-2.97c0-.91-.28-1.29-.92-1.29-.49,0-.84.25-1.32.74v3.52h-.83v-7.12Z"/>
    <path class="cls-5" d="M313.04,119.17v-2.68h-.72v-.62l.76-.05.1-1.56h.69v1.56h1.32v.67h-1.32v2.7c0,.59.2.93.75.93.18,0,.36-.03.56-.12l.17.59c-.26.12-.59.21-.92.21-1.04,0-1.39-.66-1.39-1.63Z"/>
    <path class="cls-5" d="M316.22,118.9v-3.08h.83v2.97c0,.9.28,1.29.92,1.29.49,0,.84-.25,1.29-.82v-3.44h.83v4.86h-.68l-.07-.76h-.03c-.45.53-.93.88-1.6.88-1.03,0-1.49-.66-1.49-1.9Z"/>
    <path class="cls-5" d="M321.73,115.82h.68l.07.7h.03c.46-.46.96-.82,1.63-.82,1.03,0,1.49.66,1.49,1.9v3.08h-.83v-2.97c0-.91-.28-1.29-.92-1.29-.49,0-.84.25-1.32.74v3.52h-.83v-4.86Z"/>
    <path class="cls-5" d="M326.83,121.61c0-.41.27-.8.71-1.1v-.04c-.24-.15-.43-.41-.43-.79,0-.41.28-.73.53-.9v-.04c-.32-.26-.63-.73-.63-1.31,0-1.06.84-1.73,1.83-1.73.27,0,.51.05.69.12h1.69v.64h-.99c.23.22.39.58.39.99,0,1.04-.79,1.69-1.78,1.69-.24,0-.5-.06-.72-.17-.18.15-.31.31-.31.58,0,.3.2.52.85.52h.94c1.13,0,1.7.36,1.7,1.16,0,.91-.95,1.69-2.46,1.69-1.19,0-2.01-.47-2.01-1.31ZM330.49,121.36c0-.45-.34-.6-.98-.6h-.83c-.19,0-.42-.02-.63-.08-.35.25-.5.54-.5.82,0,.52.53.84,1.41.84s1.53-.48,1.53-.98ZM329.87,117.43c0-.7-.46-1.13-1.03-1.13s-1.03.42-1.03,1.13.47,1.15,1.03,1.15,1.03-.44,1.03-1.15Z"/>
  </g>
  <polygon class="cls-6" points="340 82.18 354 68.18 354 82.18 340 82.18"/>
  <polygon class="cls-2" points="340 82.18 354 68.18 354 82.18 340 82.18"/>
  <polygon class="cls-6" points="444 68.18 444 76.07 370.4 76.07 370.4 117.18 362.5 117.18 362.5 68.18 444 68.18"/>
  <polygon class="cls-2" points="444 68.18 444 76.07 370.4 76.07 370.4 117.18 362.5 117.18 362.5 68.18 444 68.18"/>
  <g>
    <path class="cls-5" d="M373.44,80.62h.89l1.02,3.54c.22.77.39,1.4.63,2.16h.04c.24-.76.4-1.39.63-2.16l1.09-3.54h.86l-2.13,6.56h-.97l-2.06-6.56Z"/>
    <path class="cls-5" d="M379.06,84.75c0-1.58,1.07-2.55,2.18-2.55,1.24,0,1.95.88,1.95,2.28,0,.18,0,.33-.04.49h-3.27c.07,1,.68,1.66,1.6,1.66.47,0,.88-.13,1.22-.36l.29.53c-.42.3-.94.5-1.61.5-1.3,0-2.32-.94-2.32-2.55ZM382.44,84.33c0-.96-.45-1.47-1.19-1.47-.68,0-1.28.54-1.38,1.47h2.57Z"/>
    <path class="cls-5" d="M384.38,82.32h.68l.07.88h.03c.34-.61.84-1,1.38-1,.22,0,.37.03.52.1l-.18.71c-.14-.04-.25-.06-.44-.06-.41,0-.9.29-1.23,1.11v3.12h-.83v-4.86Z"/>
    <path class="cls-5" d="M388.63,86.68h-.03l-.08.5h-.66v-7.12h.83v1.94l-.03.87c.45-.38.99-.67,1.53-.67,1.25,0,1.93.97,1.93,2.47,0,1.66-1,2.63-2.11,2.63-.45,0-.95-.23-1.38-.62ZM391.25,84.68c0-1.07-.37-1.78-1.28-1.78-.41,0-.83.22-1.29.66v2.54c.42.37.86.5,1.18.5.8,0,1.39-.72,1.39-1.92Z"/>
    <path class="cls-5" d="M393.33,85.4v-3.08h.83v2.97c0,.9.28,1.29.92,1.29.49,0,.84-.25,1.29-.82v-3.44h.83v4.86h-.68l-.07-.76h-.03c-.45.53-.93.88-1.6.88-1.03,0-1.49-.66-1.49-1.9Z"/>
    <path class="cls-5" d="M398.84,82.32h.68l.07.7h.03c.46-.46.96-.82,1.63-.82,1.03,0,1.49.66,1.49,1.9v3.08h-.83v-2.97c0-.91-.28-1.29-.92-1.29-.49,0-.84.25-1.32.74v3.52h-.83v-4.86Z"/>
    <path class="cls-5" d="M403.96,84.76c0-1.58,1-2.56,2.11-2.56.56,0,.93.21,1.36.56l-.04-.83v-1.87h.83v7.12h-.68l-.07-.57h-.03c-.38.37-.9.69-1.47.69-1.22,0-2.01-.92-2.01-2.54ZM407.38,85.94v-2.54c-.41-.37-.78-.5-1.18-.5-.77,0-1.39.74-1.39,1.85s.48,1.85,1.33,1.85c.45,0,.84-.22,1.24-.66Z"/>
    <path class="cls-5" d="M411.16,82.32h.86l.91,2.75c.15.48.3.97.45,1.44h.04c.14-.47.3-.96.45-1.44l.91-2.75h.82l-1.72,4.86h-.97l-1.75-4.86Z"/>
    <path class="cls-5" d="M416.18,84.76c0-1.63,1.06-2.56,2.25-2.56s2.26.93,2.26,2.56-1.07,2.54-2.26,2.54-2.25-.93-2.25-2.54ZM419.82,84.76c0-1.12-.56-1.87-1.4-1.87s-1.39.75-1.39,1.87.56,1.85,1.39,1.85,1.4-.74,1.4-1.85Z"/>
    <path class="cls-5" d="M421.95,82.32h.68l.07.7h.03c.46-.46.96-.82,1.63-.82,1.03,0,1.49.66,1.49,1.9v3.08h-.83v-2.97c0-.91-.28-1.29-.92-1.29-.49,0-.84.25-1.32.74v3.52h-.83v-4.86Z"/>
  </g>
  <g>
    <path class="cls-5" d="M374.34,91.62h3.78v.71h-2.94v2.05h2.48v.71h-2.48v2.38h3.04v.71h-3.88v-6.56Z"/>
    <path class="cls-5" d="M379.4,91.78c0-.32.23-.54.55-.54s.55.22.55.54-.23.54-.55.54-.55-.21-.55-.54ZM379.53,93.32h.83v4.86h-.83v-4.86Z"/>
    <path class="cls-5" d="M382,93.32h.68l.07.7h.03c.46-.46.96-.82,1.63-.82,1.03,0,1.49.66,1.49,1.9v3.08h-.83v-2.97c0-.91-.28-1.29-.92-1.29-.49,0-.84.25-1.32.74v3.52h-.83v-4.86Z"/>
    <path class="cls-5" d="M387.47,93.32h.68l.07.88h.03c.34-.61.84-1,1.38-1,.22,0,.37.03.52.1l-.18.71c-.14-.04-.25-.06-.44-.06-.41,0-.9.29-1.23,1.11v3.12h-.83v-4.86Z"/>
    <path class="cls-5" d="M390.82,91.78c0-.32.23-.54.55-.54s.55.22.55.54-.23.54-.55.54-.55-.21-.55-.54ZM390.95,93.32h.83v4.86h-.83v-4.86Z"/>
    <path class="cls-5" d="M393.06,95.76c0-1.63,1.09-2.56,2.34-2.56.64,0,1.08.25,1.42.57l-.41.52c-.27-.25-.58-.4-.97-.4-.88,0-1.52.75-1.52,1.87s.6,1.85,1.49,1.85c.45,0,.85-.2,1.14-.46l.36.53c-.44.4-.99.62-1.57.62-1.29,0-2.28-.93-2.28-2.54Z"/>
    <path class="cls-5" d="M397.97,91.06h.83v1.94l-.03,1c.45-.44.94-.8,1.61-.8,1.03,0,1.49.66,1.49,1.9v3.08h-.83v-2.97c0-.91-.28-1.29-.92-1.29-.49,0-.84.25-1.32.74v3.52h-.83v-7.12Z"/>
    <path class="cls-5" d="M403.55,96.67v-2.68h-.72v-.62l.76-.05.1-1.56h.69v1.56h1.32v.67h-1.32v2.7c0,.59.2.93.75.93.18,0,.36-.03.56-.12l.17.59c-.26.12-.59.21-.92.21-1.04,0-1.39-.66-1.39-1.63Z"/>
    <path class="cls-5" d="M406.73,96.4v-3.08h.83v2.97c0,.9.28,1.29.92,1.29.49,0,.84-.25,1.29-.82v-3.44h.83v4.86h-.68l-.07-.76h-.03c-.45.53-.93.88-1.6.88-1.03,0-1.49-.66-1.49-1.9Z"/>
    <path class="cls-5" d="M412.24,93.32h.68l.07.7h.03c.46-.46.96-.82,1.63-.82,1.03,0,1.49.66,1.49,1.9v3.08h-.83v-2.97c0-.91-.28-1.29-.92-1.29-.49,0-.84.25-1.32.74v3.52h-.83v-4.86Z"/>
    <path class="cls-5" d="M417.35,99.11c0-.41.27-.8.71-1.1v-.04c-.24-.15-.43-.41-.43-.79,0-.41.28-.73.53-.9v-.04c-.32-.26-.63-.73-.63-1.31,0-1.06.84-1.73,1.83-1.73.27,0,.51.05.69.12h1.69v.64h-.99c.23.22.39.58.39.99,0,1.04-.79,1.69-1.78,1.69-.24,0-.5-.06-.72-.17-.18.15-.31.31-.31.58,0,.3.2.52.85.52h.94c1.13,0,1.7.36,1.7,1.16,0,.91-.95,1.69-2.46,1.69-1.19,0-2.01-.47-2.01-1.31ZM421,98.86c0-.45-.34-.6-.98-.6h-.83c-.19,0-.42-.02-.63-.08-.35.25-.5.54-.5.82,0,.52.53.84,1.41.84s1.53-.48,1.53-.98ZM420.38,94.93c0-.7-.46-1.13-1.03-1.13s-1.03.42-1.03,1.13.47,1.15,1.03,1.15,1.03-.44,1.03-1.15Z"/>
    <path class="cls-5" d="M422.4,95.75c0-1.58,1.07-2.55,2.18-2.55,1.24,0,1.95.88,1.95,2.28,0,.18-.01.33-.04.49h-3.27c.07,1,.68,1.66,1.6,1.66.47,0,.88-.13,1.22-.36l.29.53c-.42.3-.94.5-1.61.5-1.3,0-2.32-.94-2.32-2.55ZM425.79,95.33c0-.96-.45-1.47-1.19-1.47-.68,0-1.28.54-1.38,1.47h2.57Z"/>
    <path class="cls-5" d="M427.72,93.32h.68l.07.7h.03c.46-.46.96-.82,1.63-.82,1.03,0,1.49.66,1.49,1.9v3.08h-.83v-2.97c0-.91-.28-1.29-.92-1.29-.49,0-.84.25-1.32.74v3.52h-.83v-4.86Z"/>
  </g>
  <polygon class="cls-3" points="430.5 59.68 444.5 45.68 444.5 59.68 430.5 59.68"/>
  <polygon class="cls-2" points="430.5 59.68 444.5 45.68 444.5 59.68 430.5 59.68"/>
  <polygon class="cls-4" points="534.5 45.68 534.5 53.65 460.98 53.65 460.98 95.18 453 95.18 453 45.68 534.5 45.68"/>
  <polygon class="cls-1" points="534.5 45.68 534.5 53.65 460.98 53.65 460.98 95.18 453 95.18 453 45.68 534.5 45.68"/>
  <g>
    <path class="cls-5" d="M464.85,58.12h3.78v.71h-2.94v2.05h2.48v.71h-2.48v2.38h3.04v.71h-3.88v-6.56Z"/>
    <path class="cls-5" d="M469.91,58.28c0-.32.23-.54.55-.54s.55.22.55.54-.23.54-.55.54-.55-.21-.55-.54ZM470.04,59.82h.83v4.86h-.83v-4.86Z"/>
    <path class="cls-5" d="M472.14,65.61c0-.41.27-.8.71-1.1v-.04c-.24-.15-.43-.41-.43-.79,0-.41.28-.73.53-.9v-.04c-.32-.26-.63-.73-.63-1.31,0-1.06.84-1.73,1.83-1.73.27,0,.51.05.69.12h1.69v.64h-.99c.23.22.39.58.39.99,0,1.04-.79,1.69-1.78,1.69-.24,0-.5-.06-.72-.17-.18.15-.31.31-.31.58,0,.3.2.52.85.52h.94c1.13,0,1.7.36,1.7,1.16,0,.91-.95,1.69-2.46,1.69-1.19,0-2.01-.47-2.01-1.31ZM475.8,65.36c0-.45-.34-.6-.98-.6h-.83c-.19,0-.42-.02-.63-.08-.35.25-.5.54-.5.82,0,.52.53.84,1.41.84s1.53-.48,1.53-.98ZM475.18,61.43c0-.7-.46-1.13-1.03-1.13s-1.03.42-1.03,1.13.47,1.15,1.03,1.15,1.03-.44,1.03-1.15Z"/>
    <path class="cls-5" d="M477.2,62.25c0-1.58,1.07-2.55,2.18-2.55,1.24,0,1.95.88,1.95,2.28,0,.18-.01.33-.04.49h-3.27c.07,1,.68,1.66,1.6,1.66.47,0,.88-.13,1.22-.36l.29.53c-.42.3-.94.5-1.61.5-1.3,0-2.32-.94-2.32-2.55ZM480.59,61.83c0-.96-.45-1.47-1.19-1.47-.68,0-1.28.54-1.38,1.47h2.57Z"/>
    <path class="cls-5" d="M482.52,59.82h.68l.07.7h.03c.46-.46.96-.82,1.63-.82,1.03,0,1.49.66,1.49,1.9v3.08h-.83v-2.97c0-.91-.28-1.29-.92-1.29-.49,0-.84.25-1.32.74v3.52h-.83v-4.86Z"/>
    <path class="cls-5" d="M487.63,62.25c0-1.58,1.07-2.55,2.18-2.55,1.24,0,1.95.88,1.95,2.28,0,.18-.01.33-.04.49h-3.27c.07,1,.68,1.66,1.6,1.66.47,0,.88-.13,1.22-.36l.29.53c-.42.3-.94.5-1.61.5-1.3,0-2.32-.94-2.32-2.55ZM491.02,61.83c0-.96-.45-1.47-1.19-1.47-.68,0-1.28.54-1.38,1.47h2.57Z"/>
  </g>
  <g>
    <path class="cls-5" d="M464.85,69.12h.9l2.34,4.09c.25.44.48.93.71,1.41h.04c-.05-.68-.11-1.4-.11-2.08v-3.42h.79v6.56h-.9l-2.34-4.09c-.25-.44-.49-.93-.71-1.41h-.04c.05.66.11,1.37.11,2.05v3.45h-.79v-6.56Z"/>
    <path class="cls-5" d="M471.16,73.9v-3.08h.83v2.97c0,.9.28,1.29.92,1.29.49,0,.84-.25,1.29-.82v-3.44h.83v4.86h-.68l-.07-.76h-.03c-.45.53-.93.88-1.6.88-1.03,0-1.49-.66-1.49-1.9Z"/>
    <path class="cls-5" d="M476.81,74.17v-2.68h-.72v-.62l.76-.05.1-1.56h.69v1.56h1.32v.67h-1.32v2.7c0,.59.2.93.75.93.18,0,.36-.03.56-.12l.17.59c-.26.12-.59.21-.92.21-1.04,0-1.39-.66-1.39-1.63Z"/>
    <path class="cls-5" d="M479.55,75.24l2.55-3.75h-2.27v-.67h3.32v.44l-2.55,3.74h2.64v.68h-3.69v-.44Z"/>
    <path class="cls-5" d="M483.95,73.25c0-1.58,1.07-2.55,2.18-2.55,1.24,0,1.95.88,1.95,2.28,0,.18-.01.33-.04.49h-3.27c.07,1,.68,1.66,1.6,1.66.47,0,.88-.13,1.22-.36l.29.53c-.42.3-.94.5-1.61.5-1.3,0-2.32-.94-2.32-2.55ZM487.34,72.83c0-.96-.45-1.47-1.19-1.47-.68,0-1.28.54-1.38,1.47h2.57Z"/>
    <path class="cls-5" d="M489.27,70.82h.68l.07.88h.03c.34-.61.84-1,1.38-1,.22,0,.37.03.52.1l-.18.71c-.14-.04-.25-.06-.44-.06-.41,0-.9.29-1.23,1.11v3.12h-.83v-4.86Z"/>
    <path class="cls-5" d="M492.58,71.57c0-.38.27-.64.6-.64s.6.26.6.64-.27.63-.6.63-.6-.26-.6-.63ZM492.58,75.17c0-.38.27-.64.6-.64s.6.26.6.64-.27.63-.6.63-.6-.26-.6-.63Z"/>
    <path class="cls-5" d="M495.12,69.28c0-.32.23-.54.55-.54s.55.22.55.54-.23.54-.55.54-.55-.21-.55-.54ZM495.25,70.82h.83v4.86h-.83v-4.86Z"/>
    <path class="cls-5" d="M497.72,70.82h.68l.07.7h.03c.46-.46.96-.82,1.63-.82,1.03,0,1.49.66,1.49,1.9v3.08h-.83v-2.97c0-.91-.28-1.29-.92-1.29-.49,0-.84.25-1.32.74v3.52h-.83v-4.86Z"/>
    <path class="cls-5" d="M503.19,70.82h.68l.07.7h.03c.46-.46.96-.82,1.63-.82,1.03,0,1.49.66,1.49,1.9v3.08h-.83v-2.97c0-.91-.28-1.29-.92-1.29-.49,0-.84.25-1.32.74v3.52h-.83v-4.86Z"/>
    <path class="cls-5" d="M508.3,73.25c0-1.58,1.07-2.55,2.18-2.55,1.24,0,1.95.88,1.95,2.28,0,.18-.01.33-.04.49h-3.27c.07,1,.68,1.66,1.6,1.66.47,0,.88-.13,1.22-.36l.29.53c-.42.3-.94.5-1.61.5-1.3,0-2.32-.94-2.32-2.55ZM511.69,72.83c0-.96-.45-1.47-1.19-1.47-.68,0-1.28.54-1.38,1.47h2.57Z"/>
    <path class="cls-5" d="M513.62,70.82h.68l.07.7h.03c.46-.46.96-.82,1.63-.82,1.03,0,1.49.66,1.49,1.9v3.08h-.83v-2.97c0-.91-.28-1.29-.92-1.29-.49,0-.84.25-1.32.74v3.52h-.83v-4.86Z"/>
  </g>
  <polygon class="cls-4" points="521 37.18 535 23.18 535 37.18 521 37.18"/>
  <polygon class="cls-1" points="521 37.18 535 23.18 535 37.18 521 37.18"/>
  <polygon class="cls-4" points="625 23.18 625 31.15 551.48 31.15 551.48 72.68 543.5 72.68 543.5 23.18 625 23.18"/>
  <polygon class="cls-1" points="625 23.18 625 31.15 551.48 31.15 551.48 72.68 543.5 72.68 543.5 23.18 625 23.18"/>
  <g>
    <path class="cls-5" d="M554.99,39.37c0-2.1,1.15-3.37,2.8-3.37s2.81,1.28,2.81,3.37-1.16,3.43-2.81,3.43-2.8-1.32-2.8-3.43ZM559.72,39.37c0-1.63-.77-2.63-1.94-2.63s-1.93,1-1.93,2.63.76,2.69,1.93,2.69,1.94-1.05,1.94-2.69ZM556.26,35.04c0-.29.21-.5.49-.5s.49.21.49.5-.2.49-.49.49-.49-.21-.49-.49ZM558.32,35.04c0-.29.2-.5.49-.5s.49.21.49.5-.21.49-.49.49-.49-.21-.49-.49Z"/>
    <path class="cls-5" d="M564.91,38.49h-2.02v4.19h-.83v-4.19h-.66v-.62l.66-.05v-.64c0-1.01.5-1.64,1.51-1.64.33,0,.65.07.9.18l-.18.63c-.21-.1-.4-.14-.65-.14-.48,0-.75.35-.75.99v.62h2.02v-.76c0-.99.45-1.62,1.43-1.62.3,0,.59.07.81.16l-.18.64c-.18-.09-.37-.13-.55-.13-.45,0-.68.32-.68.95v.76h1.03v.67h-1.03v4.19h-.83v-4.19Z"/>
    <path class="cls-5" d="M567.35,40.25c0-1.58,1.07-2.55,2.18-2.55,1.24,0,1.95.88,1.95,2.28,0,.18-.01.33-.04.49h-3.27c.07,1,.68,1.66,1.6,1.66.47,0,.88-.13,1.22-.36l.29.53c-.42.3-.94.5-1.61.5-1.3,0-2.32-.94-2.32-2.55ZM570.73,39.83c0-.96-.45-1.47-1.19-1.47-.68,0-1.28.54-1.38,1.47h2.57Z"/>
    <path class="cls-5" d="M572.67,37.82h.68l.07.7h.03c.46-.46.96-.82,1.63-.82,1.03,0,1.49.66,1.49,1.9v3.08h-.83v-2.97c0-.91-.28-1.29-.92-1.29-.49,0-.84.25-1.32.74v3.52h-.83v-4.86Z"/>
    <path class="cls-5" d="M578.28,41.17v-2.68h-.72v-.62l.76-.05.1-1.56h.69v1.56h1.32v.67h-1.32v2.7c0,.59.2.93.75.93.18,0,.36-.03.56-.12l.17.59c-.26.12-.59.21-.92.21-1.04,0-1.39-.66-1.39-1.63Z"/>
    <path class="cls-5" d="M581.52,41.7v-6.14h.83v6.2c0,.26.11.35.24.35.05,0,.09,0,.17-.02l.11.62c-.12.06-.27.09-.48.09-.62,0-.87-.4-.87-1.1Z"/>
    <path class="cls-5" d="M583.94,36.28c0-.32.23-.54.55-.54s.55.22.55.54-.23.54-.55.54-.55-.21-.55-.54ZM584.07,37.82h.83v4.86h-.83v-4.86Z"/>
    <path class="cls-5" d="M586.19,40.26c0-1.63,1.09-2.56,2.34-2.56.64,0,1.08.25,1.42.57l-.41.52c-.27-.25-.58-.4-.97-.4-.88,0-1.52.75-1.52,1.87s.6,1.85,1.49,1.85c.45,0,.85-.2,1.14-.46l.36.53c-.44.4-.99.62-1.57.62-1.29,0-2.28-.93-2.28-2.54Z"/>
    <path class="cls-5" d="M591.1,35.56h.83v1.94l-.03,1c.45-.44.94-.8,1.61-.8,1.03,0,1.49.66,1.49,1.9v3.08h-.83v-2.97c0-.91-.28-1.29-.92-1.29-.49,0-.84.25-1.32.74v3.52h-.83v-7.12Z"/>
    <path class="cls-5" d="M596.18,40.25c0-1.58,1.07-2.55,2.18-2.55,1.24,0,1.95.88,1.95,2.28,0,.18-.01.33-.04.49h-3.27c.07,1,.68,1.66,1.6,1.66.47,0,.88-.13,1.22-.36l.29.53c-.42.3-.94.5-1.61.5-1.3,0-2.32-.94-2.32-2.55ZM599.57,39.83c0-.96-.45-1.47-1.19-1.47-.68,0-1.28.54-1.38,1.47h2.57Z"/>
  </g>
  <g>
    <path class="cls-5" d="M554.99,50.4c0-2.11,1.24-3.4,2.91-3.4.8,0,1.42.38,1.81.81l-.46.52c-.35-.36-.78-.59-1.34-.59-1.23,0-2.05,1.01-2.05,2.64s.78,2.68,2.02,2.68c.63,0,1.1-.25,1.52-.71l.46.5c-.53.61-1.17.95-2.01.95-1.64,0-2.86-1.26-2.86-3.4Z"/>
    <path class="cls-5" d="M560.64,51.26c0-1.63,1.06-2.56,2.25-2.56s2.26.93,2.26,2.56-1.07,2.54-2.26,2.54-2.25-.93-2.25-2.54ZM564.28,51.26c0-1.12-.56-1.87-1.4-1.87s-1.39.75-1.39,1.87.56,1.85,1.39,1.85,1.4-.74,1.4-1.85Z"/>
    <path class="cls-5" d="M566.42,48.82h.68l.07.7h.03c.43-.46.93-.82,1.51-.82.75,0,1.15.35,1.35.92.5-.54,1.01-.92,1.6-.92,1,0,1.48.66,1.48,1.9v3.08h-.83v-2.97c0-.91-.29-1.29-.9-1.29-.38,0-.77.24-1.22.74v3.52h-.83v-2.97c0-.91-.28-1.29-.9-1.29-.36,0-.76.24-1.21.74v3.52h-.83v-4.86Z"/>
    <path class="cls-5" d="M574.71,48.82h.68l.07.7h.03c.43-.46.93-.82,1.51-.82.75,0,1.15.35,1.35.92.5-.54,1.01-.92,1.6-.92,1,0,1.48.66,1.48,1.9v3.08h-.83v-2.97c0-.91-.29-1.29-.9-1.29-.38,0-.77.24-1.22.74v3.52h-.83v-2.97c0-.91-.28-1.29-.9-1.29-.36,0-.76.24-1.21.74v3.52h-.83v-4.86Z"/>
    <path class="cls-5" d="M582.93,51.9v-3.08h.83v2.97c0,.9.28,1.29.92,1.29.49,0,.84-.25,1.29-.82v-3.44h.83v4.86h-.68l-.07-.76h-.03c-.45.53-.93.88-1.6.88-1.03,0-1.49-.66-1.49-1.9Z"/>
    <path class="cls-5" d="M588.43,48.82h.68l.07.7h.03c.46-.46.96-.82,1.63-.82,1.03,0,1.49.66,1.49,1.9v3.08h-.83v-2.97c0-.91-.28-1.29-.92-1.29-.49,0-.84.25-1.32.74v3.52h-.83v-4.86Z"/>
    <path class="cls-5" d="M593.78,47.28c0-.32.23-.54.55-.54s.55.22.55.54-.23.54-.55.54-.55-.21-.55-.54ZM593.91,48.82h.83v4.86h-.83v-4.86Z"/>
    <path class="cls-5" d="M596.52,52.17v-2.68h-.72v-.62l.76-.05.1-1.56h.69v1.56h1.32v.67h-1.32v2.7c0,.59.2.93.75.93.18,0,.36-.03.56-.12l.17.59c-.26.12-.59.21-.92.21-1.04,0-1.39-.66-1.39-1.63Z"/>
    <path class="cls-5" d="M599.64,47.28c0-.32.23-.54.55-.54s.55.22.55.54-.23.54-.55.54-.55-.21-.55-.54ZM599.76,48.82h.83v4.86h-.83v-4.86Z"/>
    <path class="cls-5" d="M601.88,51.25c0-1.58,1.07-2.55,2.18-2.55,1.24,0,1.95.88,1.95,2.28,0,.18-.01.33-.04.49h-3.27c.07,1,.68,1.66,1.6,1.66.47,0,.88-.13,1.22-.36l.29.53c-.42.3-.94.5-1.61.5-1.3,0-2.32-.94-2.32-2.55ZM605.26,50.83c0-.96-.45-1.47-1.19-1.47-.68,0-1.28.54-1.38,1.47h2.57Z"/>
    <path class="cls-5" d="M606.66,53.1l.38-.48c.42.35.86.53,1.46.53.64,0,.95-.33.95-.75,0-.5-.54-.71-1.09-.91-.73-.26-1.43-.61-1.43-1.41s.62-1.38,1.68-1.38c.61,0,1.13.23,1.51.55l-.38.48c-.34-.25-.69-.39-1.12-.39-.62,0-.89.34-.89.7,0,.44.42.62,1.03.83.76.27,1.49.6,1.49,1.48,0,.79-.63,1.45-1.78,1.45-.71,0-1.36-.26-1.81-.7Z"/>
  </g>
  <polygon class="cls-4" points="611.5 15.18 625.5 1.18 625.5 15.18 611.5 15.18"/>
  <polygon class="cls-1" points="611.5 15.18 625.5 1.18 625.5 15.18 611.5 15.18"/>
  <polygon class="cls-4" points="716 1.18 716 9.07 641.9 9.07 641.9 50.18 634 50.18 634 1.18 716 1.18"/>
  <polygon class="cls-1" points="716 1.18 716 9.07 641.9 9.07 641.9 50.18 634 50.18 634 1.18 716 1.18"/>
  <g>
    <path class="cls-5" d="M645.88,13.62h1.95c1.33,0,2.26.45,2.26,1.6,0,.65-.35,1.23-.96,1.43v.04c.78.15,1.33.67,1.33,1.57,0,1.29-1.02,1.92-2.48,1.92h-2.1v-6.56ZM647.69,16.41c1.11,0,1.57-.41,1.57-1.08,0-.76-.52-1.04-1.54-1.04h-1v2.12h.97ZM647.86,19.51c1.12,0,1.77-.4,1.77-1.28,0-.81-.63-1.18-1.77-1.18h-1.14v2.46h1.14Z"/>
    <path class="cls-5" d="M651.68,15.32h.68l.07.88h.03c.34-.61.84-1,1.38-1,.22,0,.37.03.52.1l-.18.71c-.14-.04-.25-.06-.44-.06-.41,0-.9.29-1.23,1.11v3.12h-.83v-4.86Z"/>
    <path class="cls-5" d="M654.8,17.75c0-1.58,1.07-2.55,2.18-2.55,1.24,0,1.95.88,1.95,2.28,0,.18-.01.33-.04.49h-3.27c.07,1,.68,1.66,1.6,1.66.47,0,.88-.13,1.22-.36l.29.53c-.42.3-.94.5-1.61.5-1.3,0-2.32-.94-2.32-2.55ZM658.19,17.33c0-.96-.45-1.47-1.19-1.47-.68,0-1.28.54-1.38,1.47h2.57Z"/>
    <path class="cls-5" d="M659.99,13.78c0-.32.23-.54.55-.54s.55.22.55.54-.23.54-.55.54-.55-.21-.55-.54ZM660.12,15.32h.83v4.86h-.83v-4.86Z"/>
    <path class="cls-5" d="M662.73,18.67v-2.68h-.72v-.62l.76-.05.1-1.56h.69v1.56h1.32v.67h-1.32v2.7c0,.59.2.93.75.93.18,0,.36-.03.56-.12l.17.59c-.26.12-.59.21-.92.21-1.04,0-1.39-.66-1.39-1.63Z"/>
    <path class="cls-5" d="M665.62,17.75c0-1.58,1.07-2.55,2.18-2.55,1.24,0,1.95.88,1.95,2.28,0,.18-.01.33-.04.49h-3.27c.07,1,.68,1.66,1.6,1.66.47,0,.88-.13,1.22-.36l.29.53c-.42.3-.94.5-1.61.5-1.3,0-2.32-.94-2.32-2.55ZM669.01,17.33c0-.96-.45-1.47-1.19-1.47-.68,0-1.28.54-1.38,1.47h2.57Z"/>
  </g>
  <g>
    <path class="cls-5" d="M645.5,27.87c0-2.1,1.15-3.37,2.8-3.37s2.81,1.28,2.81,3.37-1.16,3.43-2.81,3.43-2.8-1.32-2.8-3.43ZM650.24,27.87c0-1.63-.77-2.63-1.94-2.63s-1.93,1-1.93,2.63.76,2.69,1.93,2.69,1.94-1.05,1.94-2.69ZM646.78,23.54c0-.29.21-.5.49-.5s.49.21.49.5-.2.49-.49.49-.49-.21-.49-.49ZM648.84,23.54c0-.29.2-.5.49-.5s.49.21.49.5-.21.49-.49.49-.49-.21-.49-.49Z"/>
    <path class="cls-5" d="M655.43,26.99h-2.02v4.19h-.83v-4.19h-.66v-.62l.66-.05v-.64c0-1.01.5-1.64,1.51-1.64.33,0,.65.07.9.18l-.18.63c-.21-.1-.4-.14-.65-.14-.48,0-.75.35-.75.99v.62h2.02v-.76c0-.99.45-1.62,1.43-1.62.3,0,.59.07.81.16l-.18.64c-.18-.09-.37-.13-.55-.13-.45,0-.68.32-.68.95v.76h1.03v.67h-1.03v4.19h-.83v-4.19Z"/>
    <path class="cls-5" d="M657.86,28.75c0-1.58,1.07-2.55,2.18-2.55,1.24,0,1.95.88,1.95,2.28,0,.18-.01.33-.04.49h-3.27c.07,1,.68,1.66,1.6,1.66.47,0,.88-.13,1.22-.36l.29.53c-.42.3-.94.5-1.61.5-1.3,0-2.32-.94-2.32-2.55ZM661.25,28.33c0-.96-.45-1.47-1.19-1.47-.68,0-1.28.54-1.38,1.47h2.57Z"/>
    <path class="cls-5" d="M663.18,26.32h.68l.07.7h.03c.46-.46.96-.82,1.63-.82,1.03,0,1.49.66,1.49,1.9v3.08h-.83v-2.97c0-.91-.28-1.29-.92-1.29-.49,0-.84.25-1.32.74v3.52h-.83v-4.86Z"/>
    <path class="cls-5" d="M668.79,29.67v-2.68h-.72v-.62l.76-.05.1-1.56h.69v1.56h1.32v.67h-1.32v2.7c0,.59.2.93.75.93.18,0,.36-.03.56-.12l.17.59c-.26.12-.59.21-.92.21-1.04,0-1.39-.66-1.39-1.63Z"/>
    <path class="cls-5" d="M672.04,30.2v-6.14h.83v6.2c0,.26.11.35.24.35.05,0,.09,0,.17-.02l.11.62c-.12.06-.27.09-.48.09-.62,0-.87-.4-.87-1.1Z"/>
    <path class="cls-5" d="M674.46,24.78c0-.32.23-.54.55-.54s.55.22.55.54-.23.54-.55.54-.55-.21-.55-.54ZM674.59,26.32h.83v4.86h-.83v-4.86Z"/>
    <path class="cls-5" d="M676.7,28.76c0-1.63,1.09-2.56,2.34-2.56.64,0,1.08.25,1.42.57l-.41.52c-.27-.25-.58-.4-.97-.4-.88,0-1.52.75-1.52,1.87s.6,1.85,1.49,1.85c.45,0,.85-.2,1.14-.46l.36.53c-.44.4-.99.62-1.57.62-1.29,0-2.28-.93-2.28-2.54Z"/>
    <path class="cls-5" d="M681.62,24.06h.83v1.94l-.03,1c.45-.44.94-.8,1.61-.8,1.03,0,1.49.66,1.49,1.9v3.08h-.83v-2.97c0-.91-.28-1.29-.92-1.29-.49,0-.84.25-1.32.74v3.52h-.83v-7.12Z"/>
    <path class="cls-5" d="M687.06,24.06h.82v4.8h.03l2.05-2.54h.93l-1.62,1.96,1.83,2.9h-.9l-1.42-2.33-.9,1.05v1.28h-.82v-7.12Z"/>
    <path class="cls-5" d="M691.65,28.75c0-1.58,1.07-2.55,2.18-2.55,1.24,0,1.95.88,1.95,2.28,0,.18-.01.33-.04.49h-3.27c.07,1,.68,1.66,1.6,1.66.47,0,.88-.13,1.22-.36l.29.53c-.42.3-.94.5-1.61.5-1.3,0-2.32-.94-2.32-2.55ZM695.04,28.33c0-.96-.45-1.47-1.19-1.47-.68,0-1.28.54-1.38,1.47h2.57Z"/>
    <path class="cls-5" d="M696.84,24.78c0-.32.23-.54.55-.54s.55.22.55.54-.23.54-.55.54-.55-.21-.55-.54ZM696.97,26.32h.83v4.86h-.83v-4.86Z"/>
    <path class="cls-5" d="M699.58,29.67v-2.68h-.72v-.62l.76-.05.1-1.56h.69v1.56h1.32v.67h-1.32v2.7c0,.59.2.93.75.93.18,0,.36-.03.56-.12l.17.59c-.26.12-.59.21-.92.21-1.04,0-1.39-.66-1.39-1.63Z"/>
  </g>
  <rect class="cls-8" y="207.18" width="444.5" height="38.93"/>
  <g>
    <path class="cls-9" d="M105.85,222.37h1.51v11.81h-1.51v-11.81Z"/>
    <path class="cls-9" d="M110.44,225.43h1.22l.13,1.26h.05c.83-.83,1.73-1.48,2.94-1.48,1.85,0,2.68,1.19,2.68,3.42v5.55h-1.49v-5.35c0-1.64-.5-2.32-1.66-2.32-.88,0-1.51.45-2.38,1.33v6.34h-1.49v-8.75Z"/>
    <path class="cls-9" d="M120.53,231.46v-4.83h-1.3v-1.12l1.37-.09.18-2.81h1.24v2.81h2.38v1.21h-2.38v4.86c0,1.06.36,1.67,1.35,1.67.32,0,.65-.05,1.01-.22l.31,1.06c-.47.22-1.06.38-1.66.38-1.87,0-2.5-1.19-2.5-2.93Z"/>
    <path class="cls-9" d="M126.38,225.43h1.22l.13,1.58h.05c.61-1.1,1.51-1.8,2.48-1.8.4,0,.67.05.94.18l-.32,1.28c-.25-.07-.45-.11-.79-.11-.74,0-1.62.52-2.21,2v5.62h-1.49v-8.75Z"/>
    <path class="cls-9" d="M132.11,231.91c0-1.94,1.62-2.88,5.37-3.29-.02-1.1-.38-2.16-1.8-2.16-1.01,0-1.93.45-2.61.9l-.58-1.01c.81-.54,2.03-1.13,3.44-1.13,2.12,0,3.04,1.42,3.04,3.58v5.38h-1.22l-.14-1.04h-.05c-.83.7-1.78,1.26-2.88,1.26-1.46,0-2.56-.9-2.56-2.48ZM137.47,232.05v-2.38c-2.95.34-3.91,1.01-3.91,2.14,0,.97.67,1.35,1.51,1.35s1.55-.38,2.39-1.12Z"/>
    <path class="cls-9" d="M141.72,225.43h1.22l.13,1.26h.05c.83-.83,1.73-1.48,2.94-1.48,1.85,0,2.68,1.19,2.68,3.42v5.55h-1.49v-5.35c0-1.64-.5-2.32-1.66-2.32-.88,0-1.51.45-2.38,1.33v6.34h-1.49v-8.75Z"/>
    <path class="cls-9" d="M150.92,229.8c0-2.84,1.93-4.59,3.93-4.59,2.23,0,3.51,1.58,3.51,4.11,0,.32-.02.59-.07.88h-5.89c.13,1.8,1.22,2.99,2.88,2.99.85,0,1.58-.23,2.2-.65l.52.95c-.76.54-1.69.9-2.9.9-2.34,0-4.18-1.69-4.18-4.59ZM157.02,229.05c0-1.73-.81-2.65-2.14-2.65-1.22,0-2.3.97-2.48,2.65h4.63Z"/>
    <path class="cls-9" d="M160.74,231.46v-4.83h-1.3v-1.12l1.37-.09.18-2.81h1.24v2.81h2.38v1.21h-2.38v4.86c0,1.06.36,1.67,1.35,1.67.32,0,.65-.05,1.01-.22l.31,1.06c-.47.22-1.06.38-1.66.38-1.87,0-2.5-1.19-2.5-2.93Z"/>
    <path class="cls-9" d="M166.29,226.78c0-.68.49-1.15,1.08-1.15s1.08.47,1.08,1.15-.49,1.13-1.08,1.13-1.08-.47-1.08-1.13ZM166.29,233.26c0-.68.49-1.15,1.08-1.15s1.08.47,1.08,1.15-.49,1.13-1.08,1.13-1.08-.47-1.08-1.13Z"/>
    <path class="cls-9" d="M174.84,222.37h6.81v1.28h-5.29v3.69h4.47v1.28h-4.47v4.29h5.47v1.28h-6.99v-11.81Z"/>
    <path class="cls-9" d="M184.18,225.43h1.22l.13,1.58h.05c.61-1.1,1.51-1.8,2.48-1.8.4,0,.67.05.94.18l-.32,1.28c-.25-.07-.45-.11-.79-.11-.74,0-1.62.52-2.21,2v5.62h-1.49v-8.75Z"/>
    <path class="cls-9" d="M190.7,226.63h-1.19v-1.12l1.19-.09v-1.37c0-1.78.81-2.92,2.56-2.92.54,0,1.1.13,1.46.29l-.32,1.1c-.34-.11-.67-.18-.97-.18-.83,0-1.22.59-1.22,1.71v1.37h1.84v1.21h-1.84v7.54h-1.49v-7.54Z"/>
    <path class="cls-9" d="M195.16,231.91c0-1.94,1.62-2.88,5.37-3.29-.02-1.1-.38-2.16-1.8-2.16-1.01,0-1.93.45-2.61.9l-.58-1.01c.81-.54,2.03-1.13,3.44-1.13,2.12,0,3.04,1.42,3.04,3.58v5.38h-1.22l-.14-1.04h-.05c-.83.7-1.78,1.26-2.88,1.26-1.46,0-2.56-.9-2.56-2.48ZM200.53,232.05v-2.38c-2.95.34-3.91,1.01-3.91,2.14,0,.97.67,1.35,1.51,1.35s1.55-.38,2.39-1.12Z"/>
    <path class="cls-9" d="M204.77,221.36h1.49v3.49l-.05,1.8c.81-.79,1.69-1.44,2.9-1.44,1.85,0,2.68,1.19,2.68,3.42v5.55h-1.49v-5.35c0-1.64-.5-2.32-1.66-2.32-.88,0-1.51.45-2.38,1.33v6.34h-1.49v-12.82Z"/>
    <path class="cls-9" d="M214.56,225.43h1.22l.13,1.58h.05c.61-1.1,1.51-1.8,2.48-1.8.4,0,.67.05.94.18l-.32,1.28c-.25-.07-.45-.11-.79-.11-.74,0-1.62.52-2.21,2v5.62h-1.49v-8.75Z"/>
    <path class="cls-9" d="M220.7,230.97v-5.55h1.49v5.35c0,1.62.5,2.32,1.66,2.32.88,0,1.51-.45,2.32-1.48v-6.19h1.49v8.75h-1.22l-.13-1.37h-.05c-.81.95-1.67,1.58-2.88,1.58-1.85,0-2.68-1.19-2.68-3.42Z"/>
    <path class="cls-9" d="M230.62,225.43h1.22l.13,1.26h.05c.83-.83,1.73-1.48,2.94-1.48,1.85,0,2.68,1.19,2.68,3.42v5.55h-1.49v-5.35c0-1.64-.5-2.32-1.66-2.32-.88,0-1.51.45-2.38,1.33v6.34h-1.49v-8.75Z"/>
    <path class="cls-9" d="M239.8,235.85c0-.74.49-1.44,1.28-1.98v-.07c-.43-.27-.77-.74-.77-1.42,0-.74.5-1.31.95-1.62v-.07c-.58-.47-1.13-1.31-1.13-2.36,0-1.91,1.51-3.12,3.29-3.12.49,0,.92.09,1.24.22h3.04v1.15h-1.78c.41.4.7,1.04.7,1.78,0,1.87-1.42,3.04-3.21,3.04-.43,0-.9-.11-1.3-.31-.32.27-.56.56-.56,1.04,0,.54.36.94,1.53.94h1.69c2.03,0,3.06.65,3.06,2.09,0,1.64-1.71,3.04-4.43,3.04-2.14,0-3.62-.85-3.62-2.36ZM246.39,235.4c0-.81-.61-1.08-1.76-1.08h-1.49c-.34,0-.76-.04-1.13-.14-.63.45-.9.97-.9,1.48,0,.94.95,1.51,2.54,1.51s2.75-.86,2.75-1.76ZM245.27,228.33c0-1.26-.83-2.04-1.85-2.04s-1.85.76-1.85,2.04.85,2.07,1.85,2.07,1.85-.79,1.85-2.07Z"/>
    <path class="cls-9" d="M248.91,229.8c0-2.84,1.93-4.59,3.93-4.59,2.23,0,3.51,1.58,3.51,4.11,0,.32-.02.59-.07.88h-5.89c.13,1.8,1.22,2.99,2.88,2.99.85,0,1.58-.23,2.2-.65l.52.95c-.76.54-1.69.9-2.9.9-2.34,0-4.18-1.69-4.18-4.59ZM255.01,229.05c0-1.73-.81-2.65-2.14-2.65-1.22,0-2.3.97-2.48,2.65h4.63Z"/>
    <path class="cls-9" d="M258.48,225.43h1.22l.13,1.26h.05c.83-.83,1.73-1.48,2.94-1.48,1.85,0,2.68,1.19,2.68,3.42v5.55h-1.49v-5.35c0-1.64-.5-2.32-1.66-2.32-.88,0-1.51.45-2.38,1.33v6.34h-1.49v-8.75Z"/>
    <path class="cls-9" d="M270.96,233.13l.68-.86c.76.63,1.55.95,2.63.95,1.15,0,1.71-.59,1.71-1.35,0-.9-.97-1.28-1.96-1.64-1.31-.47-2.57-1.1-2.57-2.54s1.12-2.48,3.02-2.48c1.1,0,2.03.41,2.72.99l-.68.86c-.61-.45-1.24-.7-2.02-.7-1.12,0-1.6.61-1.6,1.26,0,.79.76,1.12,1.85,1.49,1.37.49,2.68,1.08,2.68,2.67,0,1.42-1.13,2.61-3.21,2.61-1.28,0-2.45-.47-3.26-1.26Z"/>
    <path class="cls-9" d="M278.93,231.91c0-1.94,1.62-2.88,5.37-3.29-.02-1.1-.38-2.16-1.8-2.16-1.01,0-1.93.45-2.61.9l-.58-1.01c.81-.54,2.03-1.13,3.44-1.13,2.12,0,3.04,1.42,3.04,3.58v5.38h-1.22l-.14-1.04h-.05c-.83.7-1.78,1.26-2.88,1.26-1.46,0-2.56-.9-2.56-2.48ZM284.3,232.05v-2.38c-2.95.34-3.91,1.01-3.91,2.14,0,.97.67,1.35,1.51,1.35s1.55-.38,2.39-1.12Z"/>
    <path class="cls-9" d="M288.54,225.43h1.22l.13,1.26h.05c.77-.83,1.67-1.48,2.72-1.48,1.35,0,2.07.63,2.43,1.66.9-.97,1.82-1.66,2.88-1.66,1.8,0,2.67,1.19,2.67,3.42v5.55h-1.49v-5.35c0-1.64-.52-2.32-1.62-2.32-.68,0-1.39.43-2.2,1.33v6.34h-1.49v-5.35c0-1.64-.5-2.32-1.62-2.32-.65,0-1.37.43-2.18,1.33v6.34h-1.49v-8.75Z"/>
    <path class="cls-9" d="M303.46,225.43h1.22l.13,1.26h.05c.77-.83,1.67-1.48,2.72-1.48,1.35,0,2.07.63,2.43,1.66.9-.97,1.82-1.66,2.88-1.66,1.8,0,2.67,1.19,2.67,3.42v5.55h-1.49v-5.35c0-1.64-.52-2.32-1.62-2.32-.68,0-1.39.43-2.2,1.33v6.34h-1.49v-5.35c0-1.64-.5-2.32-1.62-2.32-.65,0-1.37.43-2.18,1.33v6.34h-1.49v-8.75Z"/>
    <path class="cls-9" d="M317.74,229.8c0-2.84,1.93-4.59,3.93-4.59,2.23,0,3.51,1.58,3.51,4.11,0,.32-.02.59-.07.88h-5.89c.13,1.8,1.22,2.99,2.88,2.99.85,0,1.58-.23,2.2-.65l.52.95c-.76.54-1.69.9-2.9.9-2.34,0-4.18-1.69-4.18-4.59ZM323.84,229.05c0-1.73-.81-2.65-2.14-2.65-1.22,0-2.3.97-2.48,2.65h4.63Z"/>
    <path class="cls-9" d="M327.31,232.41v-11.06h1.49v11.16c0,.47.2.63.43.63.09,0,.16,0,.31-.04l.2,1.12c-.22.11-.49.16-.86.16-1.12,0-1.57-.72-1.57-1.98Z"/>
    <path class="cls-9" d="M331.9,225.43h1.22l.13,1.26h.05c.83-.83,1.73-1.48,2.94-1.48,1.85,0,2.68,1.19,2.68,3.42v5.55h-1.49v-5.35c0-1.64-.5-2.32-1.66-2.32-.88,0-1.51.45-2.38,1.33v6.34h-1.49v-8.75Z"/>
  </g>
  <rect class="cls-7" x="453" y="207.18" width="263" height="38.93"/>
  <g>
    <path class="cls-9" d="M506.18,221.76h1.51v11.81h-1.51v-11.81Z"/>
    <path class="cls-9" d="M510.77,224.82h1.22l.13,1.26h.05c.83-.83,1.73-1.48,2.93-1.48,1.85,0,2.68,1.19,2.68,3.42v5.55h-1.5v-5.35c0-1.64-.5-2.32-1.66-2.32-.88,0-1.51.45-2.38,1.33v6.34h-1.49v-8.75Z"/>
    <path class="cls-9" d="M520.87,230.85v-4.83h-1.3v-1.12l1.37-.09.18-2.81h1.24v2.81h2.38v1.21h-2.38v4.86c0,1.06.36,1.67,1.35,1.67.32,0,.65-.05,1.01-.22l.31,1.06c-.47.22-1.06.38-1.66.38-1.87,0-2.5-1.19-2.5-2.93Z"/>
    <path class="cls-9" d="M526.07,229.19c0-2.84,1.93-4.59,3.93-4.59,2.23,0,3.51,1.58,3.51,4.11,0,.32-.02.59-.07.88h-5.89c.13,1.8,1.22,2.99,2.88,2.99.85,0,1.58-.23,2.2-.65l.52.95c-.76.54-1.69.9-2.9.9-2.34,0-4.18-1.69-4.18-4.59ZM532.18,228.44c0-1.73-.81-2.65-2.14-2.65-1.22,0-2.3.97-2.48,2.65h4.63Z"/>
    <path class="cls-9" d="M535.65,224.82h1.22l.13,1.58h.05c.61-1.1,1.51-1.8,2.48-1.8.4,0,.67.05.94.18l-.32,1.28c-.25-.07-.45-.11-.79-.11-.74,0-1.62.52-2.21,2v5.62h-1.49v-8.75Z"/>
    <path class="cls-9" d="M541.91,224.82h1.22l.13,1.26h.05c.83-.83,1.73-1.48,2.93-1.48,1.85,0,2.68,1.19,2.68,3.42v5.55h-1.49v-5.35c0-1.64-.5-2.32-1.66-2.32-.88,0-1.51.45-2.38,1.33v6.34h-1.49v-8.75Z"/>
    <path class="cls-9" d="M551.11,229.19c0-2.84,1.93-4.59,3.93-4.59,2.23,0,3.51,1.58,3.51,4.11,0,.32-.02.59-.07.88h-5.89c.13,1.8,1.22,2.99,2.88,2.99.85,0,1.58-.23,2.2-.65l.52.95c-.76.54-1.69.9-2.9.9-2.34,0-4.18-1.69-4.18-4.59ZM557.21,228.44c0-1.73-.81-2.65-2.14-2.65-1.22,0-2.3.97-2.48,2.65h4.63Z"/>
    <path class="cls-9" d="M560.94,230.85v-4.83h-1.3v-1.12l1.37-.09.18-2.81h1.24v2.81h2.38v1.21h-2.38v4.86c0,1.06.36,1.67,1.35,1.67.32,0,.65-.05,1.01-.22l.31,1.06c-.47.22-1.06.38-1.66.38-1.87,0-2.5-1.19-2.5-2.93Z"/>
    <path class="cls-9" d="M566.48,226.17c0-.68.49-1.15,1.08-1.15s1.08.47,1.08,1.15-.49,1.13-1.08,1.13-1.08-.47-1.08-1.13ZM566.48,232.65c0-.68.49-1.15,1.08-1.15s1.08.47,1.08,1.15-.49,1.13-1.08,1.13-1.08-.47-1.08-1.13Z"/>
    <path class="cls-9" d="M574.98,228.69v-6.93h1.51v6.97c0,2.83,1.19,3.73,2.74,3.73s2.79-.9,2.79-3.73v-6.97h1.46v6.93c0,3.78-1.84,5.1-4.25,5.1s-4.25-1.31-4.25-5.1ZM576.47,219.81c0-.52.38-.9.88-.9s.88.38.88.9-.36.88-.88.88-.88-.38-.88-.88ZM580.18,219.81c0-.52.36-.9.88-.9s.88.38.88.9-.38.88-.88.88-.88-.38-.88-.88Z"/>
    <path class="cls-9" d="M587.9,232.67h-.05l-.14.9h-1.19v-12.82h1.49v3.49l-.05,1.57c.81-.68,1.78-1.21,2.75-1.21,2.25,0,3.47,1.75,3.47,4.45,0,2.99-1.8,4.74-3.8,4.74-.81,0-1.71-.41-2.48-1.12ZM592.64,229.07c0-1.93-.67-3.21-2.3-3.21-.74,0-1.5.4-2.32,1.19v4.57c.76.67,1.55.9,2.12.9,1.44,0,2.5-1.3,2.5-3.46Z"/>
    <path class="cls-9" d="M595.84,229.19c0-2.84,1.93-4.59,3.92-4.59,2.23,0,3.51,1.58,3.51,4.11,0,.32-.02.59-.07.88h-5.89c.13,1.8,1.22,2.99,2.88,2.99.85,0,1.58-.23,2.2-.65l.52.95c-.76.54-1.69.9-2.9.9-2.34,0-4.18-1.69-4.18-4.59ZM601.94,228.44c0-1.73-.81-2.65-2.14-2.65-1.22,0-2.3.97-2.48,2.65h4.63Z"/>
    <path class="cls-9" d="M605.42,224.82h1.22l.13,1.58h.05c.61-1.1,1.51-1.8,2.48-1.8.4,0,.67.05.94.18l-.32,1.28c-.25-.07-.45-.11-.79-.11-.74,0-1.62.52-2.21,2v5.62h-1.49v-8.75Z"/>
    <path class="cls-9" d="M610.76,232.78l4.59-6.75h-4.09v-1.21h5.98v.79l-4.59,6.73h4.75v1.22h-6.64v-.79Z"/>
    <path class="cls-9" d="M618.68,229.19c0-2.84,1.93-4.59,3.92-4.59,2.23,0,3.51,1.58,3.51,4.11,0,.32-.02.59-.07.88h-5.89c.13,1.8,1.22,2.99,2.88,2.99.85,0,1.58-.23,2.2-.65l.52.95c-.76.54-1.69.9-2.9.9-2.34,0-4.18-1.69-4.18-4.59ZM624.79,228.44c0-1.73-.81-2.65-2.14-2.65-1.22,0-2.3.97-2.48,2.65h4.63Z"/>
    <path class="cls-9" d="M628.13,230.36v-5.55h1.49v5.35c0,1.62.5,2.32,1.66,2.32.88,0,1.51-.45,2.32-1.48v-6.19h1.49v8.75h-1.22l-.13-1.37h-.05c-.81.95-1.67,1.58-2.88,1.58-1.85,0-2.68-1.19-2.68-3.42Z"/>
    <path class="cls-9" d="M637.38,235.24c0-.74.49-1.44,1.28-1.98v-.07c-.43-.27-.77-.74-.77-1.42,0-.74.5-1.31.95-1.62v-.07c-.58-.47-1.13-1.31-1.13-2.36,0-1.91,1.51-3.12,3.29-3.12.49,0,.92.09,1.24.22h3.04v1.15h-1.78c.42.4.7,1.04.7,1.78,0,1.87-1.42,3.04-3.2,3.04-.43,0-.9-.11-1.3-.31-.32.27-.56.56-.56,1.04,0,.54.36.94,1.53.94h1.69c2.03,0,3.06.65,3.06,2.09,0,1.64-1.71,3.04-4.43,3.04-2.14,0-3.62-.85-3.62-2.36ZM643.97,234.79c0-.81-.61-1.08-1.76-1.08h-1.49c-.34,0-.76-.04-1.13-.14-.63.45-.9.97-.9,1.48,0,.94.95,1.51,2.54,1.51s2.75-.86,2.75-1.76ZM642.86,227.72c0-1.26-.83-2.04-1.85-2.04s-1.85.76-1.85,2.04.85,2.07,1.85,2.07,1.85-.79,1.85-2.07Z"/>
    <path class="cls-9" d="M646.49,229.19c0-2.84,1.93-4.59,3.92-4.59,2.23,0,3.51,1.58,3.51,4.11,0,.32-.02.59-.07.88h-5.89c.13,1.8,1.22,2.99,2.88,2.99.85,0,1.58-.23,2.2-.65l.52.95c-.76.54-1.69.9-2.9.9-2.34,0-4.18-1.69-4.18-4.59ZM652.59,228.44c0-1.73-.81-2.65-2.14-2.65-1.22,0-2.3.97-2.48,2.65h4.63Z"/>
    <path class="cls-9" d="M656.07,224.82h1.22l.13,1.26h.05c.83-.83,1.73-1.48,2.93-1.48,1.85,0,2.68,1.19,2.68,3.42v5.55h-1.5v-5.35c0-1.64-.5-2.32-1.66-2.32-.88,0-1.51.45-2.38,1.33v6.34h-1.49v-8.75Z"/>
  </g>
</svg>