<?xml version="1.0" encoding="UTF-8" standalone="no"?>
<!DOCTYPE svg PUBLIC "-//W3C//DTD SVG 1.1//EN" "http://www.w3.org/Graphics/SVG/1.1/DTD/svg11.dtd">
<svg width="100%" height="100%" viewBox="0 0 1444 851" version="1.1" xmlns="http://www.w3.org/2000/svg" xmlns:xlink="http://www.w3.org/1999/xlink" xml:space="preserve" xmlns:serif="http://www.serif.com/" style="fill-rule:evenodd;clip-rule:evenodd;stroke-miterlimit:2;">
    <g transform="matrix(1,0,0,1,-27.7723,-24.6311)">
        <g transform="matrix(4.16667,0,0,4.16667,0,-756.25)">
            <rect x="126" y="189" width="227" height="20.5" style="fill:rgb(68,114,196);"/>
        </g>
        <g transform="matrix(4.16667,0,0,4.16667,0,-568.75)">
            <rect x="126" y="166.5" width="227" height="20.5" style="fill:rgb(68,114,196);"/>
        </g>
        <g transform="matrix(4.16667,0,0,4.16667,0,-379.167)">
            <rect x="131.5" y="143.5" width="216.5" height="21" style="fill:rgb(68,114,196);"/>
        </g>
        <g transform="matrix(4.16667,0,0,4.16667,0,-191.667)">
            <rect x="153" y="121" width="173" height="21" style="fill:rgb(68,114,196);"/>
        </g>
        <g transform="matrix(4.16667,0,0,4.16667,0,-4.16667)">
            <rect x="164" y="98.5" width="151.5" height="21" style="fill:rgb(68,114,196);"/>
        </g>
        <g transform="matrix(4.16667,0,0,4.16667,0,183.333)">
            <rect x="164" y="76" width="151.5" height="21" style="fill:rgb(68,114,196);"/>
        </g>
        <g transform="matrix(4.16667,0,0,4.16667,0,370.833)">
            <rect x="174.5" y="53.5" width="130" height="21" style="fill:rgb(68,114,196);"/>
        </g>
        <g transform="matrix(4.16667,0,0,4.16667,0,560.417)">
            <rect x="191" y="31" width="97" height="20.5" style="fill:rgb(68,114,196);"/>
        </g>
        <g transform="matrix(4.16667,0,0,4.16667,0,747.917)">
            <rect x="207.5" y="8.5" width="64.5" height="20.5" style="fill:rgb(68,114,196);"/>
        </g>
        <g transform="matrix(4.16667,0,0,4.16667,0,0)">
            <text x="234.571px" y="21.5px" style="font-family:'HelveticaNeue', 'Helvetica Neue';font-size:9px;fill:rgb(254,254,254);">21</text>
        </g>
        <g transform="matrix(4.16667,0,0,4.16667,0,0)">
            <text x="234.571px" y="44px" style="font-family:'HelveticaNeue', 'Helvetica Neue';font-size:9px;fill:rgb(254,254,254);">21</text>
        </g>
        <g transform="matrix(4.16667,0,0,4.16667,0,0)">
            <text x="234.571px" y="66.5px" style="font-family:'HelveticaNeue', 'Helvetica Neue';font-size:9px;fill:rgb(254,254,254);">20</text>
        </g>
        <g transform="matrix(4.16667,0,0,4.16667,0,0)">
            <text x="234.571px" y="89px" style="font-family:'HelveticaNeue', 'Helvetica Neue';font-size:9px;fill:rgb(254,254,254);">16</text>
        </g>
        <g transform="matrix(4.16667,0,0,4.16667,0,0)">
            <text x="234.571px" y="111.5px" style="font-family:'HelveticaNeue', 'Helvetica Neue';font-size:9px;fill:rgb(254,254,254);">14</text>
        </g>
        <g transform="matrix(4.16667,0,0,4.16667,0,0)">
            <text x="234.571px" y="134px" style="font-family:'HelveticaNeue', 'Helvetica Neue';font-size:9px;fill:rgb(254,254,254);">14</text>
        </g>
        <g transform="matrix(4.16667,0,0,4.16667,0,0)">
            <text x="234.571px" y="156.5px" style="font-family:'HelveticaNeue', 'Helvetica Neue';font-size:9px;fill:rgb(254,254,254);">12</text>
        </g>
        <g transform="matrix(4.16667,0,0,4.16667,0,0)">
            <text x="237.073px" y="179px" style="font-family:'HelveticaNeue', 'Helvetica Neue';font-size:9px;fill:rgb(254,254,254);">9</text>
        </g>
        <g transform="matrix(4.16667,0,0,4.16667,0,0)">
            <text x="237.073px" y="202px" style="font-family:'HelveticaNeue', 'Helvetica Neue';font-size:9px;fill:rgb(254,254,254);">6</text>
        </g>
        <g transform="matrix(4.16667,0,0,4.16667,0,0)">
            <text x="54.872px" y="21.5px" style="font-family:'HelveticaNeue', 'Helvetica Neue';font-size:9px;fill:rgb(89,89,89);">stabikat (OPA<tspan x="110.051px " y="21.5px ">C</tspan>)</text>
        </g>
        <g transform="matrix(4.16667,0,0,4.16667,0,0)">
            <text x="86.861px" y="44px" style="font-family:'HelveticaNeue', 'Helvetica Neue';font-size:9px;fill:rgb(89,89,89);">Kalliope</text>
        </g>
        <g transform="matrix(4.16667,0,0,4.16667,0,0)">
            <text x="43.113px" y="66.5px" style="font-family:'HelveticaNeue', 'Helvetica Neue';font-size:9px;fill:rgb(89,89,89);">Einbanddatenbank</text>
        </g>
        <g transform="matrix(4.16667,0,0,4.16667,0,0)">
            <text x="5.963px" y="89px" style="font-family:'HelveticaNeue', 'Helvetica Neue';font-size:9px;fill:rgb(89,89,89);">Bibliographia Cartographica</text>
        </g>
        <g transform="matrix(4.16667,0,0,4.16667,0,0)">
            <text x="70.952px" y="111.5px" style="font-family:'HelveticaNeue', 'Helvetica Neue';font-size:9px;fill:rgb(89,89,89);">Musik-IPA<tspan x="112.459px " y="111.5px ">C</tspan></text>
        </g>
        <g transform="matrix(4.16667,0,0,4.16667,0,0)">
            <text x="66.756px" y="134px" style="font-family:'HelveticaNeue', 'Helvetica Neue';font-size:9px;fill:rgb(89,89,89);">Orient Digital</text>
        </g>
        <g transform="matrix(4.16667,0,0,4.16667,0,0)">
            <text x="18.325px" y="156.5px" style="font-family:'HelveticaNeue', 'Helvetica Neue';font-size:9px;fill:rgb(89,89,89);">Manuscripta Mediaevalia</text>
        </g>
        <g transform="matrix(4.16667,0,0,4.16667,0,0)">
            <text x="34.706px" y="179px" style="font-family:'HelveticaNeue', 'Helvetica Neue';font-size:9px;fill:rgb(89,89,89);">stabikat+ (Discovery)</text>
        </g>
        <g transform="matrix(4.16667,0,0,4.16667,0,0)">
            <text x="89.197px" y="202px" style="font-family:'HelveticaNeue', 'Helvetica Neue';font-size:9px;fill:rgb(89,89,89);">Muscat</text>
        </g>
        <g transform="matrix(0,2.08333,-2.08333,0,973.958,-73.9583)">
            <path d="M49,216L454,216" style="fill:none;fill-rule:nonzero;stroke:rgb(217,217,217);stroke-width:1.5px;"/>
        </g>
    </g>
</svg>
