<?xml version="1.0" encoding="UTF-8" standalone="no"?>
<!DOCTYPE svg PUBLIC "-//W3C//DTD SVG 1.1//EN" "http://www.w3.org/Graphics/SVG/1.1/DTD/svg11.dtd">
<svg width="100%" height="100%" viewBox="0 0 2132 845" version="1.1" xmlns="http://www.w3.org/2000/svg" xmlns:xlink="http://www.w3.org/1999/xlink" xml:space="preserve" xmlns:serif="http://www.serif.com/" style="fill-rule:evenodd;clip-rule:evenodd;stroke-linejoin:round;stroke-miterlimit:2;">
    <g transform="matrix(1,0,0,1,-140.943,-102.383)">
        <g transform="matrix(3.68011e-17,0.382816,2.06376,-7.03169e-17,-1669.87,283.701)">
            <path d="M415.213,1909.43L480.013,1909.43C580.813,1909.43 1196.82,1871.03 1196.82,1743.83C1196.82,1657.43 1186.02,1604.63 1186.02,1526.63C1186.02,1482.23 1208.82,1436.63 1289.22,1435.43L1289.22,1351.43C1208.82,1350.23 1186.02,1304.63 1186.02,1261.43C1186.02,1182.23 1196.82,1129.43 1196.82,1043.03C1196.82,915.834 580.813,877.434 480.013,877.434L415.213,877.434L415.213,953.034L442.813,953.034C500.413,953.034 1085.22,977.034 1085.22,1049.03C1085.22,1117.43 1079.22,1178.63 1079.22,1255.43C1079.22,1340.63 1103.22,1376.63 1159.62,1391.03L1159.62,1395.83C1103.22,1410.23 1079.22,1447.43 1079.22,1531.43C1079.22,1608.23 1085.22,1669.43 1085.22,1737.83C1085.22,1809.83 500.413,1833.83 442.813,1833.83L415.213,1833.83L415.213,1909.43Z" style="fill:rgb(106,106,106);fill-rule:nonzero;"/>
        </g>
        <g transform="matrix(4.16667,0,0,4.16667,-15.9045,122.117)">
            <g transform="matrix(13,0,0,13,449.655,167.318)">
                <path d="M0.083,-0L0.194,-0L0.194,-0.286C0.194,-0.36 0.186,-0.44 0.178,-0.508L0.182,-0.508C0.202,-0.456 0.226,-0.404 0.25,-0.36L0.446,-0L0.573,-0L0.573,-0.654L0.462,-0.654L0.462,-0.368C0.462,-0.296 0.47,-0.216 0.476,-0.146L0.472,-0.146C0.452,-0.198 0.43,-0.25 0.406,-0.294L0.21,-0.654L0.083,-0.654L0.083,-0Z" style="fill-rule:nonzero;"/>
            </g>
            <g transform="matrix(13,0,0,13,458.196,167.318)">
                <path d="M0.192,0.012C0.25,0.012 0.298,-0.016 0.344,-0.054L0.348,-0.054L0.356,-0L0.451,-0L0.451,-0.29C0.451,-0.428 0.39,-0.503 0.268,-0.503C0.19,-0.503 0.12,-0.474 0.066,-0.44L0.108,-0.362C0.152,-0.388 0.198,-0.408 0.246,-0.408C0.312,-0.408 0.334,-0.366 0.336,-0.316C0.134,-0.294 0.046,-0.242 0.046,-0.132C0.046,-0.046 0.106,0.012 0.192,0.012ZM0.228,-0.082C0.188,-0.082 0.158,-0.098 0.158,-0.14C0.158,-0.19 0.202,-0.22 0.336,-0.236L0.336,-0.132C0.3,-0.098 0.268,-0.082 0.228,-0.082Z" style="fill-rule:nonzero;"/>
            </g>
            <g transform="matrix(13,0,0,13,464.904,167.318)">
                <path d="M0.28,0.012C0.341,0.012 0.397,-0.012 0.438,-0.05L0.391,-0.121C0.364,-0.097 0.329,-0.082 0.291,-0.082C0.213,-0.082 0.159,-0.147 0.159,-0.245C0.159,-0.344 0.215,-0.409 0.293,-0.409C0.328,-0.409 0.354,-0.396 0.376,-0.377L0.431,-0.448C0.396,-0.481 0.35,-0.503 0.287,-0.503C0.156,-0.503 0.041,-0.409 0.041,-0.245C0.041,-0.082 0.144,0.012 0.28,0.012Z" style="fill-rule:nonzero;"/>
            </g>
            <g transform="matrix(13,0,0,13,470.91,167.318)">
                <path d="M0.073,-0L0.188,-0L0.188,-0.343C0.229,-0.383 0.257,-0.404 0.3,-0.404C0.354,-0.404 0.377,-0.374 0.377,-0.293L0.377,-0L0.492,-0L0.492,-0.308C0.492,-0.432 0.446,-0.503 0.341,-0.503C0.274,-0.503 0.225,-0.468 0.184,-0.429L0.188,-0.524L0.188,-0.706L0.073,-0.706L0.073,-0Z" style="fill-rule:nonzero;"/>
            </g>
            <g transform="matrix(13,0,0,13,480.764,167.318)">
                <path d="M0.245,0.012C0.298,0.012 0.348,-0.017 0.384,-0.053L0.388,-0.053L0.396,-0L0.491,-0L0.491,-0.706L0.376,-0.706L0.376,-0.528L0.38,-0.449C0.342,-0.482 0.307,-0.503 0.251,-0.503C0.144,-0.503 0.043,-0.405 0.043,-0.245C0.043,-0.083 0.122,0.012 0.245,0.012ZM0.273,-0.083C0.202,-0.083 0.162,-0.14 0.162,-0.246C0.162,-0.349 0.213,-0.408 0.276,-0.408C0.309,-0.408 0.342,-0.397 0.376,-0.367L0.376,-0.138C0.343,-0.1 0.311,-0.083 0.273,-0.083Z" style="fill-rule:nonzero;"/>
            </g>
            <g transform="matrix(13,0,0,13,488.096,167.318)">
                <path d="M0.27,-0.412C0.336,-0.412 0.368,-0.368 0.368,-0.298L0.158,-0.298C0.172,-0.385 0.222,-0.412 0.27,-0.412ZM0.284,0.012C0.346,0.012 0.406,-0.008 0.452,-0.04L0.412,-0.114C0.378,-0.092 0.34,-0.08 0.298,-0.08C0.23,-0.08 0.169,-0.12 0.156,-0.21L0.464,-0.21C0.468,-0.228 0.47,-0.248 0.47,-0.27C0.47,-0.406 0.402,-0.503 0.268,-0.503C0.152,-0.503 0.04,-0.406 0.04,-0.246C0.04,-0.082 0.146,0.012 0.284,0.012Z" style="fill-rule:nonzero;"/>
            </g>
            <g transform="matrix(13,0,0,13,494.687,167.318)">
                <path d="M0.073,-0L0.188,-0L0.188,-0.3C0.218,-0.374 0.265,-0.401 0.304,-0.401C0.325,-0.401 0.336,-0.399 0.352,-0.395L0.375,-0.493C0.36,-0.5 0.344,-0.503 0.319,-0.503C0.266,-0.503 0.214,-0.468 0.18,-0.404L0.176,-0.404L0.168,-0.491L0.073,-0.491L0.073,-0Z" style="fill-rule:nonzero;"/>
            </g>
            <g transform="matrix(13,0,0,13,502.136,167.318)">
                <path d="M0.083,-0L0.194,-0L0.194,-0.286C0.194,-0.36 0.186,-0.44 0.178,-0.508L0.182,-0.508C0.202,-0.456 0.226,-0.404 0.25,-0.36L0.446,-0L0.573,-0L0.573,-0.654L0.462,-0.654L0.462,-0.368C0.462,-0.296 0.47,-0.216 0.476,-0.146L0.472,-0.146C0.452,-0.198 0.43,-0.25 0.406,-0.294L0.21,-0.654L0.083,-0.654L0.083,-0Z" style="fill-rule:nonzero;"/>
            </g>
            <g transform="matrix(13,0,0,13,510.677,167.318)">
                <path d="M0.219,0.012C0.286,0.012 0.334,-0.021 0.377,-0.072L0.38,-0.072L0.389,-0L0.483,-0L0.483,-0.491L0.368,-0.491L0.368,-0.155C0.331,-0.107 0.302,-0.087 0.259,-0.087C0.206,-0.087 0.183,-0.117 0.183,-0.198L0.183,-0.491L0.068,-0.491L0.068,-0.183C0.068,-0.059 0.114,0.012 0.219,0.012Z" style="fill-rule:nonzero;"/>
            </g>
            <g transform="matrix(13,0,0,13,517.905,167.318)">
                <path d="M0.246,0.01C0.286,0.01 0.321,0.001 0.347,-0.01L0.326,-0.091C0.31,-0.084 0.292,-0.081 0.275,-0.081C0.228,-0.081 0.206,-0.11 0.206,-0.167L0.206,-0.4L0.331,-0.4L0.331,-0.491L0.206,-0.491L0.206,-0.645L0.11,-0.645L0.096,-0.491L0.02,-0.486L0.02,-0.4L0.09,-0.4L0.09,-0.167C0.09,-0.061 0.132,0.01 0.246,0.01Z" style="fill-rule:nonzero;"/>
            </g>
            <g transform="matrix(13,0,0,13,522.598,167.318)">
                <path d="M0.034,-0L0.418,-0L0.418,-0.092L0.179,-0.092L0.41,-0.43L0.41,-0.491L0.06,-0.491L0.06,-0.4L0.266,-0.4L0.034,-0.062L0.034,-0Z" style="fill-rule:nonzero;"/>
            </g>
            <g transform="matrix(13,0,0,13,528.227,167.318)">
                <path d="M0.219,0.012C0.286,0.012 0.334,-0.021 0.377,-0.072L0.38,-0.072L0.389,-0L0.483,-0L0.483,-0.491L0.368,-0.491L0.368,-0.155C0.331,-0.107 0.302,-0.087 0.259,-0.087C0.206,-0.087 0.183,-0.117 0.183,-0.198L0.183,-0.491L0.068,-0.491L0.068,-0.183C0.068,-0.059 0.114,0.012 0.219,0.012Z" style="fill-rule:nonzero;"/>
            </g>
            <g transform="matrix(13,0,0,13,535.455,167.318)">
                <path d="M0.073,-0L0.188,-0L0.188,-0.343C0.229,-0.383 0.257,-0.404 0.3,-0.404C0.354,-0.404 0.377,-0.374 0.377,-0.293L0.377,-0L0.492,-0L0.492,-0.308C0.492,-0.432 0.446,-0.503 0.341,-0.503C0.274,-0.503 0.224,-0.468 0.18,-0.425L0.176,-0.425L0.168,-0.491L0.073,-0.491L0.073,-0Z" style="fill-rule:nonzero;"/>
            </g>
            <g transform="matrix(13,0,0,13,542.735,167.318)">
                <path d="M0.244,0.217C0.404,0.217 0.506,0.141 0.506,0.044C0.506,-0.041 0.444,-0.077 0.326,-0.077L0.239,-0.077C0.179,-0.077 0.159,-0.094 0.159,-0.122C0.159,-0.144 0.168,-0.156 0.183,-0.169C0.205,-0.16 0.229,-0.156 0.25,-0.156C0.354,-0.156 0.436,-0.214 0.436,-0.322C0.436,-0.356 0.424,-0.382 0.406,-0.402L0.406,-0.406L0.498,-0.406L0.498,-0.491L0.322,-0.491C0.302,-0.498 0.277,-0.503 0.25,-0.503C0.147,-0.503 0.056,-0.44 0.056,-0.327C0.056,-0.269 0.087,-0.222 0.12,-0.197L0.12,-0.193C0.092,-0.173 0.066,-0.14 0.066,-0.102C0.066,-0.062 0.085,-0.036 0.11,-0.02L0.11,-0.016C0.065,0.012 0.04,0.048 0.04,0.089C0.04,0.175 0.127,0.217 0.244,0.217ZM0.25,-0.228C0.202,-0.228 0.164,-0.264 0.164,-0.327C0.164,-0.389 0.202,-0.424 0.25,-0.424C0.298,-0.424 0.335,-0.389 0.335,-0.327C0.335,-0.264 0.297,-0.228 0.25,-0.228ZM0.262,0.142C0.184,0.142 0.136,0.116 0.136,0.072C0.136,0.049 0.148,0.027 0.174,0.007C0.193,0.012 0.214,0.014 0.241,0.014L0.308,0.014C0.364,0.014 0.395,0.025 0.395,0.063C0.395,0.105 0.341,0.142 0.262,0.142Z" style="fill-rule:nonzero;"/>
            </g>
        </g>
        <g transform="matrix(1,0,0,1,-670.025,0)">
            <g transform="matrix(1,0,0,1,618.153,-38.0168)">
                <path d="M1576.69,657.618L1576.69,822.898C1576.69,868.508 1539.66,905.538 1494.05,905.538L1021.38,905.538C975.774,905.538 938.744,868.508 938.744,822.898L938.744,657.618C938.744,612.008 975.774,574.978 1021.38,574.978L1494.05,574.978C1539.66,574.978 1576.69,612.008 1576.69,657.618Z" style="fill:rgb(39,128,227);"/>
            </g>
            <g transform="matrix(1.31589,0,0,1.4795,-1539.8,-624.359)">
                <path d="M2426.19,927.122L2426.19,866.187L2667.35,866.187L2667.35,809.605L2765.22,896.654L2667.35,983.703L2667.35,927.122L2426.19,927.122Z" style="fill:white;"/>
            </g>
        </g>
        <g transform="matrix(4.16667,0,0,4.16667,-14.1783,237.538)">
            <g transform="matrix(13,0,0,13,232.063,167.318)">
                <path d="M0.144,-0L0.298,-0L0.374,-0.344C0.385,-0.392 0.392,-0.442 0.398,-0.502L0.402,-0.502C0.41,-0.442 0.418,-0.392 0.428,-0.344L0.502,-0L0.656,-0L0.782,-0.654L0.664,-0.654L0.608,-0.324C0.598,-0.255 0.588,-0.186 0.58,-0.11L0.576,-0.11C0.564,-0.186 0.549,-0.256 0.534,-0.324L0.46,-0.654L0.346,-0.654L0.27,-0.324C0.255,-0.255 0.242,-0.186 0.23,-0.11L0.226,-0.11C0.218,-0.186 0.209,-0.254 0.198,-0.324L0.142,-0.654L0.018,-0.654L0.144,-0Z" style="fill-rule:nonzero;"/>
            </g>
            <g transform="matrix(13,0,0,13,242.281,167.318)">
                <path d="M0.192,0.012C0.25,0.012 0.298,-0.016 0.344,-0.054L0.348,-0.054L0.356,-0L0.451,-0L0.451,-0.29C0.451,-0.428 0.39,-0.503 0.268,-0.503C0.19,-0.503 0.12,-0.474 0.066,-0.44L0.108,-0.362C0.152,-0.388 0.198,-0.408 0.246,-0.408C0.312,-0.408 0.334,-0.366 0.336,-0.316C0.134,-0.294 0.046,-0.242 0.046,-0.132C0.046,-0.046 0.106,0.012 0.192,0.012ZM0.228,-0.082C0.188,-0.082 0.158,-0.098 0.158,-0.14C0.158,-0.19 0.202,-0.22 0.336,-0.236L0.336,-0.132C0.3,-0.098 0.268,-0.082 0.228,-0.082ZM0.169,-0.578C0.205,-0.578 0.23,-0.605 0.23,-0.639C0.23,-0.673 0.205,-0.7 0.169,-0.7C0.134,-0.7 0.108,-0.673 0.108,-0.639C0.108,-0.605 0.134,-0.578 0.169,-0.578ZM0.375,-0.578C0.41,-0.578 0.436,-0.605 0.436,-0.639C0.436,-0.673 0.41,-0.7 0.375,-0.7C0.339,-0.7 0.314,-0.673 0.314,-0.639C0.314,-0.605 0.339,-0.578 0.375,-0.578Z" style="fill-rule:nonzero;"/>
            </g>
            <g transform="matrix(13,0,0,13,248.989,167.318)">
                <path d="M0.073,-0L0.188,-0L0.188,-0.343C0.229,-0.383 0.257,-0.404 0.3,-0.404C0.354,-0.404 0.377,-0.374 0.377,-0.293L0.377,-0L0.492,-0L0.492,-0.308C0.492,-0.432 0.446,-0.503 0.341,-0.503C0.274,-0.503 0.225,-0.468 0.184,-0.429L0.188,-0.524L0.188,-0.706L0.073,-0.706L0.073,-0Z" style="fill-rule:nonzero;"/>
            </g>
            <g transform="matrix(13,0,0,13,256.243,167.318)">
                <path d="M0.073,-0L0.188,-0L0.188,-0.3C0.218,-0.374 0.265,-0.401 0.304,-0.401C0.325,-0.401 0.336,-0.399 0.352,-0.395L0.375,-0.493C0.36,-0.5 0.344,-0.503 0.319,-0.503C0.266,-0.503 0.214,-0.468 0.18,-0.404L0.176,-0.404L0.168,-0.491L0.073,-0.491L0.073,-0Z" style="fill-rule:nonzero;"/>
            </g>
            <g transform="matrix(13,0,0,13,260.962,167.318)">
                <path d="M0.27,-0.412C0.336,-0.412 0.368,-0.368 0.368,-0.298L0.158,-0.298C0.172,-0.385 0.222,-0.412 0.27,-0.412ZM0.284,0.012C0.346,0.012 0.406,-0.008 0.452,-0.04L0.412,-0.114C0.378,-0.092 0.34,-0.08 0.298,-0.08C0.23,-0.08 0.169,-0.12 0.156,-0.21L0.464,-0.21C0.468,-0.228 0.47,-0.248 0.47,-0.27C0.47,-0.406 0.402,-0.503 0.268,-0.503C0.152,-0.503 0.04,-0.406 0.04,-0.246C0.04,-0.082 0.146,0.012 0.284,0.012Z" style="fill-rule:nonzero;"/>
            </g>
            <g transform="matrix(13,0,0,13,267.553,167.318)">
                <path d="M0.073,-0L0.188,-0L0.188,-0.343C0.229,-0.383 0.257,-0.404 0.3,-0.404C0.354,-0.404 0.377,-0.374 0.377,-0.293L0.377,-0L0.492,-0L0.492,-0.308C0.492,-0.432 0.446,-0.503 0.341,-0.503C0.274,-0.503 0.224,-0.468 0.18,-0.425L0.176,-0.425L0.168,-0.491L0.073,-0.491L0.073,-0Z" style="fill-rule:nonzero;"/>
            </g>
            <g transform="matrix(13,0,0,13,274.833,167.318)">
                <path d="M0.245,0.012C0.298,0.012 0.348,-0.017 0.384,-0.053L0.388,-0.053L0.396,-0L0.491,-0L0.491,-0.706L0.376,-0.706L0.376,-0.528L0.38,-0.449C0.342,-0.482 0.307,-0.503 0.251,-0.503C0.144,-0.503 0.043,-0.405 0.043,-0.245C0.043,-0.083 0.122,0.012 0.245,0.012ZM0.273,-0.083C0.202,-0.083 0.162,-0.14 0.162,-0.246C0.162,-0.349 0.213,-0.408 0.276,-0.408C0.309,-0.408 0.342,-0.397 0.376,-0.367L0.376,-0.138C0.343,-0.1 0.311,-0.083 0.273,-0.083Z" style="fill-rule:nonzero;"/>
            </g>
            <g transform="matrix(13,0,0,13,284.765,167.318)">
                <path d="M0.245,0.012C0.298,0.012 0.348,-0.017 0.384,-0.053L0.388,-0.053L0.396,-0L0.491,-0L0.491,-0.706L0.376,-0.706L0.376,-0.528L0.38,-0.449C0.342,-0.482 0.307,-0.503 0.251,-0.503C0.144,-0.503 0.043,-0.405 0.043,-0.245C0.043,-0.083 0.122,0.012 0.245,0.012ZM0.273,-0.083C0.202,-0.083 0.162,-0.14 0.162,-0.246C0.162,-0.349 0.213,-0.408 0.276,-0.408C0.309,-0.408 0.342,-0.397 0.376,-0.367L0.376,-0.138C0.343,-0.1 0.311,-0.083 0.273,-0.083Z" style="fill-rule:nonzero;"/>
            </g>
            <g transform="matrix(13,0,0,13,292.097,167.318)">
                <path d="M0.27,-0.412C0.336,-0.412 0.368,-0.368 0.368,-0.298L0.158,-0.298C0.172,-0.385 0.222,-0.412 0.27,-0.412ZM0.284,0.012C0.346,0.012 0.406,-0.008 0.452,-0.04L0.412,-0.114C0.378,-0.092 0.34,-0.08 0.298,-0.08C0.23,-0.08 0.169,-0.12 0.156,-0.21L0.464,-0.21C0.468,-0.228 0.47,-0.248 0.47,-0.27C0.47,-0.406 0.402,-0.503 0.268,-0.503C0.152,-0.503 0.04,-0.406 0.04,-0.246C0.04,-0.082 0.146,0.012 0.284,0.012Z" style="fill-rule:nonzero;"/>
            </g>
            <g transform="matrix(13,0,0,13,298.688,167.318)">
                <path d="M0.073,-0L0.188,-0L0.188,-0.3C0.218,-0.374 0.265,-0.401 0.304,-0.401C0.325,-0.401 0.336,-0.399 0.352,-0.395L0.375,-0.493C0.36,-0.5 0.344,-0.503 0.319,-0.503C0.266,-0.503 0.214,-0.468 0.18,-0.404L0.176,-0.404L0.168,-0.491L0.073,-0.491L0.073,-0Z" style="fill-rule:nonzero;"/>
            </g>
            <g transform="matrix(13,0,0,13,306.137,167.318)">
                <path d="M0.083,-0L0.194,-0L0.194,-0.286C0.194,-0.36 0.186,-0.44 0.178,-0.508L0.182,-0.508C0.202,-0.456 0.226,-0.404 0.25,-0.36L0.446,-0L0.573,-0L0.573,-0.654L0.462,-0.654L0.462,-0.368C0.462,-0.296 0.47,-0.216 0.476,-0.146L0.472,-0.146C0.452,-0.198 0.43,-0.25 0.406,-0.294L0.21,-0.654L0.083,-0.654L0.083,-0Z" style="fill-rule:nonzero;"/>
            </g>
            <g transform="matrix(13,0,0,13,314.678,167.318)">
                <path d="M0.219,0.012C0.286,0.012 0.334,-0.021 0.377,-0.072L0.38,-0.072L0.389,-0L0.483,-0L0.483,-0.491L0.368,-0.491L0.368,-0.155C0.331,-0.107 0.302,-0.087 0.259,-0.087C0.206,-0.087 0.183,-0.117 0.183,-0.198L0.183,-0.491L0.068,-0.491L0.068,-0.183C0.068,-0.059 0.114,0.012 0.219,0.012Z" style="fill-rule:nonzero;"/>
            </g>
            <g transform="matrix(13,0,0,13,321.906,167.318)">
                <path d="M0.246,0.01C0.286,0.01 0.321,0.001 0.347,-0.01L0.326,-0.091C0.31,-0.084 0.292,-0.081 0.275,-0.081C0.228,-0.081 0.206,-0.11 0.206,-0.167L0.206,-0.4L0.331,-0.4L0.331,-0.491L0.206,-0.491L0.206,-0.645L0.11,-0.645L0.096,-0.491L0.02,-0.486L0.02,-0.4L0.09,-0.4L0.09,-0.167C0.09,-0.061 0.132,0.01 0.246,0.01Z" style="fill-rule:nonzero;"/>
            </g>
            <g transform="matrix(13,0,0,13,326.599,167.318)">
                <path d="M0.034,-0L0.418,-0L0.418,-0.092L0.179,-0.092L0.41,-0.43L0.41,-0.491L0.06,-0.491L0.06,-0.4L0.266,-0.4L0.034,-0.062L0.034,-0Z" style="fill-rule:nonzero;"/>
            </g>
            <g transform="matrix(13,0,0,13,332.228,167.318)">
                <path d="M0.219,0.012C0.286,0.012 0.334,-0.021 0.377,-0.072L0.38,-0.072L0.389,-0L0.483,-0L0.483,-0.491L0.368,-0.491L0.368,-0.155C0.331,-0.107 0.302,-0.087 0.259,-0.087C0.206,-0.087 0.183,-0.117 0.183,-0.198L0.183,-0.491L0.068,-0.491L0.068,-0.183C0.068,-0.059 0.114,0.012 0.219,0.012Z" style="fill-rule:nonzero;"/>
            </g>
            <g transform="matrix(13,0,0,13,339.456,167.318)">
                <path d="M0.073,-0L0.188,-0L0.188,-0.343C0.229,-0.383 0.257,-0.404 0.3,-0.404C0.354,-0.404 0.377,-0.374 0.377,-0.293L0.377,-0L0.492,-0L0.492,-0.308C0.492,-0.432 0.446,-0.503 0.341,-0.503C0.274,-0.503 0.224,-0.468 0.18,-0.425L0.176,-0.425L0.168,-0.491L0.073,-0.491L0.073,-0Z" style="fill-rule:nonzero;"/>
            </g>
            <g transform="matrix(13,0,0,13,346.736,167.318)">
                <path d="M0.244,0.217C0.404,0.217 0.506,0.141 0.506,0.044C0.506,-0.041 0.444,-0.077 0.326,-0.077L0.239,-0.077C0.179,-0.077 0.159,-0.094 0.159,-0.122C0.159,-0.144 0.168,-0.156 0.183,-0.169C0.205,-0.16 0.229,-0.156 0.25,-0.156C0.354,-0.156 0.436,-0.214 0.436,-0.322C0.436,-0.356 0.424,-0.382 0.406,-0.402L0.406,-0.406L0.498,-0.406L0.498,-0.491L0.322,-0.491C0.302,-0.498 0.277,-0.503 0.25,-0.503C0.147,-0.503 0.056,-0.44 0.056,-0.327C0.056,-0.269 0.087,-0.222 0.12,-0.197L0.12,-0.193C0.092,-0.173 0.066,-0.14 0.066,-0.102C0.066,-0.062 0.085,-0.036 0.11,-0.02L0.11,-0.016C0.065,0.012 0.04,0.048 0.04,0.089C0.04,0.175 0.127,0.217 0.244,0.217ZM0.25,-0.228C0.202,-0.228 0.164,-0.264 0.164,-0.327C0.164,-0.389 0.202,-0.424 0.25,-0.424C0.298,-0.424 0.335,-0.389 0.335,-0.327C0.335,-0.264 0.297,-0.228 0.25,-0.228ZM0.262,0.142C0.184,0.142 0.136,0.116 0.136,0.072C0.136,0.049 0.148,0.027 0.174,0.007C0.193,0.012 0.214,0.014 0.241,0.014L0.308,0.014C0.364,0.014 0.395,0.025 0.395,0.063C0.395,0.105 0.341,0.142 0.262,0.142Z" style="fill-rule:nonzero;"/>
            </g>
        </g>
        <g transform="matrix(4.16667,0,0,4.16667,105.526,122.117)">
            <g transform="matrix(13,0,0,13,41.9335,167.318)">
                <path d="M0.196,-0L0.333,-0L0.54,-0.654L0.421,-0.654L0.326,-0.325C0.305,-0.25 0.29,-0.188 0.269,-0.113L0.265,-0.113C0.244,-0.188 0.227,-0.25 0.207,-0.325L0.119,-0.654L-0.004,-0.654L0.196,-0Z" style="fill-rule:nonzero;"/>
            </g>
            <g transform="matrix(13,0,0,13,48.6805,167.318)">
                <path d="M0.274,0.012C0.397,0.012 0.508,-0.082 0.508,-0.245C0.508,-0.409 0.397,-0.503 0.274,-0.503C0.152,-0.503 0.041,-0.409 0.041,-0.245C0.041,-0.082 0.152,0.012 0.274,0.012ZM0.274,-0.082C0.202,-0.082 0.159,-0.147 0.159,-0.245C0.159,-0.344 0.202,-0.409 0.274,-0.409C0.346,-0.409 0.39,-0.344 0.39,-0.245C0.39,-0.147 0.346,-0.082 0.274,-0.082Z" style="fill-rule:nonzero;"/>
            </g>
            <g transform="matrix(13,0,0,13,55.8175,167.318)">
                <path d="M0.073,-0L0.188,-0L0.188,-0.3C0.218,-0.374 0.265,-0.401 0.304,-0.401C0.325,-0.401 0.336,-0.399 0.352,-0.395L0.375,-0.493C0.36,-0.5 0.344,-0.503 0.319,-0.503C0.266,-0.503 0.214,-0.468 0.18,-0.404L0.176,-0.404L0.168,-0.491L0.073,-0.491L0.073,-0Z" style="fill-rule:nonzero;"/>
            </g>
            <g transform="matrix(13,0,0,13,63.2665,167.318)">
                <path d="M0.245,0.012C0.298,0.012 0.348,-0.017 0.384,-0.053L0.388,-0.053L0.396,-0L0.491,-0L0.491,-0.706L0.376,-0.706L0.376,-0.528L0.38,-0.449C0.342,-0.482 0.307,-0.503 0.251,-0.503C0.144,-0.503 0.043,-0.405 0.043,-0.245C0.043,-0.083 0.122,0.012 0.245,0.012ZM0.273,-0.083C0.202,-0.083 0.162,-0.14 0.162,-0.246C0.162,-0.349 0.213,-0.408 0.276,-0.408C0.309,-0.408 0.342,-0.397 0.376,-0.367L0.376,-0.138C0.343,-0.1 0.311,-0.083 0.273,-0.083Z" style="fill-rule:nonzero;"/>
            </g>
            <g transform="matrix(13,0,0,13,70.5985,167.318)">
                <path d="M0.27,-0.412C0.336,-0.412 0.368,-0.368 0.368,-0.298L0.158,-0.298C0.172,-0.385 0.222,-0.412 0.27,-0.412ZM0.284,0.012C0.346,0.012 0.406,-0.008 0.452,-0.04L0.412,-0.114C0.378,-0.092 0.34,-0.08 0.298,-0.08C0.23,-0.08 0.169,-0.12 0.156,-0.21L0.464,-0.21C0.468,-0.228 0.47,-0.248 0.47,-0.27C0.47,-0.406 0.402,-0.503 0.268,-0.503C0.152,-0.503 0.04,-0.406 0.04,-0.246C0.04,-0.082 0.146,0.012 0.284,0.012Z" style="fill-rule:nonzero;"/>
            </g>
            <g transform="matrix(13,0,0,13,77.1895,167.318)">
                <path d="M0.073,-0L0.188,-0L0.188,-0.3C0.218,-0.374 0.265,-0.401 0.304,-0.401C0.325,-0.401 0.336,-0.399 0.352,-0.395L0.375,-0.493C0.36,-0.5 0.344,-0.503 0.319,-0.503C0.266,-0.503 0.214,-0.468 0.18,-0.404L0.176,-0.404L0.168,-0.491L0.073,-0.491L0.073,-0Z" style="fill-rule:nonzero;"/>
            </g>
            <g transform="matrix(13,0,0,13,84.6385,167.318)">
                <path d="M0.083,-0L0.194,-0L0.194,-0.286C0.194,-0.36 0.186,-0.44 0.178,-0.508L0.182,-0.508C0.202,-0.456 0.226,-0.404 0.25,-0.36L0.446,-0L0.573,-0L0.573,-0.654L0.462,-0.654L0.462,-0.368C0.462,-0.296 0.47,-0.216 0.476,-0.146L0.472,-0.146C0.452,-0.198 0.43,-0.25 0.406,-0.294L0.21,-0.654L0.083,-0.654L0.083,-0Z" style="fill-rule:nonzero;"/>
            </g>
            <g transform="matrix(13,0,0,13,93.1795,167.318)">
                <path d="M0.219,0.012C0.286,0.012 0.334,-0.021 0.377,-0.072L0.38,-0.072L0.389,-0L0.483,-0L0.483,-0.491L0.368,-0.491L0.368,-0.155C0.331,-0.107 0.302,-0.087 0.259,-0.087C0.206,-0.087 0.183,-0.117 0.183,-0.198L0.183,-0.491L0.068,-0.491L0.068,-0.183C0.068,-0.059 0.114,0.012 0.219,0.012Z" style="fill-rule:nonzero;"/>
            </g>
            <g transform="matrix(13,0,0,13,100.407,167.318)">
                <path d="M0.246,0.01C0.286,0.01 0.321,0.001 0.347,-0.01L0.326,-0.091C0.31,-0.084 0.292,-0.081 0.275,-0.081C0.228,-0.081 0.206,-0.11 0.206,-0.167L0.206,-0.4L0.331,-0.4L0.331,-0.491L0.206,-0.491L0.206,-0.645L0.11,-0.645L0.096,-0.491L0.02,-0.486L0.02,-0.4L0.09,-0.4L0.09,-0.167C0.09,-0.061 0.132,0.01 0.246,0.01Z" style="fill-rule:nonzero;"/>
            </g>
            <g transform="matrix(13,0,0,13,105.1,167.318)">
                <path d="M0.034,-0L0.418,-0L0.418,-0.092L0.179,-0.092L0.41,-0.43L0.41,-0.491L0.06,-0.491L0.06,-0.4L0.266,-0.4L0.034,-0.062L0.034,-0Z" style="fill-rule:nonzero;"/>
            </g>
            <g transform="matrix(13,0,0,13,110.729,167.318)">
                <path d="M0.219,0.012C0.286,0.012 0.334,-0.021 0.377,-0.072L0.38,-0.072L0.389,-0L0.483,-0L0.483,-0.491L0.368,-0.491L0.368,-0.155C0.331,-0.107 0.302,-0.087 0.259,-0.087C0.206,-0.087 0.183,-0.117 0.183,-0.198L0.183,-0.491L0.068,-0.491L0.068,-0.183C0.068,-0.059 0.114,0.012 0.219,0.012Z" style="fill-rule:nonzero;"/>
            </g>
            <g transform="matrix(13,0,0,13,117.957,167.318)">
                <path d="M0.073,-0L0.188,-0L0.188,-0.343C0.229,-0.383 0.257,-0.404 0.3,-0.404C0.354,-0.404 0.377,-0.374 0.377,-0.293L0.377,-0L0.492,-0L0.492,-0.308C0.492,-0.432 0.446,-0.503 0.341,-0.503C0.274,-0.503 0.224,-0.468 0.18,-0.425L0.176,-0.425L0.168,-0.491L0.073,-0.491L0.073,-0Z" style="fill-rule:nonzero;"/>
            </g>
            <g transform="matrix(13,0,0,13,125.237,167.318)">
                <path d="M0.244,0.217C0.404,0.217 0.506,0.141 0.506,0.044C0.506,-0.041 0.444,-0.077 0.326,-0.077L0.239,-0.077C0.179,-0.077 0.159,-0.094 0.159,-0.122C0.159,-0.144 0.168,-0.156 0.183,-0.169C0.205,-0.16 0.229,-0.156 0.25,-0.156C0.354,-0.156 0.436,-0.214 0.436,-0.322C0.436,-0.356 0.424,-0.382 0.406,-0.402L0.406,-0.406L0.498,-0.406L0.498,-0.491L0.322,-0.491C0.302,-0.498 0.277,-0.503 0.25,-0.503C0.147,-0.503 0.056,-0.44 0.056,-0.327C0.056,-0.269 0.087,-0.222 0.12,-0.197L0.12,-0.193C0.092,-0.173 0.066,-0.14 0.066,-0.102C0.066,-0.062 0.085,-0.036 0.11,-0.02L0.11,-0.016C0.065,0.012 0.04,0.048 0.04,0.089C0.04,0.175 0.127,0.217 0.244,0.217ZM0.25,-0.228C0.202,-0.228 0.164,-0.264 0.164,-0.327C0.164,-0.389 0.202,-0.424 0.25,-0.424C0.298,-0.424 0.335,-0.389 0.335,-0.327C0.335,-0.264 0.297,-0.228 0.25,-0.228ZM0.262,0.142C0.184,0.142 0.136,0.116 0.136,0.072C0.136,0.049 0.148,0.027 0.174,0.007C0.193,0.012 0.214,0.014 0.241,0.014L0.308,0.014C0.364,0.014 0.395,0.025 0.395,0.063C0.395,0.105 0.341,0.142 0.262,0.142Z" style="fill-rule:nonzero;"/>
            </g>
        </g>
        <g transform="matrix(4.16667,0,0,4.16667,-39.025,117.85)">
            <g transform="matrix(16,0,0,16,267.745,75.8061)">
                <path d="M0.328,0.012C0.48,0.012 0.575,-0.07 0.575,-0.281L0.575,-0.654L0.464,-0.654L0.464,-0.272C0.464,-0.134 0.408,-0.089 0.328,-0.089C0.249,-0.089 0.196,-0.134 0.196,-0.272L0.196,-0.654L0.08,-0.654L0.08,-0.281C0.08,-0.07 0.177,0.012 0.328,0.012Z" style="fill:rgb(39,128,227);fill-rule:nonzero;"/>
            </g>
            <g transform="matrix(16,0,0,16,278.129,75.8061)">
                <path d="M0.21,0.012C0.334,0.012 0.401,-0.056 0.401,-0.14C0.401,-0.226 0.334,-0.264 0.258,-0.29C0.196,-0.311 0.16,-0.326 0.16,-0.362C0.16,-0.392 0.183,-0.416 0.233,-0.416C0.272,-0.416 0.308,-0.404 0.343,-0.379L0.394,-0.444C0.354,-0.478 0.297,-0.503 0.23,-0.503C0.12,-0.503 0.052,-0.442 0.052,-0.356C0.052,-0.278 0.118,-0.238 0.189,-0.212C0.243,-0.192 0.292,-0.175 0.292,-0.134C0.292,-0.1 0.267,-0.075 0.214,-0.075C0.163,-0.075 0.118,-0.09 0.075,-0.126L0.024,-0.06C0.072,-0.014 0.142,0.012 0.21,0.012Z" style="fill:rgb(39,128,227);fill-rule:nonzero;"/>
            </g>
            <g transform="matrix(16,0,0,16,285.025,75.8061)">
                <path d="M0.192,0.012C0.25,0.012 0.298,-0.016 0.344,-0.054L0.348,-0.054L0.356,-0L0.451,-0L0.451,-0.29C0.451,-0.428 0.39,-0.503 0.268,-0.503C0.19,-0.503 0.12,-0.474 0.066,-0.44L0.108,-0.362C0.152,-0.388 0.198,-0.408 0.246,-0.408C0.312,-0.408 0.334,-0.366 0.336,-0.316C0.134,-0.294 0.046,-0.242 0.046,-0.132C0.046,-0.046 0.106,0.012 0.192,0.012ZM0.228,-0.082C0.188,-0.082 0.158,-0.098 0.158,-0.14C0.158,-0.19 0.202,-0.22 0.336,-0.236L0.336,-0.132C0.3,-0.098 0.268,-0.082 0.228,-0.082Z" style="fill:rgb(39,128,227);fill-rule:nonzero;"/>
            </g>
            <g transform="matrix(16,0,0,16,293.281,75.8061)">
                <path d="M0.311,0.012C0.42,0.012 0.521,-0.085 0.521,-0.254C0.521,-0.405 0.45,-0.503 0.327,-0.503C0.277,-0.503 0.226,-0.478 0.185,-0.442L0.188,-0.524L0.188,-0.706L0.073,-0.706L0.073,-0L0.164,-0L0.174,-0.052L0.177,-0.052C0.218,-0.011 0.266,0.012 0.311,0.012ZM0.287,-0.083C0.258,-0.083 0.223,-0.094 0.188,-0.124L0.188,-0.353C0.226,-0.39 0.26,-0.408 0.296,-0.408C0.37,-0.408 0.402,-0.35 0.402,-0.252C0.402,-0.141 0.352,-0.083 0.287,-0.083Z" style="fill:rgb(39,128,227);fill-rule:nonzero;"/>
            </g>
            <g transform="matrix(16,0,0,16,302.289,75.8061)">
                <path d="M0.073,-0L0.188,-0L0.188,-0.491L0.073,-0.491L0.073,-0ZM0.13,-0.577C0.171,-0.577 0.199,-0.603 0.199,-0.643C0.199,-0.682 0.171,-0.708 0.13,-0.708C0.089,-0.708 0.061,-0.682 0.061,-0.643C0.061,-0.603 0.089,-0.577 0.13,-0.577Z" style="fill:rgb(39,128,227);fill-rule:nonzero;"/>
            </g>
            <g transform="matrix(16,0,0,16,306.481,75.8061)">
                <path d="M0.185,0.01C0.212,0.01 0.232,0.006 0.246,-0L0.231,-0.086C0.223,-0.084 0.219,-0.084 0.214,-0.084C0.201,-0.084 0.188,-0.093 0.188,-0.122L0.188,-0.706L0.073,-0.706L0.073,-0.128C0.073,-0.042 0.103,0.01 0.185,0.01Z" style="fill:rgb(39,128,227);fill-rule:nonzero;"/>
            </g>
            <g transform="matrix(16,0,0,16,310.817,75.8061)">
                <path d="M0.073,-0L0.188,-0L0.188,-0.491L0.073,-0.491L0.073,-0ZM0.13,-0.577C0.171,-0.577 0.199,-0.603 0.199,-0.643C0.199,-0.682 0.171,-0.708 0.13,-0.708C0.089,-0.708 0.061,-0.682 0.061,-0.643C0.061,-0.603 0.089,-0.577 0.13,-0.577Z" style="fill:rgb(39,128,227);fill-rule:nonzero;"/>
            </g>
            <g transform="matrix(16,0,0,16,315.009,75.8061)">
                <path d="M0.246,0.01C0.286,0.01 0.321,0.001 0.347,-0.01L0.326,-0.091C0.31,-0.084 0.292,-0.081 0.275,-0.081C0.228,-0.081 0.206,-0.11 0.206,-0.167L0.206,-0.4L0.331,-0.4L0.331,-0.491L0.206,-0.491L0.206,-0.645L0.11,-0.645L0.096,-0.491L0.02,-0.486L0.02,-0.4L0.09,-0.4L0.09,-0.167C0.09,-0.061 0.132,0.01 0.246,0.01Z" style="fill:rgb(39,128,227);fill-rule:nonzero;"/>
            </g>
            <g transform="matrix(16,0,0,16,320.785,75.8061)">
                <path d="M0.106,0.202C0.213,0.202 0.264,0.133 0.305,0.022L0.483,-0.491L0.372,-0.491L0.298,-0.25C0.286,-0.206 0.273,-0.157 0.261,-0.112L0.257,-0.112C0.242,-0.158 0.228,-0.207 0.214,-0.25L0.129,-0.491L0.012,-0.491L0.205,-0.006L0.196,0.025C0.18,0.074 0.15,0.109 0.098,0.109C0.087,0.109 0.077,0.108 0.064,0.104L0.042,0.19C0.06,0.198 0.079,0.202 0.106,0.202Z" style="fill:rgb(39,128,227);fill-rule:nonzero;"/>
            </g>
        </g>
        <g transform="matrix(4.16667,0,0,4.16667,-15.3021,117.85)">
            <g transform="matrix(13,0,0,13,240.523,91.2702)">
                <path d="M0.09,-0L0.258,-0C0.456,-0 0.564,-0.122 0.564,-0.331C0.564,-0.539 0.456,-0.656 0.254,-0.656L0.09,-0.656L0.09,-0ZM0.173,-0.068L0.173,-0.588L0.248,-0.588C0.401,-0.588 0.478,-0.496 0.478,-0.331C0.478,-0.165 0.401,-0.068 0.248,-0.068L0.173,-0.068Z" style="fill-rule:nonzero;"/>
            </g>
            <g transform="matrix(13,0,0,13,248.518,91.2702)">
                <rect x="0.09" y="-0.656" width="0.083" height="0.656" style="fill-rule:nonzero;"/>
            </g>
            <g transform="matrix(13,0,0,13,251.937,91.2702)">
                <path d="M0.09,-0L0.169,-0L0.169,-0.343C0.169,-0.413 0.164,-0.483 0.158,-0.549L0.162,-0.549C0.183,-0.501 0.208,-0.452 0.233,-0.408L0.466,-0L0.557,-0L0.557,-0.656L0.477,-0.656L0.477,-0.315C0.477,-0.247 0.483,-0.175 0.488,-0.107L0.484,-0.107C0.462,-0.155 0.439,-0.204 0.414,-0.248L0.181,-0.656L0.09,-0.656L0.09,-0Z" style="fill-rule:nonzero;"/>
            </g>
            <g transform="matrix(13,0,0,13,262.948,91.2702)">
                <path d="M0.09,-0L0.478,-0L0.478,-0.071L0.173,-0.071L0.173,-0.309L0.422,-0.309L0.422,-0.38L0.173,-0.38L0.173,-0.586L0.468,-0.586L0.468,-0.656L0.09,-0.656L0.09,-0Z" style="fill-rule:nonzero;"/>
            </g>
            <g transform="matrix(13,0,0,13,269.799,91.2702)">
                <path d="M0.09,-0L0.169,-0L0.169,-0.343C0.169,-0.413 0.164,-0.483 0.158,-0.549L0.162,-0.549C0.183,-0.501 0.208,-0.452 0.233,-0.408L0.466,-0L0.557,-0L0.557,-0.656L0.477,-0.656L0.477,-0.315C0.477,-0.247 0.483,-0.175 0.488,-0.107L0.484,-0.107C0.462,-0.155 0.439,-0.204 0.414,-0.248L0.181,-0.656L0.09,-0.656L0.09,-0Z" style="fill-rule:nonzero;"/>
            </g>
            <g transform="matrix(13,0,0,13,280.81,91.2702)">
                <rect x="0.09" y="-0.656" width="0.083" height="0.656" style="fill-rule:nonzero;"/>
            </g>
            <g transform="matrix(13,0,0,13,284.229,91.2702)">
                <path d="M0.272,0.012C0.411,0.012 0.495,-0.071 0.495,-0.175C0.495,-0.272 0.438,-0.317 0.36,-0.35L0.267,-0.39C0.215,-0.412 0.158,-0.436 0.158,-0.499C0.158,-0.558 0.207,-0.595 0.28,-0.595C0.338,-0.595 0.388,-0.571 0.429,-0.535L0.474,-0.589C0.428,-0.635 0.36,-0.668 0.28,-0.668C0.16,-0.668 0.074,-0.594 0.074,-0.494C0.074,-0.399 0.144,-0.352 0.207,-0.325L0.301,-0.284C0.363,-0.256 0.41,-0.235 0.41,-0.168C0.41,-0.104 0.359,-0.061 0.273,-0.061C0.203,-0.061 0.136,-0.091 0.089,-0.14L0.042,-0.086C0.099,-0.025 0.178,0.012 0.272,0.012Z" style="fill-rule:nonzero;"/>
            </g>
            <g transform="matrix(13,0,0,13,291.171,91.2702)">
                <path d="M0.332,0.012C0.497,0.012 0.613,-0.12 0.613,-0.331C0.613,-0.54 0.497,-0.668 0.332,-0.668C0.167,-0.668 0.052,-0.541 0.052,-0.331C0.052,-0.12 0.167,0.012 0.332,0.012ZM0.332,-0.061C0.215,-0.061 0.138,-0.167 0.138,-0.331C0.138,-0.494 0.215,-0.595 0.332,-0.595C0.449,-0.595 0.526,-0.494 0.526,-0.331C0.526,-0.167 0.449,-0.061 0.332,-0.061Z" style="fill-rule:nonzero;"/>
            </g>
            <g transform="matrix(13,0,0,13,302.403,91.2702)">
                <path d="M0.117,-0.445C0.117,-0.529 0.166,-0.585 0.228,-0.585C0.309,-0.585 0.358,-0.519 0.369,-0.395C0.328,-0.335 0.277,-0.31 0.235,-0.31C0.156,-0.31 0.117,-0.362 0.117,-0.445ZM0.205,0.012C0.332,0.012 0.448,-0.087 0.448,-0.343C0.448,-0.548 0.354,-0.65 0.228,-0.65C0.126,-0.65 0.04,-0.567 0.04,-0.445C0.04,-0.314 0.111,-0.248 0.221,-0.248C0.274,-0.248 0.331,-0.279 0.371,-0.33C0.368,-0.126 0.292,-0.056 0.202,-0.056C0.162,-0.056 0.123,-0.076 0.097,-0.107L0.051,-0.055C0.086,-0.017 0.137,0.012 0.205,0.012Z" style="fill-rule:nonzero;"/>
            </g>
            <g transform="matrix(13,0,0,13,308.864,91.2702)">
                <path d="M0.04,-0L0.452,-0L0.452,-0.071L0.26,-0.071C0.227,-0.071 0.188,-0.068 0.153,-0.065C0.308,-0.224 0.42,-0.339 0.42,-0.463C0.42,-0.575 0.347,-0.65 0.229,-0.65C0.147,-0.65 0.09,-0.611 0.037,-0.551L0.083,-0.506C0.12,-0.549 0.166,-0.583 0.219,-0.583C0.3,-0.583 0.34,-0.531 0.34,-0.458C0.34,-0.355 0.231,-0.237 0.04,-0.05L0.04,-0Z" style="fill-rule:nonzero;"/>
            </g>
            <g transform="matrix(13,0,0,13,315.325,91.2702)">
                <path d="M0.104,-0.242L0.253,-0.46C0.271,-0.491 0.289,-0.519 0.305,-0.55L0.309,-0.55C0.307,-0.516 0.304,-0.461 0.304,-0.427L0.304,-0.242L0.104,-0.242ZM0.304,-0L0.382,-0L0.382,-0.176L0.469,-0.176L0.469,-0.242L0.382,-0.242L0.382,-0.638L0.29,-0.638L0.017,-0.23L0.017,-0.176L0.304,-0.176L0.304,-0Z" style="fill-rule:nonzero;"/>
            </g>
            <g transform="matrix(13,0,0,13,321.786,91.2702)">
                <path d="M0.079,-0L0.439,-0L0.439,-0.068L0.307,-0.068L0.307,-0.638L0.244,-0.638C0.209,-0.617 0.167,-0.601 0.109,-0.591L0.109,-0.538L0.225,-0.538L0.225,-0.068L0.079,-0.068L0.079,-0Z" style="fill-rule:nonzero;"/>
            </g>
            <g transform="matrix(13,0,0,13,328.247,91.2702)">
                <rect x="0.041" y="-0.282" width="0.23" height="0.063" style="fill-rule:nonzero;"/>
            </g>
            <g transform="matrix(13,0,0,13,332.29,91.2702)">
                <path d="M0.079,-0L0.439,-0L0.439,-0.068L0.307,-0.068L0.307,-0.638L0.244,-0.638C0.209,-0.617 0.167,-0.601 0.109,-0.591L0.109,-0.538L0.225,-0.538L0.225,-0.068L0.079,-0.068L0.079,-0Z" style="fill-rule:nonzero;"/>
            </g>
            <g transform="matrix(13,0,0,13,338.751,91.2702)">
                <path d="M0.079,-0L0.439,-0L0.439,-0.068L0.307,-0.068L0.307,-0.638L0.244,-0.638C0.209,-0.617 0.167,-0.601 0.109,-0.591L0.109,-0.538L0.225,-0.538L0.225,-0.068L0.079,-0.068L0.079,-0Z" style="fill-rule:nonzero;"/>
            </g>
        </g>
        <g transform="matrix(4.16667,0,0,4.16667,4.54747e-13,60)">
            <g transform="matrix(16,0,0,16,234.187,21.5)">
                <path d="M0.328,0.012C0.48,0.012 0.575,-0.07 0.575,-0.281L0.575,-0.654L0.464,-0.654L0.464,-0.272C0.464,-0.134 0.408,-0.089 0.328,-0.089C0.249,-0.089 0.196,-0.134 0.196,-0.272L0.196,-0.654L0.08,-0.654L0.08,-0.281C0.08,-0.07 0.177,0.012 0.328,0.012Z" style="fill:rgb(102,102,102);fill-rule:nonzero;"/>
            </g>
            <g transform="matrix(16,0,0,16,244.571,21.5)">
                <path d="M0.21,0.012C0.334,0.012 0.401,-0.056 0.401,-0.14C0.401,-0.226 0.334,-0.264 0.258,-0.29C0.196,-0.311 0.16,-0.326 0.16,-0.362C0.16,-0.392 0.183,-0.416 0.233,-0.416C0.272,-0.416 0.308,-0.404 0.343,-0.379L0.394,-0.444C0.354,-0.478 0.297,-0.503 0.23,-0.503C0.12,-0.503 0.052,-0.442 0.052,-0.356C0.052,-0.278 0.118,-0.238 0.189,-0.212C0.243,-0.192 0.292,-0.175 0.292,-0.134C0.292,-0.1 0.267,-0.075 0.214,-0.075C0.163,-0.075 0.118,-0.09 0.075,-0.126L0.024,-0.06C0.072,-0.014 0.142,0.012 0.21,0.012Z" style="fill:rgb(102,102,102);fill-rule:nonzero;"/>
            </g>
            <g transform="matrix(16,0,0,16,251.467,21.5)">
                <path d="M0.27,-0.412C0.336,-0.412 0.368,-0.368 0.368,-0.298L0.158,-0.298C0.172,-0.385 0.222,-0.412 0.27,-0.412ZM0.284,0.012C0.346,0.012 0.406,-0.008 0.452,-0.04L0.412,-0.114C0.378,-0.092 0.34,-0.08 0.298,-0.08C0.23,-0.08 0.169,-0.12 0.156,-0.21L0.464,-0.21C0.468,-0.228 0.47,-0.248 0.47,-0.27C0.47,-0.406 0.402,-0.503 0.268,-0.503C0.152,-0.503 0.04,-0.406 0.04,-0.246C0.04,-0.082 0.146,0.012 0.284,0.012Z" style="fill:rgb(102,102,102);fill-rule:nonzero;"/>
            </g>
            <g transform="matrix(16,0,0,16,259.579,21.5)">
                <path d="M0.073,-0L0.188,-0L0.188,-0.3C0.218,-0.374 0.265,-0.401 0.304,-0.401C0.325,-0.401 0.336,-0.399 0.352,-0.395L0.375,-0.493C0.36,-0.5 0.344,-0.503 0.319,-0.503C0.266,-0.503 0.214,-0.468 0.18,-0.404L0.176,-0.404L0.168,-0.491L0.073,-0.491L0.073,-0Z" style="fill:rgb(102,102,102);fill-rule:nonzero;"/>
            </g>
            <g transform="matrix(16,0,0,16,268.747,21.5)">
                <path d="M0.083,-0L0.487,-0L0.487,-0.098L0.199,-0.098L0.199,-0.291L0.434,-0.291L0.434,-0.389L0.199,-0.389L0.199,-0.556L0.477,-0.556L0.477,-0.654L0.083,-0.654L0.083,-0Z" style="fill:rgb(102,102,102);fill-rule:nonzero;"/>
            </g>
            <g transform="matrix(16,0,0,16,276.747,21.5)">
                <path d="M0.014,-0L0.134,-0L0.186,-0.097C0.2,-0.127 0.215,-0.156 0.229,-0.184L0.233,-0.184C0.25,-0.156 0.267,-0.126 0.283,-0.097L0.343,-0L0.467,-0L0.311,-0.243L0.456,-0.491L0.337,-0.491L0.29,-0.398C0.278,-0.371 0.264,-0.342 0.252,-0.315L0.248,-0.315C0.233,-0.342 0.217,-0.371 0.203,-0.398L0.148,-0.491L0.024,-0.491L0.17,-0.256L0.014,-0Z" style="fill:rgb(102,102,102);fill-rule:nonzero;"/>
            </g>
            <g transform="matrix(16,0,0,16,284.443,21.5)">
                <path d="M0.073,0.194L0.188,0.194L0.188,0.04L0.185,-0.042C0.225,-0.008 0.268,0.012 0.311,0.012C0.42,0.012 0.521,-0.085 0.521,-0.253C0.521,-0.405 0.45,-0.503 0.328,-0.503C0.274,-0.503 0.221,-0.474 0.18,-0.439L0.176,-0.439L0.168,-0.491L0.073,-0.491L0.073,0.194ZM0.287,-0.083C0.258,-0.083 0.224,-0.094 0.188,-0.124L0.188,-0.353C0.226,-0.39 0.26,-0.408 0.296,-0.408C0.37,-0.408 0.402,-0.35 0.402,-0.252C0.402,-0.141 0.352,-0.083 0.287,-0.083Z" style="fill:rgb(102,102,102);fill-rule:nonzero;"/>
            </g>
            <g transform="matrix(16,0,0,16,293.467,21.5)">
                <path d="M0.27,-0.412C0.336,-0.412 0.368,-0.368 0.368,-0.298L0.158,-0.298C0.172,-0.385 0.222,-0.412 0.27,-0.412ZM0.284,0.012C0.346,0.012 0.406,-0.008 0.452,-0.04L0.412,-0.114C0.378,-0.092 0.34,-0.08 0.298,-0.08C0.23,-0.08 0.169,-0.12 0.156,-0.21L0.464,-0.21C0.468,-0.228 0.47,-0.248 0.47,-0.27C0.47,-0.406 0.402,-0.503 0.268,-0.503C0.152,-0.503 0.04,-0.406 0.04,-0.246C0.04,-0.082 0.146,0.012 0.284,0.012Z" style="fill:rgb(102,102,102);fill-rule:nonzero;"/>
            </g>
            <g transform="matrix(16,0,0,16,301.579,21.5)">
                <path d="M0.073,-0L0.188,-0L0.188,-0.3C0.218,-0.374 0.265,-0.401 0.304,-0.401C0.325,-0.401 0.336,-0.399 0.352,-0.395L0.375,-0.493C0.36,-0.5 0.344,-0.503 0.319,-0.503C0.266,-0.503 0.214,-0.468 0.18,-0.404L0.176,-0.404L0.168,-0.491L0.073,-0.491L0.073,-0Z" style="fill:rgb(102,102,102);fill-rule:nonzero;"/>
            </g>
            <g transform="matrix(16,0,0,16,307.547,21.5)">
                <path d="M0.073,-0L0.188,-0L0.188,-0.491L0.073,-0.491L0.073,-0ZM0.13,-0.577C0.171,-0.577 0.199,-0.603 0.199,-0.643C0.199,-0.682 0.171,-0.708 0.13,-0.708C0.089,-0.708 0.061,-0.682 0.061,-0.643C0.061,-0.603 0.089,-0.577 0.13,-0.577Z" style="fill:rgb(102,102,102);fill-rule:nonzero;"/>
            </g>
            <g transform="matrix(16,0,0,16,311.739,21.5)">
                <path d="M0.27,-0.412C0.336,-0.412 0.368,-0.368 0.368,-0.298L0.158,-0.298C0.172,-0.385 0.222,-0.412 0.27,-0.412ZM0.284,0.012C0.346,0.012 0.406,-0.008 0.452,-0.04L0.412,-0.114C0.378,-0.092 0.34,-0.08 0.298,-0.08C0.23,-0.08 0.169,-0.12 0.156,-0.21L0.464,-0.21C0.468,-0.228 0.47,-0.248 0.47,-0.27C0.47,-0.406 0.402,-0.503 0.268,-0.503C0.152,-0.503 0.04,-0.406 0.04,-0.246C0.04,-0.082 0.146,0.012 0.284,0.012Z" style="fill:rgb(102,102,102);fill-rule:nonzero;"/>
            </g>
            <g transform="matrix(16,0,0,16,319.851,21.5)">
                <path d="M0.073,-0L0.188,-0L0.188,-0.343C0.229,-0.383 0.257,-0.404 0.3,-0.404C0.354,-0.404 0.377,-0.374 0.377,-0.293L0.377,-0L0.492,-0L0.492,-0.308C0.492,-0.432 0.446,-0.503 0.341,-0.503C0.274,-0.503 0.224,-0.468 0.18,-0.425L0.176,-0.425L0.168,-0.491L0.073,-0.491L0.073,-0Z" style="fill:rgb(102,102,102);fill-rule:nonzero;"/>
            </g>
            <g transform="matrix(16,0,0,16,328.811,21.5)">
                <path d="M0.28,0.012C0.341,0.012 0.397,-0.012 0.438,-0.05L0.391,-0.121C0.364,-0.097 0.329,-0.082 0.291,-0.082C0.213,-0.082 0.159,-0.147 0.159,-0.245C0.159,-0.344 0.215,-0.409 0.293,-0.409C0.328,-0.409 0.354,-0.396 0.376,-0.377L0.431,-0.448C0.396,-0.481 0.35,-0.503 0.287,-0.503C0.156,-0.503 0.041,-0.409 0.041,-0.245C0.041,-0.082 0.144,0.012 0.28,0.012Z" style="fill:rgb(102,102,102);fill-rule:nonzero;"/>
            </g>
            <g transform="matrix(16,0,0,16,335.819,21.5)">
                <path d="M0.27,-0.412C0.336,-0.412 0.368,-0.368 0.368,-0.298L0.158,-0.298C0.172,-0.385 0.222,-0.412 0.27,-0.412ZM0.284,0.012C0.346,0.012 0.406,-0.008 0.452,-0.04L0.412,-0.114C0.378,-0.092 0.34,-0.08 0.298,-0.08C0.23,-0.08 0.169,-0.12 0.156,-0.21L0.464,-0.21C0.468,-0.228 0.47,-0.248 0.47,-0.27C0.47,-0.406 0.402,-0.503 0.268,-0.503C0.152,-0.503 0.04,-0.406 0.04,-0.246C0.04,-0.082 0.146,0.012 0.284,0.012Z" style="fill:rgb(102,102,102);fill-rule:nonzero;"/>
            </g>
        </g>
        <g transform="matrix(4.16667,0,0,4.16667,0.975,60)">
            <g transform="matrix(13,0,0,13,233.295,36.9641)">
                <path d="M0.09,-0L0.258,-0C0.456,-0 0.564,-0.122 0.564,-0.331C0.564,-0.539 0.456,-0.656 0.254,-0.656L0.09,-0.656L0.09,-0ZM0.173,-0.068L0.173,-0.588L0.248,-0.588C0.401,-0.588 0.478,-0.496 0.478,-0.331C0.478,-0.165 0.401,-0.068 0.248,-0.068L0.173,-0.068Z" style="fill-rule:nonzero;"/>
            </g>
            <g transform="matrix(13,0,0,13,241.29,36.9641)">
                <rect x="0.09" y="-0.656" width="0.083" height="0.656" style="fill-rule:nonzero;"/>
            </g>
            <g transform="matrix(13,0,0,13,244.709,36.9641)">
                <path d="M0.09,-0L0.169,-0L0.169,-0.343C0.169,-0.413 0.164,-0.483 0.158,-0.549L0.162,-0.549C0.183,-0.501 0.208,-0.452 0.233,-0.408L0.466,-0L0.557,-0L0.557,-0.656L0.477,-0.656L0.477,-0.315C0.477,-0.247 0.483,-0.175 0.488,-0.107L0.484,-0.107C0.462,-0.155 0.439,-0.204 0.414,-0.248L0.181,-0.656L0.09,-0.656L0.09,-0Z" style="fill-rule:nonzero;"/>
            </g>
            <g transform="matrix(13,0,0,13,255.72,36.9641)">
                <path d="M0.09,-0L0.478,-0L0.478,-0.071L0.173,-0.071L0.173,-0.309L0.422,-0.309L0.422,-0.38L0.173,-0.38L0.173,-0.586L0.468,-0.586L0.468,-0.656L0.09,-0.656L0.09,-0Z" style="fill-rule:nonzero;"/>
            </g>
            <g transform="matrix(13,0,0,13,262.571,36.9641)">
                <path d="M0.09,-0L0.169,-0L0.169,-0.343C0.169,-0.413 0.164,-0.483 0.158,-0.549L0.162,-0.549C0.183,-0.501 0.208,-0.452 0.233,-0.408L0.466,-0L0.557,-0L0.557,-0.656L0.477,-0.656L0.477,-0.315C0.477,-0.247 0.483,-0.175 0.488,-0.107L0.484,-0.107C0.462,-0.155 0.439,-0.204 0.414,-0.248L0.181,-0.656L0.09,-0.656L0.09,-0Z" style="fill-rule:nonzero;"/>
            </g>
            <g transform="matrix(13,0,0,13,273.582,36.9641)">
                <rect x="0.09" y="-0.656" width="0.083" height="0.656" style="fill-rule:nonzero;"/>
            </g>
            <g transform="matrix(13,0,0,13,277.001,36.9641)">
                <path d="M0.272,0.012C0.411,0.012 0.495,-0.071 0.495,-0.175C0.495,-0.272 0.438,-0.317 0.36,-0.35L0.267,-0.39C0.215,-0.412 0.158,-0.436 0.158,-0.499C0.158,-0.558 0.207,-0.595 0.28,-0.595C0.338,-0.595 0.388,-0.571 0.429,-0.535L0.474,-0.589C0.428,-0.635 0.36,-0.668 0.28,-0.668C0.16,-0.668 0.074,-0.594 0.074,-0.494C0.074,-0.399 0.144,-0.352 0.207,-0.325L0.301,-0.284C0.363,-0.256 0.41,-0.235 0.41,-0.168C0.41,-0.104 0.359,-0.061 0.273,-0.061C0.203,-0.061 0.136,-0.091 0.089,-0.14L0.042,-0.086C0.099,-0.025 0.178,0.012 0.272,0.012Z" style="fill-rule:nonzero;"/>
            </g>
            <g transform="matrix(13,0,0,13,283.943,36.9641)">
                <path d="M0.332,0.012C0.497,0.012 0.613,-0.12 0.613,-0.331C0.613,-0.54 0.497,-0.668 0.332,-0.668C0.167,-0.668 0.052,-0.541 0.052,-0.331C0.052,-0.12 0.167,0.012 0.332,0.012ZM0.332,-0.061C0.215,-0.061 0.138,-0.167 0.138,-0.331C0.138,-0.494 0.215,-0.595 0.332,-0.595C0.449,-0.595 0.526,-0.494 0.526,-0.331C0.526,-0.167 0.449,-0.061 0.332,-0.061Z" style="fill-rule:nonzero;"/>
            </g>
            <g transform="matrix(13,0,0,13,295.175,36.9641)">
                <path d="M0.117,-0.445C0.117,-0.529 0.166,-0.585 0.228,-0.585C0.309,-0.585 0.358,-0.519 0.369,-0.395C0.328,-0.335 0.277,-0.31 0.235,-0.31C0.156,-0.31 0.117,-0.362 0.117,-0.445ZM0.205,0.012C0.332,0.012 0.448,-0.087 0.448,-0.343C0.448,-0.548 0.354,-0.65 0.228,-0.65C0.126,-0.65 0.04,-0.567 0.04,-0.445C0.04,-0.314 0.111,-0.248 0.221,-0.248C0.274,-0.248 0.331,-0.279 0.371,-0.33C0.368,-0.126 0.292,-0.056 0.202,-0.056C0.162,-0.056 0.123,-0.076 0.097,-0.107L0.051,-0.055C0.086,-0.017 0.137,0.012 0.205,0.012Z" style="fill-rule:nonzero;"/>
            </g>
            <g transform="matrix(13,0,0,13,301.636,36.9641)">
                <path d="M0.04,-0L0.452,-0L0.452,-0.071L0.26,-0.071C0.227,-0.071 0.188,-0.068 0.153,-0.065C0.308,-0.224 0.42,-0.339 0.42,-0.463C0.42,-0.575 0.347,-0.65 0.229,-0.65C0.147,-0.65 0.09,-0.611 0.037,-0.551L0.083,-0.506C0.12,-0.549 0.166,-0.583 0.219,-0.583C0.3,-0.583 0.34,-0.531 0.34,-0.458C0.34,-0.355 0.231,-0.237 0.04,-0.05L0.04,-0Z" style="fill-rule:nonzero;"/>
            </g>
            <g transform="matrix(13,0,0,13,308.097,36.9641)">
                <path d="M0.104,-0.242L0.253,-0.46C0.271,-0.491 0.289,-0.519 0.305,-0.55L0.309,-0.55C0.307,-0.516 0.304,-0.461 0.304,-0.427L0.304,-0.242L0.104,-0.242ZM0.304,-0L0.382,-0L0.382,-0.176L0.469,-0.176L0.469,-0.242L0.382,-0.242L0.382,-0.638L0.29,-0.638L0.017,-0.23L0.017,-0.176L0.304,-0.176L0.304,-0Z" style="fill-rule:nonzero;"/>
            </g>
            <g transform="matrix(13,0,0,13,314.558,36.9641)">
                <path d="M0.079,-0L0.439,-0L0.439,-0.068L0.307,-0.068L0.307,-0.638L0.244,-0.638C0.209,-0.617 0.167,-0.601 0.109,-0.591L0.109,-0.538L0.225,-0.538L0.225,-0.068L0.079,-0.068L0.079,-0Z" style="fill-rule:nonzero;"/>
            </g>
            <g transform="matrix(13,0,0,13,321.019,36.9641)">
                <rect x="0.041" y="-0.282" width="0.23" height="0.063" style="fill-rule:nonzero;"/>
            </g>
            <g transform="matrix(13,0,0,13,325.062,36.9641)">
                <path d="M0.04,-0L0.452,-0L0.452,-0.071L0.26,-0.071C0.227,-0.071 0.188,-0.068 0.153,-0.065C0.308,-0.224 0.42,-0.339 0.42,-0.463C0.42,-0.575 0.347,-0.65 0.229,-0.65C0.147,-0.65 0.09,-0.611 0.037,-0.551L0.083,-0.506C0.12,-0.549 0.166,-0.583 0.219,-0.583C0.3,-0.583 0.34,-0.531 0.34,-0.458C0.34,-0.355 0.231,-0.237 0.04,-0.05L0.04,-0Z" style="fill-rule:nonzero;"/>
            </g>
            <g transform="matrix(13,0,0,13,331.523,36.9641)">
                <path d="M0.079,-0L0.439,-0L0.439,-0.068L0.307,-0.068L0.307,-0.638L0.244,-0.638C0.209,-0.617 0.167,-0.601 0.109,-0.591L0.109,-0.538L0.225,-0.538L0.225,-0.068L0.079,-0.068L0.079,-0Z" style="fill-rule:nonzero;"/>
            </g>
            <g transform="matrix(13,0,0,13,337.984,36.9641)">
                <path d="M0.249,0.012C0.376,0.012 0.453,-0.107 0.453,-0.321C0.453,-0.535 0.376,-0.65 0.249,-0.65C0.121,-0.65 0.044,-0.535 0.044,-0.321C0.044,-0.107 0.121,0.012 0.249,0.012ZM0.249,-0.054C0.174,-0.054 0.124,-0.134 0.124,-0.321C0.124,-0.508 0.174,-0.584 0.249,-0.584C0.323,-0.584 0.373,-0.508 0.373,-0.321C0.373,-0.134 0.323,-0.054 0.249,-0.054Z" style="fill-rule:nonzero;"/>
            </g>
        </g>
        <g transform="matrix(3.01209e-17,-0.491912,2.06376,1.26369e-16,-1669.87,589.481)">
            <path d="M415.213,1909.43L480.013,1909.43C580.813,1909.43 627.613,1871.03 627.613,1743.83C627.613,1657.43 616.813,1604.63 616.813,1526.63C616.813,1482.23 639.613,1436.63 720.013,1435.43L720.013,1351.43C639.613,1350.23 616.813,1304.63 616.813,1261.43C616.813,1182.23 627.613,1129.43 627.613,1043.03C627.613,915.834 580.813,877.434 480.013,877.434L415.213,877.434L415.213,953.034L442.813,953.034C500.413,953.034 516.013,977.034 516.013,1049.03C516.013,1117.43 510.013,1178.63 510.013,1255.43C510.013,1340.63 534.013,1376.63 590.413,1391.03L590.413,1395.83C534.013,1410.23 510.013,1447.43 510.013,1531.43C510.013,1608.23 516.013,1669.43 516.013,1737.83C516.013,1809.83 500.413,1833.83 442.813,1833.83L415.213,1833.83L415.213,1909.43Z" style="fill:rgb(106,106,106);fill-rule:nonzero;"/>
        </g>
    </g>
</svg>
