<?xml version="1.0" encoding="UTF-8" standalone="no"?>
<!DOCTYPE svg PUBLIC "-//W3C//DTD SVG 1.1//EN" "http://www.w3.org/Graphics/SVG/1.1/DTD/svg11.dtd">
<svg width="100%" height="100%" viewBox="0 0 1645 458" version="1.1" xmlns="http://www.w3.org/2000/svg" xmlns:xlink="http://www.w3.org/1999/xlink" xml:space="preserve" xmlns:serif="http://www.serif.com/" style="fill-rule:evenodd;clip-rule:evenodd;stroke-linecap:round;stroke-linejoin:round;stroke-miterlimit:1.5;">
    <g transform="matrix(1,0,0,1,-260.642,-946.881)">
        <g transform="matrix(0.750243,0,0,1,89.7228,245.423)">
            <path d="M359.241,802.93L359.241,797.182L439.048,797.182L439.048,791.845L449.993,800.056L439.048,808.268L439.048,802.93L359.241,802.93Z" style="stroke:black;stroke-width:4.24px;"/>
        </g>
        <g transform="matrix(0.789111,0,0,1,72.2324,505.872)">
            <path d="M359.241,802.93L359.241,797.182L439.587,797.182L439.587,791.845L449.993,800.056L439.587,808.268L439.587,802.93L359.241,802.93Z" style="stroke:black;stroke-width:4.16px;"/>
        </g>
        <g transform="matrix(17.0115,0,0,1,-5751.64,368.419)">
            <rect x="359.241" y="797.182" width="90.752" height="5.748" style="stroke:black;stroke-width:0.31px;"/>
        </g>
        <g transform="matrix(0.750243,0,0,1,469.772,505.872)">
            <path d="M359.241,802.93L359.241,797.182L439.048,797.182L439.048,791.845L449.993,800.056L439.048,808.268L439.048,802.93L359.241,802.93Z" style="stroke:black;stroke-width:4.24px;"/>
        </g>
        <g transform="matrix(0.750243,0,0,1,849.822,505.872)">
            <path d="M359.241,802.93L359.241,797.182L439.048,797.182L439.048,791.845L449.993,800.056L439.048,808.268L439.048,802.93L359.241,802.93Z" style="stroke:black;stroke-width:4.24px;"/>
        </g>
        <g transform="matrix(0.750243,0,0,1,1229.87,505.872)">
            <path d="M359.241,802.93L359.241,797.182L439.048,797.182L439.048,791.845L449.993,800.056L439.048,808.268L439.048,802.93L359.241,802.93Z" style="stroke:black;stroke-width:4.24px;"/>
        </g>
        <g transform="matrix(0.600188,0,0,1,523.678,245.423)">
            <path d="M359.241,802.93L359.241,797.182L436.312,797.182L436.312,791.845L449.993,800.056L436.312,808.268L436.312,802.93L359.241,802.93Z" style="stroke:black;stroke-width:4.55px;"/>
        </g>
        <g transform="matrix(0.600188,0,0,1,892.416,245.423)">
            <path d="M359.241,802.93L359.241,797.182L436.312,797.182L436.312,791.845L449.993,800.056L436.312,808.268L436.312,802.93L359.241,802.93Z" style="stroke:black;stroke-width:4.55px;"/>
        </g>
        <g transform="matrix(0.600188,0,0,1,1259.1,245.423)">
            <path d="M359.241,802.93L359.241,797.182L436.312,797.182L436.312,791.845L449.993,800.056L436.312,808.268L436.312,802.93L359.241,802.93Z" style="stroke:black;stroke-width:4.55px;"/>
        </g>
        <g transform="matrix(0.600188,0,0,1,1629.46,245.423)">
            <rect x="359.241" y="797.182" width="90.752" height="5.748" style="stroke:black;stroke-width:4.55px;"/>
        </g>
        <g transform="matrix(8.2988e-17,-1.3553,0.675,4.13318e-17,1361.45,1652.48)">
            <rect x="359.241" y="797.182" width="90.752" height="5.748" style="stroke:black;stroke-width:3.5px;"/>
        </g>
        <g transform="matrix(9.46811e-17,-1.54626,0.675,4.13318e-17,-182.385,1861.41)">
            <rect x="359.241" y="797.182" width="90.752" height="5.748" style="stroke:black;stroke-width:3.14px;"/>
        </g>
        <g>
            <path d="M739.29,997.066L739.29,1093.89C739.29,1120.61 717.597,1142.31 690.876,1142.31L475.741,1142.31C449.021,1142.31 427.327,1120.61 427.327,1093.89L427.327,997.066C427.327,970.345 449.021,948.651 475.741,948.651L690.876,948.651C717.597,948.651 739.29,970.345 739.29,997.066Z" style="fill:none;stroke:black;stroke-width:3.54px;"/>
            <g transform="matrix(1,0,0,1,-30.7987,-3.94595)">
                <g transform="matrix(50,0,0,50,504.807,1067.08)">
                    <path d="M0.217,-0.348C0.238,-0.417 0.257,-0.491 0.275,-0.564L0.279,-0.564C0.298,-0.492 0.317,-0.417 0.338,-0.348L0.361,-0.268L0.194,-0.268L0.217,-0.348ZM-0.002,-0L0.116,-0L0.167,-0.177L0.387,-0.177L0.438,-0L0.56,-0L0.347,-0.654L0.211,-0.654L-0.002,-0Z" style="fill-rule:nonzero;"/>
                </g>
                <g transform="matrix(50,0,0,50,532.507,1067.08)">
                    <path d="M0.219,0.012C0.286,0.012 0.334,-0.021 0.377,-0.072L0.38,-0.072L0.389,-0L0.483,-0L0.483,-0.491L0.368,-0.491L0.368,-0.155C0.331,-0.107 0.302,-0.087 0.259,-0.087C0.206,-0.087 0.183,-0.117 0.183,-0.198L0.183,-0.491L0.068,-0.491L0.068,-0.183C0.068,-0.059 0.114,0.012 0.219,0.012Z" style="fill-rule:nonzero;"/>
                </g>
                <g transform="matrix(50,0,0,50,560.307,1067.08)">
                    <path d="M0.093,-0L0.208,-0L0.208,-0.4L0.304,-0.4L0.304,-0.491L0.208,-0.491L0.208,-0.544C0.208,-0.6 0.23,-0.627 0.27,-0.627C0.287,-0.627 0.304,-0.624 0.322,-0.618L0.346,-0.701C0.324,-0.71 0.291,-0.718 0.256,-0.718C0.14,-0.718 0.093,-0.644 0.093,-0.542L0.093,-0.491L0.02,-0.486L0.02,-0.4L0.093,-0.4L0.093,-0Z" style="fill-rule:nonzero;"/>
                </g>
                <g transform="matrix(50,0,0,50,576.157,1067.08)">
                    <path d="M0.073,-0L0.188,-0L0.188,-0.343C0.229,-0.383 0.257,-0.404 0.3,-0.404C0.354,-0.404 0.377,-0.374 0.377,-0.293L0.377,-0L0.492,-0L0.492,-0.308C0.492,-0.432 0.446,-0.503 0.341,-0.503C0.274,-0.503 0.224,-0.468 0.18,-0.425L0.176,-0.425L0.168,-0.491L0.073,-0.491L0.073,-0Z" style="fill-rule:nonzero;"/>
                </g>
                <g transform="matrix(50,0,0,50,604.157,1067.08)">
                    <path d="M0.192,0.012C0.25,0.012 0.298,-0.016 0.344,-0.054L0.348,-0.054L0.356,-0L0.451,-0L0.451,-0.29C0.451,-0.428 0.39,-0.503 0.268,-0.503C0.19,-0.503 0.12,-0.474 0.066,-0.44L0.108,-0.362C0.152,-0.388 0.198,-0.408 0.246,-0.408C0.312,-0.408 0.334,-0.366 0.336,-0.316C0.134,-0.294 0.046,-0.242 0.046,-0.132C0.046,-0.046 0.106,0.012 0.192,0.012ZM0.228,-0.082C0.188,-0.082 0.158,-0.098 0.158,-0.14C0.158,-0.19 0.202,-0.22 0.336,-0.236L0.336,-0.132C0.3,-0.098 0.268,-0.082 0.228,-0.082Z" style="fill-rule:nonzero;"/>
                </g>
                <g transform="matrix(50,0,0,50,629.957,1067.08)">
                    <path d="M0.073,-0L0.188,-0L0.188,-0.343C0.229,-0.383 0.257,-0.404 0.3,-0.404C0.354,-0.404 0.377,-0.374 0.377,-0.293L0.377,-0L0.492,-0L0.492,-0.308C0.492,-0.432 0.446,-0.503 0.341,-0.503C0.274,-0.503 0.225,-0.468 0.184,-0.429L0.188,-0.524L0.188,-0.706L0.073,-0.706L0.073,-0Z" style="fill-rule:nonzero;"/>
                </g>
                <g transform="matrix(50,0,0,50,657.857,1067.08)">
                    <path d="M0.073,-0L0.188,-0L0.188,-0.343C0.226,-0.384 0.261,-0.404 0.291,-0.404C0.343,-0.404 0.367,-0.374 0.367,-0.293L0.367,-0L0.482,-0L0.482,-0.343C0.52,-0.384 0.554,-0.404 0.585,-0.404C0.636,-0.404 0.66,-0.374 0.66,-0.293L0.66,-0L0.776,-0L0.776,-0.308C0.776,-0.432 0.728,-0.503 0.624,-0.503C0.562,-0.503 0.513,-0.465 0.466,-0.415C0.443,-0.47 0.402,-0.503 0.33,-0.503C0.269,-0.503 0.221,-0.468 0.18,-0.424L0.176,-0.424L0.168,-0.491L0.073,-0.491L0.073,-0Z" style="fill-rule:nonzero;"/>
                </g>
                <g transform="matrix(50,0,0,50,700.007,1067.08)">
                    <path d="M0.27,-0.412C0.336,-0.412 0.368,-0.368 0.368,-0.298L0.158,-0.298C0.172,-0.385 0.222,-0.412 0.27,-0.412ZM0.284,0.012C0.346,0.012 0.406,-0.008 0.452,-0.04L0.412,-0.114C0.378,-0.092 0.34,-0.08 0.298,-0.08C0.23,-0.08 0.169,-0.12 0.156,-0.21L0.464,-0.21C0.468,-0.228 0.47,-0.248 0.47,-0.27C0.47,-0.406 0.402,-0.503 0.268,-0.503C0.152,-0.503 0.04,-0.406 0.04,-0.246C0.04,-0.082 0.146,0.012 0.284,0.012Z" style="fill-rule:nonzero;"/>
                </g>
            </g>
        </g>
        <g transform="matrix(1,0,0,1,367.832,0)">
            <path d="M739.29,997.066L739.29,1093.89C739.29,1120.61 717.597,1142.31 690.876,1142.31L475.741,1142.31C449.021,1142.31 427.327,1120.61 427.327,1093.89L427.327,997.066C427.327,970.345 449.021,948.651 475.741,948.651L690.876,948.651C717.597,948.651 739.29,970.345 739.29,997.066Z" style="fill:none;stroke:black;stroke-width:3.54px;"/>
            <g transform="matrix(1,0,0,1,-30.7987,-3.94595)">
                <g transform="matrix(50,0,0,50,522.582,1067.08)">
                    <path d="M0.274,0.012C0.422,0.012 0.509,-0.076 0.509,-0.182C0.509,-0.277 0.456,-0.326 0.377,-0.359L0.288,-0.396C0.234,-0.418 0.184,-0.437 0.184,-0.488C0.184,-0.536 0.225,-0.565 0.287,-0.565C0.337,-0.565 0.385,-0.544 0.427,-0.51L0.488,-0.586C0.438,-0.634 0.366,-0.666 0.287,-0.666C0.158,-0.666 0.067,-0.586 0.067,-0.482C0.067,-0.387 0.134,-0.335 0.199,-0.308L0.289,-0.269C0.348,-0.244 0.39,-0.227 0.39,-0.173C0.39,-0.122 0.35,-0.089 0.276,-0.089C0.213,-0.089 0.148,-0.115 0.101,-0.16L0.038,-0.084C0.1,-0.022 0.183,0.012 0.274,0.012Z" style="fill-rule:nonzero;"/>
                </g>
                <g transform="matrix(50,0,0,50,549.832,1067.08)">
                    <path d="M0.28,0.012C0.341,0.012 0.397,-0.012 0.438,-0.05L0.391,-0.121C0.364,-0.097 0.329,-0.082 0.291,-0.082C0.213,-0.082 0.159,-0.147 0.159,-0.245C0.159,-0.344 0.215,-0.409 0.293,-0.409C0.328,-0.409 0.354,-0.396 0.376,-0.377L0.431,-0.448C0.396,-0.481 0.35,-0.503 0.287,-0.503C0.156,-0.503 0.041,-0.409 0.041,-0.245C0.041,-0.082 0.144,0.012 0.28,0.012Z" style="fill-rule:nonzero;"/>
                </g>
                <g transform="matrix(50,0,0,50,572.432,1067.08)">
                    <path d="M0.192,0.012C0.25,0.012 0.298,-0.016 0.344,-0.054L0.348,-0.054L0.356,-0L0.451,-0L0.451,-0.29C0.451,-0.428 0.39,-0.503 0.268,-0.503C0.19,-0.503 0.12,-0.474 0.066,-0.44L0.108,-0.362C0.152,-0.388 0.198,-0.408 0.246,-0.408C0.312,-0.408 0.334,-0.366 0.336,-0.316C0.134,-0.294 0.046,-0.242 0.046,-0.132C0.046,-0.046 0.106,0.012 0.192,0.012ZM0.228,-0.082C0.188,-0.082 0.158,-0.098 0.158,-0.14C0.158,-0.19 0.202,-0.22 0.336,-0.236L0.336,-0.132C0.3,-0.098 0.268,-0.082 0.228,-0.082Z" style="fill-rule:nonzero;"/>
                </g>
                <g transform="matrix(50,0,0,50,598.232,1067.08)">
                    <path d="M0.073,-0L0.188,-0L0.188,-0.343C0.229,-0.383 0.257,-0.404 0.3,-0.404C0.354,-0.404 0.377,-0.374 0.377,-0.293L0.377,-0L0.492,-0L0.492,-0.308C0.492,-0.432 0.446,-0.503 0.341,-0.503C0.274,-0.503 0.224,-0.468 0.18,-0.425L0.176,-0.425L0.168,-0.491L0.073,-0.491L0.073,-0Z" style="fill-rule:nonzero;"/>
                </g>
                <g transform="matrix(50,0,0,50,626.232,1067.08)">
                    <path d="M0.073,-0L0.188,-0L0.188,-0.343C0.229,-0.383 0.257,-0.404 0.3,-0.404C0.354,-0.404 0.377,-0.374 0.377,-0.293L0.377,-0L0.492,-0L0.492,-0.308C0.492,-0.432 0.446,-0.503 0.341,-0.503C0.274,-0.503 0.224,-0.468 0.18,-0.425L0.176,-0.425L0.168,-0.491L0.073,-0.491L0.073,-0Z" style="fill-rule:nonzero;"/>
                </g>
                <g transform="matrix(50,0,0,50,654.232,1067.08)">
                    <path d="M0.27,-0.412C0.336,-0.412 0.368,-0.368 0.368,-0.298L0.158,-0.298C0.172,-0.385 0.222,-0.412 0.27,-0.412ZM0.284,0.012C0.346,0.012 0.406,-0.008 0.452,-0.04L0.412,-0.114C0.378,-0.092 0.34,-0.08 0.298,-0.08C0.23,-0.08 0.169,-0.12 0.156,-0.21L0.464,-0.21C0.468,-0.228 0.47,-0.248 0.47,-0.27C0.47,-0.406 0.402,-0.503 0.268,-0.503C0.152,-0.503 0.04,-0.406 0.04,-0.246C0.04,-0.082 0.146,0.012 0.284,0.012Z" style="fill-rule:nonzero;"/>
                </g>
                <g transform="matrix(50,0,0,50,679.582,1067.08)">
                    <path d="M0.073,-0L0.188,-0L0.188,-0.343C0.229,-0.383 0.257,-0.404 0.3,-0.404C0.354,-0.404 0.377,-0.374 0.377,-0.293L0.377,-0L0.492,-0L0.492,-0.308C0.492,-0.432 0.446,-0.503 0.341,-0.503C0.274,-0.503 0.224,-0.468 0.18,-0.425L0.176,-0.425L0.168,-0.491L0.073,-0.491L0.073,-0Z" style="fill-rule:nonzero;"/>
                </g>
            </g>
        </g>
        <g transform="matrix(1,0,0,1,735.664,0)">
            <path d="M739.29,997.066L739.29,1093.89C739.29,1120.61 717.597,1142.31 690.876,1142.31L475.741,1142.31C449.021,1142.31 427.327,1120.61 427.327,1093.89L427.327,997.066C427.327,970.345 449.021,948.651 475.741,948.651L690.876,948.651C717.597,948.651 739.29,970.345 739.29,997.066Z" style="fill:none;stroke:black;stroke-width:3.54px;"/>
            <g transform="matrix(1,0,0,1,-30.7987,-3.94595)">
                <g transform="matrix(50,0,0,50,495.732,1067.08)">
                    <path d="M0.357,0.012C0.446,0.012 0.522,-0.022 0.566,-0.066L0.566,-0.354L0.338,-0.354L0.338,-0.259L0.462,-0.259L0.462,-0.118C0.441,-0.099 0.405,-0.089 0.368,-0.089C0.237,-0.089 0.168,-0.179 0.168,-0.328C0.168,-0.475 0.246,-0.565 0.362,-0.565C0.423,-0.565 0.461,-0.544 0.494,-0.512L0.556,-0.583C0.515,-0.626 0.451,-0.666 0.358,-0.666C0.184,-0.666 0.049,-0.539 0.049,-0.325C0.049,-0.108 0.18,0.012 0.357,0.012Z" style="fill-rule:nonzero;"/>
                </g>
                <g transform="matrix(50,0,0,50,527.132,1067.08)">
                    <path d="M0.27,-0.412C0.336,-0.412 0.368,-0.368 0.368,-0.298L0.158,-0.298C0.172,-0.385 0.222,-0.412 0.27,-0.412ZM0.284,0.012C0.346,0.012 0.406,-0.008 0.452,-0.04L0.412,-0.114C0.378,-0.092 0.34,-0.08 0.298,-0.08C0.23,-0.08 0.169,-0.12 0.156,-0.21L0.464,-0.21C0.468,-0.228 0.47,-0.248 0.47,-0.27C0.47,-0.406 0.402,-0.503 0.268,-0.503C0.152,-0.503 0.04,-0.406 0.04,-0.246C0.04,-0.082 0.146,0.012 0.284,0.012Z" style="fill-rule:nonzero;"/>
                </g>
                <g transform="matrix(50,0,0,50,552.482,1067.08)">
                    <path d="M0.073,-0L0.188,-0L0.188,-0.343C0.229,-0.383 0.257,-0.404 0.3,-0.404C0.354,-0.404 0.377,-0.374 0.377,-0.293L0.377,-0L0.492,-0L0.492,-0.308C0.492,-0.432 0.446,-0.503 0.341,-0.503C0.274,-0.503 0.224,-0.468 0.18,-0.425L0.176,-0.425L0.168,-0.491L0.073,-0.491L0.073,-0Z" style="fill-rule:nonzero;"/>
                </g>
                <g transform="matrix(50,0,0,50,580.482,1067.08)">
                    <path d="M0.27,-0.412C0.336,-0.412 0.368,-0.368 0.368,-0.298L0.158,-0.298C0.172,-0.385 0.222,-0.412 0.27,-0.412ZM0.284,0.012C0.346,0.012 0.406,-0.008 0.452,-0.04L0.412,-0.114C0.378,-0.092 0.34,-0.08 0.298,-0.08C0.23,-0.08 0.169,-0.12 0.156,-0.21L0.464,-0.21C0.468,-0.228 0.47,-0.248 0.47,-0.27C0.47,-0.406 0.402,-0.503 0.268,-0.503C0.152,-0.503 0.04,-0.406 0.04,-0.246C0.04,-0.082 0.146,0.012 0.284,0.012Z" style="fill-rule:nonzero;"/>
                </g>
                <g transform="matrix(50,0,0,50,605.832,1067.08)">
                    <path d="M0.073,-0L0.188,-0L0.188,-0.3C0.218,-0.374 0.265,-0.401 0.304,-0.401C0.325,-0.401 0.336,-0.399 0.352,-0.395L0.375,-0.493C0.36,-0.5 0.344,-0.503 0.319,-0.503C0.266,-0.503 0.214,-0.468 0.18,-0.404L0.176,-0.404L0.168,-0.491L0.073,-0.491L0.073,-0Z" style="fill-rule:nonzero;"/>
                </g>
                <g transform="matrix(50,0,0,50,624.482,1067.08)">
                    <path d="M0.073,-0L0.188,-0L0.188,-0.491L0.073,-0.491L0.073,-0ZM0.13,-0.577C0.171,-0.577 0.199,-0.603 0.199,-0.643C0.199,-0.682 0.171,-0.708 0.13,-0.708C0.089,-0.708 0.061,-0.682 0.061,-0.643C0.061,-0.603 0.089,-0.577 0.13,-0.577Z" style="fill-rule:nonzero;"/>
                </g>
                <g transform="matrix(50,0,0,50,637.582,1067.08)">
                    <path d="M0.27,-0.412C0.336,-0.412 0.368,-0.368 0.368,-0.298L0.158,-0.298C0.172,-0.385 0.222,-0.412 0.27,-0.412ZM0.284,0.012C0.346,0.012 0.406,-0.008 0.452,-0.04L0.412,-0.114C0.378,-0.092 0.34,-0.08 0.298,-0.08C0.23,-0.08 0.169,-0.12 0.156,-0.21L0.464,-0.21C0.468,-0.228 0.47,-0.248 0.47,-0.27C0.47,-0.406 0.402,-0.503 0.268,-0.503C0.152,-0.503 0.04,-0.406 0.04,-0.246C0.04,-0.082 0.146,0.012 0.284,0.012Z" style="fill-rule:nonzero;"/>
                </g>
                <g transform="matrix(50,0,0,50,662.932,1067.08)">
                    <path d="M0.073,-0L0.188,-0L0.188,-0.3C0.218,-0.374 0.265,-0.401 0.304,-0.401C0.325,-0.401 0.336,-0.399 0.352,-0.395L0.375,-0.493C0.36,-0.5 0.344,-0.503 0.319,-0.503C0.266,-0.503 0.214,-0.468 0.18,-0.404L0.176,-0.404L0.168,-0.491L0.073,-0.491L0.073,-0Z" style="fill-rule:nonzero;"/>
                </g>
                <g transform="matrix(50,0,0,50,681.082,1067.08)">
                    <path d="M0.27,-0.412C0.336,-0.412 0.368,-0.368 0.368,-0.298L0.158,-0.298C0.172,-0.385 0.222,-0.412 0.27,-0.412ZM0.284,0.012C0.346,0.012 0.406,-0.008 0.452,-0.04L0.412,-0.114C0.378,-0.092 0.34,-0.08 0.298,-0.08C0.23,-0.08 0.169,-0.12 0.156,-0.21L0.464,-0.21C0.468,-0.228 0.47,-0.248 0.47,-0.27C0.47,-0.406 0.402,-0.503 0.268,-0.503C0.152,-0.503 0.04,-0.406 0.04,-0.246C0.04,-0.082 0.146,0.012 0.284,0.012Z" style="fill-rule:nonzero;"/>
                </g>
                <g transform="matrix(50,0,0,50,706.432,1067.08)">
                    <path d="M0.073,-0L0.188,-0L0.188,-0.343C0.229,-0.383 0.257,-0.404 0.3,-0.404C0.354,-0.404 0.377,-0.374 0.377,-0.293L0.377,-0L0.492,-0L0.492,-0.308C0.492,-0.432 0.446,-0.503 0.341,-0.503C0.274,-0.503 0.224,-0.468 0.18,-0.425L0.176,-0.425L0.168,-0.491L0.073,-0.491L0.073,-0Z" style="fill-rule:nonzero;"/>
                </g>
            </g>
        </g>
        <g transform="matrix(1,0,0,1,1103.5,0)">
            <path d="M739.29,997.066L739.29,1093.89C739.29,1120.61 717.597,1142.31 690.876,1142.31L475.741,1142.31C449.021,1142.31 427.327,1120.61 427.327,1093.89L427.327,997.066C427.327,970.345 449.021,948.651 475.741,948.651L690.876,948.651C717.597,948.651 739.29,970.345 739.29,997.066Z" style="fill:none;stroke:black;stroke-width:3.54px;"/>
            <g transform="matrix(1,0,0,1,-30.7987,-33.071)">
                <g transform="matrix(50,0,0,50,492.682,1067.08)">
                    <path d="M0.083,-0L0.188,-0L0.188,-0.298C0.188,-0.36 0.18,-0.458 0.172,-0.518L0.176,-0.518L0.226,-0.352L0.332,-0.06L0.41,-0.06L0.516,-0.352L0.568,-0.518L0.572,-0.518C0.564,-0.458 0.555,-0.36 0.555,-0.298L0.555,-0L0.662,-0L0.662,-0.654L0.524,-0.654L0.412,-0.334C0.398,-0.292 0.388,-0.254 0.376,-0.206L0.372,-0.206C0.36,-0.254 0.348,-0.292 0.334,-0.334L0.222,-0.654L0.083,-0.654L0.083,-0Z" style="fill-rule:nonzero;"/>
                </g>
                <g transform="matrix(50,0,0,50,529.932,1067.08)">
                    <path d="M0.27,-0.412C0.336,-0.412 0.368,-0.368 0.368,-0.298L0.158,-0.298C0.172,-0.385 0.222,-0.412 0.27,-0.412ZM0.284,0.012C0.346,0.012 0.406,-0.008 0.452,-0.04L0.412,-0.114C0.378,-0.092 0.34,-0.08 0.298,-0.08C0.23,-0.08 0.169,-0.12 0.156,-0.21L0.464,-0.21C0.468,-0.228 0.47,-0.248 0.47,-0.27C0.47,-0.406 0.402,-0.503 0.268,-0.503C0.152,-0.503 0.04,-0.406 0.04,-0.246C0.04,-0.082 0.146,0.012 0.284,0.012Z" style="fill-rule:nonzero;"/>
                </g>
                <g transform="matrix(50,0,0,50,554.782,1067.08)">
                    <path d="M0.246,0.01C0.286,0.01 0.321,0.001 0.347,-0.01L0.326,-0.091C0.31,-0.084 0.292,-0.081 0.275,-0.081C0.228,-0.081 0.206,-0.11 0.206,-0.167L0.206,-0.4L0.331,-0.4L0.331,-0.491L0.206,-0.491L0.206,-0.645L0.11,-0.645L0.096,-0.491L0.02,-0.486L0.02,-0.4L0.09,-0.4L0.09,-0.167C0.09,-0.061 0.132,0.01 0.246,0.01Z" style="fill-rule:nonzero;"/>
                </g>
                <g transform="matrix(50,0,0,50,571.782,1067.08)">
                    <path d="M0.192,0.012C0.25,0.012 0.298,-0.016 0.344,-0.054L0.348,-0.054L0.356,-0L0.451,-0L0.451,-0.29C0.451,-0.428 0.39,-0.503 0.268,-0.503C0.19,-0.503 0.12,-0.474 0.066,-0.44L0.108,-0.362C0.152,-0.388 0.198,-0.408 0.246,-0.408C0.312,-0.408 0.334,-0.366 0.336,-0.316C0.134,-0.294 0.046,-0.242 0.046,-0.132C0.046,-0.046 0.106,0.012 0.192,0.012ZM0.228,-0.082C0.188,-0.082 0.158,-0.098 0.158,-0.14C0.158,-0.19 0.202,-0.22 0.336,-0.236L0.336,-0.132C0.3,-0.098 0.268,-0.082 0.228,-0.082Z" style="fill-rule:nonzero;"/>
                </g>
                <g transform="matrix(50,0,0,50,597.582,1067.08)">
                    <path d="M0.245,0.012C0.298,0.012 0.348,-0.017 0.384,-0.053L0.388,-0.053L0.396,-0L0.491,-0L0.491,-0.706L0.376,-0.706L0.376,-0.528L0.38,-0.449C0.342,-0.482 0.307,-0.503 0.251,-0.503C0.144,-0.503 0.043,-0.405 0.043,-0.245C0.043,-0.083 0.122,0.012 0.245,0.012ZM0.273,-0.083C0.202,-0.083 0.162,-0.14 0.162,-0.246C0.162,-0.349 0.213,-0.408 0.276,-0.408C0.309,-0.408 0.342,-0.397 0.376,-0.367L0.376,-0.138C0.343,-0.1 0.311,-0.083 0.273,-0.083Z" style="fill-rule:nonzero;"/>
                </g>
                <g transform="matrix(50,0,0,50,625.782,1067.08)">
                    <path d="M0.192,0.012C0.25,0.012 0.298,-0.016 0.344,-0.054L0.348,-0.054L0.356,-0L0.451,-0L0.451,-0.29C0.451,-0.428 0.39,-0.503 0.268,-0.503C0.19,-0.503 0.12,-0.474 0.066,-0.44L0.108,-0.362C0.152,-0.388 0.198,-0.408 0.246,-0.408C0.312,-0.408 0.334,-0.366 0.336,-0.316C0.134,-0.294 0.046,-0.242 0.046,-0.132C0.046,-0.046 0.106,0.012 0.192,0.012ZM0.228,-0.082C0.188,-0.082 0.158,-0.098 0.158,-0.14C0.158,-0.19 0.202,-0.22 0.336,-0.236L0.336,-0.132C0.3,-0.098 0.268,-0.082 0.228,-0.082Z" style="fill-rule:nonzero;"/>
                </g>
                <g transform="matrix(50,0,0,50,650.782,1067.08)">
                    <path d="M0.246,0.01C0.286,0.01 0.321,0.001 0.347,-0.01L0.326,-0.091C0.31,-0.084 0.292,-0.081 0.275,-0.081C0.228,-0.081 0.206,-0.11 0.206,-0.167L0.206,-0.4L0.331,-0.4L0.331,-0.491L0.206,-0.491L0.206,-0.645L0.11,-0.645L0.096,-0.491L0.02,-0.486L0.02,-0.4L0.09,-0.4L0.09,-0.167C0.09,-0.061 0.132,0.01 0.246,0.01Z" style="fill-rule:nonzero;"/>
                </g>
                <g transform="matrix(50,0,0,50,668.032,1067.08)">
                    <path d="M0.27,-0.412C0.336,-0.412 0.368,-0.368 0.368,-0.298L0.158,-0.298C0.172,-0.385 0.222,-0.412 0.27,-0.412ZM0.284,0.012C0.346,0.012 0.406,-0.008 0.452,-0.04L0.412,-0.114C0.378,-0.092 0.34,-0.08 0.298,-0.08C0.23,-0.08 0.169,-0.12 0.156,-0.21L0.464,-0.21C0.468,-0.228 0.47,-0.248 0.47,-0.27C0.47,-0.406 0.402,-0.503 0.268,-0.503C0.152,-0.503 0.04,-0.406 0.04,-0.246C0.04,-0.082 0.146,0.012 0.284,0.012Z" style="fill-rule:nonzero;"/>
                </g>
                <g transform="matrix(50,0,0,50,693.382,1067.08)">
                    <path d="M0.073,-0L0.188,-0L0.188,-0.343C0.229,-0.383 0.257,-0.404 0.3,-0.404C0.354,-0.404 0.377,-0.374 0.377,-0.293L0.377,-0L0.492,-0L0.492,-0.308C0.492,-0.432 0.446,-0.503 0.341,-0.503C0.274,-0.503 0.224,-0.468 0.18,-0.425L0.176,-0.425L0.168,-0.491L0.073,-0.491L0.073,-0Z" style="fill-rule:nonzero;"/>
                </g>
                <g transform="matrix(50,0,0,50,721.382,1067.08)">
                    <rect x="0.042" y="-0.294" width="0.238" height="0.084" style="fill-rule:nonzero;"/>
                </g>
                <g transform="matrix(50,0,0,50,483.182,1117.08)">
                    <path d="M0.311,0.012C0.42,0.012 0.521,-0.085 0.521,-0.254C0.521,-0.405 0.45,-0.503 0.327,-0.503C0.277,-0.503 0.226,-0.478 0.185,-0.442L0.188,-0.524L0.188,-0.706L0.073,-0.706L0.073,-0L0.164,-0L0.174,-0.052L0.177,-0.052C0.218,-0.011 0.266,0.012 0.311,0.012ZM0.287,-0.083C0.258,-0.083 0.223,-0.094 0.188,-0.124L0.188,-0.353C0.226,-0.39 0.26,-0.408 0.296,-0.408C0.37,-0.408 0.402,-0.35 0.402,-0.252C0.402,-0.141 0.352,-0.083 0.287,-0.083Z" style="fill-rule:nonzero;"/>
                </g>
                <g transform="matrix(50,0,0,50,511.332,1117.08)">
                    <path d="M0.27,-0.412C0.336,-0.412 0.368,-0.368 0.368,-0.298L0.158,-0.298C0.172,-0.385 0.222,-0.412 0.27,-0.412ZM0.284,0.012C0.346,0.012 0.406,-0.008 0.452,-0.04L0.412,-0.114C0.378,-0.092 0.34,-0.08 0.298,-0.08C0.23,-0.08 0.169,-0.12 0.156,-0.21L0.464,-0.21C0.468,-0.228 0.47,-0.248 0.47,-0.27C0.47,-0.406 0.402,-0.503 0.268,-0.503C0.152,-0.503 0.04,-0.406 0.04,-0.246C0.04,-0.082 0.146,0.012 0.284,0.012Z" style="fill-rule:nonzero;"/>
                </g>
                <g transform="matrix(50,0,0,50,536.082,1117.08)">
                    <path d="M0.192,0.012C0.25,0.012 0.298,-0.016 0.344,-0.054L0.348,-0.054L0.356,-0L0.451,-0L0.451,-0.29C0.451,-0.428 0.39,-0.503 0.268,-0.503C0.19,-0.503 0.12,-0.474 0.066,-0.44L0.108,-0.362C0.152,-0.388 0.198,-0.408 0.246,-0.408C0.312,-0.408 0.334,-0.366 0.336,-0.316C0.134,-0.294 0.046,-0.242 0.046,-0.132C0.046,-0.046 0.106,0.012 0.192,0.012ZM0.228,-0.082C0.188,-0.082 0.158,-0.098 0.158,-0.14C0.158,-0.19 0.202,-0.22 0.336,-0.236L0.336,-0.132C0.3,-0.098 0.268,-0.082 0.228,-0.082Z" style="fill-rule:nonzero;"/>
                </g>
                <g transform="matrix(50,0,0,50,561.882,1117.08)">
                    <path d="M0.073,-0L0.188,-0L0.188,-0.3C0.218,-0.374 0.265,-0.401 0.304,-0.401C0.325,-0.401 0.336,-0.399 0.352,-0.395L0.375,-0.493C0.36,-0.5 0.344,-0.503 0.319,-0.503C0.266,-0.503 0.214,-0.468 0.18,-0.404L0.176,-0.404L0.168,-0.491L0.073,-0.491L0.073,-0Z" style="fill-rule:nonzero;"/>
                </g>
                <g transform="matrix(50,0,0,50,580.532,1117.08)">
                    <path d="M0.311,0.012C0.42,0.012 0.521,-0.085 0.521,-0.254C0.521,-0.405 0.45,-0.503 0.327,-0.503C0.277,-0.503 0.226,-0.478 0.185,-0.442L0.188,-0.524L0.188,-0.706L0.073,-0.706L0.073,-0L0.164,-0L0.174,-0.052L0.177,-0.052C0.218,-0.011 0.266,0.012 0.311,0.012ZM0.287,-0.083C0.258,-0.083 0.223,-0.094 0.188,-0.124L0.188,-0.353C0.226,-0.39 0.26,-0.408 0.296,-0.408C0.37,-0.408 0.402,-0.35 0.402,-0.252C0.402,-0.141 0.352,-0.083 0.287,-0.083Z" style="fill-rule:nonzero;"/>
                </g>
                <g transform="matrix(50,0,0,50,608.682,1117.08)">
                    <path d="M0.27,-0.412C0.336,-0.412 0.368,-0.368 0.368,-0.298L0.158,-0.298C0.172,-0.385 0.222,-0.412 0.27,-0.412ZM0.284,0.012C0.346,0.012 0.406,-0.008 0.452,-0.04L0.412,-0.114C0.378,-0.092 0.34,-0.08 0.298,-0.08C0.23,-0.08 0.169,-0.12 0.156,-0.21L0.464,-0.21C0.468,-0.228 0.47,-0.248 0.47,-0.27C0.47,-0.406 0.402,-0.503 0.268,-0.503C0.152,-0.503 0.04,-0.406 0.04,-0.246C0.04,-0.082 0.146,0.012 0.284,0.012Z" style="fill-rule:nonzero;"/>
                </g>
                <g transform="matrix(50,0,0,50,634.032,1117.08)">
                    <path d="M0.073,-0L0.188,-0L0.188,-0.491L0.073,-0.491L0.073,-0ZM0.13,-0.577C0.171,-0.577 0.199,-0.603 0.199,-0.643C0.199,-0.682 0.171,-0.708 0.13,-0.708C0.089,-0.708 0.061,-0.682 0.061,-0.643C0.061,-0.603 0.089,-0.577 0.13,-0.577Z" style="fill-rule:nonzero;"/>
                </g>
                <g transform="matrix(50,0,0,50,647.132,1117.08)">
                    <path d="M0.246,0.01C0.286,0.01 0.321,0.001 0.347,-0.01L0.326,-0.091C0.31,-0.084 0.292,-0.081 0.275,-0.081C0.228,-0.081 0.206,-0.11 0.206,-0.167L0.206,-0.4L0.331,-0.4L0.331,-0.491L0.206,-0.491L0.206,-0.645L0.11,-0.645L0.096,-0.491L0.02,-0.486L0.02,-0.4L0.09,-0.4L0.09,-0.167C0.09,-0.061 0.132,0.01 0.246,0.01Z" style="fill-rule:nonzero;"/>
                </g>
                <g transform="matrix(50,0,0,50,665.182,1117.08)">
                    <path d="M0.219,0.012C0.286,0.012 0.334,-0.021 0.377,-0.072L0.38,-0.072L0.389,-0L0.483,-0L0.483,-0.491L0.368,-0.491L0.368,-0.155C0.331,-0.107 0.302,-0.087 0.259,-0.087C0.206,-0.087 0.183,-0.117 0.183,-0.198L0.183,-0.491L0.068,-0.491L0.068,-0.183C0.068,-0.059 0.114,0.012 0.219,0.012Z" style="fill-rule:nonzero;"/>
                </g>
                <g transform="matrix(50,0,0,50,692.982,1117.08)">
                    <path d="M0.073,-0L0.188,-0L0.188,-0.343C0.229,-0.383 0.257,-0.404 0.3,-0.404C0.354,-0.404 0.377,-0.374 0.377,-0.293L0.377,-0L0.492,-0L0.492,-0.308C0.492,-0.432 0.446,-0.503 0.341,-0.503C0.274,-0.503 0.224,-0.468 0.18,-0.425L0.176,-0.425L0.168,-0.491L0.073,-0.491L0.073,-0Z" style="fill-rule:nonzero;"/>
                </g>
                <g transform="matrix(50,0,0,50,720.982,1117.08)">
                    <path d="M0.244,0.217C0.404,0.217 0.506,0.141 0.506,0.044C0.506,-0.041 0.444,-0.077 0.326,-0.077L0.239,-0.077C0.179,-0.077 0.159,-0.094 0.159,-0.122C0.159,-0.144 0.168,-0.156 0.183,-0.169C0.205,-0.16 0.229,-0.156 0.25,-0.156C0.354,-0.156 0.436,-0.214 0.436,-0.322C0.436,-0.356 0.424,-0.382 0.406,-0.402L0.406,-0.406L0.498,-0.406L0.498,-0.491L0.322,-0.491C0.302,-0.498 0.277,-0.503 0.25,-0.503C0.147,-0.503 0.056,-0.44 0.056,-0.327C0.056,-0.269 0.087,-0.222 0.12,-0.197L0.12,-0.193C0.092,-0.173 0.066,-0.14 0.066,-0.102C0.066,-0.062 0.085,-0.036 0.11,-0.02L0.11,-0.016C0.065,0.012 0.04,0.048 0.04,0.089C0.04,0.175 0.127,0.217 0.244,0.217ZM0.25,-0.228C0.202,-0.228 0.164,-0.264 0.164,-0.327C0.164,-0.389 0.202,-0.424 0.25,-0.424C0.298,-0.424 0.335,-0.389 0.335,-0.327C0.335,-0.264 0.297,-0.228 0.25,-0.228ZM0.262,0.142C0.184,0.142 0.136,0.116 0.136,0.072C0.136,0.049 0.148,0.027 0.174,0.007C0.193,0.012 0.214,0.014 0.241,0.014L0.308,0.014C0.364,0.014 0.395,0.025 0.395,0.063C0.395,0.105 0.341,0.142 0.262,0.142Z" style="fill-rule:nonzero;"/>
                </g>
            </g>
        </g>
        <g transform="matrix(1,0,0,1,0,260.722)">
            <path d="M739.29,997.066L739.29,1093.89C739.29,1120.61 717.597,1142.31 690.876,1142.31L475.741,1142.31C449.021,1142.31 427.327,1120.61 427.327,1093.89L427.327,997.066C427.327,970.345 449.021,948.651 475.741,948.651L690.876,948.651C717.597,948.651 739.29,970.345 739.29,997.066Z" style="fill:none;stroke:black;stroke-width:3.54px;"/>
            <g transform="matrix(1,0,0,1,-30.7987,-27.896)">
                <g transform="matrix(50,0,0,50,509.257,1067.08)">
                    <path d="M0.337,-0.083C0.234,-0.083 0.168,-0.177 0.168,-0.33C0.168,-0.476 0.234,-0.565 0.337,-0.565C0.44,-0.565 0.506,-0.476 0.506,-0.33C0.506,-0.177 0.44,-0.083 0.337,-0.083ZM0.545,0.174C0.59,0.174 0.628,0.165 0.65,0.154L0.629,0.07C0.61,0.075 0.587,0.079 0.558,0.079C0.495,0.079 0.436,0.056 0.406,0.004C0.539,-0.026 0.626,-0.148 0.626,-0.33C0.626,-0.541 0.508,-0.666 0.337,-0.666C0.167,-0.666 0.049,-0.541 0.049,-0.33C0.049,-0.141 0.142,-0.018 0.283,0.007C0.325,0.104 0.415,0.174 0.545,0.174Z" style="fill-rule:nonzero;"/>
                </g>
                <g transform="matrix(50,0,0,50,542.957,1067.08)">
                    <path d="M0.219,0.012C0.286,0.012 0.334,-0.021 0.377,-0.072L0.38,-0.072L0.389,-0L0.483,-0L0.483,-0.491L0.368,-0.491L0.368,-0.155C0.331,-0.107 0.302,-0.087 0.259,-0.087C0.206,-0.087 0.183,-0.117 0.183,-0.198L0.183,-0.491L0.068,-0.491L0.068,-0.183C0.068,-0.059 0.114,0.012 0.219,0.012Z" style="fill-rule:nonzero;"/>
                </g>
                <g transform="matrix(50,0,0,50,570.757,1067.08)">
                    <path d="M0.192,0.012C0.25,0.012 0.298,-0.016 0.344,-0.054L0.348,-0.054L0.356,-0L0.451,-0L0.451,-0.29C0.451,-0.428 0.39,-0.503 0.268,-0.503C0.19,-0.503 0.12,-0.474 0.066,-0.44L0.108,-0.362C0.152,-0.388 0.198,-0.408 0.246,-0.408C0.312,-0.408 0.334,-0.366 0.336,-0.316C0.134,-0.294 0.046,-0.242 0.046,-0.132C0.046,-0.046 0.106,0.012 0.192,0.012ZM0.228,-0.082C0.188,-0.082 0.158,-0.098 0.158,-0.14C0.158,-0.19 0.202,-0.22 0.336,-0.236L0.336,-0.132C0.3,-0.098 0.268,-0.082 0.228,-0.082Z" style="fill-rule:nonzero;"/>
                </g>
                <g transform="matrix(50,0,0,50,596.557,1067.08)">
                    <path d="M0.185,0.01C0.212,0.01 0.232,0.006 0.246,-0L0.231,-0.086C0.223,-0.084 0.219,-0.084 0.214,-0.084C0.201,-0.084 0.188,-0.093 0.188,-0.122L0.188,-0.706L0.073,-0.706L0.073,-0.128C0.073,-0.042 0.103,0.01 0.185,0.01Z" style="fill-rule:nonzero;"/>
                </g>
                <g transform="matrix(50,0,0,50,610.107,1067.08)">
                    <path d="M0.073,-0L0.188,-0L0.188,-0.491L0.073,-0.491L0.073,-0ZM0.13,-0.577C0.171,-0.577 0.199,-0.603 0.199,-0.643C0.199,-0.682 0.171,-0.708 0.13,-0.708C0.089,-0.708 0.061,-0.682 0.061,-0.643C0.061,-0.603 0.089,-0.577 0.13,-0.577Z" style="fill-rule:nonzero;"/>
                </g>
                <g transform="matrix(50,0,0,50,623.207,1067.08)">
                    <path d="M0.246,0.01C0.286,0.01 0.321,0.001 0.347,-0.01L0.326,-0.091C0.31,-0.084 0.292,-0.081 0.275,-0.081C0.228,-0.081 0.206,-0.11 0.206,-0.167L0.206,-0.4L0.331,-0.4L0.331,-0.491L0.206,-0.491L0.206,-0.645L0.11,-0.645L0.096,-0.491L0.02,-0.486L0.02,-0.4L0.09,-0.4L0.09,-0.167C0.09,-0.061 0.132,0.01 0.246,0.01Z" style="fill-rule:nonzero;"/>
                </g>
                <g transform="matrix(50,0,0,50,640.207,1067.08)">
                    <path d="M0.192,0.012C0.25,0.012 0.298,-0.016 0.344,-0.054L0.348,-0.054L0.356,-0L0.451,-0L0.451,-0.29C0.451,-0.428 0.39,-0.503 0.268,-0.503C0.19,-0.503 0.12,-0.474 0.066,-0.44L0.108,-0.362C0.152,-0.388 0.198,-0.408 0.246,-0.408C0.312,-0.408 0.334,-0.366 0.336,-0.316C0.134,-0.294 0.046,-0.242 0.046,-0.132C0.046,-0.046 0.106,0.012 0.192,0.012ZM0.228,-0.082C0.188,-0.082 0.158,-0.098 0.158,-0.14C0.158,-0.19 0.202,-0.22 0.336,-0.236L0.336,-0.132C0.3,-0.098 0.268,-0.082 0.228,-0.082ZM0.169,-0.578C0.205,-0.578 0.23,-0.605 0.23,-0.639C0.23,-0.673 0.205,-0.7 0.169,-0.7C0.134,-0.7 0.108,-0.673 0.108,-0.639C0.108,-0.605 0.134,-0.578 0.169,-0.578ZM0.375,-0.578C0.41,-0.578 0.436,-0.605 0.436,-0.639C0.436,-0.673 0.41,-0.7 0.375,-0.7C0.339,-0.7 0.314,-0.673 0.314,-0.639C0.314,-0.605 0.339,-0.578 0.375,-0.578Z" style="fill-rule:nonzero;"/>
                </g>
                <g transform="matrix(50,0,0,50,665.207,1067.08)">
                    <path d="M0.246,0.01C0.286,0.01 0.321,0.001 0.347,-0.01L0.326,-0.091C0.31,-0.084 0.292,-0.081 0.275,-0.081C0.228,-0.081 0.206,-0.11 0.206,-0.167L0.206,-0.4L0.331,-0.4L0.331,-0.491L0.206,-0.491L0.206,-0.645L0.11,-0.645L0.096,-0.491L0.02,-0.486L0.02,-0.4L0.09,-0.4L0.09,-0.167C0.09,-0.061 0.132,0.01 0.246,0.01Z" style="fill-rule:nonzero;"/>
                </g>
                <g transform="matrix(50,0,0,50,682.757,1067.08)">
                    <path d="M0.21,0.012C0.334,0.012 0.401,-0.056 0.401,-0.14C0.401,-0.226 0.334,-0.264 0.258,-0.29C0.196,-0.311 0.16,-0.326 0.16,-0.362C0.16,-0.392 0.183,-0.416 0.233,-0.416C0.272,-0.416 0.308,-0.404 0.343,-0.379L0.394,-0.444C0.354,-0.478 0.297,-0.503 0.23,-0.503C0.12,-0.503 0.052,-0.442 0.052,-0.356C0.052,-0.278 0.118,-0.238 0.189,-0.212C0.243,-0.192 0.292,-0.175 0.292,-0.134C0.292,-0.1 0.267,-0.075 0.214,-0.075C0.163,-0.075 0.118,-0.09 0.075,-0.126L0.024,-0.06C0.072,-0.014 0.142,0.012 0.21,0.012Z" style="fill-rule:nonzero;"/>
                </g>
                <g transform="matrix(50,0,0,50,704.807,1067.08)">
                    <rect x="0.042" y="-0.294" width="0.238" height="0.084" style="fill-rule:nonzero;"/>
                </g>
                <g transform="matrix(50,0,0,50,483.657,1117.08)">
                    <path d="M0.073,-0L0.187,-0L0.187,-0.126L0.263,-0.213L0.389,-0L0.514,-0L0.33,-0.29L0.497,-0.491L0.37,-0.491L0.19,-0.266L0.187,-0.266L0.187,-0.706L0.073,-0.706L0.073,-0Z" style="fill-rule:nonzero;"/>
                </g>
                <g transform="matrix(50,0,0,50,508.607,1117.08)">
                    <path d="M0.274,0.012C0.397,0.012 0.508,-0.082 0.508,-0.245C0.508,-0.409 0.397,-0.503 0.274,-0.503C0.152,-0.503 0.041,-0.409 0.041,-0.245C0.041,-0.082 0.152,0.012 0.274,0.012ZM0.274,-0.082C0.202,-0.082 0.159,-0.147 0.159,-0.245C0.159,-0.344 0.202,-0.409 0.274,-0.409C0.346,-0.409 0.39,-0.344 0.39,-0.245C0.39,-0.147 0.346,-0.082 0.274,-0.082Z" style="fill-rule:nonzero;"/>
                </g>
                <g transform="matrix(50,0,0,50,536.057,1117.08)">
                    <path d="M0.073,-0L0.188,-0L0.188,-0.343C0.229,-0.383 0.257,-0.404 0.3,-0.404C0.354,-0.404 0.377,-0.374 0.377,-0.293L0.377,-0L0.492,-0L0.492,-0.308C0.492,-0.432 0.446,-0.503 0.341,-0.503C0.274,-0.503 0.224,-0.468 0.18,-0.425L0.176,-0.425L0.168,-0.491L0.073,-0.491L0.073,-0Z" style="fill-rule:nonzero;"/>
                </g>
                <g transform="matrix(50,0,0,50,564.057,1117.08)">
                    <path d="M0.246,0.01C0.286,0.01 0.321,0.001 0.347,-0.01L0.326,-0.091C0.31,-0.084 0.292,-0.081 0.275,-0.081C0.228,-0.081 0.206,-0.11 0.206,-0.167L0.206,-0.4L0.331,-0.4L0.331,-0.491L0.206,-0.491L0.206,-0.645L0.11,-0.645L0.096,-0.491L0.02,-0.486L0.02,-0.4L0.09,-0.4L0.09,-0.167C0.09,-0.061 0.132,0.01 0.246,0.01Z" style="fill-rule:nonzero;"/>
                </g>
                <g transform="matrix(50,0,0,50,582.107,1117.08)">
                    <path d="M0.073,-0L0.188,-0L0.188,-0.3C0.218,-0.374 0.265,-0.401 0.304,-0.401C0.325,-0.401 0.336,-0.399 0.352,-0.395L0.375,-0.493C0.36,-0.5 0.344,-0.503 0.319,-0.503C0.266,-0.503 0.214,-0.468 0.18,-0.404L0.176,-0.404L0.168,-0.491L0.073,-0.491L0.073,-0Z" style="fill-rule:nonzero;"/>
                </g>
                <g transform="matrix(50,0,0,50,600.257,1117.08)">
                    <path d="M0.274,0.012C0.397,0.012 0.508,-0.082 0.508,-0.245C0.508,-0.409 0.397,-0.503 0.274,-0.503C0.152,-0.503 0.041,-0.409 0.041,-0.245C0.041,-0.082 0.152,0.012 0.274,0.012ZM0.274,-0.082C0.202,-0.082 0.159,-0.147 0.159,-0.245C0.159,-0.344 0.202,-0.409 0.274,-0.409C0.346,-0.409 0.39,-0.344 0.39,-0.245C0.39,-0.147 0.346,-0.082 0.274,-0.082Z" style="fill-rule:nonzero;"/>
                </g>
                <g transform="matrix(50,0,0,50,627.707,1117.08)">
                    <path d="M0.185,0.01C0.212,0.01 0.232,0.006 0.246,-0L0.231,-0.086C0.223,-0.084 0.219,-0.084 0.214,-0.084C0.201,-0.084 0.188,-0.093 0.188,-0.122L0.188,-0.706L0.073,-0.706L0.073,-0.128C0.073,-0.042 0.103,0.01 0.185,0.01Z" style="fill-rule:nonzero;"/>
                </g>
                <g transform="matrix(50,0,0,50,641.257,1117.08)">
                    <path d="M0.185,0.01C0.212,0.01 0.232,0.006 0.246,-0L0.231,-0.086C0.223,-0.084 0.219,-0.084 0.214,-0.084C0.201,-0.084 0.188,-0.093 0.188,-0.122L0.188,-0.706L0.073,-0.706L0.073,-0.128C0.073,-0.042 0.103,0.01 0.185,0.01Z" style="fill-rule:nonzero;"/>
                </g>
                <g transform="matrix(50,0,0,50,654.807,1117.08)">
                    <path d="M0.27,-0.412C0.336,-0.412 0.368,-0.368 0.368,-0.298L0.158,-0.298C0.172,-0.385 0.222,-0.412 0.27,-0.412ZM0.284,0.012C0.346,0.012 0.406,-0.008 0.452,-0.04L0.412,-0.114C0.378,-0.092 0.34,-0.08 0.298,-0.08C0.23,-0.08 0.169,-0.12 0.156,-0.21L0.464,-0.21C0.468,-0.228 0.47,-0.248 0.47,-0.27C0.47,-0.406 0.402,-0.503 0.268,-0.503C0.152,-0.503 0.04,-0.406 0.04,-0.246C0.04,-0.082 0.146,0.012 0.284,0.012Z" style="fill-rule:nonzero;"/>
                </g>
                <g transform="matrix(50,0,0,50,690.157,1117.08)">
                    <path d="M0.083,-0L0.264,-0C0.458,-0 0.576,-0.113 0.576,-0.33C0.576,-0.546 0.458,-0.654 0.258,-0.654L0.083,-0.654L0.083,-0ZM0.199,-0.094L0.199,-0.56L0.25,-0.56C0.382,-0.56 0.457,-0.49 0.457,-0.33C0.457,-0.169 0.382,-0.094 0.25,-0.094L0.199,-0.094Z" style="fill-rule:nonzero;"/>
                </g>
                <g transform="matrix(50,0,0,50,721.407,1117.08)">
                    <path d="M0.083,-0L0.471,-0L0.471,-0.098L0.199,-0.098L0.199,-0.654L0.083,-0.654L0.083,-0Z" style="fill-rule:nonzero;"/>
                </g>
            </g>
        </g>
        <g transform="matrix(1,0,0,1,380.05,260.448)">
            <path d="M739.29,997.066L739.29,1093.89C739.29,1120.61 717.597,1142.31 690.876,1142.31L475.741,1142.31C449.021,1142.31 427.327,1120.61 427.327,1093.89L427.327,997.066C427.327,970.345 449.021,948.651 475.741,948.651L690.876,948.651C717.597,948.651 739.29,970.345 739.29,997.066Z" style="fill:none;stroke:black;stroke-width:3.54px;"/>
            <g transform="matrix(1,0,0,1,-30.7987,-50.1793)">
                <g transform="matrix(45.8333,0,0,45.8333,518.076,1067.08)">
                    <path d="M0.337,-0.083C0.234,-0.083 0.168,-0.177 0.168,-0.33C0.168,-0.476 0.234,-0.565 0.337,-0.565C0.44,-0.565 0.506,-0.476 0.506,-0.33C0.506,-0.177 0.44,-0.083 0.337,-0.083ZM0.545,0.174C0.59,0.174 0.628,0.165 0.65,0.154L0.629,0.07C0.61,0.075 0.587,0.079 0.558,0.079C0.495,0.079 0.436,0.056 0.406,0.004C0.539,-0.026 0.626,-0.148 0.626,-0.33C0.626,-0.541 0.508,-0.666 0.337,-0.666C0.167,-0.666 0.049,-0.541 0.049,-0.33C0.049,-0.141 0.142,-0.018 0.283,0.007C0.325,0.104 0.415,0.174 0.545,0.174Z" style="fill-rule:nonzero;"/>
                </g>
                <g transform="matrix(45.8333,0,0,45.8333,548.968,1067.08)">
                    <path d="M0.219,0.012C0.286,0.012 0.334,-0.021 0.377,-0.072L0.38,-0.072L0.389,-0L0.483,-0L0.483,-0.491L0.368,-0.491L0.368,-0.155C0.331,-0.107 0.302,-0.087 0.259,-0.087C0.206,-0.087 0.183,-0.117 0.183,-0.198L0.183,-0.491L0.068,-0.491L0.068,-0.183C0.068,-0.059 0.114,0.012 0.219,0.012Z" style="fill-rule:nonzero;"/>
                </g>
                <g transform="matrix(45.8333,0,0,45.8333,574.451,1067.08)">
                    <path d="M0.192,0.012C0.25,0.012 0.298,-0.016 0.344,-0.054L0.348,-0.054L0.356,-0L0.451,-0L0.451,-0.29C0.451,-0.428 0.39,-0.503 0.268,-0.503C0.19,-0.503 0.12,-0.474 0.066,-0.44L0.108,-0.362C0.152,-0.388 0.198,-0.408 0.246,-0.408C0.312,-0.408 0.334,-0.366 0.336,-0.316C0.134,-0.294 0.046,-0.242 0.046,-0.132C0.046,-0.046 0.106,0.012 0.192,0.012ZM0.228,-0.082C0.188,-0.082 0.158,-0.098 0.158,-0.14C0.158,-0.19 0.202,-0.22 0.336,-0.236L0.336,-0.132C0.3,-0.098 0.268,-0.082 0.228,-0.082Z" style="fill-rule:nonzero;"/>
                </g>
                <g transform="matrix(45.8333,0,0,45.8333,598.101,1067.08)">
                    <path d="M0.185,0.01C0.212,0.01 0.232,0.006 0.246,-0L0.231,-0.086C0.223,-0.084 0.219,-0.084 0.214,-0.084C0.201,-0.084 0.188,-0.093 0.188,-0.122L0.188,-0.706L0.073,-0.706L0.073,-0.128C0.073,-0.042 0.103,0.01 0.185,0.01Z" style="fill-rule:nonzero;"/>
                </g>
                <g transform="matrix(45.8333,0,0,45.8333,610.522,1067.08)">
                    <path d="M0.073,-0L0.188,-0L0.188,-0.491L0.073,-0.491L0.073,-0ZM0.13,-0.577C0.171,-0.577 0.199,-0.603 0.199,-0.643C0.199,-0.682 0.171,-0.708 0.13,-0.708C0.089,-0.708 0.061,-0.682 0.061,-0.643C0.061,-0.603 0.089,-0.577 0.13,-0.577Z" style="fill-rule:nonzero;"/>
                </g>
                <g transform="matrix(45.8333,0,0,45.8333,622.53,1067.08)">
                    <path d="M0.246,0.01C0.286,0.01 0.321,0.001 0.347,-0.01L0.326,-0.091C0.31,-0.084 0.292,-0.081 0.275,-0.081C0.228,-0.081 0.206,-0.11 0.206,-0.167L0.206,-0.4L0.331,-0.4L0.331,-0.491L0.206,-0.491L0.206,-0.645L0.11,-0.645L0.096,-0.491L0.02,-0.486L0.02,-0.4L0.09,-0.4L0.09,-0.167C0.09,-0.061 0.132,0.01 0.246,0.01Z" style="fill-rule:nonzero;"/>
                </g>
                <g transform="matrix(45.8333,0,0,45.8333,638.114,1067.08)">
                    <path d="M0.192,0.012C0.25,0.012 0.298,-0.016 0.344,-0.054L0.348,-0.054L0.356,-0L0.451,-0L0.451,-0.29C0.451,-0.428 0.39,-0.503 0.268,-0.503C0.19,-0.503 0.12,-0.474 0.066,-0.44L0.108,-0.362C0.152,-0.388 0.198,-0.408 0.246,-0.408C0.312,-0.408 0.334,-0.366 0.336,-0.316C0.134,-0.294 0.046,-0.242 0.046,-0.132C0.046,-0.046 0.106,0.012 0.192,0.012ZM0.228,-0.082C0.188,-0.082 0.158,-0.098 0.158,-0.14C0.158,-0.19 0.202,-0.22 0.336,-0.236L0.336,-0.132C0.3,-0.098 0.268,-0.082 0.228,-0.082ZM0.169,-0.578C0.205,-0.578 0.23,-0.605 0.23,-0.639C0.23,-0.673 0.205,-0.7 0.169,-0.7C0.134,-0.7 0.108,-0.673 0.108,-0.639C0.108,-0.605 0.134,-0.578 0.169,-0.578ZM0.375,-0.578C0.41,-0.578 0.436,-0.605 0.436,-0.639C0.436,-0.673 0.41,-0.7 0.375,-0.7C0.339,-0.7 0.314,-0.673 0.314,-0.639C0.314,-0.605 0.339,-0.578 0.375,-0.578Z" style="fill-rule:nonzero;"/>
                </g>
                <g transform="matrix(45.8333,0,0,45.8333,661.03,1067.08)">
                    <path d="M0.246,0.01C0.286,0.01 0.321,0.001 0.347,-0.01L0.326,-0.091C0.31,-0.084 0.292,-0.081 0.275,-0.081C0.228,-0.081 0.206,-0.11 0.206,-0.167L0.206,-0.4L0.331,-0.4L0.331,-0.491L0.206,-0.491L0.206,-0.645L0.11,-0.645L0.096,-0.491L0.02,-0.486L0.02,-0.4L0.09,-0.4L0.09,-0.167C0.09,-0.061 0.132,0.01 0.246,0.01Z" style="fill-rule:nonzero;"/>
                </g>
                <g transform="matrix(45.8333,0,0,45.8333,677.118,1067.08)">
                    <path d="M0.21,0.012C0.334,0.012 0.401,-0.056 0.401,-0.14C0.401,-0.226 0.334,-0.264 0.258,-0.29C0.196,-0.311 0.16,-0.326 0.16,-0.362C0.16,-0.392 0.183,-0.416 0.233,-0.416C0.272,-0.416 0.308,-0.404 0.343,-0.379L0.394,-0.444C0.354,-0.478 0.297,-0.503 0.23,-0.503C0.12,-0.503 0.052,-0.442 0.052,-0.356C0.052,-0.278 0.118,-0.238 0.189,-0.212C0.243,-0.192 0.292,-0.175 0.292,-0.134C0.292,-0.1 0.267,-0.075 0.214,-0.075C0.163,-0.075 0.118,-0.09 0.075,-0.126L0.024,-0.06C0.072,-0.014 0.142,0.012 0.21,0.012Z" style="fill-rule:nonzero;"/>
                </g>
                <g transform="matrix(45.8333,0,0,45.8333,697.33,1067.08)">
                    <rect x="0.042" y="-0.294" width="0.238" height="0.084" style="fill-rule:nonzero;"/>
                </g>
                <g transform="matrix(45.8333,0,0,45.8333,525.02,1112.91)">
                    <path d="M0.073,-0L0.187,-0L0.187,-0.126L0.263,-0.213L0.389,-0L0.514,-0L0.33,-0.29L0.497,-0.491L0.37,-0.491L0.19,-0.266L0.187,-0.266L0.187,-0.706L0.073,-0.706L0.073,-0Z" style="fill-rule:nonzero;"/>
                </g>
                <g transform="matrix(45.8333,0,0,45.8333,547.891,1112.91)">
                    <path d="M0.274,0.012C0.397,0.012 0.508,-0.082 0.508,-0.245C0.508,-0.409 0.397,-0.503 0.274,-0.503C0.152,-0.503 0.041,-0.409 0.041,-0.245C0.041,-0.082 0.152,0.012 0.274,0.012ZM0.274,-0.082C0.202,-0.082 0.159,-0.147 0.159,-0.245C0.159,-0.344 0.202,-0.409 0.274,-0.409C0.346,-0.409 0.39,-0.344 0.39,-0.245C0.39,-0.147 0.346,-0.082 0.274,-0.082Z" style="fill-rule:nonzero;"/>
                </g>
                <g transform="matrix(45.8333,0,0,45.8333,573.053,1112.91)">
                    <path d="M0.073,-0L0.188,-0L0.188,-0.343C0.229,-0.383 0.257,-0.404 0.3,-0.404C0.354,-0.404 0.377,-0.374 0.377,-0.293L0.377,-0L0.492,-0L0.492,-0.308C0.492,-0.432 0.446,-0.503 0.341,-0.503C0.274,-0.503 0.224,-0.468 0.18,-0.425L0.176,-0.425L0.168,-0.491L0.073,-0.491L0.073,-0Z" style="fill-rule:nonzero;"/>
                </g>
                <g transform="matrix(45.8333,0,0,45.8333,598.72,1112.91)">
                    <path d="M0.246,0.01C0.286,0.01 0.321,0.001 0.347,-0.01L0.326,-0.091C0.31,-0.084 0.292,-0.081 0.275,-0.081C0.228,-0.081 0.206,-0.11 0.206,-0.167L0.206,-0.4L0.331,-0.4L0.331,-0.491L0.206,-0.491L0.206,-0.645L0.11,-0.645L0.096,-0.491L0.02,-0.486L0.02,-0.4L0.09,-0.4L0.09,-0.167C0.09,-0.061 0.132,0.01 0.246,0.01Z" style="fill-rule:nonzero;"/>
                </g>
                <g transform="matrix(45.8333,0,0,45.8333,615.266,1112.91)">
                    <path d="M0.073,-0L0.188,-0L0.188,-0.3C0.218,-0.374 0.265,-0.401 0.304,-0.401C0.325,-0.401 0.336,-0.399 0.352,-0.395L0.375,-0.493C0.36,-0.5 0.344,-0.503 0.319,-0.503C0.266,-0.503 0.214,-0.468 0.18,-0.404L0.176,-0.404L0.168,-0.491L0.073,-0.491L0.073,-0Z" style="fill-rule:nonzero;"/>
                </g>
                <g transform="matrix(45.8333,0,0,45.8333,631.903,1112.91)">
                    <path d="M0.274,0.012C0.397,0.012 0.508,-0.082 0.508,-0.245C0.508,-0.409 0.397,-0.503 0.274,-0.503C0.152,-0.503 0.041,-0.409 0.041,-0.245C0.041,-0.082 0.152,0.012 0.274,0.012ZM0.274,-0.082C0.202,-0.082 0.159,-0.147 0.159,-0.245C0.159,-0.344 0.202,-0.409 0.274,-0.409C0.346,-0.409 0.39,-0.344 0.39,-0.245C0.39,-0.147 0.346,-0.082 0.274,-0.082Z" style="fill-rule:nonzero;"/>
                </g>
                <g transform="matrix(45.8333,0,0,45.8333,657.066,1112.91)">
                    <path d="M0.185,0.01C0.212,0.01 0.232,0.006 0.246,-0L0.231,-0.086C0.223,-0.084 0.219,-0.084 0.214,-0.084C0.201,-0.084 0.188,-0.093 0.188,-0.122L0.188,-0.706L0.073,-0.706L0.073,-0.128C0.073,-0.042 0.103,0.01 0.185,0.01Z" style="fill-rule:nonzero;"/>
                </g>
                <g transform="matrix(45.8333,0,0,45.8333,669.487,1112.91)">
                    <path d="M0.185,0.01C0.212,0.01 0.232,0.006 0.246,-0L0.231,-0.086C0.223,-0.084 0.219,-0.084 0.214,-0.084C0.201,-0.084 0.188,-0.093 0.188,-0.122L0.188,-0.706L0.073,-0.706L0.073,-0.128C0.073,-0.042 0.103,0.01 0.185,0.01Z" style="fill-rule:nonzero;"/>
                </g>
                <g transform="matrix(45.8333,0,0,45.8333,681.907,1112.91)">
                    <path d="M0.27,-0.412C0.336,-0.412 0.368,-0.368 0.368,-0.298L0.158,-0.298C0.172,-0.385 0.222,-0.412 0.27,-0.412ZM0.284,0.012C0.346,0.012 0.406,-0.008 0.452,-0.04L0.412,-0.114C0.378,-0.092 0.34,-0.08 0.298,-0.08C0.23,-0.08 0.169,-0.12 0.156,-0.21L0.464,-0.21C0.468,-0.228 0.47,-0.248 0.47,-0.27C0.47,-0.406 0.402,-0.503 0.268,-0.503C0.152,-0.503 0.04,-0.406 0.04,-0.246C0.04,-0.082 0.146,0.012 0.284,0.012Z" style="fill-rule:nonzero;"/>
                </g>
                <g transform="matrix(45.8333,0,0,45.8333,491.287,1158.74)">
                    <path d="M0.083,-0L0.188,-0L0.188,-0.298C0.188,-0.36 0.18,-0.458 0.172,-0.518L0.176,-0.518L0.226,-0.352L0.332,-0.06L0.41,-0.06L0.516,-0.352L0.568,-0.518L0.572,-0.518C0.564,-0.458 0.555,-0.36 0.555,-0.298L0.555,-0L0.662,-0L0.662,-0.654L0.524,-0.654L0.412,-0.334C0.398,-0.292 0.388,-0.254 0.376,-0.206L0.372,-0.206C0.36,-0.254 0.348,-0.292 0.334,-0.334L0.222,-0.654L0.083,-0.654L0.083,-0Z" style="fill-rule:nonzero;"/>
                </g>
                <g transform="matrix(45.8333,0,0,45.8333,525.432,1158.74)">
                    <path d="M0.27,-0.412C0.336,-0.412 0.368,-0.368 0.368,-0.298L0.158,-0.298C0.172,-0.385 0.222,-0.412 0.27,-0.412ZM0.284,0.012C0.346,0.012 0.406,-0.008 0.452,-0.04L0.412,-0.114C0.378,-0.092 0.34,-0.08 0.298,-0.08C0.23,-0.08 0.169,-0.12 0.156,-0.21L0.464,-0.21C0.468,-0.228 0.47,-0.248 0.47,-0.27C0.47,-0.406 0.402,-0.503 0.268,-0.503C0.152,-0.503 0.04,-0.406 0.04,-0.246C0.04,-0.082 0.146,0.012 0.284,0.012Z" style="fill-rule:nonzero;"/>
                </g>
                <g transform="matrix(45.8333,0,0,45.8333,548.212,1158.74)">
                    <path d="M0.246,0.01C0.286,0.01 0.321,0.001 0.347,-0.01L0.326,-0.091C0.31,-0.084 0.292,-0.081 0.275,-0.081C0.228,-0.081 0.206,-0.11 0.206,-0.167L0.206,-0.4L0.331,-0.4L0.331,-0.491L0.206,-0.491L0.206,-0.645L0.11,-0.645L0.096,-0.491L0.02,-0.486L0.02,-0.4L0.09,-0.4L0.09,-0.167C0.09,-0.061 0.132,0.01 0.246,0.01Z" style="fill-rule:nonzero;"/>
                </g>
                <g transform="matrix(45.8333,0,0,45.8333,563.795,1158.74)">
                    <path d="M0.192,0.012C0.25,0.012 0.298,-0.016 0.344,-0.054L0.348,-0.054L0.356,-0L0.451,-0L0.451,-0.29C0.451,-0.428 0.39,-0.503 0.268,-0.503C0.19,-0.503 0.12,-0.474 0.066,-0.44L0.108,-0.362C0.152,-0.388 0.198,-0.408 0.246,-0.408C0.312,-0.408 0.334,-0.366 0.336,-0.316C0.134,-0.294 0.046,-0.242 0.046,-0.132C0.046,-0.046 0.106,0.012 0.192,0.012ZM0.228,-0.082C0.188,-0.082 0.158,-0.098 0.158,-0.14C0.158,-0.19 0.202,-0.22 0.336,-0.236L0.336,-0.132C0.3,-0.098 0.268,-0.082 0.228,-0.082Z" style="fill-rule:nonzero;"/>
                </g>
                <g transform="matrix(45.8333,0,0,45.8333,587.445,1158.74)">
                    <path d="M0.245,0.012C0.298,0.012 0.348,-0.017 0.384,-0.053L0.388,-0.053L0.396,-0L0.491,-0L0.491,-0.706L0.376,-0.706L0.376,-0.528L0.38,-0.449C0.342,-0.482 0.307,-0.503 0.251,-0.503C0.144,-0.503 0.043,-0.405 0.043,-0.245C0.043,-0.083 0.122,0.012 0.245,0.012ZM0.273,-0.083C0.202,-0.083 0.162,-0.14 0.162,-0.246C0.162,-0.349 0.213,-0.408 0.276,-0.408C0.309,-0.408 0.342,-0.397 0.376,-0.367L0.376,-0.138C0.343,-0.1 0.311,-0.083 0.273,-0.083Z" style="fill-rule:nonzero;"/>
                </g>
                <g transform="matrix(45.8333,0,0,45.8333,613.295,1158.74)">
                    <path d="M0.192,0.012C0.25,0.012 0.298,-0.016 0.344,-0.054L0.348,-0.054L0.356,-0L0.451,-0L0.451,-0.29C0.451,-0.428 0.39,-0.503 0.268,-0.503C0.19,-0.503 0.12,-0.474 0.066,-0.44L0.108,-0.362C0.152,-0.388 0.198,-0.408 0.246,-0.408C0.312,-0.408 0.334,-0.366 0.336,-0.316C0.134,-0.294 0.046,-0.242 0.046,-0.132C0.046,-0.046 0.106,0.012 0.192,0.012ZM0.228,-0.082C0.188,-0.082 0.158,-0.098 0.158,-0.14C0.158,-0.19 0.202,-0.22 0.336,-0.236L0.336,-0.132C0.3,-0.098 0.268,-0.082 0.228,-0.082Z" style="fill-rule:nonzero;"/>
                </g>
                <g transform="matrix(45.8333,0,0,45.8333,636.212,1158.74)">
                    <path d="M0.246,0.01C0.286,0.01 0.321,0.001 0.347,-0.01L0.326,-0.091C0.31,-0.084 0.292,-0.081 0.275,-0.081C0.228,-0.081 0.206,-0.11 0.206,-0.167L0.206,-0.4L0.331,-0.4L0.331,-0.491L0.206,-0.491L0.206,-0.645L0.11,-0.645L0.096,-0.491L0.02,-0.486L0.02,-0.4L0.09,-0.4L0.09,-0.167C0.09,-0.061 0.132,0.01 0.246,0.01Z" style="fill-rule:nonzero;"/>
                </g>
                <g transform="matrix(45.8333,0,0,45.8333,652.024,1158.74)">
                    <path d="M0.27,-0.412C0.336,-0.412 0.368,-0.368 0.368,-0.298L0.158,-0.298C0.172,-0.385 0.222,-0.412 0.27,-0.412ZM0.284,0.012C0.346,0.012 0.406,-0.008 0.452,-0.04L0.412,-0.114C0.378,-0.092 0.34,-0.08 0.298,-0.08C0.23,-0.08 0.169,-0.12 0.156,-0.21L0.464,-0.21C0.468,-0.228 0.47,-0.248 0.47,-0.27C0.47,-0.406 0.402,-0.503 0.268,-0.503C0.152,-0.503 0.04,-0.406 0.04,-0.246C0.04,-0.082 0.146,0.012 0.284,0.012Z" style="fill-rule:nonzero;"/>
                </g>
                <g transform="matrix(45.8333,0,0,45.8333,675.262,1158.74)">
                    <path d="M0.073,-0L0.188,-0L0.188,-0.343C0.229,-0.383 0.257,-0.404 0.3,-0.404C0.354,-0.404 0.377,-0.374 0.377,-0.293L0.377,-0L0.492,-0L0.492,-0.308C0.492,-0.432 0.446,-0.503 0.341,-0.503C0.274,-0.503 0.224,-0.468 0.18,-0.425L0.176,-0.425L0.168,-0.491L0.073,-0.491L0.073,-0Z" style="fill-rule:nonzero;"/>
                </g>
                <g transform="matrix(45.8333,0,0,45.8333,700.928,1158.74)">
                    <path d="M0.311,0.012C0.42,0.012 0.521,-0.085 0.521,-0.254C0.521,-0.405 0.45,-0.503 0.327,-0.503C0.277,-0.503 0.226,-0.478 0.185,-0.442L0.188,-0.524L0.188,-0.706L0.073,-0.706L0.073,-0L0.164,-0L0.174,-0.052L0.177,-0.052C0.218,-0.011 0.266,0.012 0.311,0.012ZM0.287,-0.083C0.258,-0.083 0.223,-0.094 0.188,-0.124L0.188,-0.353C0.226,-0.39 0.26,-0.408 0.296,-0.408C0.37,-0.408 0.402,-0.35 0.402,-0.252C0.402,-0.141 0.352,-0.083 0.287,-0.083Z" style="fill-rule:nonzero;"/>
                </g>
                <g transform="matrix(45.8333,0,0,45.8333,726.274,1158.74)">
                    <path d="M0.138,0.012C0.18,0.012 0.212,-0.021 0.212,-0.066C0.212,-0.111 0.18,-0.144 0.138,-0.144C0.096,-0.144 0.063,-0.111 0.063,-0.066C0.063,-0.021 0.096,0.012 0.138,0.012Z" style="fill-rule:nonzero;"/>
                </g>
            </g>
        </g>
        <g transform="matrix(1,0,0,1,760.099,260.448)">
            <path d="M739.29,997.066L739.29,1093.89C739.29,1120.61 717.597,1142.31 690.876,1142.31L475.741,1142.31C449.021,1142.31 427.327,1120.61 427.327,1093.89L427.327,997.066C427.327,970.345 449.021,948.651 475.741,948.651L690.876,948.651C717.597,948.651 739.29,970.345 739.29,997.066Z" style="fill:none;stroke:black;stroke-width:3.54px;"/>
            <g transform="matrix(1,0,0,1,-30.7987,-3.94595)">
                <g transform="matrix(50,0,0,50,544.382,1067.08)">
                    <path d="M0.083,-0L0.487,-0L0.487,-0.098L0.199,-0.098L0.199,-0.291L0.434,-0.291L0.434,-0.389L0.199,-0.389L0.199,-0.556L0.477,-0.556L0.477,-0.654L0.083,-0.654L0.083,-0Z" style="fill-rule:nonzero;"/>
                </g>
                <g transform="matrix(50,0,0,50,569.382,1067.08)">
                    <path d="M0.014,-0L0.134,-0L0.186,-0.097C0.2,-0.127 0.215,-0.156 0.229,-0.184L0.233,-0.184C0.25,-0.156 0.267,-0.126 0.283,-0.097L0.343,-0L0.467,-0L0.311,-0.243L0.456,-0.491L0.337,-0.491L0.29,-0.398C0.278,-0.371 0.264,-0.342 0.252,-0.315L0.248,-0.315C0.233,-0.342 0.217,-0.371 0.203,-0.398L0.148,-0.491L0.024,-0.491L0.17,-0.256L0.014,-0Z" style="fill-rule:nonzero;"/>
                </g>
                <g transform="matrix(50,0,0,50,593.432,1067.08)">
                    <path d="M0.073,0.194L0.188,0.194L0.188,0.04L0.185,-0.042C0.225,-0.008 0.268,0.012 0.311,0.012C0.42,0.012 0.521,-0.085 0.521,-0.253C0.521,-0.405 0.45,-0.503 0.328,-0.503C0.274,-0.503 0.221,-0.474 0.18,-0.439L0.176,-0.439L0.168,-0.491L0.073,-0.491L0.073,0.194ZM0.287,-0.083C0.258,-0.083 0.224,-0.094 0.188,-0.124L0.188,-0.353C0.226,-0.39 0.26,-0.408 0.296,-0.408C0.37,-0.408 0.402,-0.35 0.402,-0.252C0.402,-0.141 0.352,-0.083 0.287,-0.083Z" style="fill-rule:nonzero;"/>
                </g>
                <g transform="matrix(50,0,0,50,621.632,1067.08)">
                    <path d="M0.274,0.012C0.397,0.012 0.508,-0.082 0.508,-0.245C0.508,-0.409 0.397,-0.503 0.274,-0.503C0.152,-0.503 0.041,-0.409 0.041,-0.245C0.041,-0.082 0.152,0.012 0.274,0.012ZM0.274,-0.082C0.202,-0.082 0.159,-0.147 0.159,-0.245C0.159,-0.344 0.202,-0.409 0.274,-0.409C0.346,-0.409 0.39,-0.344 0.39,-0.245C0.39,-0.147 0.346,-0.082 0.274,-0.082Z" style="fill-rule:nonzero;"/>
                </g>
                <g transform="matrix(50,0,0,50,649.082,1067.08)">
                    <path d="M0.073,-0L0.188,-0L0.188,-0.3C0.218,-0.374 0.265,-0.401 0.304,-0.401C0.325,-0.401 0.336,-0.399 0.352,-0.395L0.375,-0.493C0.36,-0.5 0.344,-0.503 0.319,-0.503C0.266,-0.503 0.214,-0.468 0.18,-0.404L0.176,-0.404L0.168,-0.491L0.073,-0.491L0.073,-0Z" style="fill-rule:nonzero;"/>
                </g>
                <g transform="matrix(50,0,0,50,667.732,1067.08)">
                    <path d="M0.246,0.01C0.286,0.01 0.321,0.001 0.347,-0.01L0.326,-0.091C0.31,-0.084 0.292,-0.081 0.275,-0.081C0.228,-0.081 0.206,-0.11 0.206,-0.167L0.206,-0.4L0.331,-0.4L0.331,-0.491L0.206,-0.491L0.206,-0.645L0.11,-0.645L0.096,-0.491L0.02,-0.486L0.02,-0.4L0.09,-0.4L0.09,-0.167C0.09,-0.061 0.132,0.01 0.246,0.01Z" style="fill-rule:nonzero;"/>
                </g>
            </g>
        </g>
        <g transform="matrix(1,0,0,1,34.6222,-48.4142)">
            <circle cx="276.204" cy="1093.89" r="48.414" style="fill:none;stroke:black;stroke-width:3.54px;"/>
        </g>
        <g transform="matrix(1,0,0,1,-93.1178,-23.877)">
            <circle cx="1707.27" cy="1329.81" r="46.672" style="fill:none;stroke:black;stroke-width:6.25px;"/>
        </g>
    </g>
</svg>
