<?xml version="1.0" encoding="UTF-8" standalone="no"?>
<!DOCTYPE svg PUBLIC "-//W3C//DTD SVG 1.1//EN" "http://www.w3.org/Graphics/SVG/1.1/DTD/svg11.dtd">
<svg width="100%" height="100%" viewBox="0 0 3508 2481" version="1.1" xmlns="http://www.w3.org/2000/svg" xmlns:xlink="http://www.w3.org/1999/xlink" xml:space="preserve" xmlns:serif="http://www.serif.com/" style="fill-rule:evenodd;clip-rule:evenodd;stroke-miterlimit:2;">
    <g transform="matrix(4.16667,0,0,4.16667,0,-756.25)">
        <rect x="126" y="189" width="227" height="20.5" style="fill:rgb(68,114,196);"/>
    </g>
    <g transform="matrix(4.16667,0,0,4.16667,0,-568.75)">
        <rect x="126" y="166.5" width="227" height="20.5" style="fill:rgb(68,114,196);"/>
    </g>
    <g transform="matrix(4.16667,0,0,4.16667,0,-379.167)">
        <rect x="131.5" y="143.5" width="216.5" height="21" style="fill:rgb(68,114,196);"/>
    </g>
    <g transform="matrix(4.16667,0,0,4.16667,0,-191.667)">
        <rect x="153" y="121" width="173" height="21" style="fill:rgb(68,114,196);"/>
    </g>
    <g transform="matrix(4.16667,0,0,4.16667,0,-4.16667)">
        <rect x="164" y="98.5" width="151.5" height="21" style="fill:rgb(68,114,196);"/>
    </g>
    <g transform="matrix(4.16667,0,0,4.16667,0,183.333)">
        <rect x="164" y="76" width="151.5" height="21" style="fill:rgb(68,114,196);"/>
    </g>
    <g transform="matrix(4.16667,0,0,4.16667,0,370.833)">
        <rect x="174.5" y="53.5" width="130" height="21" style="fill:rgb(68,114,196);"/>
    </g>
    <g transform="matrix(4.16667,0,0,4.16667,0,560.417)">
        <rect x="191" y="31" width="97" height="20.5" style="fill:rgb(68,114,196);"/>
    </g>
    <g transform="matrix(4.16667,0,0,4.16667,0,747.917)">
        <rect x="207.5" y="8.5" width="64.5" height="20.5" style="fill:rgb(68,114,196);"/>
    </g>
    <g transform="matrix(4.16667,0,0,4.16667,0,0)">
        <g transform="matrix(9,0,0,9,234.571,21.5)">
            <path d="M0.038,-0L0.468,-0L0.468,-0.098L0.302,-0.098C0.271,-0.098 0.229,-0.094 0.195,-0.091C0.329,-0.226 0.437,-0.335 0.437,-0.454C0.437,-0.571 0.358,-0.648 0.236,-0.648C0.15,-0.648 0.092,-0.611 0.035,-0.547L0.097,-0.486C0.131,-0.524 0.172,-0.557 0.221,-0.557C0.289,-0.557 0.326,-0.514 0.326,-0.447C0.326,-0.351 0.214,-0.235 0.038,-0.071L0.038,-0Z" style="fill:rgb(254,254,254);fill-rule:nonzero;"/>
        </g>
        <g transform="matrix(9,0,0,9,239.189,21.5)">
            <path d="M0.074,-0L0.457,-0L0.457,-0.094L0.332,-0.094L0.332,-0.636L0.246,-0.636C0.206,-0.612 0.162,-0.596 0.099,-0.584L0.099,-0.512L0.216,-0.512L0.216,-0.094L0.074,-0.094L0.074,-0Z" style="fill:rgb(254,254,254);fill-rule:nonzero;"/>
        </g>
    </g>
    <g transform="matrix(4.16667,0,0,4.16667,0,0)">
        <g transform="matrix(9,0,0,9,234.571,44)">
            <path d="M0.038,-0L0.468,-0L0.468,-0.098L0.302,-0.098C0.271,-0.098 0.229,-0.094 0.195,-0.091C0.329,-0.226 0.437,-0.335 0.437,-0.454C0.437,-0.571 0.358,-0.648 0.236,-0.648C0.15,-0.648 0.092,-0.611 0.035,-0.547L0.097,-0.486C0.131,-0.524 0.172,-0.557 0.221,-0.557C0.289,-0.557 0.326,-0.514 0.326,-0.447C0.326,-0.351 0.214,-0.235 0.038,-0.071L0.038,-0Z" style="fill:rgb(254,254,254);fill-rule:nonzero;"/>
        </g>
        <g transform="matrix(9,0,0,9,239.189,44)">
            <path d="M0.074,-0L0.457,-0L0.457,-0.094L0.332,-0.094L0.332,-0.636L0.246,-0.636C0.206,-0.612 0.162,-0.596 0.099,-0.584L0.099,-0.512L0.216,-0.512L0.216,-0.094L0.074,-0.094L0.074,-0Z" style="fill:rgb(254,254,254);fill-rule:nonzero;"/>
        </g>
    </g>
    <g transform="matrix(4.16667,0,0,4.16667,0,0)">
        <g transform="matrix(9,0,0,9,234.571,66.5)">
            <path d="M0.038,-0L0.468,-0L0.468,-0.098L0.302,-0.098C0.271,-0.098 0.229,-0.094 0.195,-0.091C0.329,-0.226 0.437,-0.335 0.437,-0.454C0.437,-0.571 0.358,-0.648 0.236,-0.648C0.15,-0.648 0.092,-0.611 0.035,-0.547L0.097,-0.486C0.131,-0.524 0.172,-0.557 0.221,-0.557C0.289,-0.557 0.326,-0.514 0.326,-0.447C0.326,-0.351 0.214,-0.235 0.038,-0.071L0.038,-0Z" style="fill:rgb(254,254,254);fill-rule:nonzero;"/>
        </g>
        <g transform="matrix(9,0,0,9,239.189,66.5)">
            <path d="M0.256,0.012C0.388,0.012 0.472,-0.106 0.472,-0.321C0.472,-0.535 0.388,-0.648 0.256,-0.648C0.124,-0.648 0.04,-0.536 0.04,-0.321C0.04,-0.106 0.124,0.012 0.256,0.012ZM0.256,-0.078C0.195,-0.078 0.15,-0.141 0.15,-0.321C0.15,-0.501 0.195,-0.558 0.256,-0.558C0.318,-0.558 0.362,-0.501 0.362,-0.321C0.362,-0.141 0.318,-0.078 0.256,-0.078Z" style="fill:rgb(254,254,254);fill-rule:nonzero;"/>
        </g>
    </g>
    <g transform="matrix(4.16667,0,0,4.16667,0,0)">
        <g transform="matrix(9,0,0,9,234.571,89)">
            <path d="M0.074,-0L0.457,-0L0.457,-0.094L0.332,-0.094L0.332,-0.636L0.246,-0.636C0.206,-0.612 0.162,-0.596 0.099,-0.584L0.099,-0.512L0.216,-0.512L0.216,-0.094L0.074,-0.094L0.074,-0Z" style="fill:rgb(254,254,254);fill-rule:nonzero;"/>
        </g>
        <g transform="matrix(9,0,0,9,239.189,89)">
            <path d="M0.268,-0.31C0.331,-0.31 0.368,-0.272 0.368,-0.197C0.368,-0.119 0.326,-0.076 0.273,-0.076C0.211,-0.076 0.166,-0.124 0.154,-0.237C0.19,-0.29 0.232,-0.31 0.268,-0.31ZM0.275,0.012C0.384,0.012 0.475,-0.07 0.475,-0.197C0.475,-0.33 0.399,-0.394 0.289,-0.394C0.243,-0.394 0.188,-0.366 0.151,-0.319C0.156,-0.495 0.221,-0.554 0.301,-0.554C0.339,-0.554 0.379,-0.534 0.402,-0.506L0.464,-0.576C0.426,-0.616 0.371,-0.648 0.294,-0.648C0.164,-0.648 0.044,-0.546 0.044,-0.299C0.044,-0.085 0.15,0.012 0.275,0.012Z" style="fill:rgb(254,254,254);fill-rule:nonzero;"/>
        </g>
    </g>
    <g transform="matrix(4.16667,0,0,4.16667,0,0)">
        <g transform="matrix(9,0,0,9,234.571,111.5)">
            <path d="M0.074,-0L0.457,-0L0.457,-0.094L0.332,-0.094L0.332,-0.636L0.246,-0.636C0.206,-0.612 0.162,-0.596 0.099,-0.584L0.099,-0.512L0.216,-0.512L0.216,-0.094L0.074,-0.094L0.074,-0Z" style="fill:rgb(254,254,254);fill-rule:nonzero;"/>
        </g>
        <g transform="matrix(9,0,0,9,239.189,111.5)">
            <path d="M0.132,-0.253L0.248,-0.43C0.266,-0.464 0.284,-0.496 0.3,-0.529L0.304,-0.529C0.302,-0.492 0.299,-0.434 0.299,-0.397L0.299,-0.253L0.132,-0.253ZM0.299,-0L0.407,-0L0.407,-0.164L0.487,-0.164L0.487,-0.253L0.407,-0.253L0.407,-0.636L0.27,-0.636L0.018,-0.242L0.018,-0.164L0.299,-0.164L0.299,-0Z" style="fill:rgb(254,254,254);fill-rule:nonzero;"/>
        </g>
    </g>
    <g transform="matrix(4.16667,0,0,4.16667,0,0)">
        <g transform="matrix(9,0,0,9,234.571,134)">
            <path d="M0.074,-0L0.457,-0L0.457,-0.094L0.332,-0.094L0.332,-0.636L0.246,-0.636C0.206,-0.612 0.162,-0.596 0.099,-0.584L0.099,-0.512L0.216,-0.512L0.216,-0.094L0.074,-0.094L0.074,-0Z" style="fill:rgb(254,254,254);fill-rule:nonzero;"/>
        </g>
        <g transform="matrix(9,0,0,9,239.189,134)">
            <path d="M0.132,-0.253L0.248,-0.43C0.266,-0.464 0.284,-0.496 0.3,-0.529L0.304,-0.529C0.302,-0.492 0.299,-0.434 0.299,-0.397L0.299,-0.253L0.132,-0.253ZM0.299,-0L0.407,-0L0.407,-0.164L0.487,-0.164L0.487,-0.253L0.407,-0.253L0.407,-0.636L0.27,-0.636L0.018,-0.242L0.018,-0.164L0.299,-0.164L0.299,-0Z" style="fill:rgb(254,254,254);fill-rule:nonzero;"/>
        </g>
    </g>
    <g transform="matrix(4.16667,0,0,4.16667,0,0)">
        <g transform="matrix(9,0,0,9,234.571,156.5)">
            <path d="M0.074,-0L0.457,-0L0.457,-0.094L0.332,-0.094L0.332,-0.636L0.246,-0.636C0.206,-0.612 0.162,-0.596 0.099,-0.584L0.099,-0.512L0.216,-0.512L0.216,-0.094L0.074,-0.094L0.074,-0Z" style="fill:rgb(254,254,254);fill-rule:nonzero;"/>
        </g>
        <g transform="matrix(9,0,0,9,239.189,156.5)">
            <path d="M0.038,-0L0.468,-0L0.468,-0.098L0.302,-0.098C0.271,-0.098 0.229,-0.094 0.195,-0.091C0.329,-0.226 0.437,-0.335 0.437,-0.454C0.437,-0.571 0.358,-0.648 0.236,-0.648C0.15,-0.648 0.092,-0.611 0.035,-0.547L0.097,-0.486C0.131,-0.524 0.172,-0.557 0.221,-0.557C0.289,-0.557 0.326,-0.514 0.326,-0.447C0.326,-0.351 0.214,-0.235 0.038,-0.071L0.038,-0Z" style="fill:rgb(254,254,254);fill-rule:nonzero;"/>
        </g>
    </g>
    <g transform="matrix(4.16667,0,0,4.16667,0,0)">
        <g transform="matrix(9,0,0,9,237.073,179)">
            <path d="M0.143,-0.44C0.143,-0.517 0.186,-0.56 0.238,-0.56C0.3,-0.56 0.346,-0.512 0.358,-0.4C0.325,-0.348 0.281,-0.326 0.244,-0.326C0.18,-0.326 0.143,-0.365 0.143,-0.44ZM0.217,0.012C0.348,0.012 0.467,-0.091 0.467,-0.338C0.467,-0.552 0.361,-0.648 0.237,-0.648C0.128,-0.648 0.037,-0.567 0.037,-0.44C0.037,-0.307 0.113,-0.243 0.222,-0.243C0.268,-0.243 0.324,-0.271 0.361,-0.317C0.356,-0.141 0.291,-0.082 0.211,-0.082C0.172,-0.082 0.133,-0.102 0.109,-0.13L0.047,-0.06C0.085,-0.02 0.141,0.012 0.217,0.012Z" style="fill:rgb(254,254,254);fill-rule:nonzero;"/>
        </g>
    </g>
    <g transform="matrix(4.16667,0,0,4.16667,0,0)">
        <g transform="matrix(9,0,0,9,237.073,202)">
            <path d="M0.268,-0.31C0.331,-0.31 0.368,-0.272 0.368,-0.197C0.368,-0.119 0.326,-0.076 0.273,-0.076C0.211,-0.076 0.166,-0.124 0.154,-0.237C0.19,-0.29 0.232,-0.31 0.268,-0.31ZM0.275,0.012C0.384,0.012 0.475,-0.07 0.475,-0.197C0.475,-0.33 0.399,-0.394 0.289,-0.394C0.243,-0.394 0.188,-0.366 0.151,-0.319C0.156,-0.495 0.221,-0.554 0.301,-0.554C0.339,-0.554 0.379,-0.534 0.402,-0.506L0.464,-0.576C0.426,-0.616 0.371,-0.648 0.294,-0.648C0.164,-0.648 0.044,-0.546 0.044,-0.299C0.044,-0.085 0.15,0.012 0.275,0.012Z" style="fill:rgb(254,254,254);fill-rule:nonzero;"/>
        </g>
    </g>
    <g transform="matrix(4.16667,0,0,4.16667,0,0)">
        <g transform="matrix(9,0,0,9,54.8716,21.5)">
            <path d="M0.21,0.012C0.334,0.012 0.401,-0.056 0.401,-0.14C0.401,-0.226 0.334,-0.264 0.258,-0.29C0.196,-0.311 0.16,-0.326 0.16,-0.362C0.16,-0.392 0.183,-0.416 0.233,-0.416C0.272,-0.416 0.308,-0.404 0.343,-0.379L0.394,-0.444C0.354,-0.478 0.297,-0.503 0.23,-0.503C0.12,-0.503 0.052,-0.442 0.052,-0.356C0.052,-0.278 0.118,-0.238 0.189,-0.212C0.243,-0.192 0.292,-0.175 0.292,-0.134C0.292,-0.1 0.267,-0.075 0.214,-0.075C0.163,-0.075 0.118,-0.09 0.075,-0.126L0.024,-0.06C0.072,-0.014 0.142,0.012 0.21,0.012Z" style="fill:rgb(89,89,89);fill-rule:nonzero;"/>
        </g>
        <g transform="matrix(9,0,0,9,58.7506,21.5)">
            <path d="M0.246,0.01C0.286,0.01 0.321,0.001 0.347,-0.01L0.326,-0.091C0.31,-0.084 0.292,-0.081 0.275,-0.081C0.228,-0.081 0.206,-0.11 0.206,-0.167L0.206,-0.4L0.331,-0.4L0.331,-0.491L0.206,-0.491L0.206,-0.645L0.11,-0.645L0.096,-0.491L0.02,-0.486L0.02,-0.4L0.09,-0.4L0.09,-0.167C0.09,-0.061 0.132,0.01 0.246,0.01Z" style="fill:rgb(89,89,89);fill-rule:nonzero;"/>
        </g>
        <g transform="matrix(9,0,0,9,61.9996,21.5)">
            <path d="M0.192,0.012C0.25,0.012 0.298,-0.016 0.344,-0.054L0.348,-0.054L0.356,-0L0.451,-0L0.451,-0.29C0.451,-0.428 0.39,-0.503 0.268,-0.503C0.19,-0.503 0.12,-0.474 0.066,-0.44L0.108,-0.362C0.152,-0.388 0.198,-0.408 0.246,-0.408C0.312,-0.408 0.334,-0.366 0.336,-0.316C0.134,-0.294 0.046,-0.242 0.046,-0.132C0.046,-0.046 0.106,0.012 0.192,0.012ZM0.228,-0.082C0.188,-0.082 0.158,-0.098 0.158,-0.14C0.158,-0.19 0.202,-0.22 0.336,-0.236L0.336,-0.132C0.3,-0.098 0.268,-0.082 0.228,-0.082Z" style="fill:rgb(89,89,89);fill-rule:nonzero;"/>
        </g>
        <g transform="matrix(9,0,0,9,66.6436,21.5)">
            <path d="M0.311,0.012C0.42,0.012 0.521,-0.085 0.521,-0.254C0.521,-0.405 0.45,-0.503 0.327,-0.503C0.277,-0.503 0.226,-0.478 0.185,-0.442L0.188,-0.524L0.188,-0.706L0.073,-0.706L0.073,-0L0.164,-0L0.174,-0.052L0.177,-0.052C0.218,-0.011 0.266,0.012 0.311,0.012ZM0.287,-0.083C0.258,-0.083 0.223,-0.094 0.188,-0.124L0.188,-0.353C0.226,-0.39 0.26,-0.408 0.296,-0.408C0.37,-0.408 0.402,-0.35 0.402,-0.252C0.402,-0.141 0.352,-0.083 0.287,-0.083Z" style="fill:rgb(89,89,89);fill-rule:nonzero;"/>
        </g>
        <g transform="matrix(9,0,0,9,71.7106,21.5)">
            <path d="M0.073,-0L0.188,-0L0.188,-0.491L0.073,-0.491L0.073,-0ZM0.13,-0.577C0.171,-0.577 0.199,-0.603 0.199,-0.643C0.199,-0.682 0.171,-0.708 0.13,-0.708C0.089,-0.708 0.061,-0.682 0.061,-0.643C0.061,-0.603 0.089,-0.577 0.13,-0.577Z" style="fill:rgb(89,89,89);fill-rule:nonzero;"/>
        </g>
        <g transform="matrix(9,0,0,9,74.0686,21.5)">
            <path d="M0.073,-0L0.187,-0L0.187,-0.126L0.263,-0.213L0.389,-0L0.514,-0L0.33,-0.29L0.497,-0.491L0.37,-0.491L0.19,-0.266L0.187,-0.266L0.187,-0.706L0.073,-0.706L0.073,-0Z" style="fill:rgb(89,89,89);fill-rule:nonzero;"/>
        </g>
        <g transform="matrix(9,0,0,9,78.7666,21.5)">
            <path d="M0.192,0.012C0.25,0.012 0.298,-0.016 0.344,-0.054L0.348,-0.054L0.356,-0L0.451,-0L0.451,-0.29C0.451,-0.428 0.39,-0.503 0.268,-0.503C0.19,-0.503 0.12,-0.474 0.066,-0.44L0.108,-0.362C0.152,-0.388 0.198,-0.408 0.246,-0.408C0.312,-0.408 0.334,-0.366 0.336,-0.316C0.134,-0.294 0.046,-0.242 0.046,-0.132C0.046,-0.046 0.106,0.012 0.192,0.012ZM0.228,-0.082C0.188,-0.082 0.158,-0.098 0.158,-0.14C0.158,-0.19 0.202,-0.22 0.336,-0.236L0.336,-0.132C0.3,-0.098 0.268,-0.082 0.228,-0.082Z" style="fill:rgb(89,89,89);fill-rule:nonzero;"/>
        </g>
        <g transform="matrix(9,0,0,9,83.4107,21.5)">
            <path d="M0.246,0.01C0.286,0.01 0.321,0.001 0.347,-0.01L0.326,-0.091C0.31,-0.084 0.292,-0.081 0.275,-0.081C0.228,-0.081 0.206,-0.11 0.206,-0.167L0.206,-0.4L0.331,-0.4L0.331,-0.491L0.206,-0.491L0.206,-0.645L0.11,-0.645L0.096,-0.491L0.02,-0.486L0.02,-0.4L0.09,-0.4L0.09,-0.167C0.09,-0.061 0.132,0.01 0.246,0.01Z" style="fill:rgb(89,89,89);fill-rule:nonzero;"/>
        </g>
        <g transform="matrix(9,0,0,9,88.4596,21.5)">
            <path d="M0.209,0.178L0.281,0.146C0.206,0.018 0.171,-0.131 0.171,-0.278C0.171,-0.425 0.206,-0.574 0.281,-0.702L0.209,-0.734C0.126,-0.598 0.077,-0.454 0.077,-0.278C0.077,-0.102 0.126,0.042 0.209,0.178Z" style="fill:rgb(89,89,89);fill-rule:nonzero;"/>
        </g>
        <g transform="matrix(9,0,0,9,91.3756,21.5)">
            <path d="M0.337,0.012C0.508,0.012 0.626,-0.118 0.626,-0.33C0.626,-0.541 0.508,-0.666 0.337,-0.666C0.167,-0.666 0.049,-0.541 0.049,-0.33C0.049,-0.118 0.167,0.012 0.337,0.012ZM0.337,-0.089C0.234,-0.089 0.168,-0.183 0.168,-0.33C0.168,-0.476 0.234,-0.565 0.337,-0.565C0.44,-0.565 0.506,-0.476 0.506,-0.33C0.506,-0.183 0.44,-0.089 0.337,-0.089Z" style="fill:rgb(89,89,89);fill-rule:nonzero;"/>
        </g>
        <g transform="matrix(9,0,0,9,97.4416,21.5)">
            <path d="M0.083,-0L0.199,-0L0.199,-0.24L0.293,-0.24C0.434,-0.24 0.542,-0.307 0.542,-0.452C0.542,-0.604 0.434,-0.654 0.289,-0.654L0.083,-0.654L0.083,-0ZM0.199,-0.333L0.199,-0.561L0.28,-0.561C0.377,-0.561 0.428,-0.534 0.428,-0.452C0.428,-0.372 0.381,-0.333 0.284,-0.333L0.199,-0.333Z" style="fill:rgb(89,89,89);fill-rule:nonzero;"/>
        </g>
        <g transform="matrix(9,0,0,9,102.68,21.5)">
            <path d="M0.217,-0.348C0.238,-0.417 0.257,-0.491 0.275,-0.564L0.279,-0.564C0.298,-0.492 0.317,-0.417 0.338,-0.348L0.361,-0.268L0.194,-0.268L0.217,-0.348ZM-0.002,-0L0.116,-0L0.167,-0.177L0.387,-0.177L0.438,-0L0.56,-0L0.347,-0.654L0.211,-0.654L-0.002,-0Z" style="fill:rgb(89,89,89);fill-rule:nonzero;"/>
        </g>
        <g transform="matrix(9,0,0,9,107.702,21.5)">
            <path d="M0.346,0.012C0.429,0.012 0.494,-0.02 0.548,-0.082L0.489,-0.15C0.454,-0.112 0.41,-0.089 0.354,-0.089C0.241,-0.089 0.168,-0.179 0.168,-0.328C0.168,-0.474 0.246,-0.565 0.351,-0.565C0.401,-0.565 0.441,-0.546 0.475,-0.513L0.537,-0.583C0.496,-0.629 0.43,-0.666 0.348,-0.666C0.183,-0.666 0.049,-0.539 0.049,-0.325C0.049,-0.108 0.18,0.012 0.346,0.012Z" style="fill:rgb(89,89,89);fill-rule:nonzero;"/>
        </g>
        <g transform="matrix(9,0,0,9,112.886,21.5)">
            <path d="M0.115,0.178C0.198,0.042 0.247,-0.102 0.247,-0.278C0.247,-0.454 0.198,-0.598 0.115,-0.734L0.043,-0.702C0.118,-0.574 0.153,-0.425 0.153,-0.278C0.153,-0.131 0.118,0.018 0.043,0.146L0.115,0.178Z" style="fill:rgb(89,89,89);fill-rule:nonzero;"/>
        </g>
    </g>
    <g transform="matrix(4.16667,0,0,4.16667,0,0)">
        <g transform="matrix(9,0,0,9,86.8608,44)">
            <path d="M0.083,-0L0.199,-0L0.199,-0.191L0.293,-0.308L0.47,-0L0.598,-0L0.363,-0.399L0.564,-0.654L0.435,-0.654L0.202,-0.357L0.199,-0.357L0.199,-0.654L0.083,-0.654L0.083,-0Z" style="fill:rgb(89,89,89);fill-rule:nonzero;"/>
        </g>
        <g transform="matrix(9,0,0,9,92.2356,44)">
            <path d="M0.192,0.012C0.25,0.012 0.298,-0.016 0.344,-0.054L0.348,-0.054L0.356,-0L0.451,-0L0.451,-0.29C0.451,-0.428 0.39,-0.503 0.268,-0.503C0.19,-0.503 0.12,-0.474 0.066,-0.44L0.108,-0.362C0.152,-0.388 0.198,-0.408 0.246,-0.408C0.312,-0.408 0.334,-0.366 0.336,-0.316C0.134,-0.294 0.046,-0.242 0.046,-0.132C0.046,-0.046 0.106,0.012 0.192,0.012ZM0.228,-0.082C0.188,-0.082 0.158,-0.098 0.158,-0.14C0.158,-0.19 0.202,-0.22 0.336,-0.236L0.336,-0.132C0.3,-0.098 0.268,-0.082 0.228,-0.082Z" style="fill:rgb(89,89,89);fill-rule:nonzero;"/>
        </g>
        <g transform="matrix(9,0,0,9,96.8814,44)">
            <path d="M0.185,0.01C0.212,0.01 0.232,0.006 0.246,-0L0.231,-0.086C0.223,-0.084 0.219,-0.084 0.214,-0.084C0.201,-0.084 0.188,-0.093 0.188,-0.122L0.188,-0.706L0.073,-0.706L0.073,-0.128C0.073,-0.042 0.103,0.01 0.185,0.01Z" style="fill:rgb(89,89,89);fill-rule:nonzero;"/>
        </g>
        <g transform="matrix(9,0,0,9,99.3222,44)">
            <path d="M0.185,0.01C0.212,0.01 0.232,0.006 0.246,-0L0.231,-0.086C0.223,-0.084 0.219,-0.084 0.214,-0.084C0.201,-0.084 0.188,-0.093 0.188,-0.122L0.188,-0.706L0.073,-0.706L0.073,-0.128C0.073,-0.042 0.103,0.01 0.185,0.01Z" style="fill:rgb(89,89,89);fill-rule:nonzero;"/>
        </g>
        <g transform="matrix(9,0,0,9,101.763,44)">
            <path d="M0.073,-0L0.188,-0L0.188,-0.491L0.073,-0.491L0.073,-0ZM0.13,-0.577C0.171,-0.577 0.199,-0.603 0.199,-0.643C0.199,-0.682 0.171,-0.708 0.13,-0.708C0.089,-0.708 0.061,-0.682 0.061,-0.643C0.061,-0.603 0.089,-0.577 0.13,-0.577Z" style="fill:rgb(89,89,89);fill-rule:nonzero;"/>
        </g>
        <g transform="matrix(9,0,0,9,104.123,44)">
            <path d="M0.274,0.012C0.397,0.012 0.508,-0.082 0.508,-0.245C0.508,-0.409 0.397,-0.503 0.274,-0.503C0.152,-0.503 0.041,-0.409 0.041,-0.245C0.041,-0.082 0.152,0.012 0.274,0.012ZM0.274,-0.082C0.202,-0.082 0.159,-0.147 0.159,-0.245C0.159,-0.344 0.202,-0.409 0.274,-0.409C0.346,-0.409 0.39,-0.344 0.39,-0.245C0.39,-0.147 0.346,-0.082 0.274,-0.082Z" style="fill:rgb(89,89,89);fill-rule:nonzero;"/>
        </g>
        <g transform="matrix(9,0,0,9,109.066,44)">
            <path d="M0.073,0.194L0.188,0.194L0.188,0.04L0.185,-0.042C0.225,-0.008 0.268,0.012 0.311,0.012C0.42,0.012 0.521,-0.085 0.521,-0.253C0.521,-0.405 0.45,-0.503 0.328,-0.503C0.274,-0.503 0.221,-0.474 0.18,-0.439L0.176,-0.439L0.168,-0.491L0.073,-0.491L0.073,0.194ZM0.287,-0.083C0.258,-0.083 0.224,-0.094 0.188,-0.124L0.188,-0.353C0.226,-0.39 0.26,-0.408 0.296,-0.408C0.37,-0.408 0.402,-0.35 0.402,-0.252C0.402,-0.141 0.352,-0.083 0.287,-0.083Z" style="fill:rgb(89,89,89);fill-rule:nonzero;"/>
        </g>
        <g transform="matrix(9,0,0,9,114.143,44)">
            <path d="M0.27,-0.412C0.336,-0.412 0.368,-0.368 0.368,-0.298L0.158,-0.298C0.172,-0.385 0.222,-0.412 0.27,-0.412ZM0.284,0.012C0.346,0.012 0.406,-0.008 0.452,-0.04L0.412,-0.114C0.378,-0.092 0.34,-0.08 0.298,-0.08C0.23,-0.08 0.169,-0.12 0.156,-0.21L0.464,-0.21C0.468,-0.228 0.47,-0.248 0.47,-0.27C0.47,-0.406 0.402,-0.503 0.268,-0.503C0.152,-0.503 0.04,-0.406 0.04,-0.246C0.04,-0.082 0.146,0.012 0.284,0.012Z" style="fill:rgb(89,89,89);fill-rule:nonzero;"/>
        </g>
    </g>
    <g transform="matrix(4.16667,0,0,4.16667,0,0)">
        <g transform="matrix(9,0,0,9,43.1132,66.5)">
            <path d="M0.083,-0L0.487,-0L0.487,-0.098L0.199,-0.098L0.199,-0.291L0.434,-0.291L0.434,-0.389L0.199,-0.389L0.199,-0.556L0.477,-0.556L0.477,-0.654L0.083,-0.654L0.083,-0Z" style="fill:rgb(89,89,89);fill-rule:nonzero;"/>
        </g>
        <g transform="matrix(9,0,0,9,47.9556,66.5)">
            <path d="M0.073,-0L0.188,-0L0.188,-0.491L0.073,-0.491L0.073,-0ZM0.13,-0.577C0.171,-0.577 0.199,-0.603 0.199,-0.643C0.199,-0.682 0.171,-0.708 0.13,-0.708C0.089,-0.708 0.061,-0.682 0.061,-0.643C0.061,-0.603 0.089,-0.577 0.13,-0.577Z" style="fill:rgb(89,89,89);fill-rule:nonzero;"/>
        </g>
        <g transform="matrix(9,0,0,9,50.314,66.5)">
            <path d="M0.073,-0L0.188,-0L0.188,-0.343C0.229,-0.383 0.257,-0.404 0.3,-0.404C0.354,-0.404 0.377,-0.374 0.377,-0.293L0.377,-0L0.492,-0L0.492,-0.308C0.492,-0.432 0.446,-0.503 0.341,-0.503C0.274,-0.503 0.224,-0.468 0.18,-0.425L0.176,-0.425L0.168,-0.491L0.073,-0.491L0.073,-0Z" style="fill:rgb(89,89,89);fill-rule:nonzero;"/>
        </g>
        <g transform="matrix(9,0,0,9,55.3544,66.5)">
            <path d="M0.311,0.012C0.42,0.012 0.521,-0.085 0.521,-0.254C0.521,-0.405 0.45,-0.503 0.327,-0.503C0.277,-0.503 0.226,-0.478 0.185,-0.442L0.188,-0.524L0.188,-0.706L0.073,-0.706L0.073,-0L0.164,-0L0.174,-0.052L0.177,-0.052C0.218,-0.011 0.266,0.012 0.311,0.012ZM0.287,-0.083C0.258,-0.083 0.223,-0.094 0.188,-0.124L0.188,-0.353C0.226,-0.39 0.26,-0.408 0.296,-0.408C0.37,-0.408 0.402,-0.35 0.402,-0.252C0.402,-0.141 0.352,-0.083 0.287,-0.083Z" style="fill:rgb(89,89,89);fill-rule:nonzero;"/>
        </g>
        <g transform="matrix(9,0,0,9,60.3138,66.5)">
            <path d="M0.192,0.012C0.25,0.012 0.298,-0.016 0.344,-0.054L0.348,-0.054L0.356,-0L0.451,-0L0.451,-0.29C0.451,-0.428 0.39,-0.503 0.268,-0.503C0.19,-0.503 0.12,-0.474 0.066,-0.44L0.108,-0.362C0.152,-0.388 0.198,-0.408 0.246,-0.408C0.312,-0.408 0.334,-0.366 0.336,-0.316C0.134,-0.294 0.046,-0.242 0.046,-0.132C0.046,-0.046 0.106,0.012 0.192,0.012ZM0.228,-0.082C0.188,-0.082 0.158,-0.098 0.158,-0.14C0.158,-0.19 0.202,-0.22 0.336,-0.236L0.336,-0.132C0.3,-0.098 0.268,-0.082 0.228,-0.082Z" style="fill:rgb(89,89,89);fill-rule:nonzero;"/>
        </g>
        <g transform="matrix(9,0,0,9,64.9582,66.5)">
            <path d="M0.073,-0L0.188,-0L0.188,-0.343C0.229,-0.383 0.257,-0.404 0.3,-0.404C0.354,-0.404 0.377,-0.374 0.377,-0.293L0.377,-0L0.492,-0L0.492,-0.308C0.492,-0.432 0.446,-0.503 0.341,-0.503C0.274,-0.503 0.224,-0.468 0.18,-0.425L0.176,-0.425L0.168,-0.491L0.073,-0.491L0.073,-0Z" style="fill:rgb(89,89,89);fill-rule:nonzero;"/>
        </g>
        <g transform="matrix(9,0,0,9,69.9987,66.5)">
            <path d="M0.245,0.012C0.298,0.012 0.348,-0.017 0.384,-0.053L0.388,-0.053L0.396,-0L0.491,-0L0.491,-0.706L0.376,-0.706L0.376,-0.528L0.38,-0.449C0.342,-0.482 0.307,-0.503 0.251,-0.503C0.144,-0.503 0.043,-0.405 0.043,-0.245C0.043,-0.083 0.122,0.012 0.245,0.012ZM0.273,-0.083C0.202,-0.083 0.162,-0.14 0.162,-0.246C0.162,-0.349 0.213,-0.408 0.276,-0.408C0.309,-0.408 0.342,-0.397 0.376,-0.367L0.376,-0.138C0.343,-0.1 0.311,-0.083 0.273,-0.083Z" style="fill:rgb(89,89,89);fill-rule:nonzero;"/>
        </g>
        <g transform="matrix(9,0,0,9,75.0751,66.5)">
            <path d="M0.245,0.012C0.298,0.012 0.348,-0.017 0.384,-0.053L0.388,-0.053L0.396,-0L0.491,-0L0.491,-0.706L0.376,-0.706L0.376,-0.528L0.38,-0.449C0.342,-0.482 0.307,-0.503 0.251,-0.503C0.144,-0.503 0.043,-0.405 0.043,-0.245C0.043,-0.083 0.122,0.012 0.245,0.012ZM0.273,-0.083C0.202,-0.083 0.162,-0.14 0.162,-0.246C0.162,-0.349 0.213,-0.408 0.276,-0.408C0.309,-0.408 0.342,-0.397 0.376,-0.367L0.376,-0.138C0.343,-0.1 0.311,-0.083 0.273,-0.083Z" style="fill:rgb(89,89,89);fill-rule:nonzero;"/>
        </g>
        <g transform="matrix(9,0,0,9,80.1515,66.5)">
            <path d="M0.192,0.012C0.25,0.012 0.298,-0.016 0.344,-0.054L0.348,-0.054L0.356,-0L0.451,-0L0.451,-0.29C0.451,-0.428 0.39,-0.503 0.268,-0.503C0.19,-0.503 0.12,-0.474 0.066,-0.44L0.108,-0.362C0.152,-0.388 0.198,-0.408 0.246,-0.408C0.312,-0.408 0.334,-0.366 0.336,-0.316C0.134,-0.294 0.046,-0.242 0.046,-0.132C0.046,-0.046 0.106,0.012 0.192,0.012ZM0.228,-0.082C0.188,-0.082 0.158,-0.098 0.158,-0.14C0.158,-0.19 0.202,-0.22 0.336,-0.236L0.336,-0.132C0.3,-0.098 0.268,-0.082 0.228,-0.082Z" style="fill:rgb(89,89,89);fill-rule:nonzero;"/>
        </g>
        <g transform="matrix(9,0,0,9,84.6519,66.5)">
            <path d="M0.246,0.01C0.286,0.01 0.321,0.001 0.347,-0.01L0.326,-0.091C0.31,-0.084 0.292,-0.081 0.275,-0.081C0.228,-0.081 0.206,-0.11 0.206,-0.167L0.206,-0.4L0.331,-0.4L0.331,-0.491L0.206,-0.491L0.206,-0.645L0.11,-0.645L0.096,-0.491L0.02,-0.486L0.02,-0.4L0.09,-0.4L0.09,-0.167C0.09,-0.061 0.132,0.01 0.246,0.01Z" style="fill:rgb(89,89,89);fill-rule:nonzero;"/>
        </g>
        <g transform="matrix(9,0,0,9,87.7573,66.5)">
            <path d="M0.27,-0.412C0.336,-0.412 0.368,-0.368 0.368,-0.298L0.158,-0.298C0.172,-0.385 0.222,-0.412 0.27,-0.412ZM0.284,0.012C0.346,0.012 0.406,-0.008 0.452,-0.04L0.412,-0.114C0.378,-0.092 0.34,-0.08 0.298,-0.08C0.23,-0.08 0.169,-0.12 0.156,-0.21L0.464,-0.21C0.468,-0.228 0.47,-0.248 0.47,-0.27C0.47,-0.406 0.402,-0.503 0.268,-0.503C0.152,-0.503 0.04,-0.406 0.04,-0.246C0.04,-0.082 0.146,0.012 0.284,0.012Z" style="fill:rgb(89,89,89);fill-rule:nonzero;"/>
        </g>
        <g transform="matrix(9,0,0,9,92.3208,66.5)">
            <path d="M0.073,-0L0.188,-0L0.188,-0.343C0.229,-0.383 0.257,-0.404 0.3,-0.404C0.354,-0.404 0.377,-0.374 0.377,-0.293L0.377,-0L0.492,-0L0.492,-0.308C0.492,-0.432 0.446,-0.503 0.341,-0.503C0.274,-0.503 0.224,-0.468 0.18,-0.425L0.176,-0.425L0.168,-0.491L0.073,-0.491L0.073,-0Z" style="fill:rgb(89,89,89);fill-rule:nonzero;"/>
        </g>
        <g transform="matrix(9,0,0,9,97.3612,66.5)">
            <path d="M0.311,0.012C0.42,0.012 0.521,-0.085 0.521,-0.254C0.521,-0.405 0.45,-0.503 0.327,-0.503C0.277,-0.503 0.226,-0.478 0.185,-0.442L0.188,-0.524L0.188,-0.706L0.073,-0.706L0.073,-0L0.164,-0L0.174,-0.052L0.177,-0.052C0.218,-0.011 0.266,0.012 0.311,0.012ZM0.287,-0.083C0.258,-0.083 0.223,-0.094 0.188,-0.124L0.188,-0.353C0.226,-0.39 0.26,-0.408 0.296,-0.408C0.37,-0.408 0.402,-0.35 0.402,-0.252C0.402,-0.141 0.352,-0.083 0.287,-0.083Z" style="fill:rgb(89,89,89);fill-rule:nonzero;"/>
        </g>
        <g transform="matrix(9,0,0,9,102.321,66.5)">
            <path d="M0.192,0.012C0.25,0.012 0.298,-0.016 0.344,-0.054L0.348,-0.054L0.356,-0L0.451,-0L0.451,-0.29C0.451,-0.428 0.39,-0.503 0.268,-0.503C0.19,-0.503 0.12,-0.474 0.066,-0.44L0.108,-0.362C0.152,-0.388 0.198,-0.408 0.246,-0.408C0.312,-0.408 0.334,-0.366 0.336,-0.316C0.134,-0.294 0.046,-0.242 0.046,-0.132C0.046,-0.046 0.106,0.012 0.192,0.012ZM0.228,-0.082C0.188,-0.082 0.158,-0.098 0.158,-0.14C0.158,-0.19 0.202,-0.22 0.336,-0.236L0.336,-0.132C0.3,-0.098 0.268,-0.082 0.228,-0.082Z" style="fill:rgb(89,89,89);fill-rule:nonzero;"/>
        </g>
        <g transform="matrix(9,0,0,9,106.965,66.5)">
            <path d="M0.073,-0L0.188,-0L0.188,-0.343C0.229,-0.383 0.257,-0.404 0.3,-0.404C0.354,-0.404 0.377,-0.374 0.377,-0.293L0.377,-0L0.492,-0L0.492,-0.308C0.492,-0.432 0.446,-0.503 0.341,-0.503C0.274,-0.503 0.224,-0.468 0.18,-0.425L0.176,-0.425L0.168,-0.491L0.073,-0.491L0.073,-0Z" style="fill:rgb(89,89,89);fill-rule:nonzero;"/>
        </g>
        <g transform="matrix(9,0,0,9,112.005,66.5)">
            <path d="M0.073,-0L0.187,-0L0.187,-0.126L0.263,-0.213L0.389,-0L0.514,-0L0.33,-0.29L0.497,-0.491L0.37,-0.491L0.19,-0.266L0.187,-0.266L0.187,-0.706L0.073,-0.706L0.073,-0Z" style="fill:rgb(89,89,89);fill-rule:nonzero;"/>
        </g>
    </g>
    <g transform="matrix(4.16667,0,0,4.16667,0,0)">
        <g transform="matrix(9,0,0,9,5.96335,89)">
            <path d="M0.083,-0L0.309,-0C0.453,-0 0.56,-0.062 0.56,-0.197C0.56,-0.283 0.512,-0.331 0.435,-0.347L0.435,-0.351C0.493,-0.371 0.526,-0.426 0.526,-0.493C0.526,-0.613 0.427,-0.654 0.292,-0.654L0.083,-0.654L0.083,-0ZM0.199,-0.384L0.199,-0.564L0.284,-0.564C0.369,-0.564 0.412,-0.54 0.412,-0.476C0.412,-0.42 0.373,-0.384 0.282,-0.384L0.199,-0.384ZM0.199,-0.09L0.199,-0.297L0.297,-0.297C0.395,-0.297 0.447,-0.267 0.447,-0.198C0.447,-0.125 0.393,-0.09 0.297,-0.09L0.199,-0.09Z" style="fill:rgb(89,89,89);fill-rule:nonzero;"/>
        </g>
        <g transform="matrix(9,0,0,9,11.3366,89)">
            <path d="M0.073,-0L0.188,-0L0.188,-0.491L0.073,-0.491L0.073,-0ZM0.13,-0.577C0.171,-0.577 0.199,-0.603 0.199,-0.643C0.199,-0.682 0.171,-0.708 0.13,-0.708C0.089,-0.708 0.061,-0.682 0.061,-0.643C0.061,-0.603 0.089,-0.577 0.13,-0.577Z" style="fill:rgb(89,89,89);fill-rule:nonzero;"/>
        </g>
        <g transform="matrix(9,0,0,9,13.6949,89)">
            <path d="M0.311,0.012C0.42,0.012 0.521,-0.085 0.521,-0.254C0.521,-0.405 0.45,-0.503 0.327,-0.503C0.277,-0.503 0.226,-0.478 0.185,-0.442L0.188,-0.524L0.188,-0.706L0.073,-0.706L0.073,-0L0.164,-0L0.174,-0.052L0.177,-0.052C0.218,-0.011 0.266,0.012 0.311,0.012ZM0.287,-0.083C0.258,-0.083 0.223,-0.094 0.188,-0.124L0.188,-0.353C0.226,-0.39 0.26,-0.408 0.296,-0.408C0.37,-0.408 0.402,-0.35 0.402,-0.252C0.402,-0.141 0.352,-0.083 0.287,-0.083Z" style="fill:rgb(89,89,89);fill-rule:nonzero;"/>
        </g>
        <g transform="matrix(9,0,0,9,18.7622,89)">
            <path d="M0.185,0.01C0.212,0.01 0.232,0.006 0.246,-0L0.231,-0.086C0.223,-0.084 0.219,-0.084 0.214,-0.084C0.201,-0.084 0.188,-0.093 0.188,-0.122L0.188,-0.706L0.073,-0.706L0.073,-0.128C0.073,-0.042 0.103,0.01 0.185,0.01Z" style="fill:rgb(89,89,89);fill-rule:nonzero;"/>
        </g>
        <g transform="matrix(9,0,0,9,21.2015,89)">
            <path d="M0.073,-0L0.188,-0L0.188,-0.491L0.073,-0.491L0.073,-0ZM0.13,-0.577C0.171,-0.577 0.199,-0.603 0.199,-0.643C0.199,-0.682 0.171,-0.708 0.13,-0.708C0.089,-0.708 0.061,-0.682 0.061,-0.643C0.061,-0.603 0.089,-0.577 0.13,-0.577Z" style="fill:rgb(89,89,89);fill-rule:nonzero;"/>
        </g>
        <g transform="matrix(9,0,0,9,23.5598,89)">
            <path d="M0.274,0.012C0.397,0.012 0.508,-0.082 0.508,-0.245C0.508,-0.409 0.397,-0.503 0.274,-0.503C0.152,-0.503 0.041,-0.409 0.041,-0.245C0.041,-0.082 0.152,0.012 0.274,0.012ZM0.274,-0.082C0.202,-0.082 0.159,-0.147 0.159,-0.245C0.159,-0.344 0.202,-0.409 0.274,-0.409C0.346,-0.409 0.39,-0.344 0.39,-0.245C0.39,-0.147 0.346,-0.082 0.274,-0.082Z" style="fill:rgb(89,89,89);fill-rule:nonzero;"/>
        </g>
        <g transform="matrix(9,0,0,9,28.5011,89)">
            <path d="M0.244,0.217C0.404,0.217 0.506,0.141 0.506,0.044C0.506,-0.041 0.444,-0.077 0.326,-0.077L0.239,-0.077C0.179,-0.077 0.159,-0.094 0.159,-0.122C0.159,-0.144 0.168,-0.156 0.183,-0.169C0.205,-0.16 0.229,-0.156 0.25,-0.156C0.354,-0.156 0.436,-0.214 0.436,-0.322C0.436,-0.356 0.424,-0.382 0.406,-0.402L0.406,-0.406L0.498,-0.406L0.498,-0.491L0.322,-0.491C0.302,-0.498 0.277,-0.503 0.25,-0.503C0.147,-0.503 0.056,-0.44 0.056,-0.327C0.056,-0.269 0.087,-0.222 0.12,-0.197L0.12,-0.193C0.092,-0.173 0.066,-0.14 0.066,-0.102C0.066,-0.062 0.085,-0.036 0.11,-0.02L0.11,-0.016C0.065,0.012 0.04,0.048 0.04,0.089C0.04,0.175 0.127,0.217 0.244,0.217ZM0.25,-0.228C0.202,-0.228 0.164,-0.264 0.164,-0.327C0.164,-0.389 0.202,-0.424 0.25,-0.424C0.298,-0.424 0.335,-0.389 0.335,-0.327C0.335,-0.264 0.297,-0.228 0.25,-0.228ZM0.262,0.142C0.184,0.142 0.136,0.116 0.136,0.072C0.136,0.049 0.148,0.027 0.174,0.007C0.193,0.012 0.214,0.014 0.241,0.014L0.308,0.014C0.364,0.014 0.395,0.025 0.395,0.063C0.395,0.105 0.341,0.142 0.262,0.142Z" style="fill:rgb(89,89,89);fill-rule:nonzero;"/>
        </g>
        <g transform="matrix(9,0,0,9,33.1814,89)">
            <path d="M0.073,-0L0.188,-0L0.188,-0.3C0.218,-0.374 0.265,-0.401 0.304,-0.401C0.325,-0.401 0.336,-0.399 0.352,-0.395L0.375,-0.493C0.36,-0.5 0.344,-0.503 0.319,-0.503C0.266,-0.503 0.214,-0.468 0.18,-0.404L0.176,-0.404L0.168,-0.491L0.073,-0.491L0.073,-0Z" style="fill:rgb(89,89,89);fill-rule:nonzero;"/>
        </g>
        <g transform="matrix(9,0,0,9,36.3047,89)">
            <path d="M0.192,0.012C0.25,0.012 0.298,-0.016 0.344,-0.054L0.348,-0.054L0.356,-0L0.451,-0L0.451,-0.29C0.451,-0.428 0.39,-0.503 0.268,-0.503C0.19,-0.503 0.12,-0.474 0.066,-0.44L0.108,-0.362C0.152,-0.388 0.198,-0.408 0.246,-0.408C0.312,-0.408 0.334,-0.366 0.336,-0.316C0.134,-0.294 0.046,-0.242 0.046,-0.132C0.046,-0.046 0.106,0.012 0.192,0.012ZM0.228,-0.082C0.188,-0.082 0.158,-0.098 0.158,-0.14C0.158,-0.19 0.202,-0.22 0.336,-0.236L0.336,-0.132C0.3,-0.098 0.268,-0.082 0.228,-0.082Z" style="fill:rgb(89,89,89);fill-rule:nonzero;"/>
        </g>
        <g transform="matrix(9,0,0,9,40.9489,89)">
            <path d="M0.073,0.194L0.188,0.194L0.188,0.04L0.185,-0.042C0.225,-0.008 0.268,0.012 0.311,0.012C0.42,0.012 0.521,-0.085 0.521,-0.253C0.521,-0.405 0.45,-0.503 0.328,-0.503C0.274,-0.503 0.221,-0.474 0.18,-0.439L0.176,-0.439L0.168,-0.491L0.073,-0.491L0.073,0.194ZM0.287,-0.083C0.258,-0.083 0.224,-0.094 0.188,-0.124L0.188,-0.353C0.226,-0.39 0.26,-0.408 0.296,-0.408C0.37,-0.408 0.402,-0.35 0.402,-0.252C0.402,-0.141 0.352,-0.083 0.287,-0.083Z" style="fill:rgb(89,89,89);fill-rule:nonzero;"/>
        </g>
        <g transform="matrix(9,0,0,9,46.0252,89)">
            <path d="M0.073,-0L0.188,-0L0.188,-0.343C0.229,-0.383 0.257,-0.404 0.3,-0.404C0.354,-0.404 0.377,-0.374 0.377,-0.293L0.377,-0L0.492,-0L0.492,-0.308C0.492,-0.432 0.446,-0.503 0.341,-0.503C0.274,-0.503 0.225,-0.468 0.184,-0.429L0.188,-0.524L0.188,-0.706L0.073,-0.706L0.073,-0Z" style="fill:rgb(89,89,89);fill-rule:nonzero;"/>
        </g>
        <g transform="matrix(9,0,0,9,51.0475,89)">
            <path d="M0.073,-0L0.188,-0L0.188,-0.491L0.073,-0.491L0.073,-0ZM0.13,-0.577C0.171,-0.577 0.199,-0.603 0.199,-0.643C0.199,-0.682 0.171,-0.708 0.13,-0.708C0.089,-0.708 0.061,-0.682 0.061,-0.643C0.061,-0.603 0.089,-0.577 0.13,-0.577Z" style="fill:rgb(89,89,89);fill-rule:nonzero;"/>
        </g>
        <g transform="matrix(9,0,0,9,53.4058,89)">
            <path d="M0.192,0.012C0.25,0.012 0.298,-0.016 0.344,-0.054L0.348,-0.054L0.356,-0L0.451,-0L0.451,-0.29C0.451,-0.428 0.39,-0.503 0.268,-0.503C0.19,-0.503 0.12,-0.474 0.066,-0.44L0.108,-0.362C0.152,-0.388 0.198,-0.408 0.246,-0.408C0.312,-0.408 0.334,-0.366 0.336,-0.316C0.134,-0.294 0.046,-0.242 0.046,-0.132C0.046,-0.046 0.106,0.012 0.192,0.012ZM0.228,-0.082C0.188,-0.082 0.158,-0.098 0.158,-0.14C0.158,-0.19 0.202,-0.22 0.336,-0.236L0.336,-0.132C0.3,-0.098 0.268,-0.082 0.228,-0.082Z" style="fill:rgb(89,89,89);fill-rule:nonzero;"/>
        </g>
        <g transform="matrix(9,0,0,9,59.8504,89)">
            <path d="M0.346,0.012C0.429,0.012 0.494,-0.02 0.548,-0.082L0.489,-0.15C0.454,-0.112 0.41,-0.089 0.354,-0.089C0.241,-0.089 0.168,-0.179 0.168,-0.328C0.168,-0.474 0.246,-0.565 0.351,-0.565C0.401,-0.565 0.441,-0.546 0.475,-0.513L0.537,-0.583C0.496,-0.629 0.43,-0.666 0.348,-0.666C0.183,-0.666 0.049,-0.539 0.049,-0.325C0.049,-0.108 0.18,0.012 0.346,0.012Z" style="fill:rgb(89,89,89);fill-rule:nonzero;"/>
        </g>
        <g transform="matrix(9,0,0,9,65.0347,89)">
            <path d="M0.192,0.012C0.25,0.012 0.298,-0.016 0.344,-0.054L0.348,-0.054L0.356,-0L0.451,-0L0.451,-0.29C0.451,-0.428 0.39,-0.503 0.268,-0.503C0.19,-0.503 0.12,-0.474 0.066,-0.44L0.108,-0.362C0.152,-0.388 0.198,-0.408 0.246,-0.408C0.312,-0.408 0.334,-0.366 0.336,-0.316C0.134,-0.294 0.046,-0.242 0.046,-0.132C0.046,-0.046 0.106,0.012 0.192,0.012ZM0.228,-0.082C0.188,-0.082 0.158,-0.098 0.158,-0.14C0.158,-0.19 0.202,-0.22 0.336,-0.236L0.336,-0.132C0.3,-0.098 0.268,-0.082 0.228,-0.082Z" style="fill:rgb(89,89,89);fill-rule:nonzero;"/>
        </g>
        <g transform="matrix(9,0,0,9,69.679,89)">
            <path d="M0.073,-0L0.188,-0L0.188,-0.3C0.218,-0.374 0.265,-0.401 0.304,-0.401C0.325,-0.401 0.336,-0.399 0.352,-0.395L0.375,-0.493C0.36,-0.5 0.344,-0.503 0.319,-0.503C0.266,-0.503 0.214,-0.468 0.18,-0.404L0.176,-0.404L0.168,-0.491L0.073,-0.491L0.073,-0Z" style="fill:rgb(89,89,89);fill-rule:nonzero;"/>
        </g>
        <g transform="matrix(9,0,0,9,73.0362,89)">
            <path d="M0.246,0.01C0.286,0.01 0.321,0.001 0.347,-0.01L0.326,-0.091C0.31,-0.084 0.292,-0.081 0.275,-0.081C0.228,-0.081 0.206,-0.11 0.206,-0.167L0.206,-0.4L0.331,-0.4L0.331,-0.491L0.206,-0.491L0.206,-0.645L0.11,-0.645L0.096,-0.491L0.02,-0.486L0.02,-0.4L0.09,-0.4L0.09,-0.167C0.09,-0.061 0.132,0.01 0.246,0.01Z" style="fill:rgb(89,89,89);fill-rule:nonzero;"/>
        </g>
        <g transform="matrix(9,0,0,9,76.1415,89)">
            <path d="M0.274,0.012C0.397,0.012 0.508,-0.082 0.508,-0.245C0.508,-0.409 0.397,-0.503 0.274,-0.503C0.152,-0.503 0.041,-0.409 0.041,-0.245C0.041,-0.082 0.152,0.012 0.274,0.012ZM0.274,-0.082C0.202,-0.082 0.159,-0.147 0.159,-0.245C0.159,-0.344 0.202,-0.409 0.274,-0.409C0.346,-0.409 0.39,-0.344 0.39,-0.245C0.39,-0.147 0.346,-0.082 0.274,-0.082Z" style="fill:rgb(89,89,89);fill-rule:nonzero;"/>
        </g>
        <g transform="matrix(9,0,0,9,81.0828,89)">
            <path d="M0.244,0.217C0.404,0.217 0.506,0.141 0.506,0.044C0.506,-0.041 0.444,-0.077 0.326,-0.077L0.239,-0.077C0.179,-0.077 0.159,-0.094 0.159,-0.122C0.159,-0.144 0.168,-0.156 0.183,-0.169C0.205,-0.16 0.229,-0.156 0.25,-0.156C0.354,-0.156 0.436,-0.214 0.436,-0.322C0.436,-0.356 0.424,-0.382 0.406,-0.402L0.406,-0.406L0.498,-0.406L0.498,-0.491L0.322,-0.491C0.302,-0.498 0.277,-0.503 0.25,-0.503C0.147,-0.503 0.056,-0.44 0.056,-0.327C0.056,-0.269 0.087,-0.222 0.12,-0.197L0.12,-0.193C0.092,-0.173 0.066,-0.14 0.066,-0.102C0.066,-0.062 0.085,-0.036 0.11,-0.02L0.11,-0.016C0.065,0.012 0.04,0.048 0.04,0.089C0.04,0.175 0.127,0.217 0.244,0.217ZM0.25,-0.228C0.202,-0.228 0.164,-0.264 0.164,-0.327C0.164,-0.389 0.202,-0.424 0.25,-0.424C0.298,-0.424 0.335,-0.389 0.335,-0.327C0.335,-0.264 0.297,-0.228 0.25,-0.228ZM0.262,0.142C0.184,0.142 0.136,0.116 0.136,0.072C0.136,0.049 0.148,0.027 0.174,0.007C0.193,0.012 0.214,0.014 0.241,0.014L0.308,0.014C0.364,0.014 0.395,0.025 0.395,0.063C0.395,0.105 0.341,0.142 0.262,0.142Z" style="fill:rgb(89,89,89);fill-rule:nonzero;"/>
        </g>
        <g transform="matrix(9,0,0,9,85.7631,89)">
            <path d="M0.073,-0L0.188,-0L0.188,-0.3C0.218,-0.374 0.265,-0.401 0.304,-0.401C0.325,-0.401 0.336,-0.399 0.352,-0.395L0.375,-0.493C0.36,-0.5 0.344,-0.503 0.319,-0.503C0.266,-0.503 0.214,-0.468 0.18,-0.404L0.176,-0.404L0.168,-0.491L0.073,-0.491L0.073,-0Z" style="fill:rgb(89,89,89);fill-rule:nonzero;"/>
        </g>
        <g transform="matrix(9,0,0,9,88.8864,89)">
            <path d="M0.192,0.012C0.25,0.012 0.298,-0.016 0.344,-0.054L0.348,-0.054L0.356,-0L0.451,-0L0.451,-0.29C0.451,-0.428 0.39,-0.503 0.268,-0.503C0.19,-0.503 0.12,-0.474 0.066,-0.44L0.108,-0.362C0.152,-0.388 0.198,-0.408 0.246,-0.408C0.312,-0.408 0.334,-0.366 0.336,-0.316C0.134,-0.294 0.046,-0.242 0.046,-0.132C0.046,-0.046 0.106,0.012 0.192,0.012ZM0.228,-0.082C0.188,-0.082 0.158,-0.098 0.158,-0.14C0.158,-0.19 0.202,-0.22 0.336,-0.236L0.336,-0.132C0.3,-0.098 0.268,-0.082 0.228,-0.082Z" style="fill:rgb(89,89,89);fill-rule:nonzero;"/>
        </g>
        <g transform="matrix(9,0,0,9,93.5307,89)">
            <path d="M0.073,0.194L0.188,0.194L0.188,0.04L0.185,-0.042C0.225,-0.008 0.268,0.012 0.311,0.012C0.42,0.012 0.521,-0.085 0.521,-0.253C0.521,-0.405 0.45,-0.503 0.328,-0.503C0.274,-0.503 0.221,-0.474 0.18,-0.439L0.176,-0.439L0.168,-0.491L0.073,-0.491L0.073,0.194ZM0.287,-0.083C0.258,-0.083 0.224,-0.094 0.188,-0.124L0.188,-0.353C0.226,-0.39 0.26,-0.408 0.296,-0.408C0.37,-0.408 0.402,-0.35 0.402,-0.252C0.402,-0.141 0.352,-0.083 0.287,-0.083Z" style="fill:rgb(89,89,89);fill-rule:nonzero;"/>
        </g>
        <g transform="matrix(9,0,0,9,98.607,89)">
            <path d="M0.073,-0L0.188,-0L0.188,-0.343C0.229,-0.383 0.257,-0.404 0.3,-0.404C0.354,-0.404 0.377,-0.374 0.377,-0.293L0.377,-0L0.492,-0L0.492,-0.308C0.492,-0.432 0.446,-0.503 0.341,-0.503C0.274,-0.503 0.225,-0.468 0.184,-0.429L0.188,-0.524L0.188,-0.706L0.073,-0.706L0.073,-0Z" style="fill:rgb(89,89,89);fill-rule:nonzero;"/>
        </g>
        <g transform="matrix(9,0,0,9,103.629,89)">
            <path d="M0.073,-0L0.188,-0L0.188,-0.491L0.073,-0.491L0.073,-0ZM0.13,-0.577C0.171,-0.577 0.199,-0.603 0.199,-0.643C0.199,-0.682 0.171,-0.708 0.13,-0.708C0.089,-0.708 0.061,-0.682 0.061,-0.643C0.061,-0.603 0.089,-0.577 0.13,-0.577Z" style="fill:rgb(89,89,89);fill-rule:nonzero;"/>
        </g>
        <g transform="matrix(9,0,0,9,105.988,89)">
            <path d="M0.28,0.012C0.341,0.012 0.397,-0.012 0.438,-0.05L0.391,-0.121C0.364,-0.097 0.329,-0.082 0.291,-0.082C0.213,-0.082 0.159,-0.147 0.159,-0.245C0.159,-0.344 0.215,-0.409 0.293,-0.409C0.328,-0.409 0.354,-0.396 0.376,-0.377L0.431,-0.448C0.396,-0.481 0.35,-0.503 0.287,-0.503C0.156,-0.503 0.041,-0.409 0.041,-0.245C0.041,-0.082 0.144,0.012 0.28,0.012Z" style="fill:rgb(89,89,89);fill-rule:nonzero;"/>
        </g>
        <g transform="matrix(9,0,0,9,110.056,89)">
            <path d="M0.192,0.012C0.25,0.012 0.298,-0.016 0.344,-0.054L0.348,-0.054L0.356,-0L0.451,-0L0.451,-0.29C0.451,-0.428 0.39,-0.503 0.268,-0.503C0.19,-0.503 0.12,-0.474 0.066,-0.44L0.108,-0.362C0.152,-0.388 0.198,-0.408 0.246,-0.408C0.312,-0.408 0.334,-0.366 0.336,-0.316C0.134,-0.294 0.046,-0.242 0.046,-0.132C0.046,-0.046 0.106,0.012 0.192,0.012ZM0.228,-0.082C0.188,-0.082 0.158,-0.098 0.158,-0.14C0.158,-0.19 0.202,-0.22 0.336,-0.236L0.336,-0.132C0.3,-0.098 0.268,-0.082 0.228,-0.082Z" style="fill:rgb(89,89,89);fill-rule:nonzero;"/>
        </g>
    </g>
    <g transform="matrix(4.16667,0,0,4.16667,0,0)">
        <g transform="matrix(9,0,0,9,70.9516,111.5)">
            <path d="M0.083,-0L0.188,-0L0.188,-0.298C0.188,-0.36 0.18,-0.458 0.172,-0.518L0.176,-0.518L0.226,-0.352L0.332,-0.06L0.41,-0.06L0.516,-0.352L0.568,-0.518L0.572,-0.518C0.564,-0.458 0.555,-0.36 0.555,-0.298L0.555,-0L0.662,-0L0.662,-0.654L0.524,-0.654L0.412,-0.334C0.398,-0.292 0.388,-0.254 0.376,-0.206L0.372,-0.206C0.36,-0.254 0.348,-0.292 0.334,-0.334L0.222,-0.654L0.083,-0.654L0.083,-0Z" style="fill:rgb(89,89,89);fill-rule:nonzero;"/>
        </g>
        <g transform="matrix(9,0,0,9,77.6566,111.5)">
            <path d="M0.219,0.012C0.286,0.012 0.334,-0.021 0.377,-0.072L0.38,-0.072L0.389,-0L0.483,-0L0.483,-0.491L0.368,-0.491L0.368,-0.155C0.331,-0.107 0.302,-0.087 0.259,-0.087C0.206,-0.087 0.183,-0.117 0.183,-0.198L0.183,-0.491L0.068,-0.491L0.068,-0.183C0.068,-0.059 0.114,0.012 0.219,0.012Z" style="fill:rgb(89,89,89);fill-rule:nonzero;"/>
        </g>
        <g transform="matrix(9,0,0,9,82.6605,111.5)">
            <path d="M0.21,0.012C0.334,0.012 0.401,-0.056 0.401,-0.14C0.401,-0.226 0.334,-0.264 0.258,-0.29C0.196,-0.311 0.16,-0.326 0.16,-0.362C0.16,-0.392 0.183,-0.416 0.233,-0.416C0.272,-0.416 0.308,-0.404 0.343,-0.379L0.394,-0.444C0.354,-0.478 0.297,-0.503 0.23,-0.503C0.12,-0.503 0.052,-0.442 0.052,-0.356C0.052,-0.278 0.118,-0.238 0.189,-0.212C0.243,-0.192 0.292,-0.175 0.292,-0.134C0.292,-0.1 0.267,-0.075 0.214,-0.075C0.163,-0.075 0.118,-0.09 0.075,-0.126L0.024,-0.06C0.072,-0.014 0.142,0.012 0.21,0.012Z" style="fill:rgb(89,89,89);fill-rule:nonzero;"/>
        </g>
        <g transform="matrix(9,0,0,9,86.5394,111.5)">
            <path d="M0.073,-0L0.188,-0L0.188,-0.491L0.073,-0.491L0.073,-0ZM0.13,-0.577C0.171,-0.577 0.199,-0.603 0.199,-0.643C0.199,-0.682 0.171,-0.708 0.13,-0.708C0.089,-0.708 0.061,-0.682 0.061,-0.643C0.061,-0.603 0.089,-0.577 0.13,-0.577Z" style="fill:rgb(89,89,89);fill-rule:nonzero;"/>
        </g>
        <g transform="matrix(9,0,0,9,88.8973,111.5)">
            <path d="M0.073,-0L0.187,-0L0.187,-0.126L0.263,-0.213L0.389,-0L0.514,-0L0.33,-0.29L0.497,-0.491L0.37,-0.491L0.19,-0.266L0.187,-0.266L0.187,-0.706L0.073,-0.706L0.073,-0Z" style="fill:rgb(89,89,89);fill-rule:nonzero;"/>
        </g>
        <g transform="matrix(9,0,0,9,93.5953,111.5)">
            <rect x="0.042" y="-0.294" width="0.238" height="0.084" style="fill:rgb(89,89,89);fill-rule:nonzero;"/>
        </g>
        <g transform="matrix(9,0,0,9,96.4932,111.5)">
            <rect x="0.083" y="-0.654" width="0.116" height="0.654" style="fill:rgb(89,89,89);fill-rule:nonzero;"/>
        </g>
        <g transform="matrix(9,0,0,9,99.0311,111.5)">
            <path d="M0.083,-0L0.199,-0L0.199,-0.24L0.293,-0.24C0.434,-0.24 0.542,-0.307 0.542,-0.452C0.542,-0.604 0.434,-0.654 0.289,-0.654L0.083,-0.654L0.083,-0ZM0.199,-0.333L0.199,-0.561L0.28,-0.561C0.377,-0.561 0.428,-0.534 0.428,-0.452C0.428,-0.372 0.381,-0.333 0.284,-0.333L0.199,-0.333Z" style="fill:rgb(89,89,89);fill-rule:nonzero;"/>
        </g>
        <g transform="matrix(9,0,0,9,104.269,111.5)">
            <path d="M0.217,-0.348C0.238,-0.417 0.257,-0.491 0.275,-0.564L0.279,-0.564C0.298,-0.492 0.317,-0.417 0.338,-0.348L0.361,-0.268L0.194,-0.268L0.217,-0.348ZM-0.002,-0L0.116,-0L0.167,-0.177L0.387,-0.177L0.438,-0L0.56,-0L0.347,-0.654L0.211,-0.654L-0.002,-0Z" style="fill:rgb(89,89,89);fill-rule:nonzero;"/>
        </g>
        <g transform="matrix(9,0,0,9,109.291,111.5)">
            <path d="M0.346,0.012C0.429,0.012 0.494,-0.02 0.548,-0.082L0.489,-0.15C0.454,-0.112 0.41,-0.089 0.354,-0.089C0.241,-0.089 0.168,-0.179 0.168,-0.328C0.168,-0.474 0.246,-0.565 0.351,-0.565C0.401,-0.565 0.441,-0.546 0.475,-0.513L0.537,-0.583C0.496,-0.629 0.43,-0.666 0.348,-0.666C0.183,-0.666 0.049,-0.539 0.049,-0.325C0.049,-0.108 0.18,0.012 0.346,0.012Z" style="fill:rgb(89,89,89);fill-rule:nonzero;"/>
        </g>
    </g>
    <g transform="matrix(4.16667,0,0,4.16667,0,0)">
        <g transform="matrix(9,0,0,9,66.7558,134)">
            <path d="M0.337,0.012C0.508,0.012 0.626,-0.118 0.626,-0.33C0.626,-0.541 0.508,-0.666 0.337,-0.666C0.167,-0.666 0.049,-0.541 0.049,-0.33C0.049,-0.118 0.167,0.012 0.337,0.012ZM0.337,-0.089C0.234,-0.089 0.168,-0.183 0.168,-0.33C0.168,-0.476 0.234,-0.565 0.337,-0.565C0.44,-0.565 0.506,-0.476 0.506,-0.33C0.506,-0.183 0.44,-0.089 0.337,-0.089Z" style="fill:rgb(89,89,89);fill-rule:nonzero;"/>
        </g>
        <g transform="matrix(9,0,0,9,72.8223,134)">
            <path d="M0.073,-0L0.188,-0L0.188,-0.3C0.218,-0.374 0.265,-0.401 0.304,-0.401C0.325,-0.401 0.336,-0.399 0.352,-0.395L0.375,-0.493C0.36,-0.5 0.344,-0.503 0.319,-0.503C0.266,-0.503 0.214,-0.468 0.18,-0.404L0.176,-0.404L0.168,-0.491L0.073,-0.491L0.073,-0Z" style="fill:rgb(89,89,89);fill-rule:nonzero;"/>
        </g>
        <g transform="matrix(9,0,0,9,76.1798,134)">
            <path d="M0.073,-0L0.188,-0L0.188,-0.491L0.073,-0.491L0.073,-0ZM0.13,-0.577C0.171,-0.577 0.199,-0.603 0.199,-0.643C0.199,-0.682 0.171,-0.708 0.13,-0.708C0.089,-0.708 0.061,-0.682 0.061,-0.643C0.061,-0.603 0.089,-0.577 0.13,-0.577Z" style="fill:rgb(89,89,89);fill-rule:nonzero;"/>
        </g>
        <g transform="matrix(9,0,0,9,78.5383,134)">
            <path d="M0.27,-0.412C0.336,-0.412 0.368,-0.368 0.368,-0.298L0.158,-0.298C0.172,-0.385 0.222,-0.412 0.27,-0.412ZM0.284,0.012C0.346,0.012 0.406,-0.008 0.452,-0.04L0.412,-0.114C0.378,-0.092 0.34,-0.08 0.298,-0.08C0.23,-0.08 0.169,-0.12 0.156,-0.21L0.464,-0.21C0.468,-0.228 0.47,-0.248 0.47,-0.27C0.47,-0.406 0.402,-0.503 0.268,-0.503C0.152,-0.503 0.04,-0.406 0.04,-0.246C0.04,-0.082 0.146,0.012 0.284,0.012Z" style="fill:rgb(89,89,89);fill-rule:nonzero;"/>
        </g>
        <g transform="matrix(9,0,0,9,83.1019,134)">
            <path d="M0.073,-0L0.188,-0L0.188,-0.343C0.229,-0.383 0.257,-0.404 0.3,-0.404C0.354,-0.404 0.377,-0.374 0.377,-0.293L0.377,-0L0.492,-0L0.492,-0.308C0.492,-0.432 0.446,-0.503 0.341,-0.503C0.274,-0.503 0.224,-0.468 0.18,-0.425L0.176,-0.425L0.168,-0.491L0.073,-0.491L0.073,-0Z" style="fill:rgb(89,89,89);fill-rule:nonzero;"/>
        </g>
        <g transform="matrix(9,0,0,9,88.1424,134)">
            <path d="M0.246,0.01C0.286,0.01 0.321,0.001 0.347,-0.01L0.326,-0.091C0.31,-0.084 0.292,-0.081 0.275,-0.081C0.228,-0.081 0.206,-0.11 0.206,-0.167L0.206,-0.4L0.331,-0.4L0.331,-0.491L0.206,-0.491L0.206,-0.645L0.11,-0.645L0.096,-0.491L0.02,-0.486L0.02,-0.4L0.09,-0.4L0.09,-0.167C0.09,-0.061 0.132,0.01 0.246,0.01Z" style="fill:rgb(89,89,89);fill-rule:nonzero;"/>
        </g>
        <g transform="matrix(9,0,0,9,93.1924,134)">
            <path d="M0.083,-0L0.264,-0C0.458,-0 0.576,-0.113 0.576,-0.33C0.576,-0.546 0.458,-0.654 0.258,-0.654L0.083,-0.654L0.083,-0ZM0.199,-0.094L0.199,-0.56L0.25,-0.56C0.382,-0.56 0.457,-0.49 0.457,-0.33C0.457,-0.169 0.382,-0.094 0.25,-0.094L0.199,-0.094Z" style="fill:rgb(89,89,89);fill-rule:nonzero;"/>
        </g>
        <g transform="matrix(9,0,0,9,98.818,134)">
            <path d="M0.073,-0L0.188,-0L0.188,-0.491L0.073,-0.491L0.073,-0ZM0.13,-0.577C0.171,-0.577 0.199,-0.603 0.199,-0.643C0.199,-0.682 0.171,-0.708 0.13,-0.708C0.089,-0.708 0.061,-0.682 0.061,-0.643C0.061,-0.603 0.089,-0.577 0.13,-0.577Z" style="fill:rgb(89,89,89);fill-rule:nonzero;"/>
        </g>
        <g transform="matrix(9,0,0,9,101.176,134)">
            <path d="M0.244,0.217C0.404,0.217 0.506,0.141 0.506,0.044C0.506,-0.041 0.444,-0.077 0.326,-0.077L0.239,-0.077C0.179,-0.077 0.159,-0.094 0.159,-0.122C0.159,-0.144 0.168,-0.156 0.183,-0.169C0.205,-0.16 0.229,-0.156 0.25,-0.156C0.354,-0.156 0.436,-0.214 0.436,-0.322C0.436,-0.356 0.424,-0.382 0.406,-0.402L0.406,-0.406L0.498,-0.406L0.498,-0.491L0.322,-0.491C0.302,-0.498 0.277,-0.503 0.25,-0.503C0.147,-0.503 0.056,-0.44 0.056,-0.327C0.056,-0.269 0.087,-0.222 0.12,-0.197L0.12,-0.193C0.092,-0.173 0.066,-0.14 0.066,-0.102C0.066,-0.062 0.085,-0.036 0.11,-0.02L0.11,-0.016C0.065,0.012 0.04,0.048 0.04,0.089C0.04,0.175 0.127,0.217 0.244,0.217ZM0.25,-0.228C0.202,-0.228 0.164,-0.264 0.164,-0.327C0.164,-0.389 0.202,-0.424 0.25,-0.424C0.298,-0.424 0.335,-0.389 0.335,-0.327C0.335,-0.264 0.297,-0.228 0.25,-0.228ZM0.262,0.142C0.184,0.142 0.136,0.116 0.136,0.072C0.136,0.049 0.148,0.027 0.174,0.007C0.193,0.012 0.214,0.014 0.241,0.014L0.308,0.014C0.364,0.014 0.395,0.025 0.395,0.063C0.395,0.105 0.341,0.142 0.262,0.142Z" style="fill:rgb(89,89,89);fill-rule:nonzero;"/>
        </g>
        <g transform="matrix(9,0,0,9,105.857,134)">
            <path d="M0.073,-0L0.188,-0L0.188,-0.491L0.073,-0.491L0.073,-0ZM0.13,-0.577C0.171,-0.577 0.199,-0.603 0.199,-0.643C0.199,-0.682 0.171,-0.708 0.13,-0.708C0.089,-0.708 0.061,-0.682 0.061,-0.643C0.061,-0.603 0.089,-0.577 0.13,-0.577Z" style="fill:rgb(89,89,89);fill-rule:nonzero;"/>
        </g>
        <g transform="matrix(9,0,0,9,108.216,134)">
            <path d="M0.246,0.01C0.286,0.01 0.321,0.001 0.347,-0.01L0.326,-0.091C0.31,-0.084 0.292,-0.081 0.275,-0.081C0.228,-0.081 0.206,-0.11 0.206,-0.167L0.206,-0.4L0.331,-0.4L0.331,-0.491L0.206,-0.491L0.206,-0.645L0.11,-0.645L0.096,-0.491L0.02,-0.486L0.02,-0.4L0.09,-0.4L0.09,-0.167C0.09,-0.061 0.132,0.01 0.246,0.01Z" style="fill:rgb(89,89,89);fill-rule:nonzero;"/>
        </g>
        <g transform="matrix(9,0,0,9,111.276,134)">
            <path d="M0.192,0.012C0.25,0.012 0.298,-0.016 0.344,-0.054L0.348,-0.054L0.356,-0L0.451,-0L0.451,-0.29C0.451,-0.428 0.39,-0.503 0.268,-0.503C0.19,-0.503 0.12,-0.474 0.066,-0.44L0.108,-0.362C0.152,-0.388 0.198,-0.408 0.246,-0.408C0.312,-0.408 0.334,-0.366 0.336,-0.316C0.134,-0.294 0.046,-0.242 0.046,-0.132C0.046,-0.046 0.106,0.012 0.192,0.012ZM0.228,-0.082C0.188,-0.082 0.158,-0.098 0.158,-0.14C0.158,-0.19 0.202,-0.22 0.336,-0.236L0.336,-0.132C0.3,-0.098 0.268,-0.082 0.228,-0.082Z" style="fill:rgb(89,89,89);fill-rule:nonzero;"/>
        </g>
        <g transform="matrix(9,0,0,9,115.921,134)">
            <path d="M0.185,0.01C0.212,0.01 0.232,0.006 0.246,-0L0.231,-0.086C0.223,-0.084 0.219,-0.084 0.214,-0.084C0.201,-0.084 0.188,-0.093 0.188,-0.122L0.188,-0.706L0.073,-0.706L0.073,-0.128C0.073,-0.042 0.103,0.01 0.185,0.01Z" style="fill:rgb(89,89,89);fill-rule:nonzero;"/>
        </g>
    </g>
    <g transform="matrix(4.16667,0,0,4.16667,0,0)">
        <g transform="matrix(9,0,0,9,18.3249,156.5)">
            <path d="M0.083,-0L0.188,-0L0.188,-0.298C0.188,-0.36 0.18,-0.458 0.172,-0.518L0.176,-0.518L0.226,-0.352L0.332,-0.06L0.41,-0.06L0.516,-0.352L0.568,-0.518L0.572,-0.518C0.564,-0.458 0.555,-0.36 0.555,-0.298L0.555,-0L0.662,-0L0.662,-0.654L0.524,-0.654L0.412,-0.334C0.398,-0.292 0.388,-0.254 0.376,-0.206L0.372,-0.206C0.36,-0.254 0.348,-0.292 0.334,-0.334L0.222,-0.654L0.083,-0.654L0.083,-0Z" style="fill:rgb(89,89,89);fill-rule:nonzero;"/>
        </g>
        <g transform="matrix(9,0,0,9,25.0307,156.5)">
            <path d="M0.192,0.012C0.25,0.012 0.298,-0.016 0.344,-0.054L0.348,-0.054L0.356,-0L0.451,-0L0.451,-0.29C0.451,-0.428 0.39,-0.503 0.268,-0.503C0.19,-0.503 0.12,-0.474 0.066,-0.44L0.108,-0.362C0.152,-0.388 0.198,-0.408 0.246,-0.408C0.312,-0.408 0.334,-0.366 0.336,-0.316C0.134,-0.294 0.046,-0.242 0.046,-0.132C0.046,-0.046 0.106,0.012 0.192,0.012ZM0.228,-0.082C0.188,-0.082 0.158,-0.098 0.158,-0.14C0.158,-0.19 0.202,-0.22 0.336,-0.236L0.336,-0.132C0.3,-0.098 0.268,-0.082 0.228,-0.082Z" style="fill:rgb(89,89,89);fill-rule:nonzero;"/>
        </g>
        <g transform="matrix(9,0,0,9,29.6756,156.5)">
            <path d="M0.073,-0L0.188,-0L0.188,-0.343C0.229,-0.383 0.257,-0.404 0.3,-0.404C0.354,-0.404 0.377,-0.374 0.377,-0.293L0.377,-0L0.492,-0L0.492,-0.308C0.492,-0.432 0.446,-0.503 0.341,-0.503C0.274,-0.503 0.224,-0.468 0.18,-0.425L0.176,-0.425L0.168,-0.491L0.073,-0.491L0.073,-0Z" style="fill:rgb(89,89,89);fill-rule:nonzero;"/>
        </g>
        <g transform="matrix(9,0,0,9,34.7164,156.5)">
            <path d="M0.219,0.012C0.286,0.012 0.334,-0.021 0.377,-0.072L0.38,-0.072L0.389,-0L0.483,-0L0.483,-0.491L0.368,-0.491L0.368,-0.155C0.331,-0.107 0.302,-0.087 0.259,-0.087C0.206,-0.087 0.183,-0.117 0.183,-0.198L0.183,-0.491L0.068,-0.491L0.068,-0.183C0.068,-0.059 0.114,0.012 0.219,0.012Z" style="fill:rgb(89,89,89);fill-rule:nonzero;"/>
        </g>
        <g transform="matrix(9,0,0,9,39.7213,156.5)">
            <path d="M0.21,0.012C0.334,0.012 0.401,-0.056 0.401,-0.14C0.401,-0.226 0.334,-0.264 0.258,-0.29C0.196,-0.311 0.16,-0.326 0.16,-0.362C0.16,-0.392 0.183,-0.416 0.233,-0.416C0.272,-0.416 0.308,-0.404 0.343,-0.379L0.394,-0.444C0.354,-0.478 0.297,-0.503 0.23,-0.503C0.12,-0.503 0.052,-0.442 0.052,-0.356C0.052,-0.278 0.118,-0.238 0.189,-0.212C0.243,-0.192 0.292,-0.175 0.292,-0.134C0.292,-0.1 0.267,-0.075 0.214,-0.075C0.163,-0.075 0.118,-0.09 0.075,-0.126L0.024,-0.06C0.072,-0.014 0.142,0.012 0.21,0.012Z" style="fill:rgb(89,89,89);fill-rule:nonzero;"/>
        </g>
        <g transform="matrix(9,0,0,9,43.6011,156.5)">
            <path d="M0.28,0.012C0.341,0.012 0.397,-0.012 0.438,-0.05L0.391,-0.121C0.364,-0.097 0.329,-0.082 0.291,-0.082C0.213,-0.082 0.159,-0.147 0.159,-0.245C0.159,-0.344 0.215,-0.409 0.293,-0.409C0.328,-0.409 0.354,-0.396 0.376,-0.377L0.431,-0.448C0.396,-0.481 0.35,-0.503 0.287,-0.503C0.156,-0.503 0.041,-0.409 0.041,-0.245C0.041,-0.082 0.144,0.012 0.28,0.012Z" style="fill:rgb(89,89,89);fill-rule:nonzero;"/>
        </g>
        <g transform="matrix(9,0,0,9,47.76,156.5)">
            <path d="M0.073,-0L0.188,-0L0.188,-0.3C0.218,-0.374 0.265,-0.401 0.304,-0.401C0.325,-0.401 0.336,-0.399 0.352,-0.395L0.375,-0.493C0.36,-0.5 0.344,-0.503 0.319,-0.503C0.266,-0.503 0.214,-0.468 0.18,-0.404L0.176,-0.404L0.168,-0.491L0.073,-0.491L0.073,-0Z" style="fill:rgb(89,89,89);fill-rule:nonzero;"/>
        </g>
        <g transform="matrix(9,0,0,9,51.1178,156.5)">
            <path d="M0.073,-0L0.188,-0L0.188,-0.491L0.073,-0.491L0.073,-0ZM0.13,-0.577C0.171,-0.577 0.199,-0.603 0.199,-0.643C0.199,-0.682 0.171,-0.708 0.13,-0.708C0.089,-0.708 0.061,-0.682 0.061,-0.643C0.061,-0.603 0.089,-0.577 0.13,-0.577Z" style="fill:rgb(89,89,89);fill-rule:nonzero;"/>
        </g>
        <g transform="matrix(9,0,0,9,53.4767,156.5)">
            <path d="M0.073,0.194L0.188,0.194L0.188,0.04L0.185,-0.042C0.225,-0.008 0.268,0.012 0.311,0.012C0.42,0.012 0.521,-0.085 0.521,-0.253C0.521,-0.405 0.45,-0.503 0.328,-0.503C0.274,-0.503 0.221,-0.474 0.18,-0.439L0.176,-0.439L0.168,-0.491L0.073,-0.491L0.073,0.194ZM0.287,-0.083C0.258,-0.083 0.224,-0.094 0.188,-0.124L0.188,-0.353C0.226,-0.39 0.26,-0.408 0.296,-0.408C0.37,-0.408 0.402,-0.35 0.402,-0.252C0.402,-0.141 0.352,-0.083 0.287,-0.083Z" style="fill:rgb(89,89,89);fill-rule:nonzero;"/>
        </g>
        <g transform="matrix(9,0,0,9,58.3556,156.5)">
            <path d="M0.246,0.01C0.286,0.01 0.321,0.001 0.347,-0.01L0.326,-0.091C0.31,-0.084 0.292,-0.081 0.275,-0.081C0.228,-0.081 0.206,-0.11 0.206,-0.167L0.206,-0.4L0.331,-0.4L0.331,-0.491L0.206,-0.491L0.206,-0.645L0.11,-0.645L0.096,-0.491L0.02,-0.486L0.02,-0.4L0.09,-0.4L0.09,-0.167C0.09,-0.061 0.132,0.01 0.246,0.01Z" style="fill:rgb(89,89,89);fill-rule:nonzero;"/>
        </g>
        <g transform="matrix(9,0,0,9,61.4164,156.5)">
            <path d="M0.192,0.012C0.25,0.012 0.298,-0.016 0.344,-0.054L0.348,-0.054L0.356,-0L0.451,-0L0.451,-0.29C0.451,-0.428 0.39,-0.503 0.268,-0.503C0.19,-0.503 0.12,-0.474 0.066,-0.44L0.108,-0.362C0.152,-0.388 0.198,-0.408 0.246,-0.408C0.312,-0.408 0.334,-0.366 0.336,-0.316C0.134,-0.294 0.046,-0.242 0.046,-0.132C0.046,-0.046 0.106,0.012 0.192,0.012ZM0.228,-0.082C0.188,-0.082 0.158,-0.098 0.158,-0.14C0.158,-0.19 0.202,-0.22 0.336,-0.236L0.336,-0.132C0.3,-0.098 0.268,-0.082 0.228,-0.082Z" style="fill:rgb(89,89,89);fill-rule:nonzero;"/>
        </g>
        <g transform="matrix(9,0,0,9,67.8621,156.5)">
            <path d="M0.083,-0L0.188,-0L0.188,-0.298C0.188,-0.36 0.18,-0.458 0.172,-0.518L0.176,-0.518L0.226,-0.352L0.332,-0.06L0.41,-0.06L0.516,-0.352L0.568,-0.518L0.572,-0.518C0.564,-0.458 0.555,-0.36 0.555,-0.298L0.555,-0L0.662,-0L0.662,-0.654L0.524,-0.654L0.412,-0.334C0.398,-0.292 0.388,-0.254 0.376,-0.206L0.372,-0.206C0.36,-0.254 0.348,-0.292 0.334,-0.334L0.222,-0.654L0.083,-0.654L0.083,-0Z" style="fill:rgb(89,89,89);fill-rule:nonzero;"/>
        </g>
        <g transform="matrix(9,0,0,9,74.568,156.5)">
            <path d="M0.27,-0.412C0.336,-0.412 0.368,-0.368 0.368,-0.298L0.158,-0.298C0.172,-0.385 0.222,-0.412 0.27,-0.412ZM0.284,0.012C0.346,0.012 0.406,-0.008 0.452,-0.04L0.412,-0.114C0.378,-0.092 0.34,-0.08 0.298,-0.08C0.23,-0.08 0.169,-0.12 0.156,-0.21L0.464,-0.21C0.468,-0.228 0.47,-0.248 0.47,-0.27C0.47,-0.406 0.402,-0.503 0.268,-0.503C0.152,-0.503 0.04,-0.406 0.04,-0.246C0.04,-0.082 0.146,0.012 0.284,0.012Z" style="fill:rgb(89,89,89);fill-rule:nonzero;"/>
        </g>
        <g transform="matrix(9,0,0,9,79.1319,156.5)">
            <path d="M0.245,0.012C0.298,0.012 0.348,-0.017 0.384,-0.053L0.388,-0.053L0.396,-0L0.491,-0L0.491,-0.706L0.376,-0.706L0.376,-0.528L0.38,-0.449C0.342,-0.482 0.307,-0.503 0.251,-0.503C0.144,-0.503 0.043,-0.405 0.043,-0.245C0.043,-0.083 0.122,0.012 0.245,0.012ZM0.273,-0.083C0.202,-0.083 0.162,-0.14 0.162,-0.246C0.162,-0.349 0.213,-0.408 0.276,-0.408C0.309,-0.408 0.342,-0.397 0.376,-0.367L0.376,-0.138C0.343,-0.1 0.311,-0.083 0.273,-0.083Z" style="fill:rgb(89,89,89);fill-rule:nonzero;"/>
        </g>
        <g transform="matrix(9,0,0,9,84.2087,156.5)">
            <path d="M0.073,-0L0.188,-0L0.188,-0.491L0.073,-0.491L0.073,-0ZM0.13,-0.577C0.171,-0.577 0.199,-0.603 0.199,-0.643C0.199,-0.682 0.171,-0.708 0.13,-0.708C0.089,-0.708 0.061,-0.682 0.061,-0.643C0.061,-0.603 0.089,-0.577 0.13,-0.577Z" style="fill:rgb(89,89,89);fill-rule:nonzero;"/>
        </g>
        <g transform="matrix(9,0,0,9,86.5676,156.5)">
            <path d="M0.192,0.012C0.25,0.012 0.298,-0.016 0.344,-0.054L0.348,-0.054L0.356,-0L0.451,-0L0.451,-0.29C0.451,-0.428 0.39,-0.503 0.268,-0.503C0.19,-0.503 0.12,-0.474 0.066,-0.44L0.108,-0.362C0.152,-0.388 0.198,-0.408 0.246,-0.408C0.312,-0.408 0.334,-0.366 0.336,-0.316C0.134,-0.294 0.046,-0.242 0.046,-0.132C0.046,-0.046 0.106,0.012 0.192,0.012ZM0.228,-0.082C0.188,-0.082 0.158,-0.098 0.158,-0.14C0.158,-0.19 0.202,-0.22 0.336,-0.236L0.336,-0.132C0.3,-0.098 0.268,-0.082 0.228,-0.082Z" style="fill:rgb(89,89,89);fill-rule:nonzero;"/>
        </g>
        <g transform="matrix(9,0,0,9,91.2124,156.5)">
            <path d="M0.27,-0.412C0.336,-0.412 0.368,-0.368 0.368,-0.298L0.158,-0.298C0.172,-0.385 0.222,-0.412 0.27,-0.412ZM0.284,0.012C0.346,0.012 0.406,-0.008 0.452,-0.04L0.412,-0.114C0.378,-0.092 0.34,-0.08 0.298,-0.08C0.23,-0.08 0.169,-0.12 0.156,-0.21L0.464,-0.21C0.468,-0.228 0.47,-0.248 0.47,-0.27C0.47,-0.406 0.402,-0.503 0.268,-0.503C0.152,-0.503 0.04,-0.406 0.04,-0.246C0.04,-0.082 0.146,0.012 0.284,0.012Z" style="fill:rgb(89,89,89);fill-rule:nonzero;"/>
        </g>
        <g transform="matrix(9,0,0,9,95.7763,156.5)">
            <path d="M0.183,-0L0.316,-0L0.483,-0.491L0.372,-0.491L0.294,-0.236C0.28,-0.188 0.266,-0.138 0.252,-0.088L0.248,-0.088C0.235,-0.138 0.22,-0.188 0.207,-0.236L0.129,-0.491L0.012,-0.491L0.183,-0Z" style="fill:rgb(89,89,89);fill-rule:nonzero;"/>
        </g>
        <g transform="matrix(9,0,0,9,100.052,156.5)">
            <path d="M0.192,0.012C0.25,0.012 0.298,-0.016 0.344,-0.054L0.348,-0.054L0.356,-0L0.451,-0L0.451,-0.29C0.451,-0.428 0.39,-0.503 0.268,-0.503C0.19,-0.503 0.12,-0.474 0.066,-0.44L0.108,-0.362C0.152,-0.388 0.198,-0.408 0.246,-0.408C0.312,-0.408 0.334,-0.366 0.336,-0.316C0.134,-0.294 0.046,-0.242 0.046,-0.132C0.046,-0.046 0.106,0.012 0.192,0.012ZM0.228,-0.082C0.188,-0.082 0.158,-0.098 0.158,-0.14C0.158,-0.19 0.202,-0.22 0.336,-0.236L0.336,-0.132C0.3,-0.098 0.268,-0.082 0.228,-0.082Z" style="fill:rgb(89,89,89);fill-rule:nonzero;"/>
        </g>
        <g transform="matrix(9,0,0,9,104.697,156.5)">
            <path d="M0.185,0.01C0.212,0.01 0.232,0.006 0.246,-0L0.231,-0.086C0.223,-0.084 0.219,-0.084 0.214,-0.084C0.201,-0.084 0.188,-0.093 0.188,-0.122L0.188,-0.706L0.073,-0.706L0.073,-0.128C0.073,-0.042 0.103,0.01 0.185,0.01Z" style="fill:rgb(89,89,89);fill-rule:nonzero;"/>
        </g>
        <g transform="matrix(9,0,0,9,107.137,156.5)">
            <path d="M0.073,-0L0.188,-0L0.188,-0.491L0.073,-0.491L0.073,-0ZM0.13,-0.577C0.171,-0.577 0.199,-0.603 0.199,-0.643C0.199,-0.682 0.171,-0.708 0.13,-0.708C0.089,-0.708 0.061,-0.682 0.061,-0.643C0.061,-0.603 0.089,-0.577 0.13,-0.577Z" style="fill:rgb(89,89,89);fill-rule:nonzero;"/>
        </g>
        <g transform="matrix(9,0,0,9,109.496,156.5)">
            <path d="M0.192,0.012C0.25,0.012 0.298,-0.016 0.344,-0.054L0.348,-0.054L0.356,-0L0.451,-0L0.451,-0.29C0.451,-0.428 0.39,-0.503 0.268,-0.503C0.19,-0.503 0.12,-0.474 0.066,-0.44L0.108,-0.362C0.152,-0.388 0.198,-0.408 0.246,-0.408C0.312,-0.408 0.334,-0.366 0.336,-0.316C0.134,-0.294 0.046,-0.242 0.046,-0.132C0.046,-0.046 0.106,0.012 0.192,0.012ZM0.228,-0.082C0.188,-0.082 0.158,-0.098 0.158,-0.14C0.158,-0.19 0.202,-0.22 0.336,-0.236L0.336,-0.132C0.3,-0.098 0.268,-0.082 0.228,-0.082Z" style="fill:rgb(89,89,89);fill-rule:nonzero;"/>
        </g>
    </g>
    <g transform="matrix(4.16667,0,0,4.16667,0,0)">
        <g transform="matrix(9,0,0,9,34.7063,179)">
            <path d="M0.21,0.012C0.334,0.012 0.401,-0.056 0.401,-0.14C0.401,-0.226 0.334,-0.264 0.258,-0.29C0.196,-0.311 0.16,-0.326 0.16,-0.362C0.16,-0.392 0.183,-0.416 0.233,-0.416C0.272,-0.416 0.308,-0.404 0.343,-0.379L0.394,-0.444C0.354,-0.478 0.297,-0.503 0.23,-0.503C0.12,-0.503 0.052,-0.442 0.052,-0.356C0.052,-0.278 0.118,-0.238 0.189,-0.212C0.243,-0.192 0.292,-0.175 0.292,-0.134C0.292,-0.1 0.267,-0.075 0.214,-0.075C0.163,-0.075 0.118,-0.09 0.075,-0.126L0.024,-0.06C0.072,-0.014 0.142,0.012 0.21,0.012Z" style="fill:rgb(89,89,89);fill-rule:nonzero;"/>
        </g>
        <g transform="matrix(9,0,0,9,38.4055,179)">
            <path d="M0.246,0.01C0.286,0.01 0.321,0.001 0.347,-0.01L0.326,-0.091C0.31,-0.084 0.292,-0.081 0.275,-0.081C0.228,-0.081 0.206,-0.11 0.206,-0.167L0.206,-0.4L0.331,-0.4L0.331,-0.491L0.206,-0.491L0.206,-0.645L0.11,-0.645L0.096,-0.491L0.02,-0.486L0.02,-0.4L0.09,-0.4L0.09,-0.167C0.09,-0.061 0.132,0.01 0.246,0.01Z" style="fill:rgb(89,89,89);fill-rule:nonzero;"/>
        </g>
        <g transform="matrix(9,0,0,9,41.4657,179)">
            <path d="M0.192,0.012C0.25,0.012 0.298,-0.016 0.344,-0.054L0.348,-0.054L0.356,-0L0.451,-0L0.451,-0.29C0.451,-0.428 0.39,-0.503 0.268,-0.503C0.19,-0.503 0.12,-0.474 0.066,-0.44L0.108,-0.362C0.152,-0.388 0.198,-0.408 0.246,-0.408C0.312,-0.408 0.334,-0.366 0.336,-0.316C0.134,-0.294 0.046,-0.242 0.046,-0.132C0.046,-0.046 0.106,0.012 0.192,0.012ZM0.228,-0.082C0.188,-0.082 0.158,-0.098 0.158,-0.14C0.158,-0.19 0.202,-0.22 0.336,-0.236L0.336,-0.132C0.3,-0.098 0.268,-0.082 0.228,-0.082Z" style="fill:rgb(89,89,89);fill-rule:nonzero;"/>
        </g>
        <g transform="matrix(9,0,0,9,46.1099,179)">
            <path d="M0.311,0.012C0.42,0.012 0.521,-0.085 0.521,-0.254C0.521,-0.405 0.45,-0.503 0.327,-0.503C0.277,-0.503 0.226,-0.478 0.185,-0.442L0.188,-0.524L0.188,-0.706L0.073,-0.706L0.073,-0L0.164,-0L0.174,-0.052L0.177,-0.052C0.218,-0.011 0.266,0.012 0.311,0.012ZM0.287,-0.083C0.258,-0.083 0.223,-0.094 0.188,-0.124L0.188,-0.353C0.226,-0.39 0.26,-0.408 0.296,-0.408C0.37,-0.408 0.402,-0.35 0.402,-0.252C0.402,-0.141 0.352,-0.083 0.287,-0.083Z" style="fill:rgb(89,89,89);fill-rule:nonzero;"/>
        </g>
        <g transform="matrix(9,0,0,9,51.1771,179)">
            <path d="M0.073,-0L0.188,-0L0.188,-0.491L0.073,-0.491L0.073,-0ZM0.13,-0.577C0.171,-0.577 0.199,-0.603 0.199,-0.643C0.199,-0.682 0.171,-0.708 0.13,-0.708C0.089,-0.708 0.061,-0.682 0.061,-0.643C0.061,-0.603 0.089,-0.577 0.13,-0.577Z" style="fill:rgb(89,89,89);fill-rule:nonzero;"/>
        </g>
        <g transform="matrix(9,0,0,9,53.5353,179)">
            <path d="M0.073,-0L0.187,-0L0.187,-0.126L0.263,-0.213L0.389,-0L0.514,-0L0.33,-0.29L0.497,-0.491L0.37,-0.491L0.19,-0.266L0.187,-0.266L0.187,-0.706L0.073,-0.706L0.073,-0Z" style="fill:rgb(89,89,89);fill-rule:nonzero;"/>
        </g>
        <g transform="matrix(9,0,0,9,58.1434,179)">
            <path d="M0.192,0.012C0.25,0.012 0.298,-0.016 0.344,-0.054L0.348,-0.054L0.356,-0L0.451,-0L0.451,-0.29C0.451,-0.428 0.39,-0.503 0.268,-0.503C0.19,-0.503 0.12,-0.474 0.066,-0.44L0.108,-0.362C0.152,-0.388 0.198,-0.408 0.246,-0.408C0.312,-0.408 0.334,-0.366 0.336,-0.316C0.134,-0.294 0.046,-0.242 0.046,-0.132C0.046,-0.046 0.106,0.012 0.192,0.012ZM0.228,-0.082C0.188,-0.082 0.158,-0.098 0.158,-0.14C0.158,-0.19 0.202,-0.22 0.336,-0.236L0.336,-0.132C0.3,-0.098 0.268,-0.082 0.228,-0.082Z" style="fill:rgb(89,89,89);fill-rule:nonzero;"/>
        </g>
        <g transform="matrix(9,0,0,9,62.6436,179)">
            <path d="M0.246,0.01C0.286,0.01 0.321,0.001 0.347,-0.01L0.326,-0.091C0.31,-0.084 0.292,-0.081 0.275,-0.081C0.228,-0.081 0.206,-0.11 0.206,-0.167L0.206,-0.4L0.331,-0.4L0.331,-0.491L0.206,-0.491L0.206,-0.645L0.11,-0.645L0.096,-0.491L0.02,-0.486L0.02,-0.4L0.09,-0.4L0.09,-0.167C0.09,-0.061 0.132,0.01 0.246,0.01Z" style="fill:rgb(89,89,89);fill-rule:nonzero;"/>
        </g>
        <g transform="matrix(9,0,0,9,65.8928,179)">
            <path d="M0.213,-0.099L0.3,-0.099L0.3,-0.288L0.479,-0.288L0.479,-0.372L0.3,-0.372L0.3,-0.561L0.213,-0.561L0.213,-0.372L0.034,-0.372L0.034,-0.288L0.213,-0.288L0.213,-0.099Z" style="fill:rgb(89,89,89);fill-rule:nonzero;"/>
        </g>
        <g transform="matrix(9,0,0,9,72.3102,179)">
            <path d="M0.209,0.178L0.281,0.146C0.206,0.018 0.171,-0.131 0.171,-0.278C0.171,-0.425 0.206,-0.574 0.281,-0.702L0.209,-0.734C0.126,-0.598 0.077,-0.454 0.077,-0.278C0.077,-0.102 0.126,0.042 0.209,0.178Z" style="fill:rgb(89,89,89);fill-rule:nonzero;"/>
        </g>
        <g transform="matrix(9,0,0,9,75.2264,179)">
            <path d="M0.083,-0L0.264,-0C0.458,-0 0.576,-0.113 0.576,-0.33C0.576,-0.546 0.458,-0.654 0.258,-0.654L0.083,-0.654L0.083,-0ZM0.199,-0.094L0.199,-0.56L0.25,-0.56C0.382,-0.56 0.457,-0.49 0.457,-0.33C0.457,-0.169 0.382,-0.094 0.25,-0.094L0.199,-0.094Z" style="fill:rgb(89,89,89);fill-rule:nonzero;"/>
        </g>
        <g transform="matrix(9,0,0,9,80.8516,179)">
            <path d="M0.073,-0L0.188,-0L0.188,-0.491L0.073,-0.491L0.073,-0ZM0.13,-0.577C0.171,-0.577 0.199,-0.603 0.199,-0.643C0.199,-0.682 0.171,-0.708 0.13,-0.708C0.089,-0.708 0.061,-0.682 0.061,-0.643C0.061,-0.603 0.089,-0.577 0.13,-0.577Z" style="fill:rgb(89,89,89);fill-rule:nonzero;"/>
        </g>
        <g transform="matrix(9,0,0,9,83.2098,179)">
            <path d="M0.21,0.012C0.334,0.012 0.401,-0.056 0.401,-0.14C0.401,-0.226 0.334,-0.264 0.258,-0.29C0.196,-0.311 0.16,-0.326 0.16,-0.362C0.16,-0.392 0.183,-0.416 0.233,-0.416C0.272,-0.416 0.308,-0.404 0.343,-0.379L0.394,-0.444C0.354,-0.478 0.297,-0.503 0.23,-0.503C0.12,-0.503 0.052,-0.442 0.052,-0.356C0.052,-0.278 0.118,-0.238 0.189,-0.212C0.243,-0.192 0.292,-0.175 0.292,-0.134C0.292,-0.1 0.267,-0.075 0.214,-0.075C0.163,-0.075 0.118,-0.09 0.075,-0.126L0.024,-0.06C0.072,-0.014 0.142,0.012 0.21,0.012Z" style="fill:rgb(89,89,89);fill-rule:nonzero;"/>
        </g>
        <g transform="matrix(9,0,0,9,87.089,179)">
            <path d="M0.28,0.012C0.341,0.012 0.397,-0.012 0.438,-0.05L0.391,-0.121C0.364,-0.097 0.329,-0.082 0.291,-0.082C0.213,-0.082 0.159,-0.147 0.159,-0.245C0.159,-0.344 0.215,-0.409 0.293,-0.409C0.328,-0.409 0.354,-0.396 0.376,-0.377L0.431,-0.448C0.396,-0.481 0.35,-0.503 0.287,-0.503C0.156,-0.503 0.041,-0.409 0.041,-0.245C0.041,-0.082 0.144,0.012 0.28,0.012Z" style="fill:rgb(89,89,89);fill-rule:nonzero;"/>
        </g>
        <g transform="matrix(9,0,0,9,91.0312,179)">
            <path d="M0.274,0.012C0.397,0.012 0.508,-0.082 0.508,-0.245C0.508,-0.409 0.397,-0.503 0.274,-0.503C0.152,-0.503 0.041,-0.409 0.041,-0.245C0.041,-0.082 0.152,0.012 0.274,0.012ZM0.274,-0.082C0.202,-0.082 0.159,-0.147 0.159,-0.245C0.159,-0.344 0.202,-0.409 0.274,-0.409C0.346,-0.409 0.39,-0.344 0.39,-0.245C0.39,-0.147 0.346,-0.082 0.274,-0.082Z" style="fill:rgb(89,89,89);fill-rule:nonzero;"/>
        </g>
        <g transform="matrix(9,0,0,9,95.9183,179)">
            <path d="M0.183,-0L0.316,-0L0.483,-0.491L0.372,-0.491L0.294,-0.236C0.28,-0.188 0.266,-0.138 0.252,-0.088L0.248,-0.088C0.235,-0.138 0.22,-0.188 0.207,-0.236L0.129,-0.491L0.012,-0.491L0.183,-0Z" style="fill:rgb(89,89,89);fill-rule:nonzero;"/>
        </g>
        <g transform="matrix(9,0,0,9,100.32,179)">
            <path d="M0.27,-0.412C0.336,-0.412 0.368,-0.368 0.368,-0.298L0.158,-0.298C0.172,-0.385 0.222,-0.412 0.27,-0.412ZM0.284,0.012C0.346,0.012 0.406,-0.008 0.452,-0.04L0.412,-0.114C0.378,-0.092 0.34,-0.08 0.298,-0.08C0.23,-0.08 0.169,-0.12 0.156,-0.21L0.464,-0.21C0.468,-0.228 0.47,-0.248 0.47,-0.27C0.47,-0.406 0.402,-0.503 0.268,-0.503C0.152,-0.503 0.04,-0.406 0.04,-0.246C0.04,-0.082 0.146,0.012 0.284,0.012Z" style="fill:rgb(89,89,89);fill-rule:nonzero;"/>
        </g>
        <g transform="matrix(9,0,0,9,104.883,179)">
            <path d="M0.073,-0L0.188,-0L0.188,-0.3C0.218,-0.374 0.265,-0.401 0.304,-0.401C0.325,-0.401 0.336,-0.399 0.352,-0.395L0.375,-0.493C0.36,-0.5 0.344,-0.503 0.319,-0.503C0.266,-0.503 0.214,-0.468 0.18,-0.404L0.176,-0.404L0.168,-0.491L0.073,-0.491L0.073,-0Z" style="fill:rgb(89,89,89);fill-rule:nonzero;"/>
        </g>
        <g transform="matrix(9,0,0,9,108.384,179)">
            <path d="M0.106,0.202C0.213,0.202 0.264,0.133 0.305,0.022L0.483,-0.491L0.372,-0.491L0.298,-0.25C0.286,-0.206 0.273,-0.157 0.261,-0.112L0.257,-0.112C0.242,-0.158 0.228,-0.207 0.214,-0.25L0.129,-0.491L0.012,-0.491L0.205,-0.006L0.196,0.025C0.18,0.074 0.15,0.109 0.098,0.109C0.087,0.109 0.077,0.108 0.064,0.104L0.042,0.19C0.06,0.198 0.079,0.202 0.106,0.202Z" style="fill:rgb(89,89,89);fill-rule:nonzero;"/>
        </g>
        <g transform="matrix(9,0,0,9,112.839,179)">
            <path d="M0.115,0.178C0.198,0.042 0.247,-0.102 0.247,-0.278C0.247,-0.454 0.198,-0.598 0.115,-0.734L0.043,-0.702C0.118,-0.574 0.153,-0.425 0.153,-0.278C0.153,-0.131 0.118,0.018 0.043,0.146L0.115,0.178Z" style="fill:rgb(89,89,89);fill-rule:nonzero;"/>
        </g>
    </g>
    <g transform="matrix(4.16667,0,0,4.16667,0,0)">
        <g transform="matrix(9,0,0,9,89.1975,202)">
            <path d="M0.083,-0L0.188,-0L0.188,-0.298C0.188,-0.36 0.18,-0.458 0.172,-0.518L0.176,-0.518L0.226,-0.352L0.332,-0.06L0.41,-0.06L0.516,-0.352L0.568,-0.518L0.572,-0.518C0.564,-0.458 0.555,-0.36 0.555,-0.298L0.555,-0L0.662,-0L0.662,-0.654L0.524,-0.654L0.412,-0.334C0.398,-0.292 0.388,-0.254 0.376,-0.206L0.372,-0.206C0.36,-0.254 0.348,-0.292 0.334,-0.334L0.222,-0.654L0.083,-0.654L0.083,-0Z" style="fill:rgb(89,89,89);fill-rule:nonzero;"/>
        </g>
        <g transform="matrix(9,0,0,9,95.9035,202)">
            <path d="M0.219,0.012C0.286,0.012 0.334,-0.021 0.377,-0.072L0.38,-0.072L0.389,-0L0.483,-0L0.483,-0.491L0.368,-0.491L0.368,-0.155C0.331,-0.107 0.302,-0.087 0.259,-0.087C0.206,-0.087 0.183,-0.117 0.183,-0.198L0.183,-0.491L0.068,-0.491L0.068,-0.183C0.068,-0.059 0.114,0.012 0.219,0.012Z" style="fill:rgb(89,89,89);fill-rule:nonzero;"/>
        </g>
        <g transform="matrix(9,0,0,9,100.909,202)">
            <path d="M0.21,0.012C0.334,0.012 0.401,-0.056 0.401,-0.14C0.401,-0.226 0.334,-0.264 0.258,-0.29C0.196,-0.311 0.16,-0.326 0.16,-0.362C0.16,-0.392 0.183,-0.416 0.233,-0.416C0.272,-0.416 0.308,-0.404 0.343,-0.379L0.394,-0.444C0.354,-0.478 0.297,-0.503 0.23,-0.503C0.12,-0.503 0.052,-0.442 0.052,-0.356C0.052,-0.278 0.118,-0.238 0.189,-0.212C0.243,-0.192 0.292,-0.175 0.292,-0.134C0.292,-0.1 0.267,-0.075 0.214,-0.075C0.163,-0.075 0.118,-0.09 0.075,-0.126L0.024,-0.06C0.072,-0.014 0.142,0.012 0.21,0.012Z" style="fill:rgb(89,89,89);fill-rule:nonzero;"/>
        </g>
        <g transform="matrix(9,0,0,9,104.789,202)">
            <path d="M0.28,0.012C0.341,0.012 0.397,-0.012 0.438,-0.05L0.391,-0.121C0.364,-0.097 0.329,-0.082 0.291,-0.082C0.213,-0.082 0.159,-0.147 0.159,-0.245C0.159,-0.344 0.215,-0.409 0.293,-0.409C0.328,-0.409 0.354,-0.396 0.376,-0.377L0.431,-0.448C0.396,-0.481 0.35,-0.503 0.287,-0.503C0.156,-0.503 0.041,-0.409 0.041,-0.245C0.041,-0.082 0.144,0.012 0.28,0.012Z" style="fill:rgb(89,89,89);fill-rule:nonzero;"/>
        </g>
        <g transform="matrix(9,0,0,9,108.858,202)">
            <path d="M0.192,0.012C0.25,0.012 0.298,-0.016 0.344,-0.054L0.348,-0.054L0.356,-0L0.451,-0L0.451,-0.29C0.451,-0.428 0.39,-0.503 0.268,-0.503C0.19,-0.503 0.12,-0.474 0.066,-0.44L0.108,-0.362C0.152,-0.388 0.198,-0.408 0.246,-0.408C0.312,-0.408 0.334,-0.366 0.336,-0.316C0.134,-0.294 0.046,-0.242 0.046,-0.132C0.046,-0.046 0.106,0.012 0.192,0.012ZM0.228,-0.082C0.188,-0.082 0.158,-0.098 0.158,-0.14C0.158,-0.19 0.202,-0.22 0.336,-0.236L0.336,-0.132C0.3,-0.098 0.268,-0.082 0.228,-0.082Z" style="fill:rgb(89,89,89);fill-rule:nonzero;"/>
        </g>
        <g transform="matrix(9,0,0,9,113.359,202)">
            <path d="M0.246,0.01C0.286,0.01 0.321,0.001 0.347,-0.01L0.326,-0.091C0.31,-0.084 0.292,-0.081 0.275,-0.081C0.228,-0.081 0.206,-0.11 0.206,-0.167L0.206,-0.4L0.331,-0.4L0.331,-0.491L0.206,-0.491L0.206,-0.645L0.11,-0.645L0.096,-0.491L0.02,-0.486L0.02,-0.4L0.09,-0.4L0.09,-0.167C0.09,-0.061 0.132,0.01 0.246,0.01Z" style="fill:rgb(89,89,89);fill-rule:nonzero;"/>
        </g>
    </g>
    <g transform="matrix(0,2.08333,-2.08333,0,973.958,-73.9583)">
        <path d="M49,216L454,216" style="fill:none;fill-rule:nonzero;stroke:rgb(217,217,217);stroke-width:1.5px;"/>
    </g>
</svg>
